<svg xmlns="http://www.w3.org/2000/svg" viewBox="0 0 326.02 387.93"><g id="Layer_2" data-name="Layer 2"><g id="Layer_7_129" data-name="Layer 7,129"><path d="M8.8,31.87c4.67-.5,9.5-.25,14.22-.45,5.45-.22,10.77-1.2,16.17-1.85,9.93-1.2,19.79-3.23,29.69-4.66Q99,20.58,129.33,18.2A991.12,991.12,0,0,1,250.09,16c22.86,1,45.68,2.84,68.43,5.29,4,.43,7.5-3.76,7.5-7.5,0-4.44-3.46-7-7.5-7.5-80.65-9.31-162.58-8-243,2.74Q58.22,11.29,41,14.19A153.26,153.26,0,0,0,25,17.6c-5.91,1.68-11.45,4.56-17.26,6.33C3.57,25.2,4.08,32.39,8.8,31.87Z"/><path d="M.22,30C-.92,60.43,2.59,91.23,5.83,121.47q4.78,44.75,11.31,89.27t14.58,88.71c2.75,15,5.6,29.94,8.69,44.85,2.37,11.44,5.57,23.28,13.32,32.35,8.21,9.59,20.71,13.23,32.87,10.28,11.05-2.67,22.07-11.3,24.24-22.89.71-3.75-.72-7.56-4.44-9.06-3.22-1.29-8-.4-9.59,3.14-3.25,7.32-8.69,12.89-17,13.77-9.09.95-15.33-5.52-19-13.19-4.74-10-6.1-21.88-8.23-32.67q-4-20.13-7.65-40.32Q30.12,204,20.87,121.47C17.38,90.59,15.27,59.3,9.66,28.72,8.64,23.21.41,24.79.22,30Z"/><path d="M113.08,357.55c7.21-9.05,11.49-19.81,16.14-30.3,4.77-10.76,9.49-21.53,14.34-32.26,9.18-20.29,18.34-40.71,29.4-60.06,19.22-33.65,44.8-63.47,76-86.6a289.27,289.27,0,0,1,56.19-32.55c4.5-2,5.53-8.54,3.26-12.42-2.69-4.6-7.94-5.29-12.43-3.26a291.38,291.38,0,0,0-95.33,69.36c-29.29,32.22-48.72,70.47-66.52,109.85q-8.28,18.33-16.29,36.78c-5.29,12.26-11.32,24.67-13,38.07-.49,4,5.7,6.54,8.2,3.39Z"/><path d="M304.05,105.29c3.73-6.32,7.62-11.94,10.34-18.82a124.3,124.3,0,0,0,5.62-20c2.94-13.81,4.69-28.35,4-42.48-.47-9.6-14.87-9.71-15,0-.19,13.3-.85,26.35-3.43,39.44-1.29,6.53-3.15,12.9-4.76,19.35s-2.44,13.08-4.38,19.35c-1.41,4.55,5.22,7.23,7.6,3.21Z"/><path d="M58.5,333.84a4.82,4.82,0,0,1,.42-5.49c1.42-2,3.9-2.82,6.16-3.29,3.55-.74,9-.9,10.91,2.84,1,2,4.54.57,3.66-1.55a6.76,6.76,0,0,1,1.89-8,6.64,6.64,0,0,1,8.31.56c1.61,1.51,4.39-.44,3.14-2.42-1.58-2.54,1.16-5,3.11-6.24,2.45-1.56,5.33-3.11,8.29-3.26s5,1.55,6.78,3.88,3.79,5.05,4.52,8.1c.59,2.5,4.45,1.44,3.86-1.06-.94-4-3.56-7.49-6.1-10.58a10.94,10.94,0,0,0-10.31-4.21A23.38,23.38,0,0,0,92.34,308c-3.1,2.45-5.11,6.78-2.8,10.46l3.14-2.42a10.38,10.38,0,0,0-16.89,11.34l3.66-1.54c-3-5.69-10.75-5.87-16.21-4.5-3.19.8-6.32,2.5-8.06,5.4a8.64,8.64,0,0,0-.13,9.08c1.41,2.14,4.87.14,3.45-2Z"/><path d="M85,313.61c3.07-6.3,6.18-13,5-20.17a16.29,16.29,0,0,0-3.57-7.9,12.25,12.25,0,0,0-3.3-2.74c-.58-.33-1.2-.58-1.8-.9a3.87,3.87,0,0,1-.75-.46c-.4-.35-.15,0-.26-.44l-.92,2.26A18.86,18.86,0,0,0,80,252.07v3.45c6-3.93,9-12,6.41-18.82a16.33,16.33,0,0,0-17.58-10.1l2.53,1.93c.34-4-2.34-7.47-5.65-9.45A17.37,17.37,0,0,0,54.52,217,21.56,21.56,0,0,0,37.2,230.42a2,2,0,0,0,1.4,2.46,2,2,0,0,0,2.46-1.4c2.15-5.53,7.55-9.42,13.31-10.42a13.92,13.92,0,0,1,8.33,1c2.57,1.26,4.88,3.44,4.62,6.51-.12,1.43,1.37,2.1,2.53,1.93a11.81,11.81,0,0,1,8.09,21.61,2,2,0,0,0,0,3.45,14.89,14.89,0,0,1-.57,24.29,2.07,2.07,0,0,0-.92,2.25c.72,3,3.76,3.3,5.81,5a11.36,11.36,0,0,1,3.67,6.42c1.43,6.31-1.73,12.62-4.42,18.14-1.13,2.31,2.32,4.34,3.45,2Z"/><path d="M59.8,224.17a43.29,43.29,0,0,0,8.56-7.24c2.4-2.69,4.32-6,3.78-9.72-.89-6.16-7.64-9.14-13-10.44l.89,3.34c5.14-5.07,9.69-12,7.62-19.56a12.16,12.16,0,0,0-5.6-7.53,15.48,15.48,0,0,0-4.76-1.46c-1.45-.28-2.92-.49-3.94-1.65v2.83a19.46,19.46,0,0,0-13.76-32l1.93,2.54c1.13-2.72-.25-5.71-2.35-7.54a12.58,12.58,0,0,0-7.78-2.91,16.18,16.18,0,0,0-14,6.91c-1.47,2.12,2,4.12,3.45,2a12.07,12.07,0,0,1,9.49-4.95,9.6,9.6,0,0,1,5.2,1.2c1.47.9,2.84,2.43,2.1,4.2-.54,1.3.79,2.45,1.93,2.53a15.46,15.46,0,0,1,10.93,25.21,2.07,2.07,0,0,0,0,2.83c2.12,2.41,5.27,2.38,8.13,3.19a7.49,7.49,0,0,1,5,5c2.1,6.28-2.13,12.1-6.4,16.31a2,2,0,0,0,.88,3.35c3.67.89,9.67,2.83,10.17,7.34.28,2.61-1.59,4.95-3.27,6.73a39.49,39.49,0,0,1-7.2,6c-2.15,1.41-.15,4.87,2,3.46Z"/><path d="M153.15,242.26c0,.68,0-.12.17-.14s-.21.07-.21.07c-.37,0-.84.15-1.24.1a11.46,11.46,0,0,1-3.8-1.51,17.45,17.45,0,0,1-6.47-5.71c-2.94-4.53-2.89-10.93,1.34-14.67a2,2,0,0,0-.89-3.34c-4.76-1.26-7.32-6.89-6.17-11.49,1.41-5.67,7.08-9,12.53-9.79a2,2,0,0,0,1.47-1.93,2.09,2.09,0,0,0-1.47-1.93,2.57,2.57,0,0,1-1.27-2.27,6.78,6.78,0,0,1,1.35-3.85,16,16,0,0,1,5.72-5.62,7.29,7.29,0,0,1,6.71-.46,5.15,5.15,0,0,1,3.25,5c-.18,2,2.8,2.65,3.73,1a8.83,8.83,0,0,1,10.74-3.92A9,9,0,0,1,183,186c1.17,2.25,1,4.5.49,6.89s3.28,3.58,3.85,1.07a14,14,0,0,0-.72-9.66,12.45,12.45,0,0,0-22.19-.58l3.73,1c.31-3.62-2.09-6.93-5.23-8.5a11.51,11.51,0,0,0-11.08.65,19.78,19.78,0,0,0-7.89,8.91c-1.61,3.77-.74,8.35,3.38,10v-3.86c-6.94,1-14.11,6-15.46,13.21-1.24,6.56,2.37,14,9.1,15.79l-.88-3.35c-6.2,5.47-5.61,15-.79,21.14a22.76,22.76,0,0,0,9.6,6.84,8.06,8.06,0,0,0,5.25.5,3.77,3.77,0,0,0,3-3.79c-.17-2.56-4.17-2.58-4,0Z"/><path d="M190.68,160.22A13.44,13.44,0,0,1,177,139.12c1.26-1.82-1.11-3.48-2.74-2.74a14.77,14.77,0,0,1-17.42-22.94c1.35-1.61-.42-4.53-2.42-3.14-4.64,3.23-10.8.67-13.9-3.51-3.94-5.29-1.9-12.15,2.38-16.57a20.67,20.67,0,0,1,9.87-5.63c1.8-.44,1.79-2.71.47-3.65a12.11,12.11,0,0,1,7.47-22c2.09,0,2.57-2.67,1-3.73a18.6,18.6,0,0,1-8-15.32A18.59,18.59,0,0,1,162,24.8c2.15-1.4.15-4.87-2-3.46a22.77,22.77,0,0,0-10.36,18.59,22.74,22.74,0,0,0,10,18.77l1-3.72a16.1,16.1,0,0,0-9.49,29.41l.48-3.65c-7.81,1.93-15.28,8.13-17,16.27a14.88,14.88,0,0,0,1.81,11,17.14,17.14,0,0,0,8.49,6.87,12.4,12.4,0,0,0,11.4-1.16L154,110.61a19.46,19.46,0,0,0-3.36,18.92,18.49,18.49,0,0,0,14.55,11.78,19.18,19.18,0,0,0,11.08-1.47l-2.74-2.74a17.81,17.81,0,0,0,.12,20.14,18,18,0,0,0,18.13,6.84c2.51-.54,1.45-4.4-1.07-3.86Z"/><path d="M193.2,162.2c10.16-7.41,11.59-23.76,2.44-32.59l-.89,3.34a19.63,19.63,0,0,0,4.1-35l-.48,3.66A20.83,20.83,0,0,0,209,66l-1.41,3.42c12.67.06,22.93-14.54,18.16-26.42a2.06,2.06,0,0,0-2.46-1.4,2,2,0,0,0-1.4,2.46c1.9,5.6,7.51,8.78,13.25,8.85,6.41.08,11.86-4.07,14.8-9.57a26.18,26.18,0,0,0,2.94-10.59l-2.54,1.92a9.31,9.31,0,0,0,9.08-3.41c2.53-3,3.15-7,3.37-10.78.18-3.21.55-7.58-2.6-9.57-2.37-1.5-6.33-.73-6.93,2.35-.49,2.51,3.37,3.59,3.86,1.06.07-.35.1-.17,0-.11a1.09,1.09,0,0,1,.46-.07c.61,0,.87.49,1.08,1.07a8.51,8.51,0,0,1,.24,3.1c0,1.31-.09,2.62-.22,3.92a11.89,11.89,0,0,1-2.19,6.35c-1.21,1.47-3.1,2.65-5.06,2.24a2,2,0,0,0-2.53,1.93c-.42,6.1-3.53,13.19-9.66,15.48-4.81,1.8-11.69,0-13.47-5.23l-3.86,1.06c3.79,9.44-4,21.41-14.3,21.36a2,2,0,0,0-1.42,3.41,16.83,16.83,0,0,1-8.83,28.85c-1.81.34-1.8,2.79-.48,3.66a15.61,15.61,0,0,1-3.14,27.73,2,2,0,0,0-.88,3.35c7.15,6.9,6.51,20.37-1.63,26.31a2.06,2.06,0,0,0-.72,2.73,2,2,0,0,0,2.74.72Z"/><path d="M187.24,17.59c3-2,6.68,1,8.43,3.44,2.36,3.28,4.12,6.85,7.44,9.3a2,2,0,0,0,2.74-.71,14.3,14.3,0,0,1,9.72-7.45,14.09,14.09,0,0,1,12.22,3.56,2,2,0,0,0,3.14-.4,11.93,11.93,0,0,1,13.28-6.49c2.5.6,3.57-3.25,1.06-3.86a15.94,15.94,0,0,0-17.79,8.33l3.14-.41a18.28,18.28,0,0,0-15.75-4.65,18.09,18.09,0,0,0-12.48,9.35l2.74-.72c-3.53-2.61-4.89-7.21-8-10.25s-8-5-11.93-2.49c-2.16,1.38-.16,4.85,2,3.45Z"/><path d="M163.21,18.58a23.67,23.67,0,0,1-2.82-1.48c-.44-.27-.88-.55-1.3-.85-.22-.15-.44-.32-.66-.48s.13.12-.05,0l-.32-.26a23.94,23.94,0,0,1-2.28-2.11c-.38-.39-.74-.8-1.09-1.22l-.46-.57c-.15-.19.18.26,0-.05l-.29-.4a2,2,0,0,0-2.73-.71,2,2,0,0,0-.72,2.73A26.75,26.75,0,0,0,161.19,22a2.07,2.07,0,0,0,2.74-.72,2,2,0,0,0-.72-2.74Z"/><path d="M31.28,56.94a24.08,24.08,0,0,0-9.57,23.44,19,19,0,0,0,.76,3,18.49,18.49,0,0,1,1.31,3.72,15.51,15.51,0,0,1-.48,3.76,42.28,42.28,0,0,0-.39,4.49c-.13,5.16.47,11.24,3.36,15.67,3,4.65,9.26,6.93,14,3.26l-3.34-1.95c-1,4.09-.57,8.6,2.3,11.86A9.2,9.2,0,0,0,50,126.67a11.77,11.77,0,0,0,6.15-8.55c.81-4.74-.75-9.34-2.37-13.72l-.52,1.94A18.13,18.13,0,0,0,58.7,91.61a18.37,18.37,0,0,0-8-13.25l.71,2.74c3.14-6.65,6-14.32,3.29-21.62-2.23-6.1-7.83-10.42-14.49-9a10,10,0,0,0-7.33,6A2,2,0,0,0,34.24,59a2,2,0,0,0,2.46-1.39c.92-2.24,3.57-3.35,5.85-3.4a8.12,8.12,0,0,1,7,3.93c4.26,6.56,1.38,14.56-1.64,21a2.08,2.08,0,0,0,.72,2.74,14.08,14.08,0,0,1,1.76,21.7,2,2,0,0,0-.52,1.94c1.9,5.13,4.79,13.08-.77,17.09a5.05,5.05,0,0,1-6.7-.74c-2.2-2.19-2.39-5.52-1.67-8.37.53-2.09-1.84-3.12-3.34-2a4.78,4.78,0,0,1-4.68.21,8,8,0,0,1-3.77-4c-2-4.08-2.26-9.24-2-13.69.15-2.45,1.08-5.06.71-7.5-.29-2-1.37-3.82-1.85-5.8A19.75,19.75,0,0,1,26.38,70a19.16,19.16,0,0,1,6.92-9.65A2.05,2.05,0,0,0,34,57.66a2,2,0,0,0-2.73-.72Z"/><path d="M39.15,26.81a19,19,0,0,0-.63,10.13c.64,3.15,2.21,6.94,5.1,8.65s6.27.79,8.67-1.16c2.65-2.16,3.73-5.6,4.65-8.76L53,35.14A11.83,11.83,0,0,0,65.54,47.92c6.87-.54,11.38-6.81,12.43-13.2A23.21,23.21,0,0,0,76.56,22a2,2,0,0,0-3.66-.48l-1.66,2.73c-1.34,2.2,2.12,4.22,3.46,2l1.66-2.73-3.66-.48c2.51,6.05,2.48,14.64-3,19.12a7.77,7.77,0,0,1-12.64-7c.21-2.3-3.32-2.64-3.93-.53S51.8,39.31,50.13,41c-1.3,1.32-3.48,2.12-5,.74-1.7-1.53-2.51-4.3-2.86-6.48A15.11,15.11,0,0,1,43,27.87c.86-2.43-3-3.48-3.86-1.06Z"/><path d="M113.21,14.39C110.45,20.12,113,27.65,119,30.1s13.34-1.5,14.81-7.71l-3.65.48a13.55,13.55,0,0,0,14.9,7.26,13.51,13.51,0,0,0,10.1-13.78c-.18-2.55-4.18-2.57-4,0A9.51,9.51,0,0,1,144,26.27a9.56,9.56,0,0,1-10.39-5.42c-.73-1.57-3.27-1.12-3.65.48-.94,4-5.74,6.69-9.6,5a7.71,7.71,0,0,1-3.68-9.95c1.11-2.31-2.34-4.34-3.46-2Z"/><path d="M248.27,131.56a9.39,9.39,0,0,1-6.36-17.2,2,2,0,0,0-1.55-3.66c-1.76.34-5.54.54-6.18-1.75-.4-1.43.4-3.32.91-4.65a19.58,19.58,0,0,1,2.22-4.07,20.83,20.83,0,0,1,15.51-8.86c2.11-.12,2.88-3.51.53-3.93-.54-.09-.09,0,0,.11.1.5.09,0,.08,0s0-.55.1-.77a4.87,4.87,0,0,1,1.76-2.3,10.84,10.84,0,0,1,17.35,4.77,2,2,0,0,0,3.66.48,7.49,7.49,0,0,1,7.53-3.22,7.58,7.58,0,0,1,5.81,6,2,2,0,0,0,3.34.89c.92-1.14,2-2.7,3.48-3.13.35-.11,2,0,1.89.67-.47,2.52,3.39,3.6,3.86,1.07a5,5,0,0,0-4.69-5.79c-3.15-.34-5.55,2.1-7.36,4.35l3.34.88a11.29,11.29,0,0,0-20.65-3.74l3.65.48a15,15,0,0,0-17.06-10,14.44,14.44,0,0,0-8.87,5.55c-1.61,2.33-1.78,7,1.77,7.6l.53-3.93a24.87,24.87,0,0,0-21.65,16c-1.14,3-1.85,6.82.78,9.32,2.47,2.35,6.32,2.44,9.48,1.84l-1.54-3.66c-5.06,3.33-7.65,10.13-5.48,15.92a13.84,13.84,0,0,0,14.92,8.6,2,2,0,0,0,1.4-2.46,2.06,2.06,0,0,0-2.46-1.4Z"/><path d="M147,176.78c-2.83.65-6.27,1.55-8.86-.25-2.33-1.62-1.72-4.07.11-5.81,1.56-1.47-.1-3.67-1.94-3.34a17.92,17.92,0,0,1-8.81-.64c-2.32-.76-6-2.21-6.17-5.06-.25-5.18,3.85-10.18,8.57-11.84a2,2,0,0,0-1.06-3.85c-.86.18-1.56-1-1.65-1.71a5.86,5.86,0,0,1,1.22-3.6A17.06,17.06,0,0,1,134,135a7.27,7.27,0,0,1,6.61-.77c1.91.86,3.78,2.82,3.31,5.06h3.85c-.32-2,2.13-3.4,3.7-3.83a9.22,9.22,0,0,1,7,1.29,10,10,0,0,1,3.23,13.51,2,2,0,0,0,2.73,2.73c.78-.46,1.78.64,2.22,1.23a10.1,10.1,0,0,1,1.53,3.84,14,14,0,0,1-.87,8.43,16,16,0,0,1-12.75,9l1.41,3.42,1.21-1.31c1.75-1.88-1.08-4.72-2.83-2.83l-1.21,1.31c-1,1.14-.42,3.62,1.42,3.41,7.73-.88,14.8-5.77,17.13-13.41a17.63,17.63,0,0,0-.42-11.56c-1.35-3.34-4.93-7.36-8.85-5l2.73,2.74a14,14,0,0,0-5.63-19.51,12.54,12.54,0,0,0-10.55-.63c-3.34,1.45-5.65,4.49-5,8.22.32,1.95,3.46,1.86,3.85,0,.86-4-1.52-7.83-5.14-9.58A11.38,11.38,0,0,0,131.33,132c-3.3,2.17-6.54,5.75-7.76,9.56a6.77,6.77,0,0,0,.85,6.14,5.3,5.3,0,0,0,5.48,2.15L128.84,146c-6.57,2.29-12.39,9.3-11.43,16.6.55,4.12,4.51,6.3,8,7.66a22.2,22.2,0,0,0,11.92,1l-1.94-3.34c-3.2,3-4,7.91-.56,11.11,3.69,3.4,8.71,2.66,13.19,1.63,2.51-.58,1.45-4.44-1.06-3.86Z"/><path d="M75.49,148.72q-1.65-27.42-2.64-54.87Q72.6,87,72.4,80.19c-.12-4.1-.13-8.11,1.59-11.92,1.61-3.58,3.82-6.83,5.36-10.45a45.4,45.4,0,0,0,3.14-11.14,47.56,47.56,0,0,0-3.37-25.92A2,2,0,0,0,76.38,20a2,2,0,0,0-.71,2.73,43.18,43.18,0,0,1,.26,32.93c-1.45,3.62-3.68,6.83-5.31,10.35a26.83,26.83,0,0,0-2.28,11.86c.06,4.4.26,8.81.41,13.21q.47,13.55,1.11,27.07.7,15.27,1.63,30.53c.16,2.56,4.16,2.58,4,0Z"/><path d="M109.48,111.62l-1.22-22.44a109.71,109.71,0,0,1-.42-11c.16-3.31,1.45-6,3.06-8.84a58.66,58.66,0,0,0,7.35-36.71,55.81,55.81,0,0,0-2.36-10.35c-.55-1.64-1.79-3.85-3.92-2.72a2.34,2.34,0,0,0,0,4,2,2,0,0,0,2,0l.12-.05c2.31-1.13.28-4.58-2-3.46l-.12.06h2l-.1-.07.92,1.2v.62l-.92,1.19L114,23l-1.55.21.25.05-.88-.52,0-.2c.09.27.19.53.28.8s.17.53.26.8c.21.67.41,1.34.59,2,.37,1.36.69,2.72,1,4.1a51.8,51.8,0,0,1,.9,8.24,54.32,54.32,0,0,1-2.1,16.73A50.21,50.21,0,0,1,109.73,63c-1.22,2.57-2.79,4.95-4,7.52-2.77,5.9-1.81,12.38-1.47,18.67l1.22,22.44c.14,2.56,4.14,2.58,4,0Z"/><path d="M73.57,150.22a48.63,48.63,0,0,1,10.61,18.22c2.42,7.65,2.7,15.68,2.9,23.65A212.53,212.53,0,0,0,89,216.91a25.67,25.67,0,0,0,1,5.66,4.22,4.22,0,0,0,4.24,2.63c4.12,0,8.28-.45,12.4-.69l28.69-1.62c2.56-.14,2.57-4.14,0-4l-24.73,1.4-12.37.7-3,.16c-.48,0-1.31.25-1.59-.13a7.38,7.38,0,0,1-.45-2.54c-.16-1-.32-2.07-.46-3.11a216,216,0,0,1-1.69-24.25c-.2-7.84-.57-15.8-2.89-23.35a53.16,53.16,0,0,0-11.77-20.38c-1.75-1.89-4.57.94-2.82,2.83Z"/><path d="M140.52,196.67l-.43-12.83c-.06-1.73,0-3.61-1-5.09s-3-1.83-4.83-1.76c-4.18.19-8.36.44-12.54.58-.42,0-1.3.17-1.65-.19s-.46-1.63-.55-2.17a24.67,24.67,0,0,1-.21-6.13l-2,2,7.93-.11c2.57,0,2.58-4,0-4l-7.93.11a2,2,0,0,0-2,2,28.57,28.57,0,0,0,.18,6.06c.24,1.72.46,3.77,1.75,5.07a6,6,0,0,0,4.66,1.35c2.18-.07,4.36-.2,6.54-.3s4.15-.22,6.23-.28c.42,0,1-.12,1.22.19.37.58.17,1.79.19,2.42l.44,13.08c.09,2.57,4.09,2.58,4,0Z"/><path d="M123.08,150.14q-.36-15.64-.18-31.28a2,2,0,0,0-1.47-1.93l-5.89-.89c-.87-.13-1.75-.25-2.63-.4a3.58,3.58,0,0,1-1-.21c-.34-.17-.14.12-.14-.17,0-1.43.59-2.57.07-4a3.33,3.33,0,0,0-3.31-2.4,2.07,2.07,0,0,0-2,2,2,2,0,0,0,2,2c-.54.06-.4-.64-.42.19,0,.68-.31,1.35-.33,2a4,4,0,0,0,2.18,3.85,15.93,15.93,0,0,0,4.73,1l5.65.85-1.47-1.93q-.16,15.64.18,31.28c0,2.57,4,2.58,4,0Z"/><path d="M250.94,82.12A107.24,107.24,0,0,0,234.71,77l1.2,2.94L255.5,38.87l-2.74.72a250.53,250.53,0,0,0,41.75,18.06l-1.19-2.94L278.38,83.9c-1.17,2.29,2.28,4.32,3.46,2l14.93-29.19a2,2,0,0,0-1.2-2.94,243.15,243.15,0,0,1-40.79-17.66,2,2,0,0,0-2.74.72L232.45,77.93a2,2,0,0,0,1.2,2.94A106.72,106.72,0,0,1,249.87,86a2,2,0,0,0,2.46-1.39,2,2,0,0,0-1.39-2.46Z"/><path d="M254.46,30.23A103.84,103.84,0,0,1,277.25,35c3.69,1.21,7.2,2.75,10.79,4.21a3.52,3.52,0,0,0,4.61-1.37,29.78,29.78,0,0,0,2.16-5.44,79.28,79.28,0,0,0,3.29-13.06,2.06,2.06,0,0,0-1.4-2.46,2,2,0,0,0-2.46,1.39,78.14,78.14,0,0,1-3.44,13.5c-.42,1.17-.83,2.35-1.33,3.48a5,5,0,0,1-.27.57c.57-.13.66-.24.28-.31-.13-.23-1-.44-1.26-.56-2.19-1-4.41-1.86-6.65-2.68a108.24,108.24,0,0,0-27.11-6,2,2,0,0,0-2,2,2,2,0,0,0,2,2Z"/><path d="M252.87,33.13a20.52,20.52,0,0,0,5.66-15.84,2,2,0,0,0-2-2,2,2,0,0,0-2,2,16.55,16.55,0,0,1-4.48,13,2,2,0,1,0,2.82,2.83Z"/><path d="M257.35,23.64c2.58,0,2.58-4,0-4s-2.57,4,0,4Z"/><path d="M223,147.33,205,137.8l.41,3.14c5.33-4.49,7.39-11.31,10.31-17.39a36.74,36.74,0,0,1,2.49-4.46,18.55,18.55,0,0,1,1.37-1.83c.23-.26.46-.52.7-.77s.35-.36.53-.53c-.52,0-.56.05-.11.21a6,6,0,0,0,1.52.83l1.53.82,3,1.66,6.53,3.54c2.27,1.23,4.29-2.22,2-3.45l-7-3.78c-2.07-1.13-4.13-2.42-6.29-3.38-2.38-1-4.12.56-5.57,2.29a29.56,29.56,0,0,0-3.12,4.63c-3.46,6.29-5.13,14-10.82,18.78a2,2,0,0,0,.41,3.15l18,9.52c2.27,1.21,4.29-2.24,2-3.45Z"/><path d="M214.31,146.57c4.21-2.51,6.28-7,8.25-11.25l3.62-7.92,1.86-4.07.93-2,.42-.91c.08-.2.17-.39.27-.59s.1-.18,0,0l-1,.27h.27l-1-.28.14.1-.92-1.2,0,.16v-1.07l.26-.45,1.41-.59h-.11l1.73,1-.08-.12c-1.31-2.21-4.77-.2-3.45,2l.08.12a2,2,0,0,0,1.72,1,2.37,2.37,0,1,0-1.74-4c-1.27,1.15-1.81,3.25-2.51,4.76l-2.38,5.2c-1.48,3.24-2.9,6.53-4.48,9.72-1.28,2.59-2.79,5.15-5.33,6.66-2.21,1.32-.2,4.78,2,3.45Z"/><path d="M260,80.24a78,78,0,0,1,12.06-22.82,2,2,0,0,0-.72-2.73,2,2,0,0,0-2.74.71,81.32,81.32,0,0,0-12.46,23.78c-.8,2.45,3.06,3.5,3.86,1.06Z"/><path d="M252.37,40.42,267.4,58a2,2,0,0,0,2.83,0,2.05,2.05,0,0,0,0-2.83l-15-17.6a2,2,0,0,0-2.83,2.82Z"/><path d="M270.42,58.52,293,60.32c2.57.2,2.55-3.8,0-4l-22.53-1.8c-2.57-.21-2.56,3.79,0,4Z"/><path d="M81.67,51.6l21.69-.89a2,2,0,0,0,1-3.73c-3.22-2.24-7.11-2.58-10.85-3.26-2.87-.52-6.17-1.4-7.73-4.11-.78-1.35-3.41-1.3-3.66.48a14.55,14.55,0,0,0,.3,5.91l2.94-2.26a2.29,2.29,0,0,1-1.1-1.25,2,2,0,0,0-2.19-1.43,2,2,0,0,0-1.73,2,6,6,0,0,0,3.22,5c2.29,1.16,4.32-2.29,2-3.46A2,2,0,0,1,84.35,43l-3.93.54a6.54,6.54,0,0,0,2.93,3.63,2,2,0,0,0,2.93-2.25A9.71,9.71,0,0,1,86,41.15l-3.65.48c1.86,3.25,5.37,4.9,8.9,5.7,3.75.86,7.85.83,11.11,3.11l1-3.73-21.69.89c-2.57.11-2.58,4.11,0,4Z"/><path d="M73.7,83.89l5.06-.11a2,2,0,0,0,2-2q-.37-11.58-1.15-23.14c-.17-2.56-4.18-2.57-4,0q.78,11.55,1.15,23.14l2-2-5.06.11c-2.57.06-2.58,4.06,0,4Z"/><path d="M85,157.17a10.48,10.48,0,0,0,.17-4.21c-.08-.71-.45-2.14,0-2.79.34-.46,1.18-.47,1.7-.53l2.94-.28,5.65-.54c3.74-.36,7.47-.77,11.21-1.08,1.44-.12,4.81-.44,5.39,1.4l2.94-2.26c-1.07-.64-2.6-1.4-3.12-2.62-.22-.54-.21-1.67.56-1.62l-1.41-3.41a25.89,25.89,0,0,1-16.62,5.44A26.66,26.66,0,0,1,85.66,143a30,30,0,0,1-8.18-5,2.06,2.06,0,0,0-2.83,0,2,2,0,0,0,0,2.83,36.87,36.87,0,0,0,9.61,5.91,30.4,30.4,0,0,0,29.64-4.68c1.46-1.18.13-3.31-1.42-3.41-2.87-.2-4.83,2.67-4.69,5.32.16,3,2.85,5,5.23,6.37a2,2,0,0,0,2.94-2.26c-1-3.3-4.36-4.35-7.52-4.4a53.72,53.72,0,0,0-5.81.46l-7.13.69-6.87.66c-2,.19-4.2.16-5.82,1.49A5.34,5.34,0,0,0,81,151.45c0,1.53.57,3.15.11,4.66-.74,2.47,3.12,3.52,3.86,1.06Z"/><path d="M115.07,174.94q-8.28.26-16.56-.21l.53,3.93a14.75,14.75,0,0,0,6.85-3.18,4.43,4.43,0,0,0,1.39-1.53,4.51,4.51,0,0,0-.12-2.54l-.75-4.33-1.93,2.53,9.87-.08c2.57,0,2.58-4,0-4l-9.87.08a2,2,0,0,0-1.93,2.53l1,5.57.52-1.94a11.09,11.09,0,0,1-6.06,3,2,2,0,0,0,.53,3.93q8.28.47,16.56.21c2.57-.07,2.58-4.07,0-4Z"/><path d="M96.92,200.32l24-.48a2,2,0,0,0,1.41-3.42,13.83,13.83,0,0,1-2.57-6c-.42-2.21-4-1.71-3.93.54l.18,4c.07,1.39,1.7,2.66,3,1.73A56.46,56.46,0,0,1,131.55,190l-1.07-3.86a55.94,55.94,0,0,1-14.57,3.66l.53,3.93a62.88,62.88,0,0,1,13.86-3.23,2.05,2.05,0,0,0,2-2,2,2,0,0,0-2-2,67,67,0,0,0-14.92,3.37,2,2,0,0,0-1.43,2.2,2,2,0,0,0,2,1.73,59.81,59.81,0,0,0,15.64-3.8,2.06,2.06,0,0,0,1.39-2.46,2,2,0,0,0-2.46-1.4A60.46,60.46,0,0,0,117,193.28l3,1.72-.18-4-3.93.53a18.1,18.1,0,0,0,3.6,7.72l1.42-3.41-24,.48c-2.57.05-2.58,4.05,0,4Z"/><path d="M124.66,299.69a10.73,10.73,0,0,1-10.32-17.31c.84-1,.76-3.08-.88-3.34-3.3-.54-6.77-1.13-9.64-3a9.75,9.75,0,0,1-4.39-7.49c-.6-7.09,4.44-12.76,9.78-16.71a2,2,0,0,0-.47-3.65c-2.83-1.19-2.19-5.11-.84-7.08a11.4,11.4,0,0,1,6.91-4.41c5-1.17,11,.59,14.07,4.82.93,1.26,3.25,1.36,3.65-.48.32-1.47,2-2,3.36-1.77,2.11.33,3.67,2.43,4.79,4.07,1.39,2,3,4.31,3.42,6.8.26,1.67-.29,3.93-2.08,4.5-2.44.77-1.4,4.64,1.06,3.85a7.67,7.67,0,0,0,5.08-7.7c-.13-3.74-2.36-7.16-4.47-10.11-2-2.73-4.58-5.29-8.14-5.44-3-.12-6.21,1.65-6.88,4.74l3.66-.48A17.85,17.85,0,0,0,117,232.43c-6,.33-13,4.11-14.14,10.59a8.16,8.16,0,0,0,4.81,9.08l-.48-3.66c-6.54,4.83-12.63,11.82-11.72,20.53a13.86,13.86,0,0,0,5.72,10.15c3.26,2.33,7.33,3.15,11.21,3.77l-.88-3.34a14.71,14.71,0,0,0,14.2,24c2.53-.47,1.46-4.33-1.06-3.86Z"/><path d="M117.25,269.34c-.34,0-.67,0-1,0s.44.1-.11,0l-.44-.1a7.65,7.65,0,0,1-1-.3c-.35-.13.08.05-.11-.05s-.28-.13-.41-.21a7.77,7.77,0,0,1-.78-.48c-.48-.31.25.24-.18-.13l-.34-.3a8,8,0,0,1-.64-.66c-.08-.11-.24-.33-.08-.1-.1-.15-.21-.3-.3-.46a5.6,5.6,0,0,1-.44-.84c.13.31,0-.08,0-.14s-.1-.3-.14-.46a5.54,5.54,0,0,1-.14-.55c0-.05-.09-.55-.06-.3s0-.26,0-.31,0-.32,0-.48a5.9,5.9,0,0,1,.88-3.27,2,2,0,1,0-3.45-2,10,10,0,0,0,8.79,15.22,2,2,0,0,0,0-4Z"/><path d="M69.85,278.76c4.1-.73,7.23-4.25,8.35-8.13C79.53,266,78,261,75.64,257c-1.31-2.21-4.77-.2-3.45,2,1.78,3,3.14,6.73,2.22,10.26a7.31,7.31,0,0,1-5.62,5.6,2,2,0,0,0-1.4,2.46,2,2,0,0,0,2.46,1.4Z"/><path d="M164.58,85.68a5.9,5.9,0,0,1,8.22.51c.74.86,2.17-.25,1.57-1.21a6.31,6.31,0,0,1,5.35-9.8,1,1,0,0,0,0-2A8.31,8.31,0,0,0,172.64,86l1.57-1.21a7.91,7.91,0,0,0-11-.52c-.95.88.47,2.29,1.41,1.42Z"/><path d="M170.73,54.34l4.12.58a30.8,30.8,0,0,0,4.25.59c1,0,1.79-1.13,2.53-1.71A35,35,0,0,1,185,51.39c2-1.26,4.46-3,6.81-1.56s2.77,4.6,3,7.14h2a6,6,0,0,1,9-6.08l1-1.73a12,12,0,0,1-5.49-14.08c.41-1.22-1.52-1.75-1.93-.53a14,14,0,0,0,6.41,16.34,1,1,0,0,0,1-1.73,7.9,7.9,0,0,0-12,7.81c.16,1.24,2.1,1.32,2,0-.28-4-1.6-9.23-6.4-9.73-2.17-.22-4.22,1.11-6,2.19a40.51,40.51,0,0,0-5.88,4.39l1-.26-8.24-1.15c-1.26-.17-1.8,1.75-.53,1.93Z"/><path d="M223.15,31.52a9.17,9.17,0,0,1,5.61,7.32c.15,1.26,2.14,1.28,2,0a4.18,4.18,0,0,1,2.08-4.21,4.13,4.13,0,0,1,4.65.67,1,1,0,0,0,1.41,0,6,6,0,0,1,4-2.39l-.86-.5a.92.92,0,0,1-.17,1c-.75,1,1,2,1.73,1a2.9,2.9,0,0,0,.17-3,1,1,0,0,0-.87-.49,7.91,7.91,0,0,0-5.45,3h1.41a6.18,6.18,0,0,0-6.82-1.1,6.11,6.11,0,0,0-3.32,6.06h2a11.27,11.27,0,0,0-7.08-9.25c-1.19-.47-1.71,1.46-.53,1.93Z"/><path d="M182.91,104.64a8.07,8.07,0,0,1,9.23-2.51c1.11.43,1.67-1.24.77-1.83a5.85,5.85,0,0,1-1-8.4c.86-1-.55-2.38-1.41-1.42A7.88,7.88,0,0,0,191.91,102l.77-1.83a10,10,0,0,0-11.19,3,1,1,0,0,0,0,1.41,1,1,0,0,0,1.42,0Z"/><path d="M164.92,44.8a14,14,0,0,1,5.55-16.65l-1.36-1.37-1.18,1.61c-.76,1,1,2,1.73,1l1.17-1.61c.61-.83-.56-1.86-1.36-1.37A16,16,0,0,0,163,45.33c.45,1.19,2.39.67,1.92-.53Z"/><path d="M252.6,114a5.66,5.66,0,0,1,8.85-6.58,1,1,0,0,0,1.5-.86,4.34,4.34,0,0,1,3.69-4.54c2.49-.44,4.89,1,6.58,2.68a1,1,0,0,0,1.7-.7l.1-1c.12-1.28-1.88-1.27-2,0l-.1,1,1.71-.71c-2.26-2.27-5.55-4-8.82-3.13-2.82.71-5.17,3.41-4.86,6.4l1.51-.87A7.63,7.63,0,0,0,250.88,115c.5,1.18,2.23.16,1.72-1Z"/><path d="M305.83,65.28c.82-3.54,1.54-7.54-.85-10.66a6.31,6.31,0,0,0-3.75-2.3c-.65-.16-1.05-.24-1-1a7.77,7.77,0,0,1,.39-1.41c.32-1,.68-2,1.08-3,.83-2,2.08-3.86,2.91-5.87a3,3,0,0,0-1-3.83c-1.18-.79-3.1-.77-3.6-2.31-.61-1.84.81-3.49,2.12-4.58C305,28,310.46,24,313.81,27.57c.88.94,2.29-.47,1.41-1.41-2.76-2.93-7-2.09-10.14-.25s-7.36,4.46-7.09,8.5a4.09,4.09,0,0,0,2.48,3.6,9.42,9.42,0,0,1,2.11.89c1,.84-.32,2.45-.8,3.33A42.28,42.28,0,0,0,299,48.55c-.51,1.51-1.47,3.75,0,5,.83.72,1.93.57,2.88,1a4.67,4.67,0,0,1,2.08,2.2c1.22,2.49.5,5.41-.08,8-.29,1.26,1.64,1.79,1.92.53Z"/><path d="M36.47,104.65c-3.56-2.87-3.21-9.25.8-11.57a1,1,0,0,0-1-1.73c-5,2.92-5.78,11-1.2,14.71a1,1,0,0,0,1.41,0,1,1,0,0,0,0-1.41Z"/><path d="M43.92,87.71a19.44,19.44,0,0,1-4.87-9c-.3-1.25-2.23-.72-1.93.53a21.62,21.62,0,0,0,5.38,9.87c.89.93,2.31-.49,1.42-1.42Z"/><path d="M39.09,68.56l-.72-2.91a1,1,0,0,0-1.93.53l.72,2.91a1,1,0,0,0,1.93-.53Z"/><path d="M92.43,53.91c-.54-.26-.7,2.76-.71,2.94l-.21,2.4-.45,5-.88,10,1.51-.87a15,15,0,0,0-11.58-.16c-1.18.48-.66,2.42.53,1.93a13,13,0,0,1,10,0,1,1,0,0,0,1.5-.86l1.36-15.45c.11-1.21.31-2.45.32-3.67a2.12,2.12,0,0,0-1-2c-1.52-.69-3,1.73-1.39,2.51,1.15.57,2.16-1.16,1-1.73Z"/><path d="M81,34.24l26.63,1-.86-.5a19.49,19.49,0,0,1,1.38,10.37c-.17,1.23,1.57,1.81,1.93.53a16.7,16.7,0,0,0-1.47-12.81c-.26-.46-.55-.9-.85-1.34a1.61,1.61,0,0,1-.2-2c.55-1.08,1.19-2.07,1.66-3.2A20.39,20.39,0,0,0,110.73,19c0-.94-1.44-1.42-1.86-.5l-1.21,2.65c-.52,1.16,1.2,2.18,1.73,1l1.21-2.65L108.73,19A18.18,18.18,0,0,1,107,26.37c-1,2-2.55,3.57-1.18,5.76a17.45,17.45,0,0,1,2.68,6,14.65,14.65,0,0,1-.34,6.9l1.93.53a21.87,21.87,0,0,0-1.59-11.9,1,1,0,0,0-.86-.5L81,32.24c-1.29-.05-1.29,1.95,0,2Z"/><path d="M90.39,49.51l19.49,0c.49,0,1.07-.46,1-1q-.76-6.09-2.09-12.07c-.29-1.26-2.22-.72-1.93.53.85,3.81,1.54,7.66,2,11.54l1-1-19.49,0a1,1,0,0,0,0,2Z"/><path d="M107,114.28A19.7,19.7,0,0,0,94,110.57l1,1q.27-10.38-.44-20.75l-.5.87,8-3.8a1,1,0,0,0,.5-.86c-.14-4-1.6-8.06-.93-12,.48-2.81,2.33-6,5.49-6.24,1.28-.07,1.29-2.07,0-2-3.6.21-6.07,3.1-7.09,6.38-1.42,4.54.36,9.31.53,13.89l.49-.87-8,3.8a1,1,0,0,0-.49.86q.7,10.37.44,20.75a1,1,0,0,0,1,1A18,18,0,0,1,106,116c1,.75,2-1,1-1.73Z"/><path d="M74.42,97.41l2,.08v-2a6,6,0,0,1-3.4-.65l-.77,1.83c3.24,1.27,6.77.69,10.11.2,3.1-.45,6.84-1.09,9.5,1,1,.8,2.42-.61,1.41-1.41-6.08-4.86-13.86.86-20.49-1.75-1.06-.41-1.77,1.31-.77,1.83a8,8,0,0,0,4.41.92,1,1,0,0,0,0-2l-2-.08c-1.28-.06-1.28,1.94,0,2Z"/><path d="M79.49,164.38l36.88-.51a1,1,0,0,0,1-1,37.2,37.2,0,0,0-1.94-16.77,1,1,0,0,0-1-.74l-1.58.13c-1.27.11-1.28,2.11,0,2l1.58-.13-1-.73a36,36,0,0,1,1.86,16.24l1-1-36.88.51a1,1,0,0,0,0,2Z"/><path d="M73,126.89a246.67,246.67,0,0,0,43.89,1.48l-.86-1.51a48.25,48.25,0,0,0-4.5,10c-.39,1.23,1.54,1.76,1.93.53a46,46,0,0,1,4.29-9.55,1,1,0,0,0-.86-1.5A246.67,246.67,0,0,1,73,124.89c-1.27-.16-1.26,1.84,0,2Z"/><path d="M117.55,127.23a5.25,5.25,0,0,1,.6-.16c.22,0-.07,0,.14,0l.31,0a3.45,3.45,0,0,1,1.11.1,5.76,5.76,0,0,1,.59.18c.07,0,.07,0,0,0l.14.06c.1,0,.18.11.28.14s.06,0-.07-.06c-.16-.33-.21-.42-.17-.28s0,0,0-.14c0,.08,0,.08,0,0s-.09.16,0-.06.05-.1,0,0c-.18.28.07.15.75-.4l.5.14h0l.36.36a.75.75,0,0,1,.1.36l-1.7.7a2.58,2.58,0,0,0,3.66-.22,1,1,0,0,0,0-1.41,1,1,0,0,0-1.41,0c-.06.07-.14.13-.19.2s0,0,.05,0l-.1.06c-.25.08.11,0-.09,0s-.29,0,0,0h-.24c-.21,0,.14,0-.05,0s-.2-.08-.06,0c-.05,0-.3-.21-.12-.06a1,1,0,0,0-1.71.71,1.11,1.11,0,0,0,1.05,1.15,1.08,1.08,0,0,0,1-.61,1.56,1.56,0,0,0-.47-2.09,5.74,5.74,0,0,0-2.35-.75,6,6,0,0,0-2.41.24,1,1,0,0,0,.54,1.93Z"/><path d="M99.1,196.34l-9.24-.12,1,1-.53-6.41c-.08-.93-.53-2.1.65-2.33a16.16,16.16,0,0,1,3.11,0l12.91.15,26.31.3a1,1,0,0,0,0-2L104,186.6l-7.45-.08a31.12,31.12,0,0,0-6.18,0c-1.9.37-2.26,1.83-2.12,3.55q.28,3.56.59,7.12a1,1,0,0,0,1,1l9.24.12a1,1,0,0,0,0-2Z"/><path d="M115.94,199.79a55.12,55.12,0,0,1,23.25,20.34c.69,1.08,2.42.08,1.73-1a57.08,57.08,0,0,0-24-21.06c-1.16-.54-2.17,1.19-1,1.73Z"/><path d="M69.07,314.28c3.48-1.56,5.59-5.16,6.17-8.82.76-4.82-.88-9.53-2.51-14-.43-1.2-2.37-.69-1.92.53,1.45,4,3.07,8.28,2.55,12.6-.4,3.32-2.16,6.54-5.3,7.95-1.17.52-.15,2.25,1,1.73Z"/><path d="M46.32,232.86c5-1,9.74,2.7,12,6.95,2.71,5.08,2.61,11.18,2.58,16.78,0,1.32,1.85,1.24,2,0,.44-3.52,1.37-7.31,3.91-9.94a8,8,0,0,1,8.62-2.24c1.2.47,1.71-1.46.53-1.93-3.56-1.43-7.64-.09-10.31,2.5-3.12,3-4.23,7.44-4.75,11.61h2c0-6.29.05-13.23-3.41-18.76-2.9-4.61-8.14-7.94-13.71-6.9-1.27.23-.73,2.16.53,1.93Z"/><path d="M119.58,249.84a12,12,0,0,1,11,4.65l1.13-1.47-1.89-.78a1,1,0,0,0-1.23.7,1,1,0,0,0,.7,1.23l1.89.78a1,1,0,0,0,1.13-1.47,14.09,14.09,0,0,0-13.3-5.57,1,1,0,0,0-.7,1.23,1,1,0,0,0,1.23.7Z"/><path d="M32.85,183.49a15.93,15.93,0,0,1,11,16.45c-.13,1.3,1.83,1.24,2,0,.32-2.41.66-5.15,2.25-7.1,1.25-1.55,3.56-2.58,5.43-1.53a1,1,0,0,0,1.37-1.37l-1.36-2.57c-.6-1.14-2.33-.13-1.73,1L53.14,191l1.37-1.37A6.33,6.33,0,0,0,47.05,191c-2.35,2.32-2.82,5.82-3.23,8.94h2a17.94,17.94,0,0,0-12.44-18.38c-1.23-.38-1.76,1.55-.53,1.93Z"/><path d="M47.05,169a9.57,9.57,0,0,0-3-5.9,8,8,0,0,0-2.85-1.77,4,4,0,0,0-2.92.32,2,2,0,0,0-.91,2.8,1,1,0,0,0,1.73-1,1,1,0,0,1-.08-.14c0,.12,0,.13,0,0,0,.16,0,.18,0,.07l0,.14c0-.1,0-.08,0,.06a.41.41,0,0,1,.07-.11c-.09.11-.1.12,0,0l0-.05c.08-.07.08-.06,0,0l.13-.09c.07,0,.23-.1.07,0a3.05,3.05,0,0,1,.61-.17c-.22,0,.15,0,.19,0h.28c.12,0,.12,0,0,0l.17,0,.25.07c-.14-.05.22.11.26.13l.31.17a6.76,6.76,0,0,1,.72.46,7.59,7.59,0,0,1,3,4.94,1,1,0,0,0,2,0Z"/><path d="M71.8,346.37a9.68,9.68,0,0,1,15.74,4.9l1.83-.77c-1.43-3.07-1.82-7.45.86-10,2-1.89,5.87-2.24,7.55.22.72,1,2.41.1,1.72-1a4.72,4.72,0,0,1,2.87-6.9c1.25-.29.72-2.22-.53-1.93a6.74,6.74,0,0,0-4.06,9.84l1.72-1c-2.3-3.37-7.21-3.45-10.24-1-3.82,3.08-3.49,8.78-1.61,12.81.48,1.05,2.1.3,1.82-.77A11.57,11.57,0,0,0,70.38,345c-1,.85.45,2.26,1.42,1.41Z"/><path d="M104.52,319.44l-.17,0H104c.25,0-.09,0-.15,0l-.16-.06c.11.05.11.05,0,0l-.3-.18c-.09-.06-.09-.06,0,0l-.13-.11c-.09-.08-.16-.17-.25-.26s-.07-.09,0,0l-.1-.15a3,3,0,0,1-.18-.3l-.08-.16c0,.1,0,.1,0,0a1.83,1.83,0,0,1-.08-.25c0-.05-.06-.4,0-.16,0-.11,0-.23,0-.34s0-.11,0,0l0-.16c0-.05.14-.37,0-.16a3.14,3.14,0,0,1,.18-.31c-.11.17.1-.11.13-.14l.27-.24c.09-.07.09-.08,0,0l.15-.11.31-.2c.4-.25.81-.47,1.21-.71a3.87,3.87,0,0,0,2-2.43,1,1,0,0,0-.7-1.23,1,1,0,0,0-1.23.7c0,.1,0,.19-.07.29s0,0,0,0l-.05.11-.15.24c.12-.17-.06.05-.12.11l-.18.17c-.14.12,0,0,0,0l-.11.08-.53.34a10.13,10.13,0,0,0-2.27,1.55,3.65,3.65,0,0,0,.43,5.21,3.38,3.38,0,0,0,3.16.84,1,1,0,0,0-.53-1.92Z"/><path d="M180.4,170.12a8.66,8.66,0,0,1,6.68,3.54,1,1,0,0,0,1.37.36,1,1,0,0,0,.36-1.37,10.69,10.69,0,0,0-8.41-4.53,1,1,0,1,0,0,2Z"/><path d="M150.12,233.72a15.42,15.42,0,0,1,12.57-6.95,1,1,0,0,0,.26-2c-4.19-1.56-9.49-3.77-10.16-8.84-.34-2.63,1.4-4.26,2.65-6.33,1-1.69,1.48-3.83.35-5.58-.7-1.08-2.43-.07-1.73,1,1.51,2.34-1.47,4.82-2.46,6.72a7.78,7.78,0,0,0-.23,6.55c1.87,4.7,6.62,6.75,11,8.4l.27-2a17.49,17.49,0,0,0-14.29,7.94c-.71,1.09,1,2.09,1.72,1Z"/><path d="M163.49,195.21l5.8,1.46a1,1,0,1,0,.53-1.92l-5.8-1.47a1,1,0,0,0-.53,1.93Z"/><path d="M137.81,80.4c.62-8.43,1-16.84-1.52-25a48.33,48.33,0,0,0-10.38-18.18,46.94,46.94,0,0,0-9.27-7.83c-.55-.35-1,.52-.51.87a46.53,46.53,0,0,1,21,35.11,101,101,0,0,1-.36,15.06c-.05.64.95.64,1,0Z"/><path d="M115.29,38.88c5.87,6.81,11.95,13.86,14.9,22.5a29.29,29.29,0,0,1,1.37,13.95c-.62,4-1.84,8.09-1.17,12.19.56,3.45,2.43,6.74,5.81,8,.6.23.86-.73.26-1-3.48-1.34-5.08-5.24-5.25-8.74-.22-4.37,1.31-8.6,1.63-12.93.61-8.48-3-16.62-7.76-23.44A137.1,137.1,0,0,0,116,38.17c-.42-.48-1.12.23-.7.71Z"/><path d="M138.54,90.34A12.07,12.07,0,0,1,136.91,78c.26-.59-.6-1.1-.87-.51a13.15,13.15,0,0,0,1.79,13.61c.41.5,1.11-.21.71-.71Z"/><path d="M130.73,135c.11-15.85-11.27-28.07-21.61-38.72-.45-.46-1.15.24-.71.71,10.15,10.45,21.43,22.44,21.32,38a.5.5,0,0,0,1,0Z"/><path d="M108,89c6.34,7,12.88,13.85,19,21,5.2,6.12,10.26,13.53,9.19,22-.08.64.92.63,1,0,1.05-8.26-3.64-15.62-8.68-21.71-3-3.65-6.28-7.09-9.45-10.59L108.7,88.27c-.44-.48-1.14.23-.71.7Z"/><path d="M70.79,94.1,64,93.81l-2.9-.12c-.82,0-1.44.06-2.09-.5s-.57-1-.56-1.71c0-4.32.23-8.65.35-13L59,71.89c0-1,.06-2,.08-2.94,0-1.2,0-2.6,1.13-3.32,1.46-.91,3.64-.34,5.21-.11l6.67,1c.63.09.9-.87.26-1l-6.19-.91a17.8,17.8,0,0,0-4.71-.4,3.63,3.63,0,0,0-2.79,1.57c-.87,1.43-.59,3.52-.63,5.11L57.69,83.4l-.17,6.37c0,1.3-.4,3.2.65,4.23a3,3,0,0,0,2,.65c1.12.07,2.25.09,3.38.14l7.24.31c.65,0,.64-1,0-1Z"/><path d="M32.17,55.75l-2.25-21c-.18-1.73-.36-3.46-.55-5.19-.08-.73-.12-1.77-1-2-1.36-.43-1.38,2-.16,1.57.6-.2.34-1.17-.27-1,.24-.08.6,3.43.65,3.9L29,35.47l.72,6.68,1.45,13.6c.07.64,1.07.64,1,0Z"/><path d="M37,115.39a74.51,74.51,0,0,1,2.75,25.29c0,.65,1,.64,1,0A75.59,75.59,0,0,0,38,115.12a.5.5,0,0,0-1,.27Z"/><path d="M89.67,230.63,136.85,229c.64,0,.65-1,0-1l-47.18,1.64c-.64,0-.64,1,0,1Z"/><path d="M87.65,231.3A35.7,35.7,0,0,1,100,256.81c0,.64,1,.65,1,0A36.69,36.69,0,0,0,88.36,230.6c-.49-.42-1.2.28-.71.7Z"/><path d="M96.62,257.31c-4.12-7.81-8.43-15.56-12.35-23.47a16.33,16.33,0,0,1-1.79-6.44c-.14-2.15,0-4.32,0-6.48.13-4.44.35-8.89.45-13.33.38-15.36-.76-32.09-10.6-44.68-5-6.36-14.52-13.47-11.1-22.75l-.48.36L73,141c.65,0,.64-1,0-1l-12.2-.47a.51.51,0,0,0-.48.37C57.58,147.26,63,154,67.67,159.06a51,51,0,0,1,7.36,9.7,49.83,49.83,0,0,1,4.4,11c2.25,8.18,2.69,16.7,2.58,25.14-.05,4.53-.26,9.06-.42,13.58-.14,4.15-.7,8.7.51,12.74a34.38,34.38,0,0,0,2.8,6L88.48,244l7.28,13.81c.3.57,1.16.06.86-.51Z"/><path d="M245.51,89.15V82.61a.5.5,0,0,0-1,0v6.54a.5.5,0,0,0,1,0Z"/><path d="M168.23,167.67q10.92,8.09,21.61,16.49c.5.39,1.21-.31.7-.71q-10.77-8.47-21.81-16.64c-.51-.38-1,.48-.5.86Z"/><path d="M136.62,38.57a11.32,11.32,0,0,1,2.66,5.48c.1.57,1,.41,1-.14l.15-6-1,.13.78,3.7a.51.51,0,0,0,1,0,6.73,6.73,0,0,1,3.08-3.92.5.5,0,0,0-.51-.86,7.78,7.78,0,0,0-3.54,4.51h1l-.79-3.69c-.12-.57-1-.42-1,.13l-.15,6,1-.13a12.19,12.19,0,0,0-2.91-5.92c-.43-.48-1.13.23-.71.71Z"/><path d="M220.89,93A7.67,7.67,0,0,1,225,97.78a.5.5,0,0,0,1-.27l-.72-4.69-.92.39a7.78,7.78,0,0,1,.79,4.32c-.06.57.84.67,1,.14a10,10,0,0,1,3.37-5.23c.5-.41-.21-1.11-.7-.71a10.8,10.8,0,0,0-3.63,5.67l1,.13a8.79,8.79,0,0,0-.92-4.83c-.28-.55-1-.13-.92.39l.72,4.69,1-.27a8.7,8.7,0,0,0-4.53-5.35c-.58-.27-1.09.59-.5.87Z"/><path d="M112.84,79.82,117,84.87a.51.51,0,0,0,.84-.49,11.65,11.65,0,0,1-.8-5.19l-.93.25,1.7,3.93a.51.51,0,0,0,.87,0l3.44-5.55c.34-.55-.53-1-.87-.51l-3.44,5.56h.87L117,78.94c-.21-.5-.9-.19-.93.25a12.41,12.41,0,0,0,.84,5.46l.83-.49-4.14-5c-.41-.5-1.12.21-.71.71Z"/><path d="M94.39,233.23a13.48,13.48,0,0,1,2.88,3.33.51.51,0,0,0,.92-.39,6.85,6.85,0,0,1,.13-3l-.91.12a6.81,6.81,0,0,1,.61,2.55.5.5,0,0,0,.75.43,10.9,10.9,0,0,0,3.65-3.13.51.51,0,0,0-.18-.69.51.51,0,0,0-.68.18,9.9,9.9,0,0,1-3.29,2.78l.75.43a8.1,8.1,0,0,0-.75-3.06.5.5,0,0,0-.91.12,8.08,8.08,0,0,0-.14,3.56l.92-.39a14.42,14.42,0,0,0-3-3.52c-.49-.42-1.2.29-.71.7Z"/><path d="M93,290.5l4.06,5c.34.43.91-.05.83-.48l-1-5.51-.92.38a6.68,6.68,0,0,1,1.2,4.46c0,.54.67.6.93.25a13,13,0,0,1,3.4-3.18c.54-.35,0-1.21-.5-.86a14.35,14.35,0,0,0-3.76,3.53l.93.26a7.6,7.6,0,0,0-1.33-5,.51.51,0,0,0-.92.38l1,5.51.83-.48-4.06-5c-.4-.5-1.11.21-.7.71Z"/><path d="M291.06,74.87l3.36,5.67a.5.5,0,0,0,.93-.25l.47-4.58-1,.14a4.89,4.89,0,0,1-.19,4,.5.5,0,0,0,.69.68,8.89,8.89,0,0,0,4.12-5c.2-.62-.77-.88-1-.27a7.77,7.77,0,0,1-3.66,4.4l.69.68a5.87,5.87,0,0,0,.28-4.8.5.5,0,0,0-1,.13l-.47,4.58.94-.26-3.37-5.66a.5.5,0,0,0-.86.5Z"/><path d="M233.39,74.48a29.7,29.7,0,0,1,17.2,8.36c.46.46,1.17-.25.71-.7a30.83,30.83,0,0,0-17.91-8.66c-.64-.08-.63.92,0,1Z"/><path d="M236.83,69.87a75.79,75.79,0,0,1,18,12.36c.48.44,1.18-.27.71-.71A76.87,76.87,0,0,0,237.33,69c-.57-.29-1.08.57-.5.86Z"/><path d="M239.86,66.09a24.44,24.44,0,0,1,15.57,11c.34.55,1.2,0,.86-.5a25.48,25.48,0,0,0-16.16-11.46c-.63-.13-.9.83-.27,1Z"/><path d="M242.74,60.35A20.29,20.29,0,0,1,257,69.77a.5.5,0,0,0,.86-.51A21.28,21.28,0,0,0,243,59.38c-.63-.09-.9.87-.26,1Z"/><path d="M244.3,57.55A19.38,19.38,0,0,1,259.73,67a.5.5,0,0,0,.87-.5,20.43,20.43,0,0,0-16.3-9.9c-.65,0-.65,1,0,1Z"/><path d="M247.69,51.79A53.51,53.51,0,0,1,262.23,62.5c.45.46,1.16-.24.71-.71a54.34,54.34,0,0,0-14.75-10.87c-.57-.28-1.08.58-.5.87Z"/><path d="M249.88,48.85a41.46,41.46,0,0,1,15.26,12.8c.37.52,1.24,0,.86-.5A42.49,42.49,0,0,0,250.38,48c-.57-.28-1.08.58-.5.86Z"/><path d="M254.21,46.73a50.94,50.94,0,0,1,15.06,15.08c.35.54,1.22,0,.87-.51a52.41,52.41,0,0,0-15.42-15.44c-.54-.35-1.05.52-.51.87Z"/><path d="M256.72,79.26a46.73,46.73,0,0,1,26.47,3.16c.59.25,1.1-.61.51-.86a47.84,47.84,0,0,0-27.24-3.26c-.63.11-.37,1.07.26,1Z"/><path d="M259.55,75.42a33.92,33.92,0,0,1,24.25,2.84c.57.3,1.08-.56.51-.87a35,35,0,0,0-25-2.93.5.5,0,0,0,.26,1Z"/><path d="M262.59,70.12a27.55,27.55,0,0,1,22.82,3.49c.54.36,1-.51.5-.86a28.52,28.52,0,0,0-23.58-3.6.5.5,0,0,0,.26,1Z"/><path d="M265.44,64.07A37.77,37.77,0,0,1,289,67.19c.58.28,1.09-.58.51-.86a38.92,38.92,0,0,0-24.31-3.22c-.64.12-.37,1.08.26,1Z"/><path d="M270.56,60.63a29.22,29.22,0,0,1,20,2c.58.28,1.09-.58.51-.86a30.32,30.32,0,0,0-20.73-2.14.5.5,0,0,0,.26,1Z"/><path d="M90.93,186.74a75,75,0,0,0,5.7-11.1c.25-.59-.72-.85-1-.26a76.22,76.22,0,0,1-5.6,10.85c-.35.55.52,1.05.86.51Z"/><path d="M95.78,186.58l6.53-9.44c.36-.53-.5-1-.87-.5l-6.53,9.44c-.37.53.5,1,.87.5Z"/><path d="M103.06,184.42l4.3-6.57c.35-.54-.52-1-.87-.5l-4.3,6.57c-.35.54.51,1,.87.5Z"/><path d="M109,185.21l3.68-6.5c.32-.56-.55-1.07-.86-.51l-3.69,6.51a.5.5,0,0,0,.87.5Z"/><path d="M114,185.32l4.36-5.08a.51.51,0,0,0,0-.7.5.5,0,0,0-.71,0l-4.36,5.08a.51.51,0,0,0,0,.7.5.5,0,0,0,.71,0Z"/><path d="M119.78,183.87l2.91-3.63a.52.52,0,0,0,0-.71.51.51,0,0,0-.71,0l-2.9,3.63a.51.51,0,0,0,0,.71.5.5,0,0,0,.7,0Z"/><path d="M124.86,185.32l3.63-4.35a.5.5,0,0,0,0-.71.49.49,0,0,0-.7,0l-3.63,4.36a.49.49,0,1,0,.7.7Z"/><path d="M130.8,184.38l.73-2.18a.52.52,0,0,0-.35-.62.52.52,0,0,0-.62.35l-.72,2.18a.48.48,0,0,0,.35.61.5.5,0,0,0,.61-.34Z"/><path d="M134,184.74a.5.5,0,0,0,0-1,.5.5,0,0,0,0,1Z"/><path d="M86.42,148.77,89.59,162c.15.63,1.11.36,1-.27l-3.16-13.17c-.15-.63-1.12-.36-1,.26Z"/><path d="M92.74,148.82l3.63,14.52c.15.63,1.12.36,1-.26L93.7,148.56c-.15-.63-1.12-.36-1,.26Z"/><path d="M98.55,153.17l1.39,8c.11.63,1.07.36,1-.27l-1.38-8c-.11-.64-1.08-.37-1,.26Z"/><path d="M102.29,147.35l2.17,14.52c.09.63,1.05.36,1-.27l-2.16-14.52c-.1-.63-1.06-.36-1,.27Z"/><path d="M107.33,148.67l1.48,11.61c.08.63,1.09.64,1,0l-1.48-11.61c-.08-.63-1.08-.64-1,0Z"/><path d="M111.67,151.71l2.67,8.07c.2.61,1.16.35,1-.27l-2.66-8.06c-.2-.61-1.17-.35-1,.26Z"/><path d="M95.34,106.75a68.37,68.37,0,0,0,12.29,4.15c.63.14.9-.82.27-1a66.5,66.5,0,0,1-12.06-4c-.58-.26-1.09.6-.5.86Z"/><path d="M97.53,104.12a57.15,57.15,0,0,0,8.8,1.77c.64.08.63-.92,0-1a54.11,54.11,0,0,1-8.54-1.74.5.5,0,0,0-.26,1Z"/><path d="M97.65,99.81h6.54a.5.5,0,0,0,0-1H97.65a.5.5,0,0,0,0,1Z"/><path d="M97.77,95.37l8-1.51c.63-.12.36-1.08-.27-1l-8,1.51c-.64.12-.37,1.09.26,1Z"/><path d="M97.06,93.26l7.26-2.91a.52.52,0,0,0,.35-.61.51.51,0,0,0-.62-.35l-7.26,2.9a.53.53,0,0,0-.35.62.51.51,0,0,0,.62.35Z"/><path d="M103.68,85.17a4.89,4.89,0,0,0,2.49-4,.51.51,0,0,0-.5-.5.5.5,0,0,0-.5.5,2.45,2.45,0,0,0,0,.27c0,.08,0,0,0,0s0,.09,0,.13-.08.34-.13.51a3.87,3.87,0,0,1-1,1.61,3.33,3.33,0,0,1-.79.57.5.5,0,0,0,.5.87Z"/><path d="M104.19,67.87a.5.5,0,0,0,0-1,.5.5,0,0,0,0,1Z"/><path d="M83.07,21.62a36.27,36.27,0,0,1-1.22,9.1.5.5,0,0,0,1,.27l.7-2c.22-.61-.75-.87-1-.26l-.7,2,1,.27a37.11,37.11,0,0,0,1.26-9.37.5.5,0,0,0-1,0Z"/><path d="M87.73,26.59,87,30.22a.5.5,0,0,0,1,.26l.73-3.63a.51.51,0,0,0-.35-.61.51.51,0,0,0-.62.35Z"/><path d="M95.72,25.86l-2.3,6.46c-.19.54.64.88.92.39l1.57-2.84a.5.5,0,0,0-.87-.5L93.47,32.2l.92.39,2.29-6.46c.22-.61-.75-.87-1-.27Z"/><path d="M98.6,24.54,97.79,31c-.06.52.7.65.94.26l3-5a.5.5,0,0,0-.86-.51l-3,5,.93.25.81-6.45c0-.27-.25-.5-.5-.5a.52.52,0,0,0-.5.5Z"/><path d="M103,23.68l-1.5,7.07a.5.5,0,0,0,.91.39,38.47,38.47,0,0,0,5.34-10.61l-1-.13a49,49,0,0,1-1.51,7.38c-.33,1.17-.71,2.32-1.12,3.46-.22.59-.45,1.17-.69,1.75-.12.29-.23.59-.36.88s-.26,1.26-.72.81c.46.45,1.17-.25.7-.7-.84-.83-1.75.83-.87,1.37,1.46.9,2.31-2.3,2.62-3.09a50.5,50.5,0,0,0,3-11.86c.07-.58-.82-.64-1-.13a37.71,37.71,0,0,1-5.24,10.36l.92.39,1.49-7.08c.14-.63-.83-.89-1-.26Z"/><path d="M86.85,23l-1.13,7.2a.52.52,0,0,0,.35.62.51.51,0,0,0,.61-.35l1.13-7.2a.51.51,0,0,0-.35-.61.49.49,0,0,0-.61.34Z"/><path d="M92.6,19.25,88.11,32.36c-.2.58.59.8.91.39l1.08-1.42c.39-.52-.48-1-.86-.51l-1.08,1.42.91.39,4.49-13.11c.21-.61-.75-.87-1-.27Z"/><path d="M97.44,20.15l-5,14.42a.5.5,0,0,0,.91.39l1.12-2.16c.3-.57-.56-1.08-.86-.51l-1.12,2.16.92.39,5-14.43c.21-.61-.76-.87-1-.26Z"/><path d="M103.76,19.46a25.57,25.57,0,0,1-2.13,8.48c-.26.59.6,1.09.86.51a26.87,26.87,0,0,0,2.27-9c0-.64-1-.63-1,0Z"/><path d="M51.32,290.07c3.41-.64,5.67-3.77,6.27-7.05.8-4.36-1.22-8.61-3-12.44l-.43.75a5.17,5.17,0,0,0,4.73-3.76c.86-2.84-1.12-4.43-2.66-6.48-1.29-1.71-.79-3.47-.51-5.43a9.6,9.6,0,0,0-.35-4.29,9.75,9.75,0,0,0-2.07-3.58c-.85-.91-3.59-2.95-2.35-4.35.42-.48-.28-1.19-.71-.71-1.68,1.9.61,4,1.94,5.35a8.86,8.86,0,0,1,2.39,4.12,13.07,13.07,0,0,1-.15,5.21,5.52,5.52,0,0,0,.5,3.51c.66,1.2,1.78,2.06,2.53,3.19a4.11,4.11,0,0,1-3.29,6.22.51.51,0,0,0-.43.75c1.64,3.45,3.51,7.3,3,11.23-.4,3.12-2.39,6.18-5.63,6.8-.64.11-.37,1.08.26,1Z"/><path d="M153.35,105.78a6.92,6.92,0,0,1-5.57-12.34c.51-.4-.21-1.1-.71-.71a7.92,7.92,0,0,0,6.54,14c.63-.13.37-1.09-.26-1Z"/><path d="M74.7,126.61c-1.19-1.07-.15-2.87.55-3.94.9-1.39,1.87-2.74,2.8-4.11s2.09-2.82,2.93-4.33a2.75,2.75,0,0,0,.13-2.73,33.87,33.87,0,0,0-2.71-3.93l-2.94-4.18-2.93-4.17c-.65-.92-1.26-2.06-2.48-2.22-.63-.09-.9.88-.26,1,.92.13,1.38,1.06,1.87,1.76l1.4,2,2.8,4,2.79,4c.44.63.92,1.24,1.32,1.89a2.18,2.18,0,0,1-.16,2.65c-1.78,2.74-3.76,5.35-5.51,8.1-.94,1.46-1.84,3.64-.3,5,.48.43,1.19-.28.7-.71Z"/><path d="M81,112.16h19.22c.52,0,1,0,1.56,0,.11,0,1.46.28,1.23.51-.45.46.26,1.17.71.71.91-.92-.23-1.9-1.17-2.14a12.53,12.53,0,0,0-3-.08H95.7l-14.75,0a.5.5,0,0,0,0,1Z"/><path d="M73,96.43a161.72,161.72,0,0,1,11.32,15.81c.34.54,1.2,0,.86-.51a162.62,162.62,0,0,0-11.48-16c-.4-.5-1.1.21-.7.71Z"/><path d="M78.5,95a54.35,54.35,0,0,0,10.07,17c.43.48,1.13-.23.71-.71a53,53,0,0,1-9.82-16.56c-.22-.6-1.19-.34-1,.26Z"/><path d="M84.16,98a31.63,31.63,0,0,0,9.33,14.24c.48.43,1.19-.28.7-.7a30.59,30.59,0,0,1-9.06-13.8c-.19-.61-1.16-.35-1,.26Z"/><path d="M90.77,101.12a23.11,23.11,0,0,1,4.22,7c.23.6,1.19.34,1-.26a24.37,24.37,0,0,0-4.49-7.48c-.42-.49-1.13.22-.7.71Z"/><path d="M82.58,161.17a13.85,13.85,0,0,1,.73,4l.94-.26a3.32,3.32,0,0,1-.32-3.54l-.91-.12a19.1,19.1,0,0,1,1.25,8.2l1-.13-1.68-4.59c-.18-.49-1-.47-1,.14A5.59,5.59,0,0,0,85,169.18c.48.34,1-.39.61-.79l-5.69-6.1-.6.79a8.34,8.34,0,0,1,2.79,2.32l.68-.68a8.3,8.3,0,0,1-3.47-9l-1-.13.15,7.28a.5.5,0,0,0,1,0l0-4.8-.93.26a16.31,16.31,0,0,1,1.2,4.67.5.5,0,0,0,1,0l.14-2.53-.93.25,1,2.39.86-.51-.92-2-.79.6,1,1.2c.42.49,1.13-.22.71-.71l-1-1.2c-.4-.45-1,.13-.79.61l.93,2c.27.58,1.12.07.86-.51l-1-2.38c-.21-.49-.9-.2-.93.25L79.71,163h1a17.82,17.82,0,0,0-1.34-5.18c-.2-.48-.93-.21-.93.25l0,4.8h1l-.15-7.28a.5.5,0,0,0-1-.13,9.3,9.3,0,0,0,3.93,10.13c.4.25,1-.28.68-.68a9.29,9.29,0,0,0-3.15-2.69.5.5,0,0,0-.6.79l5.68,6.1.6-.79a4.49,4.49,0,0,1-1.88-3.4l-1,.13,1.69,4.58a.5.5,0,0,0,1-.13A19.7,19.7,0,0,0,84,161c-.14-.37-.7-.54-.91-.12a4.3,4.3,0,0,0,.31,4.55c.27.37,1,.29.93-.25a14.31,14.31,0,0,0-.77-4.3c-.21-.61-1.17-.35-1,.26Z"/><path d="M113.2,142.75a5.66,5.66,0,0,0,.84,4.47.5.5,0,0,0,.86-.5,14.8,14.8,0,0,1-1.49-6.57l-1,.13a29.82,29.82,0,0,1,1.4,6l1-.13-.8-4.77-1,.27,1.23,4.2.92-.39L114,143.28l-.69.69c2.28,1.73,6.14-.2,5.79-3.14a4,4,0,0,0-2.81-3.24,3.3,3.3,0,0,0-3.63,1.42,3.75,3.75,0,0,0,0,4.28c.38.5,1.25,0,.86-.51-1.22-1.58-.09-4.48,2.08-4.31a2.93,2.93,0,0,1,2.45,2.09,2.28,2.28,0,0,1-1.11,2.61,2.74,2.74,0,0,1-3.1-.07c-.43-.32-.9.29-.69.69l1.17,2.21a.51.51,0,0,0,.92-.39l-1.24-4.2c-.18-.62-1.06-.35-1,.27l.8,4.77c.09.55,1.05.42,1-.14a30.84,30.84,0,0,0-1.44-6.29.5.5,0,0,0-1,.13,15.87,15.87,0,0,0,1.63,7.07l.86-.5a4.7,4.7,0,0,1-.74-3.71c.14-.63-.82-.89-1-.26Z"/><path d="M131.27,191.51c-.56-.76.92-1.2,1.37-1.22s1,.1,1.5.1a2.57,2.57,0,0,0,2.09-.77c.26-.29.11-.91-.35-.86a18.29,18.29,0,0,1-5.86-.27l.22.83a5.86,5.86,0,0,1,6.38-.58l.12-.91a16.39,16.39,0,0,1-6.2,1.06l.13,1a7.48,7.48,0,0,1,5.37,0l-.22-.83a7.73,7.73,0,0,1-7.67,2.36l-.13,1a23.53,23.53,0,0,1,8.48.61l.26-1-10.47-1.62-.14,1,9.41-.16v-1L120.3,191a.5.5,0,0,0,0,1l14.22.66a.51.51,0,0,0,.13-1,38.8,38.8,0,0,0-10.59-.73.5.5,0,0,0,0,1,33.6,33.6,0,0,0,12.39-.89.51.51,0,0,0,.3-.74,11.86,11.86,0,0,0-6-4.28l-.14,1,3-.06a6.11,6.11,0,0,0,1.42,0c.37.12.53,0,.46-.38a1.67,1.67,0,0,1,.47-.92,8.08,8.08,0,0,0,1.75-3.54c.58-3-.33-6.14-1.29-9-.2-.61-1.16-.35-1,.26a19.56,19.56,0,0,1,.66,9.66l.92-.12a22.58,22.58,0,0,1-1.77-6.95l-1,.14a9.73,9.73,0,0,1,.39,5.42h1a36.64,36.64,0,0,1-1.81-8.68l-.63.49c.27.33.08.41-.59.23.15-.49.38-.53.69-.11l.71-.71-2.47-2.35-.49.84,1.95.51a.5.5,0,0,0,.26-1l-1.94-.52a.51.51,0,0,0-.49.84l2.47,2.35a.5.5,0,0,0,.71-.71c-.52-.53-1.74-1-2.33-.25s.06,1.83.67,2.19c1.63,1,2.82-1.76,1.12-2.32a.52.52,0,0,0-.64.48,37.87,37.87,0,0,0,1.84,8.95c.15.44.86.51,1,0a10.81,10.81,0,0,0-.4-6c-.17-.49-1-.47-1,.13a24.39,24.39,0,0,0,1.9,7.46.51.51,0,0,0,.92-.12,20.72,20.72,0,0,0-.67-10.19l-1,.26a20.68,20.68,0,0,1,1.42,7.19A7,7,0,0,1,136,184c-.49.79-1.53,1.58-1.45,2.6a1,1,0,0,0,2.06,0c.05-.85-.95-.74-1.51-.73l-4.47.09a.5.5,0,0,0-.13,1,10.64,10.64,0,0,1,5.39,3.83l.3-.73a32.78,32.78,0,0,1-12.12.85v1a37.62,37.62,0,0,1,10.32.7l.14-1L120.3,191v1l15.26-.82a.5.5,0,0,0,0-1l-9.41.16c-.54,0-.71.89-.13,1L136.5,193c.61.1.9-.8.26-1a24.06,24.06,0,0,0-8.74-.65c-.53,0-.72.83-.14,1a8.76,8.76,0,0,0,8.65-2.61.51.51,0,0,0-.22-.84,8.38,8.38,0,0,0-5.9,0,.5.5,0,0,0,.13,1,17.21,17.21,0,0,0,6.47-1.1.51.51,0,0,0,.12-.91,6.9,6.9,0,0,0-7.6.74.5.5,0,0,0,.22.83,19.13,19.13,0,0,0,6.13.31l-.36-.85c-1,1.1-2.92,0-4.21.71-.87.47-1.59,1.47-.9,2.4.38.51,1.24,0,.86-.51Z"/><path d="M146.16,170.93a11.26,11.26,0,0,0,11.36-3c.44-.47-.27-1.18-.71-.71A10.26,10.26,0,0,1,146.42,170c-.61-.19-.88.78-.26,1Z"/><path d="M138.21,159.84a3.16,3.16,0,0,1-2.82-.47,4.18,4.18,0,0,1-1.68-2.64,7.49,7.49,0,0,1,.24-3.58,1.07,1.07,0,0,1,.6-.75c.11-.05.28-.05.36-.1s0,.07,0,0a.24.24,0,0,1-.13-.2s0,0,0,.06a.5.5,0,0,0,1,.26c.27-.92-.65-1.26-1.38-1a2.27,2.27,0,0,0-1,.75,3.91,3.91,0,0,0-.51,1.52c-.49,2.42,0,5.14,2.15,6.58a4.07,4.07,0,0,0,3.53.55c.61-.21.35-1.17-.26-1Z"/><path d="M48.24,132l2.59,3.65a.53.53,0,0,0,.57.23.52.52,0,0,0,.36-.49l-.58-6-1,.14.73,4.68a.51.51,0,0,0,.92.12,12,12,0,0,1,3-3.85c.49-.42-.22-1.13-.71-.71A12.91,12.91,0,0,0,51,133.78l.92.12-.74-4.69c-.08-.55-1-.43-1,.13l.58,6,.93-.25-2.59-3.65c-.37-.52-1.23,0-.86.51Z"/><path d="M59.86,109.49l3.25,3A.51.51,0,0,0,64,112l-1.33-5.52-1,.27,1.52,4A.51.51,0,0,0,64,111l3.44-2.7a.5.5,0,0,0-.71-.71l-3.44,2.7.84.22-1.53-4a.5.5,0,0,0-1,.27L63,112.29l.84-.49-3.26-3c-.47-.43-1.18.27-.7.71Z"/><path d="M69.56,188.17l4.6,7c.24.37,1,.28.93-.26l-.58-5.37-1,.13a9.86,9.86,0,0,1,.45,3.81c0,.48.55.6.85.36l2.66-2.17c.49-.41-.22-1.11-.71-.71l-2.66,2.17.86.35a10.41,10.41,0,0,0-.49-4.07c-.16-.51-1-.46-1,.13l.58,5.37.93-.25-4.59-6.94c-.36-.54-1.22,0-.87.5Z"/></g></g></svg>