<svg xmlns="http://www.w3.org/2000/svg" viewBox="0 0 463.54 306.55"><g id="Layer_2" data-name="Layer 2"><g id="Layer_7_140" data-name="Layer 7,140"><path d="M24.49,227.23a21.66,21.66,0,0,0,4.27-11.91c.33-4.56.27-9.18.36-13.75q.25-13.75.2-27.51-.15-26.52-1.72-53A1023,1023,0,0,0,15.41,13.6C14.71,9.38,9.49,7,5.68,8.07,1.22,9.3-.56,13.58.15,17.8A999.18,999.18,0,0,1,12.32,123q1.65,26.47,1.9,53,.12,12.76-.1,25.54c-.09,4.56-.44,9.19-.36,13.75a22.75,22.75,0,0,0,3.54,11.91c1.66,2.87,5.45,2.51,7.19,0Z"/><path d="M251.11,32.39c-.47,2.86-1.77,5.53-2.33,8.39a79.17,79.17,0,0,0-1.19,8.53c-.54,6.25-.4,12.58-.32,18.85q.24,18.35,2,36.62c.91,9.22,15.45,9.31,14.54,0-1.17-11.85-2-23.73-2.37-35.63-.17-5.62-.1-11.24-.24-16.86-.08-3-.28-5.95-.6-8.93-.36-3.26-1.52-6.68-1.71-9.91-.24-4.2-7.06-5.74-7.82-1.06Z"/><path d="M253,109.22a11.88,11.88,0,0,0,1.76,3.24c-1.13-1.5.83,1,1.33,1.4a10.38,10.38,0,0,0,6,2,17.53,17.53,0,0,0,9.31-2.4,7.57,7.57,0,0,0,2.69-10.26,7.66,7.66,0,0,0-10.26-2.69c-.77.39-.76.42.05.08q-.62.23-1.23.39c-.62.19-1.23.35-1.87.48,1.8-.38-1.48.21-1.85.3a7.93,7.93,0,0,0-3.83,2.21l2.76-1.61a12.69,12.69,0,0,0-2.66,1.32c-1.63,1.17-3,3.39-2.24,5.5Z"/><path d="M264.87,106.53c-4.33,13.7-2.89,28.7-1.29,42.8.46,4.06,3.14,7.56,7.56,7.56,3.68,0,8.07-3.48,7.55-7.56-1.74-13.75-.62-27.58-2.43-41.25-.81-6.2-9.28-8.23-11.39-1.55Z"/><path d="M269.29,156.39c1.48.75,2,2.25,3.34,3.25,1.55,1.19,3.67,1.74,5.48,2.44,3.39,1.32,6.6,2.94,10,4.17a193.38,193.38,0,0,0,22.43,6.44,309.87,309.87,0,0,0,47.24,7c15.6,1.09,31,.4,46.64-.11,7.78-.25,15.4-1.43,23.14-2.13s17.84-1.32,24.6-5.32c7.7-4.56,4-15.65-4.38-16.16-4.08-.25-8.09,1.22-12,2.1-3.79.86-7.56,1.77-11.34,2.63-7,1.58-14.13,2.41-21.18,3.41-14.6,2.07-29.88,1.63-44.54.64a285,285,0,0,1-44.16-6.49c-7-1.6-14-3.33-20.89-5.26-3.48-1-7-1.52-10.44-2.62-1.92-.61-3.94-1.58-5.94-1.79-1.6-.17-3.23.66-4.76.23-4.44-1.24-7.5,5.43-3.21,7.6Z"/><path d="M443.25,161.43c-2.72,10.17-.78,20.62.1,30.94q1.35,15.82,2.34,31.67c1.31,21.15,1.7,42.29,2,63.47.17,10.17,16,10.2,15.82,0-.34-21.5-1.57-43-2.92-64.46q-1-15.84-2.35-31.67c-.91-10.6-1.09-21.49-6-31.13-2-3.82-7.94-2.77-9,1.18Z"/><path d="M19.8,226.05c55.87,7.74,111.83,14.39,167.38,24.24,55.08,9.76,109.77,21.51,164.26,34.12,31.05,7.18,62,14.71,93.08,21.89,10.49,2.43,15-13.65,4.45-16.16-110-26.22-220.75-51-332.82-66.27-31.54-4.29-63.14-7.43-95-8-5.63-.09-7.24,9.31-1.37,10.13Z"/><path d="M9,12.06c9.52,3.47,20.3,2.84,30.32,3.1q15.48.4,30.95,1.39c20,1.26,39.9,3.18,59.78,5.54,40.1,4.74,80.71,11.43,119.65,22.25,9.78,2.71,14-12.92,4.18-15.15C213.43,20,173.19,11.58,132,6.53,111.47,4,90.89,2.36,70.27,1.33Q54.81.56,39.32.22C29.32,0,18.49-.77,9,2.8a4.85,4.85,0,0,0,0,9.26Z"/><path d="M228.68,226.57a209.08,209.08,0,0,1,2.66-36.3c.48-3,1.09-5.89,1.62-8.83.43-2.34.69-4.85-.33-7.08a6.3,6.3,0,0,0-2.16-2.53c-.87-.6-2.3-.89-2.87-1.82a6.31,6.31,0,0,1-.41-3.17c0-1.57,0-3.13.05-4.69a190,190,0,0,1,1.62-20.91c.15-1.07-1-2-2-2a2.06,2.06,0,0,0-2,2q-1.23,9.3-1.56,18.69a75,75,0,0,0-.06,8.74,6.66,6.66,0,0,0,3.91,5.88c.81.42,1.59.77,1.94,1.66a6.7,6.7,0,0,1,.16,3.27c-.35,2.78-1.06,5.53-1.53,8.28q-1.53,9-2.31,18.15c-.58,6.87-.81,13.76-.73,20.66,0,2.57,4,2.58,4,0Z"/><path d="M98.39,215.17A378.26,378.26,0,0,1,93.7,173.1c-.13-2.42-.73-5.76,1.45-7.47,2-1.54,4.12-2.44,5.2-4.87,1.73-3.88.52-8.14.44-12.19,0-1.54,0-3.1,1.16-3.93a5.79,5.79,0,0,1,3-.64c1.82-.08,3.65-.13,5.48-.19q10.71-.37,21.43-.6,21.43-.48,42.88-.45,23.93,0,47.86.68c2.57.07,2.57-3.93,0-4q-44.11-1.19-88.25-.29-11,.24-21.93.59l-5.48.19a22.26,22.26,0,0,0-5.09.43,6.58,6.58,0,0,0-4.58,4.36c-1.32,4,.37,8.28,0,12.36a5.2,5.2,0,0,1-2.87,4.29A11.15,11.15,0,0,0,91.24,164a8.75,8.75,0,0,0-1.59,4.52c-.36,3.6.2,7.42.46,11q.44,6.15,1.08,12.28,1.28,12.28,3.34,24.47A2,2,0,0,0,97,217.63a2,2,0,0,0,1.4-2.46Z"/><path d="M91.35,218.09,145,220.7l53.65,2.61,15.22.74c2.46.12,4.94.15,7.39.36.77.07,2.71.3,2.6,1.25a2,2,0,0,0,2,2,2,2,0,0,0,2-2c.43-3.68-3.87-5.06-6.75-5.26-4.65-.32-9.32-.45-14-.68l-28.19-1.37L123,215.64l-31.69-1.55c-2.58-.12-2.57,3.88,0,4Z"/><path d="M258,231.34q.87-11.46,2.29-22.85.72-5.73,1.59-11.45c.26-1.74.5-3.49.82-5.22a4.71,4.71,0,0,1,.4-1.48c.38-.6,1-.49,1.65-.46,7.4.29,14.83,1.16,22.17,2.05s14.76,2,22.08,3.36q12.45,2.27,24.73,5.33l-1.47-1.93A220.6,220.6,0,0,1,328.52,222q-1.25,5.73-2.77,11.38-.75,2.77-1.57,5.52c-.35,1.18-.65,3.86-2,4.33s-3.29-.08-4.65-.2q-3.16-.3-6.33-.64-6.09-.65-12.16-1.44-11.88-1.55-23.67-3.69-6.51-1.17-13-2.52c-1.12-.23-2.24-.46-3.36-.71-.59-.13-1.62-.2-2-.8-.65-1.09.67-3,1.22-3.92,1.35-2.19-2.11-4.21-3.46-2-1.79,2.92-3.15,7.29.36,9.57,1.63,1.06,3.82,1.25,5.67,1.64q3.24.68,6.49,1.31,13.1,2.55,26.32,4.41c8.86,1.25,17.79,2.45,26.72,3.06a6.32,6.32,0,0,0,5.21-1.58c1.35-1.4,1.79-3.47,2.33-5.28,1.26-4.19,2.4-8.43,3.42-12.69a231.8,231.8,0,0,0,5-29,2,2,0,0,0-1.46-1.93,395.51,395.51,0,0,0-46.91-8.71q-6-.75-12.1-1.31c-3.77-.35-7.63-.86-11.42-.87a5.1,5.1,0,0,0-4.35,1.91,9.42,9.42,0,0,0-1.39,4.29q-1,6.12-1.8,12.26-1.8,13.46-2.83,27c-.2,2.56,3.8,2.55,4,0Z"/><path d="M244.46,92.81c-4.36-.24-8.74-.38-13.1-.72-1.18-.09-2.82-.3-3.14-1.67s.56-3.23,1.21-4.52a2,2,0,0,0-2.74-2.73c-3.34,1.84-8,2-11.14-.4-1.14-.85-2.45-2.38-1.85-3.91s2.7-2.47,4.14-3.15c1.83-.87.88-3.76-1-3.73-4,.07-7.68-4.39-6.14-8.29a6.62,6.62,0,0,1,9.09-3.1,2,2,0,0,0,2.74-.71,4.65,4.65,0,0,1,8.65.64,2,2,0,0,0,2.94,1.19c2.35-1.38,5.22-2.48,8-1.69,1.9.55,3.94,2.54,3.58,4.7a2.06,2.06,0,0,0,1.4,2.46,2,2,0,0,0,2.46-1.4,8.55,8.55,0,0,0-5.29-9.21c-4-1.73-8.53-.42-12.13,1.69L235,59.45a8.61,8.61,0,0,0-16-1.59l2.73-.72a10.63,10.63,0,0,0-15,5.49c-2.24,6.36,3.44,13.46,10,13.35l-1-3.72c-2.37,1.11-4.79,2.59-5.81,5.13-1.12,2.81.09,5.82,2.21,7.79,4.39,4.08,11.41,4.23,16.49,1.44L226,83.88c-1,2-2,4.27-1.76,6.56a5.9,5.9,0,0,0,4.11,5.12c2.25.78,4.89.64,7.24.76l8.9.49c2.57.14,2.56-3.86,0-4Z"/><path d="M124.2,85.08a90.24,90.24,0,0,1,17.61,1,17.35,17.35,0,0,1,3.65.72c1,.38.63,1.23.48,2.12L144.41,98a2,2,0,0,0,1.93,2.54l85.89-.56,12-.08,6.25,0c.92,0,1.86-.07,2.78,0a3.75,3.75,0,0,1,.7.09c.36-.32-1.18-.75.47-1.15-2.5.6-1.44,4.46,1.07,3.85a3.11,3.11,0,0,0,2.3-3.2A3.66,3.66,0,0,0,255,96.08a17.07,17.07,0,0,0-4.79-.23l-6.5,0L220.24,96l-47.44.31-26.46.18,1.93,2.53c.58-3.51,1.31-7,1.75-10.55.41-3.37-1.65-5.32-4.79-5.93a90.42,90.42,0,0,0-21-1.5c-2.56.11-2.58,4.11,0,4Z"/><path d="M66.11,94l36.14,0h9.16c2.68,0,6.23.63,8.38-1.34A14.66,14.66,0,0,0,122,89.47l2.33-3.77a8.55,8.55,0,0,0,1.56-3.51,6,6,0,0,0-1-3.63,10.25,10.25,0,0,1-1.33-7c.48-2.61,1.18-5.27-.64-7.54-1.36-1.7-3.47-2.3-5.55-2.56-2.69-.32-5.45-.23-8.15-.3l-18.08-.47-8.91-.24c-2.63-.07-5.67-.56-7.9,1.15a12.48,12.48,0,0,0-2.6,3.14,20.73,20.73,0,0,1-2.52,3,20,20,0,0,1-3,2.48,21.43,21.43,0,0,0-3.29,2.28c-2.33,2.28-1.7,5.61-1.53,8.54L62,91.29c.16,2.56,4.16,2.58,4,0L65.5,83l-.22-3.68c-.06-1-.39-2.46,0-3.42.33-.77,1.25-1.19,1.92-1.6a27.81,27.81,0,0,0,3-2.13,25,25,0,0,0,4.49-4.76A18.65,18.65,0,0,1,76.43,65c.8-.8,1.79-.72,2.85-.7,2.64.06,5.28.14,7.92.21l16.34.43,8.42.22a27,27,0,0,1,6.35.45c2.09.57,2,2.08,1.6,4a15.53,15.53,0,0,0-.08,7.11,14,14,0,0,0,1.25,3.2c.4.76,1.07,1.44.72,2.3a25.67,25.67,0,0,1-1.93,3.16c-.73,1.16-1.43,2.34-2.17,3.5S116.59,90,115.37,90H103L66.11,90c-2.57,0-2.58,4,0,4Z"/><path d="M55.86,68.38a20.55,20.55,0,0,1,14,.45,2,2,0,0,0,2.46-1.4A2,2,0,0,0,70.93,65a24.2,24.2,0,0,0-16.13-.45,2,2,0,0,0,1.06,3.86Z"/><path d="M53.9,61.07a32.42,32.42,0,0,1-9.47.79l2,2q-.51-7.86-.81-15.72c0-1.31-.1-2.62-.14-3.93a10.29,10.29,0,0,0,0-1.67c0-.06.09-.53-.08-.33s.12,0,.21,0A16.37,16.37,0,0,1,49.07,42c1.38-.09,2.77-.16,4.15-.23,5.16-.23,10.34-.36,15.51-.25a13.5,13.5,0,0,1,5.2.85,4.18,4.18,0,0,1,2.5,4c.16,2.8,0,5.64,0,8.44l0,9.21c0,2.57,4,2.58,4,0l0-9.21c0-2.93.22-5.94,0-8.87a8.26,8.26,0,0,0-3.24-6.26,12.53,12.53,0,0,0-6.19-2,70.45,70.45,0,0,0-8-.14c-2.94,0-5.88.1-8.81.22s-5.78.21-8.64.51a4.7,4.7,0,0,0-3.19,1.34c-1,1.09-1,2.55-.92,3.93q.31,10.2,1,20.39a2.06,2.06,0,0,0,2,2A36.57,36.57,0,0,0,55,64.93c2.51-.59,1.45-4.45-1.06-3.86Z"/><path d="M47.79,35.24a20.38,20.38,0,0,1-12.19-2l.92,2.26,3.37-17.87L38,19.14a442.48,442.48,0,0,1,49.36,7.91l-1.4-2.46L76.16,48.9a2,2,0,0,0,1.4,2.46A2.06,2.06,0,0,0,80,50l9.76-24.31a2,2,0,0,0-1.4-2.46,454.09,454.09,0,0,0-50.42-8A2,2,0,0,0,36,16.61L32.66,34.47a2,2,0,0,0,.92,2.26A25,25,0,0,0,48.85,39.1a2,2,0,0,0,1.4-2.46,2,2,0,0,0-2.46-1.4Z"/><path d="M116.1,18.83l-.58,15.64c-.15,4.22-.87,8.92.29,13.07a8.54,8.54,0,0,0,2.92,4.54,10.82,10.82,0,0,0,6.08,1.84c5.05.32,10.12.47,15.17.7l15.6.71,7.67.36c2.1.09,5,.75,6.69-.8a4.91,4.91,0,0,0,1.31-4c0-.67-.1-1.33-.1-2a2.9,2.9,0,0,1,0-.69c0-.25.11-.21-.08-.09.66-.4,2.11,0,2.84,0l4.21.17,7.67.32L220.71,50l-2-2a8.44,8.44,0,0,1-1.65,6.31,2.07,2.07,0,0,0,0,2.83,2,2,0,0,0,2.83,0A12.34,12.34,0,0,0,222.71,48a2.06,2.06,0,0,0-2-2l-29.93-1.24-14.84-.62c-2-.09-4.8-.67-6.68.39a4.5,4.5,0,0,0-2.1,3.94,18.72,18.72,0,0,0,.07,2c0,.33-.09,1.47,0,1.54s-.11-.13.14-.12h-.26c-.28,0-.58,0-.86,0l-3.71-.17L147.41,51l-14.86-.68c-2.44-.12-4.89-.21-7.33-.34-1.64-.09-3.55-.21-4.67-1.59s-1.26-3.42-1.29-5.11c-.06-2.51.13-5,.22-7.53l.62-16.88c.09-2.57-3.91-2.57-4,0Z"/><path d="M348,265.56q1.45-12.22,4-24.27.63-3,1.32-5.9c.23-.94.45-1.88.69-2.82a14,14,0,0,1,.71-2.65c.29-.6.61-.41,1.25-.34,1.05.12,2.1.28,3.15.42l6.37.86,12.24,1.64c3.77.51,7.64.82,11.36,1.6,2.13.45,5.29,1.3,5.54,3.91.19,2-.57,4.25-.92,6.19l-1.1,6.13L387.6,278.5a2,2,0,0,0,1.15,2.36,2,2,0,0,0,2.5-.82l1.1-2.6a2.06,2.06,0,0,0-.72-2.73,2,2,0,0,0-2.73.71l-1.1,2.6,3.65,1.54,4.94-27.44,1.24-6.86a42.26,42.26,0,0,0,1.07-6.79c0-3.7-2.52-6.17-5.77-7.44-3.52-1.36-7.52-1.5-11.22-2L368,227.19l-6.85-.93-3.19-.42a11.6,11.6,0,0,0-3.52-.24c-2,.33-3.06,1.82-3.64,3.63-.64,2-1.06,4.19-1.54,6.27A281,281,0,0,0,344,265.56a2,2,0,0,0,2,2,2,2,0,0,0,2-2Z"/><path d="M410.52,280.6c-3.49.4-6.47-3.16-5.9-6.57.65-3.88,4.78-6.26,8.43-6.39l-.53-3.93c-1.48.39-2.65-1.29-2.87-2.59-.32-1.94,1.28-3.73,2.68-4.83a13,13,0,0,1,5.26-2.53c1.33-.27,3.18-.35,4,.94a2,2,0,0,0,3.46-2c-.92-1.68.39-3.7,1.67-4.8a9.57,9.57,0,0,1,6.13-2.11,9.74,9.74,0,0,1,9.26,7.3c.67,2.49,4.53,1.43,3.85-1.06a13.73,13.73,0,0,0-14.29-10.18,13,13,0,0,0-8.54,4c-2.16,2.46-3.18,5.86-1.54,8.87l3.46-2c-3.82-5.82-12.4-2.33-16.35,1.47-2.36,2.27-3.86,5.67-2.66,8.89s4.14,5.41,7.52,4.53c2.16-.56,1.76-4-.53-3.93-5.75.21-11.7,4.13-12.41,10.19-.65,5.45,4.12,11.44,9.88,10.77a2.07,2.07,0,0,0,2-2,2,2,0,0,0-2-2Z"/><path d="M431.67,240.87a125.3,125.3,0,0,1-.43-17.65,2,2,0,0,0-2-2l-36.33,1.5-4.2.17-2.23.09c-.29,0-1.33.2-1.56-.07s-.05-.93-.05-1.1c0-.74,0-1.49,0-2.23l.05-4.71.17-18.11.21-20.58c0-2.58-3.91-2.57-4,0l-.13,3.25c-.1,2.58,3.9,2.57,4,0l.13-3.25h-4q-.19,19.33-.38,38.69l-.05,4.71a15.19,15.19,0,0,0,.23,4.47c1,3.25,4.38,3,7.09,2.86l19.28-.79,21.75-.9-2-2a125.3,125.3,0,0,0,.43,17.65,2.06,2.06,0,0,0,2,2,2,2,0,0,0,2-2Z"/><path d="M389.82,182.12l.51,17.23.27,8.86.11,3.94a10.46,10.46,0,0,0,.46,3.52c1.08,2.81,4,2.74,6.55,2.7l8.42-.15,17.34-.29,19.82-.34-1.93-2.53a202.57,202.57,0,0,0-3.4,36.12c0,2.57,4,2.58,4,0a196.39,196.39,0,0,1,3.26-35.06,2,2,0,0,0-1.93-2.53l-32.45.55-8.18.14-4,.07a14.59,14.59,0,0,1-3.43,0c-.74-.18-.53-1-.55-1.74-.05-1.4-.09-2.79-.13-4.19l-.24-8.12-.54-18.21c-.08-2.57-4.08-2.58-4,0Z"/><path d="M437.7,250.55c.52.3,1,.62,1.51,1l.43.31c.3.22-.08-.07.09.07s.47.37.69.56a21.84,21.84,0,0,1,2.57,2.61c.09.12.18.24.28.35s-.27-.37.07.09c.17.24.35.48.52.73.33.49.65,1,.94,1.51s.6,1.1.86,1.67l.18.4c-.11-.26,0,0,0,.1.12.31.23.62.34.93l2.46-2.46c-.21-.07-.17-.05.1.06l-.17-.09c-.14-.11.32.29,0,0s.09.26-.06-.07l-.06-.12c-.1-.19-.08-.16,0,.11a1.86,1.86,0,0,1-.1-.39c0,.31,0,.35,0,.13v-.13c0-.43-.08.39,0,0,.07-.21.05-.17-.06.1,0-.08.09-.15.14-.23a2,2,0,0,0-.72-2.73,2,2,0,0,0-2.73.72,4.44,4.44,0,0,0,2.53,6.5,2,2,0,0,0,2.46-2.46,23.72,23.72,0,0,0-10.36-12.68,2,2,0,1,0-2,3.46Z"/><path d="M92.75,214.59q-6.51.58-13,1.26l1,1q-.46-18.48-.9-37l-.21-9.18c0-1.49-.07-3-.1-4.46,0-.75,0-1.49,0-2.24s-.29-2.05.46-2.63A21.52,21.52,0,0,1,83,160a18.81,18.81,0,0,0,2.78-1.79A12.74,12.74,0,0,0,90,152.79c1.54-4,.17-9.3-4-11.07l-.51,1.86,15.42-1.64c1.27-.13,1.28-2.13,0-2l-15.42,1.64c-.85.1-1.53,1.43-.5,1.87,4,1.71,4.39,6.9,2.28,10.24a13.48,13.48,0,0,1-5.12,4.44c-1.75.94-4.4,1.35-4.69,3.7a26.73,26.73,0,0,0,0,3.9c0,1.49.06,3,.1,4.47.07,3,.13,6,.2,8.93l.42,17.62q.26,10,.5,20.1a1,1,0,0,0,1,1q6.51-.67,13-1.26c1.28-.11,1.29-2.12,0-2Z"/><path d="M223.67,231.24a48.69,48.69,0,0,0,13.81,14.56,1,1,0,0,0,1.51-.86l2.82-59.84,1.41-29.91.71-15c.21-4.45.92-9.21-1.21-13.33a32.82,32.82,0,0,0-4.14-5.69c-1.78-2.16-3.49-4.41-5.35-6.51-.87-1-3.37-2.16-3.75,0-.23,1.26,1.39,2.81,2.4,1.52.79-1-.62-2.42-1.41-1.41l.48,0c.49-.11.61,0,.36.38l-.13.34.38.33a13.92,13.92,0,0,1,1,1.24l2.21,2.68c1.3,1.58,2.63,3.15,3.91,4.76a16.13,16.13,0,0,1,3,5,18.27,18.27,0,0,1,.46,6.21c-.39,8.8-.83,17.6-1.25,26.4L238.4,215,237,244.94l1.5-.87a46.22,46.22,0,0,1-13.09-13.84c-.67-1.09-2.4-.09-1.73,1Z"/><path d="M244.64,131.07a105.72,105.72,0,0,1,15-13.4c1-.75,0-2.49-1-1.73a108.38,108.38,0,0,0-15.46,13.72c-.87.94.54,2.36,1.42,1.41Z"/><path d="M228.08,114.47l15.4-.51,7.45-.24,4-.13,2-.07,1,0c.48.07.83-.18,1-.75-1.23-.39-1.75,1.54-.53,1.93a1.46,1.46,0,0,0,1.87-1.21,1.71,1.71,0,0,0-1.52-1.91,20.74,20.74,0,0,0-4.59.06l-5.21.17-20.87.69c-1.29,0-1.29,2,0,2Z"/><path d="M228.25,139.79l1.52-28.69c.07-1.29-1.93-1.29-2,0l-1.52,28.69c-.07,1.29,1.93,1.28,2,0Z"/><path d="M238.68,244.57c1.07-3.26,5.49-3.75,8.27-4.71a11.3,11.3,0,0,0,7.52-7c1.5-4.11,1.33-8.72,1.46-13l.53-16.93,2.12-67.71.6-19.17c0-1.42.13-4.89-2.31-4.34-1.44.32-2.05,2.82-.29,3.13,1.25.23,1.79-1.7.53-1.92l.36.67-.33.25c0,.21.07.45.08.66,0,.52,0,1,0,1.55l-.13,4-.24,7.71-.48,15.44-1,30.62-1,30.62-.49,15.43c-.12,4,0,8.17-1.22,12a8.88,8.88,0,0,1-3.51,4.87,19.24,19.24,0,0,1-4.86,1.92c-3.11.95-6.48,2-7.58,5.45-.4,1.23,1.53,1.75,1.92.53Z"/><path d="M258.82,188l8.44-.14a1,1,0,0,0,1-1,97.86,97.86,0,0,1,3.26-35.63,1,1,0,0,0-1.67-1l-2.3,2.39c-.89.93.53,2.35,1.42,1.42l2.29-2.39-1.67-1a99.22,99.22,0,0,0-3.33,36.16l1-1-8.44.14a1,1,0,0,0,0,2Z"/><path d="M323,246.45A62.18,62.18,0,0,1,337.28,264c.62,1.13,2.35.12,1.73-1A64.05,64.05,0,0,0,324.43,245c-1-.83-2.4.58-1.42,1.42Z"/><path d="M339.44,261.47c-2-23.93,4.76-47.29,10.76-70.19.84-3.21,1.69-6.43,2.48-9.66.53-2.19.93-4.78-.88-6.51-.93-.89-2.35.53-1.41,1.42,1.7,1.62.26,5-.22,6.86-.69,2.76-1.41,5.52-2.14,8.28-1.47,5.61-3,11.21-4.37,16.83a215.88,215.88,0,0,0-6.13,33.72,114.58,114.58,0,0,0-.09,19.25c.1,1.27,2.1,1.28,2,0Z"/><path d="M335.35,201.69A39.56,39.56,0,0,0,337,187.82c0-.65-.34-1.81.17-2.34a5,5,0,0,1,1.77-.74,25.67,25.67,0,0,0,12.13-9.63h-1.73a28.24,28.24,0,0,0,6.05,7.69,35.62,35.62,0,0,0,3.76,2.84c1.12.76,3.35,2.53,2.11,4.1-.79,1,.61,2.42,1.41,1.42a4,4,0,0,0,.42-4.33c-.81-1.65-2.48-2.58-3.93-3.59a26.24,26.24,0,0,1-8.09-9.14,1,1,0,0,0-1.73,0,23.21,23.21,0,0,1-6,6.06,23.56,23.56,0,0,1-3.58,2.06,29.79,29.79,0,0,0-3.59,1.49,3,3,0,0,0-1.3,2.68c0,1.56.19,3.12.15,4.7a38.13,38.13,0,0,1-1.64,10.06,1,1,0,0,0,1.93.54Z"/><path d="M338.21,264.64c.17-.27.35-.54.53-.8,0,0,.19-.24.08-.1l.12-.15.31-.36a12.94,12.94,0,0,1,1.41-1.36s.19-.15.06-.05l.2-.14.39-.27q.39-.27.81-.51c.28-.15.56-.3.85-.43l.22-.1c-.13.06,0,0,.07,0l.5-.19a1,1,0,0,0-.54-1.93,13,13,0,0,0-6.74,5.4,1,1,0,1,0,1.73,1Z"/><path d="M351.67,225.36q3.33-12.53,5.52-25.31,1.06-6.23,1.86-12.49c.14-1.11.38-2.26.41-3.37a2,2,0,0,0-.5-1.6,1.33,1.33,0,0,0-2.15,1.37c.45,1.19,2.39.68,1.93-.53l-.07-.17-.1.77,0,.09-.77.1.21.05-.59-.46c.34.47-.12,2-.19,2.55-.11.88-.22,1.76-.34,2.64q-.35,2.63-.75,5.25-.78,5.15-1.75,10.27-1.94,10.23-4.61,20.31a1,1,0,0,0,1.92.53Z"/><path d="M360,187.27l4.36.11-1-1a225.6,225.6,0,0,1-3,43.35c-.21,1.26,1.72,1.8,1.93.53a227.87,227.87,0,0,0,3.07-43.88,1,1,0,0,0-1-1l-4.36-.11c-1.28,0-1.28,2,0,2Z"/><path d="M386.16,222.81l5.84-7.22a1,1,0,0,0-1.42-1.41l-5.83,7.22a1,1,0,0,0,0,1.41,1,1,0,0,0,1.41,0Z"/><path d="M393.74,212.29c3.6-1,5.27-4.41,7.45-7.13a50.51,50.51,0,0,1,8.38-7.75,52.23,52.23,0,0,0,8.39-7.68c.84-1,2.81-3,1.6-4.37a1.39,1.39,0,0,0-2.38,1.23c.23,1.27,2.15.73,1.93-.53l0-.19-.26,1-.13.08-.71-.29c-.07-.06-2.49,2.92-2.79,3.23a42.61,42.61,0,0,1-3.17,3c-2.23,1.91-4.59,3.67-6.84,5.55a37.53,37.53,0,0,0-6,6.13c-1.65,2.19-3.13,5-5.95,5.82a1,1,0,0,0,.54,1.93Z"/><path d="M419.73,185.56a153,153,0,0,1,32.42,30.27l.71-1.71-2-.12c-1.28-.09-1.28,1.91,0,2l2,.12c1,.06,1.2-1.09.71-1.7a154.51,154.51,0,0,0-32.83-30.58c-1.06-.74-2.06,1-1,1.72Z"/><path d="M409.1,174a68.28,68.28,0,0,1,9.66,10.16,1,1,0,0,0,1.42,0,1,1,0,0,0,0-1.41,68.37,68.37,0,0,0-9.67-10.16A1,1,0,1,0,409.1,174Z"/><path d="M421.81,184.14,437.07,175c1.1-.67.09-2.4-1-1.73l-15.26,9.19a1,1,0,0,0,1,1.73Z"/><path d="M418.33,276.06a3.06,3.06,0,0,1-2.46-2.86,3.07,3.07,0,0,1,2.37-2.93,1,1,0,0,0-.54-1.93,4.94,4.94,0,0,0,.1,9.65,1,1,0,0,0,1.23-.7,1,1,0,0,0-.7-1.23Z"/><path d="M427.57,262.2h0l-.14,0c-.1,0-.21-.05-.31-.09l-.17,0-.05,0c.1,0,0,0,0,0l-.2-.1-.27-.17-.15-.1s.11.08,0,0a5.55,5.55,0,0,1-.49-.48,1.34,1.34,0,0,1-.11-.14s.08.11,0,0-.12-.18-.17-.27-.11-.19-.16-.28l-.06-.13c-.14-.25,0,.1,0-.05a4.31,4.31,0,0,1-.19-.61,1.7,1.7,0,0,1-.06-.31c0,.2,0-.13,0-.19s0-.21,0-.32,0-.33,0-.14l.06-.31a.65.65,0,0,0,0-.13s.09-.25.05-.13l.09-.2.15-.25c0-.06.2-.26.07-.11l.23-.26.22-.2.1-.08c-.15.12,0,0,0,0a6.26,6.26,0,0,1,.55-.34c.06,0,.3-.13.12-.06l.28-.1c.21-.07.42-.11.63-.16,0,0,.19,0,0,0h.85l.16,0a2.62,2.62,0,0,1,.38.09l.12,0s.24.1.12,0,0,0,0,0l.19.1.33.22a1,1,0,1,0,1-1.73,5.21,5.21,0,0,0-6.31.55,4.77,4.77,0,0,0-.44,6.4,5,5,0,0,0,3.54,2.05,1,1,0,0,0,1-1,1,1,0,0,0-1-1Z"/><path d="M441.22,262.55c0,.11.11.21.16.32a1.3,1.3,0,0,1,.08.17c0-.1,0-.1,0,0s.14.39.2.6,0,.23.08.35.05.41,0,.18c0,.22,0,.45,0,.67s0,.45,0,.68c0-.24,0,.13,0,.17a2.82,2.82,0,0,1-.07.31,4.75,4.75,0,0,1-.2.64c0,.11,0,.12,0,0s-.05.1-.07.16-.11.21-.17.32a1,1,0,0,0,.36,1.36,1,1,0,0,0,1.37-.35,6.83,6.83,0,0,0,0-6.62,1,1,0,0,0-1.72,1Z"/><path d="M81.12,118q29.07-2.82,58.29-3.71t58.17.16q16.46.58,32.87,1.79c1.12.09,1.38-1.76.27-2l-3.7-.68c-1.26-.23-1.8,1.69-.54,1.93l3.71.68.26-2q-29.13-2.13-58.36-2.34t-58.15,1.53q-16.43,1-32.82,2.57c-1.27.12-1.28,2.12,0,2Z"/><path d="M88.28,141.45l-2.52-.72.7,1.24c1.67-6.75-1.28-13.77-3.17-20.17l-1.55-5.25c-.33-1.11-.51-3.09-1.62-3.75-2.13-1.28-2.86,2.85-.5,2.34,1.25-.27.72-2.2-.54-1.93l-.14,0,1,.26.14.64-.6.46c-.44,0-.51.17-.22.57l.28,1,.43,1.44,1,3.34c.68,2.31,1.37,4.62,2,6.93,1.3,4.4,2.68,9,1.54,13.6a1,1,0,0,0,.7,1.23l2.52.72a1,1,0,0,0,.53-1.93Z"/><path d="M53.13,143.74l32.4-1-.86-1.5-1,1.43c-.72,1.07,1,2.08,1.73,1l1-1.43a1,1,0,0,0-.87-1.51l-32.4,1c-1.28,0-1.29,2,0,2Z"/><path d="M76.65,161.23a112.34,112.34,0,0,0-24.91-1.54c-1.28.07-1.28,2.07,0,2a110,110,0,0,1,24.38,1.47c1.26.22,1.8-1.71.53-1.93Z"/><path d="M52.77,130.93l31.39-4.39c1.27-.18.73-2.11-.53-1.93L52.24,129c-1.27.17-.73,2.1.53,1.92Z"/><path d="M82.85,43.71Q90,46.53,97,49.71a1,1,0,0,0,1.47-.6L102,37.78l-1.23.7A79,79,0,0,0,116,40a1,1,0,0,0,0-2,75.9,75.9,0,0,1-14.73-1.43,1,1,0,0,0-1.23.7L96.54,48.58,98,48q-7.23-3.28-14.63-6.2c-1.2-.47-1.72,1.46-.53,1.93Z"/><path d="M141.53,84.77a18.88,18.88,0,0,0,6.37-16.19l-.29.71a59.75,59.75,0,0,0,13.47-14.63,1,1,0,0,0-.15-1.21l-.13-.11a1,1,0,0,0-1.21-.16,1.66,1.66,0,0,0-.64,2.09c.46,1.18,2.39.67,1.93-.53l-.28.17-1.21-.16.12.12-.15-1.21a57.79,57.79,0,0,1-6,7.73c-1.12,1.2-2.29,2.36-3.5,3.46q-.8.72-1.62,1.41a15.65,15.65,0,0,0-2,1.61c-.43.51-.25,1.06-.21,1.67a16.36,16.36,0,0,1-.85,6.36,16.94,16.94,0,0,1-5,7.46c-1,.84.44,2.25,1.41,1.41Z"/><path d="M190.68,76.26l1,8.08a1,1,0,0,0,1,1h4.5a1,1,0,0,0,1-1c.32-2.63.55-5.65-1.28-7.81-1.41-1.68-4.16-2.63-6.07-1.2a1,1,0,0,0-.46,1.13,1,1,0,0,0,1,.73l2.6,0a1,1,0,0,0,0-2l-2.6,0,.5,1.87a3.65,3.65,0,0,1,.5-.31l.42-.11H193l.3,0c-.17,0,.11,0,.14,0l.3.07a1.69,1.69,0,0,1,.45.18,4.56,4.56,0,0,1,.56.33,3.37,3.37,0,0,1,.38.32l.22.24a1.1,1.1,0,0,1,.15.17c1.28,1.78.89,4.32.65,6.35l1-1h-4.5l1,1-1-8.08a1,1,0,0,0-1-1,1,1,0,0,0-1,1Z"/><path d="M198.55,77.17A6.49,6.49,0,0,1,202.43,76l-1-.74c.76,2,1.79,4.43,1,6.58-.49,1.39-2,2.69-3.5,2.19-1.23-.4-1.75,1.53-.53,1.93,2.33.76,4.73-.86,5.69-3,1.25-2.69.23-5.69-.77-8.28a1,1,0,0,0-1-.73,8.33,8.33,0,0,0-4.89,1.45,1,1,0,0,0-.36,1.37,1,1,0,0,0,1.37.36Z"/><path d="M158.23,62.59l-.79,10.2a1,1,0,0,0,1,1h9.39a1,1,0,0,0,1-1l.15-7c0-1.83.31-4.15-1.58-5.2-1.57-.86-3.69-.5-5.3.06a10.53,10.53,0,0,0-4.57,3.14,1,1,0,0,0,0,1.41,1,1,0,0,0,1.41,0,8.54,8.54,0,0,1,3.52-2.56,8.45,8.45,0,0,1,2.22-.52,2.87,2.87,0,0,1,1.85.28c.49.37.48,1.09.48,1.64,0,.93,0,1.87,0,2.8l-.13,5.93,1-1h-9.39l1,1,.79-10.2c.1-1.28-1.9-1.28-2,0Z"/><path d="M153.07,77.25c-.8,1.72-1.57,3.59-1.13,5.52a3.92,3.92,0,0,0,2.85,2.86,3.18,3.18,0,0,0,2.17-.19,2.27,2.27,0,0,0,.74-.56,2.61,2.61,0,0,0,.49-1.59c.22-1.69.16-3.6-1.06-4.93a3.39,3.39,0,0,0-4.7-.5,1,1,0,1,0,1.41,1.41c.18-.15-.11,0,0,0a1.4,1.4,0,0,0,.16-.1c.06,0,.14,0,0,0l.14-.05.09,0c-.17,0,.07,0,.09,0h.15c.07,0,.26.06,0,0,.11,0,.23.05.34.09l.19.06s-.18-.09,0,0a3.3,3.3,0,0,1,.32.18l.17.12c-.14-.11,0,0,.05,0l.22.24c.17.17,0-.11,0,0s.08.11.11.17.16.3.11.19a3.77,3.77,0,0,1,.18.57,2,2,0,0,1,.05.26s0,.19,0,0a4,4,0,0,1,0,.49,7.19,7.19,0,0,1,0,1c0,.19,0,.37,0,.55l0,.22c0-.13,0,0,0,.07s-.12.34,0,.1,0,0,0,0l-.1.09c.17-.17,0,0,0,0s-.21.08-.06,0,0,0-.06,0l-.13,0c-.19.05.07,0,.07,0a2,2,0,0,1-.35,0h0l-.11,0-.31-.09c-.06,0-.21-.09,0,0l-.13-.07a2.69,2.69,0,0,1-.29-.16l-.16-.11c.14.09.05,0,0,0l-.21-.21s-.17-.19-.07-.07,0-.06-.05-.08l-.15-.25c-.11-.19,0,.13,0,0a2.58,2.58,0,0,0-.08-.26,2.63,2.63,0,0,1-.1-1c0-.07,0-.14,0-.22s0,0,0-.17.08-.41.13-.61a12.68,12.68,0,0,1,.82-2.16,1,1,0,0,0-.36-1.36,1,1,0,0,0-1.36.36Z"/><path d="M60.59,216.34l-4.31-49.86c-.14-1.58.14-4.16-1-5.43a1.89,1.89,0,0,0-3.06.27c-.61,1.13,1.12,2.14,1.73,1a8.19,8.19,0,0,0,.2,2.41l.3,3.48.6,6.94,1.18,13.65,2.38,27.53c.11,1.27,2.12,1.29,2,0Z"/><path d="M53.83,218.56c-5.62-3.06-11.27-6.08-16.86-9.2-2.59-1.44-4.45-3.1-4.42-6.27s.75-6.05,1-9.07a141.2,141.2,0,0,0-.43-19c-.23-3.25-.49-6.5-.66-9.75-.08-1.46-.15-2.92-.19-4.39,0-.81,0-1.62,0-2.44S32,157,33,157.18a35.65,35.65,0,0,1,4.91,1.51l5.15,1.6,10.53,3.28c1.23.38,1.75-1.55.53-1.93L43.8,158.43c-3.36-1-6.72-2.33-10.14-3.15a2.87,2.87,0,0,0-2.76.46c-1,1-.73,2.72-.7,4,.06,3.5.27,7,.52,10.49a207.82,207.82,0,0,1,.9,21.17c-.1,3.39-.58,6.69-.95,10-.32,2.88.11,5.68,2.36,7.69a19.69,19.69,0,0,0,3.87,2.5l5.16,2.82,10.76,5.87c1.13.62,2.14-1.11,1-1.73Z"/><path d="M55.85,141a107.78,107.78,0,0,0-26,1.41,1,1,0,0,0-.74,1,61.52,61.52,0,0,1,.52,6.35c0,1,0,2,0,2.95a23.2,23.2,0,0,1-.09,2.9l.77-.1-.17,0,.6.46v.31l-1,.73h.14c1.27-.13,1.28-2.13,0-2H29.8a1.08,1.08,0,0,0-1,.74,1.3,1.3,0,0,0,1.35,1.74c1.33-.18,1.32-1.79,1.38-2.8a58.8,58.8,0,0,0-.44-11.25l-.73,1A105.42,105.42,0,0,1,55.85,143c1.29.09,1.28-1.91,0-2Z"/><path d="M31.55,143.9l.11-11.45-1,1L48,132.69l4.22-.19a8.87,8.87,0,0,0,3.11-.51c1.67-.73,2.83-2.86,1.6-4.49-.76-1-2.5,0-1.73,1,1.57,2.08-3.87,2-4.72,2.07l-6.45.28-13.41.59a1,1,0,0,0-1,1l-.11,11.45a1,1,0,0,0,2,0Z"/><path d="M26.18,119.55c7.67-1.25,15.35-2.48,23-3.76,1.26-.21,2.49-.52,3-1.81.59-1.51,0-3.43-.14-5q-.6-5.72-.85-11.48a185.74,185.74,0,0,1,.41-22.75c.15-1.87.37-3.74.53-5.61.11-1.29-.09-2.56-1.35-3.21a5.5,5.5,0,0,0-3.45-.15c-1.78.3-3.55.7-5.31,1.11-7.66,1.79-15.75,4.23-23.51,1.6C17.3,68.09,16.77,70,18,70.44c6,2,12.31,1.19,18.36-.14,3.19-.71,6.34-1.54,9.54-2.19.74-.16,3.59-1.1,4.2-.21.34.5,0,1.73-.05,2.23-.11,1-.2,2-.29,2.93a184.66,184.66,0,0,0-.66,21q.12,5.15.53,10.27c.14,1.71.3,3.41.49,5.12.08.79.19,1.57.27,2.36.09,1,.07,1.68-1,1.9-3.87.77-7.8,1.28-11.69,1.91l-12,2c-1.27.21-.73,2.13.53,1.93Z"/><path d="M17.61,37.86a47,47,0,0,0,6.49-1c1.67-.38,3.78-.72,4.39-2.58a8.35,8.35,0,0,0,.18-2.82L28.59,28l-.15-6.7c0-1.77.18-3.89-.84-5.45a4.93,4.93,0,0,0-3.68-2c-3.56-.41-7.45,1.22-10.48,2.93a1,1,0,0,0,1,1.73c2.53-1.43,5.64-2.75,8.6-2.72a3.3,3.3,0,0,1,3,1.31c.75,1.36.41,3.57.44,5.07.08,3.48.3,7,.24,10.49a1.57,1.57,0,0,1-1.18,1.76,20.87,20.87,0,0,1-2.36.59,41.47,41.47,0,0,1-5.55.81c-1.27.1-1.28,2.1,0,2Z"/><path d="M116,212.88c-1.65-16.47-4.7-34.95-18.43-46-.79-.64-1.62-1.25-2.47-1.81a4.17,4.17,0,0,0-2.38-1c-1.1.08-1.77,1.65-.62,2.2.57.28,1.08-.58.5-.86a.86.86,0,0,1,1.16,0l.67.42q.66.43,1.29.9a30.09,30.09,0,0,1,2.64,2.14,37.14,37.14,0,0,1,4,4.28,46.12,46.12,0,0,1,6.52,11.06c3.83,9.06,5.11,18.94,6.08,28.65.06.64,1.06.64,1,0Z"/><path d="M141.14,207.64c-14.36-6.31-24.33-21.65-23.67-37.41.19-4.51,1.38-9.12,4.52-12.5a21.11,21.11,0,0,1,9.9-5.54,63.87,63.87,0,0,1,11.52-1.84q7.6-.69,15.21-1.21t15.48-.92c5-.24,10.05-.53,15,.33a29.33,29.33,0,0,1,19.22,12.86,33.22,33.22,0,0,1,4.91,23.81,40.12,40.12,0,0,1-4.15,12.29c-2.07,3.89-4.76,7.88-8.43,10.42-3.93,2.71-8.88,3.09-13.5,3.5a129.14,129.14,0,0,1-14.72.48,131.12,131.12,0,0,1-29.23-4c-2.34-.6-4.66-1.27-7-2-.62-.19-.88.77-.27,1a132.15,132.15,0,0,0,46.29,5.93c4.75-.24,9.85-.43,14.43-1.85,4.36-1.36,7.58-4.41,10.22-8a41.65,41.65,0,0,0,6-11.83,35.89,35.89,0,0,0-1-25.25,31.75,31.75,0,0,0-16.29-16.41A35.4,35.4,0,0,0,181.84,147c-5.28,0-10.58.37-15.85.68q-8.36.5-16.7,1.19c-4.52.37-9.09.66-13.57,1.46-7.85,1.4-15.43,4.93-18.09,13-2.56,7.8-1,16.9,2.29,24.25a41.71,41.71,0,0,0,15.39,18.07,38.8,38.8,0,0,0,5.32,2.84c.59.26,1.1-.6.51-.86Z"/><path d="M271.8,233.33a7.91,7.91,0,0,1-6-4.75c-1.38-2.9-1.25-6.27-.92-9.37.34-3.27.81-6.53,1.23-9.78.44-3.4.75-6.84,1.32-10.22a4.4,4.4,0,0,1,2.06-3.4,11.46,11.46,0,0,1,4.16-1q4.59-.61,9.23-.81a103.48,103.48,0,0,1,36.2,4.92c1.37.45,2.73.92,4.08,1.42s3.3,1,4.51,2,1,2.51,1,3.89c-.07,1.7-.2,3.4-.37,5.09a94.82,94.82,0,0,1-3.78,18.49c-.42,1.33-.86,2.65-1.33,4-.57,1.57-1.06,3.7-2.67,4.52a10.44,10.44,0,0,1-4.23.62c-1.74.08-3.47.13-5.21.15a144.46,144.46,0,0,1-42.44-5.94.5.5,0,0,0-.27,1,145.76,145.76,0,0,0,41.76,6c1.74,0,3.48-.05,5.21-.12a19.12,19.12,0,0,0,4.84-.46c2.76-.85,3.44-3.91,4.28-6.33a95.28,95.28,0,0,0,4.63-20c.21-1.69.37-3.39.48-5.09a14,14,0,0,0-.06-4.74c-.74-2.49-3.91-3.21-6-4a103.22,103.22,0,0,0-19.78-5.18A104.72,104.72,0,0,0,283.56,193q-5,.18-10,.85c-2.39.32-5.27.67-6.49,3.06a12.5,12.5,0,0,0-.91,4.14l-.82,6.44c-.53,4.08-1.15,8.15-1.54,12.24-.33,3.39-.28,7,1.44,10a8.67,8.67,0,0,0,6.53,4.61c.64.07.63-.93,0-1Z"/><path d="M238.83,86.88a3.93,3.93,0,0,1-5-5.88.5.5,0,0,0-.18-.68.51.51,0,0,0-.68.18,5.07,5.07,0,0,0-.53,5.08,4.86,4.86,0,0,0,4.09,2.79,5,5,0,0,0,2.83-.62.5.5,0,0,0-.5-.87Z"/><path d="M229.79,74.29a4.37,4.37,0,0,1-5.08-6.9c.42-.48-.28-1.19-.71-.71a5.59,5.59,0,0,0-1.08,5.46,5.33,5.33,0,0,0,4.2,3.44,5.48,5.48,0,0,0,3.17-.43c.59-.27.08-1.13-.5-.86Z"/><path d="M169.64,138.84l-2.86-5.77a17.65,17.65,0,0,1-1.37-2.84c-.32-1.19.71-2.34,1.29-3.3l3.21-5.29a10.07,10.07,0,0,1,.9-1.48c.37-.42.62-.38,1.19-.37l3.21,0,25.22.38,14.34.21-.48-.63A48.25,48.25,0,0,1,207.1,135a.51.51,0,0,0,.3.74,29.78,29.78,0,0,1,6.52,2.91l.38-.91-2.42-.49c-.62-.13-.89.84-.26,1l2.42.48a.5.5,0,0,0,.38-.91,31,31,0,0,0-6.75-3l.3.74a49.15,49.15,0,0,0,7.28-15.46.51.51,0,0,0-.48-.64L187.08,119l-13.85-.21c-.66,0-2.12-.31-2.72,0s-1.09,1.67-1.46,2.29l-3.6,5.93a5.8,5.8,0,0,0-1.15,2.52,6,6,0,0,0,1,2.66l3.51,7.11c.29.57,1.15.07.87-.51Z"/><path d="M165.81,132.24q10.77-.15,21.54.33c3.54.17,7.09.38,10.63.65,1.77.14,3.55.27,5.32.45a8.33,8.33,0,0,1,4.72,1.56c.49.41,1.21-.29.71-.71-2.28-1.91-5.47-1.87-8.29-2.1q-5.79-.48-11.61-.77-11.49-.59-23-.41a.5.5,0,0,0,0,1Z"/><path d="M215.53,119a80.47,80.47,0,0,0,10.66-2l-.63-.49a163.38,163.38,0,0,1-2.1,22.41c-.1.63.86.9,1,.26a165.61,165.61,0,0,0,2.13-22.67.51.51,0,0,0-.64-.48,78.07,78.07,0,0,1-10.39,2c-.63.08-.64,1.08,0,1Z"/><path d="M170.55,119l8.82-2.63c2.89-.86,5.78-1.86,8.73-2.46.63-.13.36-1.09-.27-1-3,.59-5.84,1.6-8.72,2.46L170.28,118a.5.5,0,0,0,.27,1Z"/><path d="M94.79,208.1a16.09,16.09,0,0,0-11.18,4.66l.85.36L84.4,207c0-.86-.07-1.65.91-1.9a14.63,14.63,0,0,1,2.29-.18,21.72,21.72,0,0,0,2.67-.38c.47-.09.93-.21,1.39-.34a4.16,4.16,0,0,0,1.14-.39c.48-.29.63-1.11,0-1.3a.62.62,0,0,0-.77.87c.27.58,1.13.08.86-.5l0-.06v.5l-.38.14-.23-.3c0-.15,0-.2-.14-.13s-.19.07-.29.09l-.59.17c-.37.1-.73.19-1.1.27a21.54,21.54,0,0,1-2.39.36c-1.11.09-2.5-.1-3.47.56-1.15.78-.84,2.42-.83,3.61l0,5a.51.51,0,0,0,.86.35,15,15,0,0,1,10.47-4.37.5.5,0,0,0,0-1Z"/><path d="M93.61,199.68a20,20,0,0,0-9.81-.4l.61.35a3.18,3.18,0,0,1,2-4.11c1.09-.28,2.13.38,3.21.47A2.33,2.33,0,0,0,92,194.91c.3-.57-.57-1.08-.86-.5-.57,1.09-2.14.42-3,.2a3.66,3.66,0,0,0-2.91.37,4.19,4.19,0,0,0-1.77,4.91.5.5,0,0,0,.61.35,19,19,0,0,1,9.29.41.5.5,0,0,0,.26-1Z"/><path d="M93.75,189.6a17.53,17.53,0,0,0-8.89-1.44l.5.5-.27-3.88-.36.49a17.05,17.05,0,0,1,5-.24c.64.07.64-.93,0-1a18.21,18.21,0,0,0-5.31.27.51.51,0,0,0-.37.48l.27,3.88a.5.5,0,0,0,.5.5,16.62,16.62,0,0,1,8.38,1.3c.59.26,1.1-.6.51-.86Z"/><path d="M90.57,180.94a6,6,0,0,0-7-2.47l.61.35c-.3-1.25-.73-3.06.26-4.13s3-.63,4.26-.23a.5.5,0,0,0,.27-1c-1.68-.52-3.89-1-5.24.48s-.91,3.46-.51,5.11a.5.5,0,0,0,.61.35,5,5,0,0,1,5.87,2c.34.55,1.2.05.86-.5Z"/><path d="M92,165.42c-2.94-4.65-9.57-3-13.42-6.26-.49-.41-1.2.29-.71.71,1.95,1.66,4.48,2.18,6.91,2.74s5,1.14,6.36,3.31c.34.54,1.21,0,.86-.5Z"/><path d="M98.17,158.74a15.57,15.57,0,0,0-9.93-6.48c-.63-.12-.9.84-.26,1a14.62,14.62,0,0,1,9.33,6c.36.52,1.23,0,.86-.51Z"/><path d="M145.46,156.8a6.36,6.36,0,0,1,1.92,3.47c.11.55,1.06.43,1-.13a9.58,9.58,0,0,1,.26-3.84l-1-.13a5.49,5.49,0,0,0,.81,3.51.51.51,0,0,0,.87,0l2.1-3.45a.5.5,0,0,0-.87-.51l-2.1,3.46h.87a4.63,4.63,0,0,1-.68-3c.06-.57-.84-.66-1-.13a10.5,10.5,0,0,0-.29,4.1l1-.13a7.31,7.31,0,0,0-2.18-3.92c-.47-.44-1.18.27-.71.71Z"/><path d="M174,158.76a22.09,22.09,0,0,1,4.6,5.37l.86-.51a4.57,4.57,0,0,1-.27-4.39l-.92-.12,1.09,4.57a.5.5,0,0,0,.91.12,10.13,10.13,0,0,0,1.43-4.37c.05-.64-.95-.64-1,0a9.2,9.2,0,0,1-1.29,3.87l.91.12-1.08-4.57a.51.51,0,0,0-.92-.12,5.64,5.64,0,0,0,.28,5.4c.34.54,1.2,0,.86-.51a22.78,22.78,0,0,0-4.75-5.56c-.49-.42-1.2.29-.71.7Z"/><path d="M157.21,181.16a11.59,11.59,0,0,1,4,3.44.5.5,0,0,0,.93-.25l0-3.53-1,.14.54,3.45c.07.45.71.45.91.11L165,180.6c.34-.55-.53-1-.87-.51L161.72,184l.91.12-.53-3.45c-.09-.57-1-.41-1,.13l0,3.53.93-.25a12.53,12.53,0,0,0-4.32-3.8c-.57-.3-1.07.56-.5.86Z"/><path d="M128.06,184a10.24,10.24,0,0,1,3.42,4.73.51.51,0,0,0,1-.13l.09-3.89-1,.14.86,3.49a.51.51,0,0,0,.92.11,13.44,13.44,0,0,1,2.84-3.57c.48-.42-.23-1.13-.71-.7a14.06,14.06,0,0,0-3,3.77l.92.12-.87-3.49a.5.5,0,0,0-1,.13l-.09,3.89,1-.14a11.58,11.58,0,0,0-3.88-5.32.5.5,0,0,0-.69.18.51.51,0,0,0,.18.68Z"/><path d="M164.24,200.89a12,12,0,0,1,3.47,4.28.5.5,0,0,0,.91-.12,3.58,3.58,0,0,0-.22-2.76l-.79.61a3.54,3.54,0,0,1,.74,2.43.5.5,0,0,0,.93.25,7.51,7.51,0,0,1,3.39-3.25c.58-.28.08-1.15-.5-.87a8.39,8.39,0,0,0-3.75,3.61l.93.26a4.53,4.53,0,0,0-1-3.14c-.37-.46-1,.13-.79.61a2.53,2.53,0,0,1,.13,2l.91-.12a12.91,12.91,0,0,0-3.83-4.63c-.51-.39-1,.48-.5.86Z"/><path d="M194.59,186.21l3.48,3.47a.5.5,0,0,0,.85-.35l.08-3.66-.94.25a4.58,4.58,0,0,1,.63,3.74c-.14.52.68.91.91.38a11.17,11.17,0,0,1,2.92-3.92c.48-.43-.23-1.13-.71-.71a11.91,11.91,0,0,0-3.07,4.13l.91.38a5.61,5.61,0,0,0-.72-4.51.51.51,0,0,0-.93.26l-.08,3.66.86-.35-3.48-3.48a.5.5,0,0,0-.71.71Z"/><path d="M275,207.47a6.31,6.31,0,0,1,3.13,4.59l1-.26a5.11,5.11,0,0,1,.56-3.71l-.93-.26.4,3.47a.53.53,0,0,0,.37.48.49.49,0,0,0,.56-.23,42.3,42.3,0,0,1,2.37-4.46c.34-.55-.52-1.05-.86-.5a38.8,38.8,0,0,0-2.37,4.46l.93.25-.4-3.47a.5.5,0,0,0-.93-.25,6.16,6.16,0,0,0-.67,4.48.51.51,0,0,0,.62.35.5.5,0,0,0,.35-.61,7.24,7.24,0,0,0-3.6-5.19.5.5,0,0,0-.5.86Z"/><path d="M308.74,201.15A11.76,11.76,0,0,1,311,205a.5.5,0,0,0,1,0,10.17,10.17,0,0,1,1.93-3l-.83-.22a5.46,5.46,0,0,1-.19,2.75c-.17.51.48.78.83.49l3.19-2.68c.43-.36-.05-.9-.48-.84l-.79.12a.5.5,0,0,0,.27,1l.78-.11-.48-.84L313,204.27l.83.49a6.52,6.52,0,0,0,.19-3.28.5.5,0,0,0-.83-.22,11.24,11.24,0,0,0-2.19,3.45h1a13,13,0,0,0-2.54-4.27c-.43-.48-1.14.23-.71.71Z"/><path d="M291,214.87a7.53,7.53,0,0,1,3,4.74c.09.5.83.45,1,0l1-3.65h-1a22.68,22.68,0,0,1,.36,3.29c0,.39.56.71.85.35a17.66,17.66,0,0,1,2.95-2.91c.5-.4-.21-1.1-.71-.71a17.34,17.34,0,0,0-3,2.92l.86.35a23.8,23.8,0,0,0-.4-3.56c-.09-.5-.84-.45-1,0l-1,3.66h1a8.48,8.48,0,0,0-3.49-5.34c-.53-.37-1,.5-.51.86Z"/><path d="M308,230.86a5.69,5.69,0,0,1,2.69,3.77c.11.57,1,.41,1-.13a10.83,10.83,0,0,1,1.12-4.36l-.93-.25.11,3.62a.51.51,0,0,0,.5.5,3.66,3.66,0,0,0,3.22-2.09c.27-.59-.6-1.09-.86-.51a2.7,2.7,0,0,1-2.36,1.6l.5.5-.11-3.62a.5.5,0,0,0-.93-.25,11.92,11.92,0,0,0-1.26,4.86l1-.13a6.68,6.68,0,0,0-3.14-4.38.5.5,0,0,0-.51.87Z"/><path d="M403.64,236.8a4.79,4.79,0,0,1,2.29,4.68.53.53,0,0,0,.35.61.51.51,0,0,0,.62-.35,7.37,7.37,0,0,1,1.9-3.68l-.85-.36.2,3.87c0,.39.56.72.86.35a20,20,0,0,1,2.57-2.63c.49-.42-.22-1.12-.71-.7a19.37,19.37,0,0,0-2.57,2.63l.85.35-.2-3.87a.51.51,0,0,0-.86-.35,8.34,8.34,0,0,0-2.16,4.13l1,.26a5.84,5.84,0,0,0-2.76-5.81.5.5,0,0,0-.5.87Z"/><path d="M420.31,237.74a23.53,23.53,0,0,1,2.35,4.84.5.5,0,0,0,1-.13,4.86,4.86,0,0,1,1.44-3.17l-.85-.36.2,3.68a.5.5,0,0,0,.85.35,35.39,35.39,0,0,0,3-3.22c.4-.49-.3-1.21-.71-.71a35.42,35.42,0,0,1-3,3.23l.86.35-.2-3.68a.5.5,0,0,0-.85-.35,5.88,5.88,0,0,0-1.74,3.88l1-.13a24.85,24.85,0,0,0-2.45-5.09c-.34-.54-1.21,0-.86.51Z"/><path d="M224.18,228l13.35,11.78c.48.43,1.19-.28.7-.7l-13.34-11.78c-.48-.43-1.19.28-.71.7Z"/><path d="M228,224.76a51.16,51.16,0,0,0,11,10.11c.54.37,1-.5.51-.86a50.24,50.24,0,0,1-10.78-10c-.4-.5-1.11.21-.7.71Z"/><path d="M227.13,218.1q5.61,3.69,10.91,7.83c.5.39,1.21-.31.7-.71q-5.38-4.22-11.11-8c-.54-.36-1,.51-.5.86Z"/><path d="M225.78,210.59a43.23,43.23,0,0,0,12.35,8.84c.58.28,1.08-.59.5-.86a42.49,42.49,0,0,1-12.14-8.69c-.45-.46-1.16.25-.71.71Z"/><path d="M227.72,206.13a98.32,98.32,0,0,0,12.49,8.67.5.5,0,0,0,.5-.86,97.77,97.77,0,0,1-12.28-8.52c-.49-.4-1.21.3-.71.71Z"/><path d="M228,201.56c4.2,1.66,8.31,3.53,12.33,5.57.57.29,1.08-.57.51-.86q-6.15-3.14-12.57-5.67c-.6-.24-.86.73-.27,1Z"/><path d="M229.19,194.56a22.51,22.51,0,0,0,8.79,4.2l.57.12a2.27,2.27,0,0,1,.65.13,1.07,1.07,0,0,1-.37,1.83,1,1,0,1,1-.06-2c.63.09.9-.88.26-1a2,2,0,1,0,.95.5,1.53,1.53,0,0,0-.91-.41c-.47-.08-.94-.19-1.4-.31a20.18,20.18,0,0,1-2.5-.8,21.5,21.5,0,0,1-5.27-3c-.5-.39-1.22.32-.71.71Z"/><path d="M230.42,189.21c3.22.64,6.46,1.12,9.72,1.47.64.07.64-.93,0-1-3.17-.34-6.33-.82-9.46-1.43-.63-.13-.9.84-.26,1Z"/><path d="M230.56,183.31l9.19.5c.64,0,.64-1,0-1l-9.19-.5c-.64,0-.64,1,0,1Z"/><path d="M229.73,177.55l11.7-.21a.5.5,0,0,0,0-1l-11.7.21a.5.5,0,0,0,0,1Z"/><path d="M230.57,172.56a67.3,67.3,0,0,0,10.54-1.89.5.5,0,0,0-.27-1,65,65,0,0,1-10.27,1.85c-.64.06-.64,1.06,0,1Z"/><path d="M230.13,168.37l-.42.84a.51.51,0,0,0-.05.38.5.5,0,0,0,.23.3.53.53,0,0,0,.39.05.45.45,0,0,0,.29-.23l.42-.84a.51.51,0,0,0,0-.38.5.5,0,0,0-.23-.3.5.5,0,0,0-.38-.05.5.5,0,0,0-.3.23Z"/><path d="M225.14,167.93a103.83,103.83,0,0,0,10.81-1.7c1.76-.37,3.52-.8,5.25-1.27,1-.26,2.46-.8,1.9-2.08-.26-.58-1.12-.08-.86.51.15.34-3.56,1.19-3.92,1.28-1.42.34-2.85.66-4.29.94q-4.41.85-8.89,1.32c-.63.06-.64,1.06,0,1Z"/><path d="M224.56,160.58l12.5-4.39c1-.36,2-.7,3.05-1.07.51-.18,1.18-.39,1.26-1,.15-1.15-1.78-1-1.41,0,.22.59,1.19.34,1-.27-.06-.17-15.24,5.27-16.63,5.76-.6.21-.34,1.18.27,1Z"/><path d="M224.47,155q8.24-3.09,16.63-5.69c.61-.19.35-1.15-.27-1q-8.39,2.6-16.62,5.68c-.6.23-.34,1.19.26,1Z"/><path d="M227.56,149.31a26.77,26.77,0,0,1,9.6-5c.81-.25,1.63-.49,2.45-.71a13.5,13.5,0,0,0,2.35-.69c1.14-.55,1.72-2.06.57-2.92-.52-.39-1,.48-.51.86s-.09.92-.37,1.09a3.56,3.56,0,0,1-1,.35l-2.21.58c-1.43.41-2.85.86-4.24,1.41a25.46,25.46,0,0,0-7.39,4.3c-.49.42.22,1.12.71.71Z"/><path d="M225.36,141.35a115.65,115.65,0,0,1,15.31-5,.5.5,0,0,0-.27-1,117.67,117.67,0,0,0-15.31,5c-.59.23-.33,1.2.27,1Z"/><path d="M226.33,135.48q7.38-3.19,14.64-6.68c.58-.28.07-1.14-.51-.86q-7.25,3.48-14.63,6.68c-.59.25-.08,1.11.5.86Z"/><path d="M228.3,126.49a38.11,38.11,0,0,0,12-5.67c.52-.37,0-1.24-.51-.87a37.2,37.2,0,0,1-11.8,5.58.5.5,0,0,0,.27,1Z"/><path d="M228.78,119.05a59.14,59.14,0,0,1,6.47-2.29.5.5,0,0,0-.26-1,61,61,0,0,0-6.72,2.4.5.5,0,0,0-.18.68.51.51,0,0,0,.69.18Z"/><path d="M82.92,130.42c4.7,1.67,9.71,1.62,14.63,1.34,5.49-.31,11-.68,16.48-1l33.28-2.06,18.88-1.17c.64,0,.64-1,0-1l-65.82,4.08c-5.75.35-11.65.83-17.19-1.13-.61-.22-.87.75-.26,1Z"/><path d="M67.72,92.17c-.08-.91.85-1.51,1.33-2.2a15,15,0,0,1,2.07-2.51A8.71,8.71,0,0,1,74,85.59a8.56,8.56,0,0,1,3.51-.83c.44,0,.63-.58.35-.86-2-2-4.52-3.42-6.65-5.29a14.05,14.05,0,0,1-2.9-3.26,16.72,16.72,0,0,0-1.95-3,.51.51,0,0,0-.85.36,1.26,1.26,0,0,0,.61,1.14c.51.39,1-.48.51-.87l-.12-.27-.85.35a25.77,25.77,0,0,1,2.09,3.32,16.53,16.53,0,0,0,2.75,3c2.13,1.87,4.64,3.28,6.65,5.29l.36-.85a4.4,4.4,0,0,0-2,.32c-.7.23-1.41.38-2.09.65a10,10,0,0,0-3,2,24.2,24.2,0,0,0-2.36,2.89c-.62.8-1.43,1.42-1.33,2.53.06.64,1.06.65,1,0Z"/><path d="M77.73,84.82c6.36-.33,12.77-.88,19.14-.92a26.81,26.81,0,0,1,16.34,5.38l.51-.87-1.16-.8c-.53-.37-1,.5-.51.86l1.16.81c.54.37,1-.49.51-.87A27.64,27.64,0,0,0,97.78,82.9c-3.24-.06-6.5.23-9.74.39l-10.31.53c-.64,0-.65,1,0,1Z"/><path d="M101.48,83.45a16.71,16.71,0,0,0,13-7.22L113.5,76a49.5,49.5,0,0,0,1.88,16.15c.15.52,1.06.45,1-.13l-.19-1.5c-.08-.63-1.08-.64-1,0l.19,1.5,1-.13A48.76,48.76,0,0,1,114.5,76c0-.53-.68-.63-.94-.25a15.64,15.64,0,0,1-12.08,6.72c-.64,0-.64,1,0,1Z"/><path d="M64.72,75.32l49.49-1.06a.53.53,0,0,0,.48-.37,10.92,10.92,0,0,1,5.07-7.49.5.5,0,0,0-.51-.87,11.89,11.89,0,0,0-5.52,8.09l.48-.36L64.72,74.32a.5.5,0,0,0,0,1Z"/><path d="M147.89,26.84a17.86,17.86,0,0,0-1.44,5.78,16,16,0,0,0,.06,3.09,3.53,3.53,0,0,0,.94,2.36,7.42,7.42,0,0,0,5,1.56,6.64,6.64,0,0,0,4.63-1.89,5.6,5.6,0,0,0,1.54-5,.53.53,0,0,0-.49-.37c-2.19-.27-4.42-.43-6.6-.82-.59-.1-.73-.39-.83-.94a15,15,0,0,1-.21-1.64,20.36,20.36,0,0,1,0-3.22c0-.64-1-.63-1,0a20.2,20.2,0,0,0,.06,3.81c.1.93.11,2.22,1,2.74a4,4,0,0,0,1.45.32l2,.25,4.11.5-.48-.36a4.67,4.67,0,0,1-1.87,4.55,6.44,6.44,0,0,1-5.55.78,3.58,3.58,0,0,1-2.45-1.52,7.68,7.68,0,0,1-.35-3.17,16.3,16.3,0,0,1,1.34-6.3c.25-.59-.61-1.1-.86-.51Z"/><path d="M149.93,31.69q10.44.18,20.83,1.23a.51.51,0,0,0,.5-.5l.07-2.86a5.66,5.66,0,0,0-.05-2.21.72.72,0,0,0-1.4.11.48.48,0,0,0,.13.48l.09.08c.49.41,1.2-.29.71-.71l-.09-.07.12.48c-.37,0-.53.13-.48.41v.62l0,1.22-.06,2.45.5-.5q-10.38-1.05-20.83-1.23a.5.5,0,0,0,0,1Z"/><path d="M169.43,47.88l-.24-6.5a6.34,6.34,0,0,1-.05-1.44c.07-.36.22-.45.57-.54l.82-.2a29.55,29.55,0,0,1,3.08-.52,27.64,27.64,0,0,1,3-.19c.53,0,1,0,1.57,0a3.29,3.29,0,0,1,1.39.2c.8.44.8,1.7.82,2.49a11.28,11.28,0,0,1-.38,3.11.51.51,0,0,0,.84.48l.76-.72c.47-.45-.24-1.15-.71-.71l-.76.72.84.49a10,10,0,0,0,.15-5.33c-.56-1.74-2.23-1.74-3.79-1.76a31.14,31.14,0,0,0-6,.54,7.74,7.74,0,0,0-2.61.68c-.7.45-.58,1.34-.55,2.06l.26,7.12c0,.64,1,.64,1,0Z"/><path d="M183,39.72l5.09-.67c.32,0,.69-.41.43-.75-1.53-2-4.11-2.76-5.66-4.71a3.14,3.14,0,0,1-.67-3,1.84,1.84,0,0,1,.82-1.07c.3-.16.91-.25,1,.19.1.64,1.06.37,1-.26-.2-1.33-2-1.21-2.76-.58a3.5,3.5,0,0,0-1,3.48c.73,3.27,4.67,4,6.51,6.41l.43-.75-5.09.67c-.63.09-.64,1.09,0,1Z"/><path d="M191.05,31.64a16.8,16.8,0,0,1,6.49,3.2c.84.68,2.28,1.8,1,2.74-.75.53-1.65.76-2.39,1.3a5.94,5.94,0,0,0,.26,9.66c.33.24.9-.16.73-.56l-.42-1c-.25-.59-1.21-.33-1,.26l.43,1,.73-.56a4.92,4.92,0,0,1-1.64-6.25,5.06,5.06,0,0,1,2.31-2.24,5.63,5.63,0,0,0,2.15-1.36c1.3-1.7-.89-3.31-2.1-4.21a17.6,17.6,0,0,0-6.27-2.94.5.5,0,0,0-.27,1Z"/><path d="M219.24,52.45a10.82,10.82,0,0,0,3.51-7.4l-.5.5a68.31,68.31,0,0,1,16.21,1.07l-.29-.74a30,30,0,0,0-3,11.79.5.5,0,0,0,.63.48A48.67,48.67,0,0,1,249,57.82c.64.07.63-.93,0-1a49.46,49.46,0,0,0-13.42.37l.64.48A28.86,28.86,0,0,1,239,46.39a.51.51,0,0,0-.3-.74,69.53,69.53,0,0,0-16.48-1.1.52.52,0,0,0-.5.5,9.77,9.77,0,0,1-3.22,6.69c-.48.43.23,1.14.71.71Z"/><path d="M117.13,39.58a119.64,119.64,0,0,0,20.32,2.21c3.39.07,6.78,0,10.16-.22.46,0,1-.19,1.3.31a4.07,4.07,0,0,1,.17,1.31c.08.86.13,1.72.15,2.59a34,34,0,0,1-.37,5.52c-.1.63.86.9,1,.26a35,35,0,0,0,.42-5.31c0-1.47.14-3.51-.44-4.89-.46-1.09-1.73-.82-2.67-.76q-3,.18-6,.21a118.34,118.34,0,0,1-23.68-2.19c-.63-.13-.9.84-.27,1Z"/><path d="M45.41,36.05a44,44,0,0,0,11.67,1.06.5.5,0,0,0,0-1l-9.71,0a.5.5,0,0,0,0,1l14.26.93c.65,0,.63-.94,0-1q-6.71-.66-13.36-1.65l-.13,1a87.15,87.15,0,0,1,17.58,1.54c.62.11.9-.81.26-1A40.11,40.11,0,0,0,51.46,36c-.63.07-.67,1,0,1,9.19-.13,18.72-.21,27.33,3.49.58.25,1.09-.61.5-.86C70.51,35.88,60.85,35.9,51.46,36v1a39.15,39.15,0,0,1,14.26.9L66,37a89,89,0,0,0-17.84-1.57c-.54,0-.71.89-.13,1q6.78,1,13.62,1.69v-1l-14.26-.93v1l9.71,0v-1a42.4,42.4,0,0,1-11.4-1c-.63-.14-.9.83-.27,1Z"/><path d="M100.55,37.05a8.86,8.86,0,0,1,.63-1.79l.62-1.66L103,30.3l2.53-6.78c.4-1.07.9-2.15,1.21-3.25.14-.5.16-1.17-.4-1.43-1-.46-1.51,1.4-.39,1.37.64,0,.64-1,0-1h-.11l.43.25c-.13-.19-.78,1.34-.83,1.48l-.56,1.49-1.18,3.14-2.29,6.12-1.11,3a5,5,0,0,0-.65,2.41.94.94,0,0,0,1.86,0c.07-.64-.93-.63-1,0Z"/><path d="M134.58,82.71a6.06,6.06,0,0,1-4.9-3.92,4.36,4.36,0,0,1,2.41-5.23l-.39-.91a3.45,3.45,0,0,1-5.16-2.87c-.05-2.67,2.46-3.62,4.6-4.25a.5.5,0,0,0-.26-1,2.43,2.43,0,0,1-2.8-2,3.39,3.39,0,0,1,1.33-3.36,7.23,7.23,0,0,1,3.1-1.53,3.62,3.62,0,0,1,2.45.11,1.55,1.55,0,0,1,.71,2.1l.94.25c.26-2.52,3.78-2.14,5.21-1.06a5.48,5.48,0,0,1,2,5.59.5.5,0,0,0,.61.61,2.72,2.72,0,0,1,3.46,2.23,4.28,4.28,0,0,1-2.31,4.09.5.5,0,0,0,.38.91c1-.34.13,3.34,0,3.7A12.23,12.23,0,0,1,145,79.18c-1,1.94-3.11,3.53-5.42,3l.37.48c0,.47.93.31,0,.66a5.46,5.46,0,0,1-.61.21,6.66,6.66,0,0,1-1.6.24,7.61,7.61,0,0,1-2.87-.46,7.43,7.43,0,0,1-4.41-4.15c-.23-.59-1.2-.34-1,.26a8.65,8.65,0,0,0,9.33,5.24c1.27-.21,3.76-1,3-2.79a1.51,1.51,0,0,0-2.88.79.49.49,0,0,0,.37.48c3.23.68,5.87-1.71,7-4.53.43-1.06,2.78-8.16-.6-7.06l.39.91c1.88-1.14,3.4-3.37,2.68-5.65a3.71,3.71,0,0,0-4.59-2.49l.61.61a6.47,6.47,0,0,0-3.42-7.27c-2.18-1-5.5-.26-5.79,2.48-.06.51.69.65.93.25A2.57,2.57,0,0,0,135,56.76c-2-.65-4.44.33-6,1.56a4.37,4.37,0,0,0-1.75,4.87,3.36,3.36,0,0,0,3.92,2.34l-.26-1c-2.86.85-5.94,2.51-5.26,6a4.48,4.48,0,0,0,6.59,2.92c.49-.26.15-1.12-.39-.91a5.32,5.32,0,0,0-3.24,5.82c.45,2.83,3,4.76,5.73,5.26.63.11.9-.85.27-1Z"/><path d="M136.4,80A3.44,3.44,0,0,1,135.26,75a.5.5,0,1,0-.71-.71,4.45,4.45,0,0,0,1.35,6.62c.57.29,1.08-.58.5-.86Z"/><path d="M136.43,70h-.33c.13,0,0,0,0,0a1.25,1.25,0,0,1-.26-.07h0l-.07,0-.1-.05-.13-.08s-.09-.07,0,0l-.2-.18a1.68,1.68,0,0,1-.18-.21c.08.1,0,0,0-.06a.41.41,0,0,1-.07-.11c0-.08-.08-.17-.13-.25s0,0,0,0l0-.07a.5.5,0,0,1,0-.13,2,2,0,0,1-.07-.26c0-.13,0,.06,0,0a.57.57,0,0,1,0-.13c0-.09,0-.18,0-.27s0,0,0,0,0,0,0-.07l0-.13a.56.56,0,0,0,0-.12c0-.1,0,.07,0,0a.75.75,0,0,1,.07-.12s.11-.16,0-.06l-.35.15,1.11-.13a.52.52,0,0,0,.5-.5c0-.25-.23-.54-.5-.5l-1,.11a1.13,1.13,0,0,0-.32.06.57.57,0,0,0-.27.24,2.26,2.26,0,0,0-.16.26,2.32,2.32,0,0,0-.22,1.27,2.92,2.92,0,0,0,1.4,2.17,2.19,2.19,0,0,0,1.52.27.52.52,0,0,0,.35-.62.52.52,0,0,0-.62-.35Z"/><path d="M243.53,78.48c1.52-1.42,2.42-3.87,1.33-5.81A3.61,3.61,0,0,0,240,71.2l.76.43a4,4,0,0,0-5.91-3.34c-.53.36,0,1.22.5.86a3,3,0,0,1,4.41,2.48.5.5,0,0,0,.75.43,2.6,2.6,0,0,1,3.53,1.22c.76,1.55-.06,3.41-1.22,4.5-.47.44.23,1.14.7.7Z"/><path d="M89.35,131.87a40.89,40.89,0,0,1-2,8.66c-.22.61.75.87,1,.27a41.69,41.69,0,0,0,2.09-8.93c.08-.64-.92-.63-1,0Z"/><path d="M94.6,132.54q-.9,4.47-2.22,8.84a.5.5,0,0,0,1,.27c.88-2.91,1.62-5.87,2.23-8.85.12-.63-.84-.89-1-.26Z"/><path d="M98.2,133.43a49.94,49.94,0,0,0-1,8.87.5.5,0,0,0,1,0,47.17,47.17,0,0,1,1-8.61c.13-.63-.83-.89-1-.26Z"/><path d="M103.94,132.28a45.18,45.18,0,0,1-1.33,9.88c-.16.62.81.89,1,.26a46.27,46.27,0,0,0,1.37-10.14.5.5,0,0,0-1,0Z"/><path d="M111,131.86l-.92,8.76c-.06.64.94.64,1,0l.92-8.76c.07-.64-.93-.64-1,0Z"/><path d="M115.18,131.86v9.19a.5.5,0,0,0,1,0v-9.19a.5.5,0,0,0-1,0Z"/><path d="M121.34,130.86a33,33,0,0,0-.71,9.35c0,.64,1,.65,1,0a32.21,32.21,0,0,1,.67-9.08c.14-.63-.82-.9-1-.27Z"/><path d="M127.21,130.76a56.45,56.45,0,0,1,.69,9.46.5.5,0,0,0,1,0,57.65,57.65,0,0,0-.73-9.73c-.1-.63-1.06-.36-1,.27Z"/><path d="M131.16,131.26a24.7,24.7,0,0,1,2.51,8.53c.07.63,1.07.64,1,0a26,26,0,0,0-2.65-9c-.29-.57-1.15-.07-.86.51Z"/><path d="M135.81,130.37a38.8,38.8,0,0,1,4.43,8.31c.23.6,1.2.34,1-.26a40.46,40.46,0,0,0-4.53-8.55c-.37-.52-1.24,0-.87.5Z"/><path d="M141.22,130.55a34.82,34.82,0,0,1,6.65,9.48c.27.58,1.14.08.86-.5a35.07,35.07,0,0,0-6.81-9.69.5.5,0,0,0-.7.71Z"/><path d="M148.74,130.55l8.18,9.34c.43.48,1.13-.22.71-.71l-8.18-9.34c-.43-.49-1.13.22-.71.71Z"/><path d="M157.49,129.57q2.88,4.05,6.11,7.81c.43.49,1.13-.22.71-.71q-3.15-3.66-5.95-7.61c-.37-.52-1.24,0-.87.51Z"/><path d="M84.1,118.69q2.39,6.19,5.36,12.11c.29.57,1.16.07.87-.51q-2.92-5.79-5.27-11.86c-.22-.6-1.19-.34-1,.26Z"/><path d="M91.84,118.33a24.93,24.93,0,0,1,3.72,11c0,.64,1,.64,1,0a25.87,25.87,0,0,0-3.86-11.52c-.34-.55-1.2,0-.86.5Z"/><path d="M99.49,116.07a61.44,61.44,0,0,1,2.6,12.88c.06.63,1.06.64,1,0a62.71,62.71,0,0,0-2.64-13.15c-.19-.61-1.16-.35-1,.27Z"/><path d="M107.71,117.78l1.87,12.57c.09.63,1.06.36,1-.27l-1.87-12.56c-.09-.64-1.06-.37-1,.26Z"/><path d="M115.14,116.55a76.12,76.12,0,0,1,1.12,12,.5.5,0,0,0,1,0,78.37,78.37,0,0,0-1.15-12.23c-.11-.63-1.07-.37-1,.27Z"/><path d="M123.57,116l-.49,12.53c0,.64,1,.64,1,0l.49-12.53c0-.65-1-.65-1,0Z"/><path d="M130.9,115.13l-1.49,13.81c-.07.64.93.63,1,0l1.49-13.81c.07-.64-.94-.63-1,0Z"/><path d="M140.06,115.08q-1.74,5.7-4,11.2c-.25.59.72.85,1,.27q2.28-5.51,4-11.2c.19-.62-.77-.88-1-.27Z"/><path d="M149.48,114.89a54.7,54.7,0,0,0-5.24,13,.5.5,0,0,0,1,.26,53.71,53.71,0,0,1,5.15-12.79.5.5,0,0,0-.87-.5Z"/><path d="M156.83,115.17a51.69,51.69,0,0,0-7.12,12.89c-.23.61.74.87,1,.27a50.59,50.59,0,0,1,7-12.66c.39-.51-.48-1-.86-.5Z"/><path d="M165.6,113.24a124.39,124.39,0,0,0-9.18,13.24.5.5,0,0,0,.86.51,122,122,0,0,1,9-13c.39-.5-.31-1.22-.71-.71Z"/><path d="M170.24,114.11a82,82,0,0,0-8.34,12.83c-.3.57.57,1.08.87.51A80.44,80.44,0,0,1,171,114.82c.39-.5-.31-1.21-.71-.71Z"/><path d="M31.12,204.43q11.1,6.24,21.8,13.19l.51-.86a76.76,76.76,0,0,1-19.63-15.2l-.61.79a117.17,117.17,0,0,1,21.64,13.36l.61-.79a109.56,109.56,0,0,1-20.77-15.43l-.6.78A157.79,157.79,0,0,1,56.39,214c.52.38,1-.48.51-.87l-11.8-9c-3.5-2.66-7.48-5.19-9.7-9.1l-.68.69a120.46,120.46,0,0,1,22.8,16.36l.71-.71L40.35,196l-.49.84c6.74,1.72,11.81,6.72,16.58,11.51l.7-.71L45,195.73l-.61.78,12.44,8.34c.54.37,1-.49.5-.86a26.65,26.65,0,0,1-8-9.08l-.69.68a27.24,27.24,0,0,1,7.47,5.18l.7-.7a18.64,18.64,0,0,1-5.41-8.17l-.73.57A21.28,21.28,0,0,1,56,197.66l.78-.6a20.25,20.25,0,0,1-4-7.54l-.61.62a6.13,6.13,0,0,1,3.83,3l.79-.6a11.65,11.65,0,0,1-3-5.65l-.61.62A8.88,8.88,0,0,1,56.45,189c.49.35.95-.38.61-.79a7.88,7.88,0,0,1-1.87-4.57l-.5.5a2.81,2.81,0,0,1,2.54,1.7l.79-.61a5.5,5.5,0,0,1-1.76-6.17l-.73.3A3.45,3.45,0,0,1,57,181.2l1-.26a17,17,0,0,1-1-8.33l-.74.3,1.38,1a.5.5,0,0,0,.73-.3,31.81,31.81,0,0,0,1.07-12.5c-.07-.63-1.07-.64-1,0a31,31,0,0,1-1,12.23l.73-.29-1.37-1a.51.51,0,0,0-.74.3,17.94,17.94,0,0,0,1,8.86c.22.6,1.19.34,1-.26A4.61,4.61,0,0,0,56,178.53a.5.5,0,0,0-.73.3,6.46,6.46,0,0,0,2,7.15.5.5,0,0,0,.78-.6,3.79,3.79,0,0,0-3.4-2.2.5.5,0,0,0-.5.5A9.06,9.06,0,0,0,56.35,189l.61-.79a9.9,9.9,0,0,0-3.48-1.62.51.51,0,0,0-.61.62,12.75,12.75,0,0,0,3.23,6.09.51.51,0,0,0,.79-.61,7.18,7.18,0,0,0-4.44-3.48.51.51,0,0,0-.61.62,21.4,21.4,0,0,0,4.22,8c.36.43,1.11-.15.78-.61a22.69,22.69,0,0,0-5.71-5.56.5.5,0,0,0-.73.57,19.49,19.49,0,0,0,5.67,8.6c.48.43,1.17-.25.7-.7a27.55,27.55,0,0,0-7.66-5.34.51.51,0,0,0-.69.68,27.81,27.81,0,0,0,8.37,9.44l.5-.86-12.43-8.34c-.48-.32-1,.39-.61.78l12.19,11.91a.5.5,0,0,0,.7-.71c-4.88-4.91-10.11-10-17-11.77-.46-.11-.88.5-.49.84l17.88,15.44c.48.42,1.19-.27.71-.71a121.63,121.63,0,0,0-23-16.52.51.51,0,0,0-.68.69c2.15,3.79,5.87,6.27,9.27,8.86L56.39,214l.51-.87a157.82,157.82,0,0,0-22.33-13.74c-.49-.24-1,.38-.61.79a111.73,111.73,0,0,0,21,15.59c.48.27,1.07-.43.61-.79A119,119,0,0,0,33.7,201.48a.51.51,0,0,0-.61.79,77.29,77.29,0,0,0,19.83,15.35.5.5,0,0,0,.51-.86q-10.69-6.94-21.81-13.2a.5.5,0,0,0-.5.87Z"/><path d="M70.77,74.54a16.75,16.75,0,0,1,7,5.71A18.15,18.15,0,0,1,79,82.19a5.15,5.15,0,0,1,.46,1c.11.4-.09.77.1,1.16a.73.73,0,0,0,1.31.13c.25-.5-.14-1.17-.72-1s-.36,1.15.26,1h-.15l-.3-.23c.38,0,.54-.17.49-.42l0-.18a2.09,2.09,0,0,0,0-.5,3.54,3.54,0,0,0-.35-.86,16.73,16.73,0,0,0-.8-1.51,17.56,17.56,0,0,0-8-7c-.58-.25-1.09.61-.5.86Z"/><path d="M77.88,74.82a14.27,14.27,0,0,1,4.25,8.3c.09.64,1.05.37,1-.26a15.14,15.14,0,0,0-4.5-8.75c-.47-.44-1.17.26-.71.71Z"/><path d="M81.27,74.72a19.85,19.85,0,0,1,2.59,7.84c.06.64,1.07.64,1,0a21.34,21.34,0,0,0-2.72-8.35.5.5,0,0,0-.87.51Z"/><path d="M85.22,75.14A66.78,66.78,0,0,1,88,84c.15.63,1.12.36,1-.27a68.31,68.31,0,0,0-2.74-8.83c-.23-.59-1.2-.33-1,.27Z"/><path d="M89.59,75.17A16.79,16.79,0,0,1,91.35,83a.5.5,0,0,0,1,0,17.77,17.77,0,0,0-1.9-8.31c-.28-.58-1.15-.07-.86.5Z"/><path d="M94.89,83.82a15.09,15.09,0,0,1,1.49-8.15c.29-.58-.57-1.08-.86-.51a16.11,16.11,0,0,0-1.63,8.66c.06.63,1.06.64,1,0Z"/><path d="M98.48,83.93a22.73,22.73,0,0,1,3.6-8.8c.36-.53-.5-1-.86-.51a23.5,23.5,0,0,0-3.7,9c-.12.63.85.9,1,.27Z"/><path d="M102.29,84a55.63,55.63,0,0,1,4.27-5.84,24.06,24.06,0,0,1,2.31-2.53,3.15,3.15,0,0,1,3-1c.61.2.88-.77.26-1-2.47-.79-4.48,1.75-5.88,3.39a59.3,59.3,0,0,0-4.79,6.46c-.34.55.52,1,.87.51Z"/><path d="M74.93,90.72a10.26,10.26,0,0,0,5.69-5c.3-.57-.57-1.08-.86-.5a9.3,9.3,0,0,1-5.1,4.51.52.52,0,0,0-.35.61.51.51,0,0,0,.62.35Z"/><path d="M80.83,91.34a6.79,6.79,0,0,0,2.76-5.85c0-.64-1-.64-1,0a5.77,5.77,0,0,1-2.26,5,.5.5,0,0,0-.18.68.49.49,0,0,0,.68.18Z"/><path d="M85.08,85.49a15.3,15.3,0,0,1-.33,5.31c-.15.62.81.89,1,.27a15.89,15.89,0,0,0,.37-5.58.52.52,0,0,0-.5-.5c-.25,0-.54.23-.5.5Z"/><path d="M88.52,85.18a18.89,18.89,0,0,1,1.16,4.91.52.52,0,0,0,.5.5.5.5,0,0,0,.5-.5,19.07,19.07,0,0,0-1.2-5.17.5.5,0,1,0-1,.26Z"/><path d="M92.29,84.9l2.35,5.5a.5.5,0,0,0,.68.18.51.51,0,0,0,.18-.69l-2.34-5.5a.51.51,0,0,0-.69-.18.52.52,0,0,0-.18.69Z"/><path d="M96.07,85.3a39,39,0,0,0,4.54,5.24c.46.45,1.17-.26.7-.71a38.24,38.24,0,0,1-4.38-5,.54.54,0,0,0-.69-.18.51.51,0,0,0-.17.69Z"/><path d="M98.7,84.5a17.26,17.26,0,0,0,8.87,4.61c.63.12.9-.84.26-1a16.48,16.48,0,0,1-8.42-4.35c-.47-.45-1.17.26-.71.7Z"/><path d="M105,87.6a24.88,24.88,0,0,0,10.28,3c.65,0,.64-1,0-1a23.82,23.82,0,0,1-9.78-2.81c-.56-.31-1.07.55-.5.86Z"/><path d="M116.57,89.67l-1.93-15.51c-.08-.63-1.08-.64-1,0l1.73,15,1-.13a111.76,111.76,0,0,1-1.75-17.11h-1l1.21,15.9,1-.13a42.16,42.16,0,0,1-.91-9.3.5.5,0,0,0-1,0,43.32,43.32,0,0,0,1,9.56.5.5,0,0,0,1-.13l-1.21-15.9c0-.64-1-.65-1,0a115.05,115.05,0,0,0,1.78,17.37c.1.55,1,.43,1-.13l-1.73-15h-1l1.93,15.51c.08.63,1.08.64,1,0Z"/><path d="M73.62,66.75l8.62-1.43c.55-.09.43-1-.13-1l-8.48,1.12.13,1q5-1.71,10.18-3l-.39-.91a23.93,23.93,0,0,1-4.72,1.69l.26,1q4.22-1.76,8.24-3.86c.57-.3.07-1.17-.5-.87q-3.92,2.06-8,3.77a.5.5,0,0,0,.26,1,25,25,0,0,0,5-1.79c.52-.25.15-1.05-.39-.91-3.42.89-6.82,1.9-10.17,3-.5.17-.46,1.06.13,1l8.48-1.12-.13-1-8.63,1.42c-.63.11-.36,1.07.27,1Z"/><path d="M81,42.09a3,3,0,0,0-3.74-.16,2.69,2.69,0,0,0-.63,3.85,2.81,2.81,0,0,0,3.89.87,3.18,3.18,0,0,0,1.13-3.6,2.78,2.78,0,0,0-.82-1c-.4-.36-.81-.7-1.23-1a22,22,0,0,0-2.78-1.8l-.25.94a7.33,7.33,0,0,1,3.88.72l.25-.93a3.6,3.6,0,0,1-2.22-.65l-.39.92,2.83.65c.63.14.9-.82.27-1l-2.83-.65a.5.5,0,0,0-.38.92,4.53,4.53,0,0,0,2.72.78c.46,0,.72-.7.25-.93a8.2,8.2,0,0,0-4.38-.86.5.5,0,0,0-.25.93A19.94,19.94,0,0,1,80,42.66a2.26,2.26,0,0,1,.6.67,1.76,1.76,0,0,1,.15.63,2.32,2.32,0,0,1-.39,1.36,1.69,1.69,0,0,1-2.51.4,1.84,1.84,0,0,1-.4-2.73,2.09,2.09,0,0,1,2.76-.19c.47.43,1.18-.27.71-.71Z"/><path d="M49.09,36a30.65,30.65,0,0,0,8.57,1.21.51.51,0,0,0,.13-1,21.18,21.18,0,0,0-9.34,0,.5.5,0,0,0,.14,1,83.43,83.43,0,0,1,9.35.38v-1l-9.25.19c-.54,0-.7.86-.13,1a17.5,17.5,0,0,0,8.94-.4.5.5,0,0,0-.13-1,37.81,37.81,0,0,0-9,.29c-.56.09-.43,1,.13,1a64,64,0,0,1,15.68,1.23c.63.13.89-.84.26-1a65.08,65.08,0,0,0-15.94-1.26l.13,1a36.18,36.18,0,0,1,8.76-.26l-.14-1a16.29,16.29,0,0,1-8.4.39l-.14,1,9.25-.19a.5.5,0,0,0,0-1,83.43,83.43,0,0,0-9.35-.38l.13,1a19.85,19.85,0,0,1,8.81.06l.13-1A29.59,29.59,0,0,1,49.35,35a.5.5,0,0,0-.26,1Z"/><path d="M247.69,96A3.86,3.86,0,0,1,251,97.44l.56-.74-6.3-1.33v1l4.57-1.91a.51.51,0,0,0-.13-1l-5.57-.22.13,1a38,38,0,0,1,6.48-.34v-1l-7,.58v1a28.84,28.84,0,0,0,8.57-2.09c.58-.24.33-1.21-.27-1a27.92,27.92,0,0,1-8.3,2c-.64.06-.64,1,0,1l7-.58a.5.5,0,0,0,0-1,40.1,40.1,0,0,0-6.75.37c-.57.08-.4,1,.14,1l5.57.22-.13-1L245,95.37c-.4.17-.54.85,0,1l6.31,1.33c.37.08.85-.35.56-.73a4.9,4.9,0,0,0-4.14-2c-.64,0-.65,1,0,1Z"/><path d="M248.4,59.17A74.17,74.17,0,0,1,248.14,70l.37-.48a1.24,1.24,0,0,1-1.4-1,3.73,3.73,0,0,1,.49-2.26l-.91-.12a4.54,4.54,0,0,1-.27,2.72l.93.25a7,7,0,0,1,.43-3.41c.2-.53-.66-.89-.92-.39l-1.2,2.39.93.25a4,4,0,0,1,.4-2.23l-.78.1.16.4.74-.3c-1.45-.68,0-2.46.58-3.18a5.54,5.54,0,0,0,1.25-2.94,5.33,5.33,0,0,0-.68-3.15c-.22-.39-.49-.87-.95-1a5.58,5.58,0,0,0-1.22.06l-1.22.06v1a12.72,12.72,0,0,1,4,.2l-.12-.91a7.17,7.17,0,0,1-3.88.54v1l4.94.55-.25-.93a2.86,2.86,0,0,1-2.68.14l-.12.91,1.75-.39a.5.5,0,0,0,.12-.91,11.34,11.34,0,0,0-5.36-1.68c-.55,0-.69.89-.13,1a9.62,9.62,0,0,0,5.48-.65c.41-.18.26-.82-.12-.92a5.19,5.19,0,0,0-4.2.66.51.51,0,0,0,.39.92l2.91-.82,1.31-.37c.19-.06,1.33-.25,1.37-.46-.1.63.86.9,1,.27.18-1.14-1.07-1.2-1.87-1-1.65.45-3.3.93-5,1.39l.39.92a4.14,4.14,0,0,1,3.42-.56l-.12-.92a8.44,8.44,0,0,1-4.71.56l-.13,1a10.38,10.38,0,0,1,4.86,1.54l.12-.91-1.76.39a.5.5,0,0,0-.12.91,3.92,3.92,0,0,0,3.69-.14.5.5,0,0,0-.25-.93l-4.94-.55c-.64-.07-.63.92,0,1a8.14,8.14,0,0,0,4.38-.68.5.5,0,0,0-.12-.91,13.46,13.46,0,0,0-4.25-.24c-.62.06-.65,1,0,1l1.22-.06c.32,0,.8-.14,1.07,0a3,3,0,0,1,.68,1.49,4.31,4.31,0,0,1-.75,3.61,5.79,5.79,0,0,0-1.55,2.75,2,2,0,0,0,1.06,2.15.51.51,0,0,0,.74-.3,1.25,1.25,0,0,0-.43-1.37.51.51,0,0,0-.78.1,4.92,4.92,0,0,0-.54,2.74c0,.45.69.74.93.25l1.21-2.38-.92-.39a7.7,7.7,0,0,0-.46,3.68c.05.42.71.77.93.25a5.66,5.66,0,0,0,.37-3.49.5.5,0,0,0-.91-.12c-.5,1.09-1,2.4-.4,3.56a2.15,2.15,0,0,0,2.43,1.21.5.5,0,0,0,.37-.48,74.17,74.17,0,0,0,.26-10.85c0-.64-1-.64-1,0Z"/><path d="M116.6,215.83l0-4.05a.5.5,0,0,0-.5-.5.52.52,0,0,0-.5.5l-.49,4.33h1l-.42-4.16a.51.51,0,0,0-.5-.5.51.51,0,0,0-.5.5l.05,2.86a.5.5,0,0,0,1,0v-3.59a.5.5,0,0,0-1,0v2.45a.5.5,0,0,0,1,.13,5.72,5.72,0,0,0-.45-3.24.5.5,0,1,0-.86.5,4.5,4.5,0,0,1,.34,2.48l1,.13v-2.45h-1v3.59h1l-.05-2.86h-1l.42,4.16a.5.5,0,0,0,1,0l.49-4.33h-1l0,4.05a.5.5,0,0,0,1,0Z"/><path d="M32.8,141.69c.09-1.11-1.75-.86-1.65.18.07.7.84.94,1.43,1a38,38,0,0,0,4.51-.31l19.15-1.37v-1L33,142.21c-.64.06-.65,1,0,1l53.22-2.71a.5.5,0,0,0,0-1l-33.83,0a.5.5,0,0,0,0,1,179.15,179.15,0,0,0,28.37-.32c.64-.06.65-1,0-1l-16,.93a.5.5,0,0,0,0,1l9.51.72c.58,0,1.7.24,1.92-.56.16-.55-.33-.89-.81-.91a.5.5,0,0,0-.43.24l0,.13c-.26.58.6,1.09.86.5l-.53,0,.13-.49c-.36.38-2.08,0-2.55-.06l-2.68-.2-5.37-.41v1l16-.93v-1a179.15,179.15,0,0,1-28.37.32v1l33.83,0v-1L33,142.21v1l23.22-2.06c.63-.05.64-1,0-1L44.05,141l-6,.43c-.52,0-6.31.46-6.29.24-.06.64.94.64,1,0Z"/><path d="M165.54,131.4a38.75,38.75,0,0,1,4-12.9c.3-.57-.57-1.08-.86-.5a40,40,0,0,0-4.1,13.4c-.08.64.92.63,1,0Z"/><path d="M165.44,128.65a23.9,23.9,0,0,1,3.23-9.07l-.86-.51-4.1,8.18.93.25a11.67,11.67,0,0,1,4.19-7.65l-.78-.6c-1.56,3.34-3.26,6.61-5.13,9.8l.92.38a20.43,20.43,0,0,1,5.36-8.4l-.79-.61c-1.67,2.86-3.63,5.68-5.06,8.67a3.2,3.2,0,0,0,.25,2.89l2,4.71.79-.61a10,10,0,0,1-3.37-6.21l-.93.26a80.54,80.54,0,0,0,5.69,10.13l.78-.6a33.45,33.45,0,0,1-5.85-10.37l-.83.48A34.18,34.18,0,0,1,167,139l.92-.38a52.29,52.29,0,0,1-4.83-9.23l-.83.49a18.68,18.68,0,0,1,3.85,7.48l.91-.38-2.36-3.79-1-1.68c-.21-.33-.44-.66-.63-1a2.38,2.38,0,0,1-.23-.45c-.27-.39-.14-.74.39-1.07.36.3,1,0,.83-.48a1.32,1.32,0,0,0-1.47-1,.51.51,0,0,0-.49.63,16.26,16.26,0,0,0,1.11,3c.25.51,1.08.15.92-.39a3.7,3.7,0,0,1-.14-1.62l-1,.13a6.38,6.38,0,0,1,.28,2.81h1l.08-4.22-.93.25a2.35,2.35,0,0,1-.17,2.59l.93.26a18.92,18.92,0,0,1,5.68-13.3L169,117l-2.28,3.17c-.29.4.28,1,.68.68a14.19,14.19,0,0,1,5.54-2.31l-.26-1-5,1.33.38.91a26,26,0,0,1,8.29-2.75c.58-.09.39-.95-.14-1a9.16,9.16,0,0,0-7.06,2.55c-.34.33,0,1,.49.84q6.39-2.55,12.52-5.65l-.51-.87A137.9,137.9,0,0,1,168,119.45l.62.35c-.25-1.13,4.74-1.3,5.45-1.38l5.65-.68-.13-1-11.33,2.6.56.74c1-1.78,4-2.26,5.77-2.89l6.7-2.36-.38-.91a29.83,29.83,0,0,1-9.1,3.2l.26,1a64.81,64.81,0,0,1,14.6-3.46c.63-.07.64-1.07,0-1a65.33,65.33,0,0,0-14.86,3.5.5.5,0,0,0,.26,1,30.09,30.09,0,0,0,9.34-3.3c.49-.27.16-1.1-.38-.91l-8.1,2.84c-1.79.63-3.95,1.1-5,2.86a.51.51,0,0,0,.56.74l11.34-2.61c.53-.12.43-1-.14-1l-8.85,1.06c-1.29.15-3.62.43-3.22,2.27a.52.52,0,0,0,.62.35,143.77,143.77,0,0,0,13.92-6.59c.56-.31.06-1.16-.51-.87-4,2-8.1,3.89-12.27,5.55l.48.84a8.13,8.13,0,0,1,6.35-2.26l-.13-1A26.71,26.71,0,0,0,167.6,119a.5.5,0,0,0,.38.91l5-1.32c.63-.17.36-1.08-.26-1A15,15,0,0,0,166.9,120l.68.68,2.29-3.17c.34-.47-.39-1-.79-.61a20,20,0,0,0-6,14,.5.5,0,0,0,.93.25,3.29,3.29,0,0,0,.17-3.6.5.5,0,0,0-.93.25L163.2,132c0,.66.93.63,1,0a7,7,0,0,0-.32-3.08.5.5,0,0,0-1,.14,4.48,4.48,0,0,0,.17,1.89l.92-.39a13.89,13.89,0,0,1-1-2.79l-.48.63.51.29.83-.48c-1.23-1-2.55.41-2.18,1.75a13.65,13.65,0,0,0,1.87,3.24l2.63,4.2a.5.5,0,0,0,.91-.38,19.75,19.75,0,0,0-4.11-7.93c-.31-.37-1,0-.83.49a53.08,53.08,0,0,0,4.92,9.46c.3.45,1.13.18.92-.38a35.55,35.55,0,0,0-5.38-9.62c-.31-.4-1,0-.83.48a34.44,34.44,0,0,0,6.11,10.81c.36.44,1.09-.13.78-.6A82.5,82.5,0,0,1,163,129.62c-.2-.43-1-.24-.93.25a11,11,0,0,0,3.66,6.92.51.51,0,0,0,.79-.61l-1.56-3.64a5.65,5.65,0,0,1-.73-2.37,4.56,4.56,0,0,1,.94-2.15l4.15-7.09a.51.51,0,0,0-.79-.61,21.59,21.59,0,0,0-5.62,8.85c-.18.54.63.86.92.38q2.79-4.77,5.12-9.8a.5.5,0,0,0-.78-.6,12.55,12.55,0,0,0-4.49,8.35c-.06.49.72.68.93.25l4.1-8.17a.5.5,0,0,0-.86-.51,24.8,24.8,0,0,0-3.34,9.31c-.09.63.88.9,1,.27Z"/><path d="M343.05,262.6c3.16-4.69,4.73-10.15,6-15.6,1.42-6.31,2.73-12.64,4.1-19a.5.5,0,0,0-1-.26c-1.89,5.3-3.3,10.75-4.7,16.2l1,.14a129.45,129.45,0,0,1,3.91-21.57l-1-.26a80.61,80.61,0,0,1-3.91,14.23l1,.14a107.47,107.47,0,0,1,2.65-13.32l-1-.27q-1.5,7.67-3.23,15.28l1,.27,3-15c.12-.62-.83-.89-1-.26l-6.6,30.33a.5.5,0,0,0,1,.26l4.27-17.48-1-.27a109.54,109.54,0,0,1-4.78,18.63c-.22.61.75.87,1,.27a117.7,117.7,0,0,0,3.8-13l-1-.27a140.28,140.28,0,0,1-4.54,17.6l1,.27a39.63,39.63,0,0,1,3.34-10l-.86-.51a56.76,56.76,0,0,0-3.8,12.35c-.12.62.8.9,1,.27l2.46-9.39-1-.13A128.93,128.93,0,0,1,342,265.63l1,.26,2-11.37c.11-.63-.83-.91-1-.27l-2.46,12c-.13.62.82.89,1,.26l2.49-10.94-1-.14-.76,11.32h1a103.44,103.44,0,0,1,.93-14.5l-1-.13A87,87,0,0,1,343,264.58l1,.13q.68-8.62,1.95-17.2c.09-.63-.86-.9-1-.27L343.44,256c-.1.62.82.9,1,.27a72.27,72.27,0,0,0,1.52-8.76c.06-.61-.8-.62-1-.14a18.38,18.38,0,0,0-1.22,7,.5.5,0,0,0,1,.13,17.34,17.34,0,0,0,1.34-6.44l-1,.14a12.41,12.41,0,0,1-.14,5.81l1,.13a35.49,35.49,0,0,1,.7-5.71l-1-.26-1.1,6.93,1,.13.67-6.08h-1a62.43,62.43,0,0,1-.9,6.94c-.12.63.81.9,1,.27a23.84,23.84,0,0,0,.62-6.24.5.5,0,0,0-1-.13,70.06,70.06,0,0,0-3.48,15.8l1-.14a7.58,7.58,0,0,1,0-4.45l-1-.26-1.29,5.63a.5.5,0,0,0,1,.27A316.72,316.72,0,0,0,349.81,234l-1-.13a66.33,66.33,0,0,1-2.16,13l1,.13a211.92,211.92,0,0,1,3.54-22.67c.14-.62-.83-.89-1-.26A213.86,213.86,0,0,0,346.66,247c-.06.57.83.67,1,.13a68.86,68.86,0,0,0,2.19-13.22.5.5,0,0,0-1-.14,318.63,318.63,0,0,1-8.69,32.91l1,.27,1.28-5.64a.5.5,0,0,0-1-.26,8.45,8.45,0,0,0,0,5,.5.5,0,0,0,1-.13,70.11,70.11,0,0,1,3.44-15.54l-1-.13a23.5,23.5,0,0,1-.58,6l1,.27a64.93,64.93,0,0,0,.94-7.21c.05-.65-.93-.63-1,0l-.67,6.08c-.06.56.89.69,1,.14l1.11-6.94c.1-.62-.83-.9-1-.26a36.34,36.34,0,0,0-.73,6,.5.5,0,0,0,1,.13A13.59,13.59,0,0,0,346,248c-.12-.56-1-.42-1,.13a16.8,16.8,0,0,1-1.3,6.18l1,.13a17.53,17.53,0,0,1,1.18-6.76l-1-.13a69.81,69.81,0,0,1-1.49,8.49l1,.27,1.48-8.79-1-.27q-1.31,8.7-2,17.47c0,.56.89.69,1,.14a89.3,89.3,0,0,0,1.2-12.74c0-.55-.9-.7-1-.13a105.55,105.55,0,0,0-1,14.76.5.5,0,0,0,1,0l.76-11.32a.5.5,0,0,0-1-.13l-2.49,11,1,.26,2.46-12-1-.27-2,11.38c-.11.62.82.9,1,.26a128.22,128.22,0,0,0,2.25-13.63c.06-.57-.84-.67-1-.14l-2.46,9.39,1,.27a56.14,56.14,0,0,1,3.7-12.11c.25-.58-.58-1.09-.86-.51a40.8,40.8,0,0,0-3.45,10.24.5.5,0,0,0,1,.27,140.69,140.69,0,0,0,4.53-17.6c.12-.63-.82-.9-1-.27a119.26,119.26,0,0,1-3.8,13l1,.27a108.85,108.85,0,0,0,4.78-18.63c.11-.62-.81-.9-1-.27l-4.28,17.49,1,.26,6.6-30.33-1-.26-3,15c-.12.63.82.9,1,.27q1.74-7.62,3.23-15.28c.12-.63-.8-.9-1-.27a108.13,108.13,0,0,0-2.69,13.59c-.08.59.8.62,1,.13a80.68,80.68,0,0,0,3.9-14.24c.11-.62-.79-.9-1-.26a131.34,131.34,0,0,0-3.95,21.83c-.06.56.84.67,1,.13,1.4-5.45,2.81-10.9,4.7-16.21l-1-.26c-1.33,6.18-2.62,12.36-4,18.53-1.24,5.52-2.76,11-6,15.78-.36.54.51,1,.86.51Z"/><path d="M423.09,181.57a15,15,0,0,1-.93,5.27.49.49,0,0,0,.35.61.5.5,0,0,0,.61-.35,15.75,15.75,0,0,0,1-5.53.5.5,0,0,0-1,0Z"/><path d="M425.73,181.05l-1.25,6.68c-.12.63.85.9,1,.27l1.25-6.69c.11-.62-.85-.89-1-.26Z"/><path d="M428.63,179.79l-1.41,9.58c-.1.63.87.9,1,.27l1.42-9.59c.09-.63-.87-.9-1-.26Z"/><path d="M431,179.07q-.19,6.27-.93,12.52c-.08.64.92.63,1,0q.74-6.24.93-12.52a.5.5,0,0,0-1,0Z"/><path d="M433.51,179.07A84.24,84.24,0,0,1,431.46,194c-.14.62.82.89,1,.26a86.12,86.12,0,0,0,2.08-15.17c0-.65-1-.65-1,0Z"/><path d="M435.48,176.56q-.08,9.84-1,19.65c-.06.64.94.63,1,0q.93-9.79,1-19.65a.5.5,0,0,0-1,0Z"/><path d="M438.69,174.49,436,196.61c-.08.63.92.63,1,0l2.71-22.12c.08-.64-.92-.63-1,0Z"/><path d="M441.56,173.1l-3.9,25c-.09.63.87.9,1,.27l3.9-25c.1-.63-.87-.9-1-.27Z"/><path d="M443.88,173.65a125.44,125.44,0,0,1-4.16,28.24.5.5,0,0,0,1,.27,126.7,126.7,0,0,0,4.2-28.51.5.5,0,0,0-1,0Z"/><path d="M444.74,187l-1.64,17.55c-.06.64.94.63,1,0L445.74,187c.06-.64-.94-.64-1,0Z"/><path d="M393.52,212.23l55.13-4.4c.64-.05.64-1.05,0-1l-55.13,4.4c-.63.05-.64,1.05,0,1Z"/><path d="M397.67,208.66a440.72,440.72,0,0,0,46.44-4.81c.63-.1.36-1.07-.27-1a438.25,438.25,0,0,1-46.17,4.78c-.64,0-.64,1,0,1Z"/><path d="M400.18,206.09a375.85,375.85,0,0,0,43.11-4.63c.63-.11.36-1.07-.27-1a373.14,373.14,0,0,1-42.84,4.6c-.64,0-.65,1,0,1Z"/><path d="M402.43,204.45l38.35-5.55c.64-.09.37-1.05-.26-1l-38.36,5.54c-.63.1-.36,1.06.27,1Z"/><path d="M405,201.24q15.76-2.18,31.54-4.29c.63-.08.64-1.08,0-1q-15.92,2.13-31.81,4.33c-.63.09-.36,1.05.27,1Z"/><path d="M408.12,197.68l26.3-2.22c.64-.06.65-1.06,0-1l-26.3,2.22c-.64,0-.64,1.06,0,1Z"/><path d="M411.44,195.34l21.74-1.45c.64,0,.64-1,0-1l-21.74,1.45c-.64,0-.64,1,0,1Z"/><path d="M415.21,192.92l14.2-.79c.64,0,.65-1,0-1l-14.2.79c-.64,0-.65,1,0,1Z"/><path d="M417,190.89a47.24,47.24,0,0,1,9.05-.46c.64,0,.64-1,0-1a48.44,48.44,0,0,0-9.32.49c-.63.1-.36,1.06.27,1Z"/><path d="M418.67,187.46a8.84,8.84,0,0,1,3.92-.37.53.53,0,0,0,.62-.35.51.51,0,0,0-.35-.62,10.15,10.15,0,0,0-4.45.37.5.5,0,0,0,.26,1Z"/><path d="M391.79,213.92q27.75-2.37,55.56-4.24c.64-.05.64-1.05,0-1q-27.8,1.88-55.56,4.24c-.64.05-.65,1.05,0,1Z"/><path d="M418.13,216.27l16-1.55L442,214l3.94-.38,2-.19,1-.1.49,0a.6.6,0,0,0,.62-.37l.48.12-.12-.09c-.49-.41-1.2.29-.7.7l.12.1a.48.48,0,0,0,.48.13c.47-.18.85-.63.58-1.15-.46-.85-2-.39-2.69-.32l-10.08,1-19.93,1.93c-.63.06-.64,1.06,0,1Z"/><path d="M394.42,210.4q1.74-15.21,2.6-30.49c0-.65-1-.64-1,0q-.86,15.27-2.6,30.49c-.07.64.93.63,1,0Z"/><path d="M396.71,209.55q1.29-16.5,2.85-33c.06-.64-.94-.63-1,0q-1.56,16.49-2.85,33c0,.64,1,.63,1,0Z"/><path d="M399.19,206.62q.94-15,2.95-29.9c.09-.62-.87-.9-1-.26q-2,15-3,30.16c0,.65,1,.64,1,0Z"/><path d="M401.46,204.12,405,177c.08-.64-.92-.63-1,0l-3.5,27.13c-.08.64.92.64,1,0Z"/><path d="M404.39,200a178.75,178.75,0,0,1,2.78-23.63c.12-.63-.84-.9-1-.26A179.16,179.16,0,0,0,403.39,200c0,.64,1,.64,1,0Z"/><path d="M406,198.82l3.94-22.53c.11-.63-.86-.9-1-.27L405,198.55c-.11.63.85.9,1,.27Z"/><path d="M408.59,197.44l2.79-20.9c.09-.64-.92-.63-1,0l-2.79,20.9c-.09.64.92.63,1,0Z"/><path d="M411,194.64a101.61,101.61,0,0,0,3.19-18.49c.05-.64-.95-.63-1,0a100.38,100.38,0,0,1-3.15,18.22.5.5,0,0,0,1,.27Z"/><path d="M413.65,192l1.7-13c.09-.63-.91-.63-1,0l-1.7,13c-.09.64.91.63,1,0Z"/><path d="M415.58,191.71a39.71,39.71,0,0,0,1-8.88.5.5,0,0,0-1,0,39,39,0,0,1-1,8.61c-.14.63.82.89,1,.27Z"/><path d="M417,189.23l1.25-7.1c.11-.63-.86-.9-1-.27L416,189c-.11.63.86.9,1,.26Z"/><path d="M419.31,186.73a1.75,1.75,0,0,0-.08-1.29,2.75,2.75,0,0,0-.15-.36L419,185c0-.1,0,.06,0,0s-.07-.19-.09-.28a.83.83,0,0,1,0-.15c0-.11,0,.07,0,0v-.13c0-.11,0,.06,0,0s.05-.12,0,0,.07-.12,0,0,0,0,0,0-.12.07,0,0,.06,0,0,0l.08,0c.11,0,0,0,0,0H419c.11,0-.1,0,0,0s.05,0,.07,0-.09-.06,0,0-.09-.08,0,0-.06-.1,0,0c0-.09,0-.1,0-.06s0,0,0-.06a.51.51,0,0,0,.5.5c.24,0,.53-.22.5-.5a.89.89,0,0,0-.38-.66,1,1,0,0,0-.54-.17,1.15,1.15,0,0,0-1,.56,1.89,1.89,0,0,0,.1,1.64c0,.1.09.2.13.29,0-.09,0,.08,0,.1a.64.64,0,0,1,.06.18c0,.05,0,.11,0,.17h0v.18h0s0,.11,0,.16a.5.5,0,0,0,.35.62.51.51,0,0,0,.61-.35Z"/><path d="M418.42,179.55a23.24,23.24,0,0,0,6.81.41c.64-.06.64-1.06,0-1a22.87,22.87,0,0,1-6.55-.37c-.63-.13-.9.83-.26,1Z"/><path d="M418.13,181.72a10.91,10.91,0,0,1,4.38,1,.51.51,0,0,0,.69-.18.51.51,0,0,0-.18-.68,12,12,0,0,0-4.89-1.18c-.64,0-.64,1,0,1Z"/><path d="M417.36,178.79l-1.12-2.08-.56.74,2.27.35a.58.58,0,0,0,.39-.05.53.53,0,0,0,.23-.3.52.52,0,0,0-.35-.62l-2.28-.35a.52.52,0,0,0-.52.18.5.5,0,0,0,0,.56l1.11,2.07a.5.5,0,0,0,.87-.5Z"/><path d="M415.55,179.62l1.23,3.19.91-.39a32.65,32.65,0,0,0-2.93-3.6.5.5,0,0,0-.79.6,19,19,0,0,0,3,4.59.49.49,0,0,0,.7,0,.5.5,0,0,0,0-.71,18.48,18.48,0,0,1-2.81-4.38l-.79.6a31.34,31.34,0,0,1,2.78,3.41.5.5,0,0,0,.91-.39l-1.22-3.19a.53.53,0,0,0-.62-.35.51.51,0,0,0-.35.62Z"/><path d="M328,243.3a97.11,97.11,0,0,1,8.29,10.76c.36.53,1.22,0,.87-.51a99.56,99.56,0,0,0-8.45-11c-.43-.48-1.13.23-.71.71Z"/><path d="M326.07,239.48a35.78,35.78,0,0,1,9.06,7.56c.42.49,1.12-.22.71-.71a36.88,36.88,0,0,0-9.26-7.71.5.5,0,0,0-.51.86Z"/><path d="M326.54,236.27a17.17,17.17,0,0,1,8,6.12c.37.52,1.24,0,.87-.5a18.38,18.38,0,0,0-8.63-6.58c-.61-.23-.87.74-.27,1Z"/><path d="M327.44,232.36a16.37,16.37,0,0,1,8.39,7.53c.3.56,1.17.06.86-.51a17.39,17.39,0,0,0-9-8c-.6-.24-.86.73-.27,1Z"/><path d="M330.72,230a10.67,10.67,0,0,1,6.71,6,.53.53,0,0,0,.62.35.52.52,0,0,0,.35-.62A11.75,11.75,0,0,0,331,229a.5.5,0,0,0-.26,1Z"/><path d="M331.25,227.08a8.1,8.1,0,0,1,6.66,4.88.5.5,0,0,0,.68.18.52.52,0,0,0,.18-.69,9,9,0,0,0-7.52-5.37c-.65-.05-.64.95,0,1Z"/><path d="M331.24,223.38a9.94,9.94,0,0,1,7.2,3.9c.38.51,1.25,0,.86-.51a11.08,11.08,0,0,0-8.06-4.39c-.64,0-.64,1,0,1Z"/><path d="M331.67,217.91a10,10,0,0,1,7.52,5.26c.3.57,1.16.06.87-.51a11,11,0,0,0-8.39-5.75c-.64-.08-.63.92,0,1Z"/><path d="M332.63,213.84a6.39,6.39,0,0,1,7.28,4.64c.15.62,1.11.36,1-.27a7.4,7.4,0,0,0-8.5-5.34c-.63.13-.37,1.1.26,1Z"/><path d="M335.83,208.8a7.54,7.54,0,0,1,7.16,3.9c.31.57,1.17.06.87-.5a8.55,8.55,0,0,0-8-4.4c-.63,0-.64,1,0,1Z"/><path d="M337.8,204.58a9.82,9.82,0,0,1,5.55,4.39.5.5,0,0,0,.87-.5,10.8,10.8,0,0,0-6.16-4.85c-.61-.19-.88.78-.26,1Z"/><path d="M336.35,199.83a7.09,7.09,0,0,1,7.63,4.08.5.5,0,0,0,.61.34.49.49,0,0,0,.35-.61,8.13,8.13,0,0,0-8.86-4.78c-.63.12-.36,1.09.27,1Z"/><path d="M336.66,194.82a9.57,9.57,0,0,1,8.68,4.6.5.5,0,0,0,.86-.5,10.56,10.56,0,0,0-9.54-5.1c-.64,0-.65,1,0,1Z"/><path d="M336.83,191.76a9.85,9.85,0,0,1,9.52,3.11c.42.49,1.12-.22.7-.7a10.79,10.79,0,0,0-10.49-3.37c-.63.14-.36,1.11.27,1Z"/><path d="M336.74,188.16a9,9,0,0,1,10.74,3.3c.34.54,1.21,0,.86-.51a10,10,0,0,0-11.87-3.75c-.59.24-.33,1.21.27,1Z"/><path d="M339.46,182.88a18.5,18.5,0,0,1,8.25,3.28c.53.38,1-.49.51-.86a19.18,19.18,0,0,0-8.49-3.38.52.52,0,0,0-.62.35.5.5,0,0,0,.35.61Z"/><path d="M338.33,259.42c1.13-2.79,5-2.94,7.55-2.92a.5.5,0,0,0,0-1c-3.09,0-7.17.35-8.51,3.65-.24.6.72.86,1,.27Z"/><path d="M337.87,256.59a6.41,6.41,0,0,1,8.3-3.58c.6.25.85-.72.27-1a7.42,7.42,0,0,0-9.53,4.28c-.22.61.75.87,1,.27Z"/><path d="M337.15,249.82a9,9,0,0,1,8.41-.87c.59.25,1.1-.61.51-.86a10,10,0,0,0-9.43.87c-.53.36,0,1.22.51.86Z"/><path d="M337.74,246.37a5.85,5.85,0,0,1,8.34-2.61c.54.35,1-.52.5-.87a6.85,6.85,0,0,0-9.8,3.21c-.23.6.73.86,1,.27Z"/><path d="M337.88,240.69a7.48,7.48,0,0,1,9.41-2.31c.57.3,1.07-.56.5-.86A8.5,8.5,0,0,0,337,240.18c-.37.54.5,1,.86.51Z"/><path d="M339.61,235.49a7.73,7.73,0,0,1,9.91,0c.48.43,1.19-.27.71-.7a8.75,8.75,0,0,0-11.33-.05c-.49.42.22,1.13.71.71Z"/><path d="M341.55,229.28a9.79,9.79,0,0,1,9.59,1c.53.38,1-.49.51-.86a10.79,10.79,0,0,0-10.61-1c-.58.26-.07,1.12.51.86Z"/><path d="M340.52,226.07a7.85,7.85,0,0,1,9.21.07c.51.39,1.22-.31.71-.7a8.83,8.83,0,0,0-10.42-.23c-.52.37,0,1.24.5.86Z"/><path d="M341.31,220.28a5.66,5.66,0,0,1,8.82-.1c.38.52,1.24,0,.87-.5a6.66,6.66,0,0,0-10.55.1c-.37.53.5,1,.86.5Z"/><path d="M342.48,215a7.55,7.55,0,0,1,8.24-.54.5.5,0,0,0,.5-.86,8.59,8.59,0,0,0-9.45.69c-.51.4.21,1.1.71.71Z"/><path d="M344.52,210.12a6.78,6.78,0,0,1,7.79.5c.49.41,1.2-.3.7-.71a7.77,7.77,0,0,0-9-.65c-.54.34,0,1.21.5.86Z"/><path d="M345.85,206.64a5.9,5.9,0,0,1,7.45.05c.48.42,1.19-.29.7-.71a6.91,6.91,0,0,0-8.85,0c-.5.42.21,1.12.7.71Z"/><path d="M347,200.82a4.56,4.56,0,0,1,6.42,1.47c.31.56,1.17.06.86-.51a5.58,5.58,0,0,0-7.79-1.83c-.52.37,0,1.24.51.87Z"/><path d="M348.67,197.13a4.32,4.32,0,0,1,5.95,1.82c.28.58,1.14.08.87-.5a5.33,5.33,0,0,0-7.32-2.18c-.55.33-.05,1.2.5.86Z"/><path d="M349.76,193.77a4.27,4.27,0,0,1,4.42,1.85c.34.55,1.21,0,.86-.5a5.28,5.28,0,0,0-5.55-2.31c-.63.14-.36,1.1.27,1Z"/><path d="M350.45,190.39a6,6,0,0,1,5,2.31.51.51,0,0,0,.69.18.49.49,0,0,0,.17-.68,7,7,0,0,0-5.84-2.81c-.64,0-.64,1,0,1Z"/><path d="M350.88,185.68a5,5,0,0,1,4.41,4.26.51.51,0,0,0,.5.5.5.5,0,0,0,.5-.5,6,6,0,0,0-5.41-5.26.5.5,0,0,0-.5.5.51.51,0,0,0,.5.5Z"/><path d="M353.8,184.16a.5.5,0,0,0,0-1,.5.5,0,0,0,0,1Z"/><path d="M351.5,224.35l3.85,3.12c.41.33,1.11-.09.79-.61l-3.21-5.19-.79.6,5.86,4.95c.48.41,1.16-.24.7-.71a28.59,28.59,0,0,1-5.38-7.89l-.86.51c2.26,3.07,4.61,6.15,8,8.09.47.27,1-.41.6-.79a23.73,23.73,0,0,1-6.83-9.67l-.91.39a59.29,59.29,0,0,0,7.6,9,.5.5,0,0,0,.71-.71,31.35,31.35,0,0,1-7-11.32l-.92.38,6.62,8.78c.38.5,1.24,0,.86-.51a36.91,36.91,0,0,1-5.5-10.92l-.91.39a79.18,79.18,0,0,1,6.23,9.46l.86-.5A71.59,71.59,0,0,1,355.76,208l-.92.38,7,9.7c.37.51,1.2.06.86-.5a65.55,65.55,0,0,1-5.8-12.59l-.84.49a87.43,87.43,0,0,1,5.91,7.91l.86-.5a33.35,33.35,0,0,1-5.35-12.16l-.91.39a56.29,56.29,0,0,0,5.11,8.41c.37.51,1.19.07.86-.5a37.56,37.56,0,0,1-4.47-11.7l-.84.49a30.86,30.86,0,0,1,4.91,8l.86-.51-5-11.58-.79.61a21.21,21.21,0,0,1,5,6.56c.25.5,1.11.15.91-.38l-3.53-9.66-.84.48a12.74,12.74,0,0,1,4.24,6.43l.91-.38a33.61,33.61,0,0,1-3.36-9.09l-.83.48a9.48,9.48,0,0,1,2.6,4l.92-.38a19.64,19.64,0,0,1-2.65-5.68l-.83.48.82.67c.49.41,1.2-.29.7-.7l-.82-.67a.5.5,0,0,0-.83.48,20.46,20.46,0,0,0,2.74,5.92c.3.44,1.11.18.92-.39a10.56,10.56,0,0,0-2.87-4.39.5.5,0,0,0-.83.48,34.16,34.16,0,0,0,3.46,9.33.5.5,0,0,0,.91-.38,13.61,13.61,0,0,0-4.49-6.87c-.34-.29-1,0-.83.48l3.53,9.66.91-.38a21.83,21.83,0,0,0-5.14-6.77.51.51,0,0,0-.79.61l5,11.58c.25.59,1.11.08.86-.51a31.89,31.89,0,0,0-5.06-8.17c-.35-.41-.93,0-.84.49a38.48,38.48,0,0,0,4.58,11.93l.86-.5a56.39,56.39,0,0,1-5.11-8.42c-.26-.53-1-.14-.91.39A33.85,33.85,0,0,0,362,213.36c.37.52,1.22,0,.86-.5a90.6,90.6,0,0,0-6.06-8.12c-.32-.38-1,0-.84.49a66.47,66.47,0,0,0,5.91,12.82l.86-.5-7-9.7c-.31-.43-1.11-.19-.92.38a73.23,73.23,0,0,0,6.2,13.46.5.5,0,0,0,.86-.5,80.11,80.11,0,0,0-6.23-9.47c-.31-.41-1.09-.2-.91.39a37.87,37.87,0,0,0,5.6,11.16l.86-.51L354.56,214c-.31-.41-1.12-.2-.92.38a32.61,32.61,0,0,0,7.25,11.77l.71-.71a57.94,57.94,0,0,1-7.45-8.79c-.3-.43-1.13-.18-.91.39a24.86,24.86,0,0,0,7.08,10.11l.61-.79c-3.21-1.85-5.44-4.8-7.61-7.73a.5.5,0,0,0-.86.51,29.31,29.31,0,0,0,5.54,8.09l.7-.71-5.85-4.95c-.41-.34-1.1.1-.79.61l3.21,5.2.79-.61-3.85-3.12c-.5-.4-1.21.31-.71.71Z"/><path d="M237.44,238.33a76.23,76.23,0,0,1,15.11-9.08c.59-.27.08-1.13-.5-.86a76.23,76.23,0,0,0-15.11,9.08c-.5.38,0,1.25.5.86Z"/><path d="M237.83,233.68a62,62,0,0,1,16.27-8.14c.61-.2.35-1.16-.27-1a63.12,63.12,0,0,0-16.51,8.23c-.52.37,0,1.24.51.87Z"/><path d="M238.7,227.88a34.74,34.74,0,0,1,13.2-4.64c.62-.08.63-1.09,0-1A35.82,35.82,0,0,0,238.2,227a.5.5,0,0,0,.5.86Z"/><path d="M236.52,222.93A65.73,65.73,0,0,1,254,218.42c.64-.07.64-1.08,0-1a66.55,66.55,0,0,0-17.7,4.55c-.59.24-.33,1.21.27,1Z"/><path d="M239.49,216.83a63,63,0,0,1,13.63-1.37.5.5,0,0,0,0-1,64.92,64.92,0,0,0-13.9,1.4c-.63.14-.36,1.1.27,1Z"/><path d="M238.18,212.33a71.81,71.81,0,0,1,17.88-.33c.64.06.63-.94,0-1a72.54,72.54,0,0,0-18.15.37c-.63.09-.36,1,.27,1Z"/><path d="M238.49,207.29a37.74,37.74,0,0,1,14.86,2.49c.6.23.86-.74.26-1a38.65,38.65,0,0,0-15.12-2.52c-.64,0-.65,1,0,1Z"/><path d="M239.62,199.56a50,50,0,0,1,15.83,5.27c.57.3,1.08-.56.51-.87a51,51,0,0,0-16.07-5.37c-.63-.09-.9.87-.27,1Z"/><path d="M239.23,193.65a138,138,0,0,1,15.85,5.1c.6.23.86-.74.27-1a142.14,142.14,0,0,0-15.86-5.1.5.5,0,0,0-.26,1Z"/><path d="M237.64,187.56a123.46,123.46,0,0,1,15.61,6.22c.58.27,1.08-.59.5-.87a125.13,125.13,0,0,0-15.85-6.31c-.61-.2-.87.77-.26,1Z"/><path d="M240.74,180.78l13.86,8.64c.55.34,1.05-.53.51-.87l-13.87-8.64c-.55-.34-1.05.53-.5.87Z"/><path d="M240.77,174.86a138.37,138.37,0,0,1,13.36,8c.54.36,1-.51.51-.86a138.37,138.37,0,0,0-13.36-8c-.57-.3-1.08.56-.51.86Z"/><path d="M239.84,166.44a125.23,125.23,0,0,0,13,11c.52.38,1-.49.5-.86a125,125,0,0,1-12.79-10.86c-.46-.45-1.17.26-.71.71Z"/><path d="M244.83,162.29,256,173.67c.45.46,1.15-.25.7-.71l-11.18-11.37c-.45-.46-1.15.24-.7.7Z"/><path d="M242.63,151.11a94.58,94.58,0,0,0,13.54,12.77c.5.39,1.21-.31.71-.7a95.21,95.21,0,0,1-13.54-12.78c-.43-.48-1.13.23-.71.71Z"/><path d="M241.52,143a101.07,101.07,0,0,1,14.11,13.87c.41.49,1.12-.22.71-.71a101.16,101.16,0,0,0-14.12-13.87c-.49-.4-1.21.31-.7.71Z"/><path d="M242.91,138.87a99.76,99.76,0,0,1,12.67,9.76c.47.43,1.18-.28.71-.71A101.35,101.35,0,0,0,243.41,138c-.54-.35-1,.51-.5.86Z"/><path d="M245.27,134.69l11.34,9.12c.5.39,1.21-.31.71-.71L246,134c-.5-.4-1.21.31-.71.71Z"/><path d="M247.44,131.87a22.08,22.08,0,0,1,6.16,4.52c.45.47,1.15-.24.71-.71a22.73,22.73,0,0,0-6.37-4.67c-.57-.28-1.08.58-.5.86Z"/><path d="M246.3,126.5A30.33,30.33,0,0,1,256.53,133c.47.45,1.17-.26.71-.71a31.7,31.7,0,0,0-10.67-6.8c-.6-.23-.86.74-.27,1Z"/><path d="M252,125.63l2.92,1.67a.5.5,0,1,0,.51-.86l-2.93-1.67a.5.5,0,1,0-.5.86Z"/><path d="M254.79,123.59a.5.5,0,0,0,0-1,.5.5,0,0,0,0,1Z"/><path d="M237.58,240.88q.9-44.37,3.36-88.69.69-12.45,1.51-24.89c0-.64-1-.64-1,0q-2.89,44.28-4.24,88.66-.37,12.45-.63,24.92c0,.64,1,.64,1,0Z"/><path d="M241.72,125.13l-9.65-13.4-.68.68c6.17,3.43,9.33,10.15,12.15,16.31l.86-.51a71.64,71.64,0,0,0-9.89-13.82c-.43-.48-1.12.22-.7.71a50.8,50.8,0,0,1,7.62,12.1l.87-.5a56.39,56.39,0,0,0-12.51-14.33c-.49-.39-1.19.28-.71.71a24.5,24.5,0,0,1,5.22,6.51c.31.56,1.17,0,.86-.51a25.45,25.45,0,0,0-5.37-6.71l-.71.71a55.38,55.38,0,0,1,12.35,14.12.5.5,0,0,0,.87-.5,51.67,51.67,0,0,0-7.79-12.31l-.7.71a71.09,71.09,0,0,1,9.73,13.62c.31.57,1.12.07.86-.51-2.89-6.32-6.17-13.14-12.51-16.66-.4-.23-1,.25-.68.68l9.65,13.41c.37.52,1.24,0,.86-.51Z"/><path d="M245,130.21c.1-1.12,1-1.9,1.74-2.67s1.4-1.53,2.06-2.34a45.37,45.37,0,0,0,3.59-5c2-3.21,3.7-8.69,8.23-8.81l-.25-.94a10.14,10.14,0,0,1-5.91.64.51.51,0,0,0-.49.84,8.5,8.5,0,0,1,1.86,5.41l1-.13a8.8,8.8,0,0,1,.14-6.31l-1-.13a15.67,15.67,0,0,1-2.9,9l.92.12a4.69,4.69,0,0,1,2.2-4.62l-.74-.56a30.52,30.52,0,0,1-3.69,6.63l.91.39a19.2,19.2,0,0,1,3.54-7.24l-.83-.49a43.82,43.82,0,0,1-2.51,6.44l.91.38a27.14,27.14,0,0,1,3.77-7.09l-.86-.51a9.47,9.47,0,0,0-1.2,4.74h1a7.33,7.33,0,0,1,1.41-4.59l-.92-.12a8,8,0,0,1-.32,6.08l.91.12a9.79,9.79,0,0,1,.68-6.63l-.91-.12a14.33,14.33,0,0,1-.42,8.52l1,.13a32.12,32.12,0,0,1,.63-6l-1-.13a32.11,32.11,0,0,1-1.21,6.6l1,.14a26.23,26.23,0,0,1,2.8-9.27l-.91-.12a2.58,2.58,0,0,1-.66,2.77l.84.49a11,11,0,0,1,2.1-5c.38-.52-.48-1-.86-.51a11.86,11.86,0,0,0-2.21,5.2.51.51,0,0,0,.84.49,3.57,3.57,0,0,0,.91-3.74.5.5,0,0,0-.91-.12,27.46,27.46,0,0,0-2.94,9.77c-.06.57.83.65,1,.13a34,34,0,0,0,1.24-6.87c.05-.56-.87-.68-1-.13a33.15,33.15,0,0,0-.67,6.28.5.5,0,0,0,1,.14,15.31,15.31,0,0,0,.42-9.06.5.5,0,0,0-.91-.12,10.82,10.82,0,0,0-.78,7.4.5.5,0,0,0,.91.12A9,9,0,0,0,258,113a.51.51,0,0,0-.92-.12,8.24,8.24,0,0,0-1.54,5.1.5.5,0,0,0,1,0,8.34,8.34,0,0,1,1.06-4.23.5.5,0,0,0-.86-.51,27.69,27.69,0,0,0-3.87,7.33c-.19.53.66.9.91.39a44.34,44.34,0,0,0,2.61-6.67c.14-.45-.51-.89-.83-.49a20.35,20.35,0,0,0-3.8,7.68.5.5,0,0,0,.91.39,32,32,0,0,0,3.8-6.88c.17-.41-.39-.77-.74-.56a5.73,5.73,0,0,0-2.66,5.74c.07.47.7.43.92.12a16.59,16.59,0,0,0,3-9.51c0-.6-.78-.63-1-.13a9.57,9.57,0,0,0-.15,6.83.51.51,0,0,0,1-.13,9.62,9.62,0,0,0-2.15-6.12l-.49.84a11.45,11.45,0,0,0,6.69-.74c.46-.2.21-1-.26-.93-4.81.13-6.66,5.22-8.73,8.71a43.46,43.46,0,0,1-4.36,6.08c-1.28,1.5-3.33,3-3.53,5.05-.06.65.94.64,1,0Z"/><path d="M259.74,189.56a1,1,0,0,1,0-1.37l-.93-.25a33,33,0,0,1-.93,10.28h1a29,29,0,0,1-.54-8.91c.05-.56-.87-.68-1-.13a43.66,43.66,0,0,0-.94,11.4.5.5,0,0,0,1,0l.23-12.15h-1v15.71h1c-.26-3.69-.22-7.38-.17-11.07h-1l-.09,12.64a.5.5,0,0,0,1,0,127.77,127.77,0,0,1,1-15.14l-1,.13a35.74,35.74,0,0,1,.22,7.31c0,.64.94.63,1,0l1-10.49a.51.51,0,0,0-.86-.36c-.69.86-1.87-.29-.88-.9l-.61-.08a5,5,0,0,1,1.62,4.23l.75-.43a4.05,4.05,0,0,1-2.12-4.1l-.74.3a5.36,5.36,0,0,1,2.39,3.11l.73-.56a3.54,3.54,0,0,1-2.17-2.83l-.75.43a17.32,17.32,0,0,1,4,3,.5.5,0,0,0,.71-.7,18.23,18.23,0,0,0-4.23-3.19c-.3-.16-.81,0-.76.43a4.51,4.51,0,0,0,2.67,3.69.51.51,0,0,0,.73-.57,6.39,6.39,0,0,0-2.84-3.7.5.5,0,0,0-.74.29,5.08,5.08,0,0,0,2.59,5.23.5.5,0,0,0,.75-.43,5.91,5.91,0,0,0-1.91-4.94.51.51,0,0,0-.61-.08,1.75,1.75,0,0,0-.52,2.58,1.72,1.72,0,0,0,2.62-.1l-.85-.35-1,10.49h1a36.13,36.13,0,0,0-.26-7.57c-.08-.61-.92-.37-1,.13a127.77,127.77,0,0,0-1,15.14h1l.09-12.64a.5.5,0,0,0-1,0c0,3.69-.09,7.38.17,11.07a.5.5,0,0,0,1,0V188.43a.5.5,0,0,0-1,0l-.23,12.15h1a42.11,42.11,0,0,1,.91-11.14l-1-.13a29.81,29.81,0,0,0,.58,9.18.5.5,0,0,0,1,0,33.48,33.48,0,0,0,1-10.55.5.5,0,0,0-.93-.25,2,2,0,0,0,.19,2.58c.44.47,1.15-.24.71-.71Z"/></g></g></svg>