<svg xmlns="http://www.w3.org/2000/svg" viewBox="0 0 338.24 321.39"><g id="Layer_2" data-name="Layer 2"><g id="Layer_7_138" data-name="Layer 7,138"><path d="M135.64,83.65c8,.49,17.27-4.69,24.63-7.6,7.91-3.12,15.83-6.2,23.83-9.09q24.45-8.83,49.47-15.87c9.27-2.63,5.33-17.1-4-14.47q-25.46,7.2-50.35,16.2c-8.29,3-16.56,6.09-24.7,9.48-7.2,3-17.58,6.14-22.62,12.34-2.89,3.58-1.07,8.71,3.73,9Z"/><path d="M8.75,96.38c7.31-7.27,12.37-16.64,18.86-24.63A225.64,225.64,0,0,1,48.32,49.19,196.08,196.08,0,0,1,99.25,14.85c9.38-4.4,1.2-18.5-8.16-14A209.11,209.11,0,0,0,37.46,38.32,194.29,194.29,0,0,0,15.89,62.7C9.56,71.26,2.51,80.83.13,91.37c-1.1,4.91,4.85,8.77,8.62,5Z"/><path d="M95.3,11.45c.36,5.25,3.32,10.36,5.41,15.16,2.33,5.34,4.63,10.69,7,16,4.74,10.63,9.24,21.37,13.91,32,1.59,3.63,6.82,4.39,9.94,2.61,3.7-2.1,4.22-6.39,2.61-9.94C129.52,57,124.51,47,119.48,36.86c-2.45-4.9-5-9.73-7.58-14.56s-4.75-10.55-8.8-14.08c-2.74-2.4-8.09-1-7.8,3.23Z"/><path d="M4.22,96.27A188.12,188.12,0,0,0,24.3,112.33c7.23,4.87,14.58,9.56,21.81,14.41,14.31,9.6,28.18,19.76,39.28,33.06,6.13,7.35,17.17-3.42,10.61-10.6-11.87-13-26.22-23.38-41.14-32.59-7.4-4.57-14.92-8.94-22.36-13.46-7.62-4.62-15.57-8.85-23-13.69C5.39,86.81.52,93,4.22,96.27Z"/><path d="M14.43,269.35c15.87-16.08,27.38-35.62,41.15-53.45a334.36,334.36,0,0,1,45.94-49.19c7.49-6.46-3.43-17.33-10.86-10.86-17.23,15-32.3,32.15-46.28,50.2S16.16,242.57,7.06,263.67c-2,4.57,3.32,9.77,7.37,5.68Z"/><path d="M75.12,286.64c7.07-2.62,13.76-7.72,20.15-11.71,6.58-4.1,12.72-9,19.1-13.42,13.06-9,26.33-17.84,39.8-26.26,8.17-5.1.65-18.08-7.57-12.95-13.76,8.6-27.25,17.58-40.38,27.12-6.5,4.72-13.3,9.33-19.3,14.69-5.54,4.95-12.28,10.36-16.36,16.59-1.85,2.82,1.26,7.16,4.56,5.94Z"/><path d="M12.86,263.73c6.59,7,14.88,11.48,23,16.58s16.15,10.46,24,16,15.42-7.44,7.57-12.95S51.53,272.5,43.3,267.52,27,257.54,17.48,255.8c-4.57-.84-8,4.29-4.62,7.93Z"/><path d="M146.2,232.35c2.94,7.4,7.63,14,11.75,20.82,4,6.5,7.57,13.17,11.11,19.9a317.72,317.72,0,0,1,18.88,43.18c3.15,9.05,17.65,5.16,14.46-4a294.41,294.41,0,0,0-20.24-45.83,244.85,244.85,0,0,0-13.07-20.79c-4.65-6.72-9.55-13.51-16.09-18.52-3.11-2.38-8.23,1.61-6.8,5.23Z"/><path d="M194.37,317.2c11.86-2.43,23-8.57,34.16-13s22.36-8.46,33.74-12.13a531.78,531.78,0,0,1,70.47-17.37c9.63-1.7,5.56-16.42-4.05-14.69a545,545,0,0,0-72.16,18.16Q239,283.85,222,290.75c-11.42,4.61-23.53,9-33.14,17-4.73,3.9.5,10.53,5.53,9.49Z"/><path d="M334.44,259.87c0-9.38-4.5-18.07-8.41-26.42q-6.12-13.08-12.1-26.23-12.15-26.75-23.69-53.76Q267.35,99.88,247,45.27c-3.36-9-17.86-5.08-14.47,4q20.58,55,43.62,109.11,11.33,26.58,23.24,52.91,6,13.16,12.06,26.25c4.15,8.9,8.09,19,15.89,25.28,2.68,2.17,7.11.93,7.1-2.94Z"/><path d="M101.72,124.86a214.91,214.91,0,0,0,14.45,35.86q4.41,8.59,9.59,16.77c3.6,5.67,7.6,11.07,11.25,16.71a116.31,116.31,0,0,1,10.32,19.87,2.06,2.06,0,0,0,2.46,1.39,2,2,0,0,0,1.39-2.46,120.62,120.62,0,0,0-8.73-17.65c-3.5-5.8-7.56-11.22-11.28-16.86a208.25,208.25,0,0,1-18.16-34,211.13,211.13,0,0,1-7.43-20.72c-.74-2.46-4.6-1.41-3.86,1.06Z"/><path d="M99.43,98.27Q94.36,87.47,90,76.33q-2.21-5.68-4.2-11.44l-.93-2.72c-.13-.37-.2-1.28-.45-.69s0,.17.24.07a6.11,6.11,0,0,0,.75-.5q2.34-1.53,4.82-2.85A64.08,64.08,0,0,1,102,53.35l-2.54-1.93.2,2.13a2.05,2.05,0,0,0,2,2,2,2,0,0,0,2-2l-.2-2.13a2,2,0,0,0-2.53-1.93,69.94,69.94,0,0,0-11.67,4.74c-1.86,1-3.67,2-5.43,3.13s-3.46,2-3.19,4.27c.25,2,1.31,4.18,2,6.12q1.11,3.16,2.29,6.29,2.36,6.27,4.94,12.45,2.93,7,6.13,13.8c1.09,2.33,4.54.3,3.45-2Z"/><path d="M138.94,105.18l14.19,27.5,7.06,13.67c1.2,2.32,2.41,4.64,3.6,7a20.21,20.21,0,0,1,2.4,6.54,2.07,2.07,0,0,0,2,2,2,2,0,0,0,2-2c-.5-4-2.34-7.39-4.15-10.9l-5.7-11-11.49-22.26-6.46-12.51c-1.18-2.29-4.64-.27-3.45,2Z"/><path d="M216.48,255.85A233.59,233.59,0,0,1,196,208.75q-1-3.37-2-6.78c-.32-1.17-.64-2.35-.94-3.52l-.45-1.77c-.11-.44-.5-1.23-.38-1.66l-.51.88c.27-.35,1.1-.45,1.52-.68a5.7,5.7,0,0,0,1.58-1.31,7.59,7.59,0,0,0,1.74-4.2c.35-3.42-1.58-6.39-3.5-9a2.06,2.06,0,0,0-2.74-.72,2,2,0,0,0-.72,2.74c1.34,1.83,3.19,4.08,3,6.51a3.45,3.45,0,0,1-.81,2.1c-.68.73-1.76.71-2.51,1.36-1.17,1-1.19,2.33-.86,3.73s.7,2.81,1.07,4.2q1.11,4.19,2.37,8.33a240,240,0,0,0,12.31,31.95q4.06,8.67,8.84,17c1.27,2.24,4.73.22,3.45-2Z"/><path d="M192.54,180c8.29-5.27,17.41-8.45,26.59-11.8l28.48-10.39c2.4-.88,1.37-4.74-1.06-3.86l-29,10.56c-9.34,3.41-18.64,6.68-27.08,12-2.17,1.38-.17,4.84,2,3.45Z"/><path d="M214.18,257.67l13.46-4.2,6.62-2.06c1.85-.57,4-1.66,6-1.62a2,2,0,0,1,1.6.86,6,6,0,0,0,2.48,1.72c2,.62,4.11-.27,6-.83l13.48-4L279.2,243a2,2,0,0,0,1.39-2.46Q269.27,204.94,256,170c-1.54-4.05-4.2-14.4-10.63-11.2-2.31,1.15-.28,4.6,2,3.45.46-.22,1.17.7,1.38,1a10.41,10.41,0,0,1,1.46,2.83q1.53,4,3,8,3,8.12,6,16.27,5.9,16.3,11.38,32.76,3.1,9.27,6.06,18.58l1.39-2.46-27,8-3.08.91c-.68.2-2,.79-2.68.48-.58-.26-1.15-1.17-1.65-1.57a5.2,5.2,0,0,0-2.76-1.11c-2-.22-4,.53-5.91,1.13L228.47,249l-15.36,4.79c-2.45.76-1.4,4.62,1.07,3.85Z"/><path d="M146.05,102.23a20.48,20.48,0,0,0,11.78,2.48c4.34-.44,8-2.39,11.78-4.46a48.06,48.06,0,0,1,12-4.44c3.84-.92,7.83-1.54,11.49-3.07s6.84-3.91,7.77-7.83c.6-2.5-3.26-3.57-3.86-1.06-.64,2.69-3,4.24-5.45,5.23-3.29,1.35-6.9,1.91-10.35,2.72a53.23,53.23,0,0,0-11.34,3.79c-3.35,1.65-6.47,3.87-10.14,4.77a16.4,16.4,0,0,1-11.67-1.59c-2.26-1.23-4.28,2.22-2,3.46Z"/><path d="M197.79,101.34q4.71,7.84,9,15.94c1.21,2.3,2.19,5.06,4.55,6.43,1.29.75,3.85.9,4.49,2.39a2,2,0,0,0,2.73.72,2.05,2.05,0,0,0,.72-2.74c-.85-2-3-2.67-4.87-3.36a3.7,3.7,0,0,1-2.18-1.67c-.73-1.22-1.33-2.53-2-3.79q-4.25-8.1-9-15.94c-1.32-2.2-4.78-.19-3.45,2Z"/><path d="M225.89,115.5c-2.73-7.12-5.78-14.13-9.16-21q-2.5-5.07-5.26-10c-.84-1.52-1.71-3.67-3.82-3.38a2.28,2.28,0,0,0-1.12,3.93,2.08,2.08,0,0,0,2.42.31l.13-.07c2.24-1.26.23-4.72-2-3.45l-.13.07,2.43.31-.12-.09.52.89,0,.17-.59,1.42.14-.11-2,.51.32,0-.88-.51a6.46,6.46,0,0,1,1.08,1.77l1,1.85q1.06,2,2.1,4,2.07,4,4,8c2.55,5.37,4.88,10.85,7,16.4a2.07,2.07,0,0,0,2.46,1.4,2,2,0,0,0,1.4-2.46Z"/><path d="M206.59,75.48a46.18,46.18,0,0,1,.73-5.24c.21-1.06.27-2.88,1.34-3.43a9.92,9.92,0,0,1,2.21-.61l2.64-.65,5.5-1.36,1.32-.32.53-.13c-.72-.74-1-.89-.86-.43a6,6,0,0,0,.05,1.63,13,13,0,0,0,1.11,4.34,12.59,12.59,0,0,0,6,6.2c2.3,1.11,4.33-2.34,2-3.46a8.93,8.93,0,0,1-5.08-6.9c-.18-1.61.17-3.31-1.17-4.54-1.62-1.5-4-.48-5.83,0l-6.16,1.52c-1.78.44-3.78.73-5.22,2s-1.81,3.16-2.17,4.92a55.45,55.45,0,0,0-.92,6.53c-.21,2.56,3.79,2.55,4,0Z"/><path d="M230.14,118.83l19.8-8.33a2,2,0,0,0,1.19-2.93A233.82,233.82,0,0,1,233.94,74,2,2,0,0,0,230.08,75l.35,1.62c.54,2.51,4.4,1.45,3.86-1.07L233.94,74,230.08,75a239.55,239.55,0,0,0,17.6,34.57l1.19-2.94L229.08,115a2.07,2.07,0,0,0-1.4,2.46,2,2,0,0,0,2.46,1.4Z"/><path d="M235.47,140.68l22.25-12.3h-2a25.05,25.05,0,0,1,8.15,6.63,2,2,0,0,0,2.83,0,2,2,0,0,0,0-2.82,27.58,27.58,0,0,0-6.46-5.83c-1.07-.69-2.71-2-4-1.64a10.72,10.72,0,0,0-2.22,1.17l-2.4,1.32-18.1,10c-2.26,1.24-.24,4.7,2,3.45Z"/><path d="M245,149.44A66.6,66.6,0,0,1,263.71,142c2.5-.59,1.44-4.44-1.07-3.86A70.45,70.45,0,0,0,243,146c-2.22,1.3-.21,4.76,2,3.46Z"/><path d="M113.62,116.72q13.38-6.82,27.1-12.94a2,2,0,0,0,.72-2.73L132.6,85.18c-1.26-2.25-4.71-.23-3.46,2L138,103.07l.72-2.74q-13.71,6.12-27.1,12.94c-2.29,1.16-.27,4.62,2,3.45Z"/><path d="M66.82,119.37,54.61,90l-1.39,2.46A175.56,175.56,0,0,0,71,84.89c1.4-.7,2.8-1.41,4.18-2.15s3-1.49,3.18-3.28c.14-1.53-.76-3.09-1.29-4.49l-1.86-4.84a74.58,74.58,0,0,0-3.52-8.86,7.5,7.5,0,0,0-6.85-4c-3,0-6.11.89-9,1.52-3.22.68-6.43,1.41-9.62,2.21q-10.86,2.68-21.49,6.23c-2.43.81-1.39,4.67,1.06,3.86q12-4,24.3-6.92c4.1-1,8.23-1.9,12.38-2.65,1.41-.25,3.21-.57,4.5.23s1.86,2.75,2.39,4.15l2.65,6.92L73.17,76c.36.94,1.28,2.42,1.15,3.43l.28-1c-.2.37-1.78,1-2.31,1.27-1,.51-2,1-2.93,1.51-1.82.91-3.66,1.78-5.51,2.63-3.83,1.74-7.74,3.33-11.7,4.77-.91.34-1.84,1.4-1.39,2.46L63,120.43a2.06,2.06,0,0,0,2.46,1.4,2,2,0,0,0,1.4-2.46Z"/><path d="M60,36l3.66,14.9c.52,2.13,1.26,4.28,3.78,4.54,2.22.23,4.68-1,6.74-1.72,4.66-1.62,9.26-3.43,13.8-5.39,2-.85,4.78-1.61,4.72-4.25a9.29,9.29,0,0,0-1.07-3.21l-1.54-3.69L83.4,21a2,2,0,0,0-2.19-1.43,2,2,0,0,0-1.74,2l.13,3c.11,2.57,4.11,2.58,4,0l-.13-3-3.93.53,5.08,12.24,2.5,6,1.15,2.77c.09.22.17.73.35.86l.06.16.24-.54a12.74,12.74,0,0,0-1.42.64c-3.83,1.7-7.73,3.26-11.67,4.69-1.94.71-3.89,1.38-5.85,2-.47.15-1.57.73-2.08.56.23.08,0-.23-.09-.53-.14-.53-.26-1.07-.39-1.61L63.88,34.94C63.26,32.45,59.4,33.5,60,36Z"/><path d="M65.59,50.89a158.32,158.32,0,0,0,15.8,14.5,2.06,2.06,0,0,0,2.82,0,2,2,0,0,0,0-2.83A159.22,159.22,0,0,1,68.42,48.07c-1.78-1.87-4.61,1-2.83,2.82Z"/><path d="M90,44.47l9.31,8.13a2,2,0,1,0,2.83-2.82l-9.31-8.14A2,2,0,0,0,90,44.47Z"/><path d="M83,24.2l9.56,4.15c1.28.55,2.87,1,3.75,2.16a24,24,0,0,1,2.07,4c1.4,2.81,3.14,5.65,4.07,8.65.61,2,.71,5.19-1.78,5.9a2,2,0,0,0,1.06,3.86l10.63-2.78c2.49-.65,1.44-4.51-1.06-3.86L100.65,49l1.06,3.86a7.51,7.51,0,0,0,5.13-7.28c.07-3.92-2.27-7.59-4-11-1.6-3.24-2.84-7.07-6.25-8.8-3.76-1.91-7.78-3.4-11.64-5.07a2.07,2.07,0,0,0-2.74.71A2,2,0,0,0,83,24.2Z"/><path d="M104.31,53.07c.55-.59,1.12-1.17,1.71-1.71l.92-.8a5.3,5.3,0,0,0,.52-.42c-.08.08-.29.22-.08.07l.27-.2a25.68,25.68,0,0,1,4.21-2.53l-3-1.73c0,.45.12-.5,0-.09.19-.63.19-.37.07-.23s.35-.42.18-.23-.24.1.19-.12a1.3,1.3,0,0,0-.15.1,1.22,1.22,0,0,1-.17.08s.57-.18.23-.1l-.19,0c-.28.09.5,0,.27,0s-.58,0-.14,0,.13,0,0,0c-.31-.11.49.24.21.09l-.12-.07c.39.09.34.34.19.12,0,0,.3.47.16.2s.2.53.09.2,0,.47,0,.25-.14.53,0,.25-.22.43,0,0-.26.26-.13.17a1.06,1.06,0,0,0,.15-.15c-.23.3-.34.24-.12.1l.15-.08c-.3.24-.41.15-.16.07.1,0,.37-.06,0,0s-.11,0,0,0c.31,0-.47-.08-.25,0s-.15-.07-.21-.1c.28.13-.38-.34-.13-.1a2,2,0,1,0,2.83-2.83,3.48,3.48,0,0,0-4.44-.24,3.78,3.78,0,0,0-1.52,2.09,3.27,3.27,0,0,0,.38,2.48c1.73,2.85,6.62,1.44,6.61-1.88a2,2,0,0,0-1-1.73,2.1,2.1,0,0,0-2,0,27.62,27.62,0,0,0-8.36,6.22,2,2,0,0,0,2.83,2.83Z"/><path d="M251.83,285.52a232.51,232.51,0,0,0-9.5-22.79q-1.29-2.67-2.65-5.3c-.81-1.58-1.56-3.5-3.17-4.43-1.79-1-3.91-.34-5.76.12-2,.51-4,1.07-6,1.7-2.16.69-4.27,1.49-6.4,2.27-1.07.39-2.79,1.13-3.62.06a2,2,0,0,0-2.83,0,2.05,2.05,0,0,0,0,2.83c2,2.59,5.66,1.67,8.27.68a101.28,101.28,0,0,1,11.4-3.62,11,11,0,0,1,2.57-.59c.71,0,.9.73,1.21,1.31,1,1.82,1.88,3.65,2.79,5.5q2.61,5.33,4.94,10.77c1.76,4.13,3.38,8.33,4.88,12.56.86,2.4,4.73,1.37,3.86-1.07Z"/><path d="M304.55,266.62a206.25,206.25,0,0,1-9.92-25.29c-.65-2.05-1.4-4.13-1.87-6.24-.21-.94.21-1,1-1.51,1-.6,2-1.18,3-1.75a120.36,120.36,0,0,1,12.14-5.91,2.06,2.06,0,0,0,1.39-2.46,2,2,0,0,0-2.46-1.39c-3.68,1.53-7.3,3.21-10.83,5.08q-2.6,1.36-5.1,2.85c-1.5.9-2.92,1.92-3.22,3.76s.57,3.78,1.08,5.49c.59,1.95,1.2,3.89,1.85,5.82q1.85,5.56,4,11,2.52,6.36,5.44,12.54c1.09,2.33,4.54.3,3.45-2Z"/><path d="M88.76,261.53a6.79,6.79,0,0,1-5.8-12c1.44-1,1.16-3.9-1-3.72a4.42,4.42,0,0,1-4.52-4.85c.27-2.79,2.77-4.85,5.31-5.59a2,2,0,0,0,1.19-2.94,4,4,0,0,1,6.75-4.06c.82,1.07,2.71,1.49,3.45,0a3.89,3.89,0,0,1,4-2.31,3.79,3.79,0,0,1,3.08,3.43,2,2,0,0,0,3,1.72c2.65-1.5,5.74,1.05,7.07,3.23a12.71,12.71,0,0,1,1.34,10c-.69,2.48,3.16,3.54,3.85,1.06a16.52,16.52,0,0,0-2.38-14c-2.67-3.61-7.63-6.13-11.89-3.7l3,1.73a7.64,7.64,0,0,0-14.52-3.14h3.45a8,8,0,0,0-13.65,8.1l1.19-2.94c-4.34,1.28-8.21,5-8.26,9.8,0,4.49,3.91,8.87,8.54,8.5l-1-3.73a10.79,10.79,0,0,0,8.89,19.36c2.49-.64,1.43-4.5-1.07-3.86Z"/><path d="M128.47,236.7c-13.39-14.32-26.84-28.71-37.69-45.11l-.71,2.74,21-13.88-2.42-.31,18.12,23,8.91,11.32,4.61,5.86,2.15,2.73c.58.74,1.91,1.9,2.05,2.81v-1.06l-.1.3.92-1.2-.17.11,1.54-.2.11.05.72.72-.11-.15.27,1v-.15l-1,1.73.14-.09c2.16-1.39.15-4.86-2-3.46l-.14.09a2,2,0,0,0-1,1.73c.12,2,2.52,3.31,4.07,1.76,1.8-1.8-.26-4-1.39-5.46l-8.44-10.74L121,189.42l-9.52-12.11a2,2,0,0,0-2.43-.31l-21,13.88a2,2,0,0,0-.72,2.73c8.57,12.95,18.73,24.72,29.22,36.13,3,3.28,6,6.53,9.09,9.79,1.76,1.88,4.58-.95,2.83-2.83Z"/><path d="M74.66,228.23c-1.8,1-4.91,2.91-6.88,1.2s.41-5,1.38-6.44l-3.45-2c-.29.59.43-.21.43-.18,0-.24.21.51,0,0-.06-.12-.49-.27-.6-.45a2.54,2.54,0,0,1,.05-1.95c.51-1.35,2-2.7,3.53-2.41A2,2,0,0,0,71,212.59a1.07,1.07,0,0,1,.07-1.38c.6-.78,1.86-.85,2.76-.81a9.3,9.3,0,0,1,6,2.82l-.59-1.41V212l1-1.73-.08.06,1.54-.2.79.65v1.07c.33-1.73,3.66-.9,4.57-.22,2.32,1.74,2.76,5.37,3.22,8A2,2,0,0,0,92.76,221a2,2,0,0,0,1.39-2.46c-.63-3.65-1.53-7.72-4.64-10.1-2.47-1.88-6.32-2.32-8.9-.41-1.42,1-2.68,3-1.59,4.69s4.32,1.63,4.26-.93c0-1.88-2.91-3.44-4.4-4.13a12.18,12.18,0,0,0-6-1.26,6.47,6.47,0,0,0-5.46,3.16,5,5,0,0,0,.77,5.84l1.95-3.35a7.59,7.59,0,0,0-8.78,7,5.37,5.37,0,0,0,2.58,5.1c1.76,1,4.26.89,5.23-1.14a2,2,0,0,0-3.45-2c-2.13,3.28-4.11,8.07-.76,11.29s8.23,1.38,11.73-.58c2.25-1.25.23-4.71-2-3.45Z"/><path d="M36.5,238.21A42.9,42.9,0,0,0,46.62,248c1.79,1.24,3.73,2.23,5.56,3.42A54.34,54.34,0,0,1,56.92,255c6.22,5.13,11.68,11.23,18.49,15.62a35.17,35.17,0,0,0,5.93,3.09c1.75.72,5.19,2.39,6.81.91a2,2,0,0,0,0-2.83l-.09-.09a2,2,0,0,0-2.83,0l0,.05c-1.76,1.88,1.06,4.71,2.83,2.83l0-.05H85.23l.09.09v-2.83l0,.05,1.94-.52c-7.28-1.52-13.08-6.22-18.46-11.09-2.81-2.54-5.55-5.16-8.45-7.6a73.8,73.8,0,0,0-9.59-6.69A37.43,37.43,0,0,1,40,236.19a2,2,0,0,0-2.73-.72,2,2,0,0,0-.72,2.74Z"/><path d="M44.58,110.3l-3.95-7.4A47.65,47.65,0,0,1,37,95.48c-1.41-4.29.06-8.53,3.24-11.6a15.51,15.51,0,0,1,5.44-3.43c2-.74,4.13-.71,6.18-1.25a6.3,6.3,0,0,0,4.24-3.83c.82-1.82,1.5-3.38,3.3-4.41,3.13-1.78,7.49-2.1,9.22-5.71.55-1.15-1.17-2.17-1.73-1C65.32,67.5,60.79,67.7,58,69.46a8.76,8.76,0,0,0-3.37,4.26,8,8,0,0,1-1.48,2.6,6.18,6.18,0,0,1-3.68,1.27,18.06,18.06,0,0,0-11.29,5.5,13.07,13.07,0,0,0-3.58,11.18c.54,2.93,2.11,5.57,3.5,8.16l4.75,8.88c.6,1.14,2.33.13,1.72-1Z"/><path d="M40.47,82.15a20.32,20.32,0,0,0-12.66-13c-1.22-.42-1.74,1.51-.53,1.93a18.22,18.22,0,0,1,11.26,11.6c.38,1.23,2.31.7,1.93-.53Z"/><path d="M12.67,90.71a88.49,88.49,0,0,1,23,2.11c1.26.29,1.79-1.64.53-1.92a90.76,90.76,0,0,0-23.53-2.19c-1.29.05-1.29,2.05,0,2Z"/><path d="M19.11,86.77a39.65,39.65,0,0,1,10.91,1A2.11,2.11,0,0,0,32,87.12a7.73,7.73,0,0,0,1.46-1.56,8.62,8.62,0,0,0,1.51-4,10,10,0,0,0-2.83-7.84c-.91-1-2.37-2.43-3.81-2.4-1.6,0-2.4,1.79-3.14,2.94L18.24,85.05c-.7,1.09,1,2.09,1.73,1l5-7.87,2.52-3.93c.23-.36.51-1,1-.93s1.13.76,1.46,1.06a8.52,8.52,0,0,1,3,6.08A6.34,6.34,0,0,1,30.05,86l.77-.1a39.46,39.46,0,0,0-11.71-1.15c-1.28.07-1.29,2.07,0,2Z"/><path d="M120.71,111.51c6.68,6.48,9.87,15.48,13.36,23.89q5.81,14,12.13,27.77,12.75,27.74,27.58,54.44,8.33,15,17.28,29.59c.67,1.1,2.4.1,1.73-1q-16.06-26.23-30.1-53.63t-25.88-55.75c-3.9-9.33-7.25-19.51-14.68-26.73-.93-.89-2.34.52-1.42,1.42Z"/><path d="M192.49,274.76a134.15,134.15,0,0,0,2.22-28.57c0-1.28-2-1.29-2,0a131.82,131.82,0,0,1-2.15,28c-.23,1.25,1.69,1.79,1.93.53Z"/><path d="M190.52,247.26a205.31,205.31,0,0,1,27.82,17.16c1,.76,2-1,1-1.73a206.32,206.32,0,0,0-27.82-17.16c-1.15-.59-2.16,1.14-1,1.73Z"/><path d="M190.15,278.28l31.39-8.95a1,1,0,0,0,.44-1.68,10.67,10.67,0,0,1-2.79-5.63c-.22-1.27-2.15-.73-1.93.53a12.59,12.59,0,0,0,3.3,6.52l.44-1.67-31.38,9a1,1,0,0,0,.53,1.93Z"/><path d="M218.18,263.08a272.56,272.56,0,0,0,15,30.79,1,1,0,0,0,1.73-1,266.85,266.85,0,0,1-14.79-30.31c-.48-1.18-2.42-.66-1.93.53Z"/><path d="M136.27,93.18A442.94,442.94,0,0,1,191.12,72Q199,69.49,207,67.33a1,1,0,0,0-.53-1.93,446.18,446.18,0,0,0-56.07,19.34q-7.64,3.21-15.15,6.71c-1.16.54-.15,2.27,1,1.73Z"/><path d="M234.84,109c-.31-6.11-3.16-11.62-5.69-17.07l-4.2-9c-.4-.87-.87-2.33-2.12-2.15a1.28,1.28,0,0,0-.82,1.94,1,1,0,0,0,.86.5H223c1.28-.1,1.29-2.11,0-2h-.14l.86.49.09.16-.5.87.15-.11-.77.1a10.72,10.72,0,0,1,.63,1.43l.84,1.81,1.47,3.17,3.13,6.75c1.93,4.18,3.83,8.49,4.07,13.16.07,1.28,2.07,1.29,2,0Z"/><path d="M224.21,118.21c1.26-3.69,5.75-5.12,8.38-7.63a15.1,15.1,0,0,0,1.76-2.16c.94-1.28,2.28-1,3.73-1l9.09-.1a1,1,0,0,0,0-2l-10,.11a5.29,5.29,0,0,0-3.42.77c-1,.75-1.48,1.94-2.33,2.8-3,3-7.62,4.36-9.12,8.72-.42,1.22,1.51,1.75,1.93.54Z"/><path d="M209.73,81.65l10.11.51c2.33.12,4.39.12,6.21-1.49a20.75,20.75,0,0,0,3.24-4.26c.89-1.31,2-2.8,3.7-2.81a1,1,0,0,0,0-2c-3.86,0-5.29,4.07-7.36,6.61a5.91,5.91,0,0,1-1.83,1.62c-1.21.62-2.66.4-4,.33l-10.11-.51c-1.29-.06-1.28,1.94,0,2Z"/><path d="M208.88,81.56a55.6,55.6,0,0,1,23.64-9.18l-1.27-1,.11,2.76c0,1.28,2,1.29,2,0l-.11-2.76a1,1,0,0,0-1.27-1,56.93,56.93,0,0,0-24.11,9.38c-1.06.73-.06,2.46,1,1.73Z"/><path d="M233.91,138a24.41,24.41,0,0,1,8.84,8.76,3.47,3.47,0,0,0,.54.86,1.09,1.09,0,0,0,1.31.13,1.13,1.13,0,0,0-.25-2.05,1,1,0,0,0-.53,1.93h.05l-.6-.46,0,0-.14-.5.07-.34.36-.36-.05,0,.51-.14H244l.71.29c.09.09-.12-.26-.12-.25l-.24-.41c-.14-.24-.3-.49-.45-.73q-.48-.72-1-1.41a27,27,0,0,0-2.35-2.76,26.6,26.6,0,0,0-5.64-4.38,1,1,0,0,0-1,1.73Z"/><path d="M268.37,137.65l3.22-1.94a1,1,0,1,0-1-1.72l-3.22,1.93a1,1,0,0,0,1,1.73Z"/><path d="M194.65,170.25l-5.26-8.32L189,163.3c8.82-4.35,17.64-8.7,26.54-12.88a143.82,143.82,0,0,1,13.36-6c2.08-.73,4.48-1.26,6.59-.36,1.72.74,3.37,2.43,3.08,4.45-.18,1.25,1.75,1.8,1.93.53.45-3.09-1.55-5.72-4.36-6.86-3.58-1.46-7.47.07-10.78,1.53-8,3.55-15.92,7.36-23.8,11.2q-6.79,3.32-13.57,6.66a1,1,0,0,0-.35,1.37l5.25,8.32c.68,1.09,2.42.08,1.73-1Z"/><path d="M193.83,170.61c8.5-2.59,17-5.07,25.49-7.79A46.75,46.75,0,0,0,230,157.94a34.86,34.86,0,0,1,4.94-2.8c1.58-.68,3.33-.86,4.87-1.62a3.94,3.94,0,0,0,2.39-3.55,2.8,2.8,0,0,0-2.12-2.91,1,1,0,0,0-1.23,1.23l.22.9a1,1,0,0,0,1.93-.53l-.22-.9L239.59,149c.74.15.78,1,.53,1.66a3.15,3.15,0,0,1-2.07,1.44,34.13,34.13,0,0,0-5.45,2c-1.85,1-3.55,2.18-5.35,3.23a35.91,35.91,0,0,1-6.08,2.79c-4.45,1.59-9,2.85-13.54,4.22l-14.33,4.37c-1.23.37-.7,2.31.53,1.93Z"/><path d="M263,179.07a95.91,95.91,0,0,1,5.92,15.15,1,1,0,0,0,1.93-.53,99.73,99.73,0,0,0-6.12-15.63c-.57-1.15-2.3-.14-1.73,1Z"/><path d="M271.12,195.39A79.52,79.52,0,0,1,286,181.12c1-.76,0-2.49-1-1.73A81.57,81.57,0,0,0,269.71,194c-.8,1,.6,2.42,1.41,1.41Z"/><path d="M263.3,177.46a151.26,151.26,0,0,0,24.45.6c1.28-.07,1.29-2.07,0-2a151.26,151.26,0,0,1-24.45-.6c-1.28-.13-1.27,1.87,0,2Z"/><path d="M250.81,148.78A43.94,43.94,0,0,1,255.4,160a1,1,0,0,0,1.47.6,14.25,14.25,0,0,1,13.31-.91c1.16.53,2.18-1.19,1-1.73a16.34,16.34,0,0,0-15.33.91l1.47.6a45.63,45.63,0,0,0-4.8-11.73,1,1,0,0,0-1.72,1Z"/><path d="M251.7,147.33a39.49,39.49,0,0,0,15.66-2.59c.66-.26,1.34-.64,1.75.13s.57,1.39.85,2.07l1.61,4a27.07,27.07,0,0,1,1.69,4.16c.17.77-.29,1.12-.83,1.66l-1.61,1.63a1,1,0,0,0,1.41,1.41c1-1,2.49-2,3-3.31s-.57-3.15-1.08-4.42l-2-5c-.51-1.27-.9-3-1.89-4s-2.53-.52-3.8,0a39.37,39.37,0,0,1-4.75,1.44,37.38,37.38,0,0,1-10,.93c-1.29,0-1.29,2,0,2Z"/><path d="M168.62,162.27a121,121,0,0,1,45.6-19.11,117.8,117.8,0,0,1,14.12-1.84,1,1,0,0,0,.27-2c-2.48-.91-3.45-3.92-4.36-6.14l-3.73-9.12c-.48-1.17-2.42-.66-1.93.54,1.46,3.55,2.88,7.12,4.37,10.66,1.07,2.53,2.41,5,5.12,6l.26-2a122.12,122.12,0,0,0-60.73,21.22c-1.05.73-.05,2.46,1,1.73Z"/><path d="M233.13,137.52,236.52,127a1,1,0,0,0-.46-1.13l-8.87-5.67c-1.09-.7-2.09,1-1,1.72l8.87,5.67-.46-1.13L231.2,137c-.39,1.23,1.54,1.75,1.93.53Z"/><path d="M234.76,125.87q5-2.13,10-4.14c1.65-.66,3.31-1.32,5-2l2.3-.89,1.16-.44.76-.29c.52-.09.76-.47.73-1.14l.71.29-.12-.11c-1-.86-2.36.55-1.41,1.42,1.35,1.23,3.16-.87,1.94-2.11-.76-.78-1.88-.46-2.76-.13-1.35.5-2.69,1-4,1.55q-7.68,3-15.26,6.22c-1.18.51-.16,2.23,1,1.73Z"/><path d="M223.79,121.36c6.12-1.65,12.23-3.35,18.36-4.94,4.52-1.18,10.29-2.39,14.22.91,1,.83,2.4-.58,1.41-1.41-4.15-3.5-9.74-3-14.69-1.8-6.66,1.56-13.23,3.54-19.83,5.32a1,1,0,0,0,.53,1.92Z"/><path d="M254.69,116.46a43,43,0,0,0-2.13,10.35c-.07,1,1.11,1.2,1.71.71l1.34-1.1A1,1,0,1,0,254.2,125l-1.34,1.09,1.7.71a40.52,40.52,0,0,1,2.06-9.81c.42-1.23-1.51-1.75-1.93-.54Z"/><path d="M191.52,191c-4.6-4.16-11.18-5.22-15.69-9.44-2.9-2.71-3.31-6.32-3.55-10.09q-.45-7.11-.91-14.2c-.08-1.28-2.08-1.29-2,0q.47,7.34.94,14.68c.25,3.81.79,7.48,3.47,10.38,4.44,4.81,11.52,5.75,16.33,10.08.95.86,2.37-.55,1.41-1.41Z"/><path d="M256.29,278l-10.15-22.83-.36,1.36A146.65,146.65,0,0,1,269.32,247c1.93-.59,3.88-1.15,5.84-1.66.82-.21,2.31-.86,3.08-.28s.79,1.63,1,2.39a73.12,73.12,0,0,0,3.6,11.48,74,74,0,0,0,6.15,11.9c.69,1.09,2.42.08,1.73-1a72.45,72.45,0,0,1-6-11.63q-1.25-3.1-2.22-6.31c-.59-2-1-4-1.55-6-.44-1.47-1.33-2.86-3-3a8.46,8.46,0,0,0-2.82.46c-1.13.29-2.26.59-3.38.91q-6.63,1.88-13.06,4.36a150.75,150.75,0,0,0-13.87,6.2,1,1,0,0,0-.36,1.36L254.56,279c.52,1.17,2.25.15,1.73-1Z"/><path d="M98,90.88a44.27,44.27,0,0,1,10.64-5.3,1,1,0,0,0,.44-1.67A97.59,97.59,0,0,1,93.89,58.1c-.38-1-2.08-1-2,.26l.27,2.93c.11,1.27,2.12,1.28,2,0l-.27-2.93-2,.27a100.86,100.86,0,0,0,15.72,26.7l.44-1.68A46.77,46.77,0,0,0,97,89.15c-1.06.71-.06,2.45,1,1.73Z"/><path d="M110.79,113.71l3.32-2.72a9.57,9.57,0,0,0,2.56-2.39c1.13-2.08-1.47-4.13-2.56-5.6a37.78,37.78,0,0,1-6.41-13.94,1,1,0,0,0-1.23-.7l-5.83,2.19c-1.19.45-.68,2.38.53,1.93L107,90.29l-1.23-.7A39.4,39.4,0,0,0,111,102c.58.9,1.2,1.78,1.86,2.63.34.44.68.87,1,1.3s.88.84,1,1.32c.14.86-1.71,1.92-2.35,2.45l-3.14,2.58c-1,.82.42,2.23,1.41,1.41Z"/><path d="M111.89,90a.69.69,0,0,1,.36.18c.08.1.09.32.16.39s0-.24,0-.13,0-.08,0-.1a1.17,1.17,0,0,1,.31-.47c.76-.69,1.64-1.27,2.44-1.89l5.14-4a1,1,0,0,0,.47-1,1,1,0,0,0-.71-.83l-7.29-1.75c-1.26-.3-1.79,1.62-.54,1.93l7.3,1.75-.24-1.83-6.65,5.13a4.91,4.91,0,0,0-2.17,2.44A1.55,1.55,0,0,0,111.89,92a1,1,0,0,0,0-2Z"/><path d="M139.51,106.06a43.82,43.82,0,0,0,7-5.55,1,1,0,0,0-1-1.67l-6.71,1.38.77,1.82a6.65,6.65,0,0,1,4.71-1.08,1,1,0,0,0,1.23-.7,1,1,0,0,0-.7-1.23,6.67,6.67,0,0,0-5.88,1.66,1,1,0,0,0,.44,1.68,8,8,0,0,0,5.9-.28l-1.37-1.37a5,5,0,0,1-2.5,2,1,1,0,0,0,.53,1.93l4.77-1.56a1,1,0,0,0,.44-1.67,3.56,3.56,0,0,0-3.74-1.06l.53,1.93a3.92,3.92,0,0,0,2.19-1.85,1,1,0,0,0-.35-1.37l-2.17-1.19-.23,1.83a3.4,3.4,0,0,1,3.81,1,1,1,0,0,0,1.41,0,1,1,0,0,0,0-1.42,5.36,5.36,0,0,0-5.76-1.55,1,1,0,0,0-.24,1.83l2.17,1.18-.36-1.36a1.89,1.89,0,0,1-1,.93,1,1,0,0,0-.7,1.23,1,1,0,0,0,1.23.7,1.6,1.6,0,0,1,1.8.54l.44-1.67-4.77,1.56.53,1.93a7.31,7.31,0,0,0,3.7-2.89,1,1,0,0,0-.16-1.21,1,1,0,0,0-1.21-.16,5.94,5.94,0,0,1-4.35.08l.44,1.67a4.53,4.53,0,0,1,3.93-1.15L144.8,99a8.61,8.61,0,0,0-6.25,1.29,1,1,0,0,0,.77,1.82l6.71-1.37-1-1.67a41.9,41.9,0,0,1-6.56,5.24c-1.08.69-.08,2.42,1,1.72Z"/><path d="M79.26,135.76c-2.52-2.51-1.13-6.24,1.09-8.39,1.12-1.09,2.74-2.39,4.35-2.55a1.42,1.42,0,0,1,1.57.68c.16.32.31,1-.15,1.2l1.27,1a2.29,2.29,0,0,1,1.8-2.24,3,3,0,0,1,3,1.07c2,2.16,1.45,5.37.9,8a1,1,0,0,0,1.47,1.13,4.68,4.68,0,0,1,6.53,6.49,1,1,0,0,0,1.13,1.47c2.73-.94,6.17,1.07,6.27,4.09a6.7,6.7,0,0,1-2.07,4.58,20,20,0,0,1-1.69,1.63c-.29.26-.59.51-.89.75s-1.14.66-1.26,1c.43-1.21-1.5-1.74-1.93-.53a1.85,1.85,0,0,0,1.36,2.37c1.27.31,2.33-.68,3.24-1.42,2.1-1.7,4.28-3.76,5-6.46a6.74,6.74,0,0,0-8.56-7.93l1.13,1.47a6.68,6.68,0,0,0-9.27-9.23L95.05,135c.8-3.78,1.14-8.68-2.71-11-2.82-1.68-7.07.07-7,3.63a1,1,0,0,0,1.27,1,2.87,2.87,0,0,0,1.15-4.45c-1.54-2.27-4.69-1.25-6.56,0a11.57,11.57,0,0,0-5,6,7,7,0,0,0,1.6,7,1,1,0,0,0,1.42-1.41Z"/><path d="M99.21,151.32c1.28-2.08,2.73-4.8,1.43-7.23-.93-1.74-3.38-3-5.16-1.69l1.51.87a4.76,4.76,0,0,0-5.07-5,1,1,0,0,0-1,1,1,1,0,0,0,1,1,2.77,2.77,0,0,1,3.07,3,1,1,0,0,0,1.5.86c.91-.66,2.11.17,2.5,1.13.69,1.67-.68,3.7-1.51,5.05-.68,1.1,1,2.11,1.73,1Z"/><path d="M93.49,253.2c-1.64.29-3-1.53-2.82-3a4.68,4.68,0,0,1,3-3.57c1.11-.48.26-2-.78-1.83a3.35,3.35,0,0,1-2.45-6.1c1.06-.72.06-2.46-1-1.73a5.35,5.35,0,0,0,4,9.76l-.77-1.83c-2.29,1-4.26,3.36-4,6A4.67,4.67,0,0,0,94,255.12c1.27-.22.73-2.15-.53-1.92Z"/><path d="M91.92,192.92l-11.21-8a1,1,0,0,0-1.36.36,1,1,0,0,0,.35,1.37l11.22,8a1,1,0,0,0,1.36-.36,1,1,0,0,0-.36-1.37Z"/><path d="M94.23,168.53a100.8,100.8,0,0,1,18.41,9.63c1.07.71,2.08-1,1-1.73a103.93,103.93,0,0,0-18.89-9.83c-1.2-.47-1.71,1.46-.53,1.93Z"/><path d="M95.85,165.31c5,2.24,10.69,2.47,15.68,4.77,5.5,2.53,9.18,8.09,13,12.59,8.13,9.63,17,19,22.75,30.29A78.76,78.76,0,0,1,154,231.8c.27,1.25,2.2.72,1.92-.54a82.24,82.24,0,0,0-15.63-32.78c-4-5.18-8.39-10.13-12.63-15.15-2.18-2.59-4.35-5.19-6.56-7.77a31.67,31.67,0,0,0-6.06-5.79c-5.43-3.7-12.31-3.56-18.19-6.19-1.17-.52-2.18,1.21-1,1.73Z"/><path d="M156.79,130.36a4.21,4.21,0,1,0,6.59-5v.71a4.57,4.57,0,0,0-5.38-7.18l.6.79a2.51,2.51,0,0,0-.43-3.44c-1.29-1.29-3.29-1.09-4.8-2-1.31-.78-2.39-1.58-3.93-.77a3.13,3.13,0,0,0-1.67,3.28c.11.63,1.07.37,1-.26a2.2,2.2,0,0,1,1.71-2.34c1.15-.25,2,.78,2.94,1.21s2,.56,3,.93,2.36,1.61,1.48,2.66a.5.5,0,0,0,.61.78,3.75,3.75,0,0,1,4.24,1,3.7,3.7,0,0,1-.07,4.63.51.51,0,0,0,0,.71,3.21,3.21,0,1,1-5,3.78c-.3-.57-1.16-.06-.86.51Z"/><path d="M156.25,116.67c1.42-1.37,3.17-3.48,2.36-5.61-.58-1.53-2.59-2.79-4.08-1.67l.68.69c2.11-2.76-.38-7.36-3.82-7.17a.51.51,0,0,0-.35.86l1.08,1c.46.44,1.17-.26.7-.71l-1.08-1-.35.85c2.74-.15,4.61,3.5,3,5.66-.3.39.29,1,.69.69,1.1-.83,2.56.36,2.74,1.53.26,1.65-1.16,3.14-2.24,4.17-.47.45.24,1.15.71.71Z"/><path d="M164.3,124.53l7.78,22.75c.21.61,1.18.35,1-.26l-7.79-22.75c-.21-.61-1.17-.35-1,.26Z"/><path d="M172.26,148q10-4,20.23-7.3c6.78-2.16,14-4.77,21.19-4.18.64.05.64-.95,0-1-7.16-.59-14.27,2-21,4.07Q182.2,142.89,172,147c-.59.23-.33,1.2.27,1Z"/><path d="M212.38,136.28l-17.17-27.43c-.35-.55-1.21,0-.87.5l17.18,27.44c.34.54,1.2,0,.86-.51Z"/><path d="M159.54,113.43a163.39,163.39,0,0,0,32.78-13.61l-.73-.3,1.87,10.94c.11.63,1.07.37,1-.26l-1.87-11a.49.49,0,0,0-.73-.29,161.88,161.88,0,0,1-32.55,13.5.5.5,0,0,0,.27,1Z"/><path d="M222.26,239.09c.06-7.19-3.07-13.75-5.87-20.21a160.71,160.71,0,0,1-7.34-22.47l-.23.56a218.1,218.1,0,0,1,31.44-12.13.5.5,0,0,0-.27-1,220.22,220.22,0,0,0-31.67,12.24.49.49,0,0,0-.23.56A161.5,161.5,0,0,0,215,218.16c2.86,6.71,6.32,13.46,6.26,20.93a.5.5,0,0,0,1,0Z"/><path d="M222.05,240.45l37.68-12.35a.51.51,0,0,0,.3-.74c-5-7.52-8-16.1-10.91-24.6l-4.77-14c-.38-1.09-.74-2.18-1.12-3.26-.27-.79-.57-1-1.44-1.07a3.56,3.56,0,0,0-3.34,1.6c-.37.53.5,1,.86.51s2-1.7,2.85-1c.25.21.32.84.43,1.16l.63,1.87,2.07,6.05c1.36,4,2.71,8,4.09,11.95,2.57,7.39,5.42,14.74,9.79,21.27l.3-.74-37.69,12.36c-.61.2-.35,1.16.27,1Z"/><path d="M195.17,192.07c9.19-2.06,17.66-6.32,26.4-9.7a220,220,0,0,1,27.6-8.62.5.5,0,0,0,.22-.84l-8.15-6.5c-.5-.4-1.22.3-.71.7l8.16,6.51.22-.83a216.87,216.87,0,0,0-27.61,8.62c-8.73,3.38-17.2,7.63-26.39,9.69-.63.14-.36,1.11.26,1Z"/><path d="M190.57,181.48a255.35,255.35,0,0,1,52.09-12.88c.56-.08.43-1-.13-1a1.26,1.26,0,0,0-.81,2.2c.48.42,1.19-.29.7-.7l.11-.5-.13-1a254.65,254.65,0,0,0-52.1,12.89c-.6.21-.34,1.18.27,1Z"/><path d="M193.69,194.44c1.53.12,2.19,2.22,3.27,3.1,1.24,1,2.78.79,4.22.4,4.65-1.24,9.26-2.63,13.88-4,9.31-2.75,18.63-5.55,27.85-8.59a6.59,6.59,0,0,0,4.09-3.3c1.38-2.42,2.72-4.85,4.08-7.28a.53.53,0,0,0-.07-.61l-1.48-1.83c-.41-.5-1.11.21-.71.71l1.48,1.83-.08-.61-3.36,6a13.58,13.58,0,0,1-1.67,2.73,6,6,0,0,1-2.72,1.45c-4.36,1.43-8.74,2.78-13.11,4.14q-13.14,4-26.36,7.8a15,15,0,0,1-3.72.89,3.17,3.17,0,0,1-2.69-1.66c-.78-1.05-1.49-2.07-2.9-2.18-.64-.06-.64.94,0,1Z"/><path d="M208.84,245l24.78-7.15,12.16-3.51c3.88-1.12,7.76-2.37,11.7-3.27,4.24-1,8.8-1.38,12.78.71v-.86c-4.8,3.47-10,6.4-15.06,9.46L239.26,250l.74.3a2,2,0,0,1,.47-1.8c.43-.48-.27-1.19-.7-.71a3,3,0,0,0-.74,2.78.51.51,0,0,0,.74.3l15.94-9.65c5.06-3.06,10.26-6,15-9.46a.5.5,0,0,0,0-.86c-6.83-3.59-14.84-.55-21.67,1.42l-25.74,7.43L208.57,244a.5.5,0,0,0,.27,1Z"/><path d="M268,232.27A31,31,0,0,1,270.73,248a.51.51,0,0,0,.86.36l1.07-1.17c.43-.48-.27-1.19-.71-.71l-1.07,1.17.85.35a31.94,31.94,0,0,0-2.87-16.23c-.27-.58-1.14-.08-.87.5Z"/><path d="M298.7,261a32.78,32.78,0,0,0-9.75,2.72l.61.08a13.71,13.71,0,0,1-2.18-3,5.26,5.26,0,0,1-.75-1.8c-.08-.77.69-1,1.28-1.23l7.91-2.85c.61-.21.35-1.18-.26-1l-4.82,1.73-2.52.91a7,7,0,0,0-1.83.8c-1.23.91-.68,2.29-.12,3.43a15,15,0,0,0,2.58,3.64.53.53,0,0,0,.61.08A31,31,0,0,1,298.7,262c.63-.07.64-1.07,0-1Z"/><path d="M295.3,248.76l-11.09,4.29.61.35-1.17-6-.35.61,9.74-2.68a.5.5,0,0,0-.26-1L283,247.07a.5.5,0,0,0-.35.61l1.17,6a.49.49,0,0,0,.61.35l11.1-4.29c.59-.23.34-1.19-.27-1Z"/><path d="M292.92,240.53a17.78,17.78,0,0,0-10.22,2.24l.68.18a27.87,27.87,0,0,1-1.94-6.94l-.35.61,11.37-4c.61-.21.35-1.18-.26-1l-11.38,4a.51.51,0,0,0-.34.61,28.06,28.06,0,0,0,2,7.18.49.49,0,0,0,.68.18,16.82,16.82,0,0,1,9.72-2.1c.64.06.63-.94,0-1Z"/><path d="M205.14,255.31q-11.28-30.42-24.88-59.94t-29.57-58.14q-8.94-16-18.58-31.63c-.34-.55-1.2,0-.86.5q17.06,27.68,32,56.6t27.46,58.77q7.13,16.91,13.5,34.11c.22.6,1.19.34,1-.27Z"/><path d="M191,268.43c-11.7-19.26-22.77-38.89-33.42-58.75s-20.89-39.78-30.82-59.93c-5.45-11.06-10.58-22.36-13.5-34.38-.15-.63-1.11-.36-1,.26,2.55,10.52,6.79,20.5,11.46,30.23,4.85,10.11,10,20.1,15.07,30.08,10.32,20.22,20.93,40.28,32.06,60.06q9.36,16.62,19.24,32.94a.5.5,0,0,0,.87-.51Z"/><path d="M112.7,114.43a3,3,0,0,0-2.63.08c-1.48.57-2.64.75-3.56-.84-1.31-2.27-1.9-5.12-2.61-7.63-1.39-4.86-2.82-9.86-6.32-13.68-.44-.47-1.14.23-.71.71,3.79,4.13,5,9.72,6.55,15,.37,1.25.75,2.49,1.19,3.71a10.21,10.21,0,0,0,1.57,3.21,2.78,2.78,0,0,0,2.45,1.06c1.1-.12,2.49-1.27,3.57-.7.57.3,1.07-.56.5-.87Z"/><path d="M104.34,122.71a55.68,55.68,0,0,0-4.1-7.16l-.3.74,8.25-1.44c.63-.11.37-1.07-.26-1l-8.25,1.43a.51.51,0,0,0-.3.74,55,55,0,0,1,4.09,7.15c.28.58,1.14.07.87-.5Z"/><path d="M86.9,122.08a69.82,69.82,0,0,0-5.22-8.24l-.18.68,9.25-5L95.38,107c.41-.23,4.88-2.7,5-2.39a.5.5,0,0,0-1,.27c.38,1.24,2.18,0,1.35-.92-.49-.52-1.25-.3-1.79,0-1.22.59-2.39,1.3-3.58,1.94L81,113.66a.5.5,0,0,0-.18.68A71.5,71.5,0,0,1,86,122.58c.3.57,1.17.07.86-.5Z"/><path d="M87.36,123.8A43.16,43.16,0,0,1,103.92,115c1-.27,2-.5,3-.7.26,0,2.4-.36,2.41-.42-.09.63.87.9,1,.27.29-2-2.28-1.08-3.28-.89a43.24,43.24,0,0,0-7.46,2.15,44.65,44.65,0,0,0-12.86,7.67c-.49.42.22,1.13.71.71Z"/><path d="M82.72,123a13.27,13.27,0,0,0-5.18-6.65,12.86,12.86,0,0,0-4-1.77c-.77-.19-1.55-.24-2.32-.4a2.69,2.69,0,0,1-2.15-2.26c-1.16-4.08-2-8.25-3.07-12.37l-3.1-12.48c-.14-.58-.94-.41-1,.13L61.77,89c-.05.64.95.64,1,0l.14-1.79-1,.13c2,8.27,3.86,16.65,6.17,24.86A3.62,3.62,0,0,0,70.42,115c1.57.51,3.19.5,4.74,1.18a12.27,12.27,0,0,1,6.6,7.08c.21.6,1.18.34,1-.27Z"/><path d="M125.27,120.42a13.7,13.7,0,0,0-2.64,2.52,7,7,0,0,1-2.7,2.16l.61.62,1.52-4c.2-.53-.65-.88-.91-.39a32.89,32.89,0,0,1-3.09,4.82c-.24.31-.12.87.35.85.82,0,1.63,0,2.44,0l1.18.1a4.46,4.46,0,0,1,.51.07.85.85,0,0,0,.17.06c.18,0-.09.21,0-.1-.22.6.75.87,1,.26.38-1.09-1.2-1.24-1.87-1.31a25.85,25.85,0,0,0-3.41-.1l.36.86a34.39,34.39,0,0,0,3.24-5l-.91-.39-1.52,4a.5.5,0,0,0,.61.62c2.45-.89,3.5-3.43,5.59-4.78.54-.35,0-1.22-.51-.87Z"/><path d="M131,136.45a21.59,21.59,0,0,0-6.18,4.26l.78.61,1.88-4.29a.5.5,0,0,0-.86-.51,19.69,19.69,0,0,0-2.24,5.1.51.51,0,0,0,.48.63,25.37,25.37,0,0,1,5.34.9.5.5,0,0,0,.27-1,26.62,26.62,0,0,0-5.61-.93l.48.63a18.77,18.77,0,0,1,2.14-4.85l-.86-.51-1.88,4.29c-.22.5.35,1,.78.61a21,21,0,0,1,6-4.11.49.49,0,0,0,.18-.68.5.5,0,0,0-.68-.18Z"/><path d="M140.3,152.65a61.53,61.53,0,0,0-6.91,4.28l.76.43a22.37,22.37,0,0,1,2-7c.27-.58-.56-1.09-.86-.51a23.56,23.56,0,0,0-2.4,7.77.49.49,0,0,0,.36.48,34.73,34.73,0,0,1,6.76,2.57c.57.29,1.08-.57.5-.86a35,35,0,0,0-7-2.67l.37.48a22.08,22.08,0,0,1,2.26-7.26l-.86-.51a23.92,23.92,0,0,0-2.13,7.54.5.5,0,0,0,.75.43,63.61,63.61,0,0,1,6.91-4.28c.57-.3.06-1.16-.51-.86Z"/><path d="M147.37,171.3l-6.79,3.12.74.56,1.75-5.73-1-.26-1.8,6a.51.51,0,0,0,.48.63,14.46,14.46,0,0,1,5.48,1c.6.24.86-.73.27-1a15.09,15.09,0,0,0-5.75-1l.48.63,1.81-6a.5.5,0,0,0-1-.26l-1.75,5.73c-.14.45.37.73.74.56l6.78-3.12c.59-.27.08-1.13-.5-.86Z"/><path d="M155.5,184.63a54.73,54.73,0,0,0-7,3.78l.74.56a52.76,52.76,0,0,1,1.79-5.32.5.5,0,0,0-.35-.61.52.52,0,0,0-.62.35l-1.26,3.13-.63,1.56c-.17.42-.5.95-.37,1.43s.53.59.94.64l1.73.21,3.33.4a.5.5,0,0,0,0-1l-2.89-.35-1.37-.17c-.24,0-.48,0-.71-.08l-.1,0c-.09,0-.08,0,0,.13a2.3,2.3,0,0,0,.09-.25c.71-1.79,1.45-3.58,2.17-5.37l-1-.26a51.93,51.93,0,0,0-1.79,5.32.51.51,0,0,0,.74.56,53.45,53.45,0,0,1,7-3.77c.58-.26.08-1.12-.51-.87Z"/><path d="M131.14,119.93l6.91-2.73a.51.51,0,0,0-.14-1,13.71,13.71,0,0,1-5-1.22l.24.43c-.22.21-.28.29-.16.23h.11a2.83,2.83,0,0,0,.52.13l.91.22,1.82.44c.34.09.68.15,1,.25.1,0,0-.07,0,0a1.25,1.25,0,0,1-.19.34,16.46,16.46,0,0,1-1,1.44c-.37.47-.76.91-1.17,1.34a4.22,4.22,0,0,0-1,1.26,1.12,1.12,0,0,0,.3,1.31.93.93,0,0,0,1.29,0c.45-.46-.25-1.17-.7-.71a.17.17,0,0,1,.1,0l0,0a.68.68,0,0,1,0-.13c0-.22.32-.47.47-.62.43-.44.85-.89,1.24-1.36s.77-1,1.12-1.46a2.52,2.52,0,0,0,.68-1.5c0-.68-.71-.82-1.25-1l-1.95-.48c-.63-.15-1.27-.35-1.9-.46s-1.16.13-1.14.75a.5.5,0,0,0,.25.43,15,15,0,0,0,5.51,1.36l-.13-1L130.87,119a.51.51,0,0,0-.34.62.5.5,0,0,0,.61.34Z"/><path d="M138.39,135.7c1.35,0,2.47-.78,3.69-1.23a12.1,12.1,0,0,1,4-.79.51.51,0,0,0,.36-.85,4.6,4.6,0,0,0-2.86-1.14,4.9,4.9,0,0,1-2.84-.91l-.48.84c1.8.42,3.6.83,5.39,1.26a2.44,2.44,0,0,0,.26.06l.07,0-.12-.16c-.06,0-.41.45-.47.52l-.9,1-1.91,2.09a.51.51,0,0,0,0,.71,1,1,0,0,0,1.07.27c.6-.2.34-1.16-.27-1,0,0-.07,0-.09,0v.71l2.22-2.44c.38-.42.78-.82,1.13-1.25a.85.85,0,0,0,.06-1.15,2.3,2.3,0,0,0-1.24-.47l-1.62-.38-3.32-.77a.5.5,0,0,0-.48.83,4.79,4.79,0,0,0,2.89,1.11,4.56,4.56,0,0,1,2.8.93l.35-.85a13.31,13.31,0,0,0-4,.72,19.79,19.79,0,0,0-1.83.79,4.18,4.18,0,0,1-1.86.51c-.65,0-.64,1,0,1Z"/><path d="M145.47,152.57q4.07-1.14,8.1-2.35a.5.5,0,0,0,0-1L148.25,148l-.27,1,6.12,1.22-.3-.73-4.14,5.48a.5.5,0,0,0,.43.75l1.89-.07c.64,0,.65-1,0-1l-1.89.07.43.75,4.14-5.48a.49.49,0,0,0-.3-.73L148.25,148c-.63-.13-.9.81-.27,1l5.32,1.28v-1c-2.69.8-5.39,1.59-8.09,2.35a.5.5,0,0,0,.26,1Z"/><path d="M154.87,168.33a58.48,58.48,0,0,1,9-2.71.5.5,0,0,0,0-1l-6.62-1.23-.27,1,6.11.89-.3-.73-2.42,5.09a.5.5,0,0,0,.68.69l.59-.27c.58-.27.07-1.14-.51-.87l-.58.27.68.69,2.42-5.1c.12-.25.05-.68-.3-.73l-6.1-.89c-.62-.09-.91.84-.27,1l6.63,1.23v-1a57.09,57.09,0,0,0-9,2.71c-.59.23-.34,1.2.26,1Z"/><path d="M159.19,183.63a61.05,61.05,0,0,0,9.73-3.51c.46-.21.22-1-.25-.93-1.7,0-3.49.08-5-.86l-.25.94,6,.66-.43-.75a51,51,0,0,1-3.42,4.06c-.44.47.27,1.18.71.71a52.07,52.07,0,0,0,3.57-4.27c.25-.34-.1-.71-.43-.75l-6-.66c-.53-.06-.64.69-.25.93,1.63,1,3.61,1,5.48,1l-.25-.94a58.14,58.14,0,0,1-9.5,3.41.5.5,0,0,0,.27,1Z"/><path d="M161.18,198.52l-5.42,3.8.68.68q1.26-2.37,2.29-4.86c.23-.54-.62-.84-.91-.38-1,1.52-1.88,3.08-2.75,4.66a.5.5,0,0,0,.43.75,7.63,7.63,0,0,1,4,.88c.57.31,1.08-.56.51-.86a8.73,8.73,0,0,0-4.54-1l.43.75q1.31-2.37,2.75-4.66l-.91-.39q-1,2.37-2.19,4.63c-.22.41.25,1,.68.68l5.42-3.79c.52-.37,0-1.24-.5-.87Z"/><path d="M168.67,211.53a17.26,17.26,0,0,1-5.68,4l.69.68,2-3.4c.28-.48-.41-1-.79-.61a9.34,9.34,0,0,0-2.1,4c-.07.29.14.68.48.64a13.37,13.37,0,0,1,5,.29.5.5,0,0,0,.26-1,14.34,14.34,0,0,0-5.22-.32l.48.63a8.21,8.21,0,0,1,1.85-3.6l-.79-.61-2,3.41c-.27.47.26.87.69.68a17.69,17.69,0,0,0,5.87-4.19c.44-.47-.26-1.18-.7-.7Z"/><path d="M180.09,229.06a28.91,28.91,0,0,0-5.86,4.52l.79.6a13.74,13.74,0,0,0,1.8-4.58.5.5,0,0,0-.91-.38,51.26,51.26,0,0,0-3.07,5,.5.5,0,0,0,.43.75l2.66-.24c.58-.05,1.42-.25,1.87.23s1.14-.23.7-.7a2.51,2.51,0,0,0-2.15-.57l-3.08.28.43.75a56,56,0,0,1,3.07-5l-.92-.38a12.89,12.89,0,0,1-1.7,4.34.51.51,0,0,0,.79.61,27.56,27.56,0,0,1,5.66-4.36.5.5,0,0,0-.51-.87Z"/><path d="M189.11,243.7a19.88,19.88,0,0,0-8.06,5.36l.78.6,1.75-4.08c.25-.58-.56-1.09-.86-.51l-2.66,5.14a.5.5,0,0,0,.68.68,7.25,7.25,0,0,1,3.54-.81.5.5,0,0,0,0-1,8.21,8.21,0,0,0-4,.95l.68.68,2.66-5.13-.86-.51L181,249.16c-.21.48.36,1.06.78.6a19.06,19.06,0,0,1,7.62-5.1c.61-.21.35-1.18-.26-1Z"/><path d="M166.76,197.15a82.33,82.33,0,0,1,8.67-4.19.5.5,0,0,0,0-1,15.81,15.81,0,0,0-6-.91.5.5,0,0,0-.13,1,20.83,20.83,0,0,0,3.48.78c.57.08,1.15.13,1.73.16.3,0,.6,0,.89,0s.18,0,.21.1a1.46,1.46,0,0,1-.12.37,17.29,17.29,0,0,1-1.49,3c-.45.74-.81,1.73-.1,2.43a.5.5,0,0,0,.7-.71c-.31-.31.08-.92.26-1.22.31-.51.61-1,.88-1.55s.48-1.07.69-1.62a1.5,1.5,0,0,0,0-1.41,1.35,1.35,0,0,0-1.21-.41c-.63,0-1.25,0-1.88-.12a19.59,19.59,0,0,1-3.78-.81l-.14,1a15,15,0,0,1,5.75.87v-1a81.81,81.81,0,0,0-8.9,4.29.5.5,0,0,0,.5.86Z"/><path d="M174.78,211.31l8.19-2.75c.44-.15.52-.86,0-1l-7.17-1.44-.13,1q3.62.41,7.22,1.05l-.3-.73-1.69,3.21c-.42.78-1.22,1.82-.52,2.66.41.49,1.11-.22.7-.71-.12-.14.35-.82.41-.94l.65-1.24,1.31-2.48a.49.49,0,0,0-.3-.73c-2.48-.45-5-.81-7.48-1.09-.56-.06-.69.87-.14,1l7.18,1.45v-1l-8.2,2.76c-.6.2-.34,1.17.27,1Z"/><path d="M184,228.4a28.77,28.77,0,0,1,7.23-4.54c.49-.21.19-.9-.25-.93a60.94,60.94,0,0,1-6.72-.79l-.13,1,3.19.36c1.06.12,2.14.18,3.19.36.23,0,.18,0,.11.25s-.16.49-.25.73c-.16.47-.33.94-.51,1.4-.38,1-.79,1.92-1.24,2.86a.51.51,0,0,0,.08.6,1.3,1.3,0,0,0,.8.47c.63.11.9-.86.27-1a.5.5,0,0,1-.36-.21l.07.6c.52-1.08,1-2.18,1.42-3.3.21-.55.41-1.1.6-1.66s.32-1.09-.15-1.49a2.82,2.82,0,0,0-1.51-.36l-1.85-.21-3.86-.44c-.56-.06-.69.89-.13,1a63,63,0,0,0,7,.82l-.25-.93a29.4,29.4,0,0,0-7.44,4.69c-.49.43.22,1.13.71.71Z"/><path d="M191.3,242.42a13.65,13.65,0,0,1,5.65-3.25.5.5,0,0,0-.13-1,11.19,11.19,0,0,1-5.16-1l-.38.91a35.79,35.79,0,0,0,5.46.82l-.49-.63-1.47,3.94a.51.51,0,0,0,.48.64.74.74,0,0,0,.74-.73c.05-.65-.95-.64-1,0v.07l.07-.25,0,0,.26-.07h-.08l.48.63,1.48-4c.12-.32-.19-.61-.48-.63a35.08,35.08,0,0,1-5.2-.78c-.52-.12-.92.66-.38.91a12.16,12.16,0,0,0,5.66,1.18l-.13-1a14.68,14.68,0,0,0-6.09,3.51c-.47.45.24,1.16.7.71Z"/><path d="M199.63,191.47l-.39,2.93-.19,1.41-.1.7a3.39,3.39,0,0,1-.11.71L199,197h0l.39-.05h0l.3.23,0,0,.07.25v.06l-.13.22,0,0-.49.13h0a.51.51,0,0,0,.62-.35.52.52,0,0,0-.35-.61h0a.49.49,0,0,0-.49.13c-.54.49.26,1.35.79.81a1.38,1.38,0,0,0,.27-.89l.15-1.11.58-4.28a.5.5,0,0,0-1,0Z"/><path d="M202.66,190.36l-.7,3.43-.34,1.69-.17.81-.08.4-.05.27c-.07.19,0,.19.17,0h.26l0,0,.3.23v.38l-.57.23h0a.54.54,0,0,0,.62-.35.52.52,0,0,0-.35-.62h0a.52.52,0,0,0-.57.23.58.58,0,0,0,1,.62,2.68,2.68,0,0,0,.28-1l.25-1.21,1-4.79c.13-.63-.83-.89-1-.26Z"/><path d="M206,188.92l-1,7.68a.51.51,0,0,0,.5.5.5.5,0,0,0,.5-.5l1-7.68a.5.5,0,0,0-.5-.5.51.51,0,0,0-.5.5Z"/><path d="M209.59,188a44,44,0,0,0-1.7,8l1-.13-.13-.59c-.13-.63-1.1-.37-1,.26l.12.59c.13.6.92.39,1-.13a42.64,42.64,0,0,1,1.67-7.75c.19-.62-.77-.88-1-.27Z"/><path d="M212.93,186l-1.29,7.67c-.11.63.83.91,1,.27l.12-.58c.14-.63-.83-.9-1-.27l-.12.58,1,.27,1.29-7.67c.1-.63-.86-.9-1-.27Z"/><path d="M217.93,184.74a30.68,30.68,0,0,0-2.14,7.39.52.52,0,0,0,.35.61.51.51,0,0,0,.62-.35l.1-.58c.11-.63-.86-.9-1-.26l-.1.58,1,.26a29.77,29.77,0,0,1,2-7.15.51.51,0,0,0-.18-.68.49.49,0,0,0-.68.18Z"/><path d="M221.36,183.46a80.92,80.92,0,0,1-2,8.13.5.5,0,0,0,1,.26,78.06,78.06,0,0,0,2-8.12c.12-.63-.84-.9-1-.27Z"/><path d="M225.65,181.08q-1.58,5.47-2.62,11.08L224,192a.22.22,0,0,1,0-.29c.29-.57-.57-1.08-.86-.5a1.22,1.22,0,0,0,0,1.29.5.5,0,0,0,.91-.12q1-5.59,2.62-11.07a.5.5,0,0,0-1-.27Z"/><path d="M230.27,179.93q-1,4.26-1.83,8.58c-.09.45.47.88.83.48l.46-.5c.43-.48-.28-1.19-.71-.71l-.45.51.83.48q.82-4.31,1.84-8.58c.14-.62-.82-.89-1-.26Z"/><path d="M234.21,178.35l-2.34,7.91c-.15.53.48.77.84.49l.77-.61c.51-.39-.2-1.1-.7-.7l-.78.6.84.49,2.33-7.91a.5.5,0,0,0-1-.27Z"/><path d="M238.69,177.55l-2.2,8.66c-.12.45.5.89.84.49l.47-.57c.41-.5-.29-1.21-.71-.71l-.47.57.83.48,2.21-8.65a.5.5,0,0,0-1-.27Z"/><path d="M243.5,175.8l-2.05,7.85a.5.5,0,0,0,.91.39l.44-.58c.39-.51-.48-1-.86-.5l-.44.58.91.38,2.05-7.85a.5.5,0,0,0-1-.27Z"/><path d="M246.2,176.77a16.6,16.6,0,0,1-1.65,4.84c-.31.56.56,1.07.86.5a17.55,17.55,0,0,0,1.76-5.07.5.5,0,1,0-1-.27Z"/><path d="M193.18,183.51l4.37,2.89,2.11,1.39a5.51,5.51,0,0,0,2,.89c.63.1.9-.86.27-1a5.07,5.07,0,0,1-1.89-.86l-2.13-1.41-4.24-2.79c-.54-.36-1,.51-.5.86Z"/><path d="M195.46,181.45q5.64,3.47,11.57,6.39c.58.29,1.09-.58.51-.86Q201.62,184,196,180.59a.5.5,0,0,0-.51.86Z"/><path d="M198.41,179.49q6.5,3.73,13.34,6.81c.58.26,1.09-.6.5-.86a149.32,149.32,0,0,1-13.33-6.82.5.5,0,0,0-.51.87Z"/><path d="M203.34,178.1a97.94,97.94,0,0,0,13.14,6.82c.59.24,1.1-.62.5-.87a96.13,96.13,0,0,1-13.13-6.82c-.55-.34-1,.53-.51.87Z"/><path d="M208.46,176.92l12.77,6.56c.57.29,1.08-.57.5-.87L209,176.06c-.57-.29-1.08.57-.5.86Z"/><path d="M213.38,174.57l13.35,6.37c.58.28,1.09-.59.51-.86l-13.36-6.38c-.58-.27-1.09.59-.5.87Z"/><path d="M220.17,174.26,232,179.2c.59.25.85-.72.27-1l-11.81-4.94c-.59-.25-.85.72-.27,1Z"/><path d="M226.53,172.7l9.68,4.26c.58.25,1.09-.61.5-.87L227,171.83c-.58-.25-1.09.61-.5.87Z"/><path d="M232.07,171.45l7.68,3.54c.58.27,1.09-.59.5-.86l-7.68-3.55c-.58-.27-1.08.6-.5.87Z"/><path d="M237.11,170.12a31.06,31.06,0,0,1,8,4.06c.52.37,1-.49.5-.86a31.86,31.86,0,0,0-8.2-4.17c-.61-.2-.87.76-.27,1Z"/><path d="M244,172.09a.5.5,0,0,0,0-1,.5.5,0,0,0,0,1Z"/><path d="M76.11,198.64l2.32,2.48a.5.5,0,0,0,.6.08.52.52,0,0,0,.23-.57,38.14,38.14,0,0,1-.39-4l-1,.14.5,3.55c.06.44.72.47.91.12l1.63-2.95c.31-.57-.55-1.07-.86-.51l-1.63,3,.91.11-.49-3.55a.5.5,0,0,0-1,.13,40.62,40.62,0,0,0,.43,4.27l.84-.49-2.33-2.48c-.44-.47-1.14.24-.7.71Z"/><path d="M56.69,239.71a21.64,21.64,0,0,1,3.5,3.53c.34.44,1.11-.14.78-.61a8.35,8.35,0,0,1-1.52-4l-1,.13L60,243c.15.42.87.52,1,0,.14-.75.31-1.5.52-2.23.11-.37.22-.73.35-1.09,0-.17.11-.33.17-.5a.69.69,0,0,0,.07-.15s0,0,0,0c-.2.07-.32,0-.36-.22l.06-.25,0,0a.5.5,0,0,0,.87.51.7.7,0,0,0-.09-.79.78.78,0,0,0-.73-.25c-.58.14-.73.8-.9,1.29a22.74,22.74,0,0,0-.88,3.36h1l-1.51-4.27a.49.49,0,0,0-.54-.36.5.5,0,0,0-.44.49,9.38,9.38,0,0,0,1.66,4.53l.78-.61A20.76,20.76,0,0,0,57.4,239a.51.51,0,0,0-.71,0,.5.5,0,0,0,0,.7Z"/><path d="M98.7,217.31a8.51,8.51,0,0,1,2.48,2.52.5.5,0,0,0,.93-.25,6.48,6.48,0,0,1,.71-3.26l-.93-.25c.13,1.46.22,2.91.27,4.37a.51.51,0,0,0,.94.25l1-1.59c.18-.26.35-.53.52-.79a1,1,0,0,1,.15-.19l.08-.05q.23,0-.21-.12a.5.5,0,0,0,.86-.5c-.46-.82-1.38-.19-1.74.35-.53.8-1,1.59-1.56,2.39l.93.25c0-1.46-.14-2.91-.27-4.37,0-.45-.69-.73-.93-.25a7.55,7.55,0,0,0-.85,3.76l.93-.25a9.4,9.4,0,0,0-2.84-2.88c-.54-.36-1,.51-.5.86Z"/><path d="M165.85,115.85a3.09,3.09,0,0,1,.74,1,1,1,0,0,0,.07.15l0,.07h0c0,.1.07.2.1.3s.06.2.08.3l0,.16a.17.17,0,0,1,0,.07s0,0,0,0a.51.51,0,0,0,.5.5.52.52,0,0,0,.5-.5l.4-3.09h-1a21.54,21.54,0,0,1-.1,3.31.49.49,0,0,0,.37.48.5.5,0,0,0,.56-.23l.79-1.37.4-.69.18-.31.09-.16,0-.06c-.12.22-.32.11-.6-.34l.13-.22,0,0a.51.51,0,0,0,0,.71.52.52,0,0,0,.71,0,.63.63,0,0,0-.47-1.06c-.49,0-.71.54-.91.89l-1.2,2.09.93.25a21.54,21.54,0,0,0,.1-3.31.51.51,0,0,0-.5-.5.51.51,0,0,0-.5.5l-.4,3.09h1a4.37,4.37,0,0,0-1.36-2.74.52.52,0,0,0-.71,0,.51.51,0,0,0,0,.71Z"/><path d="M174.14,129.74l1.57,3.25c.23.47.91.2.93-.25a12.5,12.5,0,0,1,.53-3l-1-.13-.16,3.11a.5.5,0,0,0,1,.14,3.89,3.89,0,0,1,2.12-2.42.51.51,0,0,0,.18-.68.51.51,0,0,0-.69-.18,4.82,4.82,0,0,0-2.57,3l1,.13.16-3.11a.51.51,0,0,0-1-.14,14.33,14.33,0,0,0-.56,3.31l.93-.26L175,129.24a.5.5,0,1,0-.86.5Z"/><path d="M196.92,126.69l2,3.26a.51.51,0,0,0,.94-.25,5.69,5.69,0,0,1,.42-2.49l-.93-.25.07.87a.5.5,0,0,0,1,0l-.07-.87a.53.53,0,0,0-.37-.48.5.5,0,0,0-.57.23,6.83,6.83,0,0,0-.55,3l.93-.25-2-3.27a.5.5,0,0,0-.87.51Z"/><path d="M200.42,128.74a3,3,0,0,0,.87-1,3.18,3.18,0,0,0,.35-1.28.5.5,0,0,0-1,0,.62.62,0,0,0,0,.13s0,.09,0,0,0,0,0,0a2,2,0,0,1-.05.24,2.41,2.41,0,0,1-.08.25s0,.08,0,0,0,0,0,0l-.06.12-.12.21-.07.1s-.06.07,0,0,0,0,0,0a1,1,0,0,1-.17.18l-.09.09s-.16.13,0,0a.5.5,0,0,0-.23.3.49.49,0,0,0,.05.39.53.53,0,0,0,.3.23.5.5,0,0,0,.38-.06Z"/><path d="M180.75,115.78a9.73,9.73,0,0,1,1.54,3.15.5.5,0,0,0,.55.36.48.48,0,0,0,.43-.49,7.2,7.2,0,0,1,.35-3l-1-.14a12.64,12.64,0,0,1-.08,2.75.52.52,0,0,0,.23.56.48.48,0,0,0,.6-.08,16.55,16.55,0,0,0,2-3l-.79.1a.34.34,0,0,1,.1.31.5.5,0,0,0,.5.5.52.52,0,0,0,.5-.5,1.34,1.34,0,0,0-.39-1,.51.51,0,0,0-.79.1,15.64,15.64,0,0,1-1.83,2.84l.83.48a13.78,13.78,0,0,0,.12-3,.5.5,0,0,0-1-.13,8,8,0,0,0-.39,3.29l1-.13a10.71,10.71,0,0,0-1.64-3.4.54.54,0,0,0-.69-.18.52.52,0,0,0-.18.69Z"/><path d="M187.68,134.38a14.44,14.44,0,0,0,1.87,2.85.5.5,0,0,0,.79-.61,2.62,2.62,0,0,1-.05-2h-1a5.58,5.58,0,0,1,.16,2,.49.49,0,0,0,.37.48.5.5,0,0,0,.56-.23l1.73-2.63a.5.5,0,0,0-.18-.68.5.5,0,0,0-.68.18l-1.73,2.63.93.25a6.3,6.3,0,0,0-.19-2.29.5.5,0,0,0-1,0,3.7,3.7,0,0,0,.16,2.81l.78-.61a13.23,13.23,0,0,1-1.72-2.65.5.5,0,0,0-.68-.18.51.51,0,0,0-.18.69Z"/><path d="M151.61,112.19a2.37,2.37,0,0,0-.87-4.52l.5.5a3.41,3.41,0,0,0-3.32-3.57.5.5,0,0,0,0,1,2.41,2.41,0,0,1,2.32,2.57.51.51,0,0,0,.5.5,1.42,1.42,0,0,1,1.23,1.18,1.45,1.45,0,0,1-.86,1.47c-.58.28-.08,1.14.5.87Z"/><path d="M138.42,96.7a4.31,4.31,0,0,1,3.75-1.13,3.45,3.45,0,0,0,2.42-.71,61.61,61.61,0,0,0,5.33-4.76c3.59-3.35,7.25-6.69,11.65-8.95l-.75-.43.1.8c.08.63,1.08.63,1,0l-.1-.8a.51.51,0,0,0-.75-.44c-4.36,2.24-8,5.53-11.58,8.85A58.42,58.42,0,0,1,144,94.06c-1.16.83-2.31.28-3.6.5A4.87,4.87,0,0,0,137.71,96a.5.5,0,0,0,.71.71Z"/><path d="M199.07,84.69c-.41-1.06.57-1.88,1.3-2.5a15.16,15.16,0,0,0,2.25-2.28,7.58,7.58,0,0,0,1.67-5.8c-.09-.57-1-.41-1,.13l0,1.66a.5.5,0,0,0,1,0l0-1.66-1,.14A7.16,7.16,0,0,1,201,80.27c-1.19,1.23-3.67,2.61-2.87,4.69.23.59,1.19.34,1-.27Z"/><path d="M199.73,86a32.88,32.88,0,0,0,4.59-6.62,33.3,33.3,0,0,0,1.59-3.56c.19-.49.57-1.17.29-1.7A.75.75,0,0,0,205,74c-.51.39.21,1.1.71.7l.08-.07-.35.15c-.24,0,0-.27-.21,0a1.63,1.63,0,0,0-.13.37c-.09.24-.18.48-.28.72-.19.5-.4,1-.62,1.49a30.51,30.51,0,0,1-1.47,2.84A31.88,31.88,0,0,1,199,85.29c-.43.48.28,1.19.7.71Z"/><path d="M223.08,113.43a118,118,0,0,0,8.73-9.7.51.51,0,0,0-.1-.79,1.65,1.65,0,0,0-1.34-.1c-.6.22-.34,1.19.27,1a.67.67,0,0,1,.57,0l-.11-.78a118,118,0,0,1-8.73,9.7.5.5,0,0,0,.71.71Z"/><path d="M221.78,109.41q4.35-3.66,8.52-7.49a.48.48,0,0,0,.13-.48.67.67,0,0,0-1.12-.31c-.5.39.21,1.1.71.7l.06,0-.36.15-.25-.24.13-.48q-4.18,3.82-8.52,7.48c-.5.41.21,1.12.7.71Z"/><path d="M219.15,104.73a112.27,112.27,0,0,0,10.95-5.67.51.51,0,0,0-.39-.92l-.54.1c-.63.1-.36,1.06.27,1l.54-.09-.39-.91a112.11,112.11,0,0,1-10.94,5.67c-.59.26-.08,1.12.5.86Z"/><path d="M217.4,101.72q2.67-1,5.4-1.84c.9-.27,1.8-.51,2.7-.74.44-.12.88-.22,1.32-.32s.79-.13,1.06-.51a.47.47,0,0,0,0-.5.59.59,0,0,0-.55-.31.5.5,0,0,0-.48.36l0,0c-.22.61.75.87,1,.27l0-.05-.49.37h.08l-.43-.25,0,.06v-.5l-.07.09.3-.23c-.82.3-1.73.43-2.57.65s-1.68.45-2.52.71c-1.69.51-3.37,1.09-5,1.72-.59.23-.33,1.2.27,1Z"/><path d="M215,96.75l11.38.25V96h-.82a.5.5,0,0,0,0,1h.82a.5.5,0,0,0,0-1L215,95.75a.5.5,0,0,0,0,1Z"/><path d="M212.48,92.24a103.61,103.61,0,0,0,13.92,3.21.5.5,0,0,0,.27-1l-.47-.17c-.6-.22-.87.75-.26,1l.46.17.27-1a104.1,104.1,0,0,1-13.93-3.21c-.61-.19-.88.78-.26,1Z"/><path d="M210.78,89c2.76.79,5.57,1.35,8.33,2.14,1.37.39,2.72.86,4.07,1.33.67.23,1.34.48,2,.68a4.76,4.76,0,0,1,1.65.61l.49-.84-.29-.11c-.59-.24-.85.72-.26,1l.28.12c.45.18.87-.54.49-.84a10.79,10.79,0,0,0-3.2-1.23c-1.46-.5-2.91-1-4.39-1.47-2.94-.88-6-1.46-8.92-2.31a.5.5,0,0,0-.27,1Z"/><path d="M207.68,83.15q7.4,3.52,14.86,6.88a7.48,7.48,0,0,1,1.55.67c.27.23.31.53.68.69a1.18,1.18,0,0,0,1.59-.64c.61-1.61-1.73-2.28-2.31-.74-.23.6.73.86,1,.27.16-.41-7.19-3.49-7.93-3.83q-4.47-2.06-8.9-4.17c-.58-.27-1.08.59-.5.87Z"/><path d="M210.94,81.7a37.09,37.09,0,0,1,13.59,6.8c.5.4,1.21-.3.71-.7a38.26,38.26,0,0,0-14-7.07.5.5,0,0,0-.27,1Z"/><path d="M230.93,78l.54-1-.87-.51-4.37,9.65c-.26.58.57,1.09.86.51l.43-.86c.29-.57-.58-1.08-.86-.5l-.43.85.86.51,4.38-9.65c.26-.58-.55-1.08-.87-.51l-.54,1a.5.5,0,0,0,.87.51Z"/><path d="M233.12,79.39l-4.63,9c-.3.57.56,1.08.86.5l4.63-9c.3-.57-.57-1.08-.86-.51Z"/><path d="M233.88,89l-2,1.64-1,.81-.5.42-.25.21-.12.1c0-.08.13-.07.26,0l.18.18,0,.42-.22.13h0l-.38,0,0,0a.52.52,0,0,0,.68-.18.51.51,0,0,0-.18-.69.61.61,0,0,0-.56,0,.66.66,0,0,0-.28.38.61.61,0,0,0,.45.76c.38.09.67-.18.93-.41l.72-.6,2.9-2.43a.49.49,0,0,0,0-.7.5.5,0,0,0-.71,0Z"/><path d="M237.77,91.37l-5.9,3.56a.5.5,0,0,0,.51.86l5.9-3.55a.5.5,0,0,0-.51-.87Z"/><path d="M240.07,97q-3.62,1.33-7.1,2.95c-.59.27-.08,1.13.5.86q3.38-1.56,6.86-2.84c.6-.22.34-1.19-.26-1Z"/><path d="M243.14,99.81l-9.72,1.81c-.63.11-.36,1.08.27,1l9.71-1.81c.63-.12.37-1.08-.26-1Z"/><path d="M245.14,103.67l-11.75.32c-.64,0-.65,1,0,1l11.75-.32c.64,0,.64-1,0-1Z"/><path d="M238.73,137l6.79,6.67.7-.71a21.68,21.68,0,0,1-4.56-6.19l-.79.6,7.78,6.6a.5.5,0,0,0,.7-.7l-5.64-6.67-.22.84c1.2-.3,3.08,2.11,3.9,2.87l3.12,2.89c.48.44,1.18-.26.71-.7a39.26,39.26,0,0,1-5.82-6.91l-.57.74c3.52.86,5.06,4.85,8.19,6.44.49.24,1-.38.61-.79a27,27,0,0,1-5.76-7.65l-.57.74c3.6.68,5.09,4.9,8.18,6.54.48.26,1-.39.6-.78a30.3,30.3,0,0,1-6.84-9l-.79.61,8.51,7.23c.49.41,1.17-.24.71-.71-2.58-2.67-5.2-5.42-6.5-9l-.84.48,10.73,9.68a.5.5,0,0,0,.71-.7,69.19,69.19,0,0,1-7.06-9.3l-.79.61,8.69,7.81a.5.5,0,0,0,.7-.71,49.28,49.28,0,0,1-6.23-8.54l-.78.61,8.36,8.21c.47.46,1.11-.22.71-.71a78.76,78.76,0,0,1-5.69-7.91l-.79.61a57.82,57.82,0,0,0,8.08,7.07c.52.38,1-.49.5-.86a56.28,56.28,0,0,1-7.87-6.92.51.51,0,0,0-.79.61,83,83,0,0,0,5.85,8.11l.71-.71L257,129.2a.5.5,0,0,0-.78.61,49.72,49.72,0,0,0,6.39,8.74l.7-.71L254.63,130a.5.5,0,0,0-.78.61,70.59,70.59,0,0,0,7.21,9.49l.71-.7L251,129.75c-.34-.31-1,0-.84.48,1.37,3.73,4.05,6.61,6.76,9.42l.71-.71-8.51-7.23a.5.5,0,0,0-.78.6,30.88,30.88,0,0,0,7,9.17l.61-.78c-3.2-1.71-4.62-5.92-8.41-6.65a.51.51,0,0,0-.57.74,28.43,28.43,0,0,0,5.92,7.85l.61-.79c-3.24-1.64-4.74-5.63-8.43-6.54-.4-.09-.82.36-.57.74a41.07,41.07,0,0,0,6,7.1l.71-.7-4.51-4.19c-1-.91-2-2.2-3.49-1.84a.51.51,0,0,0-.22.84l5.65,6.66.7-.7-7.77-6.6a.5.5,0,0,0-.79.6,22.54,22.54,0,0,0,4.73,6.4c.46.44,1.16-.26.7-.71l-6.78-6.66c-.46-.45-1.17.25-.71.7Z"/><path d="M189.47,161.74a34.52,34.52,0,0,1,6.18,6.54l.87-.51a29.27,29.27,0,0,1-3.47-6.11l-.83.48c1.93,1.59,3.79,3.27,5.56,5,.46.47,1.09-.21.7-.71a33.74,33.74,0,0,1-3.8-6.18l-.79.61a32.34,32.34,0,0,0,6.24,5.67c.41.29,1-.27.68-.68l-4.36-6.66-.79.61a91.83,91.83,0,0,0,6.89,6.78.5.5,0,0,0,.78-.61l-4.17-8.1-.78.61,7,6.72a.51.51,0,0,0,.79-.61l-3.76-6.76-.78.61,7.33,6.34c.4.34,1.13-.11.78-.61l-5.12-7.38-.68.69,8.45,5.95c.4.28,1-.29.68-.69l-4.53-6.27-.68.68,7.49,4.93c.5.33,1-.37.61-.78l-5.37-6.12-.6.78a58.9,58.9,0,0,1,8.85,4.68.5.5,0,0,0,.61-.78,36.9,36.9,0,0,1-5.65-7l-.68.68a80,80,0,0,1,7.75,5.33l.6-.79a12.92,12.92,0,0,1-4.67-5.62l-.69.68,9,5.71c.47.3,1-.43.6-.79a32.28,32.28,0,0,1-6.83-7.68l-.69.68,7.92,5.5c.46.32,1-.42.6-.79-2.23-1.85-4.46-3.75-5.69-6.44l-.69.69,8.17,5.46c.46.31,1.05-.43.6-.79a22.55,22.55,0,0,1-5.15-5.82l-.68.68,8.57,5c.48.28,1-.39.61-.78a32.11,32.11,0,0,1-6.56-7.21l-.68.68a76.58,76.58,0,0,1,8.57,6c.5.39,1.21-.3.71-.71a20.21,20.21,0,0,1-5.36-5.7l-.69.68a53,53,0,0,1,6.74,4.44l.61-.79c-1.9-1.45-4.06-3.17-4.34-5.72l-.75.43a24.57,24.57,0,0,1,7.31,4.86l.61-.78a13.9,13.9,0,0,1-6.34-6.18l-.56.73c3.49.67,5,4.85,8.72,5.11.65,0,.64-1,0-1-3.45-.24-5.06-4.43-8.45-5.07a.51.51,0,0,0-.57.73,14.8,14.8,0,0,0,6.69,6.54c.49.24,1-.37.61-.78a25.21,25.21,0,0,0-7.52-5c-.3-.13-.8,0-.75.43.33,3,2.6,4.88,4.84,6.59.44.34,1.05-.44.6-.79a55.18,55.18,0,0,0-6.94-4.59.5.5,0,0,0-.68.68,20.82,20.82,0,0,0,5.51,5.91l.71-.71a78.92,78.92,0,0,0-8.77-6.1.5.5,0,0,0-.69.68,32.88,32.88,0,0,0,6.71,7.42l.61-.79-8.58-5a.5.5,0,0,0-.68.68,23.35,23.35,0,0,0,5.31,6l.6-.78-8.16-5.47c-.46-.3-.88.27-.69.69,1.27,2.76,3.56,4.74,5.86,6.64l.6-.79-7.91-5.49c-.42-.29-1,.27-.69.68a33.34,33.34,0,0,0,7,7.89l.6-.79-9-5.7c-.47-.3-.87.27-.69.68a13.78,13.78,0,0,0,5,6c.46.32,1.06-.43.61-.78a81.43,81.43,0,0,0-8-5.48.5.5,0,0,0-.68.68,37.54,37.54,0,0,0,5.8,7.19l.61-.78a59,59,0,0,0-8.86-4.68.5.5,0,0,0-.6.78L215.2,162l.61-.78-7.5-4.93c-.4-.26-1,.28-.68.68l4.53,6.28.69-.69-8.46-5.95c-.4-.28-1,.28-.68.69l5.12,7.37.79-.6-7.34-6.34a.5.5,0,0,0-.78.61l3.75,6.76.79-.61-7-6.72a.5.5,0,0,0-.78.61l4.17,8.1.79-.61a86.43,86.43,0,0,1-6.89-6.78c-.38-.41-1.1.13-.78.61l4.36,6.65.68-.68a31.29,31.29,0,0,1-6-5.52c-.39-.46-1,.13-.78.6a34.21,34.21,0,0,0,4,6.39l.7-.71q-2.65-2.66-5.55-5c-.34-.28-1.05,0-.84.48a31,31,0,0,0,3.56,6.36c.38.51,1.24,0,.87-.51a35.86,35.86,0,0,0-6.34-6.74c-.5-.4-1.21.3-.71.71Z"/><path d="M268.92,198a8,8,0,0,0,3.74,3.47.52.52,0,0,0,.69-.18.5.5,0,0,0-.18-.68,7.12,7.12,0,0,1-3.39-3.11.49.49,0,0,0-.68-.18.5.5,0,0,0-.18.68Z"/><path d="M268.51,197.86a2,2,0,0,0,2.16-.25l2.62-1.54-.75-.43a3.84,3.84,0,0,0,1.5,2.8,3.52,3.52,0,0,0,1.43.69c.39.08,1.06,0,1.25.44.27.59,1.14.08.87-.5-.44-.95-1.65-.72-2.45-1.11a2.85,2.85,0,0,1-1.6-2.32.51.51,0,0,0-.76-.43l-2,1.21c-.41.24-1.23.93-1.72.58s-1,.49-.5.86Z"/><path d="M272.85,201.73a19.33,19.33,0,0,0,.75,5.86.5.5,0,0,0,1-.27,18.5,18.5,0,0,1-.71-5.59c0-.64-1-.64-1,0Z"/><path d="M274.17,207.78l2.86-.13a.5.5,0,0,0,.49-.63,9.47,9.47,0,0,1,0-6.83c.23-.6-.73-.86-1-.27a10.4,10.4,0,0,0-.05,7.37l.48-.64-2.86.13c-.64,0-.64,1,0,1Z"/><path d="M273.52,202.65a5.18,5.18,0,0,1,3.52-1.92.5.5,0,0,0,0-1,6.23,6.23,0,0,0-4.38,2.41.5.5,0,1,0,.86.51Z"/><path d="M275,211c-.27,1.15.67,2,1.43,2.71l1.32,1.24.68.64c.21.19.43.37.62.58a.5.5,0,1,0,.7-.71,13.91,13.91,0,0,0-1.12-1.05l-1.22-1.15a13.25,13.25,0,0,1-1.07-1,1.12,1.12,0,0,1-.37-1c.15-.62-.82-.89-1-.26Z"/><path d="M274.79,211.31l3.49-.85a.5.5,0,1,0-.27-1l-3.49.86a.5.5,0,0,0-.35.61.52.52,0,0,0,.62.35Z"/><path d="M278,209.88a13.86,13.86,0,0,0,2.45,2.33,13.56,13.56,0,0,0,1.37.91c.24.14.48.27.73.39l.39.19.16.07.11,0c.05,0,.05,0,0,0l-.07-.25v.07l.06-.26v0l.18-.18h0l.25-.07.15,0,.18.18,0,0,.07.25v0l-.25.43,0,0c.53-.35,0-1.22-.5-.86a.55.55,0,0,0,.15,1,.58.58,0,0,0,.67-.83c-.18-.35-.62-.45-.95-.61s-.67-.35-1-.54a13.23,13.23,0,0,1-3.43-3,.52.52,0,0,0-.71,0,.51.51,0,0,0,0,.71Z"/><path d="M280.06,216.37a7.32,7.32,0,0,1,3.94-2.49.5.5,0,0,0-.27-1,8.28,8.28,0,0,0-4.38,2.75.52.52,0,0,0,0,.71.51.51,0,0,0,.71,0Z"/><path d="M278.83,216.12a7.8,7.8,0,0,0,.27,6.14.51.51,0,0,0,.69.18.52.52,0,0,0,.18-.69,6.75,6.75,0,0,1-.17-5.36.5.5,0,1,0-1-.27Z"/><path d="M279.28,222.65l3-.19a.51.51,0,0,0,.5-.5.5.5,0,0,0-.5-.5l-3,.19a.5.5,0,0,0-.5.5.51.51,0,0,0,.5.5Z"/><path d="M283.12,219l.32-3.67a.5.5,0,0,0-1,0l-.32,3.67a.5.5,0,0,0,1,0Z"/><path d="M279.88,226.31a13.54,13.54,0,0,0,4.87,2.92.5.5,0,1,0,.26-1,12.57,12.57,0,0,1-4.42-2.66c-.47-.44-1.18.26-.71.7Z"/><path d="M280.23,225.85a14.1,14.1,0,0,0,3.48-.67.51.51,0,0,0,.35-.62.5.5,0,0,0-.61-.35,12.77,12.77,0,0,1-3.22.64.51.51,0,0,0-.5.5.5.5,0,0,0,.5.5Z"/><path d="M283.66,225.41l3.67,2.07a.5.5,0,1,0,.5-.86l-3.66-2.08a.5.5,0,0,0-.51.87Z"/><path d="M286.09,227.84l-2.1,1.88a.5.5,0,0,0,.71.71l2.1-1.89a.5.5,0,0,0,0-.7.51.51,0,0,0-.71,0Z"/><path d="M284.13,229.36a5.09,5.09,0,0,0-2,3.78.51.51,0,0,0,.5.5.51.51,0,0,0,.5-.5c0-.08,0-.16,0-.24s0-.1,0-.06,0-.08,0-.09a3.29,3.29,0,0,1,.09-.43,4,4,0,0,1,.31-.8l.22-.38.14-.19,0,0,.06-.07.3-.33.17-.16.1-.08,0,0a.51.51,0,0,0,.18-.68.5.5,0,0,0-.68-.18Z"/><path d="M282.94,232.85a24,24,0,0,1,4.15.12.5.5,0,0,0,.5-.5.51.51,0,0,0-.5-.5,24,24,0,0,0-4.15-.12.51.51,0,0,0-.5.5.5.5,0,0,0,.5.5Z"/><path d="M287.24,231.19a12.29,12.29,0,0,0,.22-2.84.5.5,0,1,0-1,0,10,10,0,0,1,0,1.34,2,2,0,0,1,0,.34c0,.05,0,.1,0,.15s0,.16,0,.08c0,.22-.07.45-.12.67a.51.51,0,0,0,.35.61.51.51,0,0,0,.62-.35Z"/><path d="M279.83,198.47c3.34-1.76,6.76-3.39,10.23-4.89.59-.25.08-1.12-.51-.86q-5.21,2.24-10.22,4.89c-.57.3-.07,1.16.5.86Z"/><path d="M284.54,213.62l4.33-1.65,2.16-.83a14.11,14.11,0,0,0,2-.77c.57-.31.06-1.18-.5-.86a7.77,7.77,0,0,1-1,.37l-1.08.42-2,.76-4.17,1.59c-.6.23-.34,1.2.26,1Z"/><path d="M290.24,226.26c1.9-1,3.79-2,5.76-2.9.91-.4,1.84-.72,2.76-1.1a3.33,3.33,0,0,0,1.84-1.43c.3-.57-.56-1.08-.86-.51a3,3,0,0,1-1.84,1.2c-.93.34-1.85.72-2.75,1.13-1.85.83-3.63,1.79-5.41,2.75-.57.3-.06,1.16.5.86Z"/><path d="M262.25,174.36a42.71,42.71,0,0,1,7.2-8.33.5.5,0,0,0,0-.71c-.82-.77-2.15-.71-3.2-.94a25.07,25.07,0,0,1-3.91-1.15,24.21,24.21,0,0,1-3.66-1.77c-.94-.55-1.95-1.17-3-.6-.57.3-.06,1.17.5.86s1.22.14,1.71.42.94.55,1.42.81a26.75,26.75,0,0,0,3,1.32,24.51,24.51,0,0,0,3.23,1c.53.12,1.07.22,1.61.31a3,3,0,0,1,1.62.47v-.71a43.1,43.1,0,0,0-7.36,8.53c-.36.54.51,1,.86.51Z"/><path d="M261.42,174.12a5.86,5.86,0,0,1,.7,3.55.5.5,0,0,0,.5.5.51.51,0,0,0,.5-.5,6.77,6.77,0,0,0-.84-4.06c-.31-.56-1.18-.05-.86.51Z"/><path d="M268.28,167q5.1,0,10.2-.17a.5.5,0,0,0,0-1q-5.1.14-10.2.17a.5.5,0,0,0,0,1Z"/><path d="M269.88,197.43c0-.2,0-.4,0-.6s0-.09,0-.13a.28.28,0,0,1,0-.09c0,.06,0,.06,0,0a2.33,2.33,0,0,1,.05-.28,3.56,3.56,0,0,1,.15-.56c0-.1.06-.19.1-.29s0,.09,0,0l.07-.15a.51.51,0,0,0-.18-.69.5.5,0,0,0-.68.18,5.62,5.62,0,0,0-.57,2.64.51.51,0,0,0,.5.5.51.51,0,0,0,.5-.5Z"/><path d="M265.5,177.44q2.21,5.72,4.32,11.47l.91-.39-.6-1.06c-.32-.56-1.18-.05-.87.51l.61,1.06c.27.48,1.11.16.91-.39q-2.11-5.74-4.31-11.47c-.23-.59-1.2-.33-1,.27Z"/><path d="M267.66,179.39a31.21,31.21,0,0,0,4.16,10c.34.54,1.21,0,.86-.5a30.23,30.23,0,0,1-4.06-9.78c-.14-.63-1.1-.36-1,.27Z"/><path d="M269.55,178.91q1.59,4.77,3.47,9.42c.24.59,1.2.33,1-.26q-1.89-4.66-3.46-9.42c-.2-.61-1.17-.35-1,.26Z"/><path d="M271.46,179.23a69.79,69.79,0,0,0,2.75,8.59c.24.59,1.2.34,1-.26a72.16,72.16,0,0,1-2.76-8.59c-.15-.63-1.12-.36-1,.26Z"/><path d="M272.58,179.23a81.81,81.81,0,0,0,2.7,7.81c.24.59,1.2.34,1-.26-1-2.56-1.92-5.17-2.7-7.81a.5.5,0,0,0-1,.26Z"/><path d="M274.17,179.87l1.91,5.58c.21.6,1.18.34,1-.27l-1.92-5.58c-.2-.6-1.17-.34-1,.27Z"/><path d="M275.9,180l1.58,4.63a.51.51,0,0,0,.61.35.51.51,0,0,0,.35-.62l-1.58-4.63a.52.52,0,0,0-.62-.35.51.51,0,0,0-.34.62Z"/><path d="M278.32,180.67l.64,2.09a1.18,1.18,0,0,0,.26.51.65.65,0,0,0,.76.12.67.67,0,0,0,.32-.56.58.58,0,0,0-.56-.57.5.5,0,0,0-.5.5.51.51,0,0,0,.5.5h0l-.26-.07a.39.39,0,1,1,.42-.65l0,0,0,0a.14.14,0,0,1,0-.06l-.06-.19-.2-.64-.41-1.34a.5.5,0,0,0-.61-.35.52.52,0,0,0-.35.62Z"/><path d="M279.8,180l.48,1.11a.44.44,0,0,0,.3.23.46.46,0,0,0,.38-.05.48.48,0,0,0,.23-.29l0-.14a.45.45,0,0,0-.07-.25l-.48-1.12a.5.5,0,0,0-.3-.23.51.51,0,0,0-.38.06.48.48,0,0,0-.23.29l0,.14a.45.45,0,0,0,.07.25Z"/><path d="M282.28,179l.8-.16a.5.5,0,0,0,.3-.23.5.5,0,0,0,.05-.38.53.53,0,0,0-.23-.3l-.12,0a.62.62,0,0,0-.27,0l-.8.16a.48.48,0,0,0-.29.23.5.5,0,0,0,.18.68l.11.05a.61.61,0,0,0,.27,0Z"/><path d="M285.17,178.48a.5.5,0,0,0,0-1,.5.5,0,0,0,0,1Z"/><path d="M220.2,239a15.24,15.24,0,0,0-5.2-3c-.88-.29-1.8-.41-2.68-.68a4.33,4.33,0,0,1-2.64-2.32c-2.31-4-3.53-8.6-4.67-13.07-1.17-4.63-2.4-9.21-3.84-13.76q-1.09-3.42-2.25-6.83c-.35-1.06-.71-3.77-2.36-3.4-.63.14-.36,1.1.27,1s4.15,12,4.51,13.2c1.3,4.34,2.3,8.76,3.51,13.13,1,3.78,2.25,8.15,4.65,11.34,1.05,1.39,2.43,1.67,4,2.06a14,14,0,0,1,6,3.09c.48.42,1.19-.28.71-.71Z"/></g></g></svg>