<svg xmlns="http://www.w3.org/2000/svg" viewBox="0 0 309.32 321.49"><g id="Layer_2" data-name="Layer 2"><g id="Layer_7_128" data-name="Layer 7,128"><path d="M9.2,93.44a436.7,436.7,0,0,1,43.85,1.44c7.06.51,14.1,1.18,21.15,1.81C81.69,97.35,90,99,97.46,98.24s10.05-11.63,1.87-13.81c-7.32-2-15.66-1.71-23.19-2.22-7.7-.53-15.39-1.11-23.09-1.52-14.8-.79-30.83-.11-44.92,4.81C4,86.94,4.41,93.57,9.2,93.44Z"/><path d="M96.43,97.34C99.59,76.4,99.92,55,99.92,33.85c0-9.66-15-9.67-15,0,0,21.13.33,42.55,3.49,63.49.6,4,7.42,4,8,0Z"/><path d="M91.82,35.43c9-.24,17.93.12,26.92-.12,8.31-.22,16.66-1.49,24.91-2.49,17.53-2.13,35.08-4.35,52.55-6.94,34.66-5.12,69.39-10,104.46-10.88,9.63-.25,9.67-15.25,0-15-35.08.92-69.84,6-104.45,11.5-17.15,2.71-34.2,5.88-51.4,8.32-8.58,1.22-17.24,2-25.79,3.35-9,1.42-18.11,3.43-27.2,4.17-5.11.42-5.27,8.23,0,8.09Z"/><path d="M.36,91c.14,4.62-.48,9.15-.34,13.77s.55,9.19.85,13.78q.81,12.8,1.45,25.6,1.37,27.09,2,54.22c.81,35.83.71,71.72-.11,107.56-.22,9.65,14.78,9.65,15,0q1.25-54.31-1.08-108.55-1.12-26.62-3-53.23-1-13.8-2.12-27.57c-.37-4.47-.68-9-1.31-13.39s-2-8.85-2.6-13.37C8.4,84.79.2,86,.36,91Z"/><path d="M14.47,309c9.92,1.08,19.62,2.74,29.59,3.34l28.6,1.72,58.18,3.5C166,319.68,202,323.67,237.18,320c19.14-2,38.45-6.19,55.6-15.17,9.38-4.91,1.11-18.92-8.28-14.17-29.74,15-62.4,16.47-95.13,15.17C152.43,304.37,115.5,302,78.57,300L47,298.37c-10.91-.58-21.64-.11-32.55-.14-7.09,0-6.74,10,0,10.78Z"/><path d="M292.31,301.92c3.86-8.32,4.62-18.3,5.63-27.33q1.59-14.23,3.08-28.49,2.89-28,4.82-56.12,3.9-56.7,3.43-113.52Q309,43.86,307.48,11.3c-.51-11-17.62-11-17.11,0a1785.9,1785.9,0,0,1-3.89,226c-.85,10.49-1.76,21-2.89,31.45-1.12,10.3-3.35,21.6-1.45,31.89.84,4.54,8.2,5.58,10.17,1.33Z"/><path d="M117.89,103l-3-58.83c-.13-2.57-4.13-2.58-4,0l3,58.83c.13,2.56,4.13,2.57,4,0Z"/><path d="M117.58,106.14q25.17-1.68,50.38-2.64a2,2,0,0,0,1.93-2.53,299.34,299.34,0,0,1-4.34-51.85c0-1.89.58-4.82-1.62-5.71a2.23,2.23,0,0,0-2.75,1,2.45,2.45,0,0,0,.35,2.82,2,2,0,0,0,1.95.51l.13,0c2.52-.49,1.45-4.35-1.07-3.86l-.12,0,1.94.52-.07-.09.59,1.41,0,.23-.52.88.1-.11-1.41.58h.15l-1-.28.21.14-.71-.72c-.11-.37-.13-.28-.08.28,0,.33,0,.65,0,1,0,.57,0,1.15,0,1.72,0,1.23,0,2.46,0,3.69,0,2.3.07,4.59.14,6.89q.24,7,.79,14c.74,9.42,1.94,18.79,3.54,28.1L168,99.5q-25.2.94-50.38,2.64c-2.56.18-2.58,4.18,0,4Z"/><path d="M112.51,44.65l30.6-1c5.06-.18,10.12-.37,15.18-.53a4.82,4.82,0,0,1,2.47.21c.14.09.09.06,0-.07.13.22,0,.7,0,.94-.17,1.79-.34,3.67,1.53,4.65,2.28,1.19,4.3-2.26,2-3.46.41.22.23.95.3,0,0-.41.11-.81.15-1.22a4.83,4.83,0,0,0-.45-2.75c-.94-1.78-3.06-2.3-4.91-2.35-2.52-.06-5.07.16-7.59.25l-7.72.26-31.59,1.09c-2.57.09-2.58,4.09,0,4Z"/><path d="M53.06,170l-4.8-26.12a2,2,0,0,0-1.93-1.47l-11.42-.17,2,2L36,124.09l-2,2a12.59,12.59,0,0,0,6.46-1.29,5.86,5.86,0,0,0,2.27-2.36c.4-.76.42-2.19,1.22-2.55,1-.48,2.76-.26,3.86-.33l4.68-.28c3.06-.18,6.12-.42,9.19-.55,2-.08,4.19,0,5.18,2,.82,1.66.77,3.7.76,5.51,0,2.13-.33,4.49.24,6.57.81,2.92,3.45,3.6,6.14,3.19,6.19-1,12.36-2.16,18.54-3.25,1.55-.27,3.1-.58,4.66-.81.3,0,.86-.24,1.14-.08-.34-.19-.12-.2-.13,0s0,.73,0,1.09c0,3.08,0,6.17,0,9.25,0,1.08.25,2.58-.23,3.6s-1.63,1-2.51,1.16c-3,.59-5.91,1.11-8.86,1.7s-4.8,2-5.14,5-.37,6.1-.55,9.13a43.58,43.58,0,0,1-.3,4.86c-.23,1.31-1.21,1.44-2.39,1.64-3.31.57-6.68.89-10,1.17a81,81,0,0,1-9.46.44c-2-.08-4.34-.4-5.29-2.38-1.12-2.31-4.57-.29-3.46,2,2.39,5,9,4.46,13.57,4.23,3.34-.18,6.68-.46,10-.85,1.64-.19,3.27-.41,4.91-.65a9.06,9.06,0,0,0,3.76-1.15c2.66-1.73,2.45-5.06,2.61-7.86.19-3.37.15-6.85.59-10.19.16-1.21,1-1.28,2.06-1.51,1.61-.33,3.23-.62,4.85-.93,2.66-.51,6.35-.59,8.33-2.71s1.54-5.5,1.54-8.17V136a21.48,21.48,0,0,0-.15-5.07c-.83-3.43-4.19-3.07-6.9-2.59l-10.07,1.76-10.32,1.81c-.62.11-2.49.77-3,.14s-.21-2.32-.2-3c0-4.37.54-9.81-3.43-12.74-2.68-2-6.12-1.55-9.25-1.37l-11.58.7c-3.27.2-6.64.18-7.77,3.87-.35,1.14-.61,1.77-1.78,2.19a10.93,10.93,0,0,1-3.77.44,2,2,0,0,0-2,2l.92,20.19a2,2,0,0,0,2,2l11.42.17L44.4,145l4.8,26.12c.46,2.53,4.32,1.46,3.86-1.06Z"/><path d="M107.5,247.56A103.59,103.59,0,0,1,106,236.47c-.14-1.79-.24-3.58-.29-5.37,0-.82,0-1.63,0-2.45a16.92,16.92,0,0,0,0-3.1c0-.22.19-.45-.13-.17a1.5,1.5,0,0,1,.63-.15c.82-.14,1.66-.18,2.49-.27l6-.65,11.42-1.24,5.21-.57c.53-.05,1.81-.43,2.31-.19.28.13.3.53.4.93a99.43,99.43,0,0,1,2,11c.24,1.77.43,3.55.58,5.33.07.81.13,1.62.18,2.44a5.07,5.07,0,0,1,0,2.16c-.41.88-2.2.69-3,.74l-5.93.33-25.2,1.42c-2.56.15-2.58,4.15,0,4l25.94-1.46c2.17-.12,4.35-.2,6.52-.37a6.43,6.43,0,0,0,4.53-1.76c1.25-1.4,1.28-3.29,1.16-5.06-.13-2.19-.34-4.38-.6-6.56A123.37,123.37,0,0,0,138,222.89c-.41-1.79-1-3.6-2.87-4.29s-3.82-.1-5.6.09l-12.9,1.41-6.7.73c-1.88.2-4.08.13-5.84.85-2.27.95-2.39,3.12-2.41,5.26,0,2.36,0,4.73.14,7.09a111.81,111.81,0,0,0,1.8,14.59c.47,2.53,4.33,1.46,3.85-1.06Z"/><path d="M104.19,253.22l.68,14.8c.09,2,0,4.39,1.56,6s3.66,1.49,5.63,1.33q14.79-1.19,29.56-2.42a2,2,0,0,0,1.93-2.53L139.13,252c-.6-2.5-4.46-1.44-3.85,1.06l4.42,18.37,1.92-2.53L115,271.07l-3.45.29a4.65,4.65,0,0,1-2,0c-.57-.25-.57-.89-.61-1.46-.09-1.1-.11-2.22-.16-3.32l-.61-13.32c-.12-2.57-4.12-2.58-4,0Z"/><path d="M104.51,255q9.08-1,18.17-1.87,4.42-.42,8.85-.81l4.67-.41,2.22-.19c.46,0,1.57-.25,1.8-.08l-.72-.72.1.2-.27-1,.07-.38.72-.72-.18.09,1.54-.2-.2,0c-2.51-.48-3.59,3.37-1.06,3.86a2.52,2.52,0,0,0,3.11-2.61c-.07-2.1-2.23-2.6-3.93-2.47-3.85.29-7.71.66-11.56,1q-11.67,1.07-23.33,2.35a2.06,2.06,0,0,0-2,2,2,2,0,0,0,2,2Z"/><path d="M109.7,280l3.47,13.45c.5,1.93.76,4.54,3,5.26a6.82,6.82,0,0,0,2.81.05l3.46-.33,13.88-1.33,3.47-.33a14.34,14.34,0,0,0,3-.4c2.14-.72,2.51-2.74,2.25-4.72q-1-7.65-2.69-15.22c-.54-2.51-4.4-1.45-3.85,1.07,1,4.71,1.9,9.47,2.55,14.26a6.28,6.28,0,0,0,.12,1.24c.33-.33.37-.46.11-.38l-1,.1-3.46.33-7.44.71-7.43.72-3.47.33-.82.07c-.49,0-.45.05.12.28,0,0-.44-1.67-.47-1.81l-3.72-14.42c-.64-2.49-4.5-1.43-3.86,1.07Z"/><path d="M109.4,281.25a258.89,258.89,0,0,1,33.59-3c2.57-.06,2.58-4.06,0-4a264.62,264.62,0,0,0-34.65,3.14,2,2,0,0,0-1.4,2.46,2,2,0,0,0,2.46,1.39Z"/><path d="M64.39,243.08a28.14,28.14,0,0,0-.28-7c-.31-1.88-.67-4.23-1.92-5.74-1.39-1.67-3.5-1.56-5.48-1.57l-7.18-.06,1.93,1.47a103.91,103.91,0,0,1-.7-20.1l-2,2q22.52-.27,45,1.26l2.47.17a4.83,4.83,0,0,0,1.31.1c.21-.06,0-.33-.11-.13a9.45,9.45,0,0,0,0,2.49v19.93a49.06,49.06,0,0,1,0,5c0,.28.24,0-.07,0s-.89,0-1.33.08l-2.48.12-5.94.31-25.25,1.3c-2.57.13-2.58,4.14,0,4l24.75-1.27,6-.31c1.85-.1,4.08.11,5.85-.51a3.94,3.94,0,0,0,2.51-3.88c.11-2.1,0-4.23,0-6.33V215.93c0-1.86.28-4-1.27-5.4-1.31-1.15-3.32-1-4.94-1.13L88.81,209q-6.16-.36-12.35-.6-13.84-.51-27.7-.34a2,2,0,0,0-2,2,110.06,110.06,0,0,0,.84,21.16,2,2,0,0,0,1.93,1.47l5.5,0,2.64,0c.56,0,1.17-.1,1.55.28a5.71,5.71,0,0,1,.61,2,23,23,0,0,1,.48,2.45,25.5,25.5,0,0,1,.08,5.59,2,2,0,0,0,2,2,2,2,0,0,0,2-2Z"/><path d="M285.1,258.87a120,120,0,0,0-20.31-1.16l2,2q1.21-28.2,2.87-56.37.48-8.07,1-16.14l-2.54,1.93a74.15,74.15,0,0,0,23.66,3.39c2.57-.05,2.58-4.05,0-4a70.57,70.57,0,0,1-22.59-3.24,2,2,0,0,0-2.53,1.92q-1.78,28.17-3.13,56.36-.39,8.07-.73,16.15a2,2,0,0,0,2,2,114.59,114.59,0,0,1,19.24,1,2.07,2.07,0,0,0,2.46-1.39,2,2,0,0,0-1.39-2.46Z"/><path d="M287.44,170.78l-9.8-.58-4.41-.26a8,8,0,0,0-2.07-.13c-.13.12.11.32.23.21a5.74,5.74,0,0,0,0-1.31l-.13-19.4-.12-19.16c0-.45-.06-1.3-.05-1.56,0,.36-.73.13.26.2s2.1.43,3.15.56a7.52,7.52,0,0,0,6.52-2.86c1.87-2.18,2.77-5.32,5.3-6.88a7.61,7.61,0,0,1,7-.52,2,2,0,0,0,2.46-1.39,2.05,2.05,0,0,0-1.4-2.47,11.2,11.2,0,0,0-8-.06,12.58,12.58,0,0,0-6.42,5.74c-1.27,2.1-2.66,4.92-5.55,4.4-2.32-.41-5.3-1.28-6.76,1.26-.74,1.29-.51,2.92-.5,4.33l0,6,.07,10.94c0,7.22.07,14.43.15,21.64,0,1.73.45,3.46,2.27,4.1s3.77.4,5.54.5l12.25.73c2.57.15,2.56-3.85,0-4Z"/><path d="M268.24,127.81c-4.12-1.23-5.68-6.75-3.23-10.11a2,2,0,0,0-1.73-3c-3,.34-9.87,1-9.65-3.8a21.71,21.71,0,0,1,1.82-6.36,12.1,12.1,0,0,1,3-4.67,6.94,6.94,0,0,0,1.86-2.14,10.46,10.46,0,0,0,.55-3,6.38,6.38,0,0,1,2.55-4.1,6.2,6.2,0,0,1,8.76,1.79,2.06,2.06,0,0,0,2.74.71c3.85-1.94,9-3.84,13.23-1.92,2.76,1.25,5.59,4.83,4.21,8a2.07,2.07,0,0,0,.72,2.74,2,2,0,0,0,2.73-.72c2.19-5-.45-10.54-5-13.15-5.63-3.2-12.51-1.09-17.87,1.61l2.74.72A10.45,10.45,0,0,0,266,85.48a10.33,10.33,0,0,0-8.58,6.78,10,10,0,0,0-.56,2.77c-.09,1.09-.39,1.28-1.2,2a14.49,14.49,0,0,0-3.41,4.89,41.86,41.86,0,0,0-2,5.67c-.65,2.23-.95,4.54.1,6.7,2.38,4.85,8.32,4.93,12.93,4.4l-1.72-3c-4,5.51-.78,14.08,5.62,16,2.47.74,3.53-3.12,1.06-3.85Z"/><path d="M148.33,99.4c-5,2.88-9.72,8.08-9.42,14.22.26,5.46,5,11.14,10.82,10.44l-1.93-2.53c-.86,6.22,1.23,13.56,7.24,16.56,5.19,2.6,12.47,1.17,15.27-4.23h-3.46A13.3,13.3,0,0,0,177.77,140a12.93,12.93,0,0,0,10.9-6.12,16.11,16.11,0,0,0,2-6.08c.09-.5.17-1.4.62-1.66s1.25,0,1.68,0a10.79,10.79,0,0,0,1.61-.07,10.89,10.89,0,0,0,3.91-20.49l.4,3.14c4.35-3.67,3.53-10.42.26-14.49-4-4.93-11.2-5.54-17-5L184,91.76c.84-5.78-4.39-9.92-9.91-9.26-2.47.3-5.33,1.3-6.94,3.3s-1.47,5.32,1.07,6.4a2.08,2.08,0,0,0,2.74-.72,2,2,0,0,0-.72-2.74c-.25-.1-.25.09-.15-.17a2.34,2.34,0,0,1,1.09-1,8.65,8.65,0,0,1,4.17-1.17c2.22,0,5.17,1.67,4.79,4.29-.16,1.15.5,2.67,1.93,2.53,4.51-.42,10.16-.39,13.57,3.1,2.45,2.5,3.29,7.1.39,9.55a2,2,0,0,0,.4,3.14,6.91,6.91,0,0,1-3.29,13.12c-2.15,0-4.13.06-5.43,2-1,1.48-.93,3.28-1.33,5a8.8,8.8,0,0,1-16.08,2.73,2,2,0,0,0-3.46,0c-1.82,3.52-6.69,4.47-10.07,2.66-4.1-2.22-5.73-7.51-5.12-11.91.15-1.12-.49-2.7-1.93-2.53-3.93.47-6.95-3.4-6.83-7.12.14-4.46,3.84-8,7.45-10.09,2.23-1.28.22-4.74-2-3.45Z"/><path d="M172,138.69a11.14,11.14,0,0,0,5.44,21.08l-2-2c-.51,5.93-.76,13.39,4.53,17.39,3.93,3,10.26,3.22,13.1-1.35h-3.45a17.15,17.15,0,0,0,31-7.14l-3.35.88a14.84,14.84,0,0,0,24.85-10.05l-3.42,1.42a12.07,12.07,0,0,0,14.08,3.2c4.87-2.22,7.36-7.74,6.56-12.87l-1.93,2.53c3.12.32,4.6-3,4.64-5.64a16.33,16.33,0,0,0-3-8.77,13.23,13.23,0,0,0-7.53-5.57,10.73,10.73,0,0,0-9,1.53l2.74,2.74a10.07,10.07,0,0,0-.87-9.77,14.18,14.18,0,0,0-8.8-5.71c-7.72-1.8-16.22-.13-23.25,3.26l2.94,1.19c-1.84-7.68-13.16-10.55-18.35-4.51-1.67,1.94,1.15,4.78,2.83,2.82,3.24-3.77,10.49-2.14,11.66,2.76a2,2,0,0,0,2.94,1.19,32.92,32.92,0,0,1,18.6-3.15c2.71.39,5.54,1.33,7.4,3.43,1.49,1.67,2.42,4.33,1.45,6.47a2.07,2.07,0,0,0,.31,2.43,2,2,0,0,0,2.42.31c3.49-2.62,8.12-1.18,10.68,2a14.5,14.5,0,0,1,2.68,5.94,4.91,4.91,0,0,1,.08,2.19,1.9,1.9,0,0,1-.38.94c.11-.11.21-.07-.16-.11-1.43-.14-2.11,1.39-1.93,2.53a8.06,8.06,0,0,1-4.72,8.35,8.15,8.15,0,0,1-9.23-2.57c-1.2-1.47-3.29-.13-3.41,1.41a10.83,10.83,0,0,1-18,7.22c-1-.88-3.08-.72-3.34.89a13.19,13.19,0,0,1-23.67,6.18,2,2,0,0,0-3.45,0c-1.71,2.75-6,1.51-7.89-.36-3.39-3.35-2.66-9.38-2.29-13.66a2,2,0,0,0-2-2A7.15,7.15,0,0,1,174,142.14c2.29-1.17.27-4.62-2-3.45Z"/><path d="M266.23,87.74l0-48.56a2,2,0,0,0-2-2l-30.52,2.43a27.18,27.18,0,0,1-6,.25c-1.85-.27-2.17-1.15-2-3,.42-5.1,1.06-10.19,1.59-15.27a2,2,0,0,0-2-2,2,2,0,0,0-2,2l-1.37,13.12c-.2,1.92-.57,3.92.24,5.75a5.64,5.64,0,0,0,3.42,2.94,11.66,11.66,0,0,0,4.4.45c2.15-.12,4.29-.34,6.44-.51l12.9-1,14.89-1.18-2-2,0,48.56c0,2.57,4,2.58,4,0Z"/><path d="M225,29.22,269.58,31l5.45.21,2.47.1a3.35,3.35,0,0,1,1,.06s-.26-.76,0,.17a6.68,6.68,0,0,1,0,2.14l-.12,2.49-.29,6L277,64.06l-.6,12.47L276.13,83,276,86l-.07,1.5-.05,1c-.07.28.11.14.54-.43h1.07l-.17,0,1.2.92-.08-.11.27,1-.66,1.1h-2l.07,0-.92-1.2,0,.15c.59,2.51,4.45,1.45,3.86-1.06a2.16,2.16,0,0,0-4-.43,2.3,2.3,0,0,0,2.41,3.49c2.12-.45,2.36-2.63,2.44-4.43l.33-6.73,1.31-27.18.65-13.47.32-6.73c.09-1.71.12-3.64-1.2-4.94-1.47-1.46-3.89-1.18-5.8-1.26l-6.68-.26-13.36-.52L225,25.22c-2.58-.1-2.57,3.9,0,4Z"/><path d="M266.71,38a52.41,52.41,0,0,1,15.43-6.52c2.5-.61,1.44-4.47-1.06-3.86a56.31,56.31,0,0,0-16.39,6.92c-2.18,1.37-.17,4.83,2,3.46Z"/><path d="M36.1,301.63c6.93-2.15,12.12-9.05,11.77-16.4a16.88,16.88,0,0,0-12.72-15.31l1.19,2.94c5.43-7.07,1.49-18.4-6.76-21.15l1.19,2.93c2-4.44,4.11-9.25,3.6-14.24-.42-4.09-2.42-8.17-6.24-10.07v3.45a17.53,17.53,0,0,0,5.67-21.67l-1.73,3c6.39.3,11.94-5.69,11.88-12a11,11,0,0,0-1.29-4.86c-.84-1.7-1.75-3.09-1-5a46.44,46.44,0,0,0,2.23-5.11,16.76,16.76,0,0,0,.62-5.32,17.71,17.71,0,0,0-4.45-11.06L39.7,175a10.8,10.8,0,0,0,4.37-9.24c-.1-4.12-2.17-7.82-4.42-11.14-3.73-5.51-10.33-13.43-17.81-9.5l2.74,2.74a16.38,16.38,0,0,0-3.43-19.45l-.88,3.34A16.57,16.57,0,0,0,30.9,113.86L29,116.39c10.34-.85,17.21-13.63,11.77-22.65-1-1.64-3.81-1-3.73,1l.18,4.61c.1,2.56,4.1,2.57,4,0L41,94.75l-3.72,1c3.77,6.26-.9,16-8.32,16.63A2,2,0,0,0,27,114.92a12.49,12.49,0,0,1-7.83,12.94,2,2,0,0,0-.89,3.34,12.34,12.34,0,0,1,2.8,14.61,2,2,0,0,0,2.74,2.74c2.25-1.18,4.64-.05,6.5,1.37a27.68,27.68,0,0,1,5.84,6.69c1.7,2.51,3.52,5.32,3.83,8.42.23,2.31-.35,5.06-2.35,6.49a2,2,0,0,0-.41,3.14,13.64,13.64,0,0,1,3.24,10.28,15.21,15.21,0,0,1-1.84,5.47c-1,2.05-1.72,4.15-1,6.43.56,1.89,1.94,3.5,2.26,5.47a7.31,7.31,0,0,1-.66,4.09,7.7,7.7,0,0,1-7.16,4.72,2,2,0,0,0-1.72,3,13.46,13.46,0,0,1-4.24,16.2c-1.13.79-1.45,2.73,0,3.45a8.43,8.43,0,0,1,4.31,7.32c.21,4-1.51,7.91-3.1,11.53a2,2,0,0,0,1.19,2.93c6.05,2,8.14,10.39,4.38,15.28a2,2,0,0,0,1.2,2.94,12.4,12.4,0,0,1,.95,24c-2.46.76-1.41,4.62,1.06,3.85Z"/><path d="M68.3,207.22a9,9,0,0,1-9.1-3.89A9.12,9.12,0,0,1,59.9,193a2,2,0,0,0-1.2-2.93c-2.61-.39-3.94-3.18-3.46-5.64.61-3.18,4.1-4.88,7-5.38,1.82-.32,3.71.05,5.47-.64s3.16-2.44,5-3.29c2.86-1.31,7.52-.54,7.63,3.35a2,2,0,0,0,3.41,1.41,5.3,5.3,0,0,1,8.39,6.15,2,2,0,0,0,1.72,3c3.43.17,5.07,4.43,4.72,7.38-.55,4.57-4.64,8.14-7.8,11.07-1.89,1.76,1,4.58,2.83,2.83,4.15-3.85,8.92-8.56,9-14.64.07-5.1-3.33-10.37-8.75-10.64l1.73,3a9.3,9.3,0,0,0-14.67-11l3.42,1.42a8.4,8.4,0,0,0-7.17-7.89,10.83,10.83,0,0,0-6.12.92,12.1,12.1,0,0,0-2.37,1.42,13.26,13.26,0,0,1-2.3,1.72,7.45,7.45,0,0,1-2.75.26,17.71,17.71,0,0,0-2.81.36,13.91,13.91,0,0,0-5,2.06A9.75,9.75,0,0,0,51.18,186c.29,3.63,2.62,7.38,6.46,7.94L56.45,191a12.93,12.93,0,0,0-.51,14.64,13.12,13.12,0,0,0,13.43,5.44c2.52-.5,1.45-4.35-1.07-3.86Z"/><path d="M181.16,280.64a9.57,9.57,0,0,1-5.59-7.33,9.75,9.75,0,0,1,3.82-8.86l-2.83-2.83c-.47.44-1.3.06-1.73-.31a2.06,2.06,0,0,1-.14-2.75c1.76-3,5.88-2.66,8.83-2.49v-4a5,5,0,0,1-4.47-5.12c.21-3.18,4.23-5.45,6.52-7.12,5.44-4,12.58-8.16,19.4-5.05,2.77,1.27,5.28,3.65,5.51,6.84.1,1.34,1.69,2.72,3,1.73,4.62-3.5,12.36-1.59,14.59,3.89.69,1.69.72,3.57,1.41,5.27a6.48,6.48,0,0,0,4.38,3.82c.61.2,1.19.33,1.39,1a4.4,4.4,0,0,1-.27,2.4,22.69,22.69,0,0,1-2.29,5c-1.94,3.28-4.84,6.56-9,6.28a2,2,0,0,0-1.93,2.53,10.87,10.87,0,0,1-2.28,11.13c-2.91,3.31-7,5.24-11.06,6.69a2,2,0,0,0-1.4,1.4,9.7,9.7,0,0,1-19.27-.49c-.08-1-.85-2.14-2-2a4.22,4.22,0,0,1-4.37-2.95c-.95-2.42-.49-5.25-.18-7.76a2,2,0,0,0-2-2,2,2,0,0,0-2,2c-.43,3.45-.74,7.13,1,10.3,1.44,2.69,4.44,4.81,7.58,4.41l-2-2A14.19,14.19,0,0,0,196.59,305c6.68.52,13.17-4.75,14.33-11.27l-1.4,1.4c4.93-1.76,10-4.13,13.32-8.31,3.18-4,4.8-9.54,2.82-14.43l-1.93,2.53c4.72.32,8.5-2.69,11.14-6.31a29,29,0,0,0,3.22-5.85c.85-2,1.63-4.34,1-6.53a4.92,4.92,0,0,0-1.89-2.74c-1-.72-2.37-.76-3.34-1.47-1.43-1.06-1.3-3.89-1.8-5.44a13.9,13.9,0,0,0-20.62-6.71l3,1.73c-.64-8.92-10.46-13.13-18.34-11.51-4.86,1-9.18,3.73-13.11,6.64-3.48,2.58-7.92,5.52-8,10.36a9,9,0,0,0,8.47,9c2.59.08,2.56-3.85,0-4-3-.17-6.06-.18-8.79,1.2a8.14,8.14,0,0,0-4.41,5.81c-.72,4.84,5.17,8.93,9.07,5.37a2,2,0,0,0,0-2.83,2.05,2.05,0,0,0-2.83,0,13.31,13.31,0,0,0,3.54,22.88,2,2,0,0,0,2.46-1.4,2,2,0,0,0-1.4-2.46Z"/><path d="M261.48,230.16c-3.76,3.67-9.63,4.85-14.63,5.79-2.25.43-5.17.72-7.08-.84-1.35-1.1-2.24-3-1.16-4.55,1-1.37-.65-3.57-2.26-2.94-3,1.17-8.31,3.27-10.7,0-1.21-1.67-1.16-4-1-6a19,19,0,0,1,1.88-6.74c1-2,3.11-4.63.47-6.35a27.44,27.44,0,0,0-2.59-1,5.06,5.06,0,0,1-1.84-1.66c-2.44-3.55-.73-7.83,2.06-10.6a21.51,21.51,0,0,1,6.49-4.12c1.24-.56,2.52-1,3.8-1.52a5.09,5.09,0,0,1,1.33-.39.91.91,0,0,0,.33,0c.51-.18-.12.39-.24-.29.31,1.68,2.9,1.94,3.66.47a7.82,7.82,0,0,1,14.68,5.13c-.4,1.8,2,3.58,3.34,1.95a2.39,2.39,0,0,1,3-.48,4.91,4.91,0,0,1,2.5,3.23c.33,1.05,1.8,6.83.17,7.12a2,2,0,0,0-1.4,2.46,2,2,0,0,0,2.46,1.4c5.27-.95,3.65-9.43,2.37-12.78a8.57,8.57,0,0,0-5.16-5.34,6.21,6.21,0,0,0-6.75,1.56l3.35,1.95a12.23,12.23,0,0,0-7.58-14c-5.36-1.95-11.84.81-14.42,5.81l3.66.48c-.34-1.86-2.22-2.69-4-2.62-1.95.08-3.9,1.08-5.66,1.82-3.89,1.62-7.63,3.67-10.26,7.06a12.36,12.36,0,0,0-2.56,10.81,10.43,10.43,0,0,0,2.74,4.66,8.9,8.9,0,0,0,2,1.48,10.19,10.19,0,0,0,1.41.58c.24.08.67.09.84.27l-.52-.88c-.14-.34-.36.32-.49.54-.21.37-.41.75-.6,1.13-.37.72-.69,1.47-1,2.23a21.89,21.89,0,0,0-1.28,4.71c-.49,3.11-.57,6.47.9,9.35,3.08,6,10.52,4.51,15.6,2.52l-2.25-2.94c-1.76,2.51-1.13,5.83.64,8.15,2.13,2.79,5.55,3.77,9,3.54A46.45,46.45,0,0,0,255.17,238a22.19,22.19,0,0,0,9.14-5c1.85-1.8-1-4.63-2.83-2.83Z"/><path d="M180.54,226.2c-3.51,2-9,4.38-11.73,0s-.48-9.52,1.19-13.75c.59-1.49-1.11-2.8-2.46-2.46-1.76.45-3.4-.51-4.71-1.65a20.13,20.13,0,0,1-4.17-4.84c-2.57-4.38,3.58-6.89,6.72-8a2,2,0,0,0,1.47-1.93,6.31,6.31,0,0,0-2.4-4.19c-1-.89-2.11-1.66-2.09-3.14.07-3.38,4-5,6.67-5.84,3-1,7-1.72,9.78.37,2,1.49,3,4.37,1.38,6.45l3.65,1.54c.25-1,1.57-1.2,2.43-.87,1.65.63,2.27,2.92,2.53,4.46a16.7,16.7,0,0,1-2.87,12.07,2,2,0,0,0,1.19,2.94c5.44,1.91,6.33,8.63,4.69,13.4s-6.26,11.11-11.93,11.37l1.93,1.47a2,2,0,0,0,0,.43c2.29-1.18.27-4.63-2-3.46a3.61,3.61,0,0,0-1.8,4.09,2,2,0,0,0,1.93,1.47c7.72-.36,13.72-7.84,15.92-14.71s-.3-15.35-7.62-17.91l1.2,2.93c3.36-4.91,4.86-12,2.56-17.65-1.05-2.6-3.13-4.8-6.07-5a5.54,5.54,0,0,0-5.88,3.92c-.59,2.34,2.34,3.26,3.65,1.54,1.9-2.49,1.64-5.9.22-8.54a10.12,10.12,0,0,0-7.85-5.11,20.83,20.83,0,0,0-11,2.08c-3.11,1.38-6,3.79-6.56,7.31a6.87,6.87,0,0,0,1.45,5.64,15.7,15.7,0,0,0,1.68,1.58c.35.31,1.17.85,1.23,1.37l1.47-1.93c-2.9,1-6,2.11-8.08,4.53a7.87,7.87,0,0,0-1.4,8.62,20.79,20.79,0,0,0,5.61,6.73c2.36,1.9,5.11,3.07,8.16,2.3l-2.46-2.46c-2.24,5.65-4.26,12.4-.15,17.74,4.29,5.59,11.35,3.52,16.56.57,2.24-1.26.23-4.72-2-3.45Z"/><path d="M272.25,254.86a5.38,5.38,0,0,1,2.52-2.2,5.67,5.67,0,0,1,3-.36c1.39.26,3-.91,2.46-2.46a15.75,15.75,0,0,1,.39-11.48,2.06,2.06,0,0,0-.71-2.74,2,2,0,0,0-2.74.72,19.82,19.82,0,0,0-.79,14.56l2.46-2.46a9.57,9.57,0,0,0-10,4.4c-1.33,2.22,2.13,4.23,3.45,2Z"/><path d="M272.37,200.24a48.74,48.74,0,0,0,10,.63l-2-2-1.9,15.22a2,2,0,0,0,2,2,2,2,0,0,0,2-2l1.9-15.22a2,2,0,0,0-2-2,42.68,42.68,0,0,1-9-.49,2.07,2.07,0,0,0-2.46,1.4,2,2,0,0,0,1.4,2.46Z"/><path d="M282.81,163.33a19.8,19.8,0,0,1,4.61-.37,2,2,0,0,0,2-2v-17.2a2,2,0,0,0-1.47-1.93c-2.21-.57-7.2-2.68-7.84,1a2.33,2.33,0,0,0,2.44,2.64,2.19,2.19,0,0,0,1.92-3.31,2.06,2.06,0,0,0-2.74-.72,2,2,0,0,0-.71,2.74l.06.1-.27-1v.08l.58-1.41,2.13,0,.51.88.05.31-.28,1c-1.05.38-1.3.55-.73.52-.23,0-.15,0,.25.09s.71.19,1.07.28l2.5.64-1.47-1.92V161l2-2a24.53,24.53,0,0,0-5.67.51,2,2,0,0,0-1.4,2.46,2,2,0,0,0,2.46,1.4Z"/><path d="M55,149.39l13.72-2.61a2,2,0,0,0,1.4-2.46l-1.92-4.94a2.05,2.05,0,0,0-2.46-1.4,2,2,0,0,0-1.4,2.46l1.92,4.94,1.4-2.46-13.73,2.61A2,2,0,0,0,52.55,148a2,2,0,0,0,2.46,1.4Z"/><path d="M76.77,239.32a33.32,33.32,0,0,1,8.79-.87,2,2,0,0,0,2-2l.09-5.81h-4l.1,2.22a2.07,2.07,0,0,0,2,2,11.36,11.36,0,0,0,6.78-1.56c2.22-1.3.21-4.76-2-3.45a7.64,7.64,0,0,1-4.76,1l2,2-.1-2.22a2,2,0,0,0-4,0l-.09,5.81,2-2a37.12,37.12,0,0,0-9.85,1,2,2,0,1,0,1.06,3.85Z"/><path d="M54.41,299l-.52-7.09-.27-3.66c-.06-.84-.48-2.33-.17-3.12.22-.57.8-.58,1.4-.69,1.08-.2,2.17-.34,3.26-.51l6.81-1.07,6.81-1.07c.65-.1,1.3-.22,2-.3l.49-.08q.43,0-.12-.24a16.63,16.63,0,0,0,.63,2.91l2.95,13.82c.53,2.51,4.39,1.45,3.85-1.07l-2.69-12.62c-.37-1.74-.46-4.11-1.63-5.54-1.43-1.76-3.58-1.19-5.52-.89l-12.89,2c-3.43.54-8.79.43-9.26,5a38.44,38.44,0,0,0,.37,6.68l.55,7.57c.19,2.55,4.19,2.57,4,0Z"/><path d="M64.41,276.9a131.17,131.17,0,0,1,24-3.53c2-.1,4-.16,6-.17,1.62,0,3.4,0,4.17-1.72a2.4,2.4,0,0,0-2.24-3.3,2.17,2.17,0,0,0-2,3.3c1.37,2.17,4.84.17,3.45-2l-.08-.13.2,1.55v-.1l-.92,1.2-1.62-.16-.51-.88,0,.14V270l0,.17.52-.88c0-.07.31,0,.16-.09a3,3,0,0,0-.85,0l-1.93,0q-2.18,0-4.35.15-4.21.22-8.42.7a138.86,138.86,0,0,0-16.69,3c-2.5.61-1.44,4.47,1.06,3.86Z"/><path d="M66.9,272.82,65.63,259.1l-.32-3.43c-.08-.81-.44-2.06.07-2.77.93-1.3,3.53-1.68,5-1.83,4.37-.44,8.89-.14,13.29-.15H97.8l-1.93-1.47,3,18.87a2,2,0,0,0,2.46,1.4,2,2,0,0,0,1.4-2.46l-3-18.87a2,2,0,0,0-1.93-1.47H74.43a29.76,29.76,0,0,0-6.73.55,9.44,9.44,0,0,0-5.56,3.12c-1.47,2-.88,4.5-.67,6.79l1.43,15.43a2.05,2.05,0,0,0,2,2,2,2,0,0,0,2-2Z"/><path d="M232.06,29.85a33.56,33.56,0,0,1-6,9.5c-.87.95.54,2.37,1.41,1.41a34.91,34.91,0,0,0,6.36-9.9,1,1,0,0,0-.36-1.37,1,1,0,0,0-1.37.36Z"/><path d="M233.9,43.25l7.86-13.86a1,1,0,0,0-1.72-1l-7.87,13.86a1,1,0,0,0,1.73,1Z"/><path d="M242.26,42a24.91,24.91,0,0,1,11.55-10.11,1,1,0,0,0-1-1.73A26.74,26.74,0,0,0,240.53,41a1,1,0,0,0,1.73,1Z"/><path d="M252.7,40.64a47.29,47.29,0,0,1,12.49-9.88c1.13-.61.12-2.34-1-1.72a48.94,48.94,0,0,0-12.89,10.18c-.86,1,.55,2.38,1.41,1.42Z"/><path d="M263.34,43.72a71.66,71.66,0,0,1,16.34-6c1.25-.3.72-2.23-.53-1.93A73.25,73.25,0,0,0,262.33,42c-1.14.59-.13,2.31,1,1.72Z"/><path d="M264.84,49.64A34.29,34.29,0,0,1,278,46.54c1.29,0,1.29-2,0-2a36.85,36.85,0,0,0-14.18,3.37c-1.17.54-.15,2.27,1,1.73Z"/><path d="M265.45,58.11a24.18,24.18,0,0,1,12.61-1.63,1,1,0,0,0,1-1,1,1,0,0,0-1-1,26.06,26.06,0,0,0-13.62,1.91,1,1,0,0,0-.35,1.36,1,1,0,0,0,1.36.36Z"/><path d="M267.38,63.25a21.37,21.37,0,0,1,11.14-.11,1,1,0,0,0,.53-1.93,23.48,23.48,0,0,0-12.2.11,1,1,0,0,0,.53,1.93Z"/><path d="M268.12,72a16.31,16.31,0,0,1,9.68-.19,1,1,0,0,0,.53-1.92,18.21,18.21,0,0,0-10.74.18c-1.22.4-.7,2.33.53,1.93Z"/><path d="M266.72,81.67a17.69,17.69,0,0,1,10.5.72,1,1,0,0,0,.53-1.93,19.59,19.59,0,0,0-11.56-.72c-1.25.3-.72,2.23.53,1.93Z"/><path d="M267.85,86.58a12.48,12.48,0,0,1,6.77,2,1,1,0,0,0,1.37-.35,1,1,0,0,0-.36-1.37,14.39,14.39,0,0,0-7.78-2.28,1,1,0,0,0,0,2Z"/><path d="M276.85,231.78a30.79,30.79,0,0,1,8.87-.83c.95.05,1.21-1.09.71-1.71a18,18,0,0,1-3.85-8.88,1,1,0,0,0-.73-1,1,1,0,0,0-1.13.46l-3.88,7.66c-.58,1.15,1.15,2.16,1.73,1l3.88-7.66-1.87-.51a20.55,20.55,0,0,0,4.43,10.3l.71-1.71a32.68,32.68,0,0,0-9.4.9c-1.25.3-.73,2.23.53,1.93Z"/><path d="M108.82,271a39.15,39.15,0,0,1,8.43-8.71c.54-.41.76-1.37,0-1.73a34.13,34.13,0,0,1-8.53-5.73c-1-.87-2.37.54-1.42,1.41a35.84,35.84,0,0,0,8.94,6.05V260.6A42,42,0,0,0,107.1,270c-.75,1.05,1,2.05,1.72,1Z"/><path d="M116.43,262.34a26.78,26.78,0,0,1,22.79,7.23c.93.9,2.34-.51,1.42-1.41a28.9,28.9,0,0,0-24.75-7.75c-1.26.21-.73,2.13.54,1.93Z"/><path d="M130.48,260.34l7.56-7.7c.9-.92-.52-2.33-1.42-1.41l-7.55,7.69c-.9.92.51,2.34,1.41,1.42Z"/><path d="M105.7,245.76A50.61,50.61,0,0,1,116,236.44c.47-.32.75-1.15.2-1.57l-11.29-8.75c-1-.77-2.43.63-1.41,1.42l11.29,8.74.2-1.57a52.69,52.69,0,0,0-10.69,9.64c-.82,1,.59,2.4,1.42,1.41Z"/><path d="M117.1,236.67a34.87,34.87,0,0,1,10.64-.51,1,1,0,0,0,1-1,1,1,0,0,0-1-1,36.45,36.45,0,0,0-11.17.58c-1.26.26-.73,2.19.53,1.93Z"/><path d="M129.61,237.89l7,4.94a10.17,10.17,0,0,0,1.68,1.11,1.52,1.52,0,0,0,1.93-.47c.8-1.32-1.16-2.8-2.1-1.42a1,1,0,1,0,1.72,1l0-.06-.35.36,0,0-.5.13c-.87-.22-.86-.67,0-1.35L139,242c-.17-.15-.39-.27-.57-.4l-1-.73-2.25-1.58-4.5-3.16a1,1,0,0,0-1,1.73Z"/><path d="M131,232.49a21.68,21.68,0,0,1,5.31-7.75c.94-.89-.47-2.3-1.41-1.42A23.9,23.9,0,0,0,129,232a1,1,0,0,0,.7,1.23,1,1,0,0,0,1.23-.7Z"/><path d="M117.05,294a87,87,0,0,1,6.54-7.16,1,1,0,0,0-.2-1.57L112,278.31c-1.1-.67-2.11,1.06-1,1.73l11.4,6.94-.2-1.57a87,87,0,0,0-6.54,7.17c-.81,1,.6,2.41,1.41,1.41Z"/><path d="M123.17,289.68a17.27,17.27,0,0,1,19.66,2.66c.94.87,2.36-.54,1.42-1.42a19.34,19.34,0,0,0-22.09-3c-1.13.6-.12,2.33,1,1.72Z"/><path d="M136.23,283.13l5-3.68a1,1,0,0,0,.36-1.37,1,1,0,0,0-1.37-.36l-5,3.68a1,1,0,0,0-.36,1.37,1,1,0,0,0,1.37.36Z"/><path d="M52.24,228.59a67.76,67.76,0,0,1,6.56-7.69,1,1,0,0,0,0-1.41l-7.43-8.19c-.87-1-2.28.46-1.41,1.42l7.42,8.18v-1.41a70.75,70.75,0,0,0-6.87,8.09c-.76,1,1,2,1.73,1Z"/><path d="M56.61,222.3l14.41,0-1-.74,3.16,20.9c.2,1.27,2.12.73,1.93-.53L72,221.08a1,1,0,0,0-1-.73l-14.41,0a1,1,0,0,0,0,2Z"/><path d="M70.41,222.47a122.71,122.71,0,0,0,23.17-3.8L92.35,218a42.49,42.49,0,0,1,.94,12.82c-.1,1.28,1.9,1.28,2,0a44.13,44.13,0,0,0-1-13.36,1,1,0,0,0-1.23-.69,119.8,119.8,0,0,1-22.64,3.72c-1.28.08-1.29,2.08,0,2Z"/><path d="M91.8,231.07a21.53,21.53,0,0,1,1.59,9.11c0,1.29,2,1.29,2,0a23.06,23.06,0,0,0-1.66-9.64,1,1,0,0,0-1.23-.7,1,1,0,0,0-.7,1.23Z"/><path d="M61.75,164.11c-1-2.7-2.38-7.32.9-9,1.71-.9,4-.84,5.84-1l6.89-.72a1,1,0,0,0,1-.73,4.63,4.63,0,0,0-1.56-4.46l-.7,1.71,7.94-.15a1,1,0,0,0,0-2l-7.94.15c-.8,0-1.41,1.13-.71,1.71a2.65,2.65,0,0,1,1,2.51l1-.74-8.11.85c-2.17.22-4.58.3-6.39,1.68-3.36,2.58-2.26,7.4-1.06,10.8.43,1.21,2.36.69,1.93-.53Z"/><path d="M46,144.35l-1-8.27c-.16-1.45-.36-2.89-.5-4.34,0-.39-.2-1.12.15-1.43s1.57-.3,2.1-.37l17-2.2c1.26-.16,1.27-2.16,0-2L54.22,127l-4.81.62c-1.57.2-3.19.3-4.74.63-3.07.65-2,4.26-1.77,6.47L44,144.35c.15,1.26,2.15,1.28,2,0Z"/><path d="M33.46,138.47a20,20,0,0,0,8.31,4.45,1,1,0,0,0,1-1.67A38.62,38.62,0,0,1,34.2,126.8l-1.47,1.13A41.78,41.78,0,0,1,41.48,137c.62.87,2.2.38,1.83-.77a52.81,52.81,0,0,0-6.58-13.58L35.37,124l8.5,5.83c.88.61,1.79-.54,1.36-1.37l-4.08-8L40,122a21.62,21.62,0,0,1,6.15,3.39c.67.54,2.09.07,1.67-1a16.59,16.59,0,0,0-3.41-5.32l-1.22,1.58,9,4.88a1,1,0,0,0,1.37-1.37l-3-5.09-1.13,1.47,11.74,4.4c.91.34,1.74-1.06,1-1.68a2,2,0,0,1-.85-1.79l-1.26,1,10,4.13c1.19.49,1.71-1.45.54-1.93l-10-4.13c-.63-.26-1.25.39-1.27,1a3.86,3.86,0,0,0,1.44,3.21l1-1.67-11.74-4.4c-.85-.32-1.54.76-1.13,1.47l3,5.09,1.37-1.36-9-4.89A1,1,0,0,0,43,120.49a13.88,13.88,0,0,1,2.9,4.43l1.67-1a24.62,24.62,0,0,0-7-3.91c-.87-.31-1.49.75-1.12,1.47l4.08,8,1.37-1.36-8.5-5.83A1,1,0,0,0,35,123.64a51,51,0,0,1,6.37,13.11l1.83-.77a44.56,44.56,0,0,0-9.47-9.77c-.7-.54-1.72.35-1.47,1.12a40.85,40.85,0,0,0,9.06,15.33l1-1.67a17.73,17.73,0,0,1-7.42-3.94c-1-.85-2.38.56-1.42,1.42Z"/><path d="M124.13,155.78c-4,.18-8.48-1.14-9.95-5.23a5.15,5.15,0,0,1,.64-5,4.39,4.39,0,0,1,4.49-1.67l.26-2a7,7,0,0,1-5.68-5.72,6.61,6.61,0,0,1,3.71-7.09,8.33,8.33,0,0,1,4-.94c1.64,0,2.86.9,4.41,1.24,1.74.38,3-.69,4.45-1.34a8.52,8.52,0,0,1,11.91,8,1,1,0,0,0,1.27,1c3.61-1.19,5.66,3.55,5.45,6.42a9.9,9.9,0,0,1-5.29,7.94,1,1,0,0,0-.2,1.57c4.13,3.71-.15,10.32-3.94,12.32a7.06,7.06,0,0,1-7.11,0,5.94,5.94,0,0,1-2.89-6.27c.23-.9-1-1.79-1.67-1a1.89,1.89,0,1,1-3-2.25c.74-1.06-1-2.07-1.72-1a3.87,3.87,0,0,0,6.18,4.67l-1.67-1a7.84,7.84,0,0,0,3.24,8.14,8.88,8.88,0,0,0,9,.74,12.61,12.61,0,0,0,6.56-7.14c1.05-2.9.87-6.48-1.54-8.65l-.21,1.57a11.82,11.82,0,0,0,6.29-10.73c-.16-3.92-3.58-8.73-8-7.28l1.26,1a10.44,10.44,0,0,0-11.76-10.61,10.18,10.18,0,0,0-2.92.78c-1.05.45-2.15,1.48-3.35,1.19-.94-.22-1.77-.78-2.72-1a9.56,9.56,0,0,0-2.66-.24,10.51,10.51,0,0,0-4.93,1.52,8.55,8.55,0,0,0-4.13,8.71,9,9,0,0,0,7.67,7.51c1.13.12,1.34-1.69.27-2-4.84-1.24-8.75,3.5-7.88,8.08,1.07,5.64,7,8,12.17,7.78,1.28-.06,1.29-2.06,0-2Z"/><path d="M162.6,128.38c-1.59,1.3-4,.1-5-1.36-1.65-2.41-.55-5.81.58-8.19.29-.62,0-1.58-.86-1.5a5,5,0,0,1-4.12-1.13A2.36,2.36,0,0,1,153,113c.92-.91-.5-2.32-1.42-1.42a4.33,4.33,0,0,0-.29,5.54c1.35,1.86,3.8,2.43,6,2.24l-.87-1.51c-1.55,3.26-2.7,7.64-.17,10.75,1.88,2.3,5.36,3.21,7.77,1.22,1-.81-.43-2.22-1.41-1.41Z"/><path d="M169.6,114.66a11.61,11.61,0,0,1,12.45,2.27c.92.89,2.34-.52,1.41-1.42a13.66,13.66,0,0,0-14.87-2.57,1,1,0,0,0-.36,1.37,1,1,0,0,0,1.37.35Z"/><path d="M181.7,150.73a10.14,10.14,0,0,1,12.62-4,1,1,0,0,0,1.37-1.36c-1.09-2.17.44-4.72,2.35-5.84,2.42-1.42,5.43-1.29,8.14-1.23l-1-1a4.28,4.28,0,0,0,.82,2.54c.75,1,2.48,0,1.72-1a2.44,2.44,0,0,1-.54-1.53,1,1,0,0,0-1-1c-3.46-.08-7.38-.1-10.18,2.24a6.51,6.51,0,0,0-2,7.84l1.37-1.37A12.17,12.17,0,0,0,180,149.72a1,1,0,0,0,1.73,1Z"/><path d="M209.3,168a48.69,48.69,0,0,0,.07-17.32l-1.83.77c1.6,2.54,3.3,5.19,5.89,6.82a8,8,0,0,0,8.14.57c1.12-.62.12-2.35-1-1.72-2.11,1.16-4.7.49-6.56-.86-2-1.49-3.41-3.72-4.73-5.82a1,1,0,0,0-1.83.78,45.51,45.51,0,0,1-.07,16.25c-.23,1.26,1.7,1.79,1.93.53Z"/><path d="M223.57,146.09l9.4-1c.67-.07,1.34-.82.86-1.5a11.12,11.12,0,0,1-1.91-4.68,1,1,0,0,0-1.23-.7,1,1,0,0,0-.7,1.23,12.45,12.45,0,0,0,2.11,5.16l.87-1.51-9.4,1a1,1,0,0,0-1,1,1,1,0,0,0,1,1Z"/><path d="M271.7,118.53a5,5,0,0,1-1.48-4.91,16.5,16.5,0,0,1,2.84-5.74c.59-.9-.54-1.79-1.37-1.37a4.57,4.57,0,1,1-3.84-8.29c1.17-.49.66-2.42-.53-1.93a6.57,6.57,0,1,0,5.38,11.94l-1.37-1.36c-1.48,2.25-3,4.63-3.2,7.4a6.79,6.79,0,0,0,2.56,6c1,.78,2-1,1-1.73Z"/><path d="M209.85,282.75c5-8.5.85-20.5-8.24-24.19l-.53,1.93c3.81.62,7.19,3.14,11.12,3.11,2.93,0,6-1.38,6.87-4.38a1,1,0,0,0-1.92-.53c-.73,2.52-3.85,3.16-6.13,2.84-3.28-.47-6.14-2.44-9.41-3a1,1,0,0,0-.53,1.93c7.91,3.22,11.37,14,7,21.25a1,1,0,0,0,1.73,1Z"/><path d="M191.86,247a6.5,6.5,0,0,1,12.32-1.76c.57,1.16,2.3.15,1.73-1a8.49,8.49,0,0,0-16,2.24c-.23,1.26,1.69,1.8,1.92.53Z"/><path d="M33.12,295.45c2.59-1.74,3.29-5.11,2.47-8-1-3.38-3.83-5.75-6.45-7.85a1,1,0,0,0-1.42,0,1,1,0,0,0,0,1.41c2.2,1.76,4.73,3.7,5.76,6.42.79,2.07.63,4.95-1.37,6.3-1.06.71-.06,2.45,1,1.72Z"/><path d="M94.64,300.87c-2.42-.61-5.4-1.6-6.52-4.06-.78-1.7.24-5.14,2.59-4.71l-.23-1.83c-1,.47-1.94-.4-2.35-1.22a3.41,3.41,0,0,1,.59-3.45A14,14,0,0,1,91.25,283a4.81,4.81,0,0,1,1.66-1.08c.49-.14,1.72-.09,1.57.73-.24,1.25,1.61,1.8,1.93.54.54-2.21,3.67-2.16,5.19-1,2.4,1.77,2.45,5.54,2.55,8.21a1,1,0,0,0,1,1,5.63,5.63,0,0,1,4.77,9.15,1,1,0,0,0,1.13,1.47l1.67-.69c1.17-.48.66-2.42-.53-1.93l-1.68.69,1.13,1.47a7.55,7.55,0,0,0-6.49-12.16l1,1c-.13-3.62-.5-8.56-4.26-10.35-2.67-1.26-6.61-.57-7.41,2.64l1.93.54a3,3,0,0,0-3.67-3.29c-2.18.47-4.26,2.69-5.53,4.42s-1.89,4.09-.65,6.06A3.81,3.81,0,0,0,91.49,292a1,1,0,0,0-.24-1.83c-3.41-.62-5.79,2.86-5.37,6,.52,3.93,4.86,5.78,8.23,6.63a1,1,0,0,0,.53-1.93Z"/><path d="M160.18,306a5.87,5.87,0,0,1-6.39-8.38,6.29,6.29,0,0,1,1.21-1.72,2.5,2.5,0,0,1,.82-.64.57.57,0,0,1,.38-.07c.34.13.41,0,.22-.46l1.13-.46c-1.65-.33.3-2.1.91-2.41a6.18,6.18,0,0,1,3.54-.62c2.24.25,3.89,2.22,6.23,1.89a25.46,25.46,0,0,1,3.17-.73,4.3,4.3,0,0,1,3,1.38c1.84,1.82,2.17,4.62,2.47,7.06a1,1,0,0,0,1.71.71l2.21-1.8c1-.81-.42-2.22-1.41-1.41l-2.21,1.8,1.7.7c-.4-3.24-.92-6.77-3.61-9a6.07,6.07,0,0,0-4-1.47c-1.83.07-3.24,1.27-5,.33a10.58,10.58,0,0,0-4.46-1.52,8.18,8.18,0,0,0-4.61,1.11,4.06,4.06,0,0,0-2.18,3.13,2.69,2.69,0,0,0,2.08,2.75,1,1,0,0,0,1.13-.46c1.26-2.07-1.86-3-3.33-2.22a7.86,7.86,0,0,0-3.58,6c-.52,5.28,4.44,9.27,9.49,8.39,1.26-.22.72-2.15-.54-1.93Z"/><path d="M238.74,259.41a8.42,8.42,0,0,0,16.62-.25l-1.67.44a6,6,0,0,0,9.58-7c-.72-1.57-2-2.81-2.56-4.46s-.57-3.48-1.28-5.11a7.71,7.71,0,0,0-5.31-4.29,8,8,0,0,0-7.62,1.93l1.7.71a5.68,5.68,0,0,0-4.87-4.93,7.62,7.62,0,0,0-7.26,2.49c-2.14,2.4-3.14,5.68-3.69,8.79-.23,1.27-.18,3.12,1.42,3.42a1.72,1.72,0,0,0,2.09-2c-.3-1.25-2.23-.72-1.93.53a.89.89,0,0,0,.29-.92,5.34,5.34,0,0,1,.13-.8c.09-.49.2-1,.31-1.45a21.69,21.69,0,0,1,.88-2.84,9.25,9.25,0,0,1,3.45-4.59c2.24-1.38,6.85-.86,7.18,2.35a1,1,0,0,0,1.71.7,6.09,6.09,0,0,1,6.37-1.21,6,6,0,0,1,2.71,1.89,9.59,9.59,0,0,1,1.4,4.29,11,11,0,0,0,1.69,4.19c.84,1.26,1.87,2.52,1.77,4.14a4,4,0,0,1-6.74,2.76c-.51-.45-1.55-.36-1.68.44a6.45,6.45,0,0,1-12.77.25c-.25-1.26-2.17-.73-1.92.53Z"/><path d="M241.75,256.28a3.85,3.85,0,0,0,2.57,2.29,5.18,5.18,0,0,0,3.51-.27c2.49-1.1,3.51-4.05,3.91-6.53a1,1,0,0,0-.7-1.23,1,1,0,0,0-1.23.7c-.31,1.9-.89,4.2-2.65,5.17a2.06,2.06,0,0,1-.26.12c.17-.07-.17.06-.21.07a3.53,3.53,0,0,1-.56.14c.19,0-.18,0-.22,0h-.58c-.12,0-.13,0,0,0l-.18,0a4.77,4.77,0,0,1-.54-.15c.19.07-.14-.07-.18-.09l-.23-.14c-.09-.07-.1-.07,0,0l-.11-.09-.22-.22c.13.14,0-.07-.05-.09s-.19-.35-.11-.18a1,1,0,0,0-1.23-.69,1,1,0,0,0-.7,1.23Z"/><path d="M241.32,230a8.08,8.08,0,0,0,12.16-8.93,1,1,0,0,0-1.92.53,6.08,6.08,0,0,1-9.23,6.67c-1.09-.69-2.1,1-1,1.73Z"/><path d="M236.35,218.38c-3.22-2-3.48-7.2-.65-9.65,1-.85-.44-2.26-1.41-1.42-3.84,3.33-3.19,10.12,1.05,12.8,1.09.69,2.09-1,1-1.73Z"/><path d="M272.43,297.56a29.88,29.88,0,0,1-1.2-14.17l-1.23.7a46.3,46.3,0,0,0,11.64.59c1.28-.1,1.29-2.1,0-2a44,44,0,0,1-11.11-.52,1,1,0,0,0-1.23.7,32,32,0,0,0,1.2,15.23c.41,1.22,2.34.7,1.93-.53Z"/><path d="M237.48,306.37c2.69.14,3.4-3.05,3.3-5.15a68.18,68.18,0,0,0-1.39-10.74,72.42,72.42,0,0,0-7.57-20.39l-.86,1.5,55.1-4.86-.86-.5a.38.38,0,0,1-.27.59c-1.15.57-.14,2.3,1,1.73a2.38,2.38,0,0,0,1-3.33,1,1,0,0,0-.86-.49L231,269.59a1,1,0,0,0-.87,1.5,70.82,70.82,0,0,1,6.78,17.29c.45,1.81,3.7,16.15.61,16-1.28-.06-1.28,1.94,0,2Z"/><path d="M116.73,93.34a31.33,31.33,0,0,0,6.81,10.23,1,1,0,0,0,1.41-1.42,28.92,28.92,0,0,1-6.29-9.34,1,1,0,0,0-1.93.53Z"/><path d="M117.68,88.38a85.7,85.7,0,0,1,10.71,15.08c.62,1.13,2.35.12,1.72-1a88.07,88.07,0,0,0-11-15.48c-.85-1-2.26.45-1.41,1.41Z"/><path d="M116.11,76.56a275.61,275.61,0,0,0,17.41,23.55c.82,1,2.23-.43,1.42-1.42a268.21,268.21,0,0,1-17.11-23.14c-.7-1.07-2.44-.07-1.72,1Z"/><path d="M118.88,71.56A117.42,117.42,0,0,0,139.8,99.65c.92.91,2.33-.51,1.42-1.41A115.48,115.48,0,0,1,120.6,70.55c-.6-1.13-2.33-.12-1.72,1Z"/><path d="M117.07,58.29a194.67,194.67,0,0,0,29.28,39.88c.89.93,2.3-.49,1.41-1.42a192.34,192.34,0,0,1-29-39.47c-.62-1.13-2.35-.12-1.73,1Z"/><path d="M120.5,54.77A179.49,179.49,0,0,0,153,97.37c.93.9,2.34-.52,1.42-1.41a177.51,177.51,0,0,1-32.16-42.2c-.62-1.13-2.35-.12-1.73,1Z"/><path d="M120.36,45.41q7.62,10.74,15.3,21.45c5,6.93,9.84,14,15,20.76,2.31,3,4.93,5.92,8.45,7.54,1.16.54,2.18-1.18,1-1.72a21.05,21.05,0,0,1-7.57-6.62c-2.5-3.21-4.82-6.58-7.2-9.88q-7.43-10.27-14.78-20.59-4.26-6-8.5-12c-.74-1-2.48,0-1.73,1Z"/><path d="M126.68,46a97.4,97.4,0,0,1,17.68,19.42c4.41,6.41,7.61,13.63,12.5,19.71a25.53,25.53,0,0,0,9.62,7.68c1.17.5,2.19-1.22,1-1.73-7-3-11.19-9.64-14.88-16-4.18-7.18-8.54-14.09-14.07-20.33A98.29,98.29,0,0,0,128.1,44.62c-1-.82-2.4.59-1.42,1.42Z"/><path d="M134.4,41.17A304.72,304.72,0,0,1,163.86,81c.68,1.1,2.41.09,1.73-1a306.53,306.53,0,0,0-29.77-40.25c-.85-1-2.26.45-1.42,1.41Z"/><path d="M144.83,42.91a218,218,0,0,0,16.62,22.68c.83,1,2.23-.44,1.41-1.42A214.39,214.39,0,0,1,146.55,41.9c-.69-1.08-2.42-.08-1.72,1Z"/><path d="M153.2,44.14l8.72,10.16a1,1,0,1,0,1.41-1.41l-8.71-10.16a1,1,0,0,0-1.42,1.41Z"/><path d="M161.87,45.91a1,1,0,0,0,0-2,1,1,0,0,0,0,2Z"/><path d="M187.73,57a6,6,0,0,1-4.47-10.9,1,1,0,0,0-.51-1.86,4.61,4.61,0,0,1-3.59-5.88,4.6,4.6,0,0,1,6-2.22c.47.21.86.7,1.34.84.69.18,1.63-.38,2.27-.58a12.11,12.11,0,0,1,5.65-.69c2.45.47,5.06,3.37,3.26,5.8a1,1,0,0,0,.36,1.37,7.48,7.48,0,0,1,0,14,1,1,0,0,0-.2,1.57c1.6,1.29-.52,2.86-1.74,3.24a12.23,12.23,0,0,1-5,.48c-2.91-.37-6.38-3.32-4.42-6.47.68-1.1-1.05-2.1-1.73-1a5.78,5.78,0,0,0,.26,6.19,8,8,0,0,0,6.35,3.33c2.34.16,5.41-.19,7.29-1.72,1.61-1.32,2.18-4,.39-5.45l-.2,1.57a9.45,9.45,0,0,0,0-17.44l.36,1.37c1.82-2.46.5-5.8-1.72-7.51-3.25-2.5-7.7-1.16-11.19,0l1,.26c-3-2.58-8.17-1.79-10,1.86-1.93,3.89,1.13,8.58,5.24,9.07l-.5-1.87a8,8,0,0,0,6,14.55c1.27-.2.73-2.13-.53-1.92Z"/><path d="M192.15,52.87l-.32.06c-.07,0-.06,0,0,0h-.14c-.2,0-.39,0-.6,0s.14,0-.09,0l-.27-.06a4.68,4.68,0,0,1-.53-.17c.18.07-.1-.06-.14-.08l-.24-.14a2.11,2.11,0,0,1-.27-.18c.14.1-.05,0-.08-.07a4.78,4.78,0,0,1-.39-.39c-.14-.17,0,.08-.06-.09s-.12-.18-.17-.28a2,2,0,0,1-.13-.25v0l-.06-.17a4.92,4.92,0,0,1-.14-.55c0,.21,0-.08,0-.11a2.53,2.53,0,0,1,0-.28,2.62,2.62,0,0,1,0-.28,1.37,1.37,0,0,1,0-.19c0,.1,0,.11,0,0s.09-.4.15-.6c0,0,.11-.29,0-.11,0-.08.08-.17.13-.25a2.92,2.92,0,0,1,.29-.48c-.11.15,0-.06.08-.09a2.23,2.23,0,0,1,.27-.26,1,1,0,0,0-1.42-1.42,4.88,4.88,0,0,0,4.57,8.31,1,1,0,1,0-.53-1.92Z"/><path d="M247.39,85.75a6.55,6.55,0,0,1-5.87-11.39,1,1,0,0,0-.7-1.7,4.86,4.86,0,0,1-2.46-9.23c1-.52.29-2.26-.78-1.83-1.29.52-2.37-.3-3-1.46a3.55,3.55,0,0,1,.42-3.87c1.76-2.41,5.24-3.65,7.93-4.61,3.09-1.09,7-1.95,9.91.08,2.1,1.46,3.61,4.36,2.18,6.76A1,1,0,0,0,256.2,60a3.89,3.89,0,0,1,4.69,2.1,7.86,7.86,0,0,1,.23,5.82,10.46,10.46,0,0,1-1.36,2.79,6.21,6.21,0,0,0-1.17,2.23c-.31,1.53.69,2.64,1.7,3.62,2.93,2.85,1.3,6.9-1.4,9.25A21.82,21.82,0,0,1,253.81,89c-1.52.7-5,1.36-5.18-1.23-.1-1.28-2.1-1.29-2,0a4.1,4.1,0,0,0,2.55,3.5,6.46,6.46,0,0,0,5.23-.36c3.35-1.47,7.11-3.83,8.68-7.27a8.32,8.32,0,0,0,.67-4.79,7.3,7.3,0,0,0-2.42-4.06,1.61,1.61,0,0,1-.3-2.44,18.11,18.11,0,0,0,1.52-2.59,11.27,11.27,0,0,0,.95-5.58c-.38-3.82-3.74-7.52-7.84-6.11l1.12,1.47a6.63,6.63,0,0,0-.74-7.44,9.31,9.31,0,0,0-8.45-3.5A26.8,26.8,0,0,0,237.17,52c-2.43,1.34-5.06,3.6-4.95,6.64.09,2.86,2.83,6.09,5.9,4.86l-.77-1.83a6.85,6.85,0,0,0,3.47,13L240.11,73a8.54,8.54,0,0,0,7.82,14.72c1.25-.3.72-2.23-.54-1.92Z"/><path d="M249.39,81.48l-.38.07-.2,0a4.73,4.73,0,0,1-.65,0H248c.11,0,.11,0,0,0l-.27-.05a6.32,6.32,0,0,1-.62-.18s-.38-.15-.2-.07l-.33-.16c-.2-.11-.39-.22-.57-.34l-.31-.22c.14.1-.06-.06-.09-.08-.18-.15-.35-.31-.52-.48l-.22-.25-.14-.17a4.7,4.7,0,0,1-.37-.54,5.45,5.45,0,0,1-.31-.58,1.42,1.42,0,0,1-.08-.18c0,.1,0,.09,0,0l-.1-.3c-.07-.23-.12-.45-.17-.68s0,.12,0-.1,0-.24,0-.37a4.75,4.75,0,0,1,0-.65c0-.12,0-.12,0,0l0-.18.09-.37a1,1,0,0,0-1.93-.53c-1,3.55,1.6,7.32,5,8.31a6,6,0,0,0,3.07.07,1,1,0,1,0-.53-1.93Z"/><path d="M249.4,68.56c-1.19.42-2.94-.83-2.33-2.17a1.89,1.89,0,0,1,2.85-.55l.71-1.71a2.06,2.06,0,0,1-1.83-1.78,2.13,2.13,0,0,1,1.35-2.11c1-.44.4-1.82-.51-1.87-.73,0-.75-1.28-.47-1.74.65-1.08,2.33-1.11,3.43-1.07,1.29,0,1.29-2,0-2-2-.07-4.78.47-5.46,2.75-.54,1.8.48,4,2.5,4.06l-.5-1.86a4,4,0,0,0,1.49,7.62,1,1,0,0,0,.71-1.71,3.89,3.89,0,0,0-6.15,1.3c-1.1,2.77,2,5.72,4.74,4.77,1.21-.42.69-2.35-.53-1.93Z"/><path d="M116.25,207.47,113.11,143,110,78.42l-.88-17.94-.45-9.22-.21-4.48a5.32,5.32,0,0,1,0-2c0-.11,1-1.71,1.19-1.23s1.2.33,1-.27c-.48-1.22-1.58-.95-2.34-.11-1.38,1.53-.86,3.69-.77,5.55L108.36,66,110,100.34l3.34,68.52,1.88,38.61c0,.64,1,.65,1,0Z"/><path d="M114.68,206.28l45-.13a.5.5,0,0,0,0-1l-45,.13a.5.5,0,0,0,0,1Z"/><path d="M171.75,290.87a313.42,313.42,0,0,1-2.5-58.65c0-.65-1-.65-1,0a313.63,313.63,0,0,0,2.54,58.91c.08.64,1.05.37,1-.26Z"/><path d="M190.91,227.71l37-.27a.5.5,0,0,0,0-1l-37,.27a.5.5,0,0,0,0,1Z"/><path d="M273.62,188c-1.1-1.34-.14-3.3,1.15-4.12,1.55-1,3.54-1,5.32-1.07l12.49-.63c.64,0,.65-1,0-1l-8.07.41c-2.39.12-4.84.1-7.21.44a6,6,0,0,0-4.49,2.44,3.59,3.59,0,0,0,.1,4.24c.41.5,1.12-.21.71-.71Z"/><path d="M259.76,195.9q-.79-22.86,0-45.73c0-.64-1-.64-1,0q-.77,22.86,0,45.73c0,.64,1,.64,1,0Z"/><path d="M215,40.57q.14,7.66.23,15.34a.51.51,0,0,0,.64.48,109.15,109.15,0,0,1,23-1.53c.64,0,.64-1,0-1a110.43,110.43,0,0,0-23.25,1.57l.63.48q-.1-7.66-.23-15.34a.5.5,0,0,0-1,0Z"/><path d="M198.89,39.8l16-.09a.5.5,0,0,0,0-1l-16,.09a.5.5,0,0,0,0,1Z"/><path d="M178.28,89.93q.1-25.32.06-50.62a.5.5,0,0,0-1,0,2.69,2.69,0,0,1-1.24,2.21c-.53.36,0,1.22.5.86a3.73,3.73,0,0,0,1.74-3.07h-1q0,25.3-.06,50.62a.5.5,0,0,0,1,0Z"/><path d="M162.36,39.83l0-11-.5.5q30.1.3,60.22.13a.5.5,0,0,0,0-1q-30.1.16-60.22-.13a.51.51,0,0,0-.5.5l0,11a.5.5,0,0,0,1,0Z"/><path d="M218.27,307.69V291a.5.5,0,0,0-1,0v16.69a.5.5,0,0,0,1,0Z"/><path d="M136.65,296.85A5.06,5.06,0,0,0,142,300a7.14,7.14,0,0,0,6.14-4.19c1.59-3.24,1.45-7,1.4-10.55q-.11-7-.47-14.1c-.48-9.23-1.27-18.45-2.19-27.64-.46-4.6-1-9.2-1.47-13.8l-.78-6.89a38.41,38.41,0,0,0-.79-5.75,4.82,4.82,0,0,0-7.16-3.22c-3.57,1.78-4.2,6.08-4.62,9.65-.07.64.93.63,1,0,.38-3.19.89-7.21,4.13-8.79a4,4,0,0,1,4.3.19c1.42,1.17,1.61,3.27,1.81,5,.89,7.79,1.77,15.59,2.56,23.39s1.45,15.45,1.94,23.19c.47,7.51,1,15.14.73,22.65-.11,3.23-.72,7.4-3.84,9.13-2.26,1.24-6,1.16-7-1.66-.22-.6-1.18-.34-1,.27Z"/><path d="M83.41,159A85.91,85.91,0,0,0,100.77,161l-.5-.5-.42,36.15a.5.5,0,0,0,1,0l.42-36.15a.51.51,0,0,0-.5-.5,84.6,84.6,0,0,1-17.09-1.92c-.63-.13-.9.83-.27,1Z"/><path d="M51.07,280.62a28.76,28.76,0,0,0-5.37-8.25c-.61-.65-1.24-1.27-1.9-1.85s-1.71-1.24-1.75-2.4a18.12,18.12,0,0,1,.41-2.71c.1-.77.17-1.55.2-2.33A27.07,27.07,0,0,0,36.56,245c-.4-.5-1.11.21-.7.7a26.07,26.07,0,0,1,5.63,19.52c-.18,1.37-.82,3-.11,4.28s2.1,2,3,3a28,28,0,0,1,5.78,8.63c.26.59,1.12.08.86-.5Z"/><path d="M36.79,235.1v-2.18a.5.5,0,0,0-1,0v2.18a.5.5,0,0,0,1,0Z"/><path d="M58.14,276.53Q55.85,257,54,237.44a.51.51,0,0,0-.36-.48,12.85,12.85,0,0,0-7.86.78c-.59.25-.09,1.12.5.87a11.66,11.66,0,0,1,7.09-.69l-.37-.48q1.86,19.56,4.15,39.09c.07.64,1.07.64,1,0Z"/><path d="M124,172a29.86,29.86,0,0,1,4.07,7.11.5.5,0,0,0,1-.27,6,6,0,0,1,1.17-4.86l-.78-.61a6.6,6.6,0,0,0-.54,4.39c.1.47.68.43.92.12a11.73,11.73,0,0,1,4.64-3.61c.59-.26.08-1.12-.5-.86a12.7,12.7,0,0,0-5,4l.92.11a5.49,5.49,0,0,1,.43-3.61c.23-.47-.41-1.08-.79-.61a7.09,7.09,0,0,0-1.43,5.84l1-.27a31.4,31.4,0,0,0-4.17-7.35c-.39-.5-1.26,0-.87.51Z"/><path d="M141.21,190.43a21.67,21.67,0,0,1,4.91,7.6l1-.27a11,11,0,0,1-.43-6.64h-1l1.11,6.25a.5.5,0,0,0,.91.12l3.29-6.61c.29-.57-.58-1.08-.86-.5L146.84,197l.91.12-1.1-6.26c-.09-.49-.85-.45-1,0a12,12,0,0,0,.44,7.18c.23.59,1.19.34,1-.27a23,23,0,0,0-5.16-8,.5.5,0,0,0-.71.71Z"/><path d="M197.19,186.74a23.49,23.49,0,0,1,4.18,8.36.5.5,0,0,0,1-.27,8.86,8.86,0,0,1,1.1-6.72l-.93-.25.44,6.61c0,.44.71.75.93.25l1.89-4.41c.25-.59-.61-1.1-.86-.51l-1.9,4.42.94.25-.44-6.61a.5.5,0,0,0-.93-.25,9.85,9.85,0,0,0-1.21,7.49l1-.27a24.73,24.73,0,0,0-4.45-8.8c-.39-.51-1.1.21-.7.71Z"/><path d="M180.84,224.92c-2.67-.06-4.65-2.39-5.3-4.83-.87-3.18.29-6.56,1.28-9.58.2-.61-.76-.87-1-.26-1.11,3.37-2.35,7.21-1.1,10.72.94,2.62,3.17,4.89,6.08,4.95.64,0,.64-1,0-1Z"/><path d="M172.05,204.36c-3.6.23-6.74-4.06-5.25-7.42.26-.58-.61-1.09-.87-.5-1.77,4,1.69,9.2,6.12,8.92.64,0,.64-1,0-1Z"/><path d="M124.44,148.82c1.18,3.56,6.74,4.18,8.63.93l-.93-.25a17.07,17.07,0,0,0,2.35,9.06,4.37,4.37,0,0,0,2.42,2.05,1.63,1.63,0,0,0,2.19-1c.21-.61-.75-.87-1-.27-.27.78-1.42.12-1.83-.18a6.5,6.5,0,0,1-1.73-2.6,15.93,15.93,0,0,1-1.44-7.09.5.5,0,0,0-.93-.26c-1.44,2.48-5.89,2.07-6.8-.68-.21-.61-1.17-.35-1,.26Z"/><path d="M122.54,112.52l2.52,5c.24.46.91.21.93-.26l.23-5.41-.93.26a6.66,6.66,0,0,1,.48,4.15.5.5,0,0,0,.91.38,13,13,0,0,1,4-4.13c.54-.34,0-1.21-.5-.86a14,14,0,0,0-4.39,4.49l.91.38a7.87,7.87,0,0,0-.57-4.92c-.23-.48-.92-.2-.94.25l-.23,5.41.94-.25-2.52-5c-.29-.57-1.16-.07-.87.51Z"/><path d="M203.74,69.84a19.68,19.68,0,0,1,4.51,10l.91-.39a6,6,0,0,1-.56-5.82l-.93-.25.16,6.14a.51.51,0,0,0,1,.14A17.73,17.73,0,0,1,211.43,74c.36-.53-.5-1-.87-.5a19.07,19.07,0,0,0-2.71,5.9l1,.13-.16-6.14c0-.46-.71-.73-.93-.26A7,7,0,0,0,208.3,80a.5.5,0,0,0,.91-.39,20.56,20.56,0,0,0-4.76-10.47c-.42-.49-1.13.22-.71.71Z"/><path d="M228.27,104.1a19.6,19.6,0,0,1,5.87,7.59l.87-.51a5.39,5.39,0,0,1-.06-5.33h-.87a8.44,8.44,0,0,1,1.63,5.74c0,.48.74.71.94.26l2.48-5.76c.25-.58-.61-1.09-.86-.5l-2.49,5.75.93.25a9.38,9.38,0,0,0-1.76-6.25.51.51,0,0,0-.87,0,6.47,6.47,0,0,0,.06,6.35c.33.57,1.12.07.87-.51a20.47,20.47,0,0,0-6-7.79c-.5-.39-1.21.31-.71.71Z"/><path d="M239.24,171.53a26.94,26.94,0,0,1,3.84,5.57.5.5,0,0,0,.92-.38,9.23,9.23,0,0,1-.14-4.46h-1l1.94,5.39a.5.5,0,0,0,1-.14,6.6,6.6,0,0,1,3.47-5c.57-.31.06-1.17-.51-.87a7.64,7.64,0,0,0-4,5.91l1-.13L243.86,172c-.16-.43-.86-.52-1,0a10.53,10.53,0,0,0,.14,5l.92-.38a28.43,28.43,0,0,0-4-5.78c-.43-.48-1.13.23-.7.71Z"/><path d="M216.69,234.57l2,2.72a.5.5,0,0,0,.93-.25l.09-3.14-.93.25,1.46,2.4a.5.5,0,0,0,.91-.12,2.25,2.25,0,0,1,1.82-1.61.5.5,0,1,0-.27-1,3.24,3.24,0,0,0-2.51,2.31l.91-.12-1.46-2.39a.5.5,0,0,0-.93.25l-.09,3.14.93-.25-2-2.72a.5.5,0,0,0-.86.5Z"/><path d="M108.67,222.94a101,101,0,0,1,10,9.65c.43.48,1.13-.23.7-.71a100.94,100.94,0,0,0-10-9.65c-.49-.41-1.2.29-.71.71Z"/><path d="M116.33,223.81a44.48,44.48,0,0,0,6.93,7.76c.48.43,1.19-.28.71-.7a44.27,44.27,0,0,1-6.78-7.56c-.37-.52-1.24,0-.86.5Z"/><path d="M122.26,223.73a21.94,21.94,0,0,0,5.08,6.71c.48.42,1.19-.28.71-.71a21.25,21.25,0,0,1-4.93-6.51c-.28-.58-1.14-.07-.86.51Z"/><path d="M112.25,252.76l8.56,6.72c.5.4,1.21-.31.7-.7L113,252.05c-.5-.39-1.21.31-.7.71Z"/><path d="M120.28,255.81l5,3.7a.5.5,0,1,0,.51-.86l-5-3.7a.5.5,0,0,0-.68.17.51.51,0,0,0,.18.69Z"/><path d="M125.34,256.56l2.18,1.44a.51.51,0,0,0,.69-.18.53.53,0,0,0-.18-.69l-2.19-1.44a.5.5,0,0,0-.68.18.53.53,0,0,0,.18.69Z"/><path d="M116.84,278.64a30.37,30.37,0,0,1,9.58,7.83c.41.5,1.11-.21.71-.71a31.21,31.21,0,0,0-9.78-8c-.57-.3-1.08.56-.51.86Z"/><path d="M125.26,281.14l4.1,3.91c.46.44,1.17-.27.7-.71l-4.09-3.9c-.47-.45-1.17.26-.71.7Z"/><path d="M129.61,279.91l4.32,3a.5.5,0,0,0,.5-.87l-4.32-2.95a.5.5,0,0,0-.5.86Z"/><path d="M133.56,276.25a.5.5,0,0,0,0-1,.5.5,0,0,0,0,1Z"/><path d="M53.52,210.58l11.27,9.84c.48.42,1.19-.29.71-.71l-11.27-9.84c-.48-.42-1.19.28-.71.71Z"/><path d="M62.74,213l7.94,6.59c.5.4,1.21-.3.71-.71l-7.94-6.58c-.5-.41-1.21.29-.71.7Z"/><path d="M67.15,213l8.71,7.26c.49.41,1.2-.29.7-.71l-8.71-7.26c-.49-.41-1.2.3-.7.71Z"/><path d="M73.68,213.67a21.55,21.55,0,0,0,7.47,5.23.51.51,0,0,0,.62-.35.52.52,0,0,0-.35-.62,20.35,20.35,0,0,1-7-5c-.44-.48-1.14.23-.71.7Z"/><path d="M81,213.79l5.85,4.3a.51.51,0,0,0,.69-.18.51.51,0,0,0-.18-.68l-5.85-4.3a.51.51,0,0,0-.69.18.52.52,0,0,0,.18.68Z"/><path d="M88.24,213.64l2.9,2.9a.5.5,0,1,0,.71-.71l-2.9-2.9a.5.5,0,0,0-.71.71Z"/><path d="M71.92,203.12a4.77,4.77,0,0,1-3.63-8.49c.51-.38,0-1.25-.5-.86a5.75,5.75,0,0,0,4.13,10.35c.63-.08.64-1.08,0-1Z"/><path d="M72.7,187.3c-1-2.86,2.14-5.55,4.88-5.25,3,.33,5.15,3.12,6.08,5.8a.51.51,0,0,0,.91.12,3.57,3.57,0,0,1,6.36,3.1.5.5,0,0,0,1,.26,4.57,4.57,0,0,0-8.18-3.87l.91.12c-1.11-3.21-3.83-6.59-7.55-6.55-3.21,0-6.43,3.25-5.33,6.53.2.61,1.17.35,1-.26Z"/><path d="M71.49,170.71c.74-1.72.11-3.38-.14-5.12-.16-1.09,0-2.9,1.2-3.33.84-.29,1.79.19,2.66.1a5.69,5.69,0,0,0,2-.73,2.91,2.91,0,0,1,2-.56c.75.2,1,1.07,1.26,1.73.33,1,.62,2.11.88,3.17.12.53.24,1.05.35,1.58a6.2,6.2,0,0,1,.14.75c0,.1,0,.63,0,.65.51-.4-.21-1.1-.71-.71-.67.52,0,1.47.72,1.46,1,0,1-1.3.87-2-.25-1.3-.57-2.59-.93-3.86a7.79,7.79,0,0,0-1.22-3,2.28,2.28,0,0,0-2.42-.72c-.9.25-1.65.86-2.53,1.13-1.12.35-2.26-.34-3.38.06a2.76,2.76,0,0,0-1.63,1.74A5.56,5.56,0,0,0,70.4,166c.23,1.37.81,2.9.22,4.25-.25.59.61,1.1.87.51Z"/><path d="M71.71,136.84a27.09,27.09,0,0,0,14.77.75c1.16-.27,2.56-1,3.74-.59s1.12,1.49.9,2.53c-.35,1.67-1.05,3.28-.67,5a.5.5,0,0,0,.73.3,21,21,0,0,1,6.08-2.74.5.5,0,0,0-.27-1A21.85,21.85,0,0,0,90.68,144l.73.3c-.43-2,.87-3.86.85-5.84a2.6,2.6,0,0,0-3.15-2.53c-1.2.14-2.36.61-3.55.86a26.17,26.17,0,0,1-4.51.51,26.63,26.63,0,0,1-9.07-1.4c-.61-.21-.88.76-.27,1Z"/><path d="M64,303.13,61.4,291.72l-.48.63,12.37-1.07c.63-.06.64-1.06,0-1l-12.37,1.07a.51.51,0,0,0-.49.63L63,303.4c.14.63,1.1.36,1-.27Z"/><path d="M164.93,307.46a3.28,3.28,0,1,1,3-5.79c.52.3.94-.37.61-.79-.81-1-2-2.47-1.6-3.86.24-.84,1.47-1.82,2.27-1.07.46.44,1.17-.26.7-.71-1.2-1.13-3-.32-3.72,1-1,1.88.51,3.94,1.64,5.36l.61-.79a4.29,4.29,0,1,0-4.07,7.53c.58.28,1.09-.58.51-.87Z"/><path d="M247.43,303.2a131.88,131.88,0,0,1-7.87-28.39l-.48.63q16.5-.68,32.89-2.66,4-.5,7.95-1l3.9-.57a20.23,20.23,0,0,0,3.81-.65c2.71-1,2.34-5.23-.67-5.42a2.75,2.75,0,0,0-3,2.52,3,3,0,0,0,2.81,3.06c.64.05.64-.95,0-1a1.84,1.84,0,1,1,1-3.34,1.84,1.84,0,0,1,.16,2.82c-.7.72-2,.67-2.91.82-5.14.8-10.31,1.5-15.48,2.1q-15.18,1.76-30.45,2.37a.51.51,0,0,0-.48.63,131.31,131.31,0,0,0,7.87,28.39c.23.59,1.2.33,1-.26Z"/><path d="M225.26,78.6l4.22,5.79a.51.51,0,0,0,.94-.25l.21-5.65h-1l-.07,5.4a.51.51,0,0,0,.93.26,24.69,24.69,0,0,1,4-5.14c.46-.45-.25-1.16-.71-.71a25.57,25.57,0,0,0-4.16,5.34l.93.25.07-5.4a.5.5,0,0,0-1,0l-.21,5.65.93-.25-4.23-5.8c-.37-.51-1.24,0-.86.51Z"/><path d="M41.24,112.85a2.12,2.12,0,0,0,2.52-.18,3.65,3.65,0,0,0,1-3.39c-.38-3.62-1-7.23-1.55-10.84l-.48.63,45.43.88a.5.5,0,0,0,0-1l-45.43-.88a.51.51,0,0,0-.48.64l1,6.94c.16,1.16.36,2.32.49,3.48s-.21,4-2,2.86c-.54-.35-1,.51-.5.86Z"/></g></g></svg>