<svg xmlns="http://www.w3.org/2000/svg" viewBox="0 0 409.14 305.96"><g id="Layer_2" data-name="Layer 2"><g id="Layer_4_149" data-name="Layer 4,149"><g id="Layer_4_470" data-name="Layer 4,470"><path d="M327.36,305.93c5.19.43,8.39-3.93,10.7-7.91q3.94-6.75,8.15-13.35,8.67-13.56,18.38-26.4a399.19,399.19,0,0,1,42.12-47c7.47-7.16-4-18.59-11.35-11.35a419.78,419.78,0,0,0-45.09,52q-10,13.66-18.87,28.13c-2.85,4.65-7.15,10-8.68,15.27-1.11,3.81-.3,10.23,4.64,10.63Z"/><path d="M7.75,123.63c2.3-4,5.15-7.51,7.35-11.65,2.29-4.33,4.84-8.52,7.31-12.74,5.16-8.83,10.15-17.74,15.09-26.7Q52.55,45.26,67.6,18c4.66-8.46-8.29-16-12.95-7.57Q39.11,38.56,23.59,66.71,15.94,80.58,8.64,94.62c-2.21,4.25-4.47,8.49-6.4,12.87C.07,112.41,0,116.27,0,121.53c0,4.11,5.7,5.68,7.75,2.1Z"/><path d="M213.34,69.85a58.84,58.84,0,0,0,7.88-7.26c2.32-2.75,4.32-5.76,6.74-8.41,7.09-7.77-6.48-17.36-11-8.52-1.76,3.41-4,6.53-5.91,9.9A66.32,66.32,0,0,0,206.77,66c-1.41,4,3.83,6.08,6.57,3.82Z"/><path d="M263.74,67.12c1.9-2.28,3.71-4.37,5.45-6.79,1.46-2,3.59-6.3,5.83-7.5l-4.2.55c.41.08,2.73,2.39,3.91,3.1,1.37.82,3.68,1.34,4.45,2.82,1.81,3.5-2.74,8.69-4.54,11.24-4.9,6.9,6.48,13.47,11.33,6.63,3.6-5.08,6.88-10.64,6.39-17.1a14.92,14.92,0,0,0-8.74-12.91c-4.64-2-10.17-6.73-15.11-3-2.66,2-3.74,5.36-5.19,8.25-1.76,3.51-3.44,6.93-5,10.52-1.43,3.26,2.68,7.49,5.43,4.19Z"/><path d="M310.73,156.31c5.31-4.83,8.53-12.06,11.82-18.32,3.51-6.65,7.16-13.2,11-19.64,5-8.29-8.09-15.92-12.95-7.57-3.94,6.75-7.77,13.61-11.18,20.64-3.21,6.6-6.86,14.05-6.83,21.53,0,4.26,5.1,6.08,8.1,3.36Z"/><path d="M222.34,48.4c9,7.92,19.45,14.87,29.52,21.33,7.56,4.84,14.85-7.57,7-12.05-10.36-5.93-21.36-11.94-32.51-16.24-3.88-1.49-7.07,4.29-4,7Z"/><path d="M277.84,79.88c3.85,3.38,6.88,7.29,10.9,10.53,3.41,2.76,6.89,5.41,10.41,8q11.57,8.61,23.45,16.76c7.92,5.44,15.8-7.81,7.57-13q-11.76-7.36-23.43-14.91c-3.75-2.42-7.49-4.84-11.28-7.2-4.1-2.57-8.6-4.11-12.72-6.61-3.85-2.33-8.41,3.27-4.9,6.35Z"/><path d="M3.36,122.24c7.14,9,18.8,15.32,28.28,21.65s19.18,12.58,29,18.47c20.2,12.11,40.75,23.62,61.44,34.88,40.88,22.26,82.49,43.17,123.1,65.95,23.17,13,46,26.58,68.25,41.15,8.09,5.31,15.62-7.68,7.57-12.95C242.55,240,156.7,201.58,75.43,155q-17.27-9.89-34.36-20.09c-10.83-6.48-21.81-15.43-33.89-19.26-4.11-1.31-6,3.76-3.82,6.56Z"/><path d="M61,7.8c4.72,4,10.43,6.09,16,8.56,5.83,2.56,11.7,5,17.58,7.39q17.31,7.13,34.5,14.56,34.83,15,68.74,32c8.61,4.31,16.21-8.63,7.57-13Q171.06,40.16,135.77,25q-17.21-7.39-34.68-14.06c-6-2.27-11.94-4.52-18-6.48S70.72-.06,64.18,0C60.47,0,57.84,5.14,61,7.8Z"/><path d="M307.48,153.18c13,10.72,28.28,19.42,42.73,28.07,14.85,8.89,29.54,18,44.45,26.81,8.23,4.84,15.51-7.73,7.46-12.75-14.69-9.15-29.73-17.73-44.73-26.36-14.57-8.37-29.86-17.34-45.69-23-4-1.42-7.54,4.51-4.22,7.25Z"/><path d="M330.27,287.16a2.27,2.27,0,0,0,1-2.21,3.23,3.23,0,0,0-1.42-2.25,14.12,14.12,0,0,0-3.05-1.42c-1.25-.5-2.49-1.06-3.76-1.49a2.75,2.75,0,0,0-2.87.31,4,4,0,0,0-.95,2.52,3.66,3.66,0,0,0,.52,2.91,3.62,3.62,0,0,0,1.2.84l1.92,1a28.21,28.21,0,0,0,3.66,1.8,2.18,2.18,0,0,0,2.63-.55c.38-.52-.49-1-.86-.5s-1.31.19-1.78,0c-.86-.37-1.68-.85-2.51-1.27s-1.81-.91-2.71-1.39a1.7,1.7,0,0,1-1.14-1.93,5.71,5.71,0,0,1,.38-2.17c.38-.86,1.18-.9,2-.66s1.79.69,2.66,1,1.88.72,2.8,1.12a4.14,4.14,0,0,1,2.07,1.5,1.52,1.52,0,0,1-.24,2c-.53.36,0,1.22.51.86Z"/><path d="M336.88,278.75a2.27,2.27,0,0,0,1-2.21,3.25,3.25,0,0,0-1.43-2.25,13.9,13.9,0,0,0-3.05-1.42c-1.24-.5-2.49-1.06-3.76-1.49a2.73,2.73,0,0,0-2.86.31,4,4,0,0,0-.95,2.52,3.63,3.63,0,0,0,.51,2.91,4.19,4.19,0,0,0,1.2.84l1.92,1a28.85,28.85,0,0,0,3.66,1.8,2.17,2.17,0,0,0,2.63-.55c.39-.52-.48-1-.86-.5s-1.3.18-1.77,0c-.86-.37-1.68-.85-2.51-1.27s-1.82-.92-2.71-1.39a2,2,0,0,1-.94-.76,2.28,2.28,0,0,1-.21-1.18,6,6,0,0,1,.38-2.17c.38-.85,1.19-.89,2-.65s1.78.68,2.66,1,1.87.73,2.8,1.13a4,4,0,0,1,2.06,1.5,1.52,1.52,0,0,1-.23,2c-.53.35,0,1.22.5.86Z"/><path d="M342.07,270.34a2.27,2.27,0,0,0,.95-2.21,3.23,3.23,0,0,0-1.42-2.25,13.66,13.66,0,0,0-3.05-1.42c-1.25-.5-2.49-1.06-3.76-1.49a2.75,2.75,0,0,0-2.87.31,4,4,0,0,0-.95,2.52,3.64,3.64,0,0,0,.52,2.9,3.79,3.79,0,0,0,1.2.85l1.92,1a28.21,28.21,0,0,0,3.66,1.8,2.18,2.18,0,0,0,2.63-.55c.38-.52-.49-1-.86-.5s-1.31.18-1.78,0c-.85-.36-1.68-.84-2.51-1.27s-1.81-.91-2.71-1.38a2.14,2.14,0,0,1-.94-.77,2.32,2.32,0,0,1-.2-1.17,5.94,5.94,0,0,1,.38-2.17c.38-.85,1.19-.89,2-.65s1.78.68,2.65,1,1.88.73,2.81,1.12a4.11,4.11,0,0,1,2.06,1.51,1.51,1.51,0,0,1-.24,2c-.53.36,0,1.23.51.87Z"/><path d="M346.48,261.92a2.27,2.27,0,0,0,1-2.21,3.23,3.23,0,0,0-1.43-2.24A13.93,13.93,0,0,0,343,256c-1.24-.49-2.48-1.05-3.76-1.49a2.73,2.73,0,0,0-2.86.32,4,4,0,0,0-.95,2.52,3.6,3.6,0,0,0,.51,2.9,4,4,0,0,0,1.2.85l1.92,1a30.26,30.26,0,0,0,3.66,1.8,2.19,2.19,0,0,0,2.63-.55c.39-.52-.48-1-.86-.51s-1.3.19-1.77,0c-.86-.36-1.68-.84-2.51-1.27s-1.82-.91-2.71-1.38a2.16,2.16,0,0,1-.94-.77,2.23,2.23,0,0,1-.21-1.17,5.94,5.94,0,0,1,.38-2.17c.38-.86,1.19-.89,2-.65s1.78.68,2.66,1,1.88.73,2.8,1.12a4.11,4.11,0,0,1,2.06,1.5,1.52,1.52,0,0,1-.23,2c-.53.36,0,1.23.5.86Z"/><path d="M352.06,253.54a2.27,2.27,0,0,0,.95-2.21,3.23,3.23,0,0,0-1.42-2.25,14.12,14.12,0,0,0-3-1.42c-1.25-.5-2.49-1.06-3.76-1.49a2.75,2.75,0,0,0-2.87.31,4,4,0,0,0-1,2.52,3.67,3.67,0,0,0,.52,2.91,3.62,3.62,0,0,0,1.2.84l1.92,1a28.21,28.21,0,0,0,3.66,1.8,2.18,2.18,0,0,0,2.63-.55c.38-.52-.49-1-.86-.5s-1.31.19-1.78,0c-.86-.37-1.68-.85-2.51-1.27s-1.81-.91-2.71-1.39a1.7,1.7,0,0,1-1.14-1.93,5.71,5.71,0,0,1,.38-2.17c.38-.86,1.18-.9,2-.66a27.65,27.65,0,0,1,2.66,1c.94.37,1.88.72,2.8,1.12a4.14,4.14,0,0,1,2.07,1.5,1.52,1.52,0,0,1-.24,2c-.53.36,0,1.22.51.86Z"/><path d="M223.36,217.47h0l.12,0h0l.14,0h0l.13,0h-.05l.12,0-.05,0,.11.08-.05-.05.07.1,0-.06,0,.12a.25.25,0,0,1,0-.07l0,.13v0l0,.14s0,0,0,0l-.05.12,0,0-.08.11,0,0-.1.07,0,0-.12,0h0l-.13,0h0l-.13,0,0,0-.12-.05.05,0-.1-.08s0,0,0,.06l-.07-.11,0,.06-.05-.11s0,0,0,.05l0-.13v0l0-.13v0l0-.12,0,0,.08-.1,0,0,.79.1a.41.41,0,0,1-.05-.09l.05.11a.56.56,0,0,1,0-.12l0,.13a.33.33,0,0,1,0-.14l0,.13,0-.12-.05.12a.16.16,0,0,1,0-.07l-.94-.25.05.5a.45.45,0,0,0,0,.2.54.54,0,0,0,.1.16.37.37,0,0,0,.17.1.31.31,0,0,0,.19,0,.46.46,0,0,0,.35-.14.51.51,0,0,0,.15-.36l-.05-.5v-.13A.46.46,0,0,0,224,217a.2.2,0,0,0-.09-.09.32.32,0,0,0-.17-.09.61.61,0,0,0-.27,0,.32.32,0,0,0-.17.09.35.35,0,0,0-.13.14.61.61,0,0,0,0,.12.78.78,0,0,0-.08.33.22.22,0,0,0,0,.08l0,.2a.19.19,0,0,0,0,.07,1.34,1.34,0,0,0,.07.18.43.43,0,0,0,0,.07.52.52,0,0,0,.18.18.33.33,0,0,0,.19.06.34.34,0,0,0,.2,0,.42.42,0,0,0,.22-.13.64.64,0,0,0,.19-.45.66.66,0,0,0-.21-.51l0,0a1.3,1.3,0,0,0-.15-.1.57.57,0,0,0-.24-.08.71.71,0,0,0-.25,0,.67.67,0,0,0-.18.07l-.12.1-.06.07a.57.57,0,0,0-.11.22.77.77,0,0,0,0,.15v0a1.1,1.1,0,0,0,0,.18.84.84,0,0,0,.19.33l0,0,.12.09a.71.71,0,0,0,.18.08.65.65,0,0,0,.51-.07.35.35,0,0,0,.14-.13.39.39,0,0,0,.09-.17.44.44,0,0,0,0-.2.64.64,0,0,0-.06-.18.5.5,0,0,0-.3-.23.53.53,0,0,0-.39.05Z"/><path d="M223.88,219q5.43,6.47,10.3,13.39c.37.52,1.23,0,.86-.51q-4.93-7-10.46-13.59c-.41-.49-1.12.22-.7.71Z"/><path d="M223.71,218.16q5.65,5.82,11.19,11.73c.44.47,1.15-.24.71-.71q-5.55-5.91-11.19-11.73c-.45-.46-1.15.25-.71.71Z"/><path d="M224.53,218.48l11.27,8.78c.5.39,1.22-.31.71-.71l-11.27-8.78c-.5-.39-1.22.31-.71.71Z"/><path d="M222.93,218.15a119.7,119.7,0,0,1,6,10.94c.28.57,1.15.07.87-.51a122.26,122.26,0,0,0-6-10.94c-.34-.54-1.2,0-.86.51Z"/><path d="M223.34,218.74l2.63,8.63a.5.5,0,0,0,1-.27l-2.64-8.63a.5.5,0,0,0-1,.27Z"/><path d="M223.14,218.93a36.15,36.15,0,0,1,.5,7.56.5.5,0,0,0,1,0,37.39,37.39,0,0,0-.54-7.83c-.11-.63-1.08-.36-1,.27Z"/><path d="M226.69,215c1.88-.62,3.78-1.06,5.63-.14a8,8,0,0,1,3.56,3.92c1.46,3.13,2.13,7.61-.64,10.23a6.15,6.15,0,0,1-5,1.63c-.63-.1-.9.87-.26,1a7.12,7.12,0,0,0,8.08-6.07,12.68,12.68,0,0,0-.88-6.26,9.87,9.87,0,0,0-3.66-4.89,6.66,6.66,0,0,0-3.14-1.07,10.61,10.61,0,0,0-3.93.72c-.61.21-.35,1.17.26,1Z"/><path d="M222.6,220.21a4.8,4.8,0,0,0-1,5,9.43,9.43,0,0,0,3.95,4.45c.54.36,1-.51.51-.86a8.54,8.54,0,0,1-3.45-3.74,3.82,3.82,0,0,1,.73-4.18c.47-.44-.23-1.15-.7-.71Z"/><path d="M227.18,220.08l8.69,3.38c.6.23.86-.73.27-1l-8.7-3.39c-.6-.23-.86.74-.26,1Z"/><path d="M225.21,219.09l9.63,1.28c.64.08.63-.92,0-1l-9.63-1.28c-.64-.08-.63.92,0,1Z"/><path d="M225.39,219a67.52,67.52,0,0,0,7.45-1.31c.62-.15.36-1.12-.27-1a65,65,0,0,1-7.18,1.28.51.51,0,0,0-.5.5.5.5,0,0,0,.5.5Z"/><path d="M225.1,219.07l4-2.31a.5.5,0,0,0-.5-.86l-4,2.3a.5.5,0,0,0,.51.87Z"/><path d="M225.39,218.43l1.46-2.24a.49.49,0,0,0-.17-.68.51.51,0,0,0-.69.18l-1.46,2.23a.5.5,0,1,0,.86.51Z"/><path d="M224.71,217.74l-.09-.17,0,.12a1.05,1.05,0,0,1-.06-.24l0,.13a1,1,0,0,1,0-.25l0,.14a.84.84,0,0,1,.06-.24l0,.12,0-.06a.56.56,0,0,0,0-.38.5.5,0,0,0-.23-.3.53.53,0,0,0-.39-.05.5.5,0,0,0-.3.23,2.09,2.09,0,0,0-.13.35,1.67,1.67,0,0,0,0,.38,1.49,1.49,0,0,0,.23.72.52.52,0,0,0,.3.23.53.53,0,0,0,.39-.05.48.48,0,0,0,.22-.3.46.46,0,0,0,0-.38Z"/><path d="M172.35,215.93a.5.5,0,0,0,0-1,.5.5,0,0,0,0,1Z"/><path d="M227.22,214.06c.7-1.27,1.46-2.51,2.28-3.71.4-.59.82-1.17,1.25-1.74.05-.08.11-.15.16-.22l.09-.11c-.1.12.07-.09.09-.12l.16-.21.72-.88a1.5,1.5,0,0,0-2.12-2.12,48.76,48.76,0,0,0-5.22,7.6,1.5,1.5,0,1,0,2.59,1.51Z"/><path d="M230.13,207.09c6,4.66,13,7.88,18.87,12.7,1.48,1.22,3.62-.89,2.12-2.12-5.89-4.83-12.86-8-18.87-12.7a1.54,1.54,0,0,0-2.12,0,1.51,1.51,0,0,0,0,2.12Z"/><path d="M242.5,235.45q5.3-7,10-14.52c1-1.64-1.57-3.14-2.59-1.51q-4.69,7.47-10,14.52a1.51,1.51,0,0,0,.54,2.05,1.53,1.53,0,0,0,2.05-.54Z"/><path d="M232.76,232.34c1.89,1.09,3.72,2.27,5.5,3.52a1.5,1.5,0,0,0,2.05-.53,1.54,1.54,0,0,0-.54-2.06c-1.77-1.25-3.61-2.43-5.49-3.52a1.51,1.51,0,0,0-2.05.54,1.53,1.53,0,0,0,.53,2.05Z"/><path d="M251.37,219.76h20a1.5,1.5,0,0,0,0-3h-20a1.5,1.5,0,0,0,0,3Z"/><path d="M242.16,237.38l17.27,1.77a1.5,1.5,0,0,0,0-3l-17.27-1.77a1.51,1.51,0,0,0-1.5,1.5,1.53,1.53,0,0,0,1.5,1.5Z"/><path d="M232.5,207.39c2.31,0,4.62.08,6.92.25a1.51,1.51,0,0,0,1.5-1.5,1.54,1.54,0,0,0-1.5-1.5c-2.3-.17-4.61-.26-6.92-.25a1.5,1.5,0,0,0,0,3Z"/><path d="M260.12,240.31Q271.81,224.49,282,207.6a1.5,1.5,0,0,0-2.59-1.51Q269.23,223,257.53,238.8c-1.15,1.55,1.45,3,2.59,1.51Z"/><path d="M258,213.61,213.5,187.72l-12.69-7.38a1.5,1.5,0,0,0-1.51,2.59l44.5,25.89,12.68,7.38a1.5,1.5,0,0,0,1.51-2.59Z"/><path d="M236.27,232.39a84,84,0,0,0,7.84-11.51.5.5,0,0,0-.86-.5,83.3,83.3,0,0,1-7.69,11.3c-.4.5.31,1.21.71.71Z"/><path d="M243.29,219.68,228.9,208.8c-.52-.39-1,.48-.51.86l14.4,10.88c.51.39,1-.48.5-.86Z"/><path d="M249.28,232.25q3.24-4.38,6.07-9a.5.5,0,0,0-.87-.5q-2.82,4.65-6.06,9c-.39.51.48,1,.86.5Z"/><path d="M252.41,232.21q3.24-4.38,6.06-9a.5.5,0,0,0-.86-.51q-2.82,4.67-6.07,9c-.38.52.49,1,.87.51Z"/><path d="M255.44,232.25q3.24-4.38,6.07-9a.5.5,0,0,0-.87-.5q-2.82,4.65-6.06,9c-.39.51.48,1,.86.5Z"/><path d="M258.47,232.25q3.24-4.38,6.07-9a.5.5,0,0,0-.86-.5q-2.83,4.65-6.07,9c-.38.51.48,1,.86.5Z"/><path d="M261.51,232.25q3.24-4.38,6.06-9a.5.5,0,0,0-.86-.5q-2.82,4.65-6.07,9c-.38.51.49,1,.87.5Z"/><path d="M248.9,208.71l11.27-19.37a1.5,1.5,0,0,0-2.59-1.51L246.31,207.2a1.5,1.5,0,0,0,2.59,1.51Z"/><path d="M268.58,171.46q12.15-21.09,23.22-42.77,3.15-6.15,6.19-12.34c.85-1.73-1.74-3.25-2.59-1.52q-10.75,21.84-22.6,43.11-3.36,6-6.81,12a1.5,1.5,0,0,0,2.59,1.51Z"/><path d="M215.66,132.48q12.84-21.22,26-42.24,3.38-5.4,6.78-10.79c1-1.64-1.56-3.14-2.59-1.51q-13.25,21-26.17,42.15-3.31,5.43-6.62,10.88c-1,1.65,1.59,3.16,2.59,1.51Z"/><path d="M238.82,85q22.41,13,45.4,25.06,6.58,3.42,13.22,6.77c1.72.87,3.24-1.71,1.51-2.59q-23.15-11.68-45.73-24.43-6.47-3.66-12.89-7.4A1.5,1.5,0,0,0,238.82,85Z"/><path d="M280,206.35q14.43,8.46,29.16,16.37c1.7.91,3.22-1.68,1.52-2.59q-14.75-7.92-29.16-16.37a1.5,1.5,0,0,0-1.52,2.59Z"/><path d="M291.12,180.58l17,11.41,8.42,5.63a46.71,46.71,0,0,0,8.07,4.68c1.78.73,2.56-2.17.79-2.9a45.9,45.9,0,0,1-7.76-4.64l-8.41-5.64L292.63,178c-1.6-1.08-3.11,1.52-1.51,2.59Z"/><path d="M261,189.21l-3.12-10a1.54,1.54,0,0,0-1.85-1.05A1.53,1.53,0,0,0,255,180l3.13,10a1.5,1.5,0,0,0,2.89-.79Z"/><path d="M257.29,179.23l10.64-4.94a1.5,1.5,0,1,0-1.51-2.59l-10.64,4.94a1.51,1.51,0,0,0-.54,2.05,1.54,1.54,0,0,0,2.05.54Z"/><path d="M256.35,208.52q10.42-19.08,20.95-38.09t21.16-38q6-10.62,12-21.22c.31-.56-.55-1.07-.87-.51q-10.69,18.93-21.28,37.92t-21.07,38q-5.87,10.67-11.71,21.35c-.3.56.56,1.07.87.5Z"/><path d="M260,180.49q18.53,12.49,37.5,24.33,5.39,3.36,10.81,6.67a.5.5,0,0,0,.51-.87Q289.69,199,271,186.68q-5.29-3.51-10.56-7.06c-.54-.36-1,.51-.51.87Z"/><path d="M236.56,70.2c8.6,6.53,18.09,11.74,27.73,16.57s19.46,9.34,28.9,14.57A150.66,150.66,0,0,1,308.58,111c.52.38,1-.49.51-.86-8.75-6.36-18.32-11.44-28-16.24s-19.46-9.32-28.83-14.67a138.3,138.3,0,0,1-15.21-9.93c-.51-.39-1,.48-.5.87Z"/><path d="M90.93,97.58q13.89,8.55,28.06,16.66T147.59,130q8.08,4.29,16.25,8.42c.58.29,1.08-.58.51-.87q-14.57-7.36-28.88-15.21t-28.36-16.15q-7.87-4.65-15.67-9.46a.5.5,0,0,0-.51.87Z"/><path d="M91.32,96.94a20.48,20.48,0,0,1,5.38-8.59c.46-.44-.24-1.15-.71-.7a21.52,21.52,0,0,0-5.63,9c-.2.62.77.88,1,.27Z"/><path d="M95.73,87.6Q110,96,124.39,103.93t29.09,15.56q8.28,4.29,16.64,8.46c.58.29,1.08-.58.51-.86q-14.76-7.36-29.32-15.12t-28.9-15.9q-8.13-4.6-16.17-9.34a.5.5,0,0,0-.51.87Z"/><path d="M164.4,138.09l5.54-9.71a.5.5,0,0,0-.86-.51l-5.54,9.71a.5.5,0,0,0,.86.51Z"/><path d="M88.19,97.15a29.75,29.75,0,0,1,7.35-11.59c.46-.45-.25-1.16-.71-.71a30.92,30.92,0,0,0-7.61,12c-.21.61.76.87,1,.26Z"/><path d="M86.49,97.07q14.3,9.81,29.24,18.63t30.44,16.61q8.73,4.38,17.63,8.43c.58.26,1.09-.6.51-.86q-15.78-7.19-31.05-15.43T103.32,107Q95.06,101.74,87,96.21c-.54-.37-1,.5-.51.86Z"/><path d="M164.91,140.55a143.67,143.67,0,0,1,8-13.3c.37-.53-.5-1-.86-.5a143.51,143.51,0,0,0-8,13.29c-.31.57.56,1.08.86.51Z"/><path d="M95.11,85.23,125,100.86l29.65,15.52,16.82,8.8c.57.3,1.07-.56.5-.86l-29.87-15.63L112.43,93.17,95.61,84.36c-.57-.29-1.07.57-.5.87Z"/><path d="M198.76,115.13a28.1,28.1,0,0,0-3.06,6.4,1.51,1.51,0,0,0,1.05,1.84,1.53,1.53,0,0,0,1.84-1.05c.18-.52.37-1,.57-1.55,0-.07.2-.54.06-.15.05-.13.12-.27.18-.4l.33-.7a27.19,27.19,0,0,1,1.62-2.88,1.5,1.5,0,0,0-2.59-1.51Z"/><path d="M196.2,124a98.84,98.84,0,0,1,16.85,9.39,1.5,1.5,0,0,0,2-.54,1.53,1.53,0,0,0-.53-2.05,99.67,99.67,0,0,0-16.86-9.4,1.56,1.56,0,0,0-2.05.54,1.52,1.52,0,0,0,.54,2.06Z"/><path d="M84.25,55.52,128.38,79.4q22,11.89,43.85,23.9,12.45,6.87,24.83,13.86c1.68,1,3.2-1.64,1.52-2.59q-21.86-12.34-43.91-24.31Q132.79,78.32,110.84,66.5L85.77,52.93c-1.7-.92-3.22,1.67-1.52,2.59Z"/><path d="M195.38,172.77a35.19,35.19,0,0,0-4,6.12A1.5,1.5,0,0,0,194,180.4c.51-1,1.07-2,1.68-3q.47-.72,1-1.41l.5-.69.13-.17c-.13.17-.14.18,0,.06l.27-.34a1.65,1.65,0,0,0,.43-1.06,1.5,1.5,0,0,0-2.56-1.06Z"/><path d="M177.35,167a8.88,8.88,0,0,1,.91-1.43l-.24.3a9.27,9.27,0,0,1,1.38-1.42,1.52,1.52,0,0,0,.44-1.06,1.5,1.5,0,0,0-.44-1.06,1.47,1.47,0,0,0-1.06-.44l-.4,0a1.49,1.49,0,0,0-.66.39,10.26,10.26,0,0,0-2.52,3.15,1.62,1.62,0,0,0-.16,1.16,1.59,1.59,0,0,0,.69.9,1.51,1.51,0,0,0,2.06-.54Z"/><path d="M60.17,110.67q21.52,11.64,43.28,22.85t43.93,22.12q12.41,6.09,24.88,12.06c1.73.83,3.26-1.76,1.51-2.59q-22.07-10.56-44-21.53T86.08,121.09q-12.24-6.44-24.4-13c-1.7-.91-3.21,1.67-1.51,2.59Z"/><path d="M178.51,163.48q8.22,5,15.94,10.82a1.51,1.51,0,0,0,2.06-.54,1.54,1.54,0,0,0-.54-2q-7.71-5.79-15.95-10.82c-1.65-1-3.16,1.58-1.51,2.59Z"/><path d="M87.89,55.53l1.6-3.18a.52.52,0,0,0-.18-.69.5.5,0,0,0-.68.18L87,55a.5.5,0,1,0,.86.5Z"/><path d="M88.89,52.56l5.44-1.85c.61-.2.35-1.17-.26-1l-5.45,1.84c-.6.21-.34,1.17.27,1Z"/><path d="M93.66,50.52a9,9,0,0,1,1.61,4,.5.5,0,0,0,.61.35.52.52,0,0,0,.35-.62,9.66,9.66,0,0,0-1.7-4.2.5.5,0,0,0-.87.51Z"/><path d="M95,54.86q-.11.33-.24.66s-.08.19,0,.1a1.3,1.3,0,0,1-.08.17l-.13.3a11.45,11.45,0,0,1-.68,1.24.5.5,0,1,0,.86.5A12.92,12.92,0,0,0,96,55.12a.51.51,0,0,0-.35-.61.52.52,0,0,0-.62.35Z"/><path d="M92.64,50.58a34.29,34.29,0,0,1-4.46,3,.5.5,0,0,0,.5.86,34.17,34.17,0,0,0,4.66-3.13.5.5,0,0,0,0-.71.5.5,0,0,0-.7,0Z"/><path d="M92.1,51.47a8.46,8.46,0,0,0,1.64,5.37.52.52,0,0,0,.69.18.5.5,0,0,0,.17-.69,7.55,7.55,0,0,1-1.5-4.86c0-.64-1-.64-1,0Z"/><path d="M98.72,59.87,100.83,57a.49.49,0,0,0-.18-.68.5.5,0,0,0-.68.18l-2.11,2.87a.49.49,0,0,0,.18.68.5.5,0,0,0,.68-.18Z"/><path d="M100.24,57.16l5.67-.91a.5.5,0,0,0,.35-.62.51.51,0,0,0-.61-.35l-5.68.91a.5.5,0,0,0,.27,1Z"/><path d="M105.24,56a8.7,8.7,0,0,1,.88,4,.5.5,0,0,0,1,0,9.87,9.87,0,0,0-1-4.55.5.5,0,0,0-.68-.18.51.51,0,0,0-.18.69Z"/><path d="M105.83,60.42a11.51,11.51,0,0,1-.74,1.21l-.19.27a1.71,1.71,0,0,1-.11.14s-.05.07,0,0l0,.06c-.15.19-.3.37-.46.55a.5.5,0,1,0,.71.71,13,13,0,0,0,1.71-2.45.51.51,0,0,0-.17-.69.52.52,0,0,0-.69.18Z"/><path d="M104.22,55.82A32.54,32.54,0,0,1,99.33,58a.52.52,0,0,0-.35.61.51.51,0,0,0,.62.35,35.6,35.6,0,0,0,5.12-2.3c.57-.31.06-1.18-.5-.87Z"/><path d="M103.51,56.59a8.55,8.55,0,0,0,.75,5.69c.29.57,1.16.07.86-.5a7.49,7.49,0,0,1-.65-4.92c.14-.63-.83-.9-1-.27Z"/><path d="M109.7,66l2.11-2.87a.51.51,0,0,0-.18-.69.53.53,0,0,0-.69.18l-2.11,2.87a.5.5,0,1,0,.87.51Z"/><path d="M111.21,63.24l5.68-.91a.51.51,0,0,0,.35-.61.52.52,0,0,0-.62-.35l-5.67.91a.5.5,0,0,0,.26,1Z"/><path d="M116.21,62.12a8.74,8.74,0,0,1,.88,4.05.5.5,0,0,0,1,0,9.8,9.8,0,0,0-1-4.55.51.51,0,0,0-.69-.18.52.52,0,0,0-.18.68Z"/><path d="M116.81,66.51c-.23.41-.48.82-.74,1.21l-.2.27-.1.14h0l-.06.07c-.14.19-.3.37-.46.55a.52.52,0,0,0,0,.71.51.51,0,0,0,.71,0A13.57,13.57,0,0,0,117.67,67a.51.51,0,0,0-.18-.68.5.5,0,0,0-.68.18Z"/><path d="M115.19,61.91a33.9,33.9,0,0,1-4.88,2.2.5.5,0,0,0,.26,1,34.7,34.7,0,0,0,5.13-2.31c.56-.31.06-1.17-.51-.86Z"/><path d="M114.48,62.68a8.62,8.62,0,0,0,.75,5.69c.3.57,1.16.06.87-.51a7.42,7.42,0,0,1-.65-4.92c.13-.63-.83-.89-1-.26Z"/><path d="M121.08,72.22l2.11-2.87a.5.5,0,0,0-.18-.69.52.52,0,0,0-.68.18l-2.11,2.88a.5.5,0,0,0,.18.68.5.5,0,0,0,.68-.18Z"/><path d="M122.6,69.51l5.67-.91a.51.51,0,0,0,.35-.62.51.51,0,0,0-.61-.35l-5.68.91a.5.5,0,0,0,.27,1Z"/><path d="M127.6,68.38a8.74,8.74,0,0,1,.88,4.05.5.5,0,0,0,1,0,9.84,9.84,0,0,0-1-4.55.5.5,0,0,0-.86.5Z"/><path d="M128.19,72.77a11.51,11.51,0,0,1-.74,1.21l-.19.27-.11.14s-.05.07,0,0l0,.07c-.15.19-.3.37-.46.55a.5.5,0,0,0,.71.71,13,13,0,0,0,1.71-2.45.51.51,0,0,0-.17-.69.52.52,0,0,0-.69.18Z"/><path d="M126.58,68.17a32.49,32.49,0,0,1-4.89,2.2.53.53,0,0,0-.35.62.51.51,0,0,0,.62.35,35.11,35.11,0,0,0,5.12-2.3c.57-.31.06-1.18-.5-.87Z"/><path d="M125.87,68.94a8.56,8.56,0,0,0,.75,5.69c.29.57,1.16.07.86-.51a7.47,7.47,0,0,1-.65-4.92c.14-.62-.83-.89-1-.26Z"/><path d="M133.33,78.48l2.11-2.87a.5.5,0,0,0-.18-.68.52.52,0,0,0-.69.18L132.46,78a.5.5,0,0,0,.18.68.52.52,0,0,0,.69-.18Z"/><path d="M134.84,75.77l5.68-.91a.5.5,0,1,0-.27-1l-5.67.91a.5.5,0,0,0,.26,1Z"/><path d="M139.84,74.65a8.7,8.7,0,0,1,.88,4,.5.5,0,0,0,1,0,9.86,9.86,0,0,0-1-4.55A.51.51,0,0,0,140,74a.52.52,0,0,0-.18.69Z"/><path d="M140.43,79a11.51,11.51,0,0,1-.74,1.21l-.19.27-.1.14s-.06.07,0,0l0,.06c-.15.19-.3.37-.46.55a.52.52,0,0,0,0,.71.51.51,0,0,0,.71,0,13.5,13.5,0,0,0,1.72-2.45.5.5,0,0,0-.87-.51Z"/><path d="M138.82,74.43a32.54,32.54,0,0,1-4.89,2.21.5.5,0,0,0-.34.61.49.49,0,0,0,.61.35,35.71,35.71,0,0,0,5.13-2.3c.56-.31.06-1.18-.51-.87Z"/><path d="M138.11,75.2a8.61,8.61,0,0,0,.75,5.69c.3.57,1.16.07.87-.5a7.42,7.42,0,0,1-.65-4.92c.13-.63-.83-.9-1-.27Z"/><path d="M145,85.27l2.11-2.87a.49.49,0,0,0-.18-.68.51.51,0,0,0-.68.17l-2.11,2.88a.5.5,0,0,0,.18.68.5.5,0,0,0,.68-.18Z"/><path d="M146.56,82.56l5.67-.91a.5.5,0,0,0-.26-1l-5.68.91a.5.5,0,1,0,.27,1Z"/><path d="M151.56,81.43a8.74,8.74,0,0,1,.88,4,.5.5,0,0,0,1,0,9.83,9.83,0,0,0-1-4.55.51.51,0,0,0-.69-.18.5.5,0,0,0-.18.68Z"/><path d="M152.15,85.82a11.51,11.51,0,0,1-.74,1.21l-.19.27-.1.14s-.06.07,0,0l0,.06c-.15.19-.3.37-.46.55a.5.5,0,1,0,.71.71A13.5,13.5,0,0,0,153,86.33a.5.5,0,1,0-.87-.51Z"/><path d="M150.54,81.22a32.54,32.54,0,0,1-4.89,2.21.52.52,0,0,0-.35.61.51.51,0,0,0,.62.35,35.11,35.11,0,0,0,5.12-2.3c.57-.31.06-1.18-.5-.87Z"/><path d="M149.83,82a8.56,8.56,0,0,0,.75,5.69c.29.57,1.16.07.86-.5a7.42,7.42,0,0,1-.64-4.92c.13-.63-.83-.9-1-.27Z"/><path d="M156.58,91.59l2.11-2.87a.5.5,0,1,0-.86-.51l-2.11,2.87a.5.5,0,0,0,.17.69.51.51,0,0,0,.69-.18Z"/><path d="M158.09,88.87l5.68-.91a.5.5,0,0,0,.35-.61.52.52,0,0,0-.62-.35l-5.67.91a.49.49,0,0,0-.35.61.5.5,0,0,0,.61.35Z"/><path d="M163.1,87.75a8.86,8.86,0,0,1,.88,4c0,.64,1,.64,1,0a9.94,9.94,0,0,0-1-4.55.49.49,0,0,0-.68-.18.5.5,0,0,0-.18.68Z"/><path d="M163.69,92.14c-.23.41-.47.82-.74,1.21l-.2.27-.1.14s-.05.07,0,0l0,.07c-.15.19-.31.37-.46.55a.5.5,0,0,0,.7.71,12.64,12.64,0,0,0,1.72-2.46.49.49,0,0,0-.18-.68.5.5,0,0,0-.68.18Z"/><path d="M162.07,87.54a32.94,32.94,0,0,1-4.88,2.2.5.5,0,0,0,.26,1,34.24,34.24,0,0,0,5.13-2.31c.56-.31.06-1.17-.51-.86Z"/><path d="M161.37,88.31a8.5,8.5,0,0,0,.75,5.69c.29.57,1.15.06.86-.51a7.47,7.47,0,0,1-.65-4.92c.13-.62-.83-.89-1-.26Z"/><path d="M169.28,98.85,171.39,96a.51.51,0,0,0-.18-.69.52.52,0,0,0-.68.18l-2.11,2.88a.5.5,0,0,0,.18.68.5.5,0,0,0,.68-.18Z"/><path d="M170.8,96.13l5.67-.9a.51.51,0,0,0,.35-.62.52.52,0,0,0-.61-.35l-5.68.91a.52.52,0,0,0-.35.62.51.51,0,0,0,.62.34Z"/><path d="M175.8,95a8.74,8.74,0,0,1,.88,4,.5.5,0,0,0,1,0,9.81,9.81,0,0,0-1-4.55.5.5,0,1,0-.86.5Z"/><path d="M176.39,99.4a11.51,11.51,0,0,1-.74,1.21l-.2.27-.1.14s0,.07,0,0l-.05.07c-.15.19-.3.37-.46.55a.5.5,0,0,0,.71.71,13,13,0,0,0,1.71-2.45.5.5,0,1,0-.86-.51Z"/><path d="M174.78,94.8a32.49,32.49,0,0,1-4.89,2.2.52.52,0,0,0-.35.62.52.52,0,0,0,.62.35,34.59,34.59,0,0,0,5.12-2.31c.57-.31.06-1.17-.5-.86Z"/><path d="M174.07,95.57a8.56,8.56,0,0,0,.75,5.69c.29.57,1.16.07.86-.51a7.47,7.47,0,0,1-.65-4.92c.14-.62-.83-.89-1-.26Z"/><path d="M218.57,123.43l-3.12-1.71a.51.51,0,0,0-.69.18.51.51,0,0,0,.18.68l3.13,1.72a.5.5,0,0,0,.5-.87Z"/><path d="M215.64,122.32,214,116.81a.5.5,0,0,0-1,.27l1.64,5.5a.5.5,0,0,0,1-.26Z"/><path d="M213.8,117.48a8.83,8.83,0,0,1,3.89-1.43.51.51,0,0,0,.5-.5.5.5,0,0,0-.5-.5,9.77,9.77,0,0,0-4.39,1.57.5.5,0,1,0,.5.86Z"/><path d="M218.19,116.31l.35.13c.05,0,.05,0,0,0l.08,0,.13.06.64.31a11.57,11.57,0,0,1,1.22.73.5.5,0,0,0,.5-.87,13.12,13.12,0,0,0-2.66-1.37.52.52,0,0,0-.62.35.52.52,0,0,0,.35.62Z"/><path d="M213.75,118.43a34.48,34.48,0,0,1,2.88,4.67.51.51,0,0,0,.69.18.5.5,0,0,0,.17-.68,32.37,32.37,0,0,0-2.88-4.67.51.51,0,0,0-.69-.18.49.49,0,0,0-.17.68Z"/><path d="M214.7,119.09a8.46,8.46,0,0,0,5.42-1.45.5.5,0,0,0-.5-.87,7.56,7.56,0,0,1-4.92,1.32.5.5,0,0,0,0,1Z"/><path d="M225,112.46l-3.12-1.72a.5.5,0,1,0-.51.86l3.12,1.72a.5.5,0,1,0,.51-.86Z"/><path d="M222.05,111.34l-1.64-5.51a.5.5,0,0,0-1,.27l1.64,5.51a.5.5,0,0,0,1-.27Z"/><path d="M220.21,106.5a8.78,8.78,0,0,1,3.89-1.43.51.51,0,0,0,.5-.5.5.5,0,0,0-.5-.5,9.72,9.72,0,0,0-4.39,1.57.5.5,0,0,0-.18.68.5.5,0,0,0,.68.18Z"/><path d="M224.6,105.33l.35.14h0l.09,0,.13,0,.64.32a11.48,11.48,0,0,1,1.22.72.5.5,0,0,0,.68-.18.53.53,0,0,0-.18-.69,13.35,13.35,0,0,0-2.66-1.36.5.5,0,0,0-.62.35.52.52,0,0,0,.35.61Z"/><path d="M220.15,107.45a33.57,33.57,0,0,1,2.89,4.67.5.5,0,0,0,.68.18.49.49,0,0,0,.18-.68A33.87,33.87,0,0,0,221,107a.52.52,0,0,0-.69-.18.5.5,0,0,0-.18.68Z"/><path d="M221.11,108.11a8.4,8.4,0,0,0,5.42-1.45.51.51,0,0,0,.18-.68.5.5,0,0,0-.68-.18,7.61,7.61,0,0,1-4.92,1.31.5.5,0,0,0,0,1Z"/><path d="M231.29,101.84l-3.12-1.72a.5.5,0,1,0-.51.87l3.13,1.71a.49.49,0,0,0,.68-.18.5.5,0,0,0-.18-.68Z"/><path d="M228.36,100.72l-1.64-5.5a.5.5,0,0,0-1,.26L227.4,101a.5.5,0,0,0,1-.27Z"/><path d="M226.52,95.89a8.72,8.72,0,0,1,3.89-1.44.51.51,0,0,0,.5-.5.51.51,0,0,0-.5-.5A9.89,9.89,0,0,0,226,95a.52.52,0,0,0-.18.69.5.5,0,0,0,.68.18Z"/><path d="M230.91,94.71l.35.14c.05,0,.06,0,0,0l.08,0,.13.06c.22.09.43.2.65.31.41.22.82.46,1.21.72a.5.5,0,0,0,.5-.86,13.12,13.12,0,0,0-2.66-1.37.5.5,0,0,0-.62.35.52.52,0,0,0,.35.61Z"/><path d="M226.47,96.84a33.28,33.28,0,0,1,2.88,4.67.5.5,0,0,0,.69.17.51.51,0,0,0,.18-.68,34.54,34.54,0,0,0-2.89-4.67.5.5,0,1,0-.86.51Z"/><path d="M227.42,97.5A8.41,8.41,0,0,0,232.84,96a.5.5,0,0,0,.18-.68.5.5,0,0,0-.68-.18,7.6,7.6,0,0,1-4.92,1.32.5.5,0,0,0-.5.5.51.51,0,0,0,.5.5Z"/><path d="M183.34,106.11l2.11-2.87a.52.52,0,0,0-.18-.69.54.54,0,0,0-.69.18l-2.11,2.88a.5.5,0,0,0,.18.68.52.52,0,0,0,.69-.18Z"/><path d="M184.85,103.4l5.68-.91a.5.5,0,0,0-.27-1l-5.67.91a.5.5,0,0,0-.35.62.51.51,0,0,0,.61.35Z"/><path d="M189.85,102.27a8.74,8.74,0,0,1,.88,4,.5.5,0,0,0,1,0,9.83,9.83,0,0,0-1-4.55.5.5,0,0,0-.87.5Z"/><path d="M190.44,106.66a11.51,11.51,0,0,1-.74,1.21l-.19.27-.1.14h0l-.06.07c-.14.19-.3.37-.46.55a.52.52,0,0,0,0,.71.51.51,0,0,0,.71,0,13.5,13.5,0,0,0,1.72-2.45.5.5,0,1,0-.87-.51Z"/><path d="M188.83,102.06a32.49,32.49,0,0,1-4.89,2.2.51.51,0,0,0-.34.62.49.49,0,0,0,.61.35,35.71,35.71,0,0,0,5.13-2.3.5.5,0,0,0-.51-.87Z"/><path d="M188.12,102.83a8.62,8.62,0,0,0,.75,5.69c.3.57,1.16.07.87-.51a7.41,7.41,0,0,1-.65-4.92c.13-.62-.83-.89-1-.26Z"/><path d="M40.67,129.24l2.11-2.87a.51.51,0,0,0-.18-.69.5.5,0,0,0-.68.18l-2.11,2.87a.5.5,0,0,0,.17.69.52.52,0,0,0,.69-.18Z"/><path d="M42.18,126.52l5.68-.91a.5.5,0,0,0,.35-.61.52.52,0,0,0-.62-.35l-5.67.91a.49.49,0,0,0-.35.61.5.5,0,0,0,.61.35Z"/><path d="M47.19,125.4a8.86,8.86,0,0,1,.88,4c0,.64,1,.64,1,0a9.94,9.94,0,0,0-1-4.55.49.49,0,0,0-.68-.18.5.5,0,0,0-.18.68Z"/><path d="M47.78,129.79A13.31,13.31,0,0,1,47,131l-.2.28-.1.13s-.05.08,0,0l0,.07c-.15.19-.31.37-.46.55a.5.5,0,0,0,0,.71.51.51,0,0,0,.7,0,13.09,13.09,0,0,0,1.72-2.46.5.5,0,1,0-.86-.5Z"/><path d="M46.16,125.19a33.41,33.41,0,0,1-4.88,2.2.5.5,0,0,0,.26,1,34.24,34.24,0,0,0,5.13-2.31c.56-.31.06-1.17-.51-.86Z"/><path d="M45.46,126a8.51,8.51,0,0,0,.75,5.69c.29.57,1.15.06.86-.51a7.48,7.48,0,0,1-.65-4.92c.13-.63-.83-.89-1-.26Z"/><path d="M88.16,154.08l2.11-2.88a.5.5,0,0,0-.18-.68.5.5,0,0,0-.68.18l-2.11,2.87a.51.51,0,0,0,.18.69.52.52,0,0,0,.68-.18Z"/><path d="M89.68,151.36l5.67-.91a.49.49,0,0,0,.35-.61.51.51,0,0,0-.61-.35l-5.68.91a.51.51,0,0,0-.35.61.52.52,0,0,0,.62.35Z"/><path d="M94.68,150.24a8.74,8.74,0,0,1,.88,4,.5.5,0,0,0,1,0,9.88,9.88,0,0,0-1-4.56.5.5,0,0,0-.86.51Z"/><path d="M95.27,154.63a11.37,11.37,0,0,1-.74,1.2,2.83,2.83,0,0,1-.2.28,1.13,1.13,0,0,1-.1.13s0,.08,0,0l0,.07c-.15.18-.3.37-.46.55a.5.5,0,1,0,.71.7,13,13,0,0,0,1.71-2.45.49.49,0,0,0-.18-.68.5.5,0,0,0-.68.18Z"/><path d="M93.66,150a33.52,33.52,0,0,1-4.89,2.2.52.52,0,0,0-.35.62.5.5,0,0,0,.62.34,33.53,33.53,0,0,0,5.12-2.3c.57-.31.06-1.17-.5-.86Z"/><path d="M93,150.79a8.55,8.55,0,0,0,.75,5.69c.29.58,1.16.07.86-.5a7.48,7.48,0,0,1-.65-4.92c.14-.63-.83-.9-1-.27Z"/><path d="M100.08,158.45l2.11-2.87a.52.52,0,0,0-.18-.69.54.54,0,0,0-.69.18L99.21,158a.5.5,0,0,0,.18.68.52.52,0,0,0,.69-.18Z"/><path d="M101.59,155.74l5.68-.91a.52.52,0,0,0,.35-.62.52.52,0,0,0-.62-.35l-5.67.91a.5.5,0,0,0-.35.62.52.52,0,0,0,.61.35Z"/><path d="M106.6,154.61a8.86,8.86,0,0,1,.88,4c0,.65,1,.64,1,0a9.94,9.94,0,0,0-1-4.55.5.5,0,1,0-.86.5Z"/><path d="M107.19,159a13.48,13.48,0,0,1-.74,1.21l-.2.27-.1.14s-.06.07,0,0l0,.07c-.15.19-.31.37-.46.55a.5.5,0,1,0,.7.71,13,13,0,0,0,1.72-2.45.5.5,0,1,0-.86-.51Z"/><path d="M105.57,154.4a32.38,32.38,0,0,1-4.88,2.2.51.51,0,0,0-.35.62.5.5,0,0,0,.61.35,35.23,35.23,0,0,0,5.13-2.3.5.5,0,0,0-.51-.87Z"/><path d="M104.87,155.17a8.5,8.5,0,0,0,.75,5.69c.29.57,1.15.07.86-.51a7.47,7.47,0,0,1-.65-4.92c.13-.62-.83-.89-1-.26Z"/><path d="M111.05,165.5l2.11-2.88a.5.5,0,0,0-.18-.68.5.5,0,0,0-.68.18L110.19,165a.51.51,0,0,0,.18.69.52.52,0,0,0,.68-.18Z"/><path d="M112.57,162.78l5.67-.91a.49.49,0,0,0,.35-.61.5.5,0,0,0-.61-.35l-5.68.91a.51.51,0,0,0-.35.61.52.52,0,0,0,.62.35Z"/><path d="M117.57,161.66a8.74,8.74,0,0,1,.88,4.05.5.5,0,0,0,1,0,9.88,9.88,0,0,0-1-4.56.5.5,0,1,0-.86.51Z"/><path d="M118.16,166.05a12.5,12.5,0,0,1-.74,1.2l-.2.28a1.13,1.13,0,0,1-.1.13s-.05.07,0,0l0,.07c-.15.18-.3.37-.46.55a.5.5,0,0,0,.71.7,13,13,0,0,0,1.71-2.45.5.5,0,1,0-.86-.5Z"/><path d="M116.55,161.45a33.52,33.52,0,0,1-4.89,2.2.52.52,0,0,0-.35.61.51.51,0,0,0,.62.35,33.53,33.53,0,0,0,5.12-2.3c.57-.31.06-1.17-.5-.86Z"/><path d="M115.84,162.21a8.55,8.55,0,0,0,.75,5.69c.29.58,1.16.07.86-.5a7.48,7.48,0,0,1-.65-4.92c.14-.63-.83-.9-1-.27Z"/><path d="M249.5,89.46l2.11-2.87a.49.49,0,0,0-.18-.68.5.5,0,0,0-.68.18L248.64,89a.5.5,0,1,0,.86.5Z"/><path d="M251,86.75l5.67-.91a.5.5,0,0,0,.35-.62.51.51,0,0,0-.61-.35l-5.68.91a.5.5,0,0,0,.27,1Z"/><path d="M256,85.63a8.67,8.67,0,0,1,.88,4,.5.5,0,0,0,1,0,9.83,9.83,0,0,0-1-4.55.5.5,0,1,0-.87.51Z"/><path d="M256.61,90a11.51,11.51,0,0,1-.74,1.21l-.19.27-.1.14s-.06.07,0,0l-.05.06c-.15.19-.3.37-.46.55a.5.5,0,1,0,.71.71,13.5,13.5,0,0,0,1.72-2.45.5.5,0,1,0-.87-.51Z"/><path d="M255,85.41a32.54,32.54,0,0,1-4.89,2.21.52.52,0,0,0-.35.61.51.51,0,0,0,.62.35,35.11,35.11,0,0,0,5.12-2.3c.57-.31.06-1.18-.5-.87Z"/><path d="M254.29,86.18a8.56,8.56,0,0,0,.75,5.69c.3.57,1.16.07.87-.5a7.36,7.36,0,0,1-.65-4.92c.13-.63-.83-.9-1-.27Z"/><path d="M262.56,95.55l2.11-2.88a.49.49,0,0,0-.18-.68.5.5,0,0,0-.68.18L261.7,95a.49.49,0,0,0,.18.68.51.51,0,0,0,.68-.17Z"/><path d="M264.08,92.83l5.67-.91a.5.5,0,1,0-.26-1l-5.68.91a.51.51,0,0,0-.35.61.52.52,0,0,0,.62.35Z"/><path d="M269.08,91.71a8.74,8.74,0,0,1,.88,4.05.5.5,0,0,0,1,0,9.76,9.76,0,0,0-1-4.56.5.5,0,0,0-.68-.18.51.51,0,0,0-.18.69Z"/><path d="M269.67,96.1a12.5,12.5,0,0,1-.74,1.2l-.19.28-.11.13s-.05.07,0,0l-.05.06c-.15.19-.3.38-.46.56a.5.5,0,0,0,.71.7,13.5,13.5,0,0,0,1.72-2.45.51.51,0,0,0-.18-.68.5.5,0,0,0-.69.18Z"/><path d="M268.06,91.5a33.52,33.52,0,0,1-4.89,2.2.52.52,0,0,0-.35.61.51.51,0,0,0,.62.35,34.08,34.08,0,0,0,5.12-2.3c.57-.31.06-1.17-.5-.86Z"/><path d="M267.35,92.26A8.55,8.55,0,0,0,268.1,98c.29.58,1.16.07.86-.5a7.49,7.49,0,0,1-.65-4.92c.14-.63-.83-.9-1-.27Z"/><path d="M274.54,101.48l2.11-2.87a.5.5,0,0,0-.17-.69.53.53,0,0,0-.69.18L273.68,101a.5.5,0,0,0,.86.5Z"/><path d="M276.06,98.77l5.68-.91a.5.5,0,0,0-.27-1l-5.68.91a.5.5,0,0,0,.27,1Z"/><path d="M281.06,97.64a8.74,8.74,0,0,1,.88,4,.5.5,0,0,0,1,0,9.83,9.83,0,0,0-1-4.55.51.51,0,0,0-.69-.18.5.5,0,0,0-.18.68Z"/><path d="M281.65,102a11.51,11.51,0,0,1-.74,1.21l-.19.27-.1.14s-.06.07,0,0l-.05.07c-.15.19-.3.37-.46.55a.5.5,0,0,0,.71.71,13.5,13.5,0,0,0,1.72-2.45.5.5,0,1,0-.87-.51Z"/><path d="M280,97.43a32.54,32.54,0,0,1-4.89,2.21.52.52,0,0,0-.35.61.51.51,0,0,0,.62.35,35.71,35.71,0,0,0,5.13-2.3c.56-.31.06-1.18-.51-.87Z"/><path d="M279.33,98.2a8.56,8.56,0,0,0,.75,5.69c.3.57,1.16.07.87-.51a7.39,7.39,0,0,1-.65-4.91c.13-.63-.83-.9-1-.27Z"/><path d="M286.11,107.82l2.11-2.88a.49.49,0,0,0-.18-.68.5.5,0,0,0-.68.18l-2.11,2.87a.5.5,0,1,0,.86.51Z"/><path d="M287.63,105.1l5.67-.91a.49.49,0,0,0,.35-.61.5.5,0,0,0-.61-.35l-5.68.91a.5.5,0,1,0,.27,1Z"/><path d="M292.63,104a8.74,8.74,0,0,1,.88,4,.5.5,0,0,0,1,0,9.8,9.8,0,0,0-1-4.55.5.5,0,0,0-.87.5Z"/><path d="M293.22,108.37a11.37,11.37,0,0,1-.74,1.2c-.06.1-.13.19-.19.28a1.13,1.13,0,0,0-.1.13s-.06.08,0,0l-.05.07c-.15.18-.3.37-.46.55a.5.5,0,1,0,.71.7,13.5,13.5,0,0,0,1.72-2.45.5.5,0,0,0-.87-.5Z"/><path d="M291.61,103.77a33.52,33.52,0,0,1-4.89,2.2.52.52,0,0,0-.35.62.52.52,0,0,0,.62.35,34.13,34.13,0,0,0,5.12-2.31c.57-.31.06-1.17-.5-.86Z"/><path d="M290.9,104.54a8.57,8.57,0,0,0,.75,5.69c.29.57,1.16.06.87-.51a7.36,7.36,0,0,1-.65-4.92c.13-.63-.83-.89-1-.26Z"/><path d="M122.44,173.47l2.11-2.87a.5.5,0,1,0-.86-.51L121.58,173a.5.5,0,0,0,.17.69.52.52,0,0,0,.69-.18Z"/><path d="M124,170.75l5.68-.91a.5.5,0,0,0,.35-.61.52.52,0,0,0-.62-.35l-5.67.91a.49.49,0,0,0-.35.61.5.5,0,0,0,.61.35Z"/><path d="M129,169.63a8.86,8.86,0,0,1,.88,4.05c0,.64,1,.64,1,0a9.94,9.94,0,0,0-1-4.55.49.49,0,0,0-.68-.18.5.5,0,0,0-.18.68Z"/><path d="M129.55,174c-.23.41-.47.82-.74,1.21l-.2.27-.1.14s0,.07,0,0l-.05.07c-.15.19-.31.37-.46.55a.5.5,0,0,0,.7.71,13.09,13.09,0,0,0,1.72-2.46.5.5,0,1,0-.86-.5Z"/><path d="M127.93,169.42a33.41,33.41,0,0,1-4.88,2.2.5.5,0,0,0,.26,1,34.24,34.24,0,0,0,5.13-2.31c.56-.31.06-1.17-.51-.86Z"/><path d="M127.23,170.19a8.5,8.5,0,0,0,.75,5.69c.29.57,1.15.06.86-.51a7.47,7.47,0,0,1-.65-4.92c.13-.62-.83-.89-1-.26Z"/><path d="M136.45,179.09l2.11-2.87a.5.5,0,0,0-.18-.69.52.52,0,0,0-.68.18l-2.11,2.88a.5.5,0,0,0,.18.68.5.5,0,0,0,.68-.18Z"/><path d="M138,176.38l5.67-.91a.5.5,0,0,0-.26-1l-5.68.91a.5.5,0,0,0,.27,1Z"/><path d="M143,175.25a8.74,8.74,0,0,1,.88,4.05.5.5,0,0,0,1,0,9.72,9.72,0,0,0-1-4.55.5.5,0,1,0-.86.5Z"/><path d="M143.56,179.64a11.51,11.51,0,0,1-.74,1.21l-.19.27-.11.14s-.05.07,0,0l0,.07c-.15.19-.3.37-.46.55a.5.5,0,0,0,.71.71,13.5,13.5,0,0,0,1.72-2.45.5.5,0,1,0-.87-.51Z"/><path d="M142,175a32.49,32.49,0,0,1-4.89,2.2.53.53,0,0,0-.35.62.51.51,0,0,0,.62.35,35.11,35.11,0,0,0,5.12-2.3c.57-.31.06-1.18-.5-.87Z"/><path d="M141.24,175.81a8.56,8.56,0,0,0,.75,5.69c.29.57,1.16.07.86-.51a7.47,7.47,0,0,1-.65-4.92c.14-.62-.83-.89-1-.26Z"/><path d="M186.32,206.52l2.11-2.88a.5.5,0,0,0-.18-.68.5.5,0,0,0-.68.18L185.46,206a.51.51,0,0,0,.18.69.52.52,0,0,0,.68-.18Z"/><path d="M187.84,203.8l5.67-.91a.49.49,0,0,0,.35-.61.51.51,0,0,0-.61-.35l-5.68.91a.51.51,0,0,0-.35.61.52.52,0,0,0,.62.35Z"/><path d="M192.84,202.68a8.74,8.74,0,0,1,.88,4c0,.64,1,.64,1,0a9.88,9.88,0,0,0-1-4.56.5.5,0,0,0-.86.51Z"/><path d="M193.43,207.07a11.37,11.37,0,0,1-.74,1.2,2.83,2.83,0,0,1-.2.28,1.13,1.13,0,0,1-.1.13s0,.08,0,0l0,.07c-.15.18-.3.37-.46.55a.5.5,0,0,0,.71.7,13,13,0,0,0,1.71-2.45.49.49,0,0,0-.18-.68.5.5,0,0,0-.68.18Z"/><path d="M191.82,202.47a33.52,33.52,0,0,1-4.89,2.2.52.52,0,0,0-.35.62.52.52,0,0,0,.62.35,34.59,34.59,0,0,0,5.12-2.31c.57-.31.06-1.17-.5-.86Z"/><path d="M191.11,203.24a8.57,8.57,0,0,0,.75,5.69c.29.57,1.16.06.86-.51a7.48,7.48,0,0,1-.65-4.92c.14-.63-.83-.9-1-.26Z"/><path d="M201,213l2.11-2.88a.5.5,0,0,0-.86-.5l-2.11,2.87a.49.49,0,0,0,.17.68A.52.52,0,0,0,201,213Z"/><path d="M202.53,210.32l5.68-.91a.5.5,0,0,0,.35-.61.51.51,0,0,0-.62-.35l-5.67.91a.49.49,0,0,0-.35.61.52.52,0,0,0,.61.35Z"/><path d="M207.54,209.2a8.86,8.86,0,0,1,.88,4.05c0,.64,1,.64,1,0a10,10,0,0,0-1-4.56.5.5,0,0,0-.68-.18.51.51,0,0,0-.18.69Z"/><path d="M208.13,213.59c-.23.41-.47.81-.74,1.2l-.2.28-.1.13s-.05.07,0,0l-.05.06-.46.56a.49.49,0,0,0,.7.7,13,13,0,0,0,1.72-2.45.5.5,0,0,0-.18-.68.49.49,0,0,0-.68.18Z"/><path d="M206.51,209a33.41,33.41,0,0,1-4.88,2.2.5.5,0,1,0,.26,1,34.19,34.19,0,0,0,5.13-2.3c.56-.31.06-1.17-.51-.86Z"/><path d="M205.81,209.75a8.49,8.49,0,0,0,.75,5.69c.29.58,1.15.07.86-.5a7.49,7.49,0,0,1-.65-4.92c.13-.63-.83-.9-1-.27Z"/><path d="M74.43,38.52l26.16,13.39,26.27,13.46L153,78.76l26.15,13.4,26.27,13.45,3.22,1.66c.58.29,1.08-.57.51-.87L183,93,156.74,79.55,130.59,66.16l-26.16-13.4L78.16,39.3l-3.22-1.65c-.57-.29-1.08.57-.51.87Z"/><path d="M81.56,53.64a98,98,0,0,0-7.21-17.18c-.91-1.71-3.5-.19-2.59,1.51a94.7,94.7,0,0,1,6.91,16.47c.57,1.84,3.47,1.05,2.89-.8Z"/><path d="M193.93,170.12q8.34-13.34,16-27.05,2.16-3.87,4.28-7.76c.31-.56-.55-1.07-.86-.5q-7.51,13.8-15.66,27.26c-1.54,2.52-3.08,5-4.65,7.54-.34.55.52,1,.86.51Z"/><path d="M195.45,135.82c-1,1.55-2,3.08-2.91,4.68-.46.82.14,1.3.75,1.77a14.25,14.25,0,0,0,2,1.25c.63.32,1.51.86,2.24.62s1.09-1.18,1.45-1.76l1.43-2.27a2.36,2.36,0,0,0,.49-1,1.48,1.48,0,0,0-.48-1,7.09,7.09,0,0,0-4-2.45c-.63-.13-.9.83-.27,1a6.1,6.1,0,0,1,3,1.52,5.21,5.21,0,0,1,.56.59c.07.08.21.21.23.31s-.1.23-.16.33l-1.15,1.83c-.37.59-.72,1.21-1.12,1.77-.19.27-.31.28-.62.17s-.61-.26-.91-.4a14.89,14.89,0,0,1-1.63-1c-.26-.18-.5-.36-.74-.55l-.13-.11c-.19-.23,0,0,0,0s.22-.37.29-.48l2.64-4.25c.34-.55-.52-1-.86-.5Z"/><path d="M187.9,148.39c-1,1.56-2,3.09-2.91,4.68-.46.82.14,1.3.76,1.77a11.77,11.77,0,0,0,2,1.25c.63.33,1.5.87,2.23.63s1.09-1.19,1.46-1.77l1.42-2.27a2.22,2.22,0,0,0,.49-1,1.46,1.46,0,0,0-.48-1,7.07,7.07,0,0,0-4-2.46c-.63-.13-.9.84-.27,1a6.16,6.16,0,0,1,3,1.51,6.32,6.32,0,0,1,.56.6,1.13,1.13,0,0,1,.24.3c0,.1-.11.23-.17.34L191,153.76c-.37.58-.72,1.2-1.12,1.77-.19.26-.31.28-.62.16a7.25,7.25,0,0,1-.9-.4,12.85,12.85,0,0,1-1.64-1c-.25-.17-.5-.35-.74-.55a.63.63,0,0,1-.12-.11c-.2-.23,0,0,0,0s.23-.37.3-.49l2.63-4.25c.34-.54-.52-1-.86-.5Z"/><path d="M196.54,136.08l6.08-8.83c.36-.53-.5-1-.87-.5l-6.08,8.83c-.36.53.5,1,.87.5Z"/><path d="M189.13,148.49l3.74-5.86c.34-.55-.52-1-.87-.51L188.26,148c-.34.54.52,1,.87.5Z"/><path d="M181,160.89l3.77-5.47a.5.5,0,0,0-.18-.68.49.49,0,0,0-.68.18l-3.77,5.47a.5.5,0,0,0,.86.5Z"/><path d="M182,161.58q1.88-2.4,3.59-4.92a.51.51,0,0,0-.18-.69.53.53,0,0,0-.69.18c-1.08,1.62-2.23,3.19-3.42,4.73a.5.5,0,0,0,0,.7.48.48,0,0,0,.7,0Z"/><path d="M183.33,162.3a51.25,51.25,0,0,0,3.47-5.17.5.5,0,0,0-.86-.51,53,53,0,0,1-3.47,5.17.5.5,0,0,0,.18.69.51.51,0,0,0,.68-.18Z"/><path d="M184.5,163.08a61.81,61.81,0,0,0,3.82-5.94c.32-.56-.55-1.07-.86-.51a60.6,60.6,0,0,1-3.82,5.94.5.5,0,1,0,.86.51Z"/><path d="M190.59,148.84l3.49-5a.5.5,0,0,0-.18-.68.51.51,0,0,0-.68.18l-3.5,5a.5.5,0,0,0,.18.68.51.51,0,0,0,.69-.17Z"/><path d="M191.72,149.4l3.5-5.39c.35-.55-.51-1-.86-.51l-3.51,5.4c-.35.54.52,1,.87.5Z"/><path d="M193.06,150.55l3.21-5.65a.5.5,0,0,0-.86-.51L192.19,150a.5.5,0,0,0,.87.51Z"/><path d="M197.84,136.81c2.18-2.88,4.27-5.82,6.24-8.84.36-.54-.51-1-.86-.5q-3,4.51-6.24,8.83c-.39.51.47,1,.86.51Z"/><path d="M199.37,137.43l5.63-8.55c.35-.54-.51-1-.86-.5l-5.63,8.54c-.35.54.51,1.05.86.51Z"/><path d="M200.56,138.47l6.17-9.18c.36-.54-.51-1-.86-.51L199.7,138c-.36.53.5,1,.86.5Z"/><path d="M82,55.66,83.05,58a.5.5,0,0,0,.68.18.51.51,0,0,0,.18-.69l-1.08-2.35a.51.51,0,0,0-.69-.18.52.52,0,0,0-.18.69Z"/><path d="M82.65,57.93a244,244,0,0,1,21.68,11.19l22.14,12.33,22.25,12.39L171,106.23l22.25,12.39,2.73,1.52c.56.31,1.06-.55.5-.86l-22.25-12.39L152.07,94.56,129.81,82.17,107.56,69.78c-7.14-4-14.25-8.07-21.68-11.5-.9-.42-1.81-.82-2.72-1.22-.59-.25-1.1.61-.51.87Z"/><path d="M89.09,39.52l4.59-6.44a.5.5,0,1,0-.86-.51L88.23,39a.51.51,0,0,0,.18.69.5.5,0,0,0,.68-.18Z"/><path d="M93.1,33.75a10.13,10.13,0,0,0,2.47,5.1c.43.48,1.14-.23.71-.7a9.32,9.32,0,0,1-2.22-4.67.5.5,0,1,0-1,.27Z"/><path d="M86.65,36.81A25.77,25.77,0,0,1,94,34.09c.63-.14.37-1.1-.26-1A26.68,26.68,0,0,0,86.15,36c-.56.31-.06,1.17.5.86Z"/><path d="M103.35,45.42l5.91-5.26c.48-.42-.23-1.13-.71-.7l-5.91,5.25c-.48.43.23,1.14.71.71Z"/><path d="M108.55,40.66a10.16,10.16,0,0,0,1.26,5.53c.31.56,1.18.06.87-.5a9.11,9.11,0,0,1-1.13-5c0-.65-1-.64-1,0Z"/><path d="M101.56,42.23a26.11,26.11,0,0,1,7.76-1,.5.5,0,0,0,0-1,26.84,26.84,0,0,0-8,1.06.5.5,0,0,0,.26,1Z"/><path d="M119.21,53.48l5.91-5.26c.49-.43-.22-1.13-.7-.71l-5.91,5.26c-.48.43.23,1.13.7.71Z"/><path d="M124.41,48.71a10.29,10.29,0,0,0,1.27,5.54c.31.56,1.18.06.86-.51a9.25,9.25,0,0,1-1.13-5c0-.64-1-.64-1,0Z"/><path d="M117.43,50.29a26.12,26.12,0,0,1,7.76-1c.64,0,.64-1,0-1a27.17,27.17,0,0,0-8,1.06.5.5,0,0,0,.26,1Z"/><path d="M136.36,61.06l5.91-5.26c.48-.43-.22-1.14-.7-.71l-5.91,5.26c-.49.43.22,1.13.7.71Z"/><path d="M141.56,56.29a10.31,10.31,0,0,0,1.27,5.54c.31.56,1.18.05.86-.51a9.29,9.29,0,0,1-1.13-5c0-.64-1-.64-1,0Z"/><path d="M134.58,57.86a26.11,26.11,0,0,1,7.76-1,.5.5,0,0,0,0-1,27.17,27.17,0,0,0-8,1.06.5.5,0,0,0,.26,1Z"/><path d="M59.7,117.11l5.91-5.25c.48-.43-.23-1.14-.71-.71L59,116.41c-.48.42.23,1.13.71.7Z"/><path d="M64.9,112.35a10.16,10.16,0,0,0,1.26,5.53.5.5,0,0,0,.87-.5,9.2,9.2,0,0,1-1.13-5c0-.65-1-.64-1,0Z"/><path d="M57.92,113.92a26,26,0,0,1,7.75-1,.5.5,0,0,0,0-1,26.84,26.84,0,0,0-8,1.06.5.5,0,0,0,.27,1Z"/><path d="M70.57,123.58l5.91-5.26c.48-.43-.23-1.13-.71-.7l-5.91,5.25c-.48.43.23,1.14.71.71Z"/><path d="M75.77,118.81A10.17,10.17,0,0,0,77,124.35a.5.5,0,0,0,.87-.51,9.16,9.16,0,0,1-1.13-5c0-.64-1-.64-1,0Z"/><path d="M68.79,120.39a26.06,26.06,0,0,1,7.75-1,.5.5,0,0,0,0-1,27.17,27.17,0,0,0-8,1.06.5.5,0,0,0,.27,1Z"/><path d="M81,129.89l5.91-5.25c.48-.43-.23-1.14-.71-.71l-5.91,5.26c-.48.43.23,1.13.71.7Z"/><path d="M86.19,125.13a10.21,10.21,0,0,0,1.26,5.54c.32.56,1.18.05.87-.51a9.2,9.2,0,0,1-1.13-5c0-.64-1-.64-1,0Z"/><path d="M79.21,126.7a26,26,0,0,1,7.75-1,.5.5,0,0,0,0-1,27.17,27.17,0,0,0-8,1.06.5.5,0,0,0,.27,1Z"/><path d="M92.26,136.31l5.91-5.26c.48-.43-.23-1.14-.71-.71l-5.91,5.26c-.48.43.23,1.13.71.71Z"/><path d="M97.46,131.54a10.22,10.22,0,0,0,1.27,5.54c.31.56,1.17,0,.86-.51a9.29,9.29,0,0,1-1.13-5c0-.64-1-.64-1,0Z"/><path d="M90.48,133.11a26.07,26.07,0,0,1,7.76-1,.5.5,0,0,0,0-1,27.28,27.28,0,0,0-8,1.06.5.5,0,0,0,.27,1Z"/><path d="M103.71,142l5.91-5.26c.48-.43-.22-1.13-.7-.71L103,141.25c-.49.43.22,1.13.7.71Z"/><path d="M108.91,137.19a10.29,10.29,0,0,0,1.27,5.54c.31.56,1.18.06.86-.51a9.25,9.25,0,0,1-1.13-5c0-.64-1-.64-1,0Z"/><path d="M101.93,138.77a26.12,26.12,0,0,1,7.76-1c.64,0,.64-1,0-1a27.17,27.17,0,0,0-8,1.06.5.5,0,0,0,.26,1Z"/><path d="M116.37,147.85l5.91-5.25c.48-.43-.23-1.14-.71-.71l-5.91,5.26c-.48.42.23,1.13.71.7Z"/><path d="M121.57,143.09a10.08,10.08,0,0,0,1.27,5.53c.31.57,1.17.06.86-.5a9.2,9.2,0,0,1-1.13-5c0-.65-1-.64-1,0Z"/><path d="M114.59,144.66a26,26,0,0,1,7.75-1,.5.5,0,0,0,0-1,26.88,26.88,0,0,0-8,1.06.5.5,0,0,0,.27,1Z"/><path d="M127.63,154.13l5.91-5.26c.48-.43-.23-1.13-.71-.7l-5.91,5.25c-.48.43.23,1.14.71.71Z"/><path d="M132.83,149.37a10.17,10.17,0,0,0,1.27,5.53c.31.56,1.17.06.86-.5a9.29,9.29,0,0,1-1.13-5c0-.65-1-.65-1,0Z"/><path d="M125.85,150.94a26.07,26.07,0,0,1,7.76-1,.5.5,0,0,0,0-1,26.63,26.63,0,0,0-8,1.06.5.5,0,0,0,.27,1Z"/><path d="M140.16,159.43l5.91-5.26c.48-.42-.23-1.13-.71-.7l-5.91,5.25c-.48.43.23,1.14.71.71Z"/><path d="M145.36,154.67a10.08,10.08,0,0,0,1.27,5.53c.31.56,1.17.06.86-.5a9.29,9.29,0,0,1-1.13-5c0-.65-1-.64-1,0Z"/><path d="M138.38,156.24a26,26,0,0,1,7.75-1,.5.5,0,0,0,0-1,26.56,26.56,0,0,0-8,1.06.5.5,0,0,0,.27,1Z"/><path d="M196.11,191.13l5.91-5.26c.48-.43-.23-1.13-.71-.7l-5.91,5.25c-.48.43.23,1.14.71.71Z"/><path d="M201.31,186.37a10.16,10.16,0,0,0,1.26,5.53c.31.56,1.18.06.87-.5a9.11,9.11,0,0,1-1.13-5c0-.65-1-.65-1,0Z"/><path d="M194.32,187.94a26.11,26.11,0,0,1,7.76-1,.5.5,0,0,0,0-1,26.52,26.52,0,0,0-8,1.06.5.5,0,0,0,.26,1Z"/><path d="M204.76,196.63l5.9-5.26c.49-.43-.22-1.13-.7-.71l-5.91,5.26c-.48.43.23,1.13.71.71Z"/><path d="M210,191.86a10.31,10.31,0,0,0,1.27,5.54c.31.56,1.18.06.86-.51a9.29,9.29,0,0,1-1.13-5c0-.64-1-.64-1,0Z"/><path d="M203,193.44a26.12,26.12,0,0,1,7.76-1,.5.5,0,0,0,0-1,27.17,27.17,0,0,0-8,1.06.5.5,0,0,0,.26,1Z"/><path d="M213.74,202l5.91-5.26c.48-.43-.23-1.13-.71-.7L213,201.32c-.48.43.23,1.14.71.71Z"/><path d="M218.94,197.26a10.17,10.17,0,0,0,1.26,5.54.5.5,0,0,0,.87-.51,9.16,9.16,0,0,1-1.13-5c0-.64-1-.64-1,0Z"/><path d="M212,198.84a26.06,26.06,0,0,1,7.75-1,.5.5,0,0,0,0-1,27.17,27.17,0,0,0-8,1.06.5.5,0,0,0,.27,1Z"/><path d="M153.66,165.37l5.91-5.25c.48-.43-.23-1.14-.71-.71L153,164.67c-.48.42.23,1.13.71.7Z"/><path d="M158.86,160.61a10.16,10.16,0,0,0,1.26,5.53c.31.57,1.18.06.87-.5a9.11,9.11,0,0,1-1.13-5c0-.64-1-.64-1,0Z"/><path d="M151.87,162.18a26.11,26.11,0,0,1,7.76-1,.5.5,0,0,0,0-1,27.17,27.17,0,0,0-8,1.06.5.5,0,0,0,.26,1Z"/><path d="M152.05,68.84,158,63.58c.48-.43-.23-1.14-.71-.71l-5.91,5.26c-.48.43.23,1.13.71.71Z"/><path d="M157.25,64.07a10.21,10.21,0,0,0,1.26,5.54.5.5,0,0,0,.87-.51,9.2,9.2,0,0,1-1.13-5c0-.64-1-.64-1,0Z"/><path d="M150.27,65.65a25.74,25.74,0,0,1,7.75-1,.5.5,0,0,0,0-1,27.17,27.17,0,0,0-8,1.06.5.5,0,0,0,.27,1Z"/><path d="M170,77.92l5.91-5.26c.48-.42-.23-1.13-.71-.7l-5.91,5.25c-.48.43.23,1.14.71.71Z"/><path d="M175.23,73.16a10.16,10.16,0,0,0,1.26,5.53.5.5,0,0,0,.87-.5,9.2,9.2,0,0,1-1.13-5c0-.65-1-.64-1,0Z"/><path d="M168.25,74.73a26,26,0,0,1,7.75-1,.5.5,0,0,0,0-1,26.84,26.84,0,0,0-8,1.06.5.5,0,0,0,.27,1Z"/><path d="M185.4,86.45l5.91-5.25c.48-.43-.23-1.14-.71-.71l-5.91,5.26c-.48.43.23,1.13.71.7Z"/><path d="M190.6,81.69a10.16,10.16,0,0,0,1.26,5.53.5.5,0,0,0,.87-.5,9.2,9.2,0,0,1-1.13-5c0-.64-1-.64-1,0Z"/><path d="M183.62,83.26a26,26,0,0,1,7.75-1,.5.5,0,0,0,0-1,27.17,27.17,0,0,0-8,1.06.5.5,0,0,0,.27,1Z"/><path d="M75.2,37.87l11-4.62a1.55,1.55,0,0,0,1-1.84,1.51,1.51,0,0,0-1.85-1.05L74.41,35a1.55,1.55,0,0,0-1,1.85,1.51,1.51,0,0,0,1.84,1Z"/><path d="M86.17,32.27a9.26,9.26,0,0,1,1.41.88l-.3-.23a9.09,9.09,0,0,1,1.64,1.64A1.47,1.47,0,0,0,90,35a1.49,1.49,0,0,0,1.5-1.5l-.06-.39a1.54,1.54,0,0,0-.38-.67A9.15,9.15,0,0,0,89.63,31a10.7,10.7,0,0,0-1.94-1.32,1.61,1.61,0,0,0-1.16-.15,1.5,1.5,0,0,0-1,1.85,1.52,1.52,0,0,0,.69.9Z"/><path d="M95,38.44l.43.17.18.07.85.38c.53.25,1.05.51,1.56.79a27.44,27.44,0,0,1,3,1.92,1.52,1.52,0,0,0,2.06-.54,1.54,1.54,0,0,0-.54-2,30,30,0,0,0-6.8-3.63A1.5,1.5,0,0,0,94,36.6a1.53,1.53,0,0,0,1,1.84Z"/><path d="M109.45,46.56l6.81,3A1.5,1.5,0,0,0,117.77,47L111,44a1.5,1.5,0,1,0-1.51,2.59Z"/><path d="M125.82,54.2a20.82,20.82,0,0,0,7.45,3.07,1.5,1.5,0,1,0,.79-2.89,22.26,22.26,0,0,1-3.63-1.09l.08,0-.23-.1-.45-.2L129,52.6q-.86-.47-1.65-1a1.51,1.51,0,0,0-2,.53,1.54,1.54,0,0,0,.53,2.06Z"/><path d="M142.17,62.32l6.4,3.53a1.5,1.5,0,0,0,1.52-2.59l-6.4-3.53a1.5,1.5,0,1,0-1.52,2.59Z"/><path d="M156.52,70.43a28.14,28.14,0,0,0,9,5.4,1.51,1.51,0,0,0,1.84-1,1.53,1.53,0,0,0-1-1.85l-1.08-.42c.15.07.05,0,0,0l-.32-.15-.53-.24c-.71-.35-1.41-.72-2.09-1.13s-1.3-.82-1.92-1.27l-.46-.35-.09-.07-.23-.18-.92-.8a1.5,1.5,0,0,0-2.13,2.12Z"/><path d="M175.21,80.94l6.28,2.64a1.52,1.52,0,0,0,1.16-.15,1.59,1.59,0,0,0,.69-.9,1.62,1.62,0,0,0-.15-1.16,1.8,1.8,0,0,0-.9-.68L176,78a1.49,1.49,0,0,0-1.15.15,1.55,1.55,0,0,0-.69.9,1.51,1.51,0,0,0,.15,1.16,1.77,1.77,0,0,0,.9.69Z"/><path d="M190.38,87.91A68.89,68.89,0,0,0,197,92.26a69.29,69.29,0,0,0,7,3.8,1.55,1.55,0,0,0,2.05-.54,1.53,1.53,0,0,0-.54-2.06,66.11,66.11,0,0,1-7-3.79,67.67,67.67,0,0,1-6.64-4.35,1.51,1.51,0,0,0-2.05.54,1.53,1.53,0,0,0,.53,2Z"/><path d="M81.57,42.59c2.24-.61,4.45-1.31,6.64-2.08.6-.22.34-1.18-.27-1-2.18.78-4.4,1.47-6.63,2.09a.5.5,0,0,0,.26,1Z"/><path d="M95.45,48.62a29.93,29.93,0,0,1,6.93-2.79.5.5,0,0,0-.26-1A30.51,30.51,0,0,0,95,47.76a.5.5,0,0,0,.5.86Z"/><path d="M111.1,57.11A69.31,69.31,0,0,1,119,53.85c.61-.21.35-1.17-.26-1a71.05,71.05,0,0,0-8.19,3.35c-.58.28-.07,1.15.51.87Z"/><path d="M128.59,65.7q3.39-1.53,6.69-3.29c.56-.31.06-1.17-.51-.87-2.19,1.18-4.42,2.27-6.69,3.29a.5.5,0,0,0,.51.87Z"/><path d="M143.33,72.41l7.27-3.23c.59-.26.08-1.13-.51-.87l-7.26,3.24c-.59.26-.08,1.12.5.86Z"/><path d="M161.25,82.7a49.65,49.65,0,0,0,7.9-3.66.5.5,0,0,0-.51-.87A46.2,46.2,0,0,1,161,81.73c-.61.22-.35,1.18.26,1Z"/><path d="M177.52,90.79q3.55-1.65,7-3.6a.5.5,0,0,0-.5-.86c-2.27,1.29-4.6,2.49-7,3.59-.59.27-.08,1.14.5.87Z"/><path d="M93.13,48.35v2.53a.51.51,0,0,0,.5.5.51.51,0,0,0,.5-.5V48.35a.5.5,0,1,0-1,0Z"/><path d="M105,55.21v1.44a.5.5,0,0,0,.5.5.5.5,0,0,0,.5-.5V55.21a.5.5,0,1,0-1,0Z"/><path d="M115.88,59.9v2.17a.5.5,0,0,0,1,0V59.9a.5.5,0,0,0-1,0Z"/><path d="M127.07,66v2.17a.51.51,0,0,0,.5.5.51.51,0,0,0,.5-.5V66a.5.5,0,0,0-1,0Z"/><path d="M140.14,71.7a11.28,11.28,0,0,0-.45,3.37.51.51,0,0,0,.5.5.51.51,0,0,0,.5-.5,10.18,10.18,0,0,1,.42-3.1.5.5,0,0,0-1-.27Z"/><path d="M151.62,78.32v3.25a.51.51,0,0,0,.5.5.51.51,0,0,0,.5-.5V78.32a.5.5,0,0,0-.5-.5.51.51,0,0,0-.5.5Z"/><path d="M163.2,84.18a4.37,4.37,0,0,0-.35,2.93.5.5,0,0,0,.61.35.52.52,0,0,0,.35-.62l-.06-.3c0,.12,0-.07,0-.09a.57.57,0,0,1,0-.13,4.28,4.28,0,0,1,0-.62c0-.12,0,.07,0,0l0-.18c0-.1.05-.2.08-.3s.06-.19.1-.29.06-.14,0,0l.08-.16a.5.5,0,0,0-.86-.5Z"/><path d="M175.51,90.6l-.42,3.6a.5.5,0,0,0,.5.5.51.51,0,0,0,.5-.5l.42-3.6a.5.5,0,0,0-.5-.5.51.51,0,0,0-.5.5Z"/><path d="M191.19,98c-.14-.12-.12,0,.05.45a.2.2,0,0,1-.09.09l0,0a.37.37,0,0,1-.32-.07.22.22,0,0,1,0-.08c0-.06,0-.06,0,0s0,.18,0,.07c0,.3-.12.6-.18.9l-.39,1.88a.51.51,0,0,0,.35.61.51.51,0,0,0,.62-.35l.29-1.44c.1-.45.21-.91.28-1.38a1.06,1.06,0,0,0-.09-.72.68.68,0,0,0-.75-.36c-.46.11-.84.75-.38,1.11a.5.5,0,0,0,.7,0,.48.48,0,0,0,0-.7Z"/><path d="M58.19,93.13l4.86,3.69a1.5,1.5,0,0,0,2-.54,1.54,1.54,0,0,0,.15-1.15,1.76,1.76,0,0,0-.69-.9L59.7,90.54a1.5,1.5,0,0,0-1.15-.16,1.56,1.56,0,0,0-.9.69,1.52,1.52,0,0,0-.15,1.16,1.76,1.76,0,0,0,.69.9Z"/><path d="M59.42,91.49q1.8-8,2.91-16.19a1.56,1.56,0,0,0-1-1.85,1.51,1.51,0,0,0-1.84,1q-1.12,8.16-2.91,16.2c-.42,1.88,2.47,2.68,2.89.79Z"/><path d="M36.61,113.15a75.54,75.54,0,0,1,21.61-2.08c1.93.1,1.92-2.9,0-3a78.25,78.25,0,0,0-22.41,2.19c-1.88.46-1.08,3.35.8,2.89Z"/><path d="M33.65,117.75a75.36,75.36,0,0,1,1.1,11,1.5,1.5,0,0,0,3,0A82.21,82.21,0,0,0,36.55,117a1.5,1.5,0,0,0-2.9.8Z"/><path d="M56,95.41v11.35a1.5,1.5,0,0,0,3,0V95.41a1.5,1.5,0,0,0-3,0Z"/><path d="M76,65.29l.06-.14c-.08.18,0-.06,0-.09s.14-.32.22-.47q.23-.48.48-.93a18,18,0,0,1,1.15-1.82l.14-.18c0-.06.21-.3,0,0a4.54,4.54,0,0,1,.33-.41c.22-.27.45-.53.69-.79A16.71,16.71,0,0,1,80.65,59a1.51,1.51,0,0,0,0-2.12,1.53,1.53,0,0,0-2.12,0,19.6,19.6,0,0,0-5.44,7.65,1.51,1.51,0,0,0,1,1.85,1.54,1.54,0,0,0,1.84-1Z"/><path d="M24.86,123.5Q36.37,104,47.27,84.18t21.2-40q5.79-11.31,11.38-22.73c.28-.57-.58-1.08-.87-.5Q69,41.29,58.46,61.3T36.73,101Q30.46,112.06,24,123a.5.5,0,0,0,.86.5Z"/><path d="M393.05,223a1.5,1.5,0,0,0,0-3,1.5,1.5,0,0,0,0,3Z"/><path d="M60,109.42A42.8,42.8,0,0,1,62.67,96c.23-.6-.74-.87-1-.27A43.31,43.31,0,0,0,59,109.42c0,.64,1,.64,1,0Z"/><path d="M62.38,95.32A203.56,203.56,0,0,0,77.44,70.6c.3-.57-.57-1.08-.86-.5A204.41,204.41,0,0,1,61.51,94.82c-.37.52.5,1,.87.5Z"/><path d="M66.33,87.3c-.53-.15-.57-.35-.14-.61l-.07-.16a3.13,3.13,0,0,0-.18-.57c-.11-.38-.22-.76-.32-1.15a15.18,15.18,0,0,1-.44-2.31,7,7,0,0,1,.71-4.3c1-1.74,3.73-3.17,5.57-1.74.5.39,1.21-.31.71-.7-2.19-1.71-5.23-.62-6.79,1.42a7.06,7.06,0,0,0-1.25,4.53,13.68,13.68,0,0,0,.38,2.78,13.52,13.52,0,0,0,.75,2.57c.26.56,1.07,1.08,1.51.38.33-.51,0-1.29-.7-1.1a.5.5,0,0,0,.26,1Z"/><path d="M68.32,85a9.39,9.39,0,0,1-.2-6.76h-1l.92,6L69,84a33.81,33.81,0,0,1-1.25-7.48.5.5,0,0,0-1-.13,20.79,20.79,0,0,0-1.6,7.08l.94-.25a5.65,5.65,0,0,1-.3-6.43l-.92-.12.77,5.45.91-.39a5.72,5.72,0,0,1-.78-4.93L65,77a4,4,0,0,1,1,3.35l.91-.12a3.81,3.81,0,0,1,.25-4.43l-.79-.1a6.82,6.82,0,0,1,1.24,5l.83-.22A3.23,3.23,0,0,1,68,76.27l-.79.1a4.38,4.38,0,0,1,1,3.08l.85-.36a1.88,1.88,0,0,1,.18-2.66l-.79-.1a7.38,7.38,0,0,1,.33,5.29l.74-.3A3.33,3.33,0,0,1,68,79.4a1.44,1.44,0,0,1,1-1.75c.76-.09,1.17.8,1.17,1.43A4.37,4.37,0,0,1,69,81.56h.71a3.62,3.62,0,0,1-.22-4.64l-.48.13a1.21,1.21,0,0,1,.78,1.8l.57-.23a2.23,2.23,0,0,1-1.43-3.12l-.68.18a5.89,5.89,0,0,1,2.62,2.76l.87-.51a3.11,3.11,0,0,1-.27-.55c0-.06-.18-.19-.14-.31-.22.61.75.87,1,.27s-.56-1.18-1.17-1c-1,.28-.65,1.48-.26,2.11a.5.5,0,0,0,.87-.51,6.92,6.92,0,0,0-3-3.12A.52.52,0,0,0,68,75a3.24,3.24,0,0,0,2,4.59.52.52,0,0,0,.56-.23,2.21,2.21,0,0,0-1.38-3.27.5.5,0,0,0-.48.13A4.63,4.63,0,0,0,69,82.26a.5.5,0,0,0,.71,0c.81-1,1.7-2.23,1.48-3.63a2.15,2.15,0,0,0-2.26-2A2.41,2.41,0,0,0,67,79.12a4.06,4.06,0,0,0,2.12,3.06.51.51,0,0,0,.74-.3,8.42,8.42,0,0,0-.44-6.06.5.5,0,0,0-.78-.1,2.89,2.89,0,0,0-.17,4.08.5.5,0,0,0,.85-.35A5.38,5.38,0,0,0,68,75.67a.51.51,0,0,0-.79.1,4.23,4.23,0,0,0,.6,5.49c.26.22.78.17.84-.23a7.81,7.81,0,0,0-1.33-5.8.51.51,0,0,0-.79-.1,4.81,4.81,0,0,0-.4,5.63c.21.33.84.33.91-.12a5,5,0,0,0-1.29-4.32.5.5,0,0,0-.83.22,6.65,6.65,0,0,0,.88,5.71.5.5,0,0,0,.91-.39l-.76-5.45c-.07-.45-.71-.44-.92-.12a6.64,6.64,0,0,0,.3,7.45.51.51,0,0,0,.93-.26,20.23,20.23,0,0,1,1.56-6.81l-1-.14a35,35,0,0,0,1.29,7.74A.5.5,0,0,0,69,84L68.12,78c-.08-.53-.82-.41-1,0a10.16,10.16,0,0,0,.2,7.3c.24.58,1.21.33,1-.27Z"/><path d="M53,74.05l5.52,2.63a.5.5,0,1,0,.51-.87l-5.52-2.62a.51.51,0,0,0-.69.18.51.51,0,0,0,.18.68Z"/><path d="M52.81,75.43a116.07,116.07,0,0,1,1.93,13.5c0,.64,1,.65,1,0a120.73,120.73,0,0,0-2-13.77c-.13-.63-1.09-.36-1,.27Z"/><path d="M53.7,73.42a84.56,84.56,0,0,1,20.88-5.85c.63-.09.36-1.06-.27-1a85.26,85.26,0,0,0-21.12,6c-.59.25-.08,1.11.51.86Z"/><path d="M69.38,21.84,80,19.69c.63-.13.37-1.09-.26-1L69.11,20.87c-.63.13-.36,1.09.27,1Z"/><path d="M79,19.58a16.44,16.44,0,0,1,7.2,7.25c.29.58,1.16.07.87-.5a17.38,17.38,0,0,0-7.56-7.61c-.57-.29-1.08.57-.51.86Z"/><path d="M14.18,119.72q23.57-36.14,44.31-74Q64.35,35,70,24.14c.89-1.71-1.7-3.23-2.59-1.51q-19.89,38.28-42.68,75Q18.27,108,11.59,118.21c-1.05,1.62,1.54,3.13,2.59,1.51Z"/><path d="M85.15,32.45l3-3.57a1.61,1.61,0,0,0,.44-1.06,1.5,1.5,0,0,0-.44-1.06,1.52,1.52,0,0,0-1.06-.44,1.48,1.48,0,0,0-1.06.44l-3,3.57a1.5,1.5,0,0,0,0,2.12,1.56,1.56,0,0,0,1.06.44,1.48,1.48,0,0,0,1.06-.44Z"/><path d="M46.38,138.78a5.08,5.08,0,0,1,.83-5.53l-1.82.23,1.49.71c1,.49,2.76-.36,2.2-1.69a1.94,1.94,0,0,1,1.27-2.68c1.45-.39,2.68.87,3.22,2.06a1.5,1.5,0,0,0,2.59,0c1-2.17,4.19-2.08,4.32.56.08,1.63,2.54,2.12,3,.4a.85.85,0,0,1,1.27-.49c.75.41.76,1.52.6,2.22A1.51,1.51,0,0,0,67.81,136c1.17-1,2.27.36,1.83,1.55a1.5,1.5,0,0,0,1.45,1.9c1.9-.07-.06,3.12-.43,3.67A1.51,1.51,0,0,0,72,145.41c1,0-.11,1.88-.33,2.18-.59.84-1.46,2.13-2.59,2.06-1.93-.11-1.93,2.89,0,3,2.65.15,5-2.62,5.93-4.86s-.18-5.45-3-5.38l1.3,2.26c1.07-1.57,2.08-3.48,1.46-5.42a3.73,3.73,0,0,0-3.62-2.77l1.44,1.9a4.29,4.29,0,0,0-1.6-5,4.38,4.38,0,0,0-5.25.54l2.51,1.46c.53-2.26-.21-5-2.59-5.9A3.88,3.88,0,0,0,60.53,132l2.95.4a5.37,5.37,0,0,0-4.11-5.08,5.3,5.3,0,0,0-5.8,3h2.59C55,127.83,52,126.08,49.25,127a4.93,4.93,0,0,0-3.06,6.28l2.2-1.7-1.48-.71a1.56,1.56,0,0,0-1.82.24,8.17,8.17,0,0,0-1.3,9.16c.84,1.74,3.43.22,2.59-1.51Z"/><path d="M86.16,159.85a2.69,2.69,0,0,1-.13-2.13.78.78,0,0,1,.35-.32c.19-.08.06.24,0-.07.1,1.62,2.53,2.12,3,.4.32-1.35,1.79-.77,2.08.28a1.51,1.51,0,0,0,2.2.9c1-.79,2.79-.66,3,.9a1.52,1.52,0,0,0,1.9,1.45c.72-.2.78.49.81,1a2.54,2.54,0,0,0,1.47,2.47,2.47,2.47,0,0,0,.9.15c.07,0,.65,0,.42-.16s0,.18,0,.32a8.81,8.81,0,0,1,0,1,11.91,11.91,0,0,1,0,1.69.91.91,0,0,1-.22.5c-.13.16,0-.07.11,0-1.65-1-3.16,1.58-1.52,2.59a2.82,2.82,0,0,0,3.34-.33,4.25,4.25,0,0,0,1.31-3.45c0-1.29.21-2.77-.48-3.93a3,3,0,0,0-1.24-1.12,4.91,4.91,0,0,0-2-.18l.76.2c.15.32.22.38.2.2s0-.33,0-.5a5,5,0,0,0-.1-.87,3.63,3.63,0,0,0-4.49-2.53l1.9,1.44a4.83,4.83,0,0,0-2.56-3.94,4.73,4.73,0,0,0-4.92.45l2.2.89a4.37,4.37,0,0,0-3.87-3.29,4,4,0,0,0-4,3l2.94.4a3.08,3.08,0,0,0-4.52-2.54c-2.17,1.13-2.31,3.79-1.63,5.86.59,1.82,3.49,1,2.89-.8Z"/><path d="M39,112.87Q51.54,120,64.13,127T89.36,140.8q12.65,6.87,25.35,13.63t25.47,13.41q12.76,6.65,25.59,13.17l3.18,1.62c.57.29,1.08-.57.51-.86q-12.84-6.53-25.61-13.15t-25.49-13.38q-12.7-6.74-25.36-13.6T67.75,127.81q-12.58-7-25.12-14L39.53,112a.5.5,0,0,0-.51.87Z"/><path d="M73.91,144.36a2.2,2.2,0,0,1,2.16-1,1.39,1.39,0,0,1,1.05,1.38,1.5,1.5,0,0,0,2.89.8c-.07.18.1,0,0,0a1,1,0,0,1,1.13.07,3.2,3.2,0,0,1,.7,2.63,1.51,1.51,0,0,0,2.56,1.06c.94-1.12,2.67-.41,2.23,1-.24.79-1.31,1-1.93,1.67a5.25,5.25,0,0,0-.88,1.75.6.6,0,0,1-.55.41c-1.92.09-1.93,3.09,0,3a3.58,3.58,0,0,0,3.37-2.4,2.2,2.2,0,0,1,.29-.74,7.89,7.89,0,0,1,1.08-.68,3.91,3.91,0,0,0,.92-.94,4.49,4.49,0,0,0,.76-2.41A4.12,4.12,0,0,0,87,146a4.36,4.36,0,0,0-4.67,1.21l2.56,1.06c.13-2.1-.59-4.55-2.66-5.47a3.72,3.72,0,0,0-5.08,2l2.89.8a4.38,4.38,0,0,0-3-5,5.22,5.22,0,0,0-5.73,2.3,1.5,1.5,0,1,0,2.59,1.51Z"/><path d="M105.06,163.82q23.43,13.8,47.45,26.57,6.8,3.6,13.62,7.12c1.71.88,3.23-1.7,1.51-2.59q-24.16-12.45-47.78-26-6.67-3.82-13.29-7.72a1.5,1.5,0,0,0-1.51,2.59Z"/><path d="M245.31,138.42a7.26,7.26,0,0,0-12.89,4.71l1.5-1.5a10.41,10.41,0,0,0-6.36,2.76,6.74,6.74,0,0,0-1.76,6.23,4.89,4.89,0,0,0,4.24,3.71,4.58,4.58,0,0,0,4.73-2.4,1.52,1.52,0,0,0-2.06-2.06,5.5,5.5,0,0,0-1.51,7.82c2.08,2.9,6.44,2.94,9.12.91l-2-2a5.66,5.66,0,1,0,10.11,5.06l-2.74-.36a5,5,0,0,0,9.84-1.63l-1.5,1.5c3,0,6.47-.28,8.53-2.74,1.75-2.1,2.1-5.34.05-7.36v2.12c1.81-1.54,1.68-4.28.39-6.12-1.61-2.28-4.58-2.66-7.15-2.85l1.3,2.26a5,5,0,0,0-7-6.85c-1.6,1.06-.1,3.66,1.52,2.59a2,2,0,0,1,2.88,2.74,1.51,1.51,0,0,0,1.29,2.26c1.43.11,3.23.19,4.36,1.2a1.77,1.77,0,0,1,.28,2.65,1.5,1.5,0,0,0,0,2.12c1.11,1.1.37,3-.73,3.79-1.6,1.2-3.83,1.19-5.73,1.19a1.52,1.52,0,0,0-1.5,1.5,2,2,0,0,1-3.95.83c-.31-1.14-2.2-1.58-2.74-.36a2.68,2.68,0,1,1-4.93-2c.6-1.2-.75-3-2.05-2.05s-3.77,1.63-5.07.08a2.49,2.49,0,0,1,.49-3.63l-2-2.05a1.68,1.68,0,0,1-2,.92,2,2,0,0,1-1.55-2.11c-.14-2.85,2.9-4.28,5.3-4.59a1.54,1.54,0,0,0,1.5-1.5,4.31,4.31,0,0,1,7.76-2.58c1.23,1.49,3.34-.65,2.13-2.13Z"/><path d="M205.16,98.76C213,87.82,220.31,76.48,227.36,65q2.74-4.45,5.38-9a1.5,1.5,0,0,0-2.59-1.52c-6.75,11.65-14.07,23-21.62,34.13q-2.92,4.34-6,8.6c-1.13,1.57,1.47,3.07,2.59,1.51Z"/><path d="M78.94,116.84a26.07,26.07,0,0,1-4.51-31.58c.32-.56-.55-1.07-.86-.51a27,27,0,0,0,4.66,32.79c.46.45,1.17-.25.71-.7Z"/><path d="M74.26,84A37.82,37.82,0,0,1,84.92,73.49a21.46,21.46,0,0,1,6.74-2.76,20.83,20.83,0,0,1,8.54.11A56.22,56.22,0,0,1,109.83,74c.6.23.86-.73.27-1-5.63-2.25-11.61-4.42-17.76-3.44-5.08.81-9.58,3.68-13.24,7.18a47.12,47.12,0,0,0-5.7,6.68c-.38.53.49,1,.86.51Z"/><path d="M228.05,132.65c4.85-8.51,9.67-17,14.6-25.49,1.41-2.41,2.82-4.81,4.25-7.21a.5.5,0,0,0-.86-.5c-5,8.38-9.83,16.87-14.67,25.36l-4.18,7.34a.5.5,0,0,0,.86.5Z"/><path d="M272.23,154.15l14-25.08,4-7.19c.31-.56-.55-1.07-.86-.5l-14,25.07-4,7.19c-.31.56.55,1.07.87.51Z"/><path d="M246.15,99.9c10.67,6.19,22.47,10,33.27,15.95a76.63,76.63,0,0,1,8.77,5.54c.52.38,1-.48.51-.86-9.95-7.34-21.68-11.5-32.78-16.7-3.14-1.48-6.25-3-9.26-4.79a.5.5,0,0,0-.51.86Z"/><path d="M227.06,133.23a53.34,53.34,0,0,0,6.38,3.9c.57.3,1.08-.56.51-.86a52.63,52.63,0,0,1-6.38-3.91.5.5,0,1,0-.51.87Z"/><path d="M263.35,154.24l5.39,2.42a.51.51,0,0,0,.68-.18.5.5,0,0,0-.18-.68l-5.38-2.42a.51.51,0,0,0-.68.18.5.5,0,0,0,.17.68Z"/><path d="M229.2,161.27l-6,10.32a.5.5,0,0,0,.87.5l6-10.31a.5.5,0,0,0-.86-.51Z"/><path d="M238.12,179.79a90.69,90.69,0,0,0,5.76-10.15c.28-.58-.58-1.09-.86-.51a88.94,88.94,0,0,1-5.76,10.15c-.36.54.51,1,.86.51Z"/><path d="M222.9,173l13.1,7.48a.5.5,0,0,0,.5-.86l-13.09-7.48a.5.5,0,0,0-.51.86Z"/><path d="M229.44,161.55q6.76,3.44,13.21,7.47c.54.35,1-.52.5-.86q-6.42-4-13.2-7.48c-.58-.29-1.08.57-.51.87Z"/><path d="M219.36,173.38q4.62-7.08,8.6-14.53c.31-.56-.56-1.07-.86-.5q-4,7.44-8.6,14.52c-.35.54.51,1,.86.51Z"/><path d="M238.48,183.35q4.34-6.82,8.09-14c.3-.57-.57-1.08-.87-.51q-3.73,7.15-8.08,14c-.35.55.52,1,.86.51Z"/><path d="M218.46,173.61a24.45,24.45,0,0,0,4,2.52l4.45,2.67,8.9,5.34a.5.5,0,0,0,.5-.86l-8.69-5.22-4.23-2.54-2.23-1.34a11,11,0,0,1-2-1.28c-.47-.43-1.18.27-.71.71Z"/><path d="M228.19,158.41a182.13,182.13,0,0,1,16.6,9.28c.55.35,1.05-.52.5-.86a183.28,183.28,0,0,0-16.6-9.29c-.57-.28-1.08.58-.5.87Z"/><path d="M225.08,172.07a5.8,5.8,0,0,1,.64-2.41l-.92-.39a13.87,13.87,0,0,0-.14,2.95.5.5,0,0,0,1,.13l1.24-4.4-1-.14-.09,5.3c0,.55.88.7,1,.13a67.7,67.7,0,0,1,1.93-8l-1-.27a25.14,25.14,0,0,0-.54,8c.05.53.85.72,1,.13q1.14-4.86,2.21-9.75l-1-.13A43.37,43.37,0,0,0,229,174c.06.51.87.74,1,.14l2.18-11.54-1-.27a75,75,0,0,0-1,12.86c0,.53.88.71,1,.13a84.51,84.51,0,0,1,2.47-11.14l-1-.13-1.11,12.63c0,.57.85.68,1,.14l2.76-11.39-1-.13c-.19,2.14-.39,4.29-.58,6.43a20.86,20.86,0,0,0,.09,6.06c.12.59.93.38,1-.14a87.44,87.44,0,0,1,2.2-12.43l-1-.13-.63,13.49c0,.56.89.7,1,.14l2-11.63-1-.14c-.23,3.81-.79,7.77-.11,11.55.11.61.92.38,1-.13l1.46-11.75h-1l.32,9.52c0,.54.87.71,1,.13l1.61-8.42h-1a18.08,18.08,0,0,1,.29,3.88.5.5,0,0,0,.93.26,8.44,8.44,0,0,0,1.11-3.37L242,169a.34.34,0,0,1,.08.37c-.08.63.92.63,1,0a1.3,1.3,0,0,0-.37-1.08.5.5,0,0,0-.85.35,7.25,7.25,0,0,1-1,2.86l.93.25a19.18,19.18,0,0,0-.33-4.14.5.5,0,0,0-1,0L239,176l1,.13-.32-9.52a.5.5,0,0,0-1,0l-1.46,11.75,1-.13a24,24,0,0,1-.2-5.62c.1-1.89.23-3.78.34-5.67,0-.55-.89-.69-1-.13l-1.95,11.63,1,.13.63-13.49a.5.5,0,0,0-1-.13,89.39,89.39,0,0,0-2.23,12.69l1-.13a21,21,0,0,1,0-6c.19-2.06.37-4.13.56-6.19.05-.56-.85-.67-1-.13l-2.75,11.38,1,.13,1.11-12.63c0-.59-.82-.65-1-.14a83.28,83.28,0,0,0-2.47,11.14l1,.14a73.72,73.72,0,0,1,1-12.59c.09-.62-.84-.91-1-.27L229,173.9l1,.13a43.37,43.37,0,0,1,.46-10.79c.07-.56-.87-.68-1-.13q-1.06,4.88-2.21,9.75l1,.13a24.31,24.31,0,0,1,.5-7.7.5.5,0,0,0-1-.27,65.92,65.92,0,0,0-1.93,8l1,.13.09-5.3a.51.51,0,0,0-1-.13l-1.23,4.4,1,.14a12,12,0,0,1,.11-2.68c.08-.51-.64-.94-.92-.38a7.19,7.19,0,0,0-.77,2.91c0,.65,1,.65,1,0Z"/><path d="M92.41,96.73a5.61,5.61,0,0,1-.26-2.57l-.93.25a10.23,10.23,0,0,1,1,2.78c.12.56,1,.42,1-.13l.07-3.25-1,.14A12.08,12.08,0,0,0,93.86,98a.5.5,0,0,0,.93-.25l-.08-4.66-1,.13L95.56,99c.16.51,1,.46,1-.13l-.72-8.18-.94.26a24.21,24.21,0,0,1,2.26,7.77l1-.13a34.82,34.82,0,0,1-.6-9l-1,.14,2.91,10.24a.5.5,0,0,0,1-.27,45.38,45.38,0,0,1-.91-9.52l-1,.14,2.91,11.37c.14.53,1,.44,1-.14l-.76-10.28-1,.13,2.45,11.92a.51.51,0,0,0,1-.13l-.5-9.77-1,.14,2.7,10.75a.5.5,0,0,0,1-.26,33.73,33.73,0,0,1-.89-10.87l-1,.13,2.92,11.53c.16.64,1.08.36,1-.26a33.48,33.48,0,0,1-.48-8.48l-1,.14,2.41,10.69,1-.27a24.86,24.86,0,0,1-.59-10.51h-1l2.87,11.68c.16.63,1.1.36,1-.27A33.14,33.14,0,0,1,112,97.35l-1,.13,2.88,11.42,1-.26a23,23,0,0,1-.76-10.19h-1l3.43,12.63c.14.53,1,.44,1-.13l-.66-9.5-1,.14,3.26,10.23,1-.27A22.86,22.86,0,0,1,119.07,101h-1l3.46,12.19a.5.5,0,0,0,1-.26,43.45,43.45,0,0,1-1.1-10.84l-1,.13q1.52,6.84,3.69,13.5c.16.5,1.05.46,1-.13l-1.27-11.37-1,.13,3.46,10.79a.5.5,0,0,0,1-.26,31.67,31.67,0,0,1-.86-9.55l-1,.13a56.7,56.7,0,0,0,4,12.8c.2.44,1,.23.94-.25l-1.55-11.6-1,.13,3.85,13.28c.15.52,1,.45,1-.13L131.89,108l-1,.13q1.69,6.91,3.88,13.69c.16.51,1,.46,1-.13l-1.11-12.15-1,.13,3.93,13.12c.15.52,1.06.45,1-.13l-1.52-11.92-1,.13L139.75,125c.14.53,1,.44,1-.13l-1.09-12.76-1,.14a90.39,90.39,0,0,0,4.45,14.21c.19.47,1,.49,1-.13l-1.4-12.47-1,.13a70,70,0,0,0,3.68,11.76.5.5,0,0,0,1-.26,47.87,47.87,0,0,1-1.11-11.19l-1,.13,3.51,13.21c.14.53,1,.44,1-.13l-1-10.8-1,.13L150,129c.14.53,1,.44,1-.13l-1.06-11-1,.13,4.07,12.6c.16.51,1,.46,1-.13l-1.31-11.87-1,.13a120.94,120.94,0,0,0,3.46,14.17.5.5,0,0,0,1-.13,63.4,63.4,0,0,0-.47-11.44l-1,.13,2.9,11.57a.5.5,0,0,0,1-.14,56.38,56.38,0,0,0-1.25-11.65l-1,.27,3.7,13a.5.5,0,0,0,1-.13L160.57,124h-1a49,49,0,0,0,2.83,11.75c.19.48,1.06.47,1-.13l-1.31-11.08-1,.14,2.25,9.61c.14.59.93.4,1-.13a29.74,29.74,0,0,0-.53-8.93c-.13-.64-1.07-.36-1,.26a42.7,42.7,0,0,0,2.2,8c.19.49,1,.48,1-.13l-.45-8.57-1,.14,1.52,6.65c.13.57,1,.41,1-.13l.22-4.92-.85.36a4.21,4.21,0,0,1,1.49,2.54c.11.59.93.38,1-.13l.25-2.38c.06-.64-.94-.64-1,0l-.25,2.38,1-.14a5,5,0,0,0-1.74-3,.51.51,0,0,0-.86.35l-.22,4.92,1-.14-1.52-6.65a.5.5,0,0,0-1,.13l.45,8.57,1-.13a42.19,42.19,0,0,1-2.21-8l-1,.26a29,29,0,0,1,.49,8.67l1-.13-2.24-9.62c-.13-.54-1.05-.43-1,.13l1.31,11.08,1-.13a47.88,47.88,0,0,1-2.8-11.49c-.07-.63-1-.66-1,0l.43,10.38,1-.13-3.71-13a.5.5,0,0,0-1,.27,55.2,55.2,0,0,1,1.21,11.38l1-.13-2.9-11.56c-.13-.53-1.06-.44-1,.13a63.4,63.4,0,0,1,.47,11.44l1-.14a123,123,0,0,1-3.46-14.17c-.1-.54-1-.42-1,.14L153,130.44l1-.14-4.07-12.59c-.16-.51-1-.46-1,.13l1.06,11,1-.14-3.19-12.19c-.13-.53-1-.45-1,.13l1,10.8,1-.14-3.5-13.21a.51.51,0,0,0-1,.14,49,49,0,0,0,1.15,11.45l1-.26a71.22,71.22,0,0,1-3.67-11.76c-.12-.54-1.05-.44-1,.13l1.4,12.47,1-.13a89.83,89.83,0,0,1-4.46-14.22c-.12-.54-1-.43-1,.13l1.09,12.76,1-.14L137,110.63c-.14-.53-1.06-.44-1,.14l1.52,11.92,1-.13-3.93-13.12c-.15-.52-1-.45-1,.13l1.11,12.15,1-.13c-1.45-4.52-2.75-9.09-3.87-13.69-.13-.54-1-.44-1,.13l.82,11.64,1-.13-3.85-13.28c-.15-.52-1.06-.45-1,.13l1.55,11.6.93-.25a55,55,0,0,1-3.93-12.56c-.11-.58-1-.4-1,.13a32.38,32.38,0,0,0,.9,9.81l1-.26-3.46-10.79c-.16-.51-1-.46-1,.13l1.27,11.37,1-.14a139.44,139.44,0,0,1-3.68-13.5.5.5,0,0,0-1,.14,44.6,44.6,0,0,0,1.14,11.1l1-.26-3.46-12.19c-.12-.44-.89-.52-1,0a23.77,23.77,0,0,0,1.07,11.1c.21.6,1.16.35,1-.27l-3.26-10.23c-.16-.51-1-.45-1,.13l.66,9.5,1-.14-3.43-12.63c-.12-.44-.88-.51-1,0a24,24,0,0,0,.76,10.72.5.5,0,0,0,1-.26L112,97.22c-.15-.58-.93-.4-1,.13a34.27,34.27,0,0,0,.52,10.45l1-.27-2.87-11.67c-.12-.46-.89-.5-1,0a26.38,26.38,0,0,0,.59,11,.5.5,0,0,0,1-.27l-2.42-10.69c-.13-.58-.94-.4-1,.13a34.14,34.14,0,0,0,.52,8.74l1-.26L105.39,93c-.14-.57-.94-.4-1,.14a34.75,34.75,0,0,0,.92,11.13l1-.26-2.71-10.76a.5.5,0,0,0-1,.13l.5,9.77,1-.14L101.64,91.1a.5.5,0,0,0-1,.14l.76,10.28,1-.13L99.49,90a.5.5,0,0,0-1,.13,47.3,47.3,0,0,0,.94,9.79l1-.27L97.51,89.43a.51.51,0,0,0-1,.13,36,36,0,0,0,.64,9.27c.11.54,1,.43,1-.14a25.82,25.82,0,0,0-2.39-8.28.5.5,0,0,0-.93.25l.72,8.18,1-.13L94.69,93a.5.5,0,0,0-1,.13l.08,4.66.94-.25a11.2,11.2,0,0,1-1.45-3.83c-.11-.57-1-.41-1,.13l-.07,3.25,1-.14a11.05,11.05,0,0,0-1.14-3c-.26-.48-.87-.19-.93.26A6.37,6.37,0,0,0,91.44,97c.21.6,1.18.34,1-.27Z"/><path d="M222.34,153.32a1.67,1.67,0,1,0-3.07,1.23l.3-.74a3.36,3.36,0,0,0-2.33,3.95l.49-.64a2.18,2.18,0,0,0-1.53,3.76l.1-.78a6.24,6.24,0,0,0-2.32,1.71,2.68,2.68,0,0,0-.52,1.21c0,.24,0,.5,0,.74s-.34.48-.56.72a2.69,2.69,0,0,0-.21,2.75c.31.89.82,1.7,1.88,1.55a5.76,5.76,0,0,0,2.69-1.08,2.88,2.88,0,0,0,.81-1,.88.88,0,0,1,.57-.57,1.77,1.77,0,0,0,.7-.31,1.62,1.62,0,0,0,.47-1,1.54,1.54,0,0,1,.15-.64c.16-.2.5-.27.7-.43a1.81,1.81,0,0,0,.59-1.14,6.58,6.58,0,0,1,.81-1.82l1.23-2.17a4.43,4.43,0,0,0,.71-1.64c.09-.95-.9-2-1.84-1.34-.52.36,0,1.23.51.86.33-.23.34.38.3.54a3.81,3.81,0,0,1-.42.86c-.33.58-.66,1.16-1,1.74s-.65,1.09-.93,1.66a14.35,14.35,0,0,0-.44,1.41c-.16.43-.72.49-1,.85a2.43,2.43,0,0,0-.36,1.15c-.12.59-.63.45-1,.73s-.49.73-.74,1.12a3.67,3.67,0,0,1-2.56,1.31c-.62.05-.76-.58-.91-1.08a1.59,1.59,0,0,1,.09-1.57c.28-.33.64-.52.76-1s-.06-1,.17-1.45A4.55,4.55,0,0,1,216.8,161a.5.5,0,0,0,.11-.78,1.18,1.18,0,0,1,.82-2.06.5.5,0,0,0,.48-.63,2.32,2.32,0,0,1,1.62-2.71.51.51,0,0,0,.3-.74.67.67,0,1,1,1.25-.46c.19.61,1.16.35,1-.26Z"/><path d="M220.15,177.79A1.84,1.84,0,0,0,217,179l.5-.5a2.18,2.18,0,0,0-2.17,1.52,1.46,1.46,0,0,0,1.31,1.76l-.48-.63a1.7,1.7,0,0,0,.55,1.9,3.36,3.36,0,0,0,2.4.53l-.49-.64a2.15,2.15,0,0,0,3.73,2l-.84-.22c.48,1.19,1.16,2.35,2.58,2.3a.7.7,0,0,1,.58.14c.13.1.21.27.33.38a2.56,2.56,0,0,0,.83.55,2.85,2.85,0,0,0,1.93.12l-.63-.49a1.88,1.88,0,0,0,1.34,1.88,1.86,1.86,0,0,0,.62.08c.22,0,.52-.21.72-.18.36.05.66.54,1.05.68a2.52,2.52,0,0,0,2.33-.56c.69-.56,1.69-1.53,1.62-2.51a1.54,1.54,0,0,0-.54-1,3.31,3.31,0,0,1-.44-.39,1.55,1.55,0,0,1-.16-.64c-.21-.9-1.09-1-1.8-1.27a14,14,0,0,1-2.5-1.9,3.79,3.79,0,0,0-2.88-.85l.63.48a1.25,1.25,0,0,0-.79-1.19,4.8,4.8,0,0,0-.82-.24,1.42,1.42,0,0,1-.81-.69c-.5-.72-1.65-1.62-2.41-.66-.4.5.3,1.21.7.71s1.11.87,1.34,1.11a1.88,1.88,0,0,0,.82.47c.27.08,1,.1,1,.49a.51.51,0,0,0,.63.49c1.6-.25,2.78,1.45,4,2.25a9.12,9.12,0,0,0,1.69.76c.38.17.28.46.38.81a1.64,1.64,0,0,0,.41.63c.17.17.49.34.59.57.17.4-.31.86-.55,1.13-.47.53-1.14,1.26-1.94,1.08-.32-.08-.46-.33-.7-.53a1.13,1.13,0,0,0-.83-.23c-.35,0-.66.26-1,.14a.9.9,0,0,1-.6-.92.5.5,0,0,0-.63-.48,1.82,1.82,0,0,1-1.63-.26c-.39-.29-.59-.79-1.08-.94s-1,.14-1.43-.19a3.1,3.1,0,0,1-.88-1.39c-.13-.31-.58-.55-.84-.22a1.16,1.16,0,0,1-2.05-1.05.5.5,0,0,0-.48-.63c-.69,0-2.45,0-2-1.17.13-.32-.19-.61-.48-.63s-.38-.6-.2-.84a1.48,1.48,0,0,1,1.06-.44.51.51,0,0,0,.5-.5.83.83,0,0,1,1.49-.54c.44.47,1.14-.24.71-.71Z"/><path d="M229.66,130.36l1.29.7.62.34.34.18a1.46,1.46,0,0,0,.29.17s0-.21,0-.21,0,.07,0,.07a1.48,1.48,0,0,0-.17.33l-.33.64-.69,1.34a.5.5,0,1,0,.86.51l.79-1.53c.13-.25.26-.5.38-.75a1,1,0,0,0,.09-.92,1.38,1.38,0,0,0-.6-.49l-.74-.4-1.54-.84c-.57-.31-1.07.55-.51.86Z"/><path d="M245.15,104.32l1.39.8.7.39a1.28,1.28,0,0,0,.82.23c.55-.08.79-.7,1-1.12l.87-1.44a.5.5,0,0,0-.86-.5l-.72,1.19-.36.59-.18.29s0,0,0,0,.12-.07.11,0-2.09-1.18-2.29-1.29a.5.5,0,0,0-.5.86Z"/><path d="M285.26,120.4a16.73,16.73,0,0,0-2,2.66.51.51,0,0,0,.18.69l2.49,1.58c.54.34,1.05-.52.5-.87l-2.49-1.58.18.69A14.93,14.93,0,0,1,286,121.1a.51.51,0,0,0,0-.7.5.5,0,0,0-.71,0Z"/><path d="M266.55,154.27l.77-1.34a12.3,12.3,0,0,1,.68-1.17s.09,0,0,0,0,0,0,0a2.6,2.6,0,0,0,.36.13l.74.29,1.5.59a.5.5,0,1,0,.27-1l-1.72-.67c-.53-.2-1.13-.56-1.68-.25s-.68.88-.93,1.31l-.9,1.58a.5.5,0,0,0,.86.5Z"/><path d="M110,75.79l35.18,19.52,35.18,19.52a76.15,76.15,0,0,1,8.22,4.86,11.61,11.61,0,0,1,4.84,6.53c.14.63,1.1.36,1-.26-1.15-5-6.06-7.85-10.24-10.17l-17.92-10L130.62,86.08l-20.1-11.16c-.57-.31-1.07.56-.51.87Z"/><path d="M79.71,115.35q17.83,10,36.11,19.18t36.9,17.59c6.66,3,13.39,6.13,20.71,7.06.64.08.63-.92,0-1-6.57-.83-12.68-3.55-18.67-6.24q-9.24-4.14-18.39-8.48-18.32-8.69-36.24-18.14-10-5.29-19.92-10.83c-.56-.31-1.06.55-.5.86Z"/><path d="M175.64,157.87a196.36,196.36,0,0,0,14.75-22.77q1.86-3.34,3.58-6.77c.29-.57-.57-1.08-.86-.5a197,197,0,0,1-13.86,23.32c-1.45,2.1-2.94,4.18-4.47,6.22-.39.51.48,1,.86.5Z"/><path d="M241.93,88.09a54,54,0,0,1,1,6.43c0,.64,1,.65,1,0a54.08,54.08,0,0,0-1-6.69c-.13-.63-1.1-.36-1,.26Z"/><path d="M220.93,133.9q9.27-14.72,18.06-29.71,2.47-4.22,4.92-8.47a.5.5,0,0,0-.86-.5q-8.67,15.07-17.8,29.87-2.56,4.16-5.18,8.31c-.35.54.52,1,.86.5Z"/><path d="M214.81,133.16a36,36,0,0,0,4.64.5c.64,0,.64-1,0-1a32.22,32.22,0,0,1-4.38-.47.51.51,0,0,0-.61.35.51.51,0,0,0,.35.62Z"/><path d="M242.55,90.47q19.51,11.15,39.59,21.28,5.64,2.84,11.33,5.61c.57.28,1.08-.59.5-.87q-20.21-9.84-39.9-20.7-5.52-3-11-6.19a.5.5,0,0,0-.5.87Z"/><path d="M206.15,124.18,220.22,100l15-25.77,7.57-13a.5.5,0,0,0-.86-.51l-14.08,24.2-15,25.76-7.57,13a.5.5,0,0,0,.87.5Z"/><path d="M61.1,75.66a132.22,132.22,0,0,0,12.39-6.72c1.64-1,.13-3.61-1.52-2.59a130.82,130.82,0,0,1-12.38,6.72,1.5,1.5,0,1,0,1.51,2.59Z"/><path d="M73,68.18l4.51,3.63a1.61,1.61,0,0,0,1.06.44,1.5,1.5,0,0,0,1.06-.44A1.52,1.52,0,0,0,80,70.75a1.48,1.48,0,0,0-.44-1.06l-4.51-3.64A1.67,1.67,0,0,0,74,65.62a1.53,1.53,0,0,0-1.06.43,1.5,1.5,0,0,0-.44,1.07A1.42,1.42,0,0,0,73,68.18Z"/><path d="M221.65,217.94a6.76,6.76,0,0,0-5.36-1.41,6.91,6.91,0,0,0-4.44,2.55,5.6,5.6,0,0,0-.66,1.07,8.42,8.42,0,0,1-.67,1.52,3.26,3.26,0,0,1-.73.58,6.13,6.13,0,0,0-1.23,1.1,4.93,4.93,0,0,0,6.18,7.46,1.52,1.52,0,0,0,.54-2.05,1.54,1.54,0,0,0-2.06-.54s-.25.12,0,0l-.2.07c-.08,0-.51.1-.25.07a3.1,3.1,0,0,1-.43,0l-.29,0c.16,0,.06,0,0,0a2.66,2.66,0,0,0-.38-.1c.14,0-.08,0-.08,0l-.26-.14c-.06,0-.33-.25-.17-.11a2,2,0,0,0-.21-.2c-.06-.06-.14-.16,0,0a1.76,1.76,0,0,1-.38-1.52c0,.25,0-.19.06-.27s.18-.45.09-.27a2.5,2.5,0,0,1,.23-.39c-.12.17,0,0,0,0s.14-.15.21-.21a12.21,12.21,0,0,0,1.92-1.7c.48-.67.63-1.48,1-2.14,0-.08.09-.15.14-.23s.14-.19,0-.06,0,0,0-.05l.18-.2.29-.27c.19-.19.06-.06,0,0l.22-.16a6.53,6.53,0,0,1,.82-.45c-.23.1.06,0,.14-.05a4.44,4.44,0,0,1,.52-.15,4.52,4.52,0,0,1,.53-.11c-.31.05.17,0,.27,0a4.87,4.87,0,0,1,.54,0h.2c.23,0-.34-.08.06,0,.17,0,.35.07.52.12l.19.06.13.05c-.17-.07.08,0,.12.06l.24.12.17.11s.36.27.13.08a1.54,1.54,0,0,0,2.12,0,1.51,1.51,0,0,0,0-2.12Z"/><path d="M247.67,239.81a5.35,5.35,0,0,1,7.6-.8l-.39-1.45a3.3,3.3,0,0,1-.58,1,1.52,1.52,0,0,0,1.46,2.51c1.08-.22,3-.73,3.94.18.21.21.53,1.19.33,1.26l1.16,2.75a2.25,2.25,0,0,1,3.14,1.43c.42,1.65-1.27,3.31-2.81,3.51a1.57,1.57,0,0,0-1.45,1.1,1.48,1.48,0,0,0,.69,1.69s-.13-.26-.14-.3c-.09-.29.2-.13-.07-.15a4.45,4.45,0,0,0-1,.28,11.79,11.79,0,0,1-2.72.19,12,12,0,0,1-5.07-1.38c-1.71-.9-3.23,1.69-1.52,2.59a15.23,15.23,0,0,0,9.3,1.63c1.39-.2,3-.56,3.75-1.89a2.56,2.56,0,0,0-1-3.56l-.75,2.8c3.43-.44,6.69-3.61,5.7-7.3-.83-3.11-4.74-4.95-7.55-3.24-1.39.85-.49,3.39,1.16,2.75a3.69,3.69,0,0,0,1.6-5.49c-1.54-2.61-4.94-2.26-7.47-1.75l1.46,2.51a7.21,7.21,0,0,0,1.35-2.32,1.47,1.47,0,0,0-.38-1.46,8.39,8.39,0,0,0-12.31,1.4c-1.11,1.59,1.49,3.09,2.59,1.52Z"/><path d="M155.17,193.24a83.86,83.86,0,0,0,7.22,11.33,1.55,1.55,0,0,0,2.05.54,1.51,1.51,0,0,0,.54-2.05,82.32,82.32,0,0,1-7.21-11.34,1.51,1.51,0,0,0-2.6,1.52Z"/><path d="M164.71,205.69a46.36,46.36,0,0,0,13.41,2.2c1.94,0,1.94-3,0-3a43.59,43.59,0,0,1-12.61-2.09c-1.84-.59-2.63,2.3-.8,2.89Z"/><path d="M159.16,191l15.4-21.19c1.14-1.56-1.46-3.06-2.59-1.51l-15.4,21.19c-1.14,1.56,1.46,3.06,2.59,1.51Z"/><path d="M180.1,205.11a139.17,139.17,0,0,0,12.33-20.54c.85-1.73-1.74-3.25-2.59-1.52a140,140,0,0,1-12.33,20.54c-1.14,1.57,1.46,3.07,2.59,1.52Z"/><path d="M190.42,190.92q12.15,9.18,25.13,17.19,3.69,2.28,7.43,4.45a.5.5,0,0,0,.5-.87Q210.31,204,197.9,195.18q-3.53-2.52-7-5.13c-.51-.39-1,.48-.5.87Z"/><path d="M167.6,201q6.26-11.77,13.48-23c1.38-2.14,2.78-4.25,4.21-6.36.36-.53-.51-1-.87-.5q-7.48,11-14,22.67-1.86,3.33-3.65,6.69c-.3.57.56,1.07.86.5Z"/><path d="M182.26,205.74q14.34,8.5,29.14,16.23c1.7.89,3.22-1.69,1.51-2.59q-14.79-7.71-29.14-16.23a1.5,1.5,0,0,0-1.51,2.59Z"/><path d="M127.28,32.47c-2.73,1.06-6.41,2.77-6.43,6.23,0,2.94,2.81,5.61,5.69,4.23L125,40.34a5.17,5.17,0,0,0,4.46,9.3l-1.15-2.75c-2.53,1.66-2.25,5.22-.19,7.16,2.78,2.63,6.9.84,9.4-1.2l-1.82.24c3.19,2.42,8.21,3,10.19-1.18,1-2.2,1.84-4.73,1.26-7.17a5.75,5.75,0,0,0-4.09-4.31c-1.87-.46-2.67,2.44-.79,2.89,3.26.8,1.94,5.36.88,7.39-1.28,2.43-4.27,1-5.93-.21a1.52,1.52,0,0,0-1.82.23c-1.21,1-3.45,2.31-5,1.31-.67-.42-1.44-2-.57-2.56,1.34-.87.52-3.39-1.15-2.74a2.36,2.36,0,0,1-3-.87,2.29,2.29,0,0,1,.85-2.94A1.5,1.5,0,0,0,125,40.34c-.94.45-1.25-1.74-1-2.27.72-1.46,2.62-2.16,4-2.71,1.78-.69,1-3.6-.79-2.89Z"/><path d="M94.35,21.66a4.41,4.41,0,0,0-4.1,5.39,4.43,4.43,0,0,0,6.08,2.66L94.12,28a5.49,5.49,0,0,0,2.75,6,5.42,5.42,0,0,0,6.43-1.29l-2.56-1.06c-.34,3.5,4.13,5.55,7,4.06,3.44-1.81,3-6.79.61-9.23a1.5,1.5,0,0,0-2.12,2.12c1.09,1.09,1.63,3.57.15,4.44a1.9,1.9,0,0,1-1.72,0,2.1,2.1,0,0,1-.71-.55c-.16-.23-.14-.2-.17-.38,0,.17,0-.34,0-.43a1.51,1.51,0,0,0-2.56-1.06,2.49,2.49,0,0,1-2.8.82A2.41,2.41,0,0,1,97,28.81a1.52,1.52,0,0,0-2.21-1.69,1.42,1.42,0,0,1-1.67-.87,1.38,1.38,0,0,1,1.21-1.59c1.92-.09,1.93-3.09,0-3Z"/><path d="M112.12,29.77a6.56,6.56,0,0,0-3,3.23,3.51,3.51,0,0,0,1.2,4,4.09,4.09,0,0,0,2.28.56,17.15,17.15,0,0,0,2.15,0,7.23,7.23,0,0,0,4.4-1.64,4.68,4.68,0,0,0,1.54-4.58,1.52,1.52,0,0,0-1.84-1.05,1.53,1.53,0,0,0-1,1.84,1.84,1.84,0,0,1,0,.25c0-.2,0-.21,0,0s0,.33,0,.08a3.45,3.45,0,0,1-.12.46c-.1.35.15-.22,0,.1-.08.14-.17.28-.26.42.16-.26,0,0-.08.09s-.24.23-.36.35.18-.09-.1.07l-.44.25c-.23.14.15,0-.18.08s-.67.19-1,.27c-.18,0-.2,0,0,0l-.23,0-.53,0c-.36,0-.72,0-1.08,0l-1.06,0c-.09,0-.42-.07-.16,0a1.34,1.34,0,0,1-.27-.07c.17.07.18.07,0,0,.38.26,0,0,0,0,.13.17.15.19.06.05s-.07-.12,0,.08a1.77,1.77,0,0,1-.08-.31c0,.23,0,.25,0,.08v-.21c0-.33-.09.28,0,0a1.17,1.17,0,0,1,0-.2q.09-.24,0,.06c0-.1.16-.27.2-.35s.1-.14,0,0c0-.07.11-.13.17-.2s.19-.19.29-.27l.21-.18,0,0,.84-.57a1.5,1.5,0,0,0-1.51-2.59Z"/><path d="M176,54.22c-3,.48-6.13,2.63-6.49,5.88a5.26,5.26,0,0,0,4.69,5.9l-1.06-2.56A4.49,4.49,0,1,0,180,69.22l-2.8-.76a6.27,6.27,0,0,0,.88,4.42,4,4,0,0,0,3.89,1.73,5.44,5.44,0,0,0,1.71-.71c.23-.13.49-.25.71-.39.41-.27.1.07,0-.05a3.47,3.47,0,0,0,2.08,1.11,3.82,3.82,0,0,0,2-.45c4.35-2.27,4-9,.21-11.49-1.61-1.08-3.12,1.52-1.51,2.59a3.72,3.72,0,0,1,1.49,3.16c0,1.08-.51,2.79-1.7,3.15-.31.09-.22,0-.47-.19a3.07,3.07,0,0,0-1.36-.79,3.73,3.73,0,0,0-2.74.63c-.65.38-1.18.76-1.78.08s-.5-1.92-.4-2.8a1.48,1.48,0,0,0-1.1-1.44,1.56,1.56,0,0,0-1.69.69,1.51,1.51,0,1,1-2.08-2.15A1.52,1.52,0,0,0,174.23,63c-1.3-.07-1.94-1.81-1.66-2.91.46-1.85,2.57-2.71,4.25-3a1.5,1.5,0,0,0,1.05-1.84A1.53,1.53,0,0,0,176,54.22Z"/><path d="M195.49,68.26A5.62,5.62,0,0,0,195.94,79l-.66-2.5A5.26,5.26,0,1,0,203.41,83l-2.74-.36a4,4,0,0,0,4.76,2.5c2.18-.44,3.51-2.42,4.57-4.21l-.9.69a5.83,5.83,0,0,0,4.78-4.54A5.94,5.94,0,0,0,211.11,71c-1.64-1-3.15,1.57-1.51,2.59a2.78,2.78,0,0,1-.9,5.11c-1.57.34-1.83,2.11-3,3.07-.41.34-1.84,1-2.14.11a1.53,1.53,0,0,0-2.75-.36,2.26,2.26,0,1,1-3.42-2.87,1.52,1.52,0,0,0-.66-2.51c-2.27-.65-2.82-4-.45-5a1.56,1.56,0,0,0,1.05-1.85,1.52,1.52,0,0,0-1.85-1Z"/><path d="M152.13,46.52a7.2,7.2,0,0,0-6.27,5.5,6.61,6.61,0,0,0,.35,4.83,3.72,3.72,0,0,0,4.37,1.83l-1.7-2.2a3.31,3.31,0,0,0,2.35,4.65c2.24.45,4-1.33,4.75-3.28l-1.85,1a4.55,4.55,0,0,0,3.59-8.22,1.5,1.5,0,0,0-2.05.54,1.53,1.53,0,0,0,.53,2.05c-.14-.11.34.39.23.23a1.47,1.47,0,0,1,.27.56,1.34,1.34,0,0,1,0,1.12c.07-.17-.07.1-.1.15s0,0-.12.14a1.16,1.16,0,0,1-.46.36,1.67,1.67,0,0,1-1,.18,1.53,1.53,0,0,0-1.84,1.05,2.65,2.65,0,0,1-.21.4,1.49,1.49,0,0,1-.34.42.87.87,0,0,1-.36.25c-.22.11.15,0-.09,0l-.17,0h0c-.08,0-.22,0,0,0-.06,0-.21-.12-.07,0a2.08,2.08,0,0,1-.21-.21c.1.12,0,0,0,0s-.09-.17,0-.08,0,.06,0,0,0,0,0,.12.12-.24,0,0a1.5,1.5,0,0,0-1.69-2.2,1.86,1.86,0,0,1-.31.1c.24,0-.17-.06-.05,0s-.21-.09-.09,0l-.2-.11a1.36,1.36,0,0,1-.47-.82,4.22,4.22,0,0,1,.24-2.57,5.2,5.2,0,0,1,1.29-1.93,3.61,3.61,0,0,1,1-.67c-.14.07,0,0,.08,0l.3-.09a2.74,2.74,0,0,1,.39-.09c.28,0-.34,0,.16,0a1.5,1.5,0,0,0,0-3Z"/><path d="M162.18,53.12A3.47,3.47,0,0,0,159,55a3.52,3.52,0,0,0,.31,4,4.37,4.37,0,0,0,.86.75l.35.24.21.15c.18.12.13,0,0,0,.13,0,.24.23.34.32s-.13-.22,0,0l.16.24a4.35,4.35,0,0,0,1,1.11,3.67,3.67,0,0,0,4.11-.15,6.76,6.76,0,0,0,2.37-4.34,1.5,1.5,0,1,0-2.89-.8,15.65,15.65,0,0,1-.41,1.53l-.06.15c0,.16-.09.06,0-.06-.06.06-.09.22-.13.29s-.12.22-.19.33l-.12.18c-.1.16.18-.19,0-.06l-.24.25c-.17.19.25-.16,0,0l-.29.16s-.19.1,0,0,0,0-.08,0-.43.08-.16,0-.1,0-.16,0h-.13c-.15,0,.17,0,.18,0l-.17,0c-.21,0,.09,0,.12,0s-.38-.23-.15-.07-.25-.24,0,0c-.25-.25-.43-.64-.66-.91a6.83,6.83,0,0,0-1.39-1.12l-.13-.09c-.17-.11.2.18.06,0l-.27-.25c-.2-.21.13.24,0,0,0,0-.06-.11-.08-.13s.12.35.07.15-.07-.37,0-.09,0,0,0-.1a.75.75,0,0,0,0-.15s-.07.35,0,.21.05-.2.08-.29l0-.11c.08-.25-.13.21,0,.11s.1-.19.15-.27c.15-.27-.22.21,0,0a2.28,2.28,0,0,0,.22-.22c.09-.1-.15.12-.15.12a.7.7,0,0,0,.16-.1l.09-.05c-.2.19-.28.09-.11.05l.1,0c.23-.08-.26,0-.14,0s.24,0,.35,0a1.51,1.51,0,0,0,1.5-1.5,1.54,1.54,0,0,0-1.5-1.5Z"/><path d="M221.23,203.63l3.41-3.79-.78-.61L220,204.7c-.33.46.41,1,.78.61l4.78-5.39-.78-.6-4.39,8.08a.5.5,0,0,0,.87.5,28.19,28.19,0,0,1,6-7l-.79-.61-5.71,9.05a.5.5,0,0,0,.78.61l7.5-8.05-.79-.6q-2.52,4.22-4.62,8.67a.5.5,0,0,0,.86.5q2.81-3.78,5.69-7.52l-.93-.25-.16,1.47c0,.41.45.58.75.43l3.5-1.66c.58-.28.07-1.14-.51-.87l-3.49,1.67.75.43.16-1.47c.06-.56-.68-.59-.94-.25q-2.87,3.74-5.68,7.52l.86.5q2.1-4.44,4.62-8.67a.5.5,0,0,0-.78-.6l-7.49,8,.78.6,5.71-9c.32-.51-.37-1-.78-.61a29.42,29.42,0,0,0-6.12,7.22l.87.5,4.38-8.08c.26-.48-.39-1-.78-.61l-4.78,5.39.78.61,3.87-5.47c.33-.47-.4-1-.78-.61l-3.41,3.79c-.43.48.27,1.19.7.71Z"/><path d="M308.81,223.89l8,6.8a1.5,1.5,0,0,0,2.12-2.12l-8-6.81a1.54,1.54,0,0,0-2.12,0,1.52,1.52,0,0,0,0,2.13Z"/><path d="M319,232.86l8.25,2.89a1.5,1.5,0,1,0,.8-2.89L319.78,230a1.5,1.5,0,0,0-1.84,1.05,1.53,1.53,0,0,0,1.05,1.84Z"/><path d="M333.08,235l10.37-17.8a1.5,1.5,0,0,0-2.59-1.52l-10.37,17.8a1.5,1.5,0,0,0,2.59,1.52Z"/><path d="M327.68,234.44l12.6-20.91a.5.5,0,0,0-.87-.51l-12.6,20.92c-.33.55.54,1.05.87.5Z"/><path d="M310,211.52q10,5.92,20.35,11.24c.57.29,1.08-.57.51-.87q-10.35-5.31-20.35-11.23a.5.5,0,0,0-.51.86Z"/><path d="M318.27,230.48l4.28-6.54c.35-.54-.51-1-.87-.5L317.41,230c-.36.54.51,1,.86.5Z"/><path d="M329.11,212.66l4.45-6.92c.35-.54-.52-1-.86-.5l-4.46,6.92c-.35.54.52,1,.87.5Z"/><path d="M309.66,224.41l4-5.9c.36-.54-.51-1-.87-.51l-4,5.9c-.37.54.5,1,.86.51Z"/><path d="M313,217.67l5.94,4.94a.51.51,0,0,0,.7,0,.5.5,0,0,0,0-.71L313.74,217a.52.52,0,0,0-.71,0,.51.51,0,0,0,0,.71Z"/><path d="M322.66,225.1l7.38,2.09a.5.5,0,0,0,.27-1l-7.39-2.08a.5.5,0,0,0-.26,1Z"/><path d="M320.67,208.07a37,37,0,0,1,3.93,4.72.52.52,0,0,0,.69.18.5.5,0,0,0,.17-.68,39.26,39.26,0,0,0-4.08-4.93c-.45-.46-1.16.25-.71.71Z"/><path d="M327,213.25a67,67,0,0,1,8.42,4.94c.53.36,1-.5.51-.87a68.24,68.24,0,0,0-8.43-4.93c-.57-.29-1.08.58-.5.86Z"/><path d="M325.49,202.4a18.45,18.45,0,0,1,5.25,4c.43.48,1.14-.23.7-.7a18.91,18.91,0,0,0-5.45-4.15c-.57-.29-1.08.57-.5.86Z"/><path d="M331.72,205.91a41.76,41.76,0,0,1,6.32,8.78c.31.57,1.17.06.86-.5a43.13,43.13,0,0,0-6.47-9c-.44-.47-1.15.24-.71.71Z"/><path d="M324.41,201.93a99.59,99.59,0,0,1,15.91,12.19c1.41,1.33,3.53-.79,2.12-2.12a103.1,103.1,0,0,0-16.52-12.66c-1.64-1-3.15,1.57-1.51,2.59Z"/><path d="M311.81,285.51c6.19-6.26,10.12-14.53,14.44-22.09q7.13-12.5,14.27-25a1.5,1.5,0,0,0-2.6-1.51l-14,24.54c-2.21,3.88-4.39,7.78-6.66,11.62a51.91,51.91,0,0,1-7.55,10.29c-1.36,1.38.76,3.5,2.12,2.13Z"/><path d="M332.86,234l5.41,3.51a1.5,1.5,0,0,0,1.51-2.6l-5.41-3.5a1.51,1.51,0,0,0-2.05.54,1.54,1.54,0,0,0,.54,2Z"/><path d="M264.66,241.39c-1.06-1.85,1.45-4.34,3-5.11a2.35,2.35,0,0,1,2.45-.06,1.31,1.31,0,0,1,.53,1.77l2.74,1.16a2,2,0,0,1,2.71-1,2,2,0,0,1,.52,2.72c-.79,1-.12,3.11,1.46,2.5a2,2,0,0,1,2.76,2.69,1.51,1.51,0,0,0,1.45,1.9,1.63,1.63,0,0,1,1.53,2.1,5.93,5.93,0,0,1-2.33,3.1,1.53,1.53,0,0,0,0,2.12,2.43,2.43,0,0,1-.33,3.16c-1.07,1.16-2.84,1.44-4.33,1.52-1.92.09-1.93,3.1,0,3,2.66-.14,5.52-.89,7.11-3.21a5.32,5.32,0,0,0-.33-6.59v2.12c1.84-1.53,3.54-3.72,3.2-6.25a4.48,4.48,0,0,0-4.52-4.07l1.45,1.9a5,5,0,0,0-6.46-6.38l1.46,2.51a5,5,0,0,0-1.09-7.4c-2.68-1.68-6.13,0-7.15,2.76-.62,1.66,1.85,2.51,2.74,1.16a4.07,4.07,0,0,0-.45-4.83,4.91,4.91,0,0,0-5.25-1.56c-3.72,1.06-7.61,6-5.42,9.79a1.5,1.5,0,0,0,2.59-1.52Z"/><path d="M287.08,253.93c.23-2.12,3.74-1.59,5.05-1.38l-1.05-1.05.77,3.86a1.51,1.51,0,0,0,2.2.9c.88-.51,2.45-1.42,3.49-.82a1.32,1.32,0,0,1,.54.65c.16.43.06.51-.08.65a1.52,1.52,0,0,0,.3,2.35c1.76,1.18,1.3,4.17-.47,5.06a1.52,1.52,0,0,0,0,2.59c.42.27-.24,1.23-.47,1.46-.84.83-2.37.95-3.44,1.31a9.06,9.06,0,0,0-1.8.8c-.48.28-1,.82-1.55.84-1,0-2.06-1.33-2.61-2.06a1.57,1.57,0,0,0-2.06-.54,1.5,1.5,0,0,0-.53,2.05c1.19,1.59,2.7,3.3,4.81,3.52a4.31,4.31,0,0,0,2.87-.83,10.3,10.3,0,0,1,3-1.29c1.9-.54,3.62-1.34,4.45-3.24a3.56,3.56,0,0,0-1.18-4.61v2.59c3.9-2,4-7.88.47-10.24l.3,2.36c1.63-1.55,1.16-4.13-.42-5.53-2.08-1.84-5-.89-7.16.34l2.2.89L294,250.7a1.42,1.42,0,0,0-1.05-1c-2-.32-4.07-.62-6,.27a4.89,4.89,0,0,0-2.88,4,1.5,1.5,0,0,0,1.5,1.5,1.52,1.52,0,0,0,1.5-1.5Z"/><path d="M307.84,259.28a7.38,7.38,0,0,0-7.26,3,7.3,7.3,0,0,0,0,7.95l.54-2.05a5.14,5.14,0,1,0,5.36,8.77l-2.05-.54a4.74,4.74,0,0,0,8.88-3.11l-1,1.85a9.68,9.68,0,0,0,5-2.41,4.48,4.48,0,0,0,1.18-2.45c.14-1-.42-2.17-.11-3.14a8.33,8.33,0,0,0,.84-2.8,4.93,4.93,0,0,0-.9-2.75,5,5,0,0,0-5.23-2.18c-1.88.41-1.09,3.31.8,2.9A2.14,2.14,0,0,1,316,263.7a1.69,1.69,0,0,1,0,1.36,6.52,6.52,0,0,0-.77,2.43c0,1.25.71,2.49-.4,3.42a8,8,0,0,1-3.35,1.35,1.54,1.54,0,0,0-1.05,1.85A1.85,1.85,0,0,1,309,276a1.93,1.93,0,0,1-2-1.12,1.51,1.51,0,0,0-2.05-.54,2.15,2.15,0,1,1-2.33-3.59,1.52,1.52,0,0,0,.53-2A4.34,4.34,0,0,1,303,264a4.27,4.27,0,0,1,4-1.82,1.55,1.55,0,0,0,1.84-1.05,1.51,1.51,0,0,0-1.05-1.85Z"/><path d="M320,244.24c-2.59,1.2-5.45,3.06-6,6.11-.44,2.53.87,5.57,3.61,6.07l.4-2.94a3.46,3.46,0,0,0-3.18,3.2,3.74,3.74,0,0,0,2.39,3.83c3.85,1.62,7.22-2,9.11-4.92a13.7,13.7,0,0,0,1.24-2.59c.11-.28.12-.4.35-.57a14.22,14.22,0,0,1,1.43-.58c1.58-.94,1.88-2.77,1.88-4.46a20.33,20.33,0,0,1,0-2.21,19.52,19.52,0,0,0,.36-2.84,4.28,4.28,0,0,0-3.2-4c-2.13-.76-4.64-1.33-6.81-.43a5,5,0,0,0-3.27,4.68c.09,1.93,3.09,1.94,3,0-.07-1.38,1.3-2.08,2.52-2.14a8.24,8.24,0,0,1,2.78.47,3.89,3.89,0,0,1,1.79.76c.39.48.16,1.37.07,1.92-.11.72-.24,1.44-.28,2.17,0,.9.39,2.79-.35,3.48-.47.43-1.33.48-1.86.87a4,4,0,0,0-1.3,2,12,12,0,0,1-2.62,4.08c-.87.94-2.13,2.09-3.53,1.67-.37-.11-.71-.3-.77-.7,0-.1.06-.63.21-.64a1.53,1.53,0,0,0,1.48-1.3,1.49,1.49,0,0,0-1.08-1.65c-1.36-.25-1.79-1.9-1.36-3.09.67-1.84,2.78-2.84,4.43-3.61s.23-3.4-1.51-2.59Z"/><path d="M310.51,222.69a198.81,198.81,0,0,0,14.38-21.39,1.5,1.5,0,0,0-2.59-1.51,199.68,199.68,0,0,1-14.38,21.38,1.51,1.51,0,0,0,.54,2.06,1.54,1.54,0,0,0,2.05-.54Z"/><path d="M309.39,184.33a566.74,566.74,0,0,0,50.38,31.15q7.43,4.08,15,7.92c1.72.88,3.24-1.71,1.52-2.59A569.08,569.08,0,0,1,325,191.18q-7.09-4.62-14-9.44c-1.6-1.1-3.1,1.5-1.52,2.59Z"/><path d="M309.09,182.37a87.76,87.76,0,0,0,10.19-15.72c.87-1.72-1.72-3.24-2.59-1.51A84.2,84.2,0,0,1,307,180.25a1.55,1.55,0,0,0,0,2.12,1.51,1.51,0,0,0,2.12,0Z"/><path d="M320.14,167.81A343.39,343.39,0,0,0,361.67,191q6.12,2.88,12.35,5.51a1.55,1.55,0,0,0,2.05-.53,1.52,1.52,0,0,0-.53-2.06,343.68,343.68,0,0,1-42.41-21.51q-5.81-3.46-11.48-7.17c-1.62-1.05-3.12,1.54-1.51,2.59Z"/><path d="M331.2,193l6.36-11.91c.31-.57-.56-1.07-.86-.5l-6.36,11.9c-.31.57.56,1.08.86.51Z"/><path d="M332.32,196.28q4.88-7,9.19-14.43a.5.5,0,0,0-.86-.51q-4.32,7.4-9.19,14.44c-.37.53.5,1,.86.5Z"/><path d="M303.3,174.66l4.32-12.52c.21-.61-.76-.87-1-.26l-4.32,12.52c-.21.61.76.87,1,.26Z"/><path d="M307.54,162.15l8.4-4.14c.58-.29.07-1.15-.5-.87l-8.4,4.14c-.58.29-.07,1.15.5.87Z"/><path d="M302.62,174l.63,5.47a.51.51,0,0,0,.5.5.5.5,0,0,0,.5-.5l-.63-5.47a.51.51,0,0,0-.5-.5.51.51,0,0,0-.5.5Z"/><path d="M314.2,158.68l1,4c.15.62,1.12.36,1-.27l-1-4c-.15-.62-1.12-.36-1,.27Z"/><path d="M301.45,185.41l13.53-21,3.84-6c.35-.55-.52-1.05-.87-.51l-13.52,21-3.84,6c-.35.54.52,1,.86.5Z"/><path d="M302.81,172.42q-13.74-7.71-26.67-16.73c-1.59-1.11-3.09,1.49-1.52,2.59q12.93,9,26.68,16.73a1.5,1.5,0,0,0,1.51-2.59Z"/><path d="M312.76,154.49,286,138.34a1.5,1.5,0,0,0-1.52,2.59l26.74,16.15c1.66,1,3.17-1.59,1.51-2.59Z"/><path d="M292.49,180.31l4.54-6.42a1.49,1.49,0,0,0-.54-2,1.54,1.54,0,0,0-2.05.53l-4.54,6.43a1.5,1.5,0,0,0,.54,2,1.53,1.53,0,0,0,2.05-.54Z"/><path d="M306.71,161q-12.93-7.75-25.67-15.79c-.54-.34-1,.52-.5.87q12.73,8,25.66,15.78a.5.5,0,0,0,.51-.86Z"/><path d="M281.6,223.72h.21s-.09,0,0,0,.12.05.14,0-.09,0,0,0l.08.05.06,0c.05,0-.06-.06,0,0l.1.1c.05,0-.05-.07,0,0l0,.06,0,.06s0-.11,0,0a.51.51,0,0,0,.41.36.48.48,0,0,0,.5-.24l1.27-2.5a.5.5,0,0,0-.87-.51l-1.26,2.51.91.12a1.54,1.54,0,0,0-1.53-1,.51.51,0,0,0-.5.5.5.5,0,0,0,.5.5Z"/><path d="M282.58,224.75l3-1.88a.5.5,0,1,0-.51-.86l-3,1.88a.5.5,0,0,0-.18.68.52.52,0,0,0,.69.18Z"/><path d="M292.44,240.09a1.42,1.42,0,0,0,.19,1.08,1.37,1.37,0,0,0,.88.62.49.49,0,0,0,.39,0,.53.53,0,0,0,.23-.3.76.76,0,0,1,.06-.2c0-.09-.06.11,0,0l.05-.09a.41.41,0,0,1,0-.09h0a1.79,1.79,0,0,1,.13-.14.6.6,0,0,1,.08-.08s.09-.06,0,0c.06,0,.11-.08.18-.11l.07,0c.12-.06-.08,0,0,0a.83.83,0,0,1,.21-.06.5.5,0,0,0-.27-1,2,2,0,0,0-1.5,1.5l.62-.35-.09,0c-.05,0-.11-.06,0,0l-.13-.07,0,0-.07-.06-.06-.07,0,.06,0,0a.83.83,0,0,1-.07-.13l0,.05v0l0-.08c0-.05,0-.11,0,0,0,0,0-.05,0-.07v-.08c0-.08,0,.14,0,0a.5.5,0,0,0-1-.26Z"/><path d="M293.92,242.13l2.64-1.12a.5.5,0,0,0,.18-.68.51.51,0,0,0-.69-.18l-2.64,1.12a.5.5,0,0,0-.18.68.51.51,0,0,0,.69.18Z"/><path d="M298.44,227.15l.37,1.76a.52.52,0,0,0,.42.36.53.53,0,0,0,.5-.24l.76-1.41a.5.5,0,0,0-.87-.5l-.76,1.4.92.12-.37-1.76a.51.51,0,0,0-.62-.35.52.52,0,0,0-.35.62Z"/><path d="M299.63,229.58l.23-.21.05,0c.1-.08-.05,0,0,0l.12-.08a3.6,3.6,0,0,1,.54-.31l.07,0c.07,0,0,0,0,0l.14-.05.29-.09.31-.07h.08s.09,0,0,0,0,0,0,0h.09a.5.5,0,0,0,.5-.5.51.51,0,0,0-.5-.5,4.31,4.31,0,0,0-2.66,1.21.5.5,0,0,0,0,.71.51.51,0,0,0,.7,0Z"/><path d="M244.32,119.87a5.57,5.57,0,0,0,.91,2.65.51.51,0,0,0,.92-.12L247,120a.5.5,0,0,0-.35-.61.51.51,0,0,0-.62.35l-.85,2.39.92-.12a5.74,5.74,0,0,1-.32-.53l-.14-.3c0,.08,0,0,0,0l-.06-.16a4.5,4.5,0,0,1-.17-.6,2.74,2.74,0,0,1-.05-.28l0-.08c0,.06,0,.06,0,0s0-.11,0-.17a.52.52,0,0,0-.5-.5.5.5,0,0,0-.5.5Z"/><path d="M246.34,122.42l1.7-1.27a.53.53,0,0,0,.23-.3.5.5,0,0,0-.05-.38.5.5,0,0,0-.3-.23.46.46,0,0,0-.38.05l-1.7,1.27a.5.5,0,0,0,.12.92.5.5,0,0,0,.38-.06Z"/><path d="M261,116.58l.8,2.47a.5.5,0,0,0,.48.37.52.52,0,0,0,.48-.37l.83-2a.5.5,0,0,0-.35-.61.52.52,0,0,0-.62.35l-.82,2h1l-.8-2.47a.5.5,0,1,0-1,.26Z"/><path d="M262.94,119.12a7,7,0,0,0,2.58-1.9.5.5,0,0,0-.71-.71,7,7,0,0,1-.53.56l-.28.24-.14.12c-.11.08.05,0,0,0l-.09.06a7.19,7.19,0,0,1-1.32.76.48.48,0,0,0-.18.68.51.51,0,0,0,.68.18Z"/><path d="M259.6,132.33a5.73,5.73,0,0,1,.34,1.16l0,.15s0,.16,0,0a3,3,0,0,1,0,.31,4.14,4.14,0,0,1,0,.61.53.53,0,0,0,.37.49.54.54,0,0,0,.57-.23l1.38-1.94a.5.5,0,0,0-.18-.68.52.52,0,0,0-.69.18l-1.38,1.93.93.25a6.15,6.15,0,0,0-.45-2.54.53.53,0,0,0-.23-.3.5.5,0,0,0-.73.57Z"/><path d="M260.83,135.18a2.42,2.42,0,0,0,2.69-1,.5.5,0,0,0-.87-.5s-.06.08-.08.12.07-.08,0,0l0,.06-.21.19c-.07.07.07,0,0,0l-.06,0-.13.08-.11.06-.07,0s.1,0,0,0l-.27.08h-.06s-.11,0,0,0,0,0,0,0h-.36c-.09,0,.09,0,0,0h-.07l-.15,0a.5.5,0,0,0-.61.35.5.5,0,0,0,.35.61Z"/><path d="M300.59,99.57q-1.81,3.5-3.86,6.86a.49.49,0,0,0,.18.68l1.3.57a5.16,5.16,0,0,0,1.2.47c1,.18,1.37-.8,1.76-1.53.92-1.73,1.84-3.46,2.74-5.2.3-.57-.56-1.08-.86-.51l-2.31,4.4c-.2.36-.39.72-.58,1.08-.11.21-.29.77-.55.78a1.19,1.19,0,0,1-.49-.17l-.55-.24-1.16-.51.18.68c1.36-2.24,2.65-4.53,3.87-6.85.29-.57-.57-1.08-.87-.51Z"/><path d="M264.48,77.39,277.92,55.5c.34-.55-.53-1-.86-.5L263.61,76.88c-.33.55.53,1.05.87.51Z"/><path d="M270.06,79.44q10.26,6.93,21.16,12.82c1.7.92,3.22-1.67,1.51-2.59q-10.89-5.88-21.16-12.82c-1.6-1.08-3.1,1.52-1.51,2.59Z"/><path d="M259.07,70.53l-6.86-4.35a1.52,1.52,0,0,0-2.05.53,1.54,1.54,0,0,0,.54,2.06l6.85,4.35a1.51,1.51,0,0,0,2.05-.54,1.54,1.54,0,0,0-.53-2Z"/><path d="M260.88,71.35a17,17,0,0,0,2.19-4.56,1.5,1.5,0,1,0-2.89-.8c-.15.48-.33,1-.52,1.42l.15-.36a15.71,15.71,0,0,1-1.52,2.79,1.54,1.54,0,0,0-.15,1.15,1.56,1.56,0,0,0,.69.9,1.54,1.54,0,0,0,2.05-.54Z"/></g></g></g></svg>