<svg xmlns="http://www.w3.org/2000/svg" viewBox="0 0 312.12 372.14"><g id="Layer_2" data-name="Layer 2"><g id="Layer_7_145" data-name="Layer 7,145"><path d="M288.86,367.07c8.58-24.67,14.28-50.57,18-76.4,1.87-12.88,3.27-25.82,4.09-38.81q.6-9.45.79-18.93c.14-6.7,1.07-14.47-.75-21-2-7-13-7.49-14.69,0-1.4,6.13-.49,12.81-.53,19.08s-.21,12.62-.52,18.93c-.62,12.86-1.77,25.71-3.54,38.47-3.55,25.43-9.69,50.15-17,74.74-2.71,9.12,11.06,12.71,14.13,3.89Z"/><path d="M12.58,8.89c1.21,17.3,5,34.45,7.18,51.67A501.6,501.6,0,0,1,23.52,113a502.27,502.27,0,0,1-8.44,103.49A500.4,500.4,0,0,1,.39,274.5c-2.93,9.23,11.55,13.17,14.46,4A505.74,505.74,0,0,0,35.16,67c-2.35-19.8-5-40.9-12.69-59.42-2-4.74-10.33-4.89-9.89,1.34Z"/><path d="M14.37,12.93c4.63,2.42,10.7,2.42,15.83,2.65,5.54.25,11.19-.05,16.73-.22q17.72-.54,35.45-.27,35,.54,69.77,4.23c4,.43,7.5-3.75,7.5-7.5,0-4.4-3.45-7.07-7.5-7.5Q117.38.67,82.38.09,65.15-.16,47.91.33C42.33.49,36.74.85,31.18,1.42,25.84,2,18.83,2.68,14.37,5.84c-2.35,1.67-2.95,5.55,0,7.09Z"/><path d="M152.22,12.41c-3,6.46-1.91,14.25-1.94,21.23,0,7.33-.1,14.65.06,22l1,44.95c.31,14.65.72,29.31,1.08,44,.37,15.31-.41,30.64.39,45.95.5,9.51,14.84,9.65,14.88,0,.08-15-1.41-30-1.76-44.95s-.64-30-1-45l-1.13-43.95c-.19-7.34-.58-14.66-1-22s.54-15.74-2.88-22.23c-1.48-2.79-6.29-3-7.69,0Z"/><path d="M160.56,198a170.08,170.08,0,0,0,31.74,8.41c10.75,1.88,21.6,3.93,32.45,5.19a531.54,531.54,0,0,0,65.79,3.26c9.64-.08,9.67-15.08,0-15A632.17,632.17,0,0,1,225.71,197c-10.68-1-21.28-1.73-31.92-3.29s-21.32-3-32.16-3.68c-4.85-.3-5,6.43-1.07,7.94Z"/><path d="M7.12,288.66c7.11,4.74,17,5.09,25.19,6.63q13.14,2.47,26.09,5.86a521.68,521.68,0,0,1,50.22,16.05c33.54,12.47,65.53,28.5,98.77,41.66,19,7.51,40.35,12.85,60.68,8,9.9-2.37,8.06-19.52-2.46-18.18-17.75,2.25-34,0-51-5.34-16.85-5.31-33-13.13-49.25-19.93-32.2-13.46-64.77-26.38-98.49-35.53-9.5-2.57-19.08-4.83-28.74-6.7-9.17-1.77-20.72-5-29.8-1.62-4.05,1.53-4.9,6.62-1.19,9.11Z"/><path d="M45.92,67.31l-5-26.6c-.48-2.53-4.34-1.46-3.86,1.06l5,26.61c.48,2.52,4.34,1.45,3.86-1.07Z"/><path d="M51.49,70.62c2.58,0,2.58-4,0-4s-2.57,4,0,4Z"/><path d="M45.19,70.49a457.72,457.72,0,0,0,72.08-19.7q10-3.65,19.84-7.74a2.09,2.09,0,0,0,1.4-2.46q-2-11.06-4-22.11C134,16,130.15,17,130.61,19.54q2,11.06,4,22.11l1.4-2.46A457.31,457.31,0,0,1,65,62.23q-10.36,2.45-20.84,4.4c-2.53.48-1.46,4.33,1.06,3.86Z"/><path d="M41.49,42.77c22.2-6.85,45.75-7.58,67.95-14.4,3.06-.94,6.08-2,9-3.19,1.58-.64,3.15-1.31,4.7-2a11.08,11.08,0,0,1,4.47-1.47c2.58,0,2.58-4,0-4-3,0-5.62,1.66-8.29,2.83s-5.35,2.16-8.09,3.07A153.11,153.11,0,0,1,94.4,28.07c-11.51,2.44-23.19,4-34.74,6.18a181.34,181.34,0,0,0-19.23,4.67c-2.45.75-1.41,4.62,1.06,3.85Z"/><path d="M64.3,204.85A75.86,75.86,0,0,1,70.08,187c1.28-2.85,2.66-5.65,4.08-8.44.67-1.33,1.33-2.67,2-4a2.31,2.31,0,0,1,.85-1.09,5.16,5.16,0,0,1,2.28-.05q20.31,1.11,40.61,2.61,11.64.85,23.26,1.82a2,2,0,0,0,2-2l.14-15.64c0-2,0-4-1-5.74-.91-1.57-2.71-2.71-4.53-1.94a2.07,2.07,0,0,0-1.4,2.46,2,2,0,0,0,2.46,1.4c.64-.27,0,0-.15-.17a1.27,1.27,0,0,1,.17.27c.11.47.39.88.46,1.38a40.25,40.25,0,0,1,0,5.81l-.11,12.17,2-2q-21.51-1.78-43.06-3.18c-7.1-.46-14.2-.95-21.31-1.28a6.93,6.93,0,0,0-4,.74c-1.38.85-2.06,2.37-2.76,3.75-1.5,2.92-3,5.84-4.38,8.8a84.36,84.36,0,0,0-7.24,21.09,2.06,2.06,0,0,0,1.4,2.46,2,2,0,0,0,2.46-1.4Z"/><path d="M48.46,151l72.16,4.09,20.4,1.16c2.57.15,2.57-3.85,0-4l-72.15-4.09L48.46,147c-2.57-.15-2.56,3.85,0,4Z"/><path d="M21.67,276a393.17,393.17,0,0,0,13.68-48.2,399.35,399.35,0,0,0,7.47-49.61q1.22-14.14,1.42-28.34l-1.47,1.93a9,9,0,0,1,5.12.59,2,2,0,0,0,2.46-1.4,2.05,2.05,0,0,0-1.4-2.46A13,13,0,0,0,41.7,148a2,2,0,0,0-1.46,1.93,389.09,389.09,0,0,1-3.86,49.65,392.45,392.45,0,0,1-10.13,48.59Q22.52,261.71,17.81,275c-.86,2.43,3,3.47,3.86,1.06Z"/><path d="M61.62,205.32l47.32,6.73-1.39-2.46-3,15.45L103,232.77a30.8,30.8,0,0,1-1.47,5.93,4.34,4.34,0,0,1-3.35,3,13.68,13.68,0,0,1-3.38-.18L90.59,241l-15.86-1.89L56.89,237c-1.38-.17-2.16,1.4-1.92,2.53L55.9,244a2,2,0,0,0,1.4,1.39l51.2,7.36L107,250.82a52.2,52.2,0,0,1-7.51,23.93,2,2,0,0,0,1.73,3l19.57,1.82,9.66.9c2.81.26,5.67,0,7.12-2.8,1.32-2.53,1.75-5.68,2.45-8.42q1.2-4.63,2.33-9.28t2.27-9.54c.59-2.54,2.2-6.32.1-8.54-1.86-2-5.49-1.48-7.94-1.57l-9.86-.39c-3.07-.12-6.16-.12-9.22-.36-1.25-.11-1.22-.17-1.07-1.43.19-1.64.42-3.27.64-4.91l1.24-9.57c.18-1.39.31-2.81.57-4.2.17-.91.35-2.05,1.38-2.31,1.25-.32,2.86.08,4.12.2l5,.46,9.65.89c3.63.34,7.26.69,10.89,1a6.59,6.59,0,0,0,4.19-.64,5.19,5.19,0,0,0,2.2-3.69c1.24-7.07,1.87-14.31,2.61-21.44a2,2,0,0,0-2-2,2,2,0,0,0-2,2q-1,9.2-2.18,18.38c-.1.73-.06,2.81-.72,3.33s-2.82,0-3.58-.07l-9.41-.88-9.4-.87-4.71-.43a28.2,28.2,0,0,0-4.21-.3,5.74,5.74,0,0,0-5.49,4.59,72.32,72.32,0,0,0-1.21,8.67L113,235.7c-.34,2.61-1,5.63,1.75,7.17a7.67,7.67,0,0,0,3.34.72c1.64.09,3.29.13,4.93.2l9.37.36c3,.12,6.1,0,9.06.38a1.3,1.3,0,0,1,.45.12c-.09-.09-.12-.3-.09,0a6.17,6.17,0,0,1-.34,1.8c-.36,1.6-.72,3.19-1.1,4.78q-2.11,9.09-4.46,18.1c-.44,1.7-.86,3.4-1.34,5.09-.3,1-.56,2-1.78,2.13a25.54,25.54,0,0,1-4.77-.35l-5.45-.51-21.3-2,1.73,3a56.64,56.64,0,0,0,8-25.95,2,2,0,0,0-1.47-1.93l-51.2-7.35,1.4,1.39-.94-4.48L56.89,241l33.7,4c2.61.32,5.39.95,8,.64a7.64,7.64,0,0,0,5.48-3.33,15.33,15.33,0,0,0,2.14-5.38c.58-2.54,1-5.12,1.52-7.68l3.65-18.59A2,2,0,0,0,110,208.2l-47.32-6.73a2.07,2.07,0,0,0-2.46,1.39,2,2,0,0,0,1.39,2.46Z"/><path d="M225.11,283.79q-7.85-1.11-15.64-2.65c-5.06-1-10.25-2-15.2-3.47-.72-.22-1.39-.42-1.5-1.24a13.21,13.21,0,0,1,.37-3.53q.56-4,1.21-8,1.31-7.81,3-15.56c.55-2.55,1.14-5.08,1.75-7.61a25.65,25.65,0,0,1,.88-3.34c.38-1,1-.74,1.95-.63,5.37.62,10.74,1.27,16.11,1.91l7.92.94,4,.47,2,.23a12.18,12.18,0,0,0,1.55.25.46.46,0,0,1,.24.1c-.43-.33-.09-.3-.17-.09a7.36,7.36,0,0,0-.16,1.64c-.16,1.31-.33,2.61-.52,3.91-.38,2.57-.8,5.13-1.28,7.69a191.26,191.26,0,0,1-9.39,33.1,2,2,0,0,0,1.39,2.46A2,2,0,0,0,226,289a189.66,189.66,0,0,0,9.31-32.64q.79-4.17,1.4-8.38c.2-1.42.39-2.84.57-4.27a7.51,7.51,0,0,0-.06-3.65c-1-2.58-4.05-2.56-6.33-2.83L222,236.18l-17.84-2.11c-2.66-.32-5.5-.93-7.26,1.63a9.59,9.59,0,0,0-1.18,3.12c-.36,1.42-.71,2.84-1,4.26q-2,8.55-3.56,17.19-.77,4.32-1.41,8.67c-.2,1.36-.4,2.73-.58,4.1a14,14,0,0,0-.25,4.33c.55,3,3.35,3.93,6,4.58q4.74,1.19,9.51,2.2,9.79,2.1,19.71,3.5a2.06,2.06,0,0,0,2.46-1.4,2,2,0,0,0-1.4-2.46Z"/><path d="M222.91,288.68c-1.33,1.78,0,3.88,1.6,4.87,1.91,1.14,4.46,1.18,6.6,1.53l15.38,2.54-1.39-1.4a4.9,4.9,0,0,1-.79,3,31.4,31.4,0,0,0-1.8,3.8c-1.08,3.22.84,6,4.1,6.59,4.37.84,8.8,1.42,13.19,2.13l13.63,2.19A2,2,0,0,0,276,312a545,545,0,0,1,7.11-61q1.49-8.57,3.26-17.07l-1.4,1.4a18.18,18.18,0,0,1,12.05.08c2.43.86,3.47-3,1.06-3.85a21.35,21.35,0,0,0-8.86-1.18,22.16,22.16,0,0,0-4,.69,5.59,5.59,0,0,0-1.95.76,3.7,3.7,0,0,0-1,2.48q-1.92,9.34-3.51,18.77-3.14,18.6-5,37.4Q272.6,301.22,272,312l2.53-1.93-25.06-4a11,11,0,0,1-2.66-.51,1.64,1.64,0,0,1-.55-.36c.06.06-.1-.34,0-.11s0-.24,0-.34c0,.17.12-.42.15-.52a10.73,10.73,0,0,1,.62-1.39c1.23-2.41,2.63-4.82,2-7.62a1.93,1.93,0,0,0-1.39-1.4l-12-2-5.85-1a15.64,15.64,0,0,1-2.65-.47c-.22-.07-.4-.19-.62-.28-.75-.33.38,0-.1.63a2,2,0,0,0-.72-2.74,2,2,0,0,0-2.74.72Z"/><path d="M239,349.52l11-24.41c.88-1.94,1.73-3.88,2.62-5.82.75-1.6,1.54-3,3.22-3.74a15.47,15.47,0,0,1,4.81-1q3.25-.29,6.53-.36A102.46,102.46,0,0,1,282,315c1.15.15,1.89-1,2-2l2.27-20.38c.17-1.53.23-3.12.54-4.63.18-.93.49-1.19,1.41-1.18,2.31,0,4.5,1,6.84.77a2.05,2.05,0,0,0,2-2,2,2,0,0,0-2-2c-2.6.26-5.09-1-7.7-.72a4.88,4.88,0,0,0-3.41,1.84c-1.11,1.43-1.16,3.24-1.35,5L280,313l2-2a104.09,104.09,0,0,0-13.78-.78q-3.39,0-6.78.32a27.12,27.12,0,0,0-5.8.88,9.5,9.5,0,0,0-4.58,2.85,23.92,23.92,0,0,0-3,5.67l-5.8,12.88-6.62,14.69a2.07,2.07,0,0,0,.72,2.74,2,2,0,0,0,2.73-.72Z"/><path d="M117.08,303.12l6.35-15.06a8.15,8.15,0,0,1,1.32-2.53c.67-.68,1.72-.44,2.57-.27,2.63.51,5.25,1.09,7.87,1.65q15.83,3.38,31.53,7.3T198,302.56a6.53,6.53,0,0,1,1.63.49c.18.13.1,0,0,.36a25.25,25.25,0,0,0-.95,2.82,10.37,10.37,0,0,0,.65,6.36,9.86,9.86,0,0,0,10,5.86,11.48,11.48,0,0,0,6.33-3,2.94,2.94,0,0,1,3-.83,16.35,16.35,0,0,1,3.53,1.81L238,325.73a2,2,0,0,0,2.94-1.19l8.86-26.31c.82-2.45-3-3.5-3.86-1.07l-8.86,26.32,2.94-1.2-14.53-8.53c-2.19-1.29-4.45-2.91-7-3.21-2.78-.33-4.35,1.28-6.42,2.79a6.06,6.06,0,0,1-9.21-2.61c-.74-2-.29-3.61.39-5.51.9-2.51.25-4.92-2.36-5.95s-5.15-1.51-7.7-2.22q-4.14-1.16-8.28-2.26-8.06-2.17-16.14-4.19Q152.45,286.51,136,283c-3-.65-6.09-1.49-9.16-1.84a5.89,5.89,0,0,0-6.25,3.45c-1.33,2.68-2.37,5.56-3.54,8.32l-3.85,9.13a2,2,0,0,0,1.4,2.46,2.06,2.06,0,0,0,2.46-1.4Z"/><path d="M130.59,148.72c-3.2-.2-6.87-.41-9.17-3-2.54-2.82-.7-5.87,1.21-8.41.61-.81-.57-1.9-1.37-1.37a1.92,1.92,0,0,1-2.28-.11,2.7,2.7,0,0,1-.79-3c.69-2.39,3.15-3.57,5.23-4.54a1,1,0,0,0,.36-1.36,5,5,0,0,1,8.25-5.49,1,1,0,0,0,1.41,0c1.23-1.46,2.78-3.06,4.78-3.35,1.73-.26,3.8.88,3.71,2.8a1,1,0,0,0,1.5.87,6,6,0,0,1,7.44,8.7,1,1,0,0,0,.36,1.37c2.64,1.24,2.81,4.66,2,7.11a12,12,0,0,1-6.25,6.79,13.32,13.32,0,0,1-4.51,1.14c-1.24.15-1.67,1.62-2.68,2.31a6.07,6.07,0,0,1-7.36-.38c-.94-.87-2.36.54-1.41,1.42a8,8,0,0,0,12.13-1.83l-.86.49a14.36,14.36,0,0,0,12-7.38c1.92-3.54,2.28-9.38-2-11.4l.36,1.37A8,8,0,0,0,142.42,120l1.51.86c.12-2.59-2.17-4.55-4.62-4.81-3-.31-5.5,1.83-7.28,4h1.41A7,7,0,0,0,122.05,128l.36-1.37c-3.13,1.44-6.77,3.85-6.34,7.82.3,2.86,3.61,5,6.2,3.31l-1.37-1.37c-2.34,3.12-4,6.8-1.35,10.28s7,3.86,11,4.1c1.29.08,1.28-1.93,0-2Z"/><path d="M102.77,139.1c-2.91,2.41-6.39,5.37-10.4,5.33-3,0-6.51-2.21-6.29-5.56a1,1,0,0,0-1.71-.7,7,7,0,0,1-9.54-.44c-2.75-2.9-2.41-7.57-.21-10.66.49-.68-.19-1.43-.86-1.5-4.32-.46-5.57-5.72-3.28-8.85,2.74-3.74,7.85-3.59,11.49-1.36a1,1,0,0,0,1.51-.86A7.28,7.28,0,0,1,98,113.11a1,1,0,0,0,1.67.44,7.06,7.06,0,0,1,10.89,8.85,1,1,0,0,0,.87,1.5c2.86.16,4,3.86,3.23,6.21-1,3.35-4.58,5.32-7.41,6.95a1,1,0,0,0-.46,1.13c.78,2.9.27,6.48-2.3,8.36-2,1.48-5.73.77-5.68-2.21a1,1,0,0,0-2,0c-.06,3.93,4.46,6,7.75,4.49,4.11-1.91,5.25-7.15,4.15-11.17l-.45,1.13c3.57-2.06,8-4.77,8.56-9.28.43-3.47-1.61-7.41-5.39-7.61l.86,1.51a9.06,9.06,0,0,0-14-11.28l1.67.44a9.28,9.28,0,0,0-18.41,1.93l1.5-.86c-4.79-2.94-11.55-2.54-14.61,2.67-2.68,4.55,0,10.69,5.39,11.26l-.86-1.51c-2.78,3.89-2.85,9.88.75,13.31a9,9,0,0,0,12.14.21l-1.71-.71c-.26,4.11,3.58,7,7.34,7.5,4.93.58,9.22-2.92,12.76-5.86,1-.82-.43-2.23-1.41-1.41Z"/><path d="M100.5,65.2c-.73.69-3.55.9-4-.18-.71-1.56,1.84-2.59,2.84-3a1,1,0,0,0-.26-2c-.49,0-.43-.81-.27-1.11.33-.62,1.27-.89,1.89-1.08,1-.31,4-1.24,4,.7a1,1,0,0,0,1.86.5,4.15,4.15,0,0,1,7.67,2c0,.58.63,1.23,1.27,1,1.78-.74,4.23-1,5.63.63a2.83,2.83,0,0,1-.56,4.41c-3,1.93-8.82,3.32-11.06-.38a1,1,0,0,0-1.86.51,2.61,2.61,0,0,1-3,2.49,2.65,2.65,0,0,1-1.78-3.23,1,1,0,0,0-1.93-.54,4.47,4.47,0,1,0,8.74,1.28l-1.87.5A7.34,7.34,0,0,0,114.51,71a15.78,15.78,0,0,0,4.91-1.2,8.39,8.39,0,0,0,3.44-2.08,4.92,4.92,0,0,0-.34-6.45c-1.91-2.1-5.12-2.18-7.58-1.15l1.26,1a6.11,6.11,0,0,0-11.4-3l1.87.51c.06-4.18-5.37-3.3-7.8-2.16a3.35,3.35,0,0,0-2.2,3.22A2.46,2.46,0,0,0,99,62.07l-.27-2c-2.28.89-5.63,3-4,6,1.22,2.26,5.49,2.12,7.16.54.94-.88-.48-2.3-1.41-1.41Z"/><path d="M83.09,71.64c-.08,3.24-2.74,5.66-5.6,6.79a7.49,7.49,0,0,1-4.65.59c-1.18-.37-2.4-2.28-.79-3l-1.47-.6c.54,2.49-2.48,4-4.51,4.15A7.7,7.7,0,0,1,60,77.3a7.45,7.45,0,0,1-1.82-6.37,7.21,7.21,0,0,1,1.29-3c.68-.88,2.33-2,3.11-.61a1,1,0,0,0,1.58.2,6.75,6.75,0,0,1,9.12-1,1,1,0,0,0,1.37-.35,6.79,6.79,0,0,1,5-2.5,7.1,7.1,0,0,1,2.75.37,18.32,18.32,0,0,1,2.52,1.52,2.53,2.53,0,0,0,2.4-.14c.62-.31,1.13-.65,1.64,0a1.92,1.92,0,0,1,0,2,4.2,4.2,0,0,1-5.32,1.93,1,1,0,0,0-1,1.73l.79.57c1,.76,2-1,1-1.72l-.79-.58-1,1.73A6.33,6.33,0,0,0,90,69.34a4.59,4.59,0,0,0,1-4.28A3.12,3.12,0,0,0,88.06,63c-.7,0-1.19.59-1.81.69s-1.73-.86-2.4-1.18A9,9,0,0,0,72.9,65.11l1.37-.36a8.71,8.71,0,0,0-11.55,1.31l1.57.21a3.3,3.3,0,0,0-3.76-1.53A5.89,5.89,0,0,0,57,68.06a9.34,9.34,0,0,0,9.71,13.47c3.22-.43,6.55-3,5.78-6.61a1,1,0,0,0-1.47-.6c-1.8.77-2.12,3.12-1.26,4.71,1.17,2.19,4,2.35,6.14,1.94,4.54-.85,9-4.43,9.17-9.33a1,1,0,0,0-2,0Z"/><path d="M212.14,305.8a53.93,53.93,0,0,1,12,2.06,55.12,55.12,0,0,1,5.7,2c1.21.51,3.15,1.83,4.1.22a6.84,6.84,0,0,0,.5-2.5l.43-3.15c.19-1.36.91-3.52-.82-4.14a7.78,7.78,0,0,0-2.41-.16l-3.25-.07-6.51-.14c-2.45-.05-4.93-.21-7.38-.15-2.24.06-2.31,2.66-2.77,4.36a1,1,0,0,0,1.93.53l.42-1.58c.09-.34.14-1.08.42-1.31s1.44,0,1.74,0l1.73,0,6.51.14,6.95.14,1.3,0a3.76,3.76,0,0,1,.67,0c-.23-.32-.32-.24-.26.24a7.82,7.82,0,0,0-.23,1.68l-.23,1.69-.22,1.68a5.72,5.72,0,0,1-.22,1.5c.42-.09.36-.19-.15-.3l-.56-.24-1.16-.5a54.9,54.9,0,0,0-6.09-2.13,56.9,56.9,0,0,0-12.16-2c-1.29-.08-1.28,1.92,0,2Z"/><path d="M235.88,319.26l1.12-4.92-1,.73L241,315a1,1,0,0,0,1-1,1,1,0,0,0-1-1l-4.95.05a1,1,0,0,0-1,.74L234,318.73a1,1,0,1,0,1.92.53Z"/><path d="M236.89,314l.58-6.22-1,1,6.6-.05a1,1,0,0,0,1-1,1,1,0,0,0-1-1l-6.6.05a1,1,0,0,0-1,1l-.58,6.22a1,1,0,0,0,1,1,1,1,0,0,0,1-1Z"/><path d="M238.31,306.92l-.49-7.05-1,1a27.85,27.85,0,0,0,8.57-1,1,1,0,0,0-.53-1.93,26,26,0,0,1-8,.95,1,1,0,0,0-1,1l.49,7.05a1,1,0,0,0,1,1,1,1,0,0,0,1-1Z"/><path d="M238.21,299.26l-1.34-2.89a1,1,0,0,0-1.37-.36,1,1,0,0,0-.46.6,1.15,1.15,0,0,0,.1.77l1.34,2.88a1,1,0,0,0,1.37.36,1,1,0,0,0,.46-.59,1.14,1.14,0,0,0-.1-.77Z"/><path d="M178,281.12a.92.92,0,0,1-.35.06h-.22c-.18,0,.11,0-.07,0a1.93,1.93,0,0,1-.8-.37,2.31,2.31,0,0,1-.86-1.44,4.8,4.8,0,0,1,1.13-3.81,1.8,1.8,0,0,1,1.57-.7,3.46,3.46,0,0,1,1.75.74,3.42,3.42,0,0,1,1.45,3.06,3,3,0,0,1-.79,1.54,2.25,2.25,0,0,1-1.63.72,1,1,0,0,0,0,2,4.62,4.62,0,0,0,4.28-3.43,5.23,5.23,0,0,0-1.73-5.17c-1.64-1.43-4.05-2.06-5.87-.58a6.63,6.63,0,0,0-2.17,5.63,4.41,4.41,0,0,0,1.72,3.07,3.63,3.63,0,0,0,3.12.63,1,1,0,0,0-.53-1.93Z"/><path d="M179.93,281.32a5.59,5.59,0,0,0-4.26,1.17c-1.21,1-2,2.3-3.6,2.65a9.7,9.7,0,0,1-4.62-.47,11.62,11.62,0,0,1-4.24-2,5.23,5.23,0,0,1-2.06-3.87c0-.32,0-.85.24-1.09s.81-.16,1-.2l2.82-.52,11.12-2.05c1.27-.24.73-2.17-.53-1.93l-10.17,1.88a36.82,36.82,0,0,0-4.94.94c-1.27.41-1.58,1.77-1.58,3,0,2.79,1.95,5.12,4.28,6.42a15.15,15.15,0,0,0,8,2,6.39,6.39,0,0,0,4.1-1.8,9.43,9.43,0,0,1,1.86-1.71,3.92,3.92,0,0,1,2.52-.4c1.27.16,1.26-1.84,0-2Z"/><path d="M158.73,288.43c-3.14-1.66-6.83-3.58-8.32-7-1.81-4.21.46-9.08,1.7-13.13a189.3,189.3,0,0,0,6.22-27.73,1,1,0,0,0-1-1.26l-9.42-1.16c-1.27-.15-1.26,1.85,0,2l9.42,1.16-1-1.27a191.61,191.61,0,0,1-6.94,30c-1.34,4.2-2.73,8.87-.46,13,1.86,3.37,5.43,5.36,8.72,7.09,1.13.6,2.15-1.12,1-1.72Z"/><path d="M188.55,273.65c-1.11-1-2.41-1.13-3.77-1.6-1.9-.66-1.78-2.53-1.62-4.22.4-4.18,1-8.34,1.73-12.48a189.77,189.77,0,0,1,5.83-24.08l-1.23.7,7.47,1.94a1,1,0,0,0,.53-1.93L190,230a1,1,0,0,0-1.23.7,190.91,190.91,0,0,0-6.15,26q-.51,3.19-.93,6.4a46.19,46.19,0,0,0-.64,6.21,4.69,4.69,0,0,0,1.76,4c1.29.89,3.15.72,4.31,1.76,1,.85,2.38-.56,1.41-1.42Z"/><path d="M263.86,311.21a45.63,45.63,0,0,1-8.66-13.08l-.86,1.5a9.65,9.65,0,0,0,3.15-.54c1.16-.41,2-1.18,3.2-.48a23.45,23.45,0,0,1,2.27,1.73c.89.68,1.79,1.34,2.7,2A85.52,85.52,0,0,0,276.83,309c1.15.57,2.16-1.15,1-1.72A84.63,84.63,0,0,1,266,300.11c-1-.68-1.89-1.39-2.81-2.11a8.54,8.54,0,0,0-2.4-1.56,3.5,3.5,0,0,0-2.76.25,9.07,9.07,0,0,1-3.68.94,1,1,0,0,0-.87,1.5,47.4,47.4,0,0,0,9,13.5c.89.94,2.3-.48,1.42-1.42Z"/><path d="M261.5,297.94a8,8,0,0,1-.08-4.24c.22-1.45.45-2.91.68-4.36q.73-4.6,1.54-9.2,1.59-9.08,3.47-18.08a1,1,0,0,0-1-1.27,62.63,62.63,0,0,0-7,.47c-1.92.35-1.55,2.56-1.67,4.09q-.58,7.17-1.5,14.31c-.61,4.75-1.35,9.48-2.19,14.2-.21,1.2-.47,2.39-.66,3.6a1.93,1.93,0,0,0,.41,1.83,1.29,1.29,0,0,0,2-1.58c-.55-1.16-2.28-.15-1.72,1l.07.16v-1l.06-.1.77-.1-.2-.05.6.46c-.23-.34.27-1.81.35-2.25.16-.88.32-1.76.47-2.64q.46-2.64.88-5.3.81-5.19,1.44-10.41t1.11-10.67c.07-.82.13-1.63.2-2.44a7.66,7.66,0,0,1,.11-1.46c-.2.17.87.24.95.24l5.52-.36-1-1.27q-2,9.5-3.64,19.05c-.55,3.15-1.07,6.29-1.56,9.45-.41,2.62-1.43,5.87-.41,8.45.47,1.18,2.41.66,1.93-.53Z"/><path d="M265,264.22a211.88,211.88,0,0,0,16.39-27.49c.58-1.15-1.15-2.17-1.72-1a214.15,214.15,0,0,1-16.39,27.49c-.75,1.06,1,2.06,1.72,1Z"/><path d="M283.33,239.07c-1.64-2.63-6.6-9.2-1-10.57a16.61,16.61,0,0,1,5.92.14l8,1c1.28.16,1.27-1.84,0-2l-9.13-1.14c-2.18-.27-4.53-.43-6.58.52a5,5,0,0,0-2.69,5.66c.49,2.71,2.38,5.12,3.8,7.4.68,1.09,2.41.09,1.73-1Z"/><path d="M46.9,191.08c3-.07,6.56-.41,8.15-3.38a4.35,4.35,0,0,0,.11-4,5.37,5.37,0,0,0-2.57-2.34,13.51,13.51,0,0,0-3.93-1.13,1,1,0,0,0-1.23.7,1,1,0,0,0,.69,1.23,14.93,14.93,0,0,1,3,.71,4.65,4.65,0,0,1,2.11,1.4c-.08-.1.06.1.08.13a1.82,1.82,0,0,1,.15.27c.08.14,0,0,.06.14a2.42,2.42,0,0,1,.1.36,2.19,2.19,0,0,1-.14,1.29,3.87,3.87,0,0,1-2.13,2,12.13,12.13,0,0,1-4.4.62,1,1,0,0,0,0,2Z"/><path d="M46.17,190.25c1.74-1.33,3.8-2.92,4.17-5.24.34-2-.53-4.33-2.64-4.94a1,1,0,0,0-.53,1.93,1.3,1.3,0,0,1,.61.35l.17.18c-.11-.12.07.12.08.12l.12.22s.1.21.05.09a3.51,3.51,0,0,1,.15.49,1.55,1.55,0,0,1,.06.31c0-.14,0,0,0,.09a4.69,4.69,0,0,1,0,.53c0,.05,0,.24,0,.1,0,.1,0,.21-.07.31-.39,1.62-1.93,2.77-3.19,3.73a1.05,1.05,0,0,0-.36,1.37,1,1,0,0,0,1.37.36Z"/><path d="M52.35,175c3.06-.28,6.57-.72,8.38-3.53a5.44,5.44,0,0,0,.81-4,4.2,4.2,0,0,0-2.8-3,9.76,9.76,0,0,0-4.92,0,1,1,0,0,0,.53,1.93,9,9,0,0,1,3.18-.16,2.78,2.78,0,0,1,1.35.56,2,2,0,0,1,.67,1,2.72,2.72,0,0,1,.06,1.2,3.86,3.86,0,0,1-.51,1.35,4.61,4.61,0,0,1-2.48,1.91,16.67,16.67,0,0,1-4.27.78,1,1,0,0,0-1,1,1,1,0,0,0,1,1Z"/><path d="M51.9,175.64c1.75-1.46,3.73-3.18,4.13-5.55a4.69,4.69,0,0,0-2.57-5.33,1,1,0,0,0-.54,1.93A2.13,2.13,0,0,1,54,168a3.46,3.46,0,0,1,0,2c-.5,1.79-2.15,3.07-3.52,4.21a1,1,0,0,0,0,1.41,1,1,0,0,0,1.42,0Z"/><path d="M53.94,160.23c2.87-.42,6-1.09,7.62-3.72a4.89,4.89,0,0,0,.64-4A4,4,0,0,0,59.7,150a3.36,3.36,0,0,0-3.64.77,1,1,0,1,0,1.41,1.41,2.28,2.28,0,0,1,.22-.22c.09-.07,0,0,0,0l.11-.07c.07,0,.27-.11.1-.06l.32-.08c-.17,0,0,0,.08,0h.43l.3.08s.3.12.14.05l.28.14.23.15c.13.08-.11-.1,0,0l.14.12.22.23c.12.13,0-.07.06.08s.1.18.16.27,0,0,0,0a1.87,1.87,0,0,1,.07.22,1.56,1.56,0,0,1,.09.57c0,.11,0,.22,0,.33s0,.11,0,.06a1.7,1.7,0,0,1,0,.22,3.4,3.4,0,0,1-.57,1.31,5,5,0,0,1-2.29,1.77,17.18,17.18,0,0,1-4.07.93,1,1,0,0,0-.7,1.23,1,1,0,0,0,1.23.7Z"/><path d="M54,160.92a9.82,9.82,0,0,0,3.31-6.55,4.72,4.72,0,0,0-1.16-3.62,3.37,3.37,0,0,0-3.39-.95c-1.22.39-.7,2.32.53,1.93a1.46,1.46,0,0,1,1.59.59,3.41,3.41,0,0,1,.36,2.58,8.09,8.09,0,0,1-2.66,4.61A1,1,0,0,0,54,160.92Z"/><path d="M43,205.81c3,.43,6.59.53,9.18-1.4a5,5,0,0,0,2.3-4.51c-.26-1.78-1.91-2.72-3.49-3.16a22.68,22.68,0,0,0-6.91-.76c-1.28.05-1.29,2.05,0,2a22,22,0,0,1,5.06.38c1,.21,2.77.44,3.28,1.52s-.54,2.25-1.31,2.85A6.93,6.93,0,0,1,47.86,204a15.49,15.49,0,0,1-4.3-.09,1,1,0,0,0-1.23.7,1,1,0,0,0,.7,1.23Z"/><path d="M42.46,205a4.93,4.93,0,0,0,5.25-3.77,5,5,0,0,0-3.32-5.62,1,1,0,1,0-.53,1.93,3,3,0,0,1,1.9,3.25,2.77,2.77,0,0,1-1.17,1.7,2.85,2.85,0,0,1-1,.46l-.3.06c-.22,0,.06,0-.14,0a4.29,4.29,0,0,1-.72,0,1,1,0,0,0,0,2Z"/><path d="M25.46,277q3.46-15.48,8.3-30.6c.4-1.22.79-2.44,1.2-3.66.34-1,.57-2.52,1.28-3.36s2-.07,2.87-.27a3.57,3.57,0,0,0,2-1.42c1.17-1.6,1.38-3.74,1.76-5.63l1.62-8.15c.29-1.44.57-2.87.86-4.31a9.08,9.08,0,0,0,.29-3.36,3,3,0,0,0-4.2-2.39l1.51.86,1.08-9.27c.15-1.28-1.85-1.27-2,0L41,214.67c-.1.81.9,1.18,1.5.87,1.21-.63,1.29,1.62,1.21,2.23-.17,1.22-.48,2.44-.72,3.65l-1.38,7c-.43,2.14-.72,4.37-1.33,6.46a3.89,3.89,0,0,1-1.1,2c-.85.62-2-.08-3,.18-1.58.41-2.1,2.16-2.56,3.52-.75,2.2-1.47,4.4-2.17,6.62q-2.14,6.77-4,13.6-2.12,7.77-3.87,15.63c-.28,1.26,1.64,1.79,1.93.53Z"/><path d="M47.55,196.42l1.84-7.06a1,1,0,0,0-1.93-.54l-1.84,7.06a1,1,0,0,0,1.93.54Z"/><path d="M52.62,181.53a18.53,18.53,0,0,1,.88-6.4,1,1,0,0,0-1.93-.53,20.6,20.6,0,0,0-1,6.93,1,1,0,0,0,2,0Z"/><path d="M55.32,164.84a35.74,35.74,0,0,1-.16-5.76h-2l0,1.13a1,1,0,0,0,2,0l0-1.13a1,1,0,0,0-2,0,35.74,35.74,0,0,0,.16,5.76,1,1,0,0,0,2,0Z"/><path d="M67.43,184.06l-2.13-.59c-.51-.15-1.79-.25-2.14-.6s-.12-1.28,0-1.87l.34-2.21,1.4-8.85,2.75-17.44c.2-1.25-1.72-1.8-1.93-.53l-3.21,20.39c-.52,3.27-1.17,6.55-1.55,9.84a2.12,2.12,0,0,0,1.15,2.41A31.53,31.53,0,0,0,66.9,186a1,1,0,0,0,.53-1.93Z"/><path d="M53.05,227.93c-.33-3.31.53-6.48,1.31-9.66s1.5-6.43,2.15-9.66q1.89-9.5,3-19.11l-1,1a6.74,6.74,0,0,1,5.81,2.17c.87.94,2.28-.47,1.41-1.42a8.61,8.61,0,0,0-7.22-2.75,1,1,0,0,0-1,1q-1.16,9.83-3.13,19.52-1,4.74-2.13,9.42c-.77,3.11-1.53,6.26-1.21,9.49.13,1.27,2.13,1.28,2,0Z"/><path d="M76.3,167.83c-.26-1.38,3.69-1.53,4.39-1.61,2.28-.26,4.56-.46,6.84-.62,4.41-.31,8.83-.44,13.24-.44,9,0,17.88.54,26.79,1.28,5.08.42,10.14.9,15.21,1.39,1.28.12,1.27-1.88,0-2-19.55-1.87-39.27-3.76-58.91-1.94-2.29.22-5,.18-7.14,1-1.52.6-2.67,1.73-2.35,3.45.24,1.27,2.16.73,1.93-.53Z"/><path d="M37.83,101.69q12.35.33,24.7.11a1,1,0,0,0,1-1.27L61,88.1c-.34-1.67-.44-3.68-1.25-5.21s-2.08-1.79-3.54-2a79.91,79.91,0,0,0-12.56-.72c-2.09,0-4.19.18-6.27.4-1.32.13-3.12.09-3.53,1.65a1,1,0,0,0,1.93.54,12.07,12.07,0,0,1,2.32-.26c.88-.09,1.77-.15,2.65-.21,1.61-.09,3.23-.14,4.84-.14A71.41,71.41,0,0,1,56,82.87a2.4,2.4,0,0,1,1.92.89,6.26,6.26,0,0,1,.56,2q.49,2.51,1,5l2,10.27,1-1.26q-12.35.23-24.7-.11c-1.28,0-1.28,2,0,2Z"/><path d="M38.69,120.65a125.77,125.77,0,0,0,12.58.88c1.45,0,3.66.43,4.87-.58A5.28,5.28,0,0,0,57.32,119c.44-1,.87-1.91,1.28-2.88a111.91,111.91,0,0,0,4-10.8c.46-1.46,1.43-3.47.67-5a2.11,2.11,0,0,0-3.05-.88c-1,.76,0,2.5,1,1.72.45-.34,0,1.69,0,1.87q-.32,1.08-.66,2.16-.64,2-1.38,4-1.52,4.23-3.39,8.31c-.28.61-.47,1.4-1,1.76a4.93,4.93,0,0,1-2.3.19c-1.48,0-3-.05-4.44-.11-3.12-.14-6.22-.41-9.31-.78-1.28-.15-1.27,1.85,0,2Z"/><path d="M38.89,39l-2.66-1.09.7.7-1.67-7.47a10.76,10.76,0,0,1-.39-1.75c0-.24-.08-.28.05-.42a3.35,3.35,0,0,1,.92-.22c1.25-.29,2.49-.56,3.75-.82q7.59-1.57,15.31-2.38l-1-1a29.3,29.3,0,0,0,2.49,10c.53,1.17,2.25.16,1.73-1a26.5,26.5,0,0,1-2.22-9,1,1,0,0,0-1-1A126.17,126.17,0,0,0,34.65,27a2.12,2.12,0,0,0-1.83,2,22.69,22.69,0,0,0,1,4.86c.36,1.61.68,3.23,1.08,4.83.36,1.45,2.2,1.71,3.46,2.23s1.7-1.45.53-1.93Z"/><path d="M56.88,23.81,58.46,32a1,1,0,0,0,1,.73A170.54,170.54,0,0,0,86.36,29.8q6.77-1.29,13.42-3.14,3.31-.91,6.6-2c1.39-.45,3.75-.74,3.93-2.56a12.24,12.24,0,0,0-.67-3.62,6.88,6.88,0,0,0-1-2.87,2,2,0,0,0-3.43.56c-.32,1.25,1.61,1.79,1.92.54-.09.37.3,1.21.39,1.6.14.62.27,1.24.41,1.86.08.36.4,1.07.3,1.39-.19.66-.93.69-1.52.88q-3.16,1-6.36,1.95Q93.76,26.3,87,27.64a167,167,0,0,1-27.57,3.11l1,.74-1.58-8.21c-.24-1.26-2.17-.73-1.93.53Z"/><path d="M58.31,23.59q24.72-1.93,49.2-6.1c1.27-.21.73-2.14-.53-1.93q-24.2,4.11-48.67,6c-1.27.1-1.28,2.11,0,2Z"/><path d="M124.49,52.88a77.49,77.49,0,0,1,11.6-5.52c2-.74,4-1.4,6-2,1.79-.51,3.08-1,3-3.1-.18-4.53-.89-9.12-1.41-13.63s-1.07-8.92-1.68-13.37c-.11-.84-1.16-.83-1.67-.44a3.06,3.06,0,0,0-1,3.49c.44,1.2,2.38.68,1.93-.53a1.21,1.21,0,0,1,.47-1.55l-1.68-.44q1.71,12.6,2.91,25.25a6.35,6.35,0,0,1,.13,1.43c-.12.66-.52.67-1.11.84-.87.25-1.74.5-2.6.77-1.87.59-3.71,1.26-5.53,2a80.44,80.44,0,0,0-10.39,5.07,1,1,0,0,0,1,1.72Z"/><path d="M122.43,51.64c-.25,1.87.06,4.28,2.32,4.61,1.38.21,2.8-.53,4.08-1s2.85-.9,4.28-1.31a115.59,115.59,0,0,1,18-3.63,1,1,0,0,0,1-1L151,30l-.26-4.67c0-.92,0-2.2-1.07-2.55s-2.74.62-3.72.94l-4.66,1.51c-1.22.39-.7,2.32.53,1.92l4-1.28,1.86-.6a6,6,0,0,1,1.76-.53l-.7-.29c0-.26,0-.13,0,.39l0,.74.1,1.72.16,2.94.35,6.38.7,12.77,1-1a120.59,120.59,0,0,0-14.86,2.72q-3.66.93-7.25,2.08c-1.06.34-2.43,1.1-3.54,1.1-1.41,0-1.14-1.62-1-2.62.17-1.27-1.83-1.26-2,0Z"/><path d="M150.81,103a7.85,7.85,0,0,1-11.76-10.24c.58-.89-.53-1.8-1.36-1.37-3.11,1.6-7.27-.4-8.34-3.65-1.21-3.67,1.45-7.7,4.91-8.91a1,1,0,0,0-.53-1.93c-4.08.69-7.46-4.08-6.43-7.82,1.13-4.07,5.7-6.11,9.63-5.66,1.09.12,1.22-1.36.51-1.86-1.46-1-.49-3.11.51-4.05a12.6,12.6,0,0,1,4.89-2.71c2.26-.6,3.64,1,5,2.52s2.64,3.07,3.85,4.7c.76,1,2.49,0,1.73-1a46.4,46.4,0,0,0-5.64-6.63,5.9,5.9,0,0,0-7-.94c-2.09,1-4.59,2.26-5.62,4.45a4.27,4.27,0,0,0,1.23,5.39l.5-1.86c-5.11-.59-11,2.69-11.75,8.1-.71,5.09,3.9,10.18,9.08,9.31l-.53-1.93c-4.56,1.6-8,6.85-6.21,11.67,1.6,4.35,7,6.69,11.18,4.55l-1.37-1.37a9.84,9.84,0,0,0,14.89,12.66c1-.85-.45-2.26-1.41-1.41Z"/><path d="M145.09,96.51c-.56.52-1.48.09-1.91-.4-.79-.89-.65-2.35-.5-3.44a75,75,0,0,1,1.55-8.44c.19-.77-.73-1.69-1.47-1.13a5,5,0,0,1-7-1.17c-.68-1.08-2.42-.08-1.72,1a7,7,0,0,0,9.77,1.88l-1.47-1.13c-.45,1.84-.8,3.71-1.11,5.58a22,22,0,0,0-.58,5.41,4.37,4.37,0,0,0,2.17,3.61,3.18,3.18,0,0,0,3.73-.36c.94-.88-.47-2.29-1.42-1.42Z"/><path d="M103.65,64l10.47,2.6c1.25.31,1.79-1.62.54-1.93l-10.48-2.6a1,1,0,0,0-.53,1.93Z"/><path d="M143.09,140.89c1.56-2,3.31-4.42,2.75-7.12-.47-2.22-2.79-4.25-5.12-3.44l1.12,1.47a4.54,4.54,0,0,0-5.2-6.39c-1.25.27-.72,2.2.53,1.93a2.57,2.57,0,0,1,3,3.45c-.31.72.21,1.79,1.13,1.47,1.41-.49,2.62,1.05,2.69,2.35.1,1.82-1.21,3.51-2.26,4.87a1,1,0,0,0,0,1.41,1,1,0,0,0,1.41,0Z"/><path d="M77,134a8.28,8.28,0,0,0,9.65-1.5L85,132c.91,2.8,2.89,5.58,5.9,6.32a6,6,0,0,0,6.86-2.87c.57-1.15-1.16-2.16-1.73-1a4,4,0,0,1-4.84,1.88c-2.19-.66-3.59-2.78-4.26-4.85a1,1,0,0,0-1.68-.44A6.22,6.22,0,0,1,78,132.25c-1.14-.59-2.16,1.14-1,1.73Z"/><path d="M88.47,117.64a4.45,4.45,0,0,1,7.68,3.27,1,1,0,0,0,1,1,4.68,4.68,0,0,0,2.1-.73c.56-.33,1.13-.75,1.79-.51,1.72.62,1.44,3.08,1.32,4.48a1,1,0,0,0,.74,1,1.42,1.42,0,0,0,1.78-1.43c0-1.28-2-1.29-2,0l.75-.5.73,1c.18-2.2.1-4.65-1.93-6a3.24,3.24,0,0,0-2.77-.41c-.84.28-1.62,1.11-2.51,1.17l1,1a6.45,6.45,0,0,0-11.09-4.68,1,1,0,0,0,1.41,1.41Z"/><path d="M74.5,168.31a2.7,2.7,0,0,0-.06.41.91.91,0,0,0,0,.17,2.13,2.13,0,0,0,.11.57,3.17,3.17,0,0,0,.16.37,2.8,2.8,0,0,0,.24.33,2,2,0,0,0,.44.38,1,1,0,0,0,.5.14,1,1,0,0,0,.51-.14,1,1,0,0,0,.49-.86l0-1.11a1,1,0,0,0-.3-.7.69.69,0,0,0-.32-.21.82.82,0,0,0-.38-.09l-.27,0a1,1,0,0,0-.44.26,1,1,0,0,0-.29.7l0,1.11,1.51-.87,0,0,.2.16a1.14,1.14,0,0,1-.19-.19l.15.2a1.23,1.23,0,0,1-.14-.25l.1.24a1.29,1.29,0,0,1-.08-.28l0,.26a1.31,1.31,0,0,1,0-.28l0,.26a.13.13,0,0,0,0-.06.68.68,0,0,0,0-.4.63.63,0,0,0-.12-.37.68.68,0,0,0-.25-.28.75.75,0,0,0-.34-.18l-.27,0a1,1,0,0,0-1,.74Z"/><path d="M72.57,113q.3-17.81.81-35.62l-.93.26.66,1.23c.31.56,1.17.06.87-.51l-.66-1.23a.51.51,0,0,0-.94.25q-.51,17.81-.81,35.62a.5.5,0,0,0,1,0Z"/><path d="M80.22,110.46,81.6,78.3c0-.65-1-.64-1,0l-1.38,32.16c0,.64,1,.64,1,0Z"/><path d="M85.91,71.79q20.27.64,40.54.26a.5.5,0,0,0,0-1q-20.26.38-40.54-.26a.5.5,0,0,0,0,1Z"/><path d="M88.14,65a33.14,33.14,0,0,1,11-.08c.63.11.9-.86.26-1a34.13,34.13,0,0,0-11.54.08c-.64.11-.37,1.08.26,1Z"/><path d="M122.4,64.54a37.77,37.77,0,0,1,8.23-.37c.64,0,.64-1,0-1a38.91,38.91,0,0,0-8.49.4c-.64.1-.37,1.07.26,1Z"/><path d="M69.71,147.39a106.07,106.07,0,0,0,.72-21.45c0-.63-1-.64-1,0a105,105,0,0,1-.69,21.19c-.08.63.88.9,1,.26Z"/><path d="M80.13,148a27.24,27.24,0,0,1,.35-9.27c.14-.63-.83-.9-1-.27a28.81,28.81,0,0,0-.36,9.8c.09.64,1,.37,1-.26Z"/><path d="M74.94,197.09c.66-3.55,1.38-7.09,2.19-10.6.19-.86.4-1.72.6-2.58a9.5,9.5,0,0,1,.67-2.68c.66-1,1.71-.79,2.72-.81l3-.06,22.22-.47-.48-.64-2.91,11.85a48.82,48.82,0,0,1-1.49,5.15,16.73,16.73,0,0,1-1.19,2.67,3.38,3.38,0,0,1-3,1.8,83.15,83.15,0,0,1-24-1.13l.35.62,1.06-4.68c.15-.63-.82-.89-1-.27l-1.07,4.68a.52.52,0,0,0,.35.62A93.57,93.57,0,0,0,86,202c2.24.08,4.49.08,6.73,0a26.35,26.35,0,0,0,5.89-.5c1.62-.46,2.38-1.79,3-3.23a33.45,33.45,0,0,0,1.89-5.62c1.12-4.37,2.16-8.76,3.23-13.14a.5.5,0,0,0-.48-.63l-24.69.52c-1.15,0-2.93-.3-3.77.71a4.53,4.53,0,0,0-.68,1.89c-.25,1-.5,2-.74,3Q75.07,190.9,74,196.82c-.12.63.85.9,1,.27Z"/><path d="M105.11,203.54a14.62,14.62,0,0,0,6.53,1.68c2.8.22,5.61.38,8.41.57a9.19,9.19,0,0,1,3.21.6c1.4.63,1.36,1.6.91,2.89-.6,1.72-.1,2.76,1.8,2.83,5.75.18,11.53,0,17.28-.28.8,0,2,.1,2.65-.42s.58-1.63.48-2.45c-.34-2.78-.57-5.57-.64-8.37a84.76,84.76,0,0,1,1.79-19.65.51.51,0,0,0-.61-.62,129.82,129.82,0,0,1-34.66,1,.51.51,0,0,0-.5.5,48.93,48.93,0,0,1-5,22.92l.79-.11a1.79,1.79,0,0,1,.74-3,.5.5,0,0,0-.26-1,2.82,2.82,0,0,0-1.19,4.63.5.5,0,0,0,.78-.1,50,50,0,0,0,5.15-23.42l-.5.5a130.91,130.91,0,0,0,34.92-1l-.61-.62A86.37,86.37,0,0,0,144.74,196q-.12,4.08.17,8.15c.09,1.28.2,2.55.35,3.82.07.59.19,1.19.21,1.78,0,1-.94,1-1.73,1q-8.15.48-16.31.34c-.8,0-1.52.13-2.12-.44s-.34-.69-.12-1.31a3.3,3.3,0,0,0,.2-2.33c-.53-1.35-2.18-1.88-3.48-2.09-2.62-.44-5.38-.41-8-.59-2.81-.19-5.77-.23-8.27-1.71a.5.5,0,0,0-.5.87Z"/><path d="M117.26,196.63l1.21.08-.48-.37.29,1.92a.51.51,0,0,0,1,0l.39-2.38h-1L119,198c.05.39.59.46.83.22a9.45,9.45,0,0,1,3.37-2.16.52.52,0,0,0,.35-.61.5.5,0,0,0-.62-.35,10.61,10.61,0,0,0-3.8,2.41l.83.23-.31-2.13a.5.5,0,0,0-1,0l-.4,2.37h1l-.29-1.91a.5.5,0,0,0-.49-.37l-1.21-.08c-.64,0-.64,1,0,1Z"/><path d="M127.34,190.11a19.71,19.71,0,0,0,2.53,3.68.5.5,0,0,0,.85-.36l0-3.44-1,.13.58,3.62a.51.51,0,0,0,.92.11c.36-.66,1.31-2.13,2.25-1.6a.5.5,0,0,0,.5-.86c-1.52-.87-3,.75-3.62,2l.92.12-.59-3.61c-.09-.57-1-.42-1,.13l0,3.44.85-.35a18.42,18.42,0,0,1-2.37-3.48c-.3-.57-1.16-.06-.86.51Z"/><path d="M133.42,203.47a9.29,9.29,0,0,1,3.26,3,.51.51,0,0,0,.92-.39,6,6,0,0,1-.07-3h-1a8.8,8.8,0,0,1,.34,2.75c0,.54.66.63.93.26l2.6-3.58a.5.5,0,0,0-.87-.51L137,205.58l.93.25a9.35,9.35,0,0,0-.38-3,.5.5,0,0,0-1,0,7.19,7.19,0,0,0,.06,3.51l.92-.39a10.51,10.51,0,0,0-3.63-3.32c-.56-.31-1.07.55-.5.86Z"/><path d="M91.63,195.8a4.9,4.9,0,0,1,2.16,1.74.5.5,0,0,0,.91-.39l-.27-1.75-.91.38a1.53,1.53,0,0,1,.3,1.15.49.49,0,0,0,.3.46.51.51,0,0,0,.55-.11l2.43-2.05a.5.5,0,0,0,0-.71.51.51,0,0,0-.7,0L94,196.58l.86.35a2.31,2.31,0,0,0-.44-1.65.5.5,0,0,0-.91.39l.27,1.75.91-.39a6.12,6.12,0,0,0-2.75-2.2.5.5,0,1,0-.27,1Z"/><path d="M81.15,193,83,195.13a.5.5,0,0,0,.85-.35,7.63,7.63,0,0,1,.37-3l-1-.13a6.2,6.2,0,0,0,.45,2.89.51.51,0,0,0,.84.22,8.81,8.81,0,0,1,2.87-2,.5.5,0,1,0-.51-.87,9.82,9.82,0,0,0-3.07,2.16l.84.22a5.63,5.63,0,0,1-.42-2.63c0-.59-.81-.64-1-.13a8.37,8.37,0,0,0-.41,3.26l.86-.36-1.85-2.12c-.42-.49-1.12.22-.7.7Z"/><path d="M90.74,185l3.19,3a.5.5,0,0,0,.85-.35l.08-2.28-.93.26.85,1.57a.49.49,0,0,0,.68.18,7.1,7.1,0,0,0,2.88-3.18.51.51,0,0,0-.18-.68.49.49,0,0,0-.68.18A6.23,6.23,0,0,1,95,186.55l.69.18-.85-1.58a.5.5,0,0,0-.93.25l-.08,2.28.86-.36-3.19-3c-.47-.44-1.18.27-.71.71Z"/><path d="M90.28,98.46c.65,1,1.29,2,1.91,3,.24.39,1,.27.93-.25A6.1,6.1,0,0,1,93.61,98l-.91-.12a16.6,16.6,0,0,1,.38,3.29.51.51,0,0,0,.86.35,23,23,0,0,1,4.53-2.8c.58-.28.07-1.14-.51-.87a24.37,24.37,0,0,0-4.73,3l.85.36a18.31,18.31,0,0,0-.41-3.55.51.51,0,0,0-.92-.12,7.06,7.06,0,0,0-.63,3.71l.93-.26c-.62-1-1.25-2-1.91-3-.36-.53-1.23,0-.86.51Z"/><path d="M108.53,84.51a21.69,21.69,0,0,1,4.15,4.76c.24.38,1,.27.93-.25a8.5,8.5,0,0,1,.76-4.74l-.93-.25a10.63,10.63,0,0,0,0,2.76,10.11,10.11,0,0,0,.27,1.33c.13.45.21.81.73.85a1.82,1.82,0,0,0,1.59-1,4.16,4.16,0,0,1,.59-.85c.11-.09.48-.38.59-.21.34.54,1.2,0,.86-.5-.48-.77-1.39-.6-2-.11a3.23,3.23,0,0,0-.76,1c-.16.26-.46.82-.83.73l.34.35a10.4,10.4,0,0,1-.42-4.29.5.5,0,0,0-.93-.25,9.38,9.38,0,0,0-.9,5.24l.93-.26a22.87,22.87,0,0,0-4.3-5c-.49-.42-1.2.29-.71.71Z"/><path d="M113.24,101.71a6.94,6.94,0,0,1,2.76,2.18.5.5,0,0,0,.93-.25,6.46,6.46,0,0,1,.66-2.74l-.92-.12.68,3.2a.5.5,0,0,0,.83.22l2.5-2.82c.42-.48-.28-1.19-.71-.7l-2.49,2.81.83.22-.67-3.2a.51.51,0,0,0-.92-.12,7.63,7.63,0,0,0-.79,3.25l.93-.26a7.91,7.91,0,0,0-3.11-2.53.5.5,0,1,0-.51.86Z"/><path d="M123.73,112.49a10.82,10.82,0,0,1,3.55,2.82c.29.35.84,0,.85-.36l.1-2.68-.93.26,1.2,2.65a.51.51,0,0,0,.87,0,2.5,2.5,0,0,1,2.09-1.44c.64,0,.65-1,0-1a3.51,3.51,0,0,0-3,1.93h.87L128.16,112c-.21-.48-.91-.2-.93.25l-.1,2.68.86-.35a11.64,11.64,0,0,0-3.75-3c-.57-.29-1.08.57-.51.86Z"/><path d="M141.63,112l3.33,2.84a.5.5,0,0,0,.83-.49,1.76,1.76,0,0,1,.37-1.66l-.84-.22.59,2.44a.51.51,0,0,0,.84.22l1.84-1.75c.46-.45-.25-1.15-.71-.71L146,114.43l.84.22-.59-2.43a.51.51,0,0,0-.84-.23,2.79,2.79,0,0,0-.62,2.64l.83-.49-3.33-2.84c-.48-.41-1.19.29-.7.71Z"/><path d="M90.71,80.16l3.2,2.94a.5.5,0,0,0,.83-.23l1.35-3.48h-1l.64,3.54a.51.51,0,0,0,.84.22,7.17,7.17,0,0,1,3.14-2.08c.61-.2.35-1.17-.26-1a8.12,8.12,0,0,0-3.59,2.33l.84.22-.65-3.54c-.1-.53-.81-.41-1,0l-1.35,3.49.83-.22-3.2-2.93c-.47-.44-1.18.27-.7.7Z"/><path d="M110.63,138.83a6.69,6.69,0,0,1,2.29,3.42.5.5,0,0,0,1-.14,15.07,15.07,0,0,1,.5-3.71l-1-.13.11,3.88c0,.45.72.73.93.25a5.34,5.34,0,0,1,2.47-2.6c.58-.29.07-1.15-.5-.86a6.16,6.16,0,0,0-2.83,3l.93.25-.11-3.88a.5.5,0,0,0-1-.13,15.64,15.64,0,0,0-.54,4l1-.13a7.51,7.51,0,0,0-2.54-3.85.51.51,0,0,0-.71,0,.5.5,0,0,0,0,.7Z"/><path d="M52.66,120.93a152,152,0,0,1-.36,27.15c-.07.64.93.64,1,0a152,152,0,0,0,.36-27.15c0-.63-1-.64-1,0Z"/><path d="M56.82,131.21a10.62,10.62,0,0,1,1.93,3.5.5.5,0,0,0,1-.27,5.22,5.22,0,0,1,.24-2.95H59l.76,3.63a.51.51,0,0,0,.84.22l3.09-3.21c.44-.47-.26-1.17-.71-.71l-3.09,3.21.84.22L60,131.23c-.11-.53-.81-.42-1,0a6.16,6.16,0,0,0-.24,3.48l1-.27a11.76,11.76,0,0,0-2.18-3.93c-.42-.5-1.12.21-.71.7Z"/><path d="M62.59,109.83l2.34,4.1a.5.5,0,0,0,.93-.25L66,110.5l-.93.25a3.19,3.19,0,0,1,.55,2.34.51.51,0,0,0,.92.39l2.29-3.55c.35-.54-.52-1-.87-.5L65.7,113l.92.39a4.25,4.25,0,0,0-.66-3.12.5.5,0,0,0-.93.26l-.17,3.18.93-.25-2.34-4.1a.5.5,0,0,0-.86.5Z"/><path d="M65.31,98.72A2,2,0,0,1,67,100.45c.06.43.72.47.91.12l1.2-2.26-.94-.25.14,2.92a.5.5,0,0,0,.93.25l2-3.08c.35-.55-.51-1.05-.86-.51l-2,3.09.93.25-.14-2.92a.5.5,0,0,0-.93-.25l-1.19,2.26.91.11a2.94,2.94,0,0,0-2.41-2.42.52.52,0,0,0-.61.35.49.49,0,0,0,.35.61Z"/><path d="M40.38,53.36c12.32-2.22,24.73-4.15,36.95-6.88,11.68-2.61,22.93-6.7,34.44-9.89a117.17,117.17,0,0,1,20.15-4c.63-.06.64-1.06,0-1-11.87,1.13-23.25,4.74-34.57,8.27-5.77,1.79-11.55,3.56-17.43,5-6.17,1.48-12.42,2.61-18.66,3.74L40.11,52.39c-.63.12-.36,1.08.27,1Z"/><path d="M131.2,32.45l2.09-.44a.51.51,0,0,0,.35-.61.52.52,0,0,0-.62-.35l-2.09.44a.5.5,0,0,0-.34.61.5.5,0,0,0,.61.35Z"/><path d="M133.55,39.17l-4.3-3V37A16.28,16.28,0,0,1,131.67,36c.41-.15.84-.28,1.26-.39l.62-.15a2.17,2.17,0,0,0,.66-.19.5.5,0,0,0-.5-.86,4.67,4.67,0,0,1-.6.13l-.62.16q-.63.17-1.26.39a19.09,19.09,0,0,0-2.49,1.11.51.51,0,0,0,0,.86l4.31,3a.5.5,0,0,0,.5-.87Z"/><path d="M132.84,28.14a20.56,20.56,0,0,0-6.68-.45l.13,1c3.24-.62,4.46-4.32,5.12-7.11.15-.63-.82-.89-1-.27-.58,2.45-1.56,5.87-4.42,6.42-.55.1-.43,1,.13,1a19.46,19.46,0,0,1,6.41.42c.63.14.9-.82.27-1Z"/><path d="M127.34,303c-.32-2.78,2.45-4.44,4.91-4.49,2.81-.05,5.67,1.23,8.32,2q7.94,2.48,16,4.66,15.82,4.31,31.93,7.5,9.24,1.83,18.53,3.28v-1l-2.94.64c-.63.13-.37,1.1.26,1l2.95-.64c.46-.1.49-.88,0-1a472.71,472.71,0,0,1-69.44-16.39c-2.6-.82-5.58-1.76-8.23-.62a5,5,0,0,0-3.27,5c.08.63,1.08.64,1,0Z"/><path d="M127.53,303.79a333.44,333.44,0,0,0,57.16,12.57l-.49-.64-1.75,5a.5.5,0,0,0,.35.61,154.18,154.18,0,0,0,18.76,4c2.23.33,4.68,1,5.82-1.43a21.34,21.34,0,0,0,1.72-8.15c0-.64-1-.64-1,0a21.65,21.65,0,0,1-1.5,7.45,2,2,0,0,1-1.89,1.53,12.14,12.14,0,0,1-2.16-.26c-1.36-.2-2.72-.41-4.08-.64a155.71,155.71,0,0,1-15.4-3.46l.35.62,1.75-5c.12-.34-.19-.59-.48-.63a332.56,332.56,0,0,1-56.9-12.53c-.61-.19-.88.77-.26,1Z"/><path d="M175.81,327.89a8.21,8.21,0,0,0,2.05-3l-.62.35a12.1,12.1,0,0,0,9.73-1l-.68-.69-1.66,2.82-.77,1.31-.44.76-.23.37c-.17.17-.14.25.1.26l.23.29v.17l-.3.23.05,0-.48-.13.05,0c.49.41,1.2-.29.7-.7l0,0a.48.48,0,0,0-.48-.13.66.66,0,0,0-.23,1.15c.69.47,1.17-.43,1.44-.9l2.93-5a.5.5,0,0,0-.68-.69,11,11,0,0,1-9,.94.52.52,0,0,0-.62.35,6.72,6.72,0,0,1-1.79,2.52c-.48.43.23,1.14.71.71Z"/><path d="M185.32,324.49a7,7,0,0,0,4.88,4.78l-.35-.61a19.6,19.6,0,0,0-1.09,5.52h1l-.11-.92c-.07-.63-1.07-.64-1,0l.11.92a.5.5,0,0,0,1,0,18.9,18.9,0,0,1,1.05-5.26.5.5,0,0,0-.35-.61,6,6,0,0,1-4.18-4.09.5.5,0,0,0-1,.27Z"/><path d="M192.87,335.75l.59-5.54-.76.43a12.81,12.81,0,0,0,10.28-.05l-.73-.57-2.77,8,1,.13.06-1.12c0-.64-1-.64-1,0l-.06,1.12c0,.59.8.64,1,.13l2.77-8c.16-.46-.37-.73-.73-.57a11.67,11.67,0,0,1-9.27.06.51.51,0,0,0-.75.43l-.59,5.54c-.07.64.93.64,1,0Z"/><path d="M201.61,329.47a6.71,6.71,0,0,0,6.85,6l-.43-.75a12.78,12.78,0,0,0-1.4,6.76l1-.13-.42-1.13c-.23-.6-1.19-.34-1,.27l.43,1.12c.18.49,1,.48,1-.13a11.91,11.91,0,0,1,1.26-6.26.5.5,0,0,0-.43-.75,5.7,5.7,0,0,1-5.85-5c-.06-.63-1.06-.64-1,0Z"/><path d="M162.9,322.63l1.4-5.28-.73.29a7.34,7.34,0,0,0,8.6.11l-.73-.57a5,5,0,0,0,3.54,6.08c.61.17,1.22.4,1,1.12a6.49,6.49,0,0,1-.78,1.35,2.75,2.75,0,0,0-.55,2.78l.3-.74.1.06c.08-.64-.93-.63-1,0a.88.88,0,0,0,1.17.91.52.52,0,0,0,.29-.74c-.4-.81.69-1.92,1.07-2.57a2,2,0,0,0,.12-2.38,3,3,0,0,0-1.63-.81,3.64,3.64,0,0,1-1.69-1.06,4,4,0,0,1-.95-3.73c.11-.39-.36-.83-.73-.56a6.42,6.42,0,0,1-7.6-.11.5.5,0,0,0-.73.3l-1.4,5.28a.5.5,0,0,0,1,.27Z"/><path d="M169.91,325.85l1.45-9.58c.1-.63-.87-.9-1-.26l-1.46,9.58c-.09.63.87.9,1,.26Z"/><path d="M257.28,345a161.87,161.87,0,0,1,23.34,2.62c.63.12.89-.84.26-1a162.67,162.67,0,0,0-23.6-2.66c-.64,0-.64,1,0,1Z"/><path d="M257.48,343.85,262.11,321a15.56,15.56,0,0,1,.54-2.65c.68-1.64,1.88-1.08,3.22-.83l5.86,1.11,11.73,2.23c.63.11.9-.85.26-1l-13.19-2.5c-2.07-.39-4.15-.89-6.24-1.17a2.06,2.06,0,0,0-2.57,1.69c-1,4.18-1.72,8.47-2.57,12.69l-2.63,13c-.13.63.83.9,1,.26Z"/><path d="M268.59,334.56c-.65-.63-1.09-2.29,0-2.65.56-.19,1.12.27,1.41.72a2,2,0,0,1,.06,2,7.49,7.49,0,0,1-1.73,2.23l.86.35-.2-1.84a.52.52,0,0,0-.5-.5.5.5,0,0,0-.5.5l.2,1.84a.51.51,0,0,0,.85.36c1.38-1.39,3.09-3.45,1.8-5.45a2.36,2.36,0,0,0-2.35-1.2,2,2,0,0,0-1.55,1.81,3.13,3.13,0,0,0,.93,2.56c.46.45,1.17-.26.7-.71Z"/><path d="M268.15,331l6.24-.15,3.12-.07c.19,0,2.43-.15,2.29.29-.19.61.78.88,1,.26.67-2.16-3.75-1.54-4.7-1.52l-7.92.19a.5.5,0,0,0,0,1Z"/><path d="M269,337.56q6.3-.31,12.56-1.05c.64-.07.64-1.08,0-1q-6.26.74-12.56,1.05c-.64,0-.65,1,0,1Z"/><path d="M271.85,345.12a5.56,5.56,0,0,0,.53-8.16c-.46-.45-1.17.26-.71.71a4.56,4.56,0,0,1-.32,6.58.52.52,0,0,0-.18.69.5.5,0,0,0,.68.18Z"/><path d="M232.61,341.09a14.93,14.93,0,0,1-3,0,9.84,9.84,0,0,1-2.75-.58c-1.76-.75-.37-2.63.67-3.32a5.94,5.94,0,0,1,5-1c1.27.43,2.51,1.87,2.1,3.29-.34,1.15-2.07,2-3,1a.5.5,0,0,0-.7.71,2.89,2.89,0,0,0,4.17-.51c1.25-1.55.43-3.7-1-4.8-1.84-1.41-4.32-1-6.26,0-1.48.74-3.52,2.56-2.62,4.42.54,1.13,1.94,1.4,3,1.6a14.77,14.77,0,0,0,4.35.16c.64-.07.64-1.08,0-1Z"/><path d="M64.08,288.46a35.41,35.41,0,0,0,3.51-4.65c.55-.86,1-1.75,1.52-2.66a10.58,10.58,0,0,1,.76-1.59,1,1,0,0,1,1.13-.73l.32.24c.82.34,1.57,1.06,2.38,1.48a23.81,23.81,0,0,0,2.31,1,40.84,40.84,0,0,0,5.65,1.59,103.67,103.67,0,0,1,11.86,3c4.32,1.5,8.5,3.38,12.68,5.26l-.1-.79a12,12,0,0,0-3,11.2l.49-.63a1.06,1.06,0,0,1-1.26-.74c-.21-.61-1.18-.35-1,.26a2.06,2.06,0,0,0,2.22,1.48.51.51,0,0,0,.48-.63,11,11,0,0,1,2.69-10.23.51.51,0,0,0-.1-.79c-4.32-1.94-8.65-3.89-13.14-5.43A125.53,125.53,0,0,0,80.93,282a30.77,30.77,0,0,1-6-1.94,18,18,0,0,1-2.76-1.59c-.53-.37-1.07-.87-1.77-.75s-1.09.77-1.39,1.37c-.46.91-.87,1.85-1.38,2.74a33.65,33.65,0,0,1-4.25,6c-.42.48.28,1.19.71.7Z"/><path d="M35.18,278c.69-4.52,1.45-9,3.69-13,1-1.81,2.17-3.54,3.07-5.41a42.79,42.79,0,0,0,2.2-6c2.82-9.29,5.54-18.62,8.3-27.93a.5.5,0,0,0-1-.26c-2.77,9.31-5.48,18.63-8.3,27.92a37.55,37.55,0,0,1-2.51,6.57c-1,1.84-2.13,3.55-3.08,5.39-2,3.89-2.72,8.22-3.37,12.5-.1.63.86.9,1,.27Z"/><path d="M54.07,268.78c6.44,2.28,13,4.28,19.61,6Q78.54,276,83.44,277c1.66.34,4.3,1.09,5.24-.87a42.69,42.69,0,0,0,1.5-4.29L92,266.71l1.69-4.85c.34-1,1.4-2.76.86-3.85-.42-.87-1.51-.51-2.28-.47-1.76.09-3.51.11-5.27,0a77.92,77.92,0,0,1-10.34-1.06A195.79,195.79,0,0,1,54.12,251a.5.5,0,0,0-.63.48,50.13,50.13,0,0,1-.1,10.1,48.24,48.24,0,0,1-.88,5.2q-.25,1.14-.57,2.28c-.12.42-.44,1-.15,1.38a.52.52,0,0,0,.57.23l.15,0a.53.53,0,0,0,.37-.49V270c0-.64-1-.64-1,0v.11l.37-.48-.16.06.57.23a18.68,18.68,0,0,1,.6-2c.18-.76.35-1.53.5-2.3.3-1.5.52-3,.68-4.55a50.79,50.79,0,0,0,.05-9.63l-.63.49c11.62,3.36,23.51,6.78,35.72,6.67.72,0,1.44,0,2.16-.05a9.66,9.66,0,0,1,1.2-.07c.63,0,.57,0,.62.55a6.11,6.11,0,0,1-.65,1.85L92,263.44l-3.14,9c-.39,1.14-.71,3.47-2,3.86s-2.92-.26-4.14-.52q-4.44-.92-8.83-2-9.95-2.52-19.61-6c-.61-.21-.87.76-.27,1Z"/><path d="M176.71,201.49,175,210.3a.51.51,0,0,0,.35.62q13.53,4.1,27.42,6.84c4.53.89,9.11,1.82,13.7,2.34,1.68.2,2.21-.47,2.71-2q1.13-3.37,2.23-6.77c.21-.62-.76-.88-1-.27l-2,6.1a5.13,5.13,0,0,1-.55,1.6c-.54.55-1.46.31-2.1.22-1.11-.16-2.21-.34-3.32-.51q-6.15-1-12.25-2.26-12.44-2.58-24.61-6.28l.35.62,1.73-8.82c.13-.62-.84-.89-1-.26Z"/><path d="M230.16,241a6.66,6.66,0,0,0,1-2.61l1.07-4.1,2.07-8,4.14-15.94-1-.26-.35,1.34a.5.5,0,0,0,1,.27l.34-1.35a.5.5,0,0,0-1-.26l-3.89,15-1.88,7.24-1,3.87c-.32,1.23-.47,3.06-1.27,4.09-.39.5.31,1.21.71.71Z"/><path d="M219.62,240.57q4.56-15.3,8.45-30.78a.51.51,0,0,0-.84-.49l-.82.72c-.48.43.23,1.13.71.71l.82-.72-.84-.49q-3.89,15.48-8.44,30.78a.5.5,0,0,0,1,.27Z"/><path d="M234.71,250.07l7.28.47a.5.5,0,0,0,.49-.36A356.19,356.19,0,0,1,251,209.93c.11-.38-.37-.83-.73-.56l-.75.56c-.51.38,0,1.25.5.86l.75-.56-.73-.56a356.05,356.05,0,0,0-8.49,40.24l.48-.37-7.28-.47c-.64,0-.64,1,0,1Z"/><path d="M273,238.75c-3.08.63-6.83,1.33-9.38-1a4,4,0,0,1,1.19-6.67l-.51-.87c-2.38,1.22-4.7-1.09-4.47-3.5.27-2.68,2.7-4.19,5.12-4.66.46-.09.44-.69.12-.91-2.25-1.61-.46-4.74,1.58-5.46a7.75,7.75,0,0,1,3.21-.32c1,.09,3.51.49,3.19,2a.5.5,0,0,0,.91.38c.86-1.45,3-1.13,4,0,1.28,1.5.92,3.79.43,5.52a.5.5,0,0,0,.91.38.58.58,0,0,1,.89.12,1.24,1.24,0,0,1-.16,1.41,6.67,6.67,0,0,1-1.08,1.17l-2.62,2.47a.5.5,0,0,0,.22.83c2.28.63-2.21,6-2.83,6.7a.51.51,0,0,0,.1.79,1.48,1.48,0,0,1-.81,2.84c-.64-.08-.63.92,0,1a2.47,2.47,0,0,0,1.32-4.71l.1.79c1.14-1.37,6.34-7.29,2.38-8.37l.22.84c1.11-1,2.31-2,3.32-3.16a3.09,3.09,0,0,0,1-2.4c-.22-1.36-2.12-2.07-2.92-.82l.91.38c.64-2.26.92-5.35-1.2-7-1.56-1.18-4-1.14-5.08.65l.91.38c.8-3.75-5.9-3.65-8-2.79-2.77,1.14-4.27,5.16-1.47,7.15l.12-.92c-3.24.64-6.33,3.17-5.82,6.78a4.17,4.17,0,0,0,5.94,3.22c.58-.3.07-1.12-.51-.87a5,5,0,0,0-2,7.56c2.6,3.42,7.31,2.73,11,2,.63-.12.37-1.09-.26-1Z"/><path d="M148.19,238.53l-11.45-1.08-5.48-.51c-1-.1-2-.17-3-.28a4.86,4.86,0,0,1-1.09-.14c-1.14-.49-.64-1.67-.48-2.48l1-5.24a11.66,11.66,0,0,1,.43-2.27c.61-1.48,2.57-.83,3.74-.72l11.07,1L154,227.9l5.41.51c1.12.1,2.68.54,3.5-.51s.74-3.12.92-4.4l.83-5.87,1.56-11,.87-6.12.48-3.42a7.85,7.85,0,0,0,.23-2.2c-.11-.67-.84-1.33-1.45-.7a.74.74,0,0,0,.44,1.29c.63.08.63-.92,0-1,.23,0-2.63,19.63-2.88,21.42-.49,3.48-.85,7-1.48,10.46-.35,1.91-3.61,1-5,.87l-5.41-.51-21.14-2c-1-.1-2.3-.39-3.12.38s-.91,2.73-1.13,3.91l-.93,5c-.18,1-.53,2.13.24,2.93s2.92.77,4.09.88l6,.56,12.2,1.15c.64.07.63-.94,0-1Z"/><path d="M143.59,170.77l12.95.48a.5.5,0,0,0,0-1l-12.95-.48c-.64,0-.64,1,0,1Z"/><path d="M142.33,166.19l15,1.32c.65.06.64-.94,0-1l-15-1.32c-.64-.06-.63.94,0,1Z"/><path d="M133.69,287.19,132.22,294a.49.49,0,0,0,.35.61A96.82,96.82,0,0,0,144,296.73c1,.12,2,.23,3.06.32a3,3,0,0,0,2.17-.23,1.81,1.81,0,0,0,.59-1.28c.13-.88.26-1.8.31-2.7.09-1.32-.68-1.78-1.89-1.87-2.07-.17-4.13-.24-6.2-.44s-4-.45-6-.76c-1-.16-2.05-.33-3.07-.51l-1.52-.29c-.12,0-2-.34-1.34-.93.48-.42-.23-1.13-.71-.7a1.37,1.37,0,0,0,.49,2.25,7.58,7.58,0,0,0,2.05.49c1,.19,2,.37,3.06.53q5.43.87,10.93,1.23a13,13,0,0,1,2.58.14c.71.21.67.59.6,1.23s-.11,1-.17,1.46c0,.33,0,.88-.16,1.14-.38.51-1.19.28-1.7.24-.9-.08-1.79-.17-2.68-.28a95.17,95.17,0,0,1-11.59-2.11l.35.61,1.47-6.82c.14-.62-.83-.89-1-.26Z"/><path d="M161.83,302.59a8.18,8.18,0,0,1-7.34-2.15l-.22.84a7.62,7.62,0,0,1,5.5-.26c.43.16,1.37.65,1.21,1.26-.06.22-.65.58-.73.32a.5.5,0,0,0-1,.27,1.28,1.28,0,0,0,2.06.48,1.59,1.59,0,0,0,0-2.51,5.35,5.35,0,0,0-3.36-1.18,8.81,8.81,0,0,0-4,.65.51.51,0,0,0-.22.84,9.22,9.22,0,0,0,8.31,2.4c.63-.13.37-1.1-.26-1Z"/><path d="M158.92,295.65l-.35,3.13a.49.49,0,0,0,.37.48,34.33,34.33,0,0,0,4.73.79c.8.07,1.61.12,2.42.13.6,0,1.65.22,2-.35a2.45,2.45,0,0,0-.55-3,5.53,5.53,0,0,0-3.67-1.07l-5.67-.24c-.65,0-.65,1,0,1,2.09.09,4.19.13,6.28.27a3.71,3.71,0,0,1,2.35.75,1.44,1.44,0,0,1,.33,1.88l.43-.25a32.2,32.2,0,0,1-8.41-.87l.37.48.35-3.13c.07-.64-.93-.64-1,0Z"/><path d="M179.89,304.84a11.94,11.94,0,0,0,.44,4.6.5.5,0,0,0,1-.14l0-2.95c0-.32-.14-.9.22-1.06a2.77,2.77,0,0,1,1.11,0,26.91,26.91,0,0,0,5.53-.17,4.83,4.83,0,0,0,3.65-1.83,2.54,2.54,0,0,0-.31-3.25c-.49-.41-1.2.3-.71.71,1.09.92.14,2.39-.86,2.88a11.94,11.94,0,0,1-4.79.73c-.87,0-1.74,0-2.61-.07a2.29,2.29,0,0,0-1.81.31c-.54.49-.43,1.29-.42,1.95l0,2.74,1-.13a10.94,10.94,0,0,1-.41-4.33c.06-.64-.94-.64-1,0Z"/><path d="M191.07,311.52c-.75-.24-.72-1.36-.33-1.89.68-.92,2.14-.78,3.1-.55a1.93,1.93,0,0,0,1.58-.09,1.62,1.62,0,0,0,.55-1.44c0-1.48-.18-3-.28-4.43l-.63.48,2.72.53c.63.12.9-.84.27-1l-2.72-.54a.51.51,0,0,0-.64.49l.16,2.5.08,1.29a4.27,4.27,0,0,1,0,1c-.11.57-1.12.12-1.51.06a4.9,4.9,0,0,0-1.87,0,2.56,2.56,0,0,0-2.08,2.16,2,2,0,0,0,1.31,2.29c.61.19.88-.77.26-1Z"/><path d="M26.07,272.53l5,6.68a.52.52,0,0,0,.69.18.5.5,0,0,0,.18-.68l-5-6.69a.52.52,0,0,0-.68-.18.5.5,0,0,0-.18.69Z"/><path d="M28.22,270.67A20.53,20.53,0,0,0,34,278.6c.49.41,1.2-.3.71-.71a19.61,19.61,0,0,1-5.54-7.48.5.5,0,0,0-.61-.35.49.49,0,0,0-.35.61Z"/><path d="M27.41,264.1,34.12,275c.33.55,1.2.05.86-.5l-6.7-10.86c-.34-.55-1.21-.05-.87.5Z"/><path d="M29.12,262l5.37,8.4c.35.54,1.21,0,.87-.51L30,261.49c-.34-.54-1.21,0-.86.5Z"/><path d="M29.67,258.25A37.42,37.42,0,0,1,36,266.72c.31.57,1.17.06.86-.5a37.89,37.89,0,0,0-6.48-8.67.5.5,0,0,0-.7.7Z"/><path d="M32.39,254.51a101.51,101.51,0,0,0,5.72,9.29c.37.52,1.23,0,.87-.51A100.61,100.61,0,0,1,33.25,254c-.31-.56-1.17-.06-.86.5Z"/><path d="M32,248.66l6.94,12.21a.5.5,0,0,0,.86-.5l-6.93-12.22a.5.5,0,0,0-.87.51Z"/><path d="M32.6,245.18A91.49,91.49,0,0,1,39.68,258c.26.59,1.13.08.86-.5a89.92,89.92,0,0,0-7.08-12.78c-.35-.54-1.22,0-.86.5Z"/><path d="M35,244l6.61,13.42c.28.58,1.14.07.86-.51l-6.6-13.41c-.29-.58-1.15-.07-.87.5Z"/><path d="M35.94,240.71a33.76,33.76,0,0,1,4.92,8c.31.71.59,1.43.85,2.16.18.53.27,1.53.82,1.82,1.12.6,1.71-1.36.33-1.48-.64,0-.63,1,0,1,.17,0,.15-.53.13-.64a2.4,2.4,0,0,0-.12-.38l-.3-.87c-.2-.55-.41-1.08-.63-1.62-.44-1-.92-2.07-1.46-3.06A35.2,35.2,0,0,0,36.65,240c-.41-.49-1.11.22-.71.71Z"/><path d="M38.3,240.68A50,50,0,0,1,43.56,250c.25.59,1.11.08.86-.51a50.68,50.68,0,0,0-5.26-9.29c-.37-.51-1.24,0-.86.51Z"/><path d="M40.28,238.66l4.54,8a.5.5,0,0,0,.87-.5l-4.54-8a.5.5,0,0,0-.87.51Z"/><path d="M41.15,235.3l5,10c.29.58,1.16.07.87-.5l-5-10c-.29-.57-1.15-.07-.86.51Z"/><path d="M42.42,232.78l4.68,9.16c.29.57,1.15.06.86-.51l-4.68-9.16c-.29-.57-1.15-.06-.86.51Z"/><path d="M42.5,227.45a35.69,35.69,0,0,1,5.29,9.4c.22.59,1.19.33,1-.27a36.9,36.9,0,0,0-5.55-9.84c-.39-.5-1.1.21-.7.71Z"/><path d="M44.08,224.43a58.16,58.16,0,0,1,5.06,8.75c.27.59,1.13.08.86-.5a57.67,57.67,0,0,0-5.06-8.75c-.37-.53-1.24,0-.86.5Z"/><path d="M44.48,219.84l5,8.78a.5.5,0,0,0,.86-.51l-5-8.78a.5.5,0,0,0-.86.51Z"/><path d="M44.55,214.36a56.53,56.53,0,0,1,5.77,10.08c.26.58,1.13.08.87-.51a56.49,56.49,0,0,0-5.78-10.07c-.37-.52-1.24,0-.86.5Z"/><path d="M43.69,210.78a58.71,58.71,0,0,1,7.47,10.32.5.5,0,0,0,.87-.51,60.63,60.63,0,0,0-7.63-10.51c-.43-.48-1.14.23-.71.7Z"/><path d="M43.06,205a78.63,78.63,0,0,0,9.65,11c.47.44,1.18-.27.71-.71a77.6,77.6,0,0,1-9.49-10.76c-.38-.52-1.25,0-.87.5Z"/><path d="M47.52,205.71a28.06,28.06,0,0,1,5.36,6.58.5.5,0,0,0,.86-.5A28.85,28.85,0,0,0,48.23,205c-.48-.43-1.19.28-.71.71Z"/><path d="M51.28,205.29l2.9,3.37a.5.5,0,1,0,.71-.71L52,204.58a.51.51,0,0,0-.71,0,.52.52,0,0,0,0,.71Z"/><path d="M52.44,201.86,55,205.2a.54.54,0,0,0,.69.18.52.52,0,0,0,.18-.69l-2.51-3.34a.53.53,0,0,0-.69-.18.52.52,0,0,0-.18.69Z"/><path d="M46.28,191.9l4.15,4.63c.43.48,1.13-.23.71-.71L47,191.19c-.43-.48-1.14.23-.71.71Z"/><path d="M48.8,191.46a34.72,34.72,0,0,1,6.56,8.31.5.5,0,0,0,.86-.5,35.46,35.46,0,0,0-6.71-8.51c-.47-.44-1.18.26-.71.7Z"/><path d="M50.75,189.33l4.71,6.61c.37.52,1.23,0,.86-.5l-4.71-6.61c-.37-.52-1.24,0-.86.5Z"/><path d="M52.9,185.53,57,194.34c.27.58,1.13.07.86-.51L53.77,185c-.28-.59-1.14-.08-.87.5Z"/><path d="M54.54,183.88l3.75,6.69a.5.5,0,0,0,.86-.5l-3.75-6.7c-.31-.56-1.18-.06-.86.51Z"/><path d="M51.88,177.09a29.15,29.15,0,0,1,8.25,13c.19.61,1.16.35,1-.27a30.22,30.22,0,0,0-8.51-13.44c-.48-.43-1.19.27-.71.71Z"/><path d="M57.22,179.59l6.42,10.61c.33.55,1.2.05.86-.5l-6.42-10.61a.5.5,0,0,0-.86.5Z"/><path d="M61.76,182.28l3.33,4.19a.5.5,0,0,0,.71,0,.51.51,0,0,0,0-.71l-3.34-4.19a.5.5,0,0,0-.7,0,.51.51,0,0,0,0,.71Z"/><path d="M55,172.72A19,19,0,0,1,58.82,180a.5.5,0,0,0,1-.26A19.92,19.92,0,0,0,55.71,172c-.41-.49-1.12.22-.7.71Z"/><path d="M58,170l3.57,6.79c.3.57,1.16.06.86-.51l-3.57-6.79c-.3-.57-1.16-.06-.86.51Z"/><path d="M60.46,169.78a6,6,0,0,1,.78,1.37,5.66,5.66,0,0,1,.39,1.6.5.5,0,0,0,1,0,6.81,6.81,0,0,0-1.47-3.68.5.5,0,0,0-.7,0,.51.51,0,0,0,0,.71Z"/><path d="M54.66,160.12l3.73,4.63a.5.5,0,0,0,.7,0,.51.51,0,0,0,0-.71l-3.72-4.63a.5.5,0,0,0-.71,0,.52.52,0,0,0,0,.71Z"/><path d="M58,160.43l4.19,6.68c.34.54,1.2,0,.86-.5l-4.19-6.69c-.34-.54-1.2,0-.86.51Z"/><path d="M59.73,158.81l4.53,5.08c.43.48,1.13-.23.71-.71l-4.53-5.07c-.43-.49-1.13.22-.71.7Z"/><path d="M61.35,155.93l5,5c.45.46,1.16-.25.71-.7l-5-5a.5.5,0,0,0-.71.7Z"/><path d="M62.73,151a7.93,7.93,0,0,1,3,4,.5.5,0,1,0,1-.26,9,9,0,0,0-3.49-4.58.5.5,0,0,0-.5.87Z"/><path d="M36.41,114l6.05,6.89c.43.48,1.13-.23.71-.71l-6.05-6.88c-.43-.49-1.13.22-.71.7Z"/><path d="M36.65,109.57l9.59,12.14c.4.51,1.1-.2.71-.7l-9.59-12.15c-.4-.5-1.1.21-.71.71Z"/><path d="M37.21,105.69a103.09,103.09,0,0,1,11.31,15.59.5.5,0,0,0,.86-.51A105.08,105.08,0,0,0,37.92,105c-.43-.48-1.13.22-.71.71Z"/><path d="M40.84,105.23q5.34,7,10.18,14.4c.35.53,1.21,0,.86-.51Q47,111.76,41.7,104.72c-.38-.51-1.25,0-.86.51Z"/><path d="M43.72,104.84l10.8,14.26c.38.51,1.25,0,.86-.5l-10.8-14.26c-.38-.51-1.25,0-.86.5Z"/><path d="M45.76,102.37,56.1,117.08c.37.52,1.23,0,.86-.51l-10.33-14.7c-.37-.53-1.24,0-.87.5Z"/><path d="M47.83,100.88l9.74,12c.4.5,1.11-.21.71-.7l-9.75-12c-.4-.5-1.11.21-.7.7Z"/><path d="M50.37,100.05a41.32,41.32,0,0,1,8.82,10.23.5.5,0,0,0,.87-.51,42.28,42.28,0,0,0-9-10.43c-.49-.41-1.2.29-.71.71Z"/><path d="M54.61,100a31.26,31.26,0,0,1,6.29,6.5.5.5,0,0,0,.87-.5,32.57,32.57,0,0,0-6.45-6.71.53.53,0,0,0-.71,0,.5.5,0,0,0,0,.71Z"/><path d="M60.17,102.11l1.26.83a.51.51,0,0,0,.38,0,.47.47,0,0,0,.3-.23.49.49,0,0,0-.18-.68l-1.25-.83a.49.49,0,0,0-.39,0,.5.5,0,0,0-.3.23.51.51,0,0,0,.18.68Z"/><path d="M127.45,50.73l.07.05,0,0,0,0,.06.05.24.24.06.07,0,0,0,0a.21.21,0,0,1,0,.06,3.21,3.21,0,0,1,.19.31s.08.13.07.16,0-.09,0,0l0,.09c0,.11.07.22.1.33l0,.17c0,.07,0,0,0,0s0,.08,0,.09,0,.24,0,.36a.5.5,0,0,0,.5.5.51.51,0,0,0,.5-.5A3.43,3.43,0,0,0,128,49.87a.5.5,0,1,0-.5.86Z"/><path d="M129.47,48.94l2.41,3a.49.49,0,0,0,.7,0,.51.51,0,0,0,0-.71l-2.4-3a.5.5,0,0,0-.71,0,.51.51,0,0,0,0,.7Z"/><path d="M132.05,47.61A25.35,25.35,0,0,1,136,52.67a.5.5,0,0,0,.86-.51,27,27,0,0,0-4.08-5.26.5.5,0,0,0-.71.71Z"/><path d="M135.79,46.16a8.44,8.44,0,0,1,2.78,2.7.5.5,0,0,0,.87-.51,9.87,9.87,0,0,0-3.14-3.06.52.52,0,0,0-.69.18.51.51,0,0,0,.18.69Z"/><path d="M138.72,44.89a14.51,14.51,0,0,1,4.43,4.82c.31.56,1.18,0,.86-.51A15.57,15.57,0,0,0,139.23,44c-.54-.36-1,.5-.51.86Z"/><path d="M141.57,43.52a14.29,14.29,0,0,1,4.05,4.95c.29.57,1.15.07.87-.51a15,15,0,0,0-4.21-5.14.51.51,0,0,0-.71,0,.5.5,0,0,0,0,.7Z"/><path d="M143.29,41.8a27,27,0,0,1,4.85,6.25c.32.56,1.18.05.87-.51a28,28,0,0,0-5-6.44c-.47-.45-1.18.26-.71.7Z"/><path d="M143.29,38a21.3,21.3,0,0,1,6.55,8.61c.24.59,1.2.33,1-.27a22.18,22.18,0,0,0-6.8-9c-.5-.39-1.22.31-.71.71Z"/><path d="M143.68,33.48a18.2,18.2,0,0,1,5.25,7.33c.23.6,1.2.34,1-.26a19.18,19.18,0,0,0-5.52-7.78c-.49-.41-1.2.29-.7.71Z"/><path d="M143.07,27.8c.6-.26,1.26.59,1.54,1,.51.75,1,1.54,1.44,2.32l3,4.79c.34.54,1.2,0,.86-.51l-3.48-5.63c-.79-1.27-1.95-3.66-3.83-2.84-.59.26-.08,1.12.51.86Z"/><path d="M144.25,24.51a28.39,28.39,0,0,1,5.62,6.36c.35.54,1.22,0,.87-.5A29.69,29.69,0,0,0,145,23.8c-.49-.41-1.2.29-.71.71Z"/><path d="M148.77,24l2.51,1.68a.5.5,0,0,0,.68-.18.51.51,0,0,0-.18-.69l-2.5-1.67a.5.5,0,1,0-.51.86Z"/><path d="M30.22,13.64A32.63,32.63,0,0,1,32,24a.51.51,0,0,0,.5.5q26.85-2.38,53.4-7.24,7.6-1.4,15.17-3c.63-.13.37-1.09-.26-1Q74.43,18.85,47.63,22q-7.56.87-15.14,1.54l.5.5a33.63,33.63,0,0,0-1.8-10.62c-.21-.61-1.18-.35-1,.26Z"/><path d="M189.44,279.5c-1.15,2.5-2.3,5.87.26,7.92a14.84,14.84,0,0,0,4.33,1.95c2,.74,4,1.48,6.05,2.19,4,1.4,8,2.73,12,3.86,2,.55,4,1.06,6,1.5a32.37,32.37,0,0,0,5.76,1,3.08,3.08,0,0,0,3.17-1.89c.61-1.52.21-3.28,1.07-4.73a.5.5,0,0,0-.86-.5c-.75,1.26-.66,2.66-.92,4.05-.52,2.81-3.31,2-5.4,1.6A116.38,116.38,0,0,1,208,293.17c-4.24-1.33-8.43-2.82-12.61-4.35-1.75-.64-4.31-1.14-5.57-2.63-1.49-1.78-.36-4.39.47-6.18.27-.58-.6-1.09-.87-.51Z"/><path d="M173,292l1.12-6.15-.74.29a191.57,191.57,0,0,0,19.26,10,78.3,78.3,0,0,0,9.85,3.47,98.44,98.44,0,0,0,11.28,2.17l-.22-.83c-2.21,2.66-4.85,6.5-2.4,9.86,1.86,2.56,5.49,3.08,8.42,3.36.64.06.63-.95,0-1-2.42-.23-5.42-.61-7.2-2.45-2.77-2.88-.12-6.65,1.89-9.07.21-.25.18-.77-.22-.83A100.79,100.79,0,0,1,203,298.67a77.4,77.4,0,0,1-10.25-3.61,195.28,195.28,0,0,1-18.84-9.77.51.51,0,0,0-.74.3l-1.12,6.15c-.11.63.85.9,1,.27Z"/><path d="M242.22,294.82q7-30.4,13.19-61,1.77-8.74,3.48-17.49c.12-.63-.84-.9-1-.27q-6,30.63-12.73,61.1-1.94,8.71-3.93,17.4c-.15.62.82.89,1,.26Z"/><path d="M157.94,254.25c-.36-3.3,3.79-3.87,6.17-4.28,2.79-.47,5.75-.75,8.35.6a.5.5,0,0,0,.75-.43,80,80,0,0,1,5.68-31.74l-.73.3a18.5,18.5,0,0,0,8.67,3.08c.36,0,.52-.34.48-.63a18.87,18.87,0,0,1,.47-7.77.5.5,0,0,0-1-.27,19.72,19.72,0,0,0-.47,8.3l.48-.63a17.54,17.54,0,0,1-8.17-2.94.5.5,0,0,0-.73.3,80.53,80.53,0,0,0-5.72,32l.76-.43c-3.12-1.63-6.62-1.16-9.95-.56-2.68.49-6.46,1.63-6.08,5.1.07.63,1.07.64,1,0Z"/><path d="M188.7,284.62l2.55,3.31a.53.53,0,0,0,.69.18.5.5,0,0,0,.18-.68l-2.56-3.31a.5.5,0,0,0-.68-.18.5.5,0,0,0-.18.68Z"/><path d="M189.2,282.47a55.49,55.49,0,0,0,4.89,5.72c.45.46,1.16-.25.71-.71a51.78,51.78,0,0,1-4.73-5.52.54.54,0,0,0-.69-.18.52.52,0,0,0-.18.69Z"/><path d="M190.81,281.26a34.07,34.07,0,0,0,7.95,9c.5.4,1.21-.3.7-.7a33.3,33.3,0,0,1-7.78-8.78c-.34-.54-1.2,0-.87.51Z"/><path d="M194.19,282.23l7.13,8.76c.41.5,1.11-.21.71-.71l-7.13-8.76c-.41-.5-1.11.22-.71.71Z"/><path d="M198,283.45a38.66,38.66,0,0,1,6.17,8.27c.31.57,1.17.06.86-.5a39.47,39.47,0,0,0-6.33-8.48c-.45-.46-1.16.25-.7.71Z"/><path d="M201.66,283.78l6.23,9.64c.35.54,1.22,0,.87-.51l-6.23-9.64c-.35-.54-1.22,0-.87.51Z"/><path d="M205.15,285.92l7,8.86c.4.51,1.1-.21.71-.71l-7-8.86c-.4-.5-1.11.21-.71.71Z"/><path d="M206.78,284.7a97,97,0,0,1,8.27,10.36c.36.53,1.23,0,.86-.5A96.36,96.36,0,0,0,207.49,284c-.44-.48-1.14.23-.71.71Z"/><path d="M209.4,284.47l7.54,11.14c.36.53,1.22,0,.86-.5L210.27,284c-.36-.53-1.23,0-.87.51Z"/><path d="M213.5,286.2l6,9.35c.35.54,1.22,0,.87-.5l-6-9.35c-.35-.54-1.21,0-.86.5Z"/><path d="M216.05,285.77l6.67,11.12c.33.55,1.2.05.87-.5l-6.68-11.13a.5.5,0,0,0-.86.51Z"/><path d="M218.43,285.16a27.77,27.77,0,0,1,5.56,9.43c.21.6,1.18.34,1-.27a29.2,29.2,0,0,0-5.82-9.86c-.43-.48-1.14.23-.71.7Z"/><path d="M222.65,287.22a9,9,0,0,1,2.81,3.95.5.5,0,1,0,1-.26,10,10,0,0,0-3.06-4.4.52.52,0,0,0-.71,0,.5.5,0,0,0,0,.71Z"/><path d="M260.9,337.21c.67-3,1.45-6.08,2.36-9.06.48-1.55,1-3.09,1.52-4.61.27-.77.55-1.53.83-2.28.14-.36.26-.74.42-1.09s.34-.81.85-.68c.31,0,.43.09.37.39a3.27,3.27,0,0,1,0,.54c0,.33-.12.67-.18,1-.15.78-.31,1.56-.48,2.33-.34,1.5-.72,3-1.15,4.46s-.92,2.92-1.44,4.36c-.28.75-.57,1.49-.87,2.23-.14.34-1,2.48-1.57,1.52a.5.5,0,0,0-.86.51,1.46,1.46,0,0,0,2.14.36c1-.73,1.4-2.44,1.82-3.55a68.67,68.67,0,0,0,2.89-9.62c.23-1,1.9-6.31-.86-5.77-1.21.23-1.64,1.76-2,2.73q-.88,2.36-1.67,4.74a114.57,114.57,0,0,0-3.05,11.21c-.13.63.83.89,1,.27Z"/><path d="M264.23,342.66A11.41,11.41,0,0,0,265,338l-.37.48a1.61,1.61,0,0,1,1.58.51,2,2,0,0,1,.4,1.91,2.14,2.14,0,0,1-1.22,1.61c-.26.08-.38,0-.47-.14a.43.43,0,0,1-.06-.12s0-.16,0-.08,0-.06,0,0a.36.36,0,0,1,0-.1c-.06.1,0,0,0,0a.5.5,0,1,0-.51-.86,1.25,1.25,0,0,0-.07,1.92,1.65,1.65,0,0,0,2.27-.18,3.41,3.41,0,0,0,.33-4.74,2.58,2.58,0,0,0-2.51-.71.5.5,0,0,0-.36.48,10.83,10.83,0,0,1-.71,4.4.5.5,0,0,0,.35.61.51.51,0,0,0,.62-.35Z"/><path d="M144.71,316.48c-.65-1.14.29-2.49,1.38-2.92a7.7,7.7,0,0,1,4.23.05,87.35,87.35,0,0,1,9,2.18l-.35-.62a8,8,0,0,1-1.18,3.21c-.34.54.52,1,.86.5a8.55,8.55,0,0,0,1.28-3.44.52.52,0,0,0-.34-.62c-1.89-.56-3.78-1.06-5.7-1.49a37.14,37.14,0,0,0-5.55-1,4.66,4.66,0,0,0-4,1.3,2.92,2.92,0,0,0-.49,3.38.5.5,0,0,0,.86-.51Z"/><path d="M162.4,321.22h.42a.41.41,0,0,0,.19,0,.46.46,0,0,0,.16-.11.34.34,0,0,0,.1-.16.32.32,0,0,0,0-.19l0-.13a.53.53,0,0,0-.13-.23l-.1-.07a.45.45,0,0,0-.25-.07h-.42a.41.41,0,0,0-.19,0,.44.44,0,0,0-.16.1.39.39,0,0,0-.11.17.41.41,0,0,0,0,.19l0,.13a.38.38,0,0,0,.13.22l.1.08a.45.45,0,0,0,.25.07Z"/><path d="M169.54,324l2.5,2.09a.5.5,0,0,0,.71-.71l-2.51-2.09a.5.5,0,1,0-.7.71Z"/><path d="M170.76,322.63a15.67,15.67,0,0,0,3,3.89.5.5,0,0,0,.71-.71,14.42,14.42,0,0,1-2.82-3.68.5.5,0,0,0-.87.5Z"/><path d="M170.14,320.22a12,12,0,0,1,4.29,4.14c.33.55,1.2.05.86-.5a13,13,0,0,0-4.64-4.5.5.5,0,0,0-.51.86Z"/><path d="M184.18,329.87l3.87,3.64c.47.44,1.18-.26.71-.7l-3.88-3.64c-.47-.44-1.17.26-.7.7Z"/><path d="M184.27,327.68a41,41,0,0,1,4.92,5.11.5.5,0,1,0,.71-.7A41.07,41.07,0,0,0,185,327c-.49-.42-1.2.29-.71.71Z"/><path d="M187.87,327.67l.83,1.26a.53.53,0,0,0,.3.23.56.56,0,0,0,.38-.05.51.51,0,0,0,.18-.69l-.83-1.26a.58.58,0,0,0-.3-.23.55.55,0,0,0-.38.05.52.52,0,0,0-.23.3.48.48,0,0,0,.05.39Z"/><path d="M200.47,335.73l4.73,4a.52.52,0,0,0,.71,0,.5.5,0,0,0,0-.71l-4.73-4a.5.5,0,1,0-.71.7Z"/><path d="M202.24,334.79l3.31,3a.5.5,0,0,0,.71-.71l-3.31-3a.5.5,0,0,0-.71.71Z"/><path d="M202.6,333l4.27,3.22a.5.5,0,1,0,.5-.86l-4.27-3.23a.51.51,0,0,0-.68.18.52.52,0,0,0,.18.69Z"/></g></g></svg>