<svg xmlns="http://www.w3.org/2000/svg" viewBox="0 0 340.18 371.97"><g id="Layer_2" data-name="Layer 2"><g id="Layer_7_148" data-name="Layer 7,148"><path d="M1.15,56.4C-.41,60.93,0,65.48.17,70.21c.17,5.53.62,11.06,1.06,16.57C2.05,97.2,3.46,107.54,5,117.87c3,20.64,6,41.75,11.5,61.9s9.7,40.83,15.5,61c5.71,19.87,11.35,39.74,18.2,59.27,7.87,22.45,17.9,44,26.74,66.05,4.17,10.42,19.41,4.1,14.24-6-9.37-18.32-16.76-37.84-24-57.09s-14.58-38.76-20.89-58.5c-12.59-39.38-21-80.15-27.51-120.93-1.86-11.58-3.26-23.22-5.07-34.8-.86-5.46-1.6-10.94-2.43-16.4-.85-5.7-1.24-11.7-4-16.8C5.8,52.94,2,53.81,1.15,56.4Z"/><path d="M6.53,59.17C12.64,57.37,19.18,56.5,25.4,55s12.41-3.47,18.68-5C56.59,47,68.89,43,81.3,39.56q37.31-10.17,75-18.73c9.42-2.12,5.43-16.58-4-14.46C127.19,12,102.19,18.31,77.41,25.43c-12,3.45-24.39,6.55-36.07,11-6,2.31-12.23,4.22-18.21,6.65C16.83,45.65,10.7,49,4.38,51.37c-4.77,1.81-2.94,9.29,2.15,7.8Z"/><path d="M92.43,371.87c18.61-3.36,36.69-10.13,55-14.83s37-8.71,55.73-11.93a686.6,686.6,0,0,1,113.35-9.6c10,0,10-15.55,0-15.47a725.56,725.56,0,0,0-116.4,10.45q-28.58,4.88-56.67,12.08c-18.68,4.8-38.39,9.55-55.54,18.59-6.22,3.28-1.67,11.83,4.52,10.71Z"/><path d="M218.37,195.07c9.27-.15,19.31-2.91,28.39-4.81,8.88-1.85,17.76-3.73,26.65-5.55,18.41-3.78,37.07-6.26,55.47-10,8.16-1.65,6.47-15.66-2-14.73-18.92,2.09-37.86,6.26-56.51,10.07-9.21,1.88-18.36,3.9-27.49,6.17-9,2.24-19,4.44-27.26,8.7-4.85,2.51-2.53,10.24,2.75,10.15Z"/><path d="M326.58,322.82c4.66-4.49,5.78-10.15,6.91-16.36s2.12-12.57,3-18.89q2.64-19.49,3.43-39.15a403.27,403.27,0,0,0-4.66-77.3c-.61-4-5.66-6.24-9.23-5.24-4.28,1.2-5.86,5.19-5.24,9.22a394.42,394.42,0,0,1,4.1,73.32c-.42,12.09-1.42,24.17-3,36.16-.79,6-1.75,12-2.83,17.9-1.14,6.22-2.71,12.19-.38,18.25,1.26,3.29,5.17,4.75,7.93,2.09Z"/><path d="M215.56,189.5c1.68-6.92-1.7-15.41-3.44-22.15-2-7.67-4.29-15.27-6.55-22.86q-6.91-23.27-13.63-46.6c-8.86-30.77-17.48-61.7-25.82-92.58-2.51-9.31-17-5.36-14.46,4q12.51,46.37,25.81,92.58,6.59,22.85,13.36,45.65c2.25,7.59,4.51,15.21,7.06,22.71,2.27,6.66,4.31,16.53,9.64,21.38,2.57,2.35,7.13,1.55,8-2.12Z"/><path d="M65.44,213a376.61,376.61,0,0,0-10-48.51c-2.22-8.09-4.71-16.12-7-24.21s-4.2-16.15-5.91-24.31q-2.85-13.65-4.71-27.47a2.06,2.06,0,0,0-2-2,2,2,0,0,0-2,2,390.1,390.1,0,0,0,9.74,49.08c2.18,8.18,4.68,16.27,7,24.41s4.32,16.16,6.08,24.33q3,13.78,4.87,27.75A2,2,0,0,0,64,215.5a2,2,0,0,0,1.4-2.46Z"/><path d="M64.22,215.56l1,3.13a2,2,0,0,0,1.93,1.47c8-.47,15.73-2.54,23.46-4.42L114.31,210c15.43-3.75,30.86-7.52,46.12-11.9,8.56-2.45,17.06-5.1,25.47-8l-1.54-3.65-2.13,1.35c-2.17,1.37-.16,4.84,2,3.45l2.13-1.35c1.83-1.16.69-4.44-1.54-3.66C155,196.6,124.09,203.5,93.44,211c-8.64,2.09-17.36,4.69-26.27,5.21l1.93,1.46-1-3.13c-.79-2.43-4.66-1.39-3.86,1.07Z"/><path d="M187,186.47q-2.07-10.78-4.75-21.43-1.32-5.19-2.78-10.36-.73-2.58-1.51-5.15c-.44-1.48-.84-3-2.05-4.07a4.7,4.7,0,0,0-4.19-.85c-1.19.25-2.43,1-3.66.91-2.06-.2-3.32-3-4-4.59-1-2.36-2.22-5.49-1.57-8.09a6.93,6.93,0,0,1,2-3,10.06,10.06,0,0,0,2.42-4.1,9.36,9.36,0,0,0-11.14-11.57l2.26.92c-1.2-2.46-2.35-5-3.41-7.47-.83-2-1.9-4.08-2-6.24a3.17,3.17,0,0,1,.36-2.1,3.6,3.6,0,0,1,2.37-1c2.13-.42,4.11-1,5.39-2.92,2.25-3.36.48-8-1.13-11.18-2.32-4.65-4.51-9.35-6.43-14.18a173.33,173.33,0,0,1-5.72-17c-.7-2.48-4.56-1.43-3.86,1.06a173.53,173.53,0,0,0,11.51,30.06,27.94,27.94,0,0,1,2.43,5.72c.29,1.22.55,3-.61,3.82a6.73,6.73,0,0,1-2.65.78,8.19,8.19,0,0,0-3.17,1.19,6.3,6.3,0,0,0-2.51,5.44,20.3,20.3,0,0,0,2,7.2q1.88,4.49,4,8.87a2,2,0,0,0,2.26.92,5.42,5.42,0,0,1,5.74,2.45,5.5,5.5,0,0,1-.91,6.53,13.11,13.11,0,0,0-2.57,3.36,9.29,9.29,0,0,0-.79,4.19,23,23,0,0,0,2.15,8.12,12.55,12.55,0,0,0,4.32,5.77c2.41,1.57,4.73.9,7.28.17,1.34-.39,1.38-.15,1.81,1.24q.78,2.56,1.51,5.15,1.41,4.92,2.68,9.88,2.88,11.24,5.05,22.61c.49,2.52,4.34,1.46,3.86-1.06Z"/><path d="M36.71,86.9q46.41-9.81,92.42-21.47c3.53-.9,7.3-1.55,10.56-3.25a10.18,10.18,0,0,0,3.49-2.89,8.19,8.19,0,0,0,1.12-2.13,4,4,0,0,1,.25-.69c.07-.13.14-.25.22-.37.29-.28.26-.27-.1,0h-1.06l-.37-.18a2,2,0,0,0,2.82,0,2,2,0,0,0,0-2.83,2.63,2.63,0,0,0-3.92,0c-1.12,1.06-1.25,2.48-2,3.69-1.41,2.14-4.44,2.87-6.76,3.47-7.81,2-15.65,4-23.49,5.89q-23.52,5.76-47.15,11-13.5,3-27,5.89c-2.52.53-1.46,4.38,1.06,3.85Z"/><path d="M108.34,345.32,94.51,309.8l-7-17.87c-2.19-5.63-4.43-11.25-5.42-17.24-1.11-6.66-.84-13.49-.43-20.2.16-2.57-3.84-2.56-4,0a102,102,0,0,0,.16,18.41,72.44,72.44,0,0,0,4.77,17.37Q89.56,308.12,96.53,326l8,20.43a2.07,2.07,0,0,0,2.46,1.4,2,2,0,0,0,1.4-2.47Z"/><path d="M79.21,253.07l56.38-10.58c2.53-.48,1.46-4.33-1.06-3.86L78.15,249.21c-2.53.48-1.46,4.33,1.06,3.86Z"/><path d="M160.46,332.42Q150,297.85,140.44,263q-2.7-9.87-5.33-19.76c-.66-2.49-4.52-1.43-3.86,1.06q9.28,34.9,19.5,69.56,2.9,9.83,5.86,19.61c.74,2.46,4.6,1.41,3.85-1.06Z"/><path d="M107.72,347.8q25.17-6.53,50.53-12.27c2.51-.57,1.45-4.43-1.07-3.86q-25.35,5.76-50.53,12.27c-2.49.65-1.43,4.51,1.07,3.86Z"/><path d="M185.12,325.43q-9.23-37-21-73.35-3.3-10.17-6.81-20.28c-.84-2.42-4.7-1.38-3.86,1.06q12.51,36.06,22.47,72.93,2.78,10.32,5.36,20.7c.63,2.5,4.48,1.44,3.86-1.06Z"/><path d="M156.4,231.25a388.63,388.63,0,0,1,39.35-8.47l-2.46-1.4c1,3.5,2.11,7,3.33,10.45a6.46,6.46,0,0,0,2.51,3.69c1.42.84,3.11.62,4.66.43a63.37,63.37,0,0,0,20.13-6,2,2,0,0,0,.71-2.74c-3.86-6.9-5-14.83-6.57-22.48q-2.53-12.72-6.32-25.15c-.75-2.45-4.61-1.41-3.86,1.07a261.69,261.69,0,0,1,6.41,25.6c1.56,7.87,2.92,15.89,6.89,23l.72-2.74a58.74,58.74,0,0,1-16.85,5.25c-.64.1-1.28.19-1.93.26a5,5,0,0,1-1.77.09c-.85-.29-1.09-2-1.33-2.71-1-3-2-6-2.87-9.09a2.06,2.06,0,0,0-2.46-1.4,388.82,388.82,0,0,0-39.36,8.47c-2.48.67-1.43,4.53,1.07,3.86Z"/><path d="M181.51,329.77a312.63,312.63,0,0,1,40.67-7.88,2.08,2.08,0,0,0,1.93-1.47c.6-2.26.17-4.52-.19-6.78-.27-1.69-.67-3.74,1.27-4.47a34.55,34.55,0,0,1,4.27-1.05l4.62-1.08,9.48-2.23-2.46-1.4,1.18,5.24a2,2,0,0,0,2.46,1.39,377.67,377.67,0,0,1,47.54-10c1.83-.27,1.77-2.82.48-3.66-.93-.6-.47-2.2.08-2.91,1-1.33,3-1.77,4.58-2.13,2.2-.51,4.42-1,6.63-1.44s4.56-1.19,6.85-1.47c.59-.07,1-.17,1.21.39a9,9,0,0,1,0,3L312,299c0,2.3-.16,4.63-.08,6.93a9.29,9.29,0,0,0,1.61,5.4c2.2,2.88,7.76,2.93,8.73-1.12.6-2.5-3.25-3.57-3.86-1.06-.06.28-.07.24-.45.28a1.5,1.5,0,0,1-1.21-.44c-1.17-1.26-.83-3.75-.81-5.3l.12-7.65a57,57,0,0,0,0-7.39,4.47,4.47,0,0,0-4.11-4.2c-2.18-.21-4.54.63-6.65,1.09l-7.56,1.64a18.59,18.59,0,0,0-6,2,7.17,7.17,0,0,0-3.53,5.31,5.44,5.44,0,0,0,2.43,5.35l.48-3.65a376.09,376.09,0,0,0-47.55,10l2.46,1.39L245,302.35a2,2,0,0,0-2.46-1.4l-10.21,2.4-5.35,1.26a14.93,14.93,0,0,0-4.38,1.39c-2.25,1.36-3,3.82-2.81,6.33.18,2.28,1.1,4.75.5,7l1.93-1.47a321.71,321.71,0,0,0-41.73,8c-2.49.65-1.44,4.51,1.06,3.86Z"/><path d="M324.37,247.36l-8.09,1.25c-1.17.18-2.34.42-3.52.54a2.22,2.22,0,0,1-2.53-1.27,73,73,0,0,1-6.15-13.23,97,97,0,0,1-3.91-14.11,13.06,13.06,0,0,0-2.47-6,8,8,0,0,0-5.28-2.72c-4.21-.51-8,1.52-11.67,3.24-2,.91-4.19,1.85-6.4,1.67s-3.78-2.1-6.12-1.41c-2.1.62-3.56,2.62-5.44,3.68a14.32,14.32,0,0,1-5.9,1.79,19,19,0,0,1-6.26-.84,10,10,0,0,0-6.87.74,4.31,4.31,0,0,1-5.39-1.2c-1.66-1.92-2.08-4.68-2.56-7.09q-1.74-8.9-3.47-17.8c-.49-2.52-4.35-1.46-3.86,1.06l3.19,16.36c.9,4.6,1.87,9.94,6.46,12.32a7.69,7.69,0,0,0,6.56.25,13,13,0,0,1,2.95-1,9.71,9.71,0,0,1,3.43.69,18.65,18.65,0,0,0,13.39-1.59,17,17,0,0,0,2.71-1.8c.54-.43,1.59-1.74,2.31-1.67a5.54,5.54,0,0,1,1.36.67,9.46,9.46,0,0,0,1.61.6,9.84,9.84,0,0,0,3.5.24c4.67-.52,8.37-3.56,12.86-4.64,1.62-.39,3.58-.59,5.05.38,1.68,1.11,2.07,3.3,2.45,5.14a98.33,98.33,0,0,0,4.15,14.76c1,2.72,2.16,5.4,3.42,8,1.13,2.35,2.24,5.05,4,7,2.17,2.41,5.16,1.74,8,1.31l9.57-1.48a2,2,0,0,0,1.39-2.46,2.06,2.06,0,0,0-2.46-1.4Z"/><path d="M227.66,293.22a7.33,7.33,0,0,1-9.77-7.7c.07-.72-.69-1-1.27-1a6.06,6.06,0,0,1-6.08-2.94,6.15,6.15,0,0,1,.59-6.64,1,1,0,0,0-.86-1.51,5.9,5.9,0,0,1-5.85-6.46c.37-3.47,3.72-6,7-6.32.59-.05,1.21-.6,1-1.26-.89-2.4-.53-5.82,2-7.13,1.92-1,5.16,0,5.47,2.38.11.84,1.4,1.53,1.86.5,1.07-2.41,2.91-4.91,5.66-5.44,2.45-.47,5.62,1.69,4.86,4.41a1,1,0,0,0,1,1.26,7.24,7.24,0,0,1,6.63,11.7,1,1,0,0,0,.86,1.51A8.79,8.79,0,0,1,249,274a8.68,8.68,0,0,1-2,9.13,9.35,9.35,0,0,1-1.83,1.42c-.81.51-.75,1-.94,1.84a8.21,8.21,0,0,1-2.68,4.45,8,8,0,0,1-10.23-.15,1,1,0,0,0-1.7.71,1.25,1.25,0,0,1-2.45.45c-.39-1.22-2.32-.7-1.92.53a3.25,3.25,0,0,0,6.37-1l-1.71.71a9.86,9.86,0,0,0,16.45-6.53l-.49.86a10.47,10.47,0,0,0-5.12-19.78l.86,1.5a9.21,9.21,0,0,0-8.35-14.71l1,1.27c1-3.56-2.24-6.79-5.67-7-3.94-.26-7,3.22-8.51,6.5l1.87.51a5.81,5.81,0,0,0-7.72-4.45c-3.82,1.39-5,6.22-3.68,9.73l1-1.27c-4.43.41-8.66,3.71-9.05,8.36-.36,4.36,3.43,8.64,7.86,8.42l-.86-1.5a8.06,8.06,0,0,0-.41,9,8.14,8.14,0,0,0,8.16,3.55l-1.27-1a9.33,9.33,0,0,0,12.3,9.63c1.21-.42.69-2.35-.53-1.93Z"/><path d="M227,283.89a4.6,4.6,0,0,1-6-6.13,1,1,0,0,0-.86-1.5c-1.23,0-3.1.14-4-.93-1.23-1.49.56-3.61,1.53-4.71a1,1,0,0,0,0-1.42c-1.24-1.25-2.56-2.93-2.39-4.81.13-1.33,1.6-3,3.07-2.38,1.17.52,2.19-1.21,1-1.73a4.38,4.38,0,0,0-5.77,2.65c-1.1,2.83.74,5.73,2.66,7.69V269.2c-1.57,1.8-3.42,4.43-2,6.86,1.17,2.05,3.79,2.25,5.9,2.2l-.86-1.51a6.54,6.54,0,0,0,8.21,9.07c1.2-.45.68-2.38-.53-1.93Z"/><path d="M231.2,273.82l-.27-.09c-.26-.08.15.09-.1,0a4.31,4.31,0,0,1-.47-.26l-.23-.15c-.15-.1,0,0,0,0l-.37-.34-.18-.2s-.2-.24-.07-.08a2.85,2.85,0,0,1-.31-.46,3.75,3.75,0,0,1-.24-.44l-.06-.13c0,.09,0,.1,0,0l-.09-.26a4.34,4.34,0,0,1-.14-.48l-.06-.27c-.06-.28,0,.19,0-.1a4.89,4.89,0,0,1,0-.54,1.77,1.77,0,0,1,0-.23s0-.3,0-.18,0-.11,0-.14a1.1,1.1,0,0,1,.06-.26,2.88,2.88,0,0,1,.17-.52c-.09.19.06-.11.07-.12l0,0c.09-.08.1-.1,0,0l-.24.05c-.62-.31-.83-.66-.64-1.05a.36.36,0,0,1,.12-.18q-.35.35.75-.15l.44.26.19.32a1,1,0,0,0-1.93.54,1.13,1.13,0,0,0,1.79.6,1.36,1.36,0,0,0,.44-1.7,1.41,1.41,0,0,0-1.93-.42,2.69,2.69,0,0,0-1.07,1.54,6,6,0,0,0,1.14,5.58,5.5,5.5,0,0,0,2.72,1.85,1,1,0,0,0,.54-1.93Z"/><path d="M293.41,287.89a9.19,9.19,0,0,1-14-10.05,1,1,0,0,0-1.23-1.23,10.55,10.55,0,0,1-9.84-17.48,1,1,0,0,0-.2-1.57,9.4,9.4,0,0,1,.25-17.35c1.14-.5.24-2-.77-1.83-3.56.51-7.27-3-6.73-6.59a6.23,6.23,0,0,1,7.52-4.84,1,1,0,0,0,1.23-1.23c-.55-1.87,1-3.59,2.67-4.17,2.29-.79,4.89.13,7.08.83,1.23.39,1.76-1.54.54-1.93-3-.94-6.43-1.93-9.34-.32a5.45,5.45,0,0,0-2.88,6.12L269,225a8.24,8.24,0,0,0-10.06,6.82c-.5,5,4.46,9.15,9.27,8.47l-.77-1.83a11.38,11.38,0,0,0-.25,20.8l-.2-1.57a12.55,12.55,0,0,0,11.78,20.83l-1.23-1.23a11.19,11.19,0,0,0,16.9,12.3c1.08-.68.08-2.41-1-1.72Z"/><path d="M303,285.69c3-1,6.57-2.37,8.19-5.38a6.67,6.67,0,0,0-2.34-8.73l-.24,1.82c3.76-1.28,7.86-3.94,8.43-8.23.48-3.56-1.77-7.36-5.51-7.72v2c3.51-.44,4.62-4.18,3.4-7.14-.92-2.24-4.32-6-6.77-3.27-.85,1,.56,2.38,1.42,1.42,1.19-1.35,3.07,1.58,3.46,2.46.64,1.5.66,4.26-1.51,4.53a1,1,0,0,0,0,2c2.75.27,4.09,3.71,3.41,6.1-.87,3.1-4,4.95-6.86,5.93a1,1,0,0,0-.24,1.82,4.64,4.64,0,0,1,1.07,6.83c-1.57,1.95-4.16,2.86-6.44,3.64-1.22.41-.7,2.34.53,1.92Z"/><path d="M280.57,271.84a7.28,7.28,0,0,1-7.4-10.1,1,1,0,0,0-.36-1.37,1,1,0,0,0-1.37.36,9.28,9.28,0,0,0,9.13,13.11c1.27-.09,1.28-2.09,0-2Z"/><path d="M279.76,256.62a4.8,4.8,0,0,1,7.5.26,1,1,0,0,0,1.73-1,5,5,0,0,1,1.13-5.76c.94-.87-.48-2.29-1.42-1.41a7,7,0,0,0-1.44,8.18l1.73-1c-2.26-3.51-8-4-10.65-.66a1,1,0,1,0,1.42,1.41Z"/><path d="M289.83,243a10.78,10.78,0,0,0,3.24,3.14,1,1,0,0,0,1.47-1.13,4.39,4.39,0,0,1,1.23-4.26,2.65,2.65,0,0,1,3.42,0c.92.9,2.34-.51,1.42-1.42a4.67,4.67,0,0,0-6-.19,6.39,6.39,0,0,0-2,6.4l1.47-1.12a8.55,8.55,0,0,1-2.52-2.42,1,1,0,0,0-1.37-.36,1,1,0,0,0-.36,1.36Z"/><path d="M292.37,270.77l6.61-1.68a1,1,0,0,0,0-1.93,2.1,2.1,0,1,1,1.41-4c1,.32,1.61-1,1-1.67a1.59,1.59,0,0,1,1.73-2.55,1,1,0,0,0,1.37-.36,1,1,0,0,0-.36-1.37,3.57,3.57,0,0,0-4.16,5.69l1-1.67a4.1,4.1,0,1,0-2.47,7.82v-1.93l-6.61,1.68a1,1,0,0,0,.53,1.93Z"/><path d="M164.06,259.07c3.08,2,7.41,2.23,10.36-.17a7.26,7.26,0,0,0,1.69-9.09,7.76,7.76,0,0,0-.74-1c-.43-.5-.68-.43-.07-.65.8-.29,1.67-.22,2.49-.59a6.92,6.92,0,0,0,3.57-3.76,6.78,6.78,0,0,0-4.14-8.62v1.93c4.22-1.19,8.92-3.67,9-8.66,0-1.94-1-4.34-3-4.93a2.29,2.29,0,0,0-2.83,3.12c.55,1.17,2.27.15,1.73-1-.21-.45.78,0,.9,0a2.22,2.22,0,0,1,.72.83,3.68,3.68,0,0,1,.45,1.62,5.4,5.4,0,0,1-1,3.34c-1.48,2.13-4.16,3.07-6.54,3.74a1,1,0,0,0,0,1.93,4.67,4.67,0,0,1,1.62,7.72,4.79,4.79,0,0,1-2.12,1.18,19.56,19.56,0,0,0-2,.35,1.89,1.89,0,0,0-1.09,2.74,21.18,21.18,0,0,0,1.32,1.68,4.37,4.37,0,0,1,.63,1.9,5.54,5.54,0,0,1-1.18,3.94c-2.14,2.65-6.15,2.36-8.78.69-1.08-.7-2.09,1-1,1.72Z"/><path d="M171,242.89a4.48,4.48,0,0,0,5-1.8,1,1,0,0,0-.36-1.37,1,1,0,0,0-1.37.36l-.07.11c-.07.1.16-.19,0-.05l-.17.19-.17.16-.11.09c-.09.08.2-.13.06,0s-.29.2-.44.28l-.22.1c.05,0,.21-.08.06,0l-.13.05a4.05,4.05,0,0,1-.47.12s-.22,0,0,0,0,0,0,0l-.25,0h-.4c-.14,0,.08,0,.1,0a2,2,0,0,1-.53-.13,1,1,0,0,0-1.23.7,1,1,0,0,0,.7,1.23Z"/><path d="M171.67,233.36a1,1,0,0,0,0-2,1,1,0,0,0,0,2Z"/><path d="M79.64,244.44a5.45,5.45,0,0,1-2.3-.91,5.29,5.29,0,0,1-1.64-1.87l-1.13,1.47a8.52,8.52,0,0,0,6.52.06A5,5,0,0,0,84,238.62a1,1,0,0,0-2,0,2.37,2.37,0,0,1-.52,1.73A3.55,3.55,0,0,1,80,241.51a7,7,0,0,1-4.87-.31c-.87-.3-1.52.75-1.13,1.47a7.37,7.37,0,0,0,5.67,3.77,1,1,0,0,0,0-2Z"/><path d="M79.92,246.82a10.78,10.78,0,0,0,7.43-7,1,1,0,0,0-1.93-.53,7.22,7.22,0,0,1-.38,1,8.78,8.78,0,0,1-.54.94,7.83,7.83,0,0,1-1.4,1.65,6.58,6.58,0,0,1-.75.63,9.7,9.7,0,0,1-1,.61,7.41,7.41,0,0,1-2,.8,1,1,0,0,0,.54,1.92Z"/><path d="M81.86,237.37a9.39,9.39,0,0,0,6,2.19,1,1,0,0,0,1-1,1,1,0,0,0-1-1c-.24,0-.47,0-.7,0l-.35,0c.24,0-.13,0-.17,0a9.27,9.27,0,0,1-1.28-.34L85,237c.21.08-.13-.06-.16-.07a5.77,5.77,0,0,1-.55-.29,6.49,6.49,0,0,1-.6-.37l-.28-.2c.17.13-.12-.09-.14-.12a1,1,0,0,0-1.42,0,1,1,0,0,0,0,1.42Z"/><path d="M91.76,240.29a6.77,6.77,0,0,0,9.85-5.06,1,1,0,0,0-2,0q0,.18,0,0l0,.15c0,.11,0,.23-.08.34s0,.19-.08.28-.11.29,0,.13a4.25,4.25,0,0,1-.27.52c-.09.15-.27.42-.31.47s-.27.3-.38.42a4.28,4.28,0,0,1-.45.4l0,0-.12.09-.25.17a5.24,5.24,0,0,1-.57.32,4.44,4.44,0,0,1-4.23,0,1,1,0,0,0-1,1.72Z"/><path d="M93.25,240.13a9.13,9.13,0,0,0,4.54-9.26L96.32,232a8.66,8.66,0,0,1,3.63,2.81,1,1,0,0,0,1.37.36,1,1,0,0,0,.36-1.37,10.7,10.7,0,0,0-4.35-3.53,1,1,0,0,0-1.47,1.13,7.13,7.13,0,0,1-3.62,7c-1.13.61-.13,2.34,1,1.73Z"/><path d="M107.35,236.6a8.21,8.21,0,0,1,1,.33l.12,0a.4.4,0,1,0-.06,0l.24.1.49.25c.31.17.6.35.89.54l.21.15.11.08s.14.11,0,0,0,0,0,0l.1.08.23.19a1,1,0,1,0,1.41-1.41,11,11,0,0,0-4.24-2.31,1,1,0,0,0-.54,1.93Z"/><path d="M106.63,235.82a8.47,8.47,0,0,0,7.69-6.57,1,1,0,0,0-.69-1.23,1,1,0,0,0-1.23.7,8.62,8.62,0,0,1-.32,1.1c-.1.28.08-.17,0,.11l-.12.26c-.08.17-.18.34-.27.5a5.72,5.72,0,0,1-.32.48l-.07.1-.15.19a7.84,7.84,0,0,1-.81.82l-.18.16-.1.08-.47.32a6.53,6.53,0,0,1-1,.54l-.12.05-.27.09-.55.16-.51.1h0l-.14,0-.34,0a1,1,0,0,0-1,1,1,1,0,0,0,1,1Z"/><path d="M112.53,239.63a8.42,8.42,0,0,0,3.11-9.41,1,1,0,0,0-1.23-.7,1,1,0,0,0-.7,1.23,6.41,6.41,0,0,1-2.18,7.15,1,1,0,0,0-.36,1.37,1,1,0,0,0,1.36.36Z"/><path d="M112.39,229.36a58.08,58.08,0,0,0,8.49,5.19,1,1,0,1,0,1-1.72,58.48,58.48,0,0,1-8.49-5.2A1,1,0,0,0,112,228a1,1,0,0,0,.35,1.37Z"/><path d="M97.72,232.11A28.43,28.43,0,0,0,107.1,239a1,1,0,0,0,1.37-.36,1,1,0,0,0-.36-1.37,26.79,26.79,0,0,1-9-6.55c-.87-1-2.28.45-1.42,1.41Z"/><path d="M83,237.53a33.92,33.92,0,0,0,9.36,4,1,1,0,0,0,.53-1.93A32.13,32.13,0,0,1,84,235.8c-1.09-.68-2.1,1-1,1.73Z"/><path d="M120.48,235.51a8.7,8.7,0,0,0,5.25-10.12,1,1,0,0,0-1.93.54,6.67,6.67,0,0,1-3.85,7.65,1,1,0,0,0-.7,1.23,1,1,0,0,0,1.23.7Z"/><path d="M119.89,236.64a10.46,10.46,0,0,0,8.32-10.06,1,1,0,0,0-2,0,8.49,8.49,0,0,1-6.85,8.13,1,1,0,0,0-.7,1.23,1,1,0,0,0,1.23.7Z"/><path d="M125,224.92a30.68,30.68,0,0,0,11.68,5.23c1.25.27,1.79-1.66.53-1.93a29.12,29.12,0,0,1-11.2-5,1,1,0,1,0-1,1.73Z"/><path d="M132.68,241.92a14.41,14.41,0,0,0,7.13-12.45,1,1,0,0,0-2,0,12.37,12.37,0,0,1-6.14,10.72,1,1,0,0,0,1,1.73Z"/><path d="M173.16,337.6q-12.42-42.77-26.54-85-4-11.9-8.09-23.75c-.42-1.21-2.35-.69-1.92.53q14.58,42.08,27.49,84.69,3.65,12,7.14,24.06a1,1,0,0,0,1.92-.53Z"/><path d="M159.87,334.35l13,2.15a1,1,0,0,0,1.23-.7,1,1,0,0,0-.7-1.23l-13-2.15a1.05,1.05,0,0,0-1.23.7,1,1,0,0,0,.7,1.23Z"/><path d="M136.68,229l18.41,6.06c1.23.4,1.75-1.53.54-1.93l-18.42-6.06c-1.23-.41-1.75,1.52-.53,1.93Z"/><path d="M175.31,336.71a81.46,81.46,0,0,0,7.86-14.22,1,1,0,0,0-.36-1.36,1,1,0,0,0-1.37.35,82.07,82.07,0,0,1-7.85,14.22c-.74,1.06,1,2.06,1.72,1Z"/><path d="M152.89,226.11a10.14,10.14,0,0,1-9.26-4.86,1,1,0,0,0-1.73,1,12.13,12.13,0,0,0,11,5.85c1.28-.08,1.29-2.08,0-2Z"/><path d="M142.56,222.27a10.06,10.06,0,0,0,3.85-2H145A19.68,19.68,0,0,0,156.4,227c1.25.24,1.79-1.69.53-1.93a17.92,17.92,0,0,1-10.52-6.28,1,1,0,0,0-1.42,0,7.73,7.73,0,0,1-3,1.52,1,1,0,0,0,.53,1.93Z"/><path d="M140.79,220.11a3,3,0,0,1,.07.32l0,.16c0-.08,0-.13,0,0a4.93,4.93,0,0,1,0,.67c0,.22,0,.44,0,.66,0-.22,0,.06,0,.14s-.05.24-.08.36a5.8,5.8,0,0,1-.2.63l0,.08,0,.07a2.59,2.59,0,0,1-.14.29c-.11.2-.22.39-.34.57l-.1.14s-.12.15,0,.06,0,0-.06.06l-.13.16a1,1,0,1,0,1.41,1.41,7.06,7.06,0,0,0,1.62-6.3,1,1,0,0,0-1.23-.69,1,1,0,0,0-.7,1.23Z"/><path d="M170.71,219.76a11.76,11.76,0,0,1-10.94-5.09c-.71-1.07-2.44-.07-1.73,1a13.76,13.76,0,0,0,12.67,6.08,1,1,0,0,0,1-1,1,1,0,0,0-1-1Z"/><path d="M159.5,215.82l2.58-.49c.42-.08.83-.18,1.25-.23s.46.06.7.38a16.25,16.25,0,0,0,3,3.17,15.17,15.17,0,0,0,8,3.19c1.28.12,1.27-1.88,0-2a12.86,12.86,0,0,1-9.27-5.37,2.87,2.87,0,0,0-1.61-1.34,6.07,6.07,0,0,0-2.46.25l-2.72.52c-1.27.24-.73,2.16.53,1.92Z"/><path d="M158.59,215a8.64,8.64,0,0,1-.23,3.3,8.53,8.53,0,0,1-1.44,3,1,1,0,1,0,1.73,1,10.61,10.61,0,0,0,1.94-7.3,1,1,0,0,0-1-1,1,1,0,0,0-1,1Z"/><path d="M175.16,211.87a11.08,11.08,0,0,0,12.24,7.24,1,1,0,0,0,.7-1.23,1,1,0,0,0-1.23-.7,9,9,0,0,1-9.78-5.84c-.41-1.22-2.34-.7-1.93.53Z"/><path d="M189.84,219.7l1.71-1.56a1,1,0,0,0-.71-1.7,11.54,11.54,0,0,1-9.23-6.23c-.58-1.15-2.31-.14-1.72,1a13.52,13.52,0,0,0,11,7.22l-.71-1.71-1.7,1.55c-1,.87.46,2.28,1.41,1.42Z"/><path d="M176.49,211.19h3.86a1,1,0,0,0,0-2h-3.86a1,1,0,0,0,0,2Z"/><path d="M174.91,213.38a15.55,15.55,0,0,1-.57,8.2,1,1,0,1,0,1.93.53,17.56,17.56,0,0,0,.57-9.26,1,1,0,0,0-1.93.53Z"/><path d="M205.33,231.39a1.7,1.7,0,0,1,1.55-3,1,1,0,0,0,1.23-1.23l-5.53-16.3c-.43-1.26-.87-2.52-1.28-3.78-.27-.81-.44-1,.45-1.07.73-.07,1.47-.1,2.2-.16l4.14-.3a10.46,10.46,0,0,1,1.95-.14c.36.59-.93.95-1.21,1-1.9.34-4-.24-5.28,1.7-1.07,1.67-.54,3.81-.18,5.62l1.59,8a9.67,9.67,0,0,0,2.1,4.92c1.62,1.68,3.55,1.19,5.4.26a3.43,3.43,0,0,1,5.26,2.59c.07,1.28,2.07,1.29,2,0a5.43,5.43,0,0,0-3.38-4.73,5,5,0,0,0-2.69-.39c-1.27.16-2.18,1-3.38,1.35-2.52.71-3.14-3.34-3.47-5-.59-2.92-1.25-5.84-1.75-8.78-.19-1.09-.4-2.66.81-3.22s2.5-.15,3.68-.41c1.8-.41,3.42-2.51,2.08-4.25-.76-1-2-.61-3.05-.53l-5.11.37c-1.06.07-2.63-.1-3.55.52a2.35,2.35,0,0,0-.72,2.64c.43,1.71,1.14,3.38,1.7,5.05l1.77,5.2,3.53,10.39,1.23-1.23a3.7,3.7,0,0,0-4.57,1.74,4,4,0,0,0,1.47,4.93c1.05.75,2.05-1,1-1.73Z"/><path d="M195.19,184.62a2,2,0,0,1-2-.28c-.79-.62-.76-1.79-.86-2.72l-.66-6.27a9.89,9.89,0,0,0-1.58-4.94,8.31,8.31,0,0,1-1.18-5.27,8.68,8.68,0,0,1,.23-2.45c.5-1.31,1.71.21,2,.84a25.33,25.33,0,0,1,1.26,5.85c.27,2,.3,3.91.39,5.88a8.93,8.93,0,0,0,.85,3.78,3.4,3.4,0,0,0,3.38,1.9c.9-.07,2.21-.32,2.3,1,.08,1-1.14,1.45-1.92,1.07-1.16-.55-2.17,1.17-1,1.73a3.45,3.45,0,0,0,4.65-1.43,3.25,3.25,0,0,0-1.95-4.36c-1-.29-2.33.42-3.19-.19a3.83,3.83,0,0,1-1-2.58c-.31-2.53-.2-5.09-.57-7.63-.33-2.25-.59-5.33-2.12-7.14-1.17-1.39-3.59-1.72-4.62,0a7.26,7.26,0,0,0-.58,3.14,15.42,15.42,0,0,0,.11,3.59,8.25,8.25,0,0,0,1.31,3.27,7.78,7.78,0,0,1,1.31,3.94l.54,5.11a13.4,13.4,0,0,0,.66,4,3.94,3.94,0,0,0,5.3,1.85c1.17-.53.16-2.25-1-1.73Z"/><path d="M181.12,111.07a25.21,25.21,0,0,0-11.74-3.45c-.82,0-2,.19-2.68-.31a2.57,2.57,0,0,1-.88-1.78c-.28-2,.51-3.87.07-5.85l-1.23,1.23a32.32,32.32,0,0,0,12.55-.23c1.26-.27.72-2.2-.53-1.93a29.62,29.62,0,0,1-11.49.23,1,1,0,0,0-1.23,1.23c.46,2-.46,4.07,0,6.11a3.89,3.89,0,0,0,3.59,3.26c1,.09,2.08,0,3.12.12a21.62,21.62,0,0,1,3.2.55,22.88,22.88,0,0,1,6.26,2.54,1,1,0,0,0,1-1.72Z"/><path d="M180,109.9a36.58,36.58,0,0,0-12.1-3.76l1,1-.2-4.06-1,1,11.21.81c1.28.09,1.28-1.91,0-2l-11.21-.81a1,1,0,0,0-1,1l.2,4.06a1,1,0,0,0,1,1A33.85,33.85,0,0,1,179,111.63c1.14.59,2.15-1.13,1-1.73Z"/><path d="M36.9,78.28a9,9,0,0,0,4.61-6.2l-1.67.44A11.8,11.8,0,0,0,45.14,75a1,1,0,0,0,1.23-.7,1,1,0,0,0-.7-1.23,9.89,9.89,0,0,1-4.42-1.94c-.53-.42-1.51-.38-1.67.44a7.13,7.13,0,0,1-3.69,5c-1.14.6-.13,2.32,1,1.72Z"/><path d="M42.73,74.4a17.19,17.19,0,0,0,5.61,1.21,1,1,0,0,0,1-1,1,1,0,0,0-1-1l-.7,0-.3,0-.23,0c-.43-.06-.85-.14-1.27-.24a15.71,15.71,0,0,1-2.58-.8,1,1,0,0,0-1.23.7,1,1,0,0,0,.7,1.23Z"/><path d="M37.44,77,34.77,74.6l-.2,1.57a11,11,0,0,0,5.23-6.53l-1.23.7A34,34,0,0,0,48.63,72.4l-1-1-.38,3.88c-.13,1.28,1.87,1.27,2,0l.38-3.88a1,1,0,0,0-1-1,32.15,32.15,0,0,1-9.53-2,1,1,0,0,0-1.23.7,8.94,8.94,0,0,1-4.31,5.33A1,1,0,0,0,33.35,76L36,78.44c1,.86,2.37-.55,1.42-1.42Z"/><path d="M49,72.35a5.44,5.44,0,0,1,.68.23l-.24-.1a4.88,4.88,0,0,1,1.13.65l-.2-.16a5.72,5.72,0,0,1,.92.92l-.16-.2.14.18a1,1,0,0,0,.59.46,1,1,0,0,0,.77-.1A1,1,0,0,0,53,72.86a6.1,6.1,0,0,0-3.46-2.44A1,1,0,1,0,49,72.35Z"/><path d="M53,74.56a9.09,9.09,0,0,0,6.31-6.74,1,1,0,1,0-1.93-.53,7.21,7.21,0,0,1-.28,1l-.09.25c-.1.26.09-.18,0,.08s-.15.32-.23.47a7.64,7.64,0,0,1-.53.86l-.15.21,0,0-.08.1c-.11.14-.23.27-.35.4a6.78,6.78,0,0,1-.73.69l-.2.17c.17-.13-.06,0-.08,0s-.28.2-.43.3a10.28,10.28,0,0,1-.93.49c-.19.1.14,0-.08,0l-.2.08-.54.17a1,1,0,0,0-.7,1.23,1,1,0,0,0,1.23.7Z"/><path d="M51.36,72.07a17.9,17.9,0,0,0,6.24-4.84,1,1,0,0,0-1.42-1.42,17,17,0,0,1-2.71,2.66c.09-.07,0,0,0,0l-.2.14-.37.27c-.26.18-.53.35-.8.52a18.76,18.76,0,0,1-1.71.92A1,1,0,0,0,50,71.72a1,1,0,0,0,1.36.35Z"/><path d="M56.84,66a9.37,9.37,0,0,0,9.1,4,1,1,0,0,0,.7-1.23,1,1,0,0,0-1.23-.7A7.35,7.35,0,0,1,58.57,65a1,1,0,0,0-1.73,1Z"/><path d="M57.05,65.38a21.27,21.27,0,0,0,10,1.78l-1-.74a6.89,6.89,0,0,1-.3,3.34c-.42,1.22,1.51,1.75,1.92.53a8.88,8.88,0,0,0,.31-4.4,1,1,0,0,0-1-.73,19.16,19.16,0,0,1-9-1.51,1,1,0,0,0-1,1.73Z"/><path d="M67.13,70.16a11.76,11.76,0,0,0,9.78-6.52,1,1,0,0,0-.36-1.37,1,1,0,0,0-1.37.36,9.79,9.79,0,0,1-8.05,5.53,1,1,0,0,0,0,2Z"/><path d="M66.15,67.22a9,9,0,0,0,9.09-7.85,1,1,0,0,0-1-1,1,1,0,0,0-1,1,6.38,6.38,0,0,1-.78,2.28,7.16,7.16,0,0,1-1.67,2,6.77,6.77,0,0,1-4.64,1.59,1,1,0,0,0,0,2Z"/><path d="M73.93,59.91A11.69,11.69,0,0,0,87.08,65a1,1,0,0,0-.53-1.93A9.66,9.66,0,0,1,75.66,58.9a1,1,0,0,0-1.73,1Z"/><path d="M75.23,60.33a13.88,13.88,0,0,0,11.28,1.84l-1.23-.7L85.86,65a1,1,0,0,0,1.23.7,1,1,0,0,0,.7-1.23l-.58-3.49a1,1,0,0,0-1.23-.7,11.9,11.9,0,0,1-9.74-1.64c-1.07-.72-2.07,1-1,1.73Z"/><path d="M87.64,65.72A13,13,0,0,0,97,57.23,1,1,0,1,0,95,56.7a11,11,0,0,1-7.91,7.09,1,1,0,1,0,.53,1.93Z"/><path d="M87.47,61.89a14.33,14.33,0,0,0,6.45-6.38,1,1,0,0,0-1.73-1,13.3,13.3,0,0,1-1.08,1.81,2,2,0,0,0-.17.23c-.19.25.11-.15-.08.1l-.31.37c-.24.27-.49.54-.75.8s-.51.48-.78.71l-.18.15-.1.08-.42.32a14.37,14.37,0,0,1-1.86,1.09,1,1,0,0,0-.36,1.37,1,1,0,0,0,1.37.36Z"/><path d="M93.5,54.4a10,10,0,0,0,12.24,3.07,1,1,0,0,0,.36-1.37,1,1,0,0,0-1.37-.36,8,8,0,0,1-9.5-2.35A1,1,0,0,0,93.86,53a1,1,0,0,0-.36,1.37Z"/><path d="M95.69,58.39c1.55,2,4.1,3.92,6.82,3.21a4.76,4.76,0,0,0,2.8-2.11,3.72,3.72,0,0,0,.25-3.57,1,1,0,0,0-1.37-.36,1,1,0,0,0-.36,1.37c0-.13,0,.13,0,.16s.05.31,0,.13c0,.11,0,.21,0,.31s0-.11,0,.14a2.11,2.11,0,0,1-.41.95.64.64,0,0,1-.11.13,1.7,1.7,0,0,1-.22.24,1.88,1.88,0,0,1-.35.29,2.34,2.34,0,0,1-1,.44,3.9,3.9,0,0,1-2.27-.51,6.77,6.77,0,0,1-2.08-1.83,1,1,0,1,0-1.73,1Z"/><path d="M103.57,57.77a9.73,9.73,0,0,0,7.83-7.28,1,1,0,0,0-1.93-.54,7.91,7.91,0,0,1-.36,1.17c-.07.21,0,0,0,.14s-.09.19-.13.28-.19.36-.29.53a7.3,7.3,0,0,1-1.48,1.82,7.77,7.77,0,0,1-1.89,1.29l-.28.13c-.06,0-.06,0,0,0l-.15,0a5.54,5.54,0,0,1-.57.21,10.58,10.58,0,0,1-1.24.28,1,1,0,0,0-.7,1.23,1,1,0,0,0,1.23.69Z"/><path d="M104.1,61.67a34.72,34.72,0,0,0,6.11-8.61,1,1,0,0,0-.36-1.37,1,1,0,0,0-1.37.36,32.51,32.51,0,0,1-5.8,8.2c-.9.93.52,2.34,1.42,1.42Z"/><path d="M108.64,49.78a11.37,11.37,0,0,0,11.82,5.12c1.26-.26.72-2.18-.53-1.93a9.3,9.3,0,0,1-9.56-4.2c-.67-1.1-2.4-.09-1.73,1Z"/><path d="M108.35,53a9.47,9.47,0,0,0,13.56,2.38,1,1,0,0,0,0-1.41,1,1,0,0,0-1.42,0,7.46,7.46,0,0,1-10.41-2c-.67-1.1-2.4-.09-1.73,1Z"/><path d="M120.84,55.74l4.29-7.53a1,1,0,0,0-1.73-1l-4.29,7.52a1,1,0,0,0,1.73,1Z"/><path d="M120.82,56.45c2.11.77,3.79-1.33,4.53-3,1.05-2.39,1.92-4.87,2.86-7.29a1,1,0,0,0-.7-1.23,1,1,0,0,0-1.23.69l-2.45,6.3a6.83,6.83,0,0,1-1.1,2,2.34,2.34,0,0,1-.72.61.76.76,0,0,1-.66,0,1,1,0,0,0-1.23.69,1,1,0,0,0,.7,1.23Z"/><path d="M124.88,46.32a30.44,30.44,0,0,0,9.93,4.32c1.25.29,1.78-1.64.53-1.93a29,29,0,0,1-9.45-4.11,1,1,0,1,0-1,1.72Z"/><path d="M124.27,48.94c2.08,1.89,4.4,4,7.29,4.39A6.29,6.29,0,0,0,138,50.66a1,1,0,0,0-1.73-1,4.35,4.35,0,0,1-4.69,1.67c-2.35-.5-4.21-2.23-5.93-3.79-1-.86-2.37.55-1.41,1.41Z"/><path d="M137,52.15A14.83,14.83,0,0,0,141.72,42c.07-1.28-1.93-1.28-2,0a12.79,12.79,0,0,1-4.18,8.71c-1,.86.46,2.27,1.41,1.41Z"/><path d="M137.84,52.53A6.5,6.5,0,0,0,143.16,49c1.25-2.27,1.31-4.95,1.34-7.47a1,1,0,0,0-2,0c0,2.05,0,4.31-.93,6.2a4.63,4.63,0,0,1-3.73,2.82c-1.28,0-1.29,2,0,2Z"/><path d="M141.47,41.07a16.58,16.58,0,0,0,8.73,6.31c1.23.38,1.76-1.55.53-1.93a14.44,14.44,0,0,1-7.54-5.39,1,1,0,0,0-1.37-.36,1,1,0,0,0-.35,1.37Z"/><path d="M140.81,41.82c2.09.25,3.61,2.29,5.24,3.42s4.35,2,6.25.64a1,1,0,0,0,.36-1.37,1,1,0,0,0-1.37-.36c-1.61,1.18-3.68-.13-5-1.21-1.67-1.4-3.26-2.86-5.51-3.12a1,1,0,0,0,0,2Z"/><path d="M42.35,83.43a4,4,0,0,0,.13-3.55c-.09-.3-.2-.59-.29-.89,0-.15-.08-.3-.11-.45s0-.15,0-.23c0,.08,0,0,0-.07V78c0-.12,0-.15,0-.07s.14-.39,0-.18c0,0,.22-.31.06-.13.06-.07.15-.13.2-.2s0,0,0,0l.13-.09c.11-.05.1-.05,0,0l.14,0c.11,0,.1,0,0,0a.33.33,0,0,1,.14,0c-.15,0-.16,0-.05,0-.13-.06-.14-.06,0,0-.1-.09-.1-.09,0,0-.05-.09-.05-.08,0,0a.89.89,0,0,1,.08.17q-.06-.14,0,0c.07.29.16.58.23.86l1,3.93a1,1,0,1,0,1.93-.53l-.84-3.44c-.27-1.09-.45-2.39-1.61-2.88a2.38,2.38,0,0,0-2.72.9,3.63,3.63,0,0,0-.25,3.36,15.6,15.6,0,0,1,.48,1.61c0,.17,0-.13,0,0a1.27,1.27,0,0,1,0,.2,1.21,1.21,0,0,1,0,.19s0,.22,0,.11,0,.08,0,.11l-.06.18c0,.11,0,0,0,0l-.15.25A1,1,0,0,0,41,83.79a1,1,0,0,0,1.37-.36Z"/><path d="M53.29,79.71l-2.5-5-.36,1.37.22-.12c.07,0,.22-.11.06,0a3.68,3.68,0,0,1,.47-.15l.24-.06c.26,0-.21,0,.06,0a4.18,4.18,0,0,1,.5,0l.24,0c-.24,0,0,0,.07,0a3.59,3.59,0,0,1,.47.12s.28.12.07,0l.22.11a3,3,0,0,1,.42.27c-.14-.1,0,0,0,0l.17.16.15.17c.14.15-.08-.14,0,0s.17.26.24.4.07.14.11.21c-.08-.16,0,0,0,0a3,3,0,0,1,.14.45l0,.19c0,.07,0,0,0-.08a.49.49,0,0,0,0,.12c0,.16,0,.31,0,.47s0,.29,0,.14,0,.14,0,.17a1,1,0,0,0,.69,1.23,1,1,0,0,0,1.23-.7,4.6,4.6,0,0,0-6.88-5,1,1,0,0,0-.36,1.37l2.51,5a1,1,0,0,0,1.37.36,1,1,0,0,0,.35-1.37Z"/><path d="M63,77.34a23.33,23.33,0,0,1-.8-2.67Q62.07,74,62,73.32c0-.22-.08-.45-.11-.67,0,.17,0-.12,0-.16s0-.27,0-.41l-.73,1,.41-.08.21,0h0l.8,0a9.07,9.07,0,0,1,1.64.09l-1-.74a14.44,14.44,0,0,0,1.52,4.11,1,1,0,0,0,1.36.36,1,1,0,0,0,.36-1.37q-.24-.45-.45-.9c0-.08-.07-.16-.11-.23s.09.21,0-.09l-.18-.47a13,13,0,0,1-.54-1.94,1,1,0,0,0-1-.73,11.18,11.18,0,0,0-3.65.15,1,1,0,0,0-.73,1,23.48,23.48,0,0,0,1.31,5.79A1,1,0,0,0,63,77.34Z"/><path d="M72.16,73.1,72,73s-.12,0,0,0,0,0,0,0l-.1-.09s-.22-.18-.1-.1,0,0,0,0l-.1-.15c0-.06-.07-.13-.11-.2s0,.16,0,0-.05-.15-.07-.23l0-.13a.17.17,0,0,0,0-.07s0,0,0,0v.07a.38.38,0,0,1,0-.1.41.41,0,0,0,0-.11,1.85,1.85,0,0,0,0-.24c0-.12,0,.11,0,.1s0-.12,0-.13,0-.18.07-.27-.09.17,0,0a1.48,1.48,0,0,1,.13-.21.47.47,0,0,1,.06-.09c.06-.1,0,.06,0,.06s.16-.18.19-.2.23-.19.11-.11.1-.06.13-.08l.22-.12s.09,0,.1,0-.15.06-.08,0l.07,0a4.21,4.21,0,0,1,.48-.12c.11,0-.08,0-.09,0a.66.66,0,0,0,.14,0,1.41,1.41,0,0,1,.29,0h.1c.14,0-.19,0,0,0l.24.06.21.06c.18.06,0,0,0,0s.11,0,.13.06l.21.13.12.08c.09.06-.06-.05-.06-.05s.29.27.38.37.06.09.07.09-.09-.12,0-.06l0,0a1.28,1.28,0,0,1,.15.25l.06.09s.11.22,0,.08,0,0,0,0l.06.17a2.29,2.29,0,0,1,.07.28s0,.08,0,.1c0-.14,0-.17,0-.09a.17.17,0,0,0,0,.07,2.81,2.81,0,0,1,0,.29c0,.08,0,.4,0,.12a1,1,0,1,0,1.93.53,3.93,3.93,0,0,0-.64-3,3.79,3.79,0,0,0-2.48-1.64,3.89,3.89,0,0,0-3.08.81,3.33,3.33,0,0,0-1.24,2.62,3.45,3.45,0,0,0,1.64,2.91,1,1,0,0,0,1-1.73Z"/><path d="M83,72c-.11-.13,0,0-.08-.11a2.82,2.82,0,0,1-.18-.29,2.15,2.15,0,0,1-.14-.26s-.09-.2,0-.1,0-.1,0-.11a6.23,6.23,0,0,1-.15-.62c0,.17,0-.06,0-.12s0-.25,0-.38,0-.29,0-.12a1.94,1.94,0,0,1,.07-.33,1.52,1.52,0,0,1,.09-.28c0-.1,0,0,0,0s.07-.13.11-.2.09-.15.14-.23,0,0,0,0a.71.71,0,0,1,.12-.13,1.8,1.8,0,0,1,.19-.2l.1-.09c.13-.1-.18.12.06,0l.23-.14c.05,0,.24-.12.09,0l.29-.1c.07,0,.32-.06.13,0h.4l.28.06c.05,0,.28.11.18.06s.13.07.16.09l.19.12c.16.1-.09-.09.05,0l.23.22.16.18.1.12s-.09-.13,0,0,.22.32.31.49a6.19,6.19,0,0,1,.3.57.61.61,0,0,0,0,.12c.07.13-.06-.14,0,0s.09.21.13.32c.15.42.28.84.4,1.27a1,1,0,0,0,1.93-.53c-.53-1.9-1.37-4-3.33-4.84a3.57,3.57,0,0,0-3.19.32,4.11,4.11,0,0,0-1.88,2.92,5,5,0,0,0,1.21,3.83,1,1,0,0,0,1.41,0A1,1,0,0,0,83,72Z"/><path d="M95,69.42a2.23,2.23,0,0,1-.24-.49l0,.08a.5.5,0,0,0,0-.13c0-.1-.07-.2-.1-.31s-.1-.34-.14-.51,0-.19,0-.28,0-.07,0-.11c0-.24,0,.23,0,0a8,8,0,0,1,0-1.1s0,.21,0,.1,0-.09,0-.13,0-.15,0-.23,0-.16.07-.24l0-.12c.06-.17-.08.14,0,0a2.05,2.05,0,0,0,.23-.4c0,.06-.13.16,0,.06l.08-.09c.06-.07.13-.12.2-.19s-.17.1-.06,0l.08,0,.22-.13c.11-.06,0,0-.06,0l.14,0,.32-.07c-.23,0,.07,0,.14,0H96c.06,0,.16,0,0,0l.32.08c.07,0,.34.13.15,0a4.19,4.19,0,0,1,.58.34c-.15-.1,0,0,.09.09s.17.18.26.27.11.14,0,0c0,.07.09.13.13.19l.21.35a1.3,1.3,0,0,0,.08.17c0,.07,0,.1,0,0l.15.43a5.23,5.23,0,0,1,.18.76,1.16,1.16,0,0,1,0,.18c0,.08,0,.21,0,.06,0,.15,0,.3,0,.46a1,1,0,0,0,1,1,1,1,0,0,0,1-1A7.07,7.07,0,0,0,99.17,65,4.27,4.27,0,0,0,96,63.14a3.28,3.28,0,0,0-2.86,1.43,4.49,4.49,0,0,0-.7,2.67,7,7,0,0,0,.88,3.19,1,1,0,0,0,1.36.36A1,1,0,0,0,95,69.42Z"/><path d="M106.2,66.66a3.64,3.64,0,0,1-1.29-1.35,2.55,2.55,0,0,1-.35-.85,4.37,4.37,0,0,1-.12-.52h0v-.1c0-.11,0-.22,0-.32l-.49.86A14.63,14.63,0,0,1,106.11,63a5.48,5.48,0,0,1,1.12-.39,2.32,2.32,0,0,1,.45-.06H108c.18,0,0,0,.07,0a3.59,3.59,0,0,1,.47.12c.07,0,.06,0,0,0l.09,0,.26.14a2.27,2.27,0,0,1,.59.52c-.06-.08.07.12.09.13s.09.17.13.25c0-.09,0-.06,0,0s.05.18.07.26,0-.06,0,0v.22c0-.22,0,0,0,.09,0,.19,0-.09,0,.11a1,1,0,0,0,1.73,1c1.15-2.38-1.1-4.88-3.51-5a6.91,6.91,0,0,0-3.79,1.24c-.26.16-.52.34-.77.51s-.84.51-1,1a2.76,2.76,0,0,0,0,1.07,5.84,5.84,0,0,0,.18.83,5.9,5.9,0,0,0,2.52,3.24,1,1,0,0,0,1-1.73Z"/><path d="M118.63,63.78a3.45,3.45,0,0,1-.26-.28c.11.14-.06-.1-.09-.14a3.37,3.37,0,0,1-.19-.32l-.06-.12s-.12-.29,0-.1a5,5,0,0,1-.19-.63c0-.12-.06-.24-.08-.37,0,.19,0-.19,0-.25a5.46,5.46,0,0,1,0-.7c0-.07,0-.13,0-.19s0,.18,0,0,0-.24.08-.36.06-.25.1-.37.11-.28.09-.23.1-.2.13-.26a3.35,3.35,0,0,1,.21-.36l.08-.12.06-.08.07-.08.09-.1a2.88,2.88,0,0,1,.52-.45,1.23,1.23,0,0,1,.62-.22s-.08,0,0,0-.2-.11,0,0a.18.18,0,0,0,.08,0l-.08-.06,0,0s.07.08.08.09-.1-.19,0,0,.13.25.06.11,0,.13,0,.17.06.21.08.31,0,.18,0,.26,0-.18,0,0a.49.49,0,0,0,0,.12c0,.22.05.44.07.67a3.55,3.55,0,0,0,1.41,2.88,1,1,0,0,0,1.36-.36,1,1,0,0,0-.35-1.37c-.15-.09,0,0,0,0l-.13-.12s-.11-.14,0,0,0,0,0-.07-.09-.3,0-.08c0-.12-.08-.23-.11-.35l-.06-.3,0-.19c0-.15,0,.18,0,0s-.05-.5-.08-.75a3.22,3.22,0,0,0-1.35-2.75c-1.52-.78-3.09.36-4,1.55a5.91,5.91,0,0,0-1.08,3.45,5.62,5.62,0,0,0,1.52,3.91c.89.93,2.31-.49,1.42-1.42Z"/><path d="M129.85,62.46a25.62,25.62,0,0,1-1.32-6.36l-.29.7A5,5,0,0,1,130,55.66a2.85,2.85,0,0,1,.94-.18,3.09,3.09,0,0,1,.45,0l.21.06s.22.09.08,0a1.37,1.37,0,0,1,.55.42l.08.09.1.14s.18.33.12.2a1.93,1.93,0,0,1,.12.41c0,.16,0-.14,0,0v.23c0,.09,0,.11,0,0,0,.06,0,.12,0,.18s0,0,0,.06-.13.19,0,.07a1,1,0,0,0,0,1.41,1,1,0,0,0,1.42,0,3,3,0,0,0,.4-3.13,3.62,3.62,0,0,0-2.45-2.12,5.15,5.15,0,0,0-3.84.82c-.56.36-1.53.94-1.55,1.7a13.34,13.34,0,0,0,.24,2.18A27.2,27.2,0,0,0,127.92,63a1,1,0,1,0,1.93-.53Z"/><path d="M161.62,89.7q-1.35-14.51-2.71-29c-.23-2.46-.47-4.92-.7-7.38a45.77,45.77,0,0,0-.7-6.2,4.67,4.67,0,0,0-2.92-3.63,3.24,3.24,0,0,0-3.69,1.12c-.78,1,1,2,1.73,1,.39-.51,1.26-.33,1.73-.06a3.29,3.29,0,0,1,1.26,2.29,52.15,52.15,0,0,1,.61,5.71c.39,4,.76,8,1.14,12.06q1.14,12,2.25,24.07c.12,1.27,2.12,1.28,2,0Z"/><path d="M35.16,145.88q-5.05-19.93-9-40.13a1,1,0,0,0-1.68-.44,9.26,9.26,0,0,0-2.58,4.52l1.93.53.57-3.54-1.23.69a5.42,5.42,0,0,1,3.59,3.17c.52,1.17,2.25.15,1.73-1a7.3,7.3,0,0,0-4.79-4.08,1,1,0,0,0-1.23.69l-.57,3.55c-.2,1.24,1.61,1.81,1.93.53a7.44,7.44,0,0,1,2.07-3.64l-1.67-.44q3.94,20.19,9,40.13a1,1,0,0,0,1.93-.53Z"/><path d="M42.49,239.71l68.28-17.36,68.53-17.43,38.5-9.79a1,1,0,0,0-.53-1.93L149,210.57,80.46,228,42,237.78a1,1,0,0,0,.53,1.93Z"/><path d="M56.79,264.66a65.27,65.27,0,0,1,17-3,1,1,0,0,0,.86-1.5c-1.46-2.52-1.19-5.48-1.16-8.28,0-2.21.28-6-2-7.26a6.29,6.29,0,0,0-3.84-.16c-1.61.24-3.18.62-4.78.92-2.9.54-6,.73-8.62-1a1,1,0,0,0-1.51.86L54,262.2c.1,1.27,2.1,1.28,2,0l-1.35-16.9-1.5.86a11.65,11.65,0,0,0,7.73,1.54,44.49,44.49,0,0,0,4.45-.77,17.07,17.07,0,0,1,4.47-.65c1.46.1,1.49,1.83,1.58,3,.12,1.43.06,2.86,0,4.3,0,2.64.1,5.29,1.46,7.63l.87-1.51a67.15,67.15,0,0,0-17.5,3.05c-1.22.38-.7,2.31.53,1.92Z"/><path d="M7.53,68.65q31.49-6.93,62.7-15t62.36-17.22Q150,31.33,167.37,25.83c.61-.19.35-1.16-.26-1q-30.72,9.73-61.77,18.39T42.72,59.52Q25,63.78,7.27,67.68c-.63.14-.37,1.1.26,1Z"/><path d="M62.15,164c-3.48-12.65-7-25.64-6.47-38.88.45-11.3,4-22.9,12.07-31.11a52,52,0,0,1,15-10.16,49.16,49.16,0,0,1,18.52-5c6.64-.31,13.19,1.23,19.55,3,5.76,1.58,11.54,3.5,16.6,6.76,9.45,6.1,14.17,16.56,17.07,27,1.55,5.57,2.73,11.26,3.81,16.94a81.65,81.65,0,0,1,1.76,20.2c-1.33,21.57-18,40.54-39.3,44.25a49.44,49.44,0,0,1-32.26-5.43,60.44,60.44,0,0,1-13.86-11.28c-4.24-4.42-8.64-9-12.12-14a31.19,31.19,0,0,1-3.95-7.73c-.21-.61-1.17-.35-1,.26,1.93,5.78,5.74,10.55,9.74,15,4.34,4.86,8.72,9.81,13.8,13.93a49.74,49.74,0,0,0,31.56,11A47.93,47.93,0,0,0,142.76,188a50.42,50.42,0,0,0,17-26.54c3.17-12.64.42-25.75-2.33-38.19-2.35-10.65-5.46-21.88-13-30.12a38.41,38.41,0,0,0-14.56-9.48,94.54,94.54,0,0,0-19.05-5.18,43.83,43.83,0,0,0-19.26,1,62.48,62.48,0,0,0-17.17,7.93A41.29,41.29,0,0,0,62,99.68a47.25,47.25,0,0,0-6.21,16.07c-2.54,12.85-.38,26,2.75,38.5.84,3.34,1.75,6.67,2.66,10a.5.5,0,0,0,1-.26Z"/><path d="M90.2,285.14A104.61,104.61,0,0,1,86,271.07c-.52-2.35-1-4.71-1.31-7.1-.18-1.26-.35-2.52-.49-3.79s-.75-3.54.8-4.14a72.07,72.07,0,0,1,6.94-2.1c2.38-.67,4.76-1.3,7.16-1.87,4.88-1.18,9.81-2.17,14.76-3,5.7-.92,11.43-1.56,17.19-2l-.48-.37,3.88,14.15,2,7.19c.3,1.08,1.18,2.93.15,3.82a5.38,5.38,0,0,1-1.51.58l-1.84.65q-13.71,4.84-27.62,9.06-7.83,2.37-15.71,4.55l.63.48a5,5,0,0,0-3-4.25c-.58-.26-1.09.6-.5.87a4,4,0,0,1,2.46,3.38.51.51,0,0,0,.63.49q15.08-4.17,29.92-9,7.42-2.44,14.79-5.06c1.37-.49,3.41-.89,3.3-2.74a16,16,0,0,0-.77-3l-1.12-4.08-4.75-17.26a.5.5,0,0,0-.48-.37A195.78,195.78,0,0,0,99.34,251q-3.95.94-7.86,2c-1.3.37-2.6.75-3.89,1.14a23.6,23.6,0,0,0-3.24,1.06c-2,1-1.26,3.62-1,5.4.28,2.52.66,5,1.12,7.51a105.11,105.11,0,0,0,4.82,17.25c.22.6,1.19.34,1-.26Z"/><path d="M109.16,336.31A306.2,306.2,0,0,1,94,292.63l-.35.62a241,241,0,0,1,41.79-12.79l-.62-.35a321.09,321.09,0,0,0,13.61,37.95c1.32,3,2.73,6,4.08,9.06.85,1.89,1.36,4-1.09,4.79a36.9,36.9,0,0,1-4.77.94l-20.88,3.85c-3.81.71-7.8,1.83-11.69,1.84-3.41,0-8-2-7.43-6.2.09-.63-.87-.9-1-.26a6.37,6.37,0,0,0,3.5,6.37c2.84,1.58,6.27,1.14,9.33.6,7.84-1.37,15.66-2.88,23.49-4.33l5.9-1.09a17.47,17.47,0,0,0,4.53-1.05c3-1.43,1.59-4.58.55-6.82q-4.87-10.45-9-21.24-4.6-12.16-8.23-24.67a.49.49,0,0,0-.61-.35,241.81,241.81,0,0,0-41.79,12.78.52.52,0,0,0-.35.62,310.08,310.08,0,0,0,15.27,43.92c.26.59,1.12.08.87-.51Z"/><path d="M210.36,285.46q2.05,9,3.25,18.23a.52.52,0,0,0,.64.48q12-2.67,24.24-4.7,6-1,12.08-1.84,3.21-.45,6.42-.84l2.91-.36a11,11,0,0,1,1.29-.12c.59,0,2.44.4,1.62,1.43a.51.51,0,0,0,.49.84l3.71-.68a11.31,11.31,0,0,0,2.44-.53c1.48-.64,1.41-2.06,1.26-3.46-.25-2.23-.45-4.48-.77-6.7-.19-1.32-.55-2.85-1.77-3.62-1.43-.9-3.59-.22-5.14,0q-3.46.5-6.9,1.11c-2.29.42-4.58.88-6.85,1.38-1.1.24-2.2.49-3.29.75l-1.87.46-.94.24a.93.93,0,0,0-.87.57l-.48-.37,0,.13c.24.59,1.21.33,1-.27l-.06-.12a.52.52,0,0,0-.48-.37.77.77,0,0,0-.56,1.39,1.43,1.43,0,0,0,1.23.12c1.1-.19,2.19-.55,3.28-.81q6.68-1.6,13.46-2.7l3.33-.51a18.69,18.69,0,0,1,3.48-.42c2.5.09,2.46,3.38,2.66,5.18l.38,3.36c.12,1,.58,2.48-.07,3.31s-2.05.79-3,1l-3.48.63.49.84a1.86,1.86,0,0,0-.55-2.78,4.08,4.08,0,0,0-2.58-.29c-1.14.11-2.27.27-3.4.41q-7.11.87-14.18,2Q228.3,300,214,303.21l.63.48q-1.2-9.33-3.28-18.5c-.14-.63-1.11-.36-1,.27Z"/><path d="M208.77,253.76l-4.94-15.67-.35.62q13.92-3.53,27.92-6.74,7-1.62,14-3.15l3.39-.74a17.83,17.83,0,0,1,3.63-.78c.29,0,.95.16,1.13.47a3.46,3.46,0,0,1,0,.72,8.32,8.32,0,0,0,.1,1.11,9.56,9.56,0,0,0,2.26,5c.62.72,2.57,1.88,1.47,2.89A18.88,18.88,0,0,1,254,239.5l-3.55,2a.51.51,0,0,0,0,.87,10.61,10.61,0,0,0,8.86,1.78l-.61-.35c1.35,4,3,10.37-1.9,12.77-2.41,1.19-5.38,1.3-8,1.69l-9.17,1.36c-.59.09-.38.93.14,1l2.29.23c.64.07.64-.93,0-1l-2.29-.23.13,1L250.46,259c2.69-.4,5.77-.57,8-2.34,4-3.16,2.54-9,1.16-13.13a.5.5,0,0,0-.61-.35,9.66,9.66,0,0,1-8.1-1.69v.87a67.83,67.83,0,0,0,6.83-4c1.11-.82,1.53-2.05.48-3.11A15.19,15.19,0,0,1,256,233a8.77,8.77,0,0,1-1.35-3.49c-.22-1.4.26-3.43-1.79-3.31a22.79,22.79,0,0,0-3.36.7l-4.36.94-8,1.78q-8,1.78-15.92,3.69-9,2.15-18,4.43a.5.5,0,0,0-.35.61L207.81,254c.19.61,1.15.35,1-.26Z"/><path d="M180.18,144.7a25.26,25.26,0,0,1,7.08-3.63.51.51,0,0,0,.12-.91,33.82,33.82,0,0,1-6.79-4.29c-.34-.27-1,0-.83.49a11.17,11.17,0,0,0,5.55,6c.57.28,1.08-.58.5-.86a10.24,10.24,0,0,1-5.09-5.45l-.83.49a35.11,35.11,0,0,0,7,4.44l.12-.91a25.77,25.77,0,0,0-7.31,3.73c-.52.37,0,1.24.5.86Z"/><path d="M171.31,127.44c3-2.68-.4-7.7-2-10.17-2.28-3.43-5.32-6.45-9.35-7.66a.5.5,0,0,0-.49.83l.81.85c.44.47,1.15-.24.71-.7l-.81-.85-.49.83c3.6,1.08,6.36,3.74,8.46,6.77a28.85,28.85,0,0,1,2.64,4.57c.66,1.49,1.24,3.58-.15,4.82-.48.43.23,1.14.71.71Z"/><path d="M172.26,126.15,178,125l2.79-.57,1.34-.28c.23,0,.45-.1.67-.13a1.47,1.47,0,0,1,.36,0,.31.31,0,0,1,.46-.12.5.5,0,0,0-.71.71c.67.66,1.64-.27,1.28-1-.5-1.08-2.41-.33-3.21-.17L172,125.19c-.63.13-.36,1.09.27,1Z"/><path d="M172.65,86.75a17.65,17.65,0,0,0-10.41-3.28l.25.93a2.8,2.8,0,0,0,1.09-2.91c-.1-1-.49-2.28.22-3.18.4-.5,1.14-.21,1.67-.13l2.55.36,2.64.37a8.13,8.13,0,0,0,1.09.14,1.28,1.28,0,0,0,.43-.06c.26,0,.33-.17.19-.53l.1,0,.35.15,0,0,.15.35,0,.15c.3-.57-.56-1.07-.86-.5a.55.55,0,0,0,.61.85.78.78,0,0,0,.6-.94c-.25-.71-1.08-.41-1.61-.43-.91,0-1.85-.26-2.75-.38l-2.75-.39a5.88,5.88,0,0,0-2.24-.19c-1.1.29-1.49,1.61-1.53,2.61s.84,3.15-.4,3.85a.5.5,0,0,0,.26.93,16.78,16.78,0,0,1,9.91,3.14c.52.38,1-.49.5-.86Z"/><path d="M170.27,73.34a7.9,7.9,0,0,0-7.14-2.44l.62.35-.62-3-.26-1.34a6.66,6.66,0,0,1-.25-1.46A1.26,1.26,0,0,1,164,64.23a4.56,4.56,0,0,1,2.36,1c.54.37,1-.5.51-.86A5.38,5.38,0,0,0,164,63.23a2.46,2.46,0,0,0-2.18,1.18c-.51,1,0,2.21.15,3.19l.78,3.91a.51.51,0,0,0,.62.35,6.84,6.84,0,0,1,6.16,2.19c.43.48,1.14-.23.71-.71Z"/><path d="M167,57.37A11.36,11.36,0,0,0,159.67,55l.5.5V49.36l-.36.48,4.28-.67c.64-.1.37-1.06-.26-1l-4.29.66a.53.53,0,0,0-.37.49v6.09a.5.5,0,0,0,.5.5,10.38,10.38,0,0,1,6.63,2.13c.5.39,1.21-.31.7-.71Z"/><path d="M7.79,79.86c3.28.83,6.88,1.33,10.13.08a8.91,8.91,0,0,0,5.44-5.45l-.84.22a45.09,45.09,0,0,0,16.22,9.12c.62.2.88-.77.27-1A43.93,43.93,0,0,1,23.23,74a.51.51,0,0,0-.84.22c-2,6-9.31,5.94-14.34,4.67a.5.5,0,0,0-.26,1Z"/><path d="M40.74,137.28Q35.88,116,29.47,95.06a.5.5,0,0,0-1,.27,2.41,2.41,0,0,1-.36,1.88c-.35.54.52,1,.87.5a3.35,3.35,0,0,0,.45-2.65l-1,.27q6.4,20.9,11.27,42.22c.14.62,1.11.36,1-.27Z"/><path d="M41.39,231.69,51,236.13c.58.26,1.09-.6.51-.87l-9.59-4.43c-.58-.27-1.09.59-.51.86Z"/><path d="M41.72,227.66a78.54,78.54,0,0,0,15.69,6.43.5.5,0,0,0,.26-1,77.72,77.72,0,0,1-15.44-6.33c-.57-.31-1.08.55-.51.86Z"/><path d="M48,226.21l15.44,6.7c.59.25,1.1-.61.51-.87l-15.44-6.69c-.59-.25-1.1.61-.51.86Z"/><path d="M57.81,226.65l12.57,4.7c.6.23.86-.74.26-1l-12.57-4.71c-.6-.22-.86.74-.26,1Z"/><path d="M60.68,223a120.84,120.84,0,0,0,16.84,5.79.5.5,0,0,0,.26-1,120.38,120.38,0,0,1-16.6-5.69c-.58-.25-1.09.61-.5.86Z"/><path d="M66.54,220.72l19.75,7.69c.6.24.86-.73.27-1l-19.76-7.7c-.6-.23-.86.74-.26,1Z"/><path d="M74.21,219.37l18.22,7.43c.6.25.86-.72.27-1L74.47,218.4c-.59-.24-.85.73-.26,1Z"/><path d="M81.39,218.53l15.46,6.14c.6.24.86-.73.27-1l-15.47-6.15c-.6-.23-.86.73-.26,1Z"/><path d="M85.83,217.21A64,64,0,0,1,103,223.7c.56.31,1.07-.56.51-.87a65.26,65.26,0,0,0-17.39-6.59c-.63-.14-.89.83-.26,1Z"/><path d="M95.29,215.46l13.49,5.78c.59.25,1.1-.61.51-.87l-13.5-5.77c-.58-.26-1.09.61-.5.86Z"/><path d="M100.08,212.6a60.75,60.75,0,0,0,16.54,6.72c.63.15.89-.82.27-1a59.59,59.59,0,0,1-16.3-6.61.5.5,0,0,0-.51.86Z"/><path d="M108.29,211.14l13.95,7.27c.57.29,1.08-.57.5-.87l-13.95-7.26c-.57-.3-1.07.56-.5.86Z"/><path d="M112.85,208.9a64.92,64.92,0,0,1,16.53,7.23c.55.33,1.05-.53.51-.87a66.41,66.41,0,0,0-16.77-7.32.5.5,0,0,0-.27,1Z"/><path d="M120.09,207a105.79,105.79,0,0,1,15.14,6.16c.58.29,1.08-.57.51-.86A106.49,106.49,0,0,0,120.35,206c-.61-.2-.87.77-.26,1Z"/><path d="M127.32,206.09l15.8,6.49c.6.25.86-.72.27-1l-15.81-6.5c-.59-.24-.85.73-.26,1Z"/><path d="M132.63,204.49a61.85,61.85,0,0,1,15,6.45c.55.33,1.05-.54.5-.87a63.09,63.09,0,0,0-15.24-6.55.5.5,0,0,0-.26,1Z"/><path d="M138.91,203.1q7.4,2.93,14.62,6.22c.58.26,1.09-.6.51-.87q-7.35-3.34-14.86-6.31c-.6-.24-.86.73-.27,1Z"/><path d="M145.15,201.74l15.76,6.6c.59.25.85-.71.27-1l-15.76-6.6c-.59-.25-.85.71-.27,1Z"/><path d="M152.4,201.18q7.68,3,15.28,6.13c.6.25.85-.71.27-1q-7.6-3.18-15.28-6.13c-.61-.23-.87.73-.27,1Z"/><path d="M158.06,199.58l14,5.79c.59.25.85-.72.26-1l-14-5.79c-.59-.25-.85.72-.26,1Z"/><path d="M160.93,197.21q8.3,3,16.28,6.65c.58.27,1.09-.59.51-.86q-8.1-3.75-16.52-6.76c-.61-.21-.87.75-.27,1Z"/><path d="M166.29,196A57.42,57.42,0,0,1,182,202c.56.31,1.07-.55.51-.87A59.2,59.2,0,0,0,166.56,195c-.63-.14-.9.83-.27,1Z"/><path d="M172,193.54l14.69,7.24c.57.28,1.08-.58.5-.86l-14.69-7.25c-.57-.28-1.08.58-.5.87Z"/><path d="M177.89,191.46l15.16,8.19c.57.3,1.07-.56.5-.87l-15.16-8.18c-.56-.31-1.07.56-.5.86Z"/><path d="M181.68,189.91a115.94,115.94,0,0,1,16.24,8.19.5.5,0,0,0,.51-.86,118.22,118.22,0,0,0-16.48-8.3c-.6-.24-.86.72-.27,1Z"/><path d="M187,189.47a82.68,82.68,0,0,1,16.24,7.7c.55.34,1.05-.52.5-.86a83,83,0,0,0-16.47-7.8c-.61-.22-.87.75-.27,1Z"/><path d="M199,189.32l10.46,6a.5.5,0,0,0,.51-.86l-10.47-6a.5.5,0,0,0-.5.86Z"/><path d="M205.09,188.1l6.79,3.29c.58.28,1.08-.59.5-.87l-6.79-3.28c-.57-.28-1.08.58-.5.86Z"/><path d="M67.6,102.26a3.22,3.22,0,0,1,2.81,1.12.5.5,0,0,0,.66,0,.52.52,0,0,0,.13-.65,7.2,7.2,0,0,1-.71-3.66l-1,.14.65,2.2a.51.51,0,0,0,.91.12L73,98.87a.5.5,0,0,0-.18-.68.49.49,0,0,0-.68.18l-1.89,2.69.91.12L70.47,99a.5.5,0,0,0-1,.13,8.23,8.23,0,0,0,.84,4.17l.79-.61a4.2,4.2,0,0,0-3.52-1.41.5.5,0,0,0,0,1Z"/><path d="M96.42,103.56a5.47,5.47,0,0,1,2.92,2.19.5.5,0,0,0,.92-.38l-.74-3.16-1,.26.56,2.11a.51.51,0,0,0,.84.22,11.82,11.82,0,0,0,2.67-3.3c.31-.57-.55-1.07-.86-.51a10.8,10.8,0,0,1-2.52,3.1l.84.22-.56-2.1a.5.5,0,0,0-1,.26l.74,3.16.91-.38a6.53,6.53,0,0,0-3.51-2.66c-.62-.19-.88.78-.27,1Z"/><path d="M120.46,88.88l4.1,3.43a.5.5,0,0,0,.71-.7,3.44,3.44,0,0,1-.82-2.71l-1,.13.58,1.47c.08.19.26.4.49.37A3.46,3.46,0,0,0,127.23,89c.28-.58-.58-1.09-.86-.51a2.45,2.45,0,0,1-1.83,1.38l.48.37-.59-1.48a.5.5,0,0,0-1,.14,4.35,4.35,0,0,0,1.11,3.41l.71-.7-4.1-3.44a.52.52,0,0,0-.71,0,.5.5,0,0,0,0,.71Z"/><path d="M126.21,117.86l3.18,3c.34.32,1,0,.83-.49a6.62,6.62,0,0,1-.33-3.24h-1l1,2.49a.51.51,0,0,0,1,0,6,6,0,0,1,2.3-2.76c.54-.34,0-1.21-.5-.86a7.15,7.15,0,0,0-2.77,3.35h1l-1-2.49a.54.54,0,0,0-.49-.36.5.5,0,0,0-.48.36,7.71,7.71,0,0,0,.34,3.78l.83-.49-3.18-3c-.46-.44-1.17.26-.7.71Z"/><path d="M146,144.64a9.1,9.1,0,0,1,3.47,2.25l.71-.71a3.3,3.3,0,0,1-1.09-2.53l-.75.43a3.45,3.45,0,0,1,1.26,1.68.51.51,0,0,0,.92.12l1.58-3c.3-.57-.56-1.08-.86-.51l-1.59,3,.92.12a4.75,4.75,0,0,0-1.72-2.28.51.51,0,0,0-.76.44,4.3,4.3,0,0,0,1.38,3.24c.47.43,1.16-.25.71-.71a10.24,10.24,0,0,0-3.91-2.5c-.61-.22-.87.75-.27,1Z"/><path d="M128.09,168.67l3.73,2.87c.4.31,1-.28.69-.68a4.11,4.11,0,0,1-.72-2.86l-.93.25,1.51,2.55a.5.5,0,0,0,.91-.12,9.11,9.11,0,0,1,1.21-3.14c.34-.55-.52-1-.86-.5a9.78,9.78,0,0,0-1.31,3.37l.91-.12-1.51-2.54a.5.5,0,0,0-.93.25,5,5,0,0,0,.85,3.36l.69-.68-3.74-2.87a.5.5,0,0,0-.68.18.5.5,0,0,0,.18.68Z"/><path d="M79.29,147.5a2.36,2.36,0,0,1,2,.73c.33.34,1,0,.84-.49a6.49,6.49,0,0,1-.43-3l-.85.36a7.19,7.19,0,0,1,1.32,2.47.5.5,0,0,0,.91.12,6.39,6.39,0,0,0,1-3l-.5.5,1.37-.07c.64,0,.64-1,0-1l-1.37.07a.51.51,0,0,0-.5.5,5.47,5.47,0,0,1-.87,2.48l.91.12a8.33,8.33,0,0,0-1.58-2.91c-.3-.37-.82,0-.85.35a7.23,7.23,0,0,0,.46,3.26l.84-.49a3.44,3.44,0,0,0-3-1,.5.5,0,0,0,.27,1Z"/><path d="M104.47,128.5l4.51,3.95a.5.5,0,0,0,.78-.6A23.46,23.46,0,0,1,108.4,128l-.74.57a4.83,4.83,0,0,1,1.91,1.76.51.51,0,0,0,.79.1,8.5,8.5,0,0,0,1.57-3,.5.5,0,0,0-1-.26,7.26,7.26,0,0,1-1.32,2.56l.78.1a6.05,6.05,0,0,0-2.26-2.12.51.51,0,0,0-.74.57,25.46,25.46,0,0,0,1.47,4l.79-.6-4.52-4c-.48-.43-1.19.28-.7.7Z"/><path d="M72.42,124.86a6,6,0,0,1,3.74,1.36c.34.28,1,0,.83-.49l-1.19-3.11-.91.39L76.3,125a.51.51,0,0,0,.87,0c.54-.82,1.11-1.62,1.7-2.4a.49.49,0,0,0-.17-.68.51.51,0,0,0-.69.18c-.6.77-1.17,1.57-1.71,2.39h.87l-1.42-2a.5.5,0,0,0-.91.39L76,126l.84-.49a7.1,7.1,0,0,0-4.45-1.65.5.5,0,0,0,0,1Z"/><path d="M107.51,153.11a6.93,6.93,0,0,1,3.7,2.53.5.5,0,0,0,.86-.51,18.7,18.7,0,0,1-1.35-4.26l-.91.39a8.86,8.86,0,0,1,1.61,3.56c.11.52.81.43,1,0L113.7,151c.21-.61-.75-.87-1-.27l-1.32,3.82h1a9.36,9.36,0,0,0-1.71-3.8.5.5,0,0,0-.91.38,19.23,19.23,0,0,0,1.45,4.5l.86-.51a8,8,0,0,0-4.29-3,.5.5,0,0,0-.27,1Z"/><path d="M82.42,167.24a5.79,5.79,0,0,1,4,2.6c.28.46,1.11.17.91-.39L86,165.83l-.91.39a16.12,16.12,0,0,1,1.82,3.07c.19.41.81.26.92-.12A7.56,7.56,0,0,1,89.75,166l-.49.13,1.33.3c.63.15.89-.81.27-1l-.89-.21a1.57,1.57,0,0,0-.71-.1c-.41.11-.81.77-1.05,1.1a8.53,8.53,0,0,0-1.34,2.7l.92-.12A16.79,16.79,0,0,0,86,165.71c-.31-.41-1.12-.19-.91.39l1.27,3.62.92-.39a6.79,6.79,0,0,0-4.56-3.06c-.63-.1-.9.86-.26,1Z"/><path d="M104.72,182.84a8.31,8.31,0,0,1,4.74,2.22c.4.38,1.1-.11.79-.6L108.68,182l-.79.61,1.7,1.76a.5.5,0,0,0,.85-.35,4.64,4.64,0,0,1,1.33-3.4c.45-.46-.26-1.17-.71-.71a5.67,5.67,0,0,0-1.62,4.11l.85-.35-1.69-1.77a.51.51,0,0,0-.79.61l1.57,2.43.79-.6a9.41,9.41,0,0,0-5.45-2.52.5.5,0,0,0,0,1Z"/><path d="M120.26,186.13a2.56,2.56,0,0,1,2.81,1.86l.91-.38a5.67,5.67,0,0,1-.39-3.2l-.84.22,1.79,2.17c.3.37.82,0,.85-.35a3.85,3.85,0,0,1,1.26-2.51c.47-.44-.23-1.15-.71-.71a5,5,0,0,0-1.55,3.22l.85-.35-1.78-2.18a.5.5,0,0,0-.83.22,6.77,6.77,0,0,0,.49,4c.23.53,1,.15.91-.39a3.56,3.56,0,0,0-4-2.55.51.51,0,0,0-.35.61.52.52,0,0,0,.62.35Z"/><path d="M60.13,140.25a9.24,9.24,0,0,1,3.45,2.81.5.5,0,0,0,.68.18.51.51,0,0,0,.18-.69,22.06,22.06,0,0,1-2.21-4.12l-.84.49a9.27,9.27,0,0,1,1.5,2.87.5.5,0,0,0,1,0l1.61-5.25c.19-.61-.77-.88-1-.26l-1.61,5.24h1a10.43,10.43,0,0,0-1.75-3.31c-.3-.39-1,0-.84.49a24,24,0,0,0,2.32,4.36l.86-.51a10,10,0,0,0-3.8-3.16c-.58-.27-1.09.59-.51.86Z"/><path d="M145,125.66a19.15,19.15,0,0,1,3.61,2c.46.34,1-.39.6-.78a3.48,3.48,0,0,1-1-2.47l-.75.43a6.34,6.34,0,0,1,2.07,1.75.5.5,0,0,0,.93-.25,5.67,5.67,0,0,1,1.08-3,.5.5,0,0,0-.18-.68.5.5,0,0,0-.68.18,6.63,6.63,0,0,0-1.22,3.51l.93-.25A7.36,7.36,0,0,0,147.9,124a.5.5,0,0,0-.75.43,4.5,4.5,0,0,0,1.35,3.18l.6-.79a19.12,19.12,0,0,0-3.6-2,.53.53,0,0,0-.69.18.51.51,0,0,0,.18.69Z"/><path d="M91.37,261.11l2.52,2.72c.32.35,1,0,.83-.49l-1-2.72-.73.56a2,2,0,0,1,1,1.42.54.54,0,0,0,.37.48.5.5,0,0,0,.56-.23l1.59-2.78a.5.5,0,0,0-.86-.5L94,262.34l.93.26a3,3,0,0,0-1.47-2.28c-.35-.2-.89.14-.73.57l1,2.72.84-.49-2.52-2.72c-.44-.47-1.14.23-.71.71Z"/><path d="M112.65,260.72l3.85,1.84c.41.2,1-.23.68-.69l-1.7-2.55-.56.73a4.59,4.59,0,0,1,2.29,1.83c.24.38,1,.28.93-.25a5.05,5.05,0,0,1,.93-3.51.5.5,0,0,0-.18-.68.51.51,0,0,0-.69.18,6,6,0,0,0-1.06,4l.93-.25a5.69,5.69,0,0,0-2.89-2.29.5.5,0,0,0-.56.73l1.7,2.56.68-.69-3.85-1.83a.5.5,0,0,0-.68.18.5.5,0,0,0,.18.68Z"/><path d="M98.19,273.57l2.9,3.29c.35.4.93,0,.83-.48l-.93-4.33-1,.27a6,6,0,0,0,2.36,3.43.5.5,0,0,0,.75-.44,5.13,5.13,0,0,1,1.91-3.57.5.5,0,0,0-.7-.71,6.13,6.13,0,0,0-2.21,4.28l.76-.43a4.92,4.92,0,0,1-1.91-2.83c-.15-.63-1.1-.36-1,.27l.93,4.32.83-.48-2.89-3.29c-.42-.49-1.13.22-.71.7Z"/><path d="M123.36,267.53a12.79,12.79,0,0,1,3.94,2.22A.5.5,0,0,0,128,269a2.9,2.9,0,0,1-.53-2.38l-.84.22,2.72,2.77a.5.5,0,0,0,.85-.35,8.63,8.63,0,0,1,.85-4c.28-.58-.58-1.09-.86-.51a9.65,9.65,0,0,0-1,4.48l.85-.36-2.71-2.77a.51.51,0,0,0-.84.22,4.05,4.05,0,0,0,.79,3.36L128,269a13.87,13.87,0,0,0-4.38-2.47c-.61-.21-.88.75-.27,1Z"/><path d="M102.39,300.2a11.65,11.65,0,0,0,3.3,2.4.51.51,0,0,0,.74-.56l-.58-2.22-.83.48a1.54,1.54,0,0,1,.55,1.55.5.5,0,0,0,1,.27,27.75,27.75,0,0,1,2.48-4.93c.34-.55-.52-1.05-.86-.51a29,29,0,0,0-2.58,5.17l1,.27a2.48,2.48,0,0,0-.81-2.52.5.5,0,0,0-.83.48l.57,2.22.74-.56a11,11,0,0,1-3.11-2.25c-.44-.47-1.15.24-.7.71Z"/><path d="M121.87,305.93l4,3c.35.26.85-.17.73-.56l-1.18-3.73-.83.49a7.64,7.64,0,0,1,1.77,3.39c.11.46.88.49,1,0a13.58,13.58,0,0,1,1.23-3.69c.29-.57-.57-1.08-.86-.5a14.3,14.3,0,0,0-1.33,3.92h1a8.68,8.68,0,0,0-2-3.83.5.5,0,0,0-.83.48l1.18,3.73.73-.56-4-3a.5.5,0,0,0-.68.18.51.51,0,0,0,.18.69Z"/><path d="M110.37,323.38a13.87,13.87,0,0,1,4,2.64.5.5,0,0,0,.7-.71,8.76,8.76,0,0,1-1.67-3.39l-.84.49a9,9,0,0,1,1.71,2.94.5.5,0,0,0,1-.13,6,6,0,0,1,1.77-3.89.5.5,0,0,0-.71-.71,7.13,7.13,0,0,0-2.06,4.6l1-.13a10.2,10.2,0,0,0-2-3.39c-.34-.39-.95,0-.84.49a9.93,9.93,0,0,0,1.94,3.83l.7-.71a15.11,15.11,0,0,0-4.49-2.9.51.51,0,0,0-.61.35.52.52,0,0,0,.35.62Z"/><path d="M133.35,325.31a10.55,10.55,0,0,1,3.21,2.28.5.5,0,0,0,.78-.6,4.76,4.76,0,0,1-.27-2.74l-.92.12,1.31,3.05a.51.51,0,0,0,.92-.12l1.19-5.64c.14-.62-.83-.89-1-.26l-1.2,5.64.92-.12L137,323.87a.51.51,0,0,0-.92.12,6,6,0,0,0,.38,3.5l.79-.6a11.4,11.4,0,0,0-3.41-2.44.52.52,0,0,0-.69.18.51.51,0,0,0,.18.68Z"/><path d="M123.87,289.32a10.89,10.89,0,0,1,3.81,3.06c.37.46,1-.12.79-.6a8.72,8.72,0,0,1-1-4.77l-1,.13,1.32,3.59a.51.51,0,0,0,.92.12l2.29-4.37c.3-.57-.57-1.07-.87-.5l-2.29,4.37.92.12-1.33-3.6a.5.5,0,0,0-1,.14,9.77,9.77,0,0,0,1.17,5.27l.79-.61a11.83,11.83,0,0,0-4-3.22c-.58-.28-1.09.58-.51.87Z"/><path d="M211.42,242.9a7.42,7.42,0,0,1,2.74,2.54.5.5,0,0,0,.86-.51,7.77,7.77,0,0,1-.79-2.83l-.93.25,1.3,2.08a.51.51,0,0,0,.92-.12,17.71,17.71,0,0,1,1.68-3.16c.36-.54-.51-1-.86-.51a19,19,0,0,0-1.79,3.4l.92-.12-1.31-2.07c-.24-.4-1-.27-.93.25a8.87,8.87,0,0,0,.93,3.34l.86-.51a8.35,8.35,0,0,0-3.1-2.89c-.57-.3-1.07.56-.5.86Z"/><path d="M230.86,246.09a5.62,5.62,0,0,1,3.63,3,.5.5,0,0,0,.91-.39l-1.25-3.53-.91.39,1.6,2.26a.5.5,0,0,0,.86,0l1.48-3.18A.52.52,0,0,0,237,244a.51.51,0,0,0-.68.18l-1.48,3.19h.86l-1.6-2.27a.5.5,0,0,0-.62-.2.48.48,0,0,0-.29.59l1.25,3.53.91-.39a6.6,6.6,0,0,0-4.23-3.49.5.5,0,0,0-.26,1Z"/><path d="M240.43,232.52a19.51,19.51,0,0,0,4.87,3.95.5.5,0,0,0,.69-.68,8.07,8.07,0,0,1-1-4.19l-.93.25,1.42,3.12a.5.5,0,0,0,.78.1,6.26,6.26,0,0,0,1.49-3.68c.05-.64-.95-.64-1,0a5.13,5.13,0,0,1-1.19,3l.78.1-1.42-3.11c-.22-.48-.92-.21-.93.25a9.12,9.12,0,0,0,1.13,4.69l.69-.68a18.41,18.41,0,0,1-4.67-3.8c-.43-.48-1.13.23-.71.71Z"/><path d="M247.27,253.69l3.61,2.32a.5.5,0,0,0,.73-.56l-.69-3.4-1,.27,1.34,3.22a.5.5,0,0,0,1,0l1.23-3.8c.2-.62-.77-.88-1-.27l-1.23,3.8h1l-1.34-3.22a.5.5,0,0,0-1,.27l.69,3.39.73-.56-3.61-2.32c-.54-.35-1,.51-.5.86Z"/><path d="M249.62,292.43a4.66,4.66,0,0,1,2.91,1.83.5.5,0,0,0,.93-.25l.3-2.75-1,.13.67,2.69a.51.51,0,0,0,.91.12l1.56-3.3a.51.51,0,0,0-.18-.69.5.5,0,0,0-.68.18l-1.56,3.3.91.12-.66-2.68a.5.5,0,0,0-.55-.36.5.5,0,0,0-.43.49l-.3,2.75.93-.25a5.61,5.61,0,0,0-3.5-2.29c-.63-.13-.9.84-.27,1Z"/><path d="M261.2,289.6a6.44,6.44,0,0,1,3,2.64.49.49,0,0,0,.62.2.51.51,0,0,0,.29-.59l-.49-3.14-.83.49a4.81,4.81,0,0,1,1.35,2.35.5.5,0,0,0,1,0l1-3.64a.5.5,0,0,0-1-.27l-1,3.65h1a5.78,5.78,0,0,0-1.61-2.8.5.5,0,0,0-.83.48l.49,3.15.91-.39a7.56,7.56,0,0,0-3.63-3.09.49.49,0,0,0-.61.35.51.51,0,0,0,.35.61Z"/><path d="M216.74,297.31l3.23,2.41c.37.28.82-.18.73-.56l-.86-3.87-.83.48,2.44,2.72a.5.5,0,0,0,.79-.1l1.42-3.14a.52.52,0,0,0-.18-.69.5.5,0,0,0-.68.18l-1.43,3.15.79-.1-2.45-2.72c-.35-.4-.94,0-.83.48l.86,3.87.73-.56-3.22-2.41a.5.5,0,1,0-.51.86Z"/><path d="M204.92,259.86q-6.51-19.62-11.47-39.7a.51.51,0,0,0-.61-.35,1.58,1.58,0,0,0-1.34,1.26.5.5,0,0,0,1,.26l.63-.55-.61-.35q4.95,20.06,11.46,39.69c.2.61,1.17.35,1-.26Z"/><path d="M218.06,318.59A98.74,98.74,0,0,0,214.74,303a.5.5,0,0,0-1,.26,97.74,97.74,0,0,1,3.28,15.33c.09.63,1.09.63,1,0Z"/><path d="M239.11,304.61a127.49,127.49,0,0,1,4.78,20.4c.06.43.73.47.91.12l4.16-7.92-.92-.39c-.45,2.91,4.86,1.47,6.13,1.29l13-1.83,12.71-1.8c2.06-.29,4.3-.69,5.79,1.12.93,1.14,1.5,2.44,2.76,3.27.54.36,1-.51.5-.86-1.24-.82-1.75-2.26-2.73-3.33a4.64,4.64,0,0,0-3.33-1.46,26.9,26.9,0,0,0-5,.54l-5.86.83-11.73,1.66-5.62.79c-.57.09-5.8,1.11-5.63,0,.08-.52-.63-.93-.92-.38l-4.15,7.91.91.12a128.17,128.17,0,0,0-4.77-20.39c-.2-.61-1.17-.35-1,.26Z"/><path d="M295.34,292.27l1.12,8.67.58,4.52c.12.9.13,2,1,2.52a3.75,3.75,0,0,0,2.78.2l4.3-.71,8.79-1.46c.63-.1.36-1.07-.27-1L306,306.3l-3.61.6-1.9.32a3.36,3.36,0,0,1-1.75,0c-.69-.31-.65-1.16-.73-1.79s-.15-1.16-.22-1.74l-.49-3.82-1-7.63c-.08-.63-1.08-.64-1,0Z"/><path d="M309,316.71a8.49,8.49,0,0,1-4.69-1.79l.15.36a51.59,51.59,0,0,0,.3-6.33l-.64.48a20.67,20.67,0,0,0,8.18,0l-.61-.61a24.76,24.76,0,0,0-.86,7.85c0,.65,1,.65,1,0a24,24,0,0,1,.82-7.59.5.5,0,0,0-.61-.61,19.32,19.32,0,0,1-7.65-.05.51.51,0,0,0-.63.49c0,1.13,0,2.27-.06,3.41,0,.59-.08,1.19-.13,1.78s-.28,1.19.09,1.53a7.91,7.91,0,0,0,2.47,1.42,9.45,9.45,0,0,0,2.87.62c.65,0,.64-1,0-1Z"/><path d="M312.47,240.54q-3.56-29.25-4.67-58.71a.51.51,0,0,0-.37-.48,1.37,1.37,0,0,0-1.57,2.06c.39.51,1.26,0,.87-.5l.44-.6-.37-.48q1.13,29.43,4.67,58.71c.07.63,1.08.64,1,0Z"/><path d="M312.05,238.93a11.21,11.21,0,0,0,5.45,2.35.5.5,0,0,0,.61-.35.49.49,0,0,0-.34-.61,10.5,10.5,0,0,1-5-2.09.5.5,0,0,0-.7,0,.48.48,0,0,0,0,.7Z"/><path d="M310.24,233.69a32.3,32.3,0,0,0,12.56,5.56c.63.12.9-.84.27-1a31.2,31.2,0,0,1-12.33-5.46c-.52-.38-1,.49-.5.87Z"/><path d="M310.3,228.58a61.38,61.38,0,0,0,16.77,9.35c.61.22.87-.75.27-1A59.48,59.48,0,0,1,311,227.87c-.5-.39-1.21.31-.71.71Z"/><path d="M309.73,224.07c4.82,3.15,9.79,6.09,14.87,8.79.57.3,1.08-.56.51-.86q-7.64-4.06-14.87-8.79c-.54-.35-1.05.51-.51.86Z"/><path d="M309.72,221.67,324.6,229c.57.28,1.08-.58.5-.86l-14.87-7.35c-.58-.28-1.09.58-.51.86Z"/><path d="M308.27,215.92a94,94,0,0,0,14.92,8.2c.59.26,1.1-.61.51-.86a93.39,93.39,0,0,1-14.93-8.21c-.53-.36-1,.51-.5.87Z"/><path d="M308.5,211.22q7,4.64,14,9.33c.54.36,1-.51.51-.87q-7-4.69-14-9.32c-.54-.36-1,.51-.51.86Z"/><path d="M306.87,206.67a70.14,70.14,0,0,1,14.2,9.77c.48.42,1.19-.28.71-.71a71.14,71.14,0,0,0-14.41-9.92c-.57-.3-1.08.56-.5.86Z"/><path d="M307.84,202.31a159.44,159.44,0,0,1,14.43,8.25c.55.35,1.05-.52.51-.86a158.43,158.43,0,0,0-14.43-8.25c-.58-.29-1.08.57-.51.86Z"/><path d="M306.82,198.08l13.45,7.31c.56.31,1.07-.55.5-.86l-13.44-7.31c-.57-.31-1.07.55-.51.86Z"/><path d="M307.35,191.74A70.86,70.86,0,0,1,318.7,200c.48.43,1.19-.28.71-.71a72.85,72.85,0,0,0-11.56-8.42.5.5,0,0,0-.5.86Z"/><path d="M306.48,186.78l12.32,8c.54.36,1-.51.51-.86l-12.32-8c-.54-.35-1,.51-.51.86Z"/><path d="M304.46,183.53l12.48,5.87c.58.28,1.09-.59.51-.86L305,182.67c-.58-.27-1.09.59-.5.86Z"/><path d="M303.11,180.25l14.35,6c.59.25.85-.72.27-1l-14.36-6c-.59-.25-.85.71-.26,1Z"/><path d="M308.43,179.15a84.84,84.84,0,0,1,11,3.73c.59.25.85-.72.26-1a86.29,86.29,0,0,0-11-3.74.5.5,0,0,0-.27,1Z"/><path d="M243.13,187.48a77.8,77.8,0,0,1,3.66,26.46.51.51,0,0,0,.5.5c3.16.22,5.43-2.2,7.7-4,3.06-2.44,6.8-3.36,10.56-4.15,8.2-1.72,16.76-3.48,25.06-1.31a.5.5,0,0,0,.48-.84c-3.18-3.41-3.63-8.22-3.65-12.68,0-2.52.1-5-.15-7.57-.08-.81-.59-3.08-1.84-1.95-.48.44.23,1.14.71.71l.16-.15-.49.13c.72.14.59,3.07.6,3.7,0,1.14,0,2.28,0,3.42a50.5,50.5,0,0,0,.21,6.15,15.49,15.49,0,0,0,3.72,9l.49-.84c-8-2.09-16.29-.61-24.26,1-3.64.75-7.46,1.45-10.66,3.47-2.73,1.72-5.11,5.18-8.66,4.93l.5.5a78.39,78.39,0,0,0-3.7-26.73c-.19-.61-1.16-.35-1,.27Z"/><path d="M292.44,185.08c.79-.43,1.93,5,2.05,5.54.41,1.8.76,3.6,1.05,5.42a85.92,85.92,0,0,1,1,11.55c0,.24.23.53.5.5l3.16-.38a.51.51,0,0,0,.43-.75,85.5,85.5,0,0,1-4.75-14q-.84-3.41-1.38-6.87c-.33-2.06-.49-4.19-1.75-5.93a.5.5,0,0,0-.86.5,9.05,9.05,0,0,1,.81,4c0,.64,1,.64,1,0a10,10,0,0,0-.95-4.54l-.86.5c1.37,1.9,1.42,4.39,1.79,6.62s.88,4.59,1.46,6.86a86.4,86.4,0,0,0,4.63,13.35l.43-.75-3.16.38.5.5a88.44,88.44,0,0,0-1.54-14.42c-.45-2.34-1-4.7-1.65-7-.32-1.08-1.1-2.71-2.46-2-.57.31-.06,1.17.5.87Z"/><path d="M40.62,227.08a16.63,16.63,0,0,0,6.16-.5.51.51,0,0,0,.35-.61q-4.83-35.58-12.74-70.66c-.25-1.11-.36-2.57-1.13-3.47s-1.8-.75-2.82-.66l-10,1c-.64.06-.64,1.06,0,1l8.35-.8c1.34-.12,3.52-.79,4.1.89a36.64,36.64,0,0,1,.94,4q1.84,8.25,3.51,16.54,3.38,16.71,6.06,33.53,1.5,9.44,2.78,18.92l.35-.62a16,16,0,0,1-5.89.46c-.64-.07-.63.93,0,1Z"/><path d="M65.85,214.5c-4.34-1.07-6.46-5.4-7.75-9.31-1.71-5.19-2.85-10.61-4.21-15.9q-4.41-17.26-8.58-34.6-2.37-9.85-4.66-19.75c-.15-.63-1.11-.36-1,.27q4.2,18.07,8.66,36.1,2.27,9.13,4.59,18.25c1.39,5.45,2.53,11.07,4.38,16.39,1.41,4.09,3.75,8.4,8.28,9.51.62.15.89-.81.26-1Z"/><path d="M28.76,94.93a28.33,28.33,0,0,0,8.18-9.72L36,85.09A5.64,5.64,0,0,0,38.13,88c.52.38,1-.48.5-.86A4.61,4.61,0,0,1,37,84.83a.5.5,0,0,0-.91-.12,27.23,27.23,0,0,1-7.83,9.36c-.5.38,0,1.25.51.86Z"/><path d="M13.18,93.43A52.64,52.64,0,0,1,21,93.26c.63,0,1.26.08,1.88.14a5.12,5.12,0,0,1,1.75.26A10.28,10.28,0,0,1,26.19,95l1.55,1.35c.48.43,1.19-.28.7-.7l-1.65-1.45a12,12,0,0,0-1.66-1.45,4,4,0,0,0-1.5-.29c-.68-.07-1.35-.13-2-.17a51.46,51.46,0,0,0-8.42.13c-.63.06-.64,1.06,0,1Z"/><path d="M97.38,357.23,82.67,316.91l-7.36-20.17-3.77-10.31c-1.14-3.13-2.17-6.33-3.46-9.41-1-2.28-2.81-4.71-5.61-4.28A3.68,3.68,0,0,0,60,274.51c-.62.91-1.19,2.68-2.52,2.62-.64,0-.64,1,0,1,1.92.08,2.53-1.95,3.47-3.24a2.83,2.83,0,0,1,4-.6A7.37,7.37,0,0,1,67.4,278c2.46,6.37,4.69,12.83,7,19.24l14,38.45,8,21.81c.22.6,1.19.34,1-.27Z"/><path d="M85.29,356.21l8.62,3c.61.21.88-.75.27-1l-8.63-3c-.6-.21-.87.76-.26,1Z"/><path d="M85.78,352.81l10.63,4.27c.59.24.85-.73.26-1l-10.62-4.27c-.6-.24-.86.73-.27,1Z"/><path d="M86.14,347.46l8.15,5.36c.54.35,1-.51.51-.86l-8.16-5.36c-.53-.35-1,.51-.5.86Z"/><path d="M77.05,336.76l14.66,9.11c.55.34,1.05-.52.51-.86l-14.66-9.12c-.55-.34-1,.53-.51.87Z"/><path d="M72.68,328.63l15.79,9.8c.55.34,1-.52.51-.86l-15.8-9.81c-.55-.34-1.05.53-.5.87Z"/><path d="M71.25,319.45A106.86,106.86,0,0,1,87,331.52c.47.43,1.18-.27.71-.71a108.64,108.64,0,0,0-15.93-12.23c-.54-.34-1,.52-.5.87Z"/><path d="M68,311.58l16.64,10a.5.5,0,0,0,.51-.86l-16.65-10a.5.5,0,0,0-.5.86Z"/><path d="M63.47,300.3a82.4,82.4,0,0,1,14.31,9.59c.49.41,1.2-.3.71-.71A83.41,83.41,0,0,0,64,299.43c-.57-.3-1.07.56-.5.87Z"/><path d="M60.54,293.15l17,8.42c.57.29,1.08-.58.5-.86l-17-8.42c-.57-.28-1.08.58-.5.86Z"/><path d="M59.18,284.31q6.85,4.15,13.4,8.8c.53.38,1-.49.5-.86q-6.54-4.63-13.4-8.8c-.55-.34-1,.53-.5.86Z"/><path d="M58.74,278.47l12.93,7.83a.5.5,0,0,0,.51-.87L59.24,277.6a.5.5,0,0,0-.5.87Z"/><path d="M61,275.75l4.84,2.85a.5.5,0,0,0,.51-.86l-4.85-2.85a.5.5,0,0,0-.5.86Z"/><path d="M158,329.1a27.64,27.64,0,0,0,11.79,3.47c.64,0,.64-1,0-1a26.35,26.35,0,0,1-11.28-3.33.5.5,0,0,0-.51.86Z"/><path d="M158.91,322.86l8.23,3.77c.58.27,1.09-.59.5-.86L159.41,322c-.58-.26-1.09.6-.5.87Z"/><path d="M154.66,315.27l8.19,3.38c.59.25.85-.72.27-1l-8.19-3.38c-.6-.25-.86.72-.27,1Z"/><path d="M151.16,306.07l12.48,6.83c.57.31,1.07-.56.51-.87l-12.48-6.82c-.57-.31-1.07.55-.51.86Z"/><path d="M148,298.74A104.29,104.29,0,0,1,163.28,305c.57.28,1.08-.58.5-.87a105.52,105.52,0,0,0-15.55-6.32c-.61-.2-.88.77-.26,1Z"/><path d="M144.84,290.78a92.92,92.92,0,0,0,14.22,5.51.5.5,0,0,0,.27-1,89.9,89.9,0,0,1-14-5.41c-.57-.28-1.08.59-.5.87Z"/><path d="M143.59,282a58.19,58.19,0,0,1,12,3.69c.58.26,1.09-.6.5-.86a58.48,58.48,0,0,0-12.2-3.79c-.63-.12-.9.84-.27,1Z"/><path d="M142.13,274.82l11.1,3.79c.61.21.87-.75.27-1l-11.1-3.8c-.61-.21-.88.76-.27,1Z"/><path d="M137.37,264.06l14.51,5.65c.6.23.86-.74.26-1l-14.5-5.64c-.6-.24-.86.73-.27,1Z"/><path d="M141.18,259.84a20.28,20.28,0,0,1,7.15,2.77c.55.34,1-.52.5-.86a20.69,20.69,0,0,0-7.38-2.87c-.63-.11-.9.85-.27,1Z"/><path d="M135.7,250.72a73.56,73.56,0,0,0,11.82,6c.59.24.85-.73.26-1a71,71,0,0,1-11.57-6c-.55-.34-1.05.52-.51.87Z"/><path d="M134.38,242.82l7.6,5c.54.35,1.05-.51.51-.87l-7.6-5c-.54-.35-1,.51-.51.87Z"/><path d="M138.08,239.94l.48.48a.34.34,0,0,0,.16.1.39.39,0,0,0,.38,0,.29.29,0,0,0,.16-.1l.08-.1a.45.45,0,0,0,.07-.25l0-.14a.46.46,0,0,0-.13-.22l-.48-.48a.34.34,0,0,0-.16-.1.39.39,0,0,0-.38,0,.29.29,0,0,0-.16.1l-.08.1a.45.45,0,0,0-.07.25l0,.14a.42.42,0,0,0,.13.22Z"/><path d="M224,314.14a9.94,9.94,0,0,0,6.07,1.62,11.37,11.37,0,0,0,3.1-.72,1.68,1.68,0,0,1,2.17.65c.43.58.81,1.21,1.21,1.81l2.29,3.44a31.87,31.87,0,0,0,2.07,3,1.66,1.66,0,0,0,1.88.63,3.28,3.28,0,0,0,1-.67c0-.05,1.41-1.23,1.45-.55s1,.65,1,0a1.13,1.13,0,0,0-1-1.11,2.33,2.33,0,0,0-2,.85c-.43.38-.78.83-1.46.26a3.94,3.94,0,0,1-.62-.89l-1.27-1.89-2.52-3.79a8.67,8.67,0,0,0-2.15-2.72c-1-.6-1.91-.12-2.88.21a8.94,8.94,0,0,1-7.77-1c-.54-.36-1,.51-.5.86Z"/><path d="M294.69,320a46.74,46.74,0,0,1-1.16-19.37.52.52,0,0,0-.23-.56,2.37,2.37,0,0,1-1.26-1.95l-.85.36,3.81,4.59a16.45,16.45,0,0,1,1.88,2.37,6,6,0,0,1,.57,2.9q.23,6.09.43,12.17c0,.64,1,.65,1,0-.16-4.42-.12-8.9-.48-13.31-.14-1.76-1.06-2.87-2.15-4.18l-4.36-5.25a.5.5,0,0,0-.85.35,3.38,3.38,0,0,0,1.76,2.81l-.23-.56a47.92,47.92,0,0,0,1.15,19.9.5.5,0,0,0,1-.27Z"/><path d="M9,63.34,15.36,67a.5.5,0,0,0,.5-.86L9.47,62.47a.5.5,0,0,0-.5.87Z"/><path d="M11.42,60.35l7.72,5.3c.53.36,1-.5.5-.87l-7.71-5.29c-.53-.37-1,.5-.51.86Z"/><path d="M15,56.76l10,7c.52.37,1-.5.5-.87l-9.95-7c-.52-.38-1,.49-.5.86Z"/><path d="M22.51,55a66,66,0,0,0,10.64,6.69c.58.29,1.08-.58.51-.87A65.54,65.54,0,0,1,23,54.17c-.51-.39-1,.48-.51.86Z"/><path d="M28.83,54a78.62,78.62,0,0,1,12,6.35c.55.35,1.05-.51.51-.86a79.09,79.09,0,0,0-12-6.35c-.59-.25-1.1.61-.51.86Z"/><path d="M36.67,52.53a127.88,127.88,0,0,1,11.91,4.83c.58.27,1.09-.59.51-.87q-6-2.76-12.15-4.93c-.61-.21-.87.76-.27,1Z"/><path d="M41.52,50.54l16.81,6.39c.61.23.87-.74.27-1L41.78,49.58c-.6-.23-.86.73-.26,1Z"/><path d="M49.64,49.75,64,55.21c.61.23.87-.73.27-1L49.91,48.78c-.6-.22-.86.74-.27,1Z"/><path d="M54.79,47.37q7.17,3.18,14.62,5.7c.62.2.88-.76.27-1q-7.32-2.46-14.39-5.59c-.58-.26-1.09.6-.5.86Z"/><path d="M61,43.23Q68.76,46.79,76.7,50c.6.24.86-.72.27-1q-7.81-3.19-15.51-6.7c-.58-.26-1.09.6-.5.86Z"/><path d="M69.85,41.84A83.55,83.55,0,0,0,86.67,50c.61.21.87-.75.27-1a82.3,82.3,0,0,1-16.58-8c-.55-.35-1,.52-.51.86Z"/><path d="M77.45,39.13a100.77,100.77,0,0,0,15.93,9.09c.59.26,1.09-.6.51-.87A101.6,101.6,0,0,1,78,38.27c-.53-.37-1,.49-.5.86Z"/><path d="M86.59,37.71l12,6.74c.56.31,1.07-.55.51-.87L87.09,36.85a.5.5,0,0,0-.5.86Z"/><path d="M94,34.26A62.46,62.46,0,0,1,107.79,42c.51.38,1-.49.5-.87a63.63,63.63,0,0,0-14-7.88c-.59-.24-.85.73-.26,1Z"/><path d="M101.55,33.82,113.14,42c.53.37,1-.5.51-.86L102.05,33c-.53-.37-1,.5-.5.87Z"/><path d="M106.4,30.85a45.34,45.34,0,0,1,10.95,7.21c.48.43,1.19-.27.71-.7A45.54,45.54,0,0,0,106.91,30c-.58-.27-1.09.59-.51.86Z"/><path d="M112.75,30.67q6.8,3.31,13.34,7.06a.5.5,0,0,0,.5-.86q-6.54-3.75-13.33-7.06c-.58-.28-1.08.58-.51.86Z"/><path d="M119.36,30.48l12,5.37c.58.26,1.09-.6.5-.87l-12-5.36c-.59-.26-1.1.6-.51.86Z"/><path d="M124.7,28.47a106.17,106.17,0,0,0,11.67,5.38c.6.24.86-.73.26-1a106.35,106.35,0,0,1-11.42-5.28c-.57-.31-1.08.55-.51.86Z"/><path d="M131.4,27.12,141.49,32c.58.28,1.09-.59.51-.87l-10.09-4.87c-.58-.28-1.09.58-.51.87Z"/><path d="M138.6,26.17l8.7,6.23c.52.37,1-.49.5-.86l-8.69-6.23c-.53-.38-1,.49-.51.86Z"/></g></g></svg>