<svg xmlns="http://www.w3.org/2000/svg" viewBox="0 0 250.99 372.96"><g id="Layer_2" data-name="Layer 2"><g id="Layer_7_149" data-name="Layer 7,149"><path d="M92.84,372.46c5.34,1.87,12-2,16.88-4,5.91-2.33,11.89-4.42,17.86-6.57,12-4.32,24.08-8.21,36.39-11.54a377.67,377.67,0,0,1,75-12.49c9.67-.61,9.7-15.8,0-15.11a413.75,413.75,0,0,0-79,13.14,325.47,325.47,0,0,0-38,12.65c-5.88,2.39-11.67,5.07-17.4,7.82-5.3,2.54-12.51,5.16-14.6,11.09-.76,2.16.88,4.3,2.82,5Z"/><path d="M247.79,327.34c1.65-5,.63-10.22-.1-15.29-.76-5.25-1.48-10.51-2-15.78-.42-4-3.15-7.5-7.5-7.5-3.73,0-7.92,3.44-7.5,7.5,1.09,10.43,1.22,25.23,8.81,33.27,2.69,2.85,7.19,1.22,8.32-2.2Z"/><path d="M97.82,366.27c-.51-8.85-3.59-16.89-6.27-25.27-2.49-7.83-4.87-15.71-7.2-23.61q-7.41-25-13.25-50.51-5.75-25-9.83-50.35-2-12.53-3.66-25.11c-1.11-8.73-1.15-18.15-3.33-26.67-2.31-9-15.56-6.82-15.89,2.15-.31,8.71,2,18.07,3.19,26.69s2.67,17.51,4.21,26.23Q50.25,245.05,56.1,270t13.21,49.54c2.54,8.5,5.28,16.93,8.16,25.32s5.35,16.85,10.64,24c2.77,3.77,10,3.06,9.71-2.63Z"/><path d="M49.12,168.13a148.44,148.44,0,0,0,16.16-1.94c5.6-1.12,11.3-1.56,16.86-2.78,9.32-2,5.26-17.17-4-14.35-5.42,1.66-10.6,4.08-16,5.85a147.73,147.73,0,0,0-15,6.23c-3.34,1.52-1.72,7.31,1.9,7Z"/><path d="M85,152.9a39.7,39.7,0,0,0,.67-12.63c-.41-4.48-3.72-8-8.5-7.37s-6.9,4.9-6.23,9.36a39.2,39.2,0,0,0,3.67,12C76.74,158.6,84,157.55,85,152.9Z"/><path d="M79.52,133.37c-7.46-3.74-15.53-5.74-22.9-9.85a71.67,71.67,0,0,1-19.71-16.27A65.59,65.59,0,0,1,25,85.75c-3.14-9.15-6-18-12.42-25.47S-4.36,63.62,1.93,70.89,9.7,88.65,13.38,97.27a79,79,0,0,0,15.35,23.29C40.53,133,60.29,145.78,78.26,143c4.46-.69,5.11-7.71,1.26-9.64Z"/><path d="M14.68,67.33c6.4-1.08,12.45-1.34,18.77-3.26,6-1.84,12-4.18,17.91-6.37,9-3.3,5.1-17.8-4-14.46-6.24,2.29-12.58,4.46-18.68,7.12a87.75,87.75,0,0,0-8.47,4.06c-3,1.71-5.55,4.07-8.52,5.84-4,2.36-1.19,7.77,3,7.07Z"/><path d="M40.3,7.89c-2.09,6.72-1.44,14.8-1,21.76a198.65,198.65,0,0,0,2.58,22.28c1.66,9.38,16.67,5.52,14.47-4-1.54-6.66-3-13.29-4-20.06-1-6.54-.93-13.7-3-20a4.73,4.73,0,0,0-9,0Z"/><path d="M241.92,55c4.5-6.16,5.66-15.74,6.88-23.11,1.32-7.94,2.5-16.27,2.11-24.33-.46-9.71-14.29-9.6-15,0-.54,7.43-.7,14.79-2,22.16-1.24,7.14-4.43,14.69-4.36,21.94.07,7,8.64,8.41,12.34,3.34Z"/><path d="M112.3,174.72c6.88.67,14.1.44,21,.44,7.36,0,14.75.17,22.1.6,14.45.85,28.8,2.77,43.13,4.74,4,.56,8-1,9.23-5.24,1-3.49-1.23-8.67-5.24-9.22-15.66-2.16-31.33-4.35-47.12-5.28-15-.88-31.44-1-45.51,5.12-4.8,2.07-1.69,8.44,2.39,8.84Z"/><path d="M212.14,240c3.13-4.14,3.58-9.6,3.67-14.63.1-5.55.12-11.08.06-16.62-.13-11.09-.35-22.17-.53-33.25-.16-9.64-15.16-9.67-15,0,.18,11.41.32,22.82.57,34.22.21,9.86-1.32,22.93,5.25,31.05,1.7,2.12,4.66,1,6-.77Z"/><path d="M207.22,241.63c1.82,3.32,5.46,3,7.86,5.44,2.7,2.76,4.17,6.94,5.77,10.37,4,8.58,6.08,17.49,8.88,26.47s15.12,5.12,13.89-3.83c-1.47-10.76-6.22-21.91-11.21-31.49-3.86-7.4-11.35-18.65-21.28-15.55a6.15,6.15,0,0,0-4.29,4.29,5.93,5.93,0,0,0,.38,4.3Z"/><path d="M109.23,173.47c4.11-4.6,4.31-11.17,5-17,.76-6.12,1.44-12.26,2.25-18.37,1.68-12.55,3.87-25,6.44-37.43,2-9.42-12.5-13.45-14.46-4q-4,19.1-6.58,38.43c-.83,6.13-1.66,12.28-2.12,18.45-.45,6-1.71,13.68,1.79,19,1.64,2.47,5.44,3.44,7.64,1Z"/><path d="M110.44,102.92c4.31,5,12.33,4.77,18.44,5.23,7.09.52,14.18,1.15,21.29,1.57,13.05.77,26.27.65,39.15-1.9a73.31,73.31,0,0,0,32.09-14.73c8.43-6.82,17-17.5,18-28.66.74-8.15-11.64-11.1-15.29-4.14-2.2,4.2-3.32,8.58-6,12.58a42.65,42.65,0,0,1-9.28,9.73C200.5,89,190.25,92.35,180,94c-11.4,1.87-23.19,1.19-34.66.38-6.13-.43-12.25-1-18.39-1.33-5.6-.32-12.44-.5-16.5,4a4.27,4.27,0,0,0,0,5.88Z"/><path d="M52.31,14.49c7.21,2,14.54,2.06,22,2.37,7.63.32,15.22.63,22.87.52,14.91-.21,29.82-.48,44.74-.73l44.74-.72c15.16-.25,30.62.36,45.73-.75,9.56-.7,9.74-14.6,0-15-15.14-.61-30.57.5-45.73.75l-44.74.72C127,1.9,112,2.11,97.13,2.38c-7.32.14-14.58.62-21.87,1.2-7.77.63-15.45.74-23,3.12-3.75,1.18-3.94,6.69,0,7.79Z"/><path d="M171.46,333.55l-3.22-20.29-1.93,2.53,53.89-6.25,15.33-1.78a2.07,2.07,0,0,0,2-2,2,2,0,0,0-2-2L181.64,310l-15.33,1.78a2.05,2.05,0,0,0-1.93,2.54l3.22,20.28a2,2,0,0,0,2.46,1.4,2,2,0,0,0,1.4-2.46Z"/><path d="M112,354.65q-7.5-33.6-14.51-67.3T84,219.85q-3.66-19-7.16-38c-.46-2.52-4.32-1.45-3.85,1.07q6.23,33.86,13,67.61T99.88,318q4.05,18.88,8.26,37.74c.56,2.51,4.42,1.44,3.86-1.07Z"/><path d="M138.88,343.17c-6.17-21-10-42.55-13.43-64.13s-6.31-43.33-10.62-64.8a368.12,368.12,0,0,0-8.94-35.85c-.75-2.45-4.61-1.4-3.85,1.07,6.43,20.9,10.48,42.42,13.92,64s6.32,43.33,10.48,64.83c2.35,12.1,5.11,24.13,8.58,36,.72,2.46,4.58,1.41,3.86-1.07Z"/><path d="M76.59,182.57c3.89-2,8.42-1.92,12.7-2.13a50.75,50.75,0,0,0,14.18-2.68l-2.46-1.4c.15.41.21.2-.12.63a2,2,0,0,0,.72,2.73,2,2,0,0,0,2.73-.71,3.92,3.92,0,0,0,.53-3.71,2,2,0,0,0-2.46-1.4A49.69,49.69,0,0,1,88,176.49c-4.62.2-9.28.43-13.45,2.63-2.28,1.19-.26,4.65,2,3.45Z"/><path d="M119.34,211.8c.48-1.26,3-1.75,4.08-2.11,1.9-.63,3.83-1.19,5.77-1.67a99.39,99.39,0,0,1,12-2.21c8.25-1,16.56-1.28,24.86-1.53a2,2,0,0,0,1.93-2.53,53.28,53.28,0,0,1-1.84-20.52c.14-1.39-1.39-2.16-2.54-1.93a4,4,0,0,0-3.08,3c-.55,2.51,3.3,3.58,3.86,1.06.09-.43-.14-.17.29-.25l-2.53-1.93a56.41,56.41,0,0,0,2,21.58l1.93-2.53a250.36,250.36,0,0,0-27.23,1.84,99.23,99.23,0,0,0-13.13,2.69c-3.63,1-8.69,2-10.18,5.93a2,2,0,0,0,1.39,2.46,2,2,0,0,0,2.46-1.4Z"/><path d="M120.5,210.75a141.42,141.42,0,0,0-8-33.63l-1.93,2.53q12.72.42,25.42,1.26,6.3.41,12.57.93c2.14.18,4.27.36,6.4.56l3,.27a7.77,7.77,0,0,1,2.54.32l-.72-.71v-1.1l-.07.22.51-.88h.08l1-.27h-.19l1,.27-.17-.12a2,2,0,0,0-2.73.72,2,2,0,0,0,.71,2.74c2.08,1.52,4.6-1.33,3.45-3.38s-4.46-1.72-6.43-1.9q-7.62-.72-15.27-1.28-15.52-1.14-31.09-1.65a2,2,0,0,0-1.93,2.53,137.21,137.21,0,0,1,7.82,32.57,2.06,2.06,0,0,0,2,2,2,2,0,0,0,2-2Z"/><path d="M171,203.93a64.11,64.11,0,0,1,22.4.65l-1.47-1.93q2.67,29.41,6.5,58.71,1.09,8.38,2.29,16.76c.23,1.63,2.34,1.74,3.34.89a42,42,0,0,1,22.33-9.67,2.07,2.07,0,0,0,2-2,2,2,0,0,0-2-2,46.91,46.91,0,0,0-25.16,10.84l3.35.88q-4.09-28.86-7.05-57.86-.85-8.26-1.6-16.55a2.06,2.06,0,0,0-1.47-1.93,69.91,69.91,0,0,0-24.52-.65,2,2,0,0,0-1.4,2.46,2.06,2.06,0,0,0,2.46,1.4Z"/><path d="M172.37,203.08l-1.6-18.84-.77-9.18c-.12-1.34-.29-2.94-1.82-3.4a2.36,2.36,0,0,0-3,2.25,2,2,0,0,0,4,0l0-.22-1,1.72.22-.13-1.54.2.26,0-.89-.51.17.19-.51-.88a17.6,17.6,0,0,1,.34,3.47l.29,3.47.61,7.19,1.24,14.63c.22,2.55,4.22,2.57,4,0Z"/><path d="M201.77,308.1c.33-2.62.54-5.26.62-7.9,0-1.36,0-2.72,0-4.08a19.22,19.22,0,0,1,.05-3.56c.39-2.21,2.26-4.24,3.58-6a75,75,0,0,1,5-5.92l-3.34-.88,2.58,14.31,1.27,7,.62,3.4c.09.55.59,2.14.34,2.47l.72-.72,0,0a2,2,0,0,0-1.4,2.46,2,2,0,0,0,2.46,1.4c2.88-.47,2.18-4,1.82-5.91l-1.53-8.49-3.06-17a2,2,0,0,0-3.34-.89c-1.91,2-3.7,4.15-5.4,6.36s-3.49,4.3-4.16,6.87-.23,5.49-.27,8.16a82.1,82.1,0,0,1-.64,8.86,2,2,0,0,0,2,2,2.05,2.05,0,0,0,2-2Z"/><path d="M82.36,161.59q10.19-.81,20.29-2.4a2,2,0,0,0,1.39-2.46,2.05,2.05,0,0,0-2.46-1.4c-6.37,1-12.79,1.75-19.22,2.26a2.05,2.05,0,0,0-2,2,2,2,0,0,0,2,2Z"/><path d="M50.57,126.07H85c3.26,0,6.79.07,8.89-2.87,1.82-2.56,1.68-6.28,1.89-9.28.27-3.78.44-7.58.53-11.37.18-7.42,0-14.86-.5-22.26-.14-2-.43-4.1-.48-6.14,0-.71-.09-.84.54-1,.94-.27,1.93-.42,2.89-.62l12.39-2.62c2.52-.53,1.45-4.39-1.06-3.86l-11,2.32c-3.09.65-7.28.81-7.74,4.72a25.07,25.07,0,0,0,.24,4.74c.14,1.81.27,3.62.37,5.43q.31,5.69.37,11.38c.07,7.42-.2,14.85-.82,22.25a9.75,9.75,0,0,1-.74,3.71c-.69,1.32-2.18,1.44-3.51,1.47-3.76.1-7.53,0-11.29,0H50.57c-2.58,0-2.58,4,0,4Z"/><path d="M114.63,67.22l1.94-31.6a2,2,0,0,0-2-2,311.05,311.05,0,0,1-50.89-.35l2,2,.56-22.55c.06-2.58-3.94-2.58-4,0l-.56,22.55a2,2,0,0,0,2,2,311.05,311.05,0,0,0,50.89.35l-2-2-1.94,31.6c-.15,2.57,3.85,2.56,4,0Z"/><path d="M143,70.09q.41-18.53,2.42-37l-2,2q21,0,41.89,2.16l-1.93-2.53A13.22,13.22,0,0,0,201,49.56l-2.46-2.46a198.87,198.87,0,0,0-5.45,37.12l2-2-15.31-.41-7.65-.2a43.66,43.66,0,0,1-6.57-.27c-1.44-.28-2.08-.92-2-2.37s.54-2.86.74-4.29a6.32,6.32,0,0,0-.77-4.62c-1.27-1.86-3.4-2.25-5.5-2.39-5.77-.37-11.54-.67-17.32-1a2,2,0,0,0-1.41,3.41,7.45,7.45,0,0,0,4.78,2c2.57.15,2.56-3.85,0-4a3,3,0,0,1-1.95-.86l-1.42,3.42,15.35.89c1.16.07,4-.26,4.33,1.15.27,1.1-.28,2.66-.5,3.83a9.45,9.45,0,0,0,0,4.84,5.81,5.81,0,0,0,4,3.65,24.42,24.42,0,0,0,6.33.53l7.65.2,17.28.46a2,2,0,0,0,2-2,193.38,193.38,0,0,1,5.31-36c.34-1.38-1-3-2.46-2.46a9.25,9.25,0,0,1-12.67-9.91,2,2,0,0,0-1.93-2.53q-20.88-2.12-41.89-2.16a2.05,2.05,0,0,0-2,2q-2,18.44-2.42,37c-.06,2.58,3.94,2.58,4,0Z"/><path d="M112.28,68.47l14,8.42a1,1,0,0,0,1.5-.86l0-28.18V30.39a3.43,3.43,0,0,0-.61-2.34c-1.12-1.29-3.48-.87-5-.88-1.31,0-2.62,0-3.93,0a4.24,4.24,0,0,0-2.27.48,4.39,4.39,0,0,0-1.54,2.27l-1.54,3.57c-.51,1.16,1.22,2.18,1.73,1L116,31.12a7.18,7.18,0,0,1,.68-1.49c.42-.53.91-.47,1.5-.48,1.31,0,2.62,0,3.93,0l2,0a3.34,3.34,0,0,1,1.22,0c.83.49.39,3.07.39,3.89V44.85l0,31.18,1.51-.87-14-8.42a1,1,0,0,0-1,1.73Z"/><path d="M106.25,29.92c3.06,1,5.45-1.38,7.57-3.21a6.87,6.87,0,0,1,4.05-1.85,18.27,18.27,0,0,1,4.6.39,1,1,0,0,0,1.26-1l.62-7.64c.1-1.28-1.9-1.27-2,0l-.62,7.64,1.27-1c-2.94-.51-6.13-1-8.83.64-2.2,1.31-4.45,4.95-7.39,4-1.23-.38-1.76,1.55-.53,1.93Z"/><path d="M107.9,28.59a19.61,19.61,0,0,0,7.36-13.4,1,1,0,0,0-2,0,17.72,17.72,0,0,1-6.78,12,1,1,0,0,0,0,1.41,1,1,0,0,0,1.42,0Z"/><path d="M113.92,80.48l5.3,4.82a1,1,0,0,0,1.41-1.41l-5.3-4.82a1,1,0,0,0-1.41,0,1,1,0,0,0,0,1.41Z"/><path d="M117.21,78.78a16.85,16.85,0,0,0,7,7.2,1,1,0,0,0,1.37-.36,1,1,0,0,0-.36-1.36,15,15,0,0,1-6.3-6.49,1,1,0,0,0-1.36-.36,1,1,0,0,0-.36,1.37Z"/><path d="M121.05,78.78a34.67,34.67,0,0,0,6.39,7,1,1,0,0,0,1.41,0,1,1,0,0,0,0-1.42,32.8,32.8,0,0,1-6.07-6.56,1,1,0,0,0-1.37-.36,1,1,0,0,0-.36,1.37Z"/><path d="M125.07,78.49l6.64,7.8a1,1,0,0,0,1.41,0,1,1,0,0,0,0-1.42l-6.64-7.8a1,1,0,0,0-1.41,0,1,1,0,0,0,0,1.42Z"/><path d="M128.76,77.34a39.39,39.39,0,0,0,7.82,9.39A1,1,0,1,0,138,85.32a38.11,38.11,0,0,1-7.51-9,1,1,0,0,0-1.72,1Z"/><path d="M132.63,76.37a35.05,35.05,0,0,0,8.68,10.47,1,1,0,0,0,1.41,0,1,1,0,0,0,0-1.42,33.69,33.69,0,0,1-8.37-10.06c-.61-1.13-2.34-.12-1.72,1Z"/><path d="M138.08,77l9,10.21c.86,1,2.27-.46,1.42-1.42l-9.06-10.2c-.85-1-2.27.45-1.41,1.41Z"/><path d="M140.26,73,152.8,87.34c.85,1,2.26-.44,1.42-1.41L141.67,71.55c-.85-1-2.26.45-1.41,1.42Z"/><path d="M146.43,72.94c4.64,5.09,7.63,12,14.32,14.81a1,1,0,0,0,1.23-.69,1,1,0,0,0-.69-1.23c-3-1.27-5.29-3.74-7.26-6.27s-3.9-5.53-6.19-8c-.87-1-2.28.46-1.41,1.41Z"/><path d="M151,71.31q6.85,7.81,14.29,15.11c.91.9,2.33-.51,1.41-1.41q-7.42-7.29-14.29-15.11c-.85-1-2.26.45-1.41,1.41Z"/><path d="M157,72.41l4.38,3.32a1,1,0,1,0,1-1.73L158,70.68a1,1,0,0,0-.77-.1,1,1,0,0,0-.59.46,1,1,0,0,0,.35,1.37Z"/><path d="M191.81,84.82A32.74,32.74,0,0,0,199.62,89a1,1,0,0,0,1.23-.7,1,1,0,0,0-.7-1.23,30.74,30.74,0,0,1-7.33-4,1,1,0,0,0-1.36.36,1,1,0,0,0,.35,1.37Z"/><path d="M195.49,82.17l7.78,5.68a1,1,0,0,0,1.37-.36,1,1,0,0,0-.36-1.37l-7.78-5.68a1,1,0,0,0-1.37.36,1,1,0,0,0,.36,1.37Z"/><path d="M198.3,76.56l9.13,9.18c.9.92,2.32-.5,1.41-1.41l-9.13-9.18a1,1,0,0,0-1.41,1.41Z"/><path d="M200.24,71.26l9.08,10.66a1,1,0,0,0,1.41,0,1,1,0,0,0,0-1.42l-9.08-10.66a1,1,0,0,0-1.41,0,1,1,0,0,0,0,1.42Z"/><path d="M198.91,65.24l.76.52L200,66l.05,0,.18.15c.48.38.94.79,1.38,1.21s.85.85,1.24,1.3c.2.23.4.47.59.71l0,0,.14.18.3.41a1,1,0,0,0,1.37.36,1,1,0,0,0,.35-1.37,21.92,21.92,0,0,0-5.76-5.56,1,1,0,0,0-1.36.36,1,1,0,0,0,.35,1.37Z"/><path d="M199.14,58.36l3.41,3.83a1,1,0,0,0,1.41,0,1,1,0,0,0,0-1.42L200.56,57a1,1,0,0,0-1.42,0,1,1,0,0,0,0,1.41Z"/><path d="M200.17,55.6c.2.06.39.13.59.21l-.24-.1a6.18,6.18,0,0,1,.77.39l.37.24.17.13-.08-.06a.39.39,0,0,1,.1.08,5.05,5.05,0,0,1,.63.59,2.69,2.69,0,0,1,.27.32c.11.13-.11-.16,0-.06l.06.08.14.19a1,1,0,1,0,1.72-1,7.4,7.4,0,0,0-3.93-2.93,1,1,0,0,0-1.23.7,1,1,0,0,0,.7,1.23Z"/><path d="M199.74,50.54l2.41,1.92a1.1,1.1,0,0,0,.71.29,1.05,1.05,0,0,0,.71-.29,1,1,0,0,0,.29-.71,1,1,0,0,0-.29-.7l-2.42-1.93a1.08,1.08,0,0,0-.7-.29,1,1,0,0,0-1,1,1,1,0,0,0,.29.71Z"/><path d="M201.38,47.8l3.36,1.94a1,1,0,1,0,1-1.72l-3.36-2a1,1,0,1,0-1,1.73Z"/><path d="M196.33,27.63,207,43.09c.44.65,1.65.67,1.83-.24a182.16,182.16,0,0,0,2.94-22.45,1,1,0,0,0-1.7-.71,21,21,0,0,1-14.49,7.2c-1.27.08-1.28,2.08,0,2a23,23,0,0,0,15.9-7.79l-1.71-.7a177.66,177.66,0,0,1-2.87,21.92l1.83-.24L198.06,26.62c-.73-1.05-2.46-.06-1.73,1Z"/><path d="M227.23,42.34l2.44,2.86a1,1,0,0,0,.71.29,1.05,1.05,0,0,0,.71-.29,1,1,0,0,0,.29-.71,1.1,1.1,0,0,0-.29-.7l-2.45-2.86a1,1,0,0,0-1.71.7,1.17,1.17,0,0,0,.3.71Z"/><path d="M225.29,34.64l5.72,6.8A1,1,0,1,0,232.43,40l-5.72-6.8a1,1,0,0,0-1.42,1.42Z"/><path d="M223.23,26.57l7.19,7.74c.88.95,2.29-.47,1.42-1.41l-7.2-7.74c-.88-.95-2.29.47-1.41,1.41Z"/><path d="M223.68,20l4.82,7.22a1,1,0,1,0,1.73-1L225.4,19a1,1,0,0,0-1.37-.36,1,1,0,0,0-.35,1.37Z"/><path d="M225.25,16.36q.51.47,1,1l.45.52.22.26.09.12s.16.16,0,0a8.08,8.08,0,0,1,.76,1.08c.25.4.49.8.71,1.21a1,1,0,1,0,1.73-1A17.7,17.7,0,0,0,226.67,15a1,1,0,1,0-1.42,1.41Z"/><path d="M226.21,14l2.41,1.93a1.08,1.08,0,0,0,.7.29,1,1,0,0,0,.71-.29,1,1,0,0,0,.29-.71,1,1,0,0,0-.29-.71l-2.41-1.92a1,1,0,0,0-.7-.3,1,1,0,0,0-.71.3.94.94,0,0,0-.29.7,1,1,0,0,0,.29.71Z"/><path d="M144.36,30.62a8.12,8.12,0,0,1-5.5-5.58c-1.11-3.32-.68-6.94-.31-10.35.14-1.28-1.86-1.27-2,0-.42,3.82-.84,7.92.63,11.58a10,10,0,0,0,6.65,6.28c1.25.3,1.79-1.63.53-1.93Z"/><path d="M65,25.84c8.73.84,17.5,1.32,26.26,1.44,2.22,0,4.43,0,6.64,0l3,0a8.45,8.45,0,0,0,3-.27c1.51-.62,2.22-2.6,3-3.91l3.38-5.92a1,1,0,0,0-1.72-1l-3,5.28c-.52.92-1,1.85-1.57,2.75-.68,1.1-1.35,1-2.56,1.08q-6,.11-12,0Q77.16,25,65,23.84c-1.28-.12-1.27,1.88,0,2Z"/><path d="M64.07,19.12a61.66,61.66,0,0,0,6.07,7.33A1,1,0,0,0,71.55,25a57.77,57.77,0,0,1-5.75-6.93,1,1,0,1,0-1.73,1Z"/><path d="M67.1,17.1l6.1,8.78a1,1,0,0,0,1.37.36,1,1,0,0,0,.36-1.37l-6.11-8.78a1,1,0,1,0-1.72,1Z"/><path d="M71.86,16.18a87.54,87.54,0,0,0,7.73,10c.86,1,2.27-.46,1.41-1.42a84.72,84.72,0,0,1-7.42-9.55,1,1,0,1,0-1.72,1Z"/><path d="M76.41,15.36,86.47,26c.89.94,2.3-.48,1.42-1.41L77.83,14c-.89-.94-2.3.47-1.42,1.41Z"/><path d="M84.24,16.23l8.43,10.32a1,1,0,0,0,1.42-1.42L85.66,14.81a1,1,0,1,0-1.42,1.42Z"/><path d="M90.24,16.13a68.75,68.75,0,0,0,9.66,11.4c.93.88,2.35-.53,1.41-1.42a65.83,65.83,0,0,1-9.34-11c-.72-1.06-2.45-.07-1.73,1Z"/><path d="M94.69,14.91a77.32,77.32,0,0,1,9.85,11.44,1,1,0,0,0,1.37.36,1,1,0,0,0,.36-1.37A80.34,80.34,0,0,0,96.1,13.49c-.93-.89-2.35.53-1.41,1.42Z"/><path d="M102.63,15c.19.13.39.27.58.42a2.69,2.69,0,0,1,.27.2c-.17-.15,0,0,0,0l.15.12c.37.3.73.61,1.09.93a21.64,21.64,0,0,1,2,2.09,1,1,0,0,0,1.41,0,1,1,0,0,0,0-1.41,22.26,22.26,0,0,0-4.47-4.09,1,1,0,0,0-1.37.36,1,1,0,0,0,.36,1.37Z"/><path d="M56,98l.74,7.21c.19,1.89.21,4,2.41,4.62a12.56,12.56,0,0,0,3,.21c1.28,0,2.55,0,3.83.06,2.43,0,4.86,0,7.29,0a2,2,0,0,0,2-1c.43-.92,0-2.06-.15-3l-1.41-7.1c-.22-1.13-.44-2.26-.67-3.38a3.7,3.7,0,0,0-1.29-2.42c-1.42-1-3.52-.67-5,.1a4.63,4.63,0,0,0-2.59,4.42,12.51,12.51,0,0,0,1,3.06c.25.72.47,1.84-.36,2.25l1.47.6-1.44-6.2c-.36-1.59-.75-3.36-2.44-4a8,8,0,0,0-5,.16,3.34,3.34,0,0,0-2.29,3.82c.28,1.25,2.21.72,1.93-.53s1.6-1.61,2.48-1.68c1.12-.08,2.43-.27,2.93,1a24.55,24.55,0,0,1,.91,3.69l1,4.31a1,1,0,0,0,1.47.6,3.15,3.15,0,0,0,1.57-3.07c-.08-1.55-1.29-2.86-1.27-4.39a3,3,0,0,1,2.44-2.59,2.57,2.57,0,0,1,1.93.08c.63.42.66,1.75.79,2.43L72.44,103l.53,2.67.28,1.42c0,.16.24,1.07.23,1.07a5.88,5.88,0,0,1-1.46,0H67.65c-2,0-4,0-6-.09-.66,0-2,.16-2.44-.42a2.48,2.48,0,0,1-.31-1.32c-.06-.54-.11-1.08-.17-1.62L58,98c-.13-1.27-2.13-1.28-2,0Z"/><path d="M162.85,75.33l10.72,1.38,1.23.16c.2,0,.89,0,1.06.18s0,1.63-.08,2l-.5,5.47c-.12,1.28,1.88,1.27,2,0l.56-6.16a3.26,3.26,0,0,0-.43-2.66,3.34,3.34,0,0,0-2.2-.82l-12.36-1.59c-.54-.07-1,.51-1,1a1,1,0,0,0,1,1Z"/><path d="M218.84,75.73c-1.83-1-4-2.11-4.79-4.18s-.63-4.91-.48-7.19c.36-5.17,1-10.32,1.58-15.46l.83-8,.39-3.73.18-1.74c0-.33.07-.66.11-1,.08-.73,0-.43.46-.23a7.94,7.94,0,0,0,2,.31l1.72.27a16.38,16.38,0,0,1,1.86.3c.77.23.88.83,1,1.53.51,2.5,0,4.87-.23,7.36-.4,5,3,8,6.86,10.49,1.08.71,2.08-1,1-1.73-1.87-1.23-3.9-2.55-5.07-4.52-1.48-2.5-.55-5.28-.36-8,.14-1.93.19-5.23-1.53-6.56a7,7,0,0,0-3.27-.86c-1.46-.23-3-.59-4.44-.69a1.61,1.61,0,0,0-1.81,1.1,19.42,19.42,0,0,0-.49,4.18l-.91,8.7c-.62,5.9-1.37,11.81-1.83,17.72-.22,2.79-.44,6.09.72,8.71,1,2.35,3.35,3.7,5.5,4.87,1.14.61,2.15-1.11,1-1.73Z"/><path d="M92.35,125.16l7.68,6.29a1,1,0,0,0,1.42,0,1,1,0,0,0,0-1.41l-7.69-6.3a1,1,0,0,0-1.41,0,1,1,0,0,0,0,1.42Z"/><path d="M92.83,120.36a42.84,42.84,0,0,0,11.63,8,1,1,0,0,0,1.37-.36,1,1,0,0,0-.36-1.36,41.19,41.19,0,0,1-11.23-7.75c-.92-.9-2.34.52-1.41,1.42Z"/><path d="M94.65,116.6a57.59,57.59,0,0,0,11.3,9.3c1.1.69,2.1-1,1-1.72a55.57,55.57,0,0,1-10.89-9c-.89-.94-2.3.48-1.42,1.41Z"/><path d="M95.15,111.3,105.73,121c1,.87,2.37-.54,1.41-1.41l-10.58-9.66c-1-.86-2.37.55-1.41,1.42Z"/><path d="M96.77,107.15l10.67,7.62a1,1,0,0,0,1-1.73l-10.67-7.62a1,1,0,0,0-1.37.36,1,1,0,0,0,.36,1.37Z"/><path d="M94.62,98.34l13,11.1c1,.84,2.39-.57,1.41-1.41L96,96.92c-1-.83-2.4.58-1.42,1.42Z"/><path d="M96.79,92.19a67.86,67.86,0,0,1,11.37,10.91,1,1,0,0,0,1.41-1.41A69.91,69.91,0,0,0,97.8,90.46a1,1,0,0,0-1.37.36,1,1,0,0,0,.36,1.37Z"/><path d="M95.88,87.27a62.64,62.64,0,0,1,9.84,6.24,1,1,0,0,0,1.41,0,1,1,0,0,0,0-1.42,64.89,64.89,0,0,0-10.24-6.54c-1.15-.59-2.16,1.14-1,1.72Z"/><path d="M94.82,81.16l11.11,8.16A1,1,0,0,0,107.3,89a1,1,0,0,0-.36-1.37L95.83,79.44a1,1,0,0,0-1.37.35,1,1,0,0,0,.36,1.37Z"/><path d="M95.45,77.1l11,7.79a1,1,0,0,0,1.36-.36,1,1,0,0,0-.36-1.37l-11-7.79a1,1,0,0,0-1.36.36,1,1,0,0,0,.35,1.37Z"/><path d="M95.9,74.69A42.64,42.64,0,0,1,104.8,80a1,1,0,0,0,1.42,0,1,1,0,0,0,0-1.41A44.63,44.63,0,0,0,96.91,73a1,1,0,0,0-1.37.36,1,1,0,0,0,.36,1.37Z"/><path d="M100.24,72.78l7.67,4.41a1,1,0,0,0,1-1.73l-7.67-4.4a1,1,0,0,0-1,1.72Z"/><path d="M105.45,72l3.4,1.88a1,1,0,0,0,1.36-.36,1,1,0,0,0-.35-1.36l-3.4-1.88a1,1,0,1,0-1,1.72Z"/><path d="M109.81,69.52a25.5,25.5,0,0,1,7.52,6.1,1,1,0,0,0,1.41,0,1,1,0,0,0,0-1.41,26.56,26.56,0,0,0-7.92-6.41,1,1,0,0,0-1.37.36,1,1,0,0,0,.36,1.36Z"/><path d="M114.65,69.64a3.89,3.89,0,0,1,.49,0l-.26,0a5.4,5.4,0,0,1,1.25.35l-.24-.1a4.82,4.82,0,0,1,.84.45l.18.12c.06,0,.17.15,0,0l.09.07.36.33a1,1,0,0,0,1.41-1.41,6.1,6.1,0,0,0-4.07-1.77,1,1,0,0,0-1,1,1,1,0,0,0,1,1Z"/><path d="M154.74,298.2c-1.79-.26-4.16-.51-5.36-2-.71-.91-.8-3.32.78-3.42a1,1,0,0,0,.26-2,4.27,4.27,0,0,1,1.75-8.3,1,1,0,0,0,.27-2,2,2,0,0,1-1.1-2.39,4,4,0,0,1,2.59-2.47,10.49,10.49,0,0,1,4-.82c1.52,0,2.28,1,3.56,1.59a6.72,6.72,0,0,0,3.29.48c1.21-.07,2.64-.34,3.74.33,2.65,1.61,1.29,5.21,0,7.2a1,1,0,0,0,1.13,1.47,5.66,5.66,0,0,1,5.48.79,4.59,4.59,0,0,1,1.74,2.78,2.24,2.24,0,0,1-1.77,2.8,1,1,0,0,0,0,2c2.25.14.22,3.76-.34,4.62a9.67,9.67,0,0,1-3.56,3.37c-2.42,1.26-6.15.82-7.31-2a1,1,0,0,0-1.93.53c.24,1.67-2.17,2.43-3.42,2-1.86-.69-2.76-2.86-3.25-4.6a1,1,0,0,0-1.93.53c.77,2.74,2.58,6,5.79,6.21a4.29,4.29,0,0,0,4.74-4.65l-1.93.53c1.85,4.46,7.49,5.19,11.2,2.6a12.93,12.93,0,0,0,4.55-5.85c.85-2.24.14-5.11-2.61-5.29v2c4-.32,4.65-5,2.59-7.78a7.57,7.57,0,0,0-8.57-2.52l1.13,1.47c1.84-2.83,2.85-7-.1-9.5a6.18,6.18,0,0,0-4.58-1.1,8.36,8.36,0,0,1-2.78,0c-.95-.27-1.62-1.08-2.52-1.48-2.9-1.28-7.65-.05-9.74,2.28-1.88,2.1-1.57,6,1.4,6.85l.27-2a6.27,6.27,0,0,0-2.28,12.23l.27-2c-2.56.16-3.74,2.88-3.11,5.17.84,3,4.46,3.83,7.15,4.22,1.26.19,1.81-1.74.54-1.93Z"/><path d="M156.57,293.81,152.69,292a1,1,0,0,0-1,1.73l3.88,1.86a1,1,0,0,0,1.37-.36,1,1,0,0,0-.36-1.37Z"/><path d="M172.69,295.07a3.85,3.85,0,0,0,.35-1.95,4.7,4.7,0,0,0-.64-1.92,4.17,4.17,0,0,0-3.3-2,1,1,0,0,0-1,1,1,1,0,0,0,1,1s.28,0,.09,0h.06l.34.1c.08,0,.21.12,0,0l.15.07a1.56,1.56,0,0,1,.28.16.91.91,0,0,1,.16.11c.08,0-.19-.17,0,0l.26.24c.08.08.14.18.22.25-.2-.19-.07-.09,0,0a.91.91,0,0,1,.11.16l.17.31c0,.05,0,.11.07.15l0-.13a.42.42,0,0,0,0,.1l.09.32a.75.75,0,0,1,0,.16s0,.28,0,.08,0,0,0,.06,0,.12,0,.19,0,.22,0,.32c0-.24,0-.16,0,0l0,.16a.75.75,0,0,1,0,.16c0,.07-.12.32,0,0a1.09,1.09,0,0,0-.1.77,1,1,0,0,0,.46.6,1,1,0,0,0,1.36-.36Z"/><path d="M124.12,218.15c-1,2.37.83,5,3.13,5.67,2.85.87,5.64-1,7.41-3.11l-1.57-.2a8.67,8.67,0,0,0,8.3,5.22,8.78,8.78,0,0,0,7.66-6l-1.83.24a9.4,9.4,0,0,0,16.38-.85l-1.83-.77a6.32,6.32,0,0,0,5.08,7.13c3.61.71,7-1.6,8.89-4.49l-1.87-.5a7.21,7.21,0,0,0,7.72,6.42c4.11-.32,7.16-4,7.95-7.81l-1.83.24c2.45,3.45,7.74,1,7.83-2.87a7,7,0,0,0-3.14-5.61c-2.28-1.58-5.14-1.89-7.82-2.18l1,1.26c.56-2.58.81-6.59-1.92-8.1-1.88-1-3.91,0-5.68.76l-7.29,3,1.13.46c-1.51-2.92-5.09-4-8.17-3.31a10.69,10.69,0,0,0-4.65,2.63,16.71,16.71,0,0,0-1.9,2.13c-.43.57-1.27,2.41-2.13,2.29s-1.58-1-2.26-1.34a11.91,11.91,0,0,0-2.38-.87,12.4,12.4,0,0,0-4.74-.18,11.93,11.93,0,0,0-8,4.78l1.37-.36a13.65,13.65,0,0,0-11.93.09,8.24,8.24,0,0,0-4.09,3.74c-.67,1.49-.62,3.3,1,4.16,1.13.62,2.14-1.1,1-1.73s.18-2.31.74-2.85A10.11,10.11,0,0,1,129.5,213a11.49,11.49,0,0,1,8.43.51,1,1,0,0,0,1.37-.36,10.36,10.36,0,0,1,11.71-3.3c1.36.53,2.54,1.85,4,2,1.69.12,2.38-1.43,3.22-2.6a12.68,12.68,0,0,1,3.76-3.68c2.6-1.55,6.5-1.48,8,1.5a1,1,0,0,0,1.13.46l5.46-2.24,2.5-1a6.47,6.47,0,0,1,2.85-.83c2.49.24,2,4.37,1.61,6a1,1,0,0,0,1,1.27c3.18.34,7.32.85,8.67,4.27a2.82,2.82,0,0,1-.83,3.57c-.87.56-2.3.77-3-.19-.45-.64-1.64-.67-1.83.24-.59,2.87-2.58,5.71-5.63,6.28-2.73.51-5.92-1.47-6.11-4.36A1,1,0,0,0,174,220c-1.35,2-3.63,3.79-6.19,3.61-2.28-.15-4.56-2.31-4.12-4.71.19-1-1.27-1.84-1.82-.77A7.51,7.51,0,0,1,149,219a1,1,0,0,0-1.83.24,6.69,6.69,0,0,1-6.09,4.55,6.77,6.77,0,0,1-6.22-4.24,1,1,0,0,0-1.57-.2c-1.16,1.37-2.79,2.83-4.72,2.72-1.65-.09-3.14-1.69-2.47-3.33.48-1.2-1.45-1.71-1.93-.54Z"/><path d="M222.78,306.16a4.54,4.54,0,0,1-5.24-2.87,4.59,4.59,0,0,1,2.49-5.38c1-.48.29-2.23-.77-1.82a3.51,3.51,0,0,1-4.48-2.87c-.38-2.41,1.42-4.6,3.31-5.83a1,1,0,0,0-.77-1.83,3.24,3.24,0,0,1-3.4-1.6,5.1,5.1,0,0,1-.12-4.43,7.9,7.9,0,0,1,6.66-5.17l-.86-.5c-.29-.53,2.38-.78,2.63-.76a5.16,5.16,0,0,1,1.8.55,6.15,6.15,0,0,1,2.85,3.1c1.16,2.86,0,6.14-1.95,8.36-.7.81.21,2.23,1.22,1.57,1.91-1.27,5,3.4,5.64,4.76,1,1.87,1.06,5-1.35,5.86-1.21.43-.69,2.36.53,1.93,3.5-1.23,4.15-5.38,2.73-8.43-1.2-2.59-5.17-8.08-8.56-5.85l1.21,1.57a11,11,0,0,0,2.93-8.19,8.13,8.13,0,0,0-4.55-6.56c-1.76-.82-5.87-1.39-6.36,1.32a1.76,1.76,0,0,0,1.63,2.15,1.61,1.61,0,0,0,1.32-2.39,1,1,0,0,0-.86-.49,10,10,0,0,0-8.93,7.8c-.8,3.85,2,8.34,6.33,7.33l-.77-1.82c-2.73,1.75-5.07,5-4.17,8.4.76,2.85,4,5.06,6.87,3.94l-.77-1.82a6.35,6.35,0,0,0,4.3,11.9c1.25-.29.72-2.22-.54-1.93Z"/><path d="M228.35,303.13h-.46l-.22,0s-.25,0-.1,0l-.13,0-.18,0-.44-.13-.21-.07c-.06,0-.27-.12-.05,0l-.37-.18a3.13,3.13,0,0,1-.36-.22l-.19-.12s-.24-.19,0,0a4.76,4.76,0,0,1-.62-.57l-.3-.34c.16.19,0,0,0,0l-.13-.19a6.58,6.58,0,0,1-.4-.74c.11.24,0,0,0,0l-.07-.22c0-.14-.08-.29-.11-.44a1,1,0,0,0-1.93.53,6.4,6.4,0,0,0,6.35,4.91,1,1,0,0,0,1-1,1,1,0,0,0-1-1Z"/><path d="M220.66,281.19h-.18s-.15,0-.17,0,.29.05.1,0l-.17-.05-.12,0c-.15-.05.26.13,0,0l-.25-.15c-.2-.14.15.13,0,0l-.1-.08-.24-.25c-.1-.12.15.21,0,.06l-.09-.14a1.82,1.82,0,0,1-.15-.27s-.11-.22,0,0,0,0,0,0-.06-.2-.09-.3l0-.17c0-.17,0,.29,0,.08s0-.21,0-.32,0-.09,0-.13-.05.3,0,.06.05-.19.08-.29-.1.19,0,0l.06-.11.09-.15c.09-.14-.18.22,0,0a1,1,0,1,0-1.41-1.41,3.21,3.21,0,0,0-.68,2.9,3.72,3.72,0,0,0,1.67,2.3,2.93,2.93,0,0,0,1.63.42,1,1,0,0,0,1-1,1,1,0,0,0-1-1Z"/><path d="M136.81,216.85a3.75,3.75,0,0,0,6.08,1.46,1,1,0,0,0-1.42-1.41l-.12.12s-.18.14,0,0,0,0-.06,0l-.12.07-.13.07c-.17.09.23-.08.06,0l-.28.09-.17,0h-.25l-.29,0c-.19,0,.24.05.07,0l-.17,0-.31-.09-.14,0c.08,0,.21.09.05,0l-.26-.14-.12-.09c-.19-.13.08.07,0,0s-.16-.14-.23-.22a.52.52,0,0,1-.1-.11c-.12-.13.14.21,0,.05a2.07,2.07,0,0,1-.15-.25c-.08-.15,0,0,0,.06s-.05-.12-.07-.19a1,1,0,0,0-1.93.54Z"/><path d="M177.51,208.89a.76.76,0,0,1,0-.15l0,.26.06-.24c.05-.18-.12.23,0,.09l.06-.1.06-.09c-.16.25-.13.16-.06.09s.25-.23.09-.1,0,0,0,0l.12-.07c.09-.05.34-.13,0,0a3.65,3.65,0,0,1,.5-.13l-.27,0a2.1,2.1,0,0,1,.56,0l-.27,0,.31.07.11,0c-.31-.1-.14-.06-.06,0l.14.09c.13.08-.2-.17-.07-.05a3.07,3.07,0,0,1,.26.25c.14.17-.13-.18,0,0s.07.1.1.16l.07.12c0,.09.08.28,0,0a4,4,0,0,1,.18.7l0-.27a4.22,4.22,0,0,1,0,.94l0-.27a4.35,4.35,0,0,1-.22.86,1,1,0,0,0,.1.77,1,1,0,0,0,1.83-.24,4.16,4.16,0,0,0-.61-4.13,2.94,2.94,0,0,0-3.71-.51,2.43,2.43,0,0,0-1.18,2,1,1,0,0,0,1,1,1,1,0,0,0,1-1Z"/><path d="M79.5,199a35.15,35.15,0,0,1,8.87,5.77c1,.86,2.38-.55,1.42-1.41a37.32,37.32,0,0,0-9.28-6.09,1,1,0,0,0-1.37.36A1,1,0,0,0,79.5,199Z"/><path d="M78.42,194,94.8,204.08c1.09.68,2.1-1.05,1-1.73L79.43,192.23c-1.1-.68-2.11,1.05-1,1.73Z"/><path d="M75.62,185.25A104.07,104.07,0,0,0,96.37,200.5a1,1,0,0,0,1-1.73A102.09,102.09,0,0,1,77,183.84c-.93-.88-2.35.53-1.41,1.41Z"/><path d="M76.56,180.42l18,14.86c1,.81,2.41-.59,1.42-1.41L78,179c-1-.81-2.41.59-1.42,1.41Z"/><path d="M84.11,180.63l7.17,5.85a1,1,0,0,0,1.41,0,1,1,0,0,0,0-1.41l-7.17-5.86a1,1,0,0,0-1.41,0,1,1,0,0,0,0,1.42Z"/><path d="M83.41,227.87a62.9,62.9,0,0,1,6.87,4.9,1,1,0,0,0,1.42,0,1,1,0,0,0,0-1.42,67.77,67.77,0,0,0-7.28-5.2,1,1,0,0,0-1,1.72Z"/><path d="M82.41,220.85,93.6,230.9c1,.86,2.38-.55,1.41-1.42l-11.19-10c-.95-.86-2.37.55-1.41,1.41Z"/><path d="M83.66,217.2,97,228a1,1,0,0,0,1.41,0,1,1,0,0,0,0-1.41L85.07,215.79a1,1,0,0,0-1.41,1.41Z"/><path d="M81.45,210.61,97.63,221.5c1.07.72,2.07-1,1-1.73L82.46,208.88c-1.08-.72-2.08,1-1,1.73Z"/><path d="M79.92,203.08l20.49,16.19c1,.79,2.43-.62,1.42-1.42L81.34,201.66c-1-.79-2.43.62-1.42,1.42Z"/><path d="M94.39,210.22l2.89,1.93a1,1,0,0,0,1.37-.36,1,1,0,0,0-.36-1.37l-2.89-1.93a1,1,0,1,0-1,1.73Z"/><path d="M95.12,290.76a29,29,0,0,1,7.94,3.79,1,1,0,0,0,1.36-.36,1,1,0,0,0-.36-1.37,30.78,30.78,0,0,0-8.41-4,1,1,0,0,0-.53,1.93Z"/><path d="M94.22,283.27A64.54,64.54,0,0,0,106,292.12a1,1,0,0,0,1-1.73,62.06,62.06,0,0,1-11.34-8.54c-.93-.88-2.35.53-1.41,1.42Z"/><path d="M93.06,277a51,51,0,0,1,14.53,11.23c.86,1,2.27-.46,1.41-1.42a52.4,52.4,0,0,0-14.93-11.53c-1.15-.59-2.16,1.13-1,1.72Z"/><path d="M92.79,271.31a52.11,52.11,0,0,1,14.4,9.11c1,.85,2.38-.56,1.41-1.42a55.23,55.23,0,0,0-15.28-9.62,1,1,0,0,0-.53,1.93Z"/><path d="M92,264.68l14.94,9.64c1.08.7,2.08-1,1-1.73L93,263c-1.08-.7-2.09,1-1,1.73Z"/><path d="M92.06,258.75A84.73,84.73,0,0,1,104.71,268c1,.85,2.38-.56,1.41-1.41A85.18,85.18,0,0,0,93.07,257a1,1,0,0,0-1,1.72Z"/><path d="M89.32,253.23a64.12,64.12,0,0,1,11.84,5.61,1,1,0,0,0,1-1.73,67.3,67.3,0,0,0-12.32-5.81c-1.21-.43-1.74,1.5-.53,1.93Z"/><path d="M89.11,248.72l9.14,4.38a1,1,0,0,0,1.37-.36,1,1,0,0,0-.36-1.37L90.12,247a1,1,0,0,0-1.37.36,1,1,0,0,0,.36,1.36Z"/><path d="M92.77,246.78,99,249.32a1,1,0,0,0,1.23-.7,1,1,0,0,0-.7-1.23l-6.21-2.54a1,1,0,0,0-1.23.7,1,1,0,0,0,.7,1.23Z"/><path d="M108.25,345.35a25.73,25.73,0,0,0,8,4.73,1,1,0,0,0,1.23-.7,1,1,0,0,0-.7-1.23,23,23,0,0,1-7.17-4.21,1,1,0,1,0-1.41,1.41Z"/><path d="M107.44,339.77a58.83,58.83,0,0,0,10.08,5.83,1,1,0,0,0,1.37-.36,1,1,0,0,0-.36-1.37A57.81,57.81,0,0,1,108.45,338a1,1,0,0,0-1.37.36,1,1,0,0,0,.36,1.37Z"/><path d="M105.52,331.09,117,339c1.06.73,2.07-1,1-1.73l-11.45-7.87c-1.07-.73-2.07,1-1,1.73Z"/><path d="M106,326.79,116,333.14c1.09.69,2.09-1,1-1.73L107,325.07c-1.09-.69-2.1,1-1,1.72Z"/><path d="M102.6,316.68a71.42,71.42,0,0,1,12.78,10.95c.88.95,2.29-.47,1.42-1.41A74.67,74.67,0,0,0,103.61,315c-1.08-.72-2.08,1-1,1.73Z"/><path d="M104.81,313.27a29.9,29.9,0,0,1,8.65,5.2,1,1,0,0,0,1.42,0,1,1,0,0,0,0-1.42,32.93,32.93,0,0,0-9.54-5.71,1,1,0,0,0-1.23.7,1,1,0,0,0,.7,1.23Z"/><path d="M58.57,74.21c-3.13,2.74-5.13,8.65-2.14,12.22a4.08,4.08,0,0,0,5.51.62c2.15-1.43,2.71-4,3.08-6.39.2-1.24-1.66-1.81-1.93-.53a8.25,8.25,0,0,0,6.65,9.69c4.72.65,9.09-3.65,8.89-8.32,0-1.07-1.76-1.43-2-.27a4,4,0,0,0,3.17,4.52c2.22.51,4.29-1,5.35-2.83,2.12-3.73.56-9.38-3.87-10.49l.24,1.82a10.75,10.75,0,0,0,4.49-10c-.48-3.4-3.87-6.06-7.22-4.54l1.46,1.13c.79-2,1.56-4.36.86-6.53a5.81,5.81,0,0,0-4.5-3.68c-3.33-.77-8.4-.49-9.6,3.4a1,1,0,0,0,1.83.77,4,4,0,0,0-1.27-5.27c-1.89-1.3-4.46-.7-6.08.76-3.42,3.1-3.26,10.27.7,12.84l.5-1.87a3.82,3.82,0,0,0-2.91,2A14.31,14.31,0,0,0,57.74,68c-.53,2.6.49,5.64,3.3,6.36,1.05.27,1.82-1.32.77-1.83a5.27,5.27,0,0,0-7.37,3.42c-.15.66.48,1.54,1.23,1.23l1.91-.79c1.17-.48.66-2.42-.53-1.93l-1.91.79,1.23,1.23a3.25,3.25,0,0,1,4.43-2.22l.77-1.83c-1.9-.49-2.24-2.69-1.8-4.32A13,13,0,0,1,61,65.28c.36-.68.87-1.9,1.74-2a1,1,0,0,0,.51-1.86c-2.53-1.64-2.57-6-1.29-8.39a3.77,3.77,0,0,1,3.48-2.2,2.07,2.07,0,0,1,1.72,3l1.83.77c.82-2.67,5-2.5,7.14-2,1.55.36,3,1.18,3.24,2.87a9.78,9.78,0,0,1-1,4.89c-.35.91.76,1.45,1.47,1.13a2.88,2.88,0,0,1,3,.69,4.49,4.49,0,0,1,1.22,3.72,8.81,8.81,0,0,1-3.56,6.65,1,1,0,0,0,.24,1.83c2.62.65,3.81,3.71,3.21,6.19a4.46,4.46,0,0,1-2.4,3.14c-1.22.47-3.28-.35-3-1.93l-2-.26c.15,3.46-3,6.84-6.62,6.34a6.21,6.21,0,0,1-5-7.18l-1.93-.53c-.25,1.61-.47,3.55-1.67,4.78-1.36,1.39-3.24,1.18-4-.68-1.21-3,.23-6.58,2.54-8.61,1-.85-.45-2.26-1.41-1.41Z"/><path d="M65.86,74.53a7.12,7.12,0,0,1,7.55,1,1,1,0,0,0,1.09.21,1,1,0,0,0,.61-.91l-.25-2.28a1,1,0,0,0-1-1,1,1,0,0,0-1,1l.25,2.28,1.71-.71a9.19,9.19,0,0,0-10-1.32,1,1,0,0,0-.36,1.36,1,1,0,0,0,1.37.36Z"/><path d="M71.3,65.4a7.55,7.55,0,0,0,.43-8.14l-.86,1.5c1.24.13,2.52.18,3.75.4a.6.6,0,0,1,.23.06s-.06-.11,0-.06a1.2,1.2,0,0,1,0,.53,12.16,12.16,0,0,0-.24,1.8,11.52,11.52,0,0,0,1.69,6.59c.67,1.09,2.4.09,1.72-1a9.57,9.57,0,0,1-1.26-6.77,3.37,3.37,0,0,0,0-1.81,2,2,0,0,0-1.46-1.24,17.46,17.46,0,0,0-2-.24l-2.31-.25A1,1,0,0,0,70,58.27a5.57,5.57,0,0,1-.43,6.12,1,1,0,0,0,.36,1.37,1,1,0,0,0,1.37-.36Z"/><path d="M63.53,49.88q.19-9.81,0-19.64a1,1,0,0,0-1.7-.71l-.91.84c-.94.88.48,2.3,1.42,1.42l.9-.85-1.71-.7q.18,9.82,0,19.64a1,1,0,0,0,2,0Z"/><path d="M10.1,71.47l46.26,1.17c1.29,0,1.29-2,0-2L10.1,69.47c-1.29,0-1.29,2,0,2Z"/><path d="M193.84,38.65a2.81,2.81,0,0,1-3.46-3.18,1,1,0,0,0-1.67-1c-.88.73-2.08-.66-2.07-1.49a3,3,0,0,1,.92-2,5.37,5.37,0,0,1,.85-.73c.11-.07.82-.55.92-.47V28.42c.48-.4.2.15.13-.24,0-.14-.14-.23-.15-.37a1.37,1.37,0,0,1,.43-.92,2.62,2.62,0,0,1,2.09-.78c2,.14,2.88,2.35,2.82,4.08a1,1,0,0,0,1,1,2.53,2.53,0,0,1,2,1.61c.46,1.08,0,1.83-.45,2.81A2.91,2.91,0,0,0,197,37.4c.12.57.52,1.12.35,1.72a1.17,1.17,0,0,1-2.12.32c-.7-1.07-2.43-.07-1.72,1a3.22,3.22,0,0,0,4.55,1,3.28,3.28,0,0,0,1.28-2.07,3.13,3.13,0,0,0-.06-1.36c-.12-.47-.42-.91-.3-1.4a16.12,16.12,0,0,0,.88-2.38,4.48,4.48,0,0,0-.42-2.36,4.55,4.55,0,0,0-3.79-2.66l1,1c.13-3.48-2.84-7.17-6.57-5.82-1.45.53-2.86,1.87-2.76,3.53s1.92,3.18,3.43,1.93a1,1,0,0,0,0-1.41c-1.35-1.11-2.95-.25-4.1.73a5.24,5.24,0,0,0-2,3.86c0,2.71,3.28,4.75,5.48,2.9l-1.67-1a4.83,4.83,0,0,0,5.92,5.64c1.22-.38.7-2.32-.53-1.93Z"/><path d="M62.14,41.74q12.35,0,24.69.4,6.11.18,12.22.45l6,.27,3,.15a15.06,15.06,0,0,0,4,.12c-.63.15-.37,1.12.26,1,1.06-.25.46-1.44-.24-1.76a7.39,7.39,0,0,0-2.49-.25L106,41.91q-7.35-.37-14.7-.62-14.58-.51-29.18-.55a.5.5,0,0,0,0,1Z"/><path d="M51.76,119.65c-1.32-9.92-2.45-19.88-4-29.77-.26-1.68-1.09-2.3-2.71-2.7a17.56,17.56,0,0,0-6.26,0,51.71,51.71,0,0,1-15.06-.3c-.63-.11-.9.85-.26,1a49.54,49.54,0,0,0,13,.59,48.61,48.61,0,0,1,6.25-.51,6.64,6.64,0,0,1,3.37.74c.92.67.82,2.67,1,3.69l3.64,27.33c.08.63,1.08.63,1,0Z"/><path d="M148.48,61.91a96.41,96.41,0,0,1,1.6-22.62l-.48.37,15.19,1.45,7.84.75c1.1.1,2.9-.08,3.52,1,.47.83.64,1.84,1.07,2.71a13.25,13.25,0,0,0,7.61,6.48,13.56,13.56,0,0,0,5.14.57,1.43,1.43,0,0,1,1.6,1.21,8.08,8.08,0,0,1-.12,1.56l-.3,3.92L189.79,76.7l.5-.5c-2.49-.24-5-.44-7.48-.72a5.09,5.09,0,0,1-3.31-1.33,8.22,8.22,0,0,0-2.21-1.57c-3.47-1.56-7.49-.56-10.93-2.37a11.68,11.68,0,0,1-4.4-4.06,10.82,10.82,0,0,1-1.17-2.48A8.24,8.24,0,0,0,160,61.4c-1-1.5-3.06-1-4.59-.95l-7.94.39c-.64,0-.64,1,0,1l7.94-.39c1-.05,2.83-.47,3.62.31s.76,2,1.08,2.85a12.51,12.51,0,0,0,6.89,7c3.53,1.44,8.2.21,11.25,2.73A9.4,9.4,0,0,0,180.29,76a8,8,0,0,0,2.52.53c2.49.26,5,.48,7.48.72.29,0,.48-.25.5-.5l1.28-16.41.31-3.92a9.76,9.76,0,0,0,.08-3.49c-.55-1.71-2.52-1.17-3.87-1.19a12.17,12.17,0,0,1-10.34-6.32c-.71-1.32-.87-3.51-2.48-4.11a12.23,12.23,0,0,0-3.14-.4l-4.41-.42L149.6,38.66a.5.5,0,0,0-.48.37,97.53,97.53,0,0,0-1.64,22.88c0,.64,1,.65,1,0Z"/><path d="M120.15,200.68l6.83,4.2c.55.34,1-.53.5-.86l-6.83-4.2c-.54-.34-1.05.52-.5.86Z"/><path d="M121.58,197.81a64.09,64.09,0,0,0,11.34,6c.6.24.86-.72.27-1A63.26,63.26,0,0,1,122.08,197c-.54-.36-1,.51-.5.86Z"/><path d="M127,196.59a53.27,53.27,0,0,1,11.34,6.91c.49.39,1.21-.31.7-.71a54.74,54.74,0,0,0-11.53-7.07c-.59-.26-1.09.6-.51.87Z"/><path d="M134.2,196.2a61.05,61.05,0,0,1,9.56,5.91c.52.39,1-.48.51-.86a60.69,60.69,0,0,0-9.57-5.91c-.57-.29-1.08.58-.5.86Z"/><path d="M141,196.16l10,5.52c.56.31,1.07-.55.5-.86l-10-5.52c-.57-.31-1.07.55-.51.86Z"/><path d="M149.69,196.34a35,35,0,0,1,7.11,3.81c.53.37,1-.5.5-.86a35.91,35.91,0,0,0-7.34-3.91c-.6-.24-.86.73-.27,1Z"/><path d="M154.38,195.36l7.71,3.85c.57.28,1.08-.58.5-.87l-7.71-3.85c-.57-.28-1.08.58-.5.87Z"/><path d="M163.46,192.26a31.28,31.28,0,0,0-12.59-3.72l.14,1,9.48-2.58a.5.5,0,0,0-.26-1l-9.49,2.58a.5.5,0,0,0,.13,1A30.1,30.1,0,0,1,163,193.12c.57.31,1.08-.56.51-.86Z"/><path d="M117.47,194.83a20.77,20.77,0,0,1,10.26-5.5.51.51,0,0,0,0-1,39.34,39.34,0,0,1-11-4.9c-.54-.35-1,.51-.5.86a40.29,40.29,0,0,0,11.18,5v-1a21.84,21.84,0,0,0-10.7,5.76c-.46.45.25,1.16.71.71Z"/><path d="M144.82,298.93l-6.45-49.68-1.82-14.08-.5.5q23.61-1.8,47.28-2.54l-.5-.5q0,25.31-.75,50.61-.22,7.2-.51,14.38l.5-.5-11.49,1.24c-.63.06-.64,1.06,0,1l11.49-1.24a.52.52,0,0,0,.5-.5q1-25.29,1.21-50.6.06-7.2.05-14.39a.51.51,0,0,0-.5-.5q-23.67.74-47.28,2.54c-.25,0-.54.21-.5.5L142,284.84l1.83,14.09c.08.63,1.08.64,1,0Z"/><path d="M143,298.47a44.93,44.93,0,0,0,9.76.5c.64,0,.65-1,0-1a43.05,43.05,0,0,1-9.49-.47c-.63-.1-.91.86-.27,1Z"/><path d="M143.72,241a7.16,7.16,0,0,1,2.28,3,.51.51,0,0,0,1-.13l0-2.52h-1l.05,2.25a.5.5,0,0,0,.85.35l2.78-2.47c.48-.43-.23-1.13-.71-.71l-2.77,2.47.85.36L147,241.3a.5.5,0,0,0-1,0l0,2.52,1-.14a8.18,8.18,0,0,0-2.54-3.41.53.53,0,0,0-.71,0,.51.51,0,0,0,0,.71Z"/><path d="M162.15,241a5.82,5.82,0,0,1,3.07,3.57.51.51,0,0,0,1-.13l.17-4.63-1,.13L166,244a.5.5,0,0,0,.48.37,2.79,2.79,0,0,0,2.1-1.87c.28-.61,1.05-2.36,2-1.67.52.39,1-.48.51-.86-1-.77-2.24.13-2.83,1-.47.68-.74,2.29-1.75,2.4l.48.36-.58-4.08c-.08-.58-1-.41-1,.13l-.17,4.63,1-.14a6.81,6.81,0,0,0-3.54-4.16c-.58-.28-1.08.58-.5.86Z"/><path d="M152.72,259a3.79,3.79,0,0,1,3.42,2.43l1-.26a5.82,5.82,0,0,1-.34-2.8h-1l.46,3.27a.5.5,0,0,0,.61.35c1-.18,1.36-1.14,1.72-1.94a1.46,1.46,0,0,1,.69-.83c.14-.07.48-.23.54,0a.5.5,0,0,0,1-.26c-.34-1.17-1.71-.9-2.44-.29a3.36,3.36,0,0,0-.81,1.31c-.2.44-.41,1-.93,1.07l.61.35-.45-3.28a.51.51,0,0,0-1,0,6.74,6.74,0,0,0,.35,3.33c.22.6,1.18.35,1-.26a4.82,4.82,0,0,0-4.38-3.17.5.5,0,0,0,0,1Z"/><path d="M168.36,271.94l4.18,2.77a.5.5,0,0,0,.73-.56,6.45,6.45,0,0,1-.34-2.5l-.93.25a6.58,6.58,0,0,1,1.11,2.69.51.51,0,0,0,.84.22,13.94,13.94,0,0,0,2.82-5.11c.19-.61-.78-.88-1-.26a12.78,12.78,0,0,1-2.57,4.66l.84.22a7.11,7.11,0,0,0-1.22-2.92.5.5,0,0,0-.93.25,7,7,0,0,0,.38,2.76l.73-.56-4.17-2.77c-.54-.36-1,.5-.51.86Z"/><path d="M175.91,249.59l2.4,3.35a.5.5,0,0,0,.79.1,3,3,0,0,0,.55-2.76.5.5,0,0,0-1,.26l.61,2.21a.5.5,0,0,0,.91.12,14.66,14.66,0,0,0,1.9-3.39.5.5,0,0,0-1-.27,13.42,13.42,0,0,1-1.79,3.15l.91.12-.61-2.2-1,.26a2,2,0,0,1-.3,1.8l.79.1-2.41-3.36a.53.53,0,0,0-.69-.18.51.51,0,0,0-.17.69Z"/><path d="M143.69,277.64l1.85,1.81a.51.51,0,0,0,.86-.35l.06-2.18c0-.65-1-.64-1,0a3.74,3.74,0,0,0,.66,2.42.5.5,0,0,0,.78.1l2.8-2.76A.5.5,0,0,0,149,276l-2.8,2.76.79.1a2.89,2.89,0,0,1-.52-1.91h-1l-.06,2.18.85-.36-1.85-1.8c-.47-.45-1.17.25-.71.7Z"/><path d="M130.64,310.14a4.24,4.24,0,0,0,8.19-2.16l-.35.61a3.3,3.3,0,0,0,2.18-2.39,8.83,8.83,0,0,0,.68-4.64c-.41-2.1-3.16-3.88-5-2.11a.51.51,0,0,0,.35.86c2-.17,2.89-2.51,2.2-4.24-1-2.5-4.35-2.44-6.43-1.58l.56.23a5.29,5.29,0,0,0-8.63-.27c-.37.53.5,1,.87.5a4.28,4.28,0,0,1,6.9.27.49.49,0,0,0,.56.23c1.54-.63,4-1,5.07.65.67,1,.35,3.09-1.1,3.21l.36.85a1.71,1.71,0,0,1,2.19,0,2.77,2.77,0,0,1,1.15,2.46,9.81,9.81,0,0,1-.63,3c-.28.83-.64,1.82-1.59,2a.5.5,0,0,0-.35.62,3.23,3.23,0,0,1-6.26,1.63c-.19-.62-1.16-.35-1,.26Z"/><path d="M129.73,319.79l39.38-5.71-.57-.73-.84,1.27c-.36.54.51,1,.86.51l.85-1.28c.26-.4-.18-.79-.57-.73l-39.37,5.7c-.64.1-.37,1.06.26,1Z"/><path d="M133.14,321.39q17.85-3.54,36-5.62c.63-.07.64-1.07,0-1q-18.21,2.09-36.21,5.66c-.63.12-.37,1.09.26,1Z"/><path d="M168.32,318.76a39.57,39.57,0,0,1,8.13,5.14c.5.4,1.21-.3.71-.71a41.68,41.68,0,0,0-8.33-5.3c-.58-.27-1.09.59-.51.87Z"/><path d="M171.75,316.73,182.32,324c.53.36,1-.5.5-.86l-10.57-7.27c-.53-.37-1,.5-.5.86Z"/><path d="M177.91,316.17A75.54,75.54,0,0,0,188.6,324a.5.5,0,0,0,.51-.87,72.8,72.8,0,0,1-10.49-7.63c-.48-.43-1.19.28-.71.7Z"/><path d="M183.68,314.75a124.09,124.09,0,0,0,11.1,7.92c.54.34,1-.52.5-.87a122.32,122.32,0,0,1-10.9-7.76c-.5-.4-1.21.31-.7.71Z"/><path d="M191.41,314.92l8.7,6.71c.51.4,1-.47.51-.86l-8.7-6.71c-.51-.39-1,.47-.51.86Z"/><path d="M195.39,313.31,205,320c.53.37,1-.5.5-.86l-9.64-6.74c-.53-.36-1,.5-.51.87Z"/><path d="M202,311.86a52.3,52.3,0,0,0,9.75,6.81c.57.31,1.07-.56.5-.86a51.64,51.64,0,0,1-9.54-6.66c-.48-.43-1.19.28-.71.71Z"/><path d="M207.53,311.24l11.32,7.58c.54.36,1-.5.51-.86L208,310.38c-.54-.36-1,.5-.51.86Z"/><path d="M215.07,310.8l9.92,7.95c.5.4,1.21-.31.71-.71l-9.93-8c-.49-.39-1.21.31-.7.71Z"/><path d="M222.66,310.94l7.63,6.83c.48.43,1.19-.28.71-.71l-7.63-6.83c-.48-.43-1.19.28-.71.71Z"/><path d="M228,309.93l6.28,5.77c.47.43,1.18-.28.71-.71l-6.28-5.77c-.47-.43-1.18.27-.71.71Z"/><path d="M192.09,200.54l8-8.86c.43-.47-.28-1.18-.71-.7l-8,8.86c-.43.47.28,1.18.71.7Z"/><path d="M194.77,201.16l10.06-4c.59-.23.33-1.2-.27-1l-10.06,4c-.59.23-.33,1.2.27,1Z"/><path d="M201.45,188c-.37,1-2.17.39-2.84.12a11,11,0,0,1-3.22-2,11.4,11.4,0,0,1-3.61-6.33l-.74.57c2.44,1.3,4.18,3.52,6.48,5,2.08,1.35,4.75,2.1,7.07.93.57-.3.07-1.16-.5-.87-2.26,1.15-4.89,0-6.75-1.41s-3.6-3.37-5.79-4.54a.51.51,0,0,0-.74.57,12.48,12.48,0,0,0,4.7,7.45,10.45,10.45,0,0,0,3.92,1.94c1.15.24,2.54.07,3-1.18.22-.61-.75-.87-1-.26Z"/><path d="M104.05,361.14a.5.5,0,0,0,0-1,.5.5,0,0,0,0,1Z"/><path d="M105.78,359.12Q95.71,323.38,87,287.27T71,214.75q-4.14-20.59-7.83-41.29c-.11-.63-1.08-.36-1,.27q6.52,36.56,14.44,72.85t17.2,72.24q5.27,20.34,11,40.57a.5.5,0,0,0,1-.27Z"/><path d="M61.66,172.83q8.31-.74,16.6-1.6c.81-.09,1.9,0,2.51-.67A2.37,2.37,0,0,0,81,168.2c-.72-2.74-1.48-5.47-2.21-8.21a.5.5,0,0,0-1,.27L79.65,167c.16.59.34,1.18.47,1.78a1,1,0,0,1-.92,1.34c-1.17.18-2.37.25-3.55.37q-7,.7-14,1.33c-.64.06-.65,1.06,0,1Z"/><path d="M67.46,81c.91,1.58,2.57,3.26,4.56,3.1,1.75-.13,3.54-1.86,2.92-3.71-.2-.6-1.17-.34-1,.27.44,1.31-1,2.49-2.22,2.45-1.54,0-2.73-1.39-3.44-2.62a.5.5,0,0,0-.86.51Z"/><path d="M62.7,70.22a16.23,16.23,0,0,1,5.58-1.54c.38,0,.73-.56.36-.85a5.42,5.42,0,0,1-2-3.09c-.14-.63-1.1-.36-1,.26a6.19,6.19,0,0,0,2.21,3.53l.35-.85a17.45,17.45,0,0,0-6.08,1.68c-.58.28-.07,1.14.5.86Z"/></g></g></svg>