<svg xmlns="http://www.w3.org/2000/svg" viewBox="0 0 340.09 448.51"><g id="Layer_2" data-name="Layer 2"><g id="Layer_7_143" data-name="Layer 7,143"><path d="M141.62,447.61c16.43,1.48,33.09.88,49.58.07a370.86,370.86,0,0,0,48.7-6,456.38,456.38,0,0,0,94-28.11c4.17-1.75,7.16-5.54,5.85-10.31-1.08-3.93-6.11-7.61-10.31-5.85A456.7,456.7,0,0,1,237.22,425c-15.59,2.92-31.18,4.78-46.93,6.56-16.17,1.83-32.45,1.81-48.67,2.3-8.94.27-8.69,12.93,0,13.71Z"/><path d="M.15,75.67C-.67,86,2,96.42,3.85,106.54q2.67,14.91,5.64,29.75c4,19.87,8.29,39.7,13.33,59.33C27.56,214.08,33.2,232.44,42.9,249A144.63,144.63,0,0,0,74,285.78a137.79,137.79,0,0,0,49.1,27.14c12.76,3.92,18.41-16.5,5.51-20-28.3-7.69-53.71-25-69.56-49.86-9.55-15-15.58-31.94-20.24-49-5-18.22-9.22-36.68-13.21-55.15Q22.1,122.71,19,106.39c-2-10.73-2.83-22.22-7-32.33C9.43,67.87.72,68.55.15,75.67Z"/><path d="M148,430.24c7.48-9.93,6.47-25.27,6.44-37.06,0-13.4-.11-26.79-.15-40.19q-.12-40.83-.49-81.66c-.11-9.72-15.12-9.74-15.12,0,0,26.57.18,53.13.4,79.69q.16,19.68.29,39.35c0,6.11.1,12.22-.34,18.3s-1.95,12.36-1.95,18.61,7.63,7.32,10.92,3Z"/><path d="M13.32,78.48C46,72.34,77.88,61.85,109.82,52.83q47.6-13.44,95.65-25.18,27.79-6.78,55.73-13c9.41-2.09,5.43-16.56-4-14.46C192,14.7,126.69,30.68,63.09,51.16,45.13,57,27.27,63,10.16,71c-4.47,2.09-1.12,8.3,3.16,7.5Z"/><path d="M251.83,20.12c.75,12.78,3.18,25.24,5.1,37.88q2.79,18.42,5,36.93c3,25.21,5.3,50.49,7.78,75.76,4.83,49.45,10.25,99.18,22.64,147.41,7,27.18,16.21,54.17,28.67,79.35,4.81,9.74,19.37,1.2,14.57-8.52C291.23,299.34,288.83,198.42,277.61,101c-1.6-14-3.36-27.92-5.53-41.8s-4.16-27.49-9-40.61c-2.09-5.68-11.69-5.38-11.28,1.52Z"/><path d="M180.8,407.73,182,350.4l.35-16.45c.05-2.58-3.95-2.58-4,0l-1.23,57.33-.35,16.45c-.05,2.58,3.95,2.57,4,0Z"/><path d="M173.79,407A473.7,473.7,0,0,0,225,405.18q7.29-.68,14.54-1.55a2,2,0,0,0,2-2l-1.38-50.45-.39-14.49c-.07-2.57-4.07-2.58-4,0l1.38,50.45.39,14.49,2-2a475.48,475.48,0,0,1-51.16,3.45q-7.31.09-14.62,0c-2.58,0-2.58,4,0,4Z"/><path d="M173.75,337.76a487.26,487.26,0,0,1,61.49,1.39c2.56.22,2.55-3.79,0-4a487.26,487.26,0,0,0-61.49-1.39c-2.56.1-2.58,4.1,0,4Z"/><path d="M182.63,299.66l-2.09-31.4-1-15.57c-.16-2.31-.19-4.86-2.54-6.05-2.08-1-5-.95-7.24-1.12a100,100,0,0,0-17.73.3,2.07,2.07,0,0,0-2,2,2,2,0,0,0,2,2,100.73,100.73,0,0,1,14.53-.48c2.38.09,4.76.26,7.13.55.64.07,1.45,0,1.68.69a14.73,14.73,0,0,1,.27,3.59l1.93,28.93,1.1,16.56c.18,2.55,4.18,2.57,4,0Z"/><path d="M177.89,297.72l48.68-.08a2.05,2.05,0,0,0,2-2,148.39,148.39,0,0,0,.24-27.64c-.39-4.52-1-9-1.77-13.49-.62-3.59-1.33-8.06,1.56-10.9,2.56-2.51,6.59,0,9.19-2.69a6,6,0,0,0,1.34-5.11c-.27-2.23-.73-4.44-1.11-6.65l-4.83-28-1.35-7.85c-.44-2.55-.75-5.16-1.33-7.67-.79-3.38-4.45-7.56-7.91-4.5-1.93,1.71.91,4.53,2.83,2.83-.29.25-.46-.11,0,.36a5.07,5.07,0,0,1,1,1.61,29.74,29.74,0,0,1,1.09,5.73l2.25,13L234.29,231a40,40,0,0,1,.93,5.95c0,1.58-1,1.51-2.36,1.48a10.16,10.16,0,0,0-5,.86,9.28,9.28,0,0,0-3.54,3.33c-2.21,3.4-2,7.54-1.42,11.38.64,4.2,1.36,8.36,1.76,12.59a148,148,0,0,1-.1,29.09l2-2-48.68.08c-2.57,0-2.58,4,0,4Z"/><path d="M160.87,248.32A381.59,381.59,0,0,0,166,200.16c.08-1.79.14-3.59.19-5.38a30.58,30.58,0,0,1,.3-5.58c.67-3.08,3.47-3.69,6.25-3.8,3.72-.14,7.47,0,11.19.07l12.41.12,27.3.26c2.57,0,2.57-4,0-4l-25.32-.24c-8.28-.08-16.59-.34-24.87-.22-3,0-6.36.47-8.64,2.69-2.74,2.65-2.52,6.7-2.61,10.21q-.33,12.6-1.49,25.14-1.3,14-3.66,27.82a2.05,2.05,0,0,0,1.4,2.46,2,2,0,0,0,2.46-1.39Z"/><path d="M183,152.94c2.18-7.13.27-14.57-1-21.69q-2-11.09-3.29-22.28c-.9-7.63-1.6-15.3-2-23-.06-1-.45-2.5.84-2.8a22.42,22.42,0,0,1,5-.09l11.38,0,26.23.1-2-2a180.11,180.11,0,0,0,4.74,45q1.26,5.34,2.84,10.61c.18.6,1.21,2.8.72,3.44-.1.14-.69.15-1,.18l-3.47.36-23.31,2.38-26.28,2.68a2.06,2.06,0,0,0-2,2,2,2,0,0,0,2,2l49.1-5c3.07-.32,8.12.14,8.9-3.82a9,9,0,0,0-.5-4.36c-.61-2-1.19-4-1.72-6a172.53,172.53,0,0,1-4.57-22.86,177.46,177.46,0,0,1-1.43-26.67,2,2,0,0,0-2-2L196,79.16l-11.88,0c-1.88,0-3.77-.08-5.65,0a6.38,6.38,0,0,0-4.31,1.49,5.81,5.81,0,0,0-1.46,4.54c.07,2.09.26,4.18.41,6.26q.44,5.86,1,11.73,1.21,11.73,3.1,23.39c.7,4.28,1.55,8.53,2.24,12.81s1,8.46-.26,12.55c-.76,2.47,3.1,3.53,3.85,1.07Z"/><path d="M85.5,224.62q-.41-33.51,1.06-67,.42-9.43,1-18.85l-2,2L100,141.91c2.32.19,4.64.36,7,.57a9.29,9.29,0,0,1,4.5,1.2c1.43,1,1.43,2.78,1.47,4.36.07,2.49.11,5,.16,7.48q.12,7.23.14,14.47,0,14.58-.37,29.18-.21,7.35-.52,14.71-.15,3.6-.33,7.22c-.06,1.16-.12,2.33-.19,3.49,0,.39-.25,1.24-.09,1.57,0,0-.06.16,0,.19-.06.2.06.12.35-.24l-.15,0c-.13-.22-1.47-.35-1.79-.43l-1.93-.47-4.11-1-8-1.94-16-3.86c-2.5-.61-3.57,3.25-1.06,3.85Q94.52,226,110,229.75c2.11.51,4.42.5,5.36-1.85a9.3,9.3,0,0,0,.44-3.06c.08-1.41.15-2.83.22-4.24q.39-7.84.65-15.7.54-16,.55-31.92,0-7.86-.12-15.72-.06-4-.15-8c0-2.24,0-4.63-1.15-6.65-2.44-4.31-8.35-4.12-12.63-4.46l-17.62-1.42a2,2,0,0,0-2,2q-2,33.47-2.12,67,0,9.44.08,18.87c0,2.58,4,2.58,4,0Z"/><path d="M265.13,418.85l0,.12a1,1,0,0,0,.26,1,1.15,1.15,0,0,0,1,.38,1,1,0,0,0,.86-.49c.58-1.34-.32-3.18-.78-4.47a35.78,35.78,0,0,0-1.95-4.44,32.09,32.09,0,0,0-2.8-4.4,50.83,50.83,0,0,1-3.33-4c-1-1.69-.5-3.56.09-5.3s1.31-3.74,1.81-5.67a54.59,54.59,0,0,0,1.68-11.31c.06-1.28-1.94-1.28-2,0a52,52,0,0,1-1.73,11.23c-.48,1.77-1.1,3.48-1.69,5.22a9.9,9.9,0,0,0-.65,4.87,8.28,8.28,0,0,0,2.38,4,31.73,31.73,0,0,1,5.51,8.51c.35.81.67,1.64.95,2.48.13.4.26.8.37,1.2.05.15.43,1.11.42,1.14l.86-.5-.16,0,.71.29-.12-.1.26,1,0-.12a1,1,0,0,0-1.93-.53Z"/><path d="M261,379.87c3.89.11,7.63-1,11.34-2l12-3.45,24-6.88a1,1,0,0,0-.53-1.93l-23.49,6.75-11.51,3.3c-3.84,1.11-7.71,2.34-11.76,2.23-1.29,0-1.29,2,0,2Z"/><path d="M256.7,402.9,318,386a1,1,0,0,0-.53-1.93L256.17,401a1,1,0,0,0,.53,1.93Z"/><path d="M179.47,432.12l-.85-8.66c-.28-2.83-.93-5.89-.64-8.73.27-2.65,2-4.91,3.65-6.91a1.37,1.37,0,0,1,1.77-.58l2,.55,4.32,1.15-.74-1,1.4,23.26c.08,1.28,2.08,1.29,2,0L191,408a1,1,0,0,0-.73-1l-5-1.33c-1.18-.32-2.64-1-3.83-.41s-1.88,1.89-2.6,2.85a16.84,16.84,0,0,0-2.24,3.85c-1.19,3.06-.51,6.4-.2,9.56l1,10.59c.13,1.27,2.13,1.28,2,0Z"/><path d="M186.29,431.84l-4-27.54c-.18-1.27-2.11-.73-1.93.53l4,27.54c.18,1.27,2.11.73,1.93-.53Z"/><path d="M198.32,429.88l-2-15.82c-.17-1.35-.59-2.58.49-3.63a21.46,21.46,0,0,0,1.83-2,11.58,11.58,0,0,1,1.7-1.93,2,2,0,0,1,2.38-.15,5.67,5.67,0,0,0,2.49.6c.91,0,2.33-.49,3.06.24s.65,2.39.76,3.32l.47,4,1.86,15.85c.15,1.27,2.15,1.28,2,0l-1.72-14.61c-.27-2.34-.52-4.69-.83-7-.2-1.56-.77-3.2-2.44-3.69a6.51,6.51,0,0,0-2.41-.09,5.49,5.49,0,0,1-2.87-.57,3.73,3.73,0,0,0-3.94.56c-1.26,1-2,2.48-3.2,3.6a6.31,6.31,0,0,0-1.62,1.87,5.33,5.33,0,0,0-.1,2.94l2.11,16.56c.16,1.25,2.16,1.27,2,0Z"/><path d="M206.77,429.63q-2.16-11.89-5.17-23.59a1,1,0,0,0-1.93.54q3,11.69,5.17,23.58c.23,1.26,2.16.73,1.93-.53Z"/><path d="M218.43,429c-.62-4.77-1.28-9.55-1.86-14.33a9.31,9.31,0,0,1,1.18-6.55c.87-1.4,2.2-3.83,4-3.95a6.54,6.54,0,0,1,5.17,1.72c1.47,1.56,1.58,4,1.77,6l1.35,14.33c.11,1.27,2.12,1.28,2,0l-1.28-13.59c-.32-3.35-.53-7.07-3.62-9.12-2.62-1.72-6.68-2.08-8.81.48-2.42,2.91-4.24,5.87-3.88,9.78.47,5.09,1.3,10.18,2,15.25.17,1.26,2.17,1.28,2,0Z"/><path d="M227.29,427.34a150,150,0,0,0-5.15-23c-.38-1.23-2.31-.7-1.93.53a150,150,0,0,1,5.15,23c.18,1.27,2.11.73,1.93-.53Z"/><path d="M240.33,425.09l-2.51-6.83a49,49,0,0,1-2.31-6.62c-.52-2.43,1.38-4,2.35-6a17.38,17.38,0,0,0,1.59-5.69l-1,1c4.74-.62,7,4.27,8,8.06,1.25,4.76,2.31,9.57,3.46,14.35.3,1.26,2.23.73,1.93-.53l-2-8.44c-.63-2.63-1.15-5.33-2-7.9-1.37-4-4.63-8.16-9.34-7.54a1,1,0,0,0-1,1,14.79,14.79,0,0,1-2.34,6.48c-1.14,1.74-2,3.19-1.61,5.35a38.63,38.63,0,0,0,2.23,6.58l2.67,7.29c.44,1.2,2.37.68,1.93-.53Z"/><path d="M246.83,424.12a185.47,185.47,0,0,1-7.07-23.89c-.28-1.25-2.2-.72-1.92.54a184.18,184.18,0,0,0,7.06,23.88c.44,1.2,2.37.68,1.93-.53Z"/><path d="M179.29,403.05l-6.24-10.55-3.12-5.28-1.49-2.53a11.7,11.7,0,0,1-1.39-2.61c-.48-1.67,1-3.44,1.68-4.91a23.19,23.19,0,0,0,1.48-4.59,24.92,24.92,0,0,0,.13-9.27,23.4,23.4,0,0,0-4.12-9.83l-.36,1.36a14.5,14.5,0,0,0,5.58-11c.14-1.83.09-4.14,1.33-5.63,1.75-2.11,4.89-.84,6.95,0,1.2.48,1.71-1.45.54-1.93-2.18-.89-4.74-1.77-7-.8a6,6,0,0,0-3.38,4.7c-.41,2.16-.25,4.39-.79,6.52a11.79,11.79,0,0,1-4.19,6.37,1,1,0,0,0-.36,1.36,22.47,22.47,0,0,1,3.58,18.5,21.28,21.28,0,0,1-1.72,4.56c-.75,1.44-1.62,2.87-1.34,4.55s1.47,3.22,2.32,4.66l3.12,5.28,7.11,12a1,1,0,0,0,1.73-1Z"/><path d="M242,402.32l5.57-15.63,2.74-7.7c.83-2.32,2-4.62,1.18-7.08a25,25,0,0,1-1.78-7,20.73,20.73,0,0,1,1-7.25,6.61,6.61,0,0,0-.74-6.17c-1.45-2.06-3.17-3.95-4.77-5.89-2-2.41-3.91-4.84-5.91-7.21-1.38-1.65-3.29-3.32-5.59-2.61-1.23.39-.71,2.32.53,1.93,2.05-.64,3.81,2.29,4.89,3.61l4.67,5.69a65.11,65.11,0,0,1,4.68,5.82c1.42,2.21.16,4.34-.31,6.63a21.45,21.45,0,0,0,1.22,12.39,4.47,4.47,0,0,1,.2,3.33c-.38,1.17-.83,2.32-1.24,3.47l-2.57,7.23-5.66,15.87c-.43,1.22,1.5,1.74,1.93.53Z"/><path d="M180.15,335.8a35.67,35.67,0,0,0-.53-9.45,36.14,36.14,0,0,0-1.25-4.67,16.85,16.85,0,0,1-.71-2.07,6.6,6.6,0,0,1,.24-2.68q2.17-10.08,4.37-20.17c.27-1.26-1.66-1.79-1.93-.54-1.49,6.89-3,13.77-4.47,20.66A7.26,7.26,0,0,0,176,321a45.57,45.57,0,0,1,1.42,4.57,33.76,33.76,0,0,1,.75,10.27c-.1,1.28,1.91,1.28,2,0Z"/><path d="M237.75,337.58a31.85,31.85,0,0,1,1.39-13.71c.66-2,1.64-3.92,1.64-6.06a10.1,10.1,0,0,0-1.63-5.15,53.16,53.16,0,0,0-3.54-4.78,33.6,33.6,0,0,1-3.41-5.52,64.47,64.47,0,0,1-2.29-6.18c-.5-1.38-2.24-2.14-3.13-.64a1,1,0,0,0,1.73,1c-.43.25-.53.56-.3.94l.18.62c.15.48.3,1,.47,1.44.27.76.57,1.51.89,2.25a34.14,34.14,0,0,0,2.64,5c1.85,2.86,4.57,5.32,5.85,8.5,1.47,3.64-.94,7.2-1.79,10.71a33.6,33.6,0,0,0-.7,11.61c.14,1.26,2.14,1.28,2,0Z"/><path d="M177.83,315.38l59.71.52a1,1,0,0,0,0-2l-59.71-.52a1,1,0,0,0,0,2Z"/><path d="M174.75,211.41l0-23.3-1.71.71,12.08,10.67.2-1.57a37.13,37.13,0,0,0-9.82,8.6c-.28.36-2.2,3.37-2.58,3.2-1.17-.5-2.19,1.22-1,1.73a2.6,2.6,0,0,0,3.21-1.06c1.09-1.34,2-2.79,3.18-4.09a35.92,35.92,0,0,1,8-6.66,1,1,0,0,0,.21-1.57l-12.08-10.66a1,1,0,0,0-1.71.7l0,23.3a1,1,0,0,0,2,0Z"/><path d="M224.13,212.16a47.56,47.56,0,0,1-6.35-6.26,45.37,45.37,0,0,1-2.78-3.71,18,18,0,0,1-1.12-1.76c-.45-.88.16-1.29.78-1.86A39.61,39.61,0,0,1,222,193.3c2-1.13,5-2,5.58-4.58l-2-.27-1.62,13-.8,6.39-.4,3.2c-.06.49-.11,1-.18,1.47a2.43,2.43,0,0,1-.22.89c-.31.29-.27.38.12.26-1.15-.58-2.16,1.15-1,1.73,1.63.82,2.77-.77,3-2.25.46-2.72.68-5.51,1-8.25l2.05-16.47c.14-1.11-1.74-1.36-2-.27-.3,1.44-2,2-3.15,2.58a41.79,41.79,0,0,0-4.29,2.51,44.5,44.5,0,0,0-3.82,2.89c-1,.82-2.35,1.76-2.68,3.07s.56,2.43,1.21,3.44c.9,1.37,1.88,2.7,2.91,4a48,48,0,0,0,6.88,6.93c1,.81,2.41-.6,1.42-1.42Z"/><path d="M186.42,199.09l24-.16a1,1,0,0,0,0-2l-24,.16a1,1,0,0,0,0,2Z"/><path d="M174.21,214.2l22.64.46,11.2.24,5.47.12,3,.06,1.49,0h.5c.53.06.66.06.4,0l-.26-1,0,.19.46-.59-.19.08,1.21.16-.11-.11c-.94-.88-2.36.53-1.42,1.42l.12.1a1,1,0,0,0,1.21.16,1.25,1.25,0,0,0-.36-2.35,13.64,13.64,0,0,0-3-.11l-3-.06-13.18-.28-26.13-.54a1,1,0,0,0,0,2Z"/><path d="M175.23,188.14c0-1.38,3.57-.85,4.29-.81,2.22.13,4.45.24,6.67.33q6.44.28,12.86.43,13.11.28,26.23,0a1,1,0,0,0,0-2q-14.59.3-29.2-.09-7.17-.19-14.34-.56c-2.38-.12-8.42-1.26-8.51,2.69a1,1,0,0,0,2,0Z"/><path d="M172.62,431.21a16.18,16.18,0,0,0-3.08-8.78,15.52,15.52,0,0,0-3.12-3.2c-.7-.54-1.61-1-1.85-1.94a7.82,7.82,0,0,1,.11-2.81c.45-4.17-.13-8.42-.44-12.58l-.92-12.34-.27-3.7a4.36,4.36,0,0,0-.45-2.32,1.19,1.19,0,0,0-2.07,1.1,1,1,0,0,0,1,.73h.11c1.27-.13,1.28-2.13,0-2h-.11l1,.74v.24l-.46.6.14-.06h-1a8.65,8.65,0,0,0,0,1.71l.11,1.48.26,3.45.52,6.92c.33,4.5.9,9.06.83,13.57,0,1.86-.66,4-.18,5.8s2.18,2.56,3.44,3.71a14.17,14.17,0,0,1,4.54,9.68c.07,1.28,2.07,1.29,2,0Z"/><path d="M164.09,345.24c1.09-2.65.58-5.57.3-8.32l-1-9.62-1,1c3.69,0,5.23-4,6.4-6.88.83-2,1.51-4.06,2.2-6.13.59-1.8,1.81-4.59,4.22-3.75,1.21.43,1.74-1.5.53-1.92a4.48,4.48,0,0,0-4.62,1.23c-1.42,1.42-1.91,3.48-2.52,5.32a62.82,62.82,0,0,1-2.51,6.53c-.71,1.53-1.77,3.59-3.7,3.6a1,1,0,0,0-1,1l.91,9.14c.28,2.71.9,5.66-.18,8.27-.49,1.19,1.45,1.71,1.93.53Z"/><path d="M188.57,333.57a11.45,11.45,0,0,0-2.73-2.51,4.1,4.1,0,0,1-1.94-3.2c-.29-3.53-.37-7.08-.55-10.61-.07-1.28-2.07-1.29-2,0l.29,5.68c.1,1.83.1,3.69.32,5.5a5.37,5.37,0,0,0,1.85,3.56c1,.86,2.27,1.5,3,2.59s2.46.05,1.72-1Z"/><path d="M189.17,335c1.74-2.75,5.05-4.05,5.72-7.52a22.1,22.1,0,0,0,0-5.63l-.43-6.37c-.09-1.28-2.09-1.29-2,0l.39,5.83a23.15,23.15,0,0,1,.12,5.64c-.58,3.09-3.93,4.53-5.52,7-.69,1.09,1,2.1,1.73,1Z"/><path d="M190.29,334.47q-.81-9-1-18.12a1,1,0,0,0-2,0q.19,9.07,1,18.12c.11,1.27,2.11,1.28,2,0Z"/><path d="M196,317.53c1.1,2.82-.35,5.9.36,8.81.65,2.64,2.63,4.67,4.72,6.27,1,.76,2.24,1.88,3.56,1.91a4.78,4.78,0,0,0,3.35-1.81,11.43,11.43,0,0,0,2.61-6.72,60.09,60.09,0,0,0-.24-9.67c-.08-1.28-2.08-1.29-2,0,.15,2.51.39,5.05.35,7.57a13.08,13.08,0,0,1-1.29,6.23,5.7,5.7,0,0,1-2,2.17c-1.07.61-2.27-.62-3.1-1.25-1.79-1.36-3.53-3.09-4-5.36-.64-2.88.78-5.83-.33-8.68-.46-1.19-2.4-.67-1.93.53Z"/><path d="M204.59,334.44l-1.22-20.36c-.08-1.28-2.08-1.29-2,0l1.22,20.36c.08,1.28,2.08,1.29,2,0Z"/><path d="M213.85,315l.54,9.74c.08,1.43.08,2.85,1,4a38.79,38.79,0,0,0,3.25,3.29c.92.92,1.9,2.26,3.16,2.73s2.48-.28,3.56-.93c2.28-1.36,4.13-3.1,4.4-5.88a18.18,18.18,0,0,0-.51-5l-1-5.62c-.23-1.26-2.16-.73-1.93.53l.92,5.08a18.74,18.74,0,0,1,.56,4.82,4.87,4.87,0,0,1-2.21,3.54,16.48,16.48,0,0,1-1.6,1c-.65.39-1.22.85-1.9.28-1.23-1-2.33-2.29-3.46-3.41a16.92,16.92,0,0,1-1.63-1.65,3.77,3.77,0,0,1-.56-2.28c-.2-3.43-.38-6.86-.57-10.29-.07-1.28-2.08-1.29-2,0Z"/><path d="M223.46,335.8l-.52-19.91a1,1,0,0,0-2,0l.52,19.91a1,1,0,0,0,2,0Z"/><path d="M152.51,295.75l28.5-1.67c1.28-.08,1.29-2.08,0-2l-28.5,1.67c-1.28.08-1.29,2.08,0,2Z"/><path d="M152,289.67c0,2.05,2.36,2,3.86,1.95,2.78-.09,5.56-.18,8.34-.29q8.22-.3,16.43-.77c1.28-.07,1.29-2.07,0-2-2.3.13-26.63,1.25-26.63,1.11a1,1,0,0,0-2,0Z"/><path d="M152.05,284q14.23-.51,28.49-.61a1,1,0,0,0,0-2q-14.25.11-28.49.61c-1.28,0-1.29,2,0,2Z"/><path d="M151.59,280.08q13.56.41,27.14.13a1,1,0,0,0,0-2q-13.57.27-27.14-.13c-1.29,0-1.29,2,0,2Z"/><path d="M153.86,271.67q13.09.93,26.23,1.33c1.29,0,1.29-2,0-2q-13.12-.4-26.23-1.33c-1.29-.09-1.28,1.91,0,2Z"/><path d="M156.12,268.92a90,90,0,0,0,23.31-.18c1.27-.18.73-2.1-.54-1.93a88.1,88.1,0,0,1-22.77.11c-1.27-.16-1.26,1.85,0,2Z"/><path d="M156.57,259a116.24,116.24,0,0,0,19.92-.27c1.27-.13,1.28-2.13,0-2a116.24,116.24,0,0,1-19.92.27c-1.28-.09-1.28,1.91,0,2Z"/><path d="M156.3,254a90,90,0,0,0,24.69.38c1.26-.15,1.27-2.15,0-2a88.46,88.46,0,0,1-24.16-.31c-1.26-.2-1.8,1.73-.53,1.93Z"/><path d="M139.82,282a56.05,56.05,0,0,1-6.95-1.06c-.82-.19-2.51-.28-3-1-.3-.44-.13-1.11-.11-1.64l.1-2,.7-14.62.34-7.18c.09-1.76-.13-4.07.79-5.65,1.07-1.84,4.35-1,6.11-.91l3.38.19a6.86,6.86,0,0,1,1.94.11c.4.32.18,1.37.16,1.8a157.94,157.94,0,0,1-1.35,16.26c-.17,1.26,1.76,1.8,1.93.53a163.13,163.13,0,0,0,1.45-17.52c0-.95.1-2-.74-2.65s-2.74-.49-3.87-.56l-4.11-.23a14.53,14.53,0,0,0-4.06,0c-2,.49-3,2.29-3.31,4.2a68.73,68.73,0,0,0-.49,8.12l-.87,18.09c-.07,1.32-.45,3.06,0,4.34.37,1.09,1.4,1.43,2.41,1.7a57.25,57.25,0,0,0,9.55,1.63c1.29.11,1.28-1.89,0-2Z"/><path d="M91.41,250.81V251l.29-.71-.06.07,1-.26c-.39.73-.27,1.13.37,1.22l.59.23a6,6,0,0,0,1.12.14c1.14.09,2.29.14,3.43.2,2.37.13,4.75.22,7.12.29,4.67.13,9.34.13,14,0l-1-1-.5,16.72a1,1,0,0,0,.74,1,7.69,7.69,0,0,0,4.9.33,1,1,0,0,0,.74-1V213l-1.5.86a3.7,3.7,0,0,0,3.93-.41,5.77,5.77,0,0,0,2-4.26c.21-2.07.12-4.19.15-6.26l.09-6.65.2-13.56c.05-4,.24-8,0-12A23.94,23.94,0,0,0,125.62,159c-.7-1.07-2.44-.07-1.73,1,2.32,3.56,3,7.73,3.19,11.91.19,4.57,0,9.17-.09,13.75l-.21,14.79c0,2.43,0,4.87-.11,7.3a7.62,7.62,0,0,1-.48,3c-.42.91-1.51,1.84-2.56,1.33a1,1,0,0,0-1.51.87v55.24l.73-1a5.9,5.9,0,0,1-3.84-.33l.73,1,.5-16.72a1,1,0,0,0-1-1q-10.44.23-20.87-.3a17.57,17.57,0,0,1-5-.57c-.84-.3-2.06-.38-2.44.65-.67,1.8,2.4,3,2.44.85a1,1,0,0,0-2,0Z"/><path d="M144.41,248l3.53-1.88a1,1,0,0,0,.46-1.12c-1.36-5.62-.06-11.64.33-17.31.41-6,.58-12,.59-17.95,0-11.93-.57-23.85-1.09-35.76-.07-1.58-.09-3.18-.21-4.75-.08-.88-.36-1.94-1.36-2.17-2.07-.47-2.13,3.21-.08,2.61a1,1,0,0,0-.53-1.93l-.15.05,1,.25,0,.71-.7.3c-.57.06-.05-.31-.2.18a3.73,3.73,0,0,0,0,.95c0,.55.05,1.11.07,1.66.06,1.27.12,2.53.17,3.8l.33,7.51c.22,5.17.42,10.34.55,15.51a301.24,301.24,0,0,1-.56,30.5c-.41,5.43-1.45,11-.15,16.37l.46-1.13-3.53,1.87c-1.14.6-.13,2.33,1,1.73Z"/><path d="M146,245.39l5-1.07a1,1,0,0,0,.74-1q-.21-30.87-1.21-61.71-.28-8.7-.63-17.41c0-1.28-2-1.29-2,0q1.23,30.84,1.66,61.7.12,8.7.18,17.42l.73-1-5,1.07c-1.25.27-.72,2.2.54,1.93Z"/><path d="M52.54,234.56a13.32,13.32,0,0,0,5.17-1,1,1,0,0,0,.7-1.23,140.17,140.17,0,0,1-6.77-30.82A142.31,142.31,0,0,1,50.91,186q0-1.87.09-3.75a26.57,26.57,0,0,0,.11-3.78c-.26-2.33-2.74-2.72-4.59-3.38l-4.36-1.57A46.12,46.12,0,0,0,37.81,172c-1.38-.35-3.86,1-2.29,2.46.93.89,2.35-.52,1.41-1.41l.08.15-.1.77c.17-.35,5.29,1.73,5.87,1.94L46,177.05c1,.37,2.93.66,3.15,1.85a15.9,15.9,0,0,1-.14,3.15c0,1.1-.06,2.19-.08,3.29,0,2.26,0,4.53.08,6.79a141.93,141.93,0,0,0,3.35,26.05,140.48,140.48,0,0,0,4.13,14.66l.7-1.23a11.78,11.78,0,0,1-4.64.95,1,1,0,0,0,0,2Z"/><path d="M165.79,374.88a18.4,18.4,0,0,0,.58-18.06c-.6-1.14-2.33-.13-1.73,1a16.35,16.35,0,0,1-.58,16c-.68,1.1,1.05,2.11,1.73,1Z"/><path d="M161.27,325.84l-.16-6.79-.08-3.39c0-.54,0-1.08,0-1.62a1.5,1.5,0,0,1,.23-1.06,1.48,1.48,0,0,1,1.5-.27,2.4,2.4,0,0,1,1.33,1.65,6.73,6.73,0,0,1-.53,4.72,8,8,0,0,1-3.94,3.83,1,1,0,0,0-.36,1.36,1,1,0,0,0,1.37.36c3.87-1.73,6.59-6.48,5.41-10.71-.57-2-2.3-3.62-4.5-3.22a3,3,0,0,0-2.2,1.58c-.56,1.15-.28,2.68-.25,3.92l.22,9.64a1,1,0,0,0,2,0Z"/><path d="M164.4,430.59a12.07,12.07,0,0,1-5.1.49l1,.74a2.19,2.19,0,0,1,.11-1.2,3.07,3.07,0,0,1,.62-1,2.62,2.62,0,0,1,2.27-.9v-2a8.11,8.11,0,0,1-2.18-.43,13.66,13.66,0,0,1-2-1c-.12-.06-.05-.09-.09.15s0,.15.09.06a4.15,4.15,0,0,1,1-.47,7.63,7.63,0,0,1,2.37-.48c1.28,0,1.29-2,0-2a9.56,9.56,0,0,0-3.5.8c-1.06.46-2.34,1.35-1.75,2.69.44,1,1.75,1.55,2.69,1.94a10.07,10.07,0,0,0,3.38.76,1,1,0,1,0,0-2,4.82,4.82,0,0,0-4.93,5.64,1,1,0,0,0,1,.73,13.59,13.59,0,0,0,5.63-.56c1.22-.39.7-2.32-.53-1.93Z"/><path d="M159.88,416.1a1.53,1.53,0,1,1-.52-3l-.53-1.93c-2,.41-2.21-2.62-.4-2.36,1.23.17,1.81-1.59.53-1.93a2.8,2.8,0,0,1,.9-5.53,1,1,0,0,0,.51-1.86,6.63,6.63,0,0,1-3.07-2.5c-.41-.83-.11-2.82,1.2-2.55s1.79-1.67.53-1.93a3.45,3.45,0,0,0-4,3.49c-.07,2.53,2.3,4.17,4.29,5.22l.5-1.87a4.8,4.8,0,0,0-1.43,9.46l.53-1.93a3.26,3.26,0,0,0-3.83,3.43,3.45,3.45,0,0,0,4.23,2.79c1.27-.27.72-2.14-.53-1.93a3.53,3.53,0,1,0,1.58,6.86,1,1,0,0,0-.53-1.93Z"/><path d="M256.54,369.53a118,118,0,0,0,23.37-4.12,1,1,0,0,0-.53-1.93,114.17,114.17,0,0,1-22.84,4c-1.27.09-1.28,2.09,0,2Z"/><path d="M256,368.07a4.5,4.5,0,0,1-1.18-8.36,1,1,0,0,0-1-1.72,6.49,6.49,0,0,0,1.66,12c1.25.31,1.78-1.62.53-1.92Z"/><path d="M252.24,364.08l26.3-3.54c1.27-.17.73-2.1-.53-1.93l-26.3,3.54c-1.27.17-.73,2.1.53,1.93Z"/><path d="M254.05,358.69l24.49-3.59c1.27-.19.73-2.12-.53-1.93l-24.49,3.59c-1.27.18-.73,2.11.53,1.93Z"/><path d="M254.13,351.94q11.33-2.19,22.57-4.77c1.25-.29.72-2.22-.53-1.93q-11.25,2.58-22.57,4.77c-1.26.25-.73,2.18.53,1.93Z"/><path d="M253.39,349.9l-3.91-2.61c-.59-.4-1.11-.74-1-1.52a4.7,4.7,0,0,1,1.18-1.8,11.38,11.38,0,0,1,7.2-3.51c6.17-.9,12.41-1.45,18.61-2.17,1.26-.15,1.28-2.15,0-2l-11.72,1.36c-3.56.41-7.53.43-10.91,1.74-2.48,1-5.52,3.15-6.29,5.85a2.91,2.91,0,0,0,1,3.18,56.35,56.35,0,0,0,4.75,3.2c1.08.72,2.08-1,1-1.72Z"/><path d="M248.21,346.76l26.25-4.93c1.26-.23.72-2.16-.54-1.92l-26.24,4.92c-1.26.24-.73,2.17.53,1.93Z"/><path d="M249.13,334.63l24-4.44c1.26-.23.73-2.16-.53-1.93l-24,4.44c-1.26.23-.73,2.16.53,1.93Z"/><path d="M247.94,332.31l-4.8-2.6c-1.22-.65-2.85-1.43-2-3.07.74-1.42,2.53-1.68,4-1.76,1.74-.11,3.48-.14,5.22-.25A161.72,161.72,0,0,0,271.27,322c1.26-.25.73-2.18-.53-1.93q-6.37,1.25-12.82,2c-4.26.47-8.52.64-12.79.9-2.82.17-6.49,1.49-6.22,5a4,4,0,0,0,2.33,3.1C243.1,332,245,333,246.93,334c1.13.61,2.14-1.12,1-1.73Z"/><path d="M241.17,329.35q16-1.43,31.86-3.78c1.27-.19.73-2.12-.53-1.93q-15.6,2.31-31.33,3.71c-1.27.12-1.28,2.12,0,2Z"/><path d="M287.83,371.52c1.49-13.76-2.47-27.26-6.5-40.26-3.87-12.5-7.85-25-12.94-37.06a175.81,175.81,0,0,0-8.58-17.69c-1.55-2.75-3.27-5.4-4.76-8.19a32.36,32.36,0,0,1-3.26-9.57c-1.2-6.56-2-13.14-3.49-19.66a199.34,199.34,0,0,0-5.48-19.61c-1.19-3.55-2.61-7-3.74-10.59s-1.76-7.13-.89-10.77c1.42-5.92,5.52-11.59,3.77-17.9a1,1,0,0,0-1.93.54c1.56,5.61-2.22,11-3.62,16.26-1.71,6.39.68,12.34,2.84,18.29a199.08,199.08,0,0,1,9.83,39A61.38,61.38,0,0,0,251,264a42,42,0,0,0,4.11,8.48,180.63,180.63,0,0,1,9.08,17.12c5.47,11.95,9.65,24.45,13.59,37,4.55,14.49,9.73,29.56,8.06,45-.14,1.27,1.86,1.26,2,0Z"/><path d="M270.15,321.37a12.59,12.59,0,0,1,2.62,7.19,1,1,0,0,0,1,1,1,1,0,0,0,1-1,14.32,14.32,0,0,0-2.89-8.2,1,1,0,0,0-1.37-.36,1,1,0,0,0-.36,1.37Z"/><path d="M273.87,337.46a12.1,12.1,0,0,1,2.94,9.2,1,1,0,0,0,1,1,1,1,0,0,0,1-1A14.11,14.11,0,0,0,275.28,336c-.86-1-2.27.46-1.41,1.42Z"/><path d="M277.1,355.93a11,11,0,0,1,3.94,9.86,1,1,0,0,0,.7,1.23,1,1,0,0,0,1.23-.7,13,13,0,0,0-4.46-11.8,1,1,0,0,0-1.41,0,1,1,0,0,0,0,1.41Z"/><path d="M240.2,297.31l-4.42-7.37c-.68-1.14-1.87-2.51-1.57-3.91a36.35,36.35,0,0,1,1.49-3.82,30.32,30.32,0,0,0,1.55-7.65c.06-.81-.08-1.12.75-.93.62.15,1.22.42,1.84.59a19,19,0,0,0,3.76.58,17.94,17.94,0,0,0,3.66-.18c.78-.11,1-.25,1.19.5.15.59.26,1.17.43,1.75a11.06,11.06,0,0,0,2.89,5.18,8.59,8.59,0,0,0,2.34,1.41c1,.42,2.18.79,1.5,2a18.33,18.33,0,0,0-1.5,2.71,15.05,15.05,0,0,0-.64,3.52,35.46,35.46,0,0,1-.4,4.12c-.19,1-.45,1-1.42,1l-2.47-.14-9.86-.54c-1.28-.07-1.28,1.93,0,2l10.85.59c1.21.07,2.75.45,3.8-.34s1.11-2.32,1.25-3.49c.16-1.42.17-2.85.37-4.25a9.39,9.39,0,0,1,1.64-4c1.5-2.31,0-4-2.11-4.93-2.55-1.12-3.69-3.11-4.41-5.74-.28-1-.33-2.37-1.25-3.08-1.1-.84-2.85-.15-4.09-.1a16.34,16.34,0,0,1-4.57-.42c-1.21-.28-2.6-1.1-3.87-.89a2,2,0,0,0-1.62,2,39.46,39.46,0,0,1-.67,5.08,31,31,0,0,1-1.78,5.4c-.65,1.52-1,2.82-.3,4.39a54.33,54.33,0,0,0,2.84,4.82l3.07,5.12a1,1,0,0,0,1.73-1Z"/><path d="M231.66,286.42c6.36.42,12.73,1,19.1,1.14a23.71,23.71,0,0,0,4-.18,14.64,14.64,0,0,0,2.09-.44,19.62,19.62,0,0,1,1.87-.74c1.36-.27,2.09,1.58.61,2-1.29.39-1.52-1.34-.74-2,1-.83-.44-2.24-1.41-1.41-2.38,2-.47,6.26,2.68,5.35a3,3,0,0,0-.67-6,6.21,6.21,0,0,0-2.47.71,12.78,12.78,0,0,1-3.3.64,52.78,52.78,0,0,1-6.77-.16c-5-.28-10-.61-14.94-.94-1.28-.09-1.28,1.91,0,2Z"/><path d="M237.66,299.28l-4.4-7.18c-.72-1.17-1.51-2.34-2.17-3.55-.51-.92-.23-1.46.18-2.33.29-.62.58-1.24.84-1.86a46.77,46.77,0,0,0,2.42-7.1c.32-1.25.58-2.5.8-3.77.09-.54.17-1.07.24-1.61.05-.37.1-.75.14-1.12,0-.15,0-.3,0-.45s0-.31-.19-.14l-.71-.3.18.18-.25-1,0,.18.46-.6h.16l.87.5-.1-.13c-.77-1-2.51,0-1.73,1a1.24,1.24,0,0,0,2.29-.42c.25-1.34-1.51-1.87-2.38-1a2.65,2.65,0,0,0-.57,1.73c-.12,1-.26,2.07-.44,3.09a46.22,46.22,0,0,1-3.58,11.4c-.76,1.62-1.4,2.87-.49,4.58,2,3.74,4.47,7.29,6.68,10.91.67,1.09,2.4.09,1.73-1Z"/><path d="M169.38,67.11l.79,10.36c0,.49.43,1.07,1,1L185.9,76.6a1,1,0,0,0,1-1L187,65l-2,.27c.51,3,1.4,6.16,3.49,8.44,2.43,2.66,5.55,2.46,8.84,2a9.68,9.68,0,0,1,3,0,12.34,12.34,0,0,1,2.54,1c1.34.58,2.91.85,4.06-.28s1.13-3.19,1.24-4.76l.49-6.8-1.86.5c2.22,2.91,1.27,7.32,4.43,9.69s7.61.45,11.31,1.12a1,1,0,0,0,1.26-1l1.3-10.78-1.87.5a49,49,0,0,1,3.53,9.19,1,1,0,0,0,1,.74,56.43,56.43,0,0,0,10.05-.77c1.26-.21.73-2.14-.53-1.93a52.35,52.35,0,0,1-9.52.7l1,.73A51.81,51.81,0,0,0,225,64c-.5-1-1.76-.37-1.86.51l-1.3,10.78,1.27-1a20.54,20.54,0,0,0-5.37,0c-1.69.13-3.71.35-5.19-.69s-1.81-3-2.19-4.59a11.53,11.53,0,0,0-1.79-4.58,1,1,0,0,0-1.87.51l-.39,5.34c-.06.9-.12,1.79-.19,2.68,0,.63,0,1.67-.56,2.12-1,.86-3.22-.85-4.26-1.15a10.75,10.75,0,0,0-4.34,0c-2.9.39-5.54.51-7.45-2a16.24,16.24,0,0,1-2.53-7c-.19-1.14-2-.83-2,.26L184.9,75.6l1-1-14.73,1.87,1,1-.79-10.36c-.09-1.28-2.1-1.29-2,0Z"/><path d="M156.56,50.46q8.17,0,16.34.16c2.44,0,5-.11,7.4.61,2.14.67,4.1,2.39,3.93,4.79-.06,1,1.47,1.42,1.87.51a17.23,17.23,0,0,0,1.42-8.62l-.74,1c2.56-.83,5.41-1.78,8.11-1.09,2.1.54,4.3,2.51,3.93,4.87-.2,1.24,1.59,1.8,1.93.53l2-7.65-.46.6a8.71,8.71,0,0,1,11.35,4.79c.31.85,1.72,1,1.93,0l1.61-8.09-.7.7c4.38-1.17,10.44.63,11.25,5.66.18,1.13,2,.84,2-.26l0-7.51-.73,1c5.32-1.93,11.75,2.35,11.84,8.06,0,.78,1.15,1.43,1.71.71a11.79,11.79,0,0,0,2.31-9.85l-.7,1.23a45.05,45.05,0,0,1,11.11-1c1.28,0,1.28-2,0-2a47.87,47.87,0,0,0-11.64,1.08,1,1,0,0,0-.7,1.23,9.64,9.64,0,0,1-1.79,7.9l1.7.71c-.12-6.93-7.81-12.37-14.37-10a1,1,0,0,0-.74,1l0,7.51,2-.27c-1-6.12-8.37-8.48-13.71-7.06a1,1,0,0,0-.7.7l-1.61,8.09h1.93a10.71,10.71,0,0,0-8.71-6.83c-1.69-.23-4.12-.18-5.58.84-.87.61-1,2.5-1.23,3.47l-1.27,4.78,1.93.53a6.55,6.55,0,0,0-4.06-6.87c-3.35-1.52-7.13-.44-10.44.63a1,1,0,0,0-.73,1,15.26,15.26,0,0,1-1.15,7.61l1.86.5a6.4,6.4,0,0,0-3-5.63c-2.17-1.46-4.92-1.66-7.46-1.72-6.38-.15-12.78-.19-19.17-.21a1,1,0,0,0,0,2Z"/><path d="M239.33,74.09A3.45,3.45,0,0,0,242.46,71c.4-2.26-1.25-4.36-.73-6.56l-1.47.6a7.53,7.53,0,0,1,3.66,6.18,1,1,0,0,0,1.27,1l4.05-.61a24.37,24.37,0,0,0,3.93-.61,1.79,1.79,0,0,0,1.21-1.75c.1-1.41,0-2.86,0-4.27l-.74,1c1.15-.34,1.82,1.75,2.39,2.45a4.68,4.68,0,0,0,2.18,1.47,5,5,0,0,0,5-1.2l-1.58-1.21-.53,1c-.6,1.14,1.13,2.15,1.72,1l.54-1a1,1,0,0,0-1.57-1.22,2.88,2.88,0,0,1-4.49-.54c-1-1.51-2.06-3.32-4.18-2.69a1,1,0,0,0-.73,1v3.21c0,.25.07.77-.08,1s-1.31.19-1.57.23l-6.08.92,1.26,1a9.64,9.64,0,0,0-4.65-7.91,1,1,0,0,0-1.47.6c-.41,1.75.16,3.28.58,5,.23.91.37,3.17-1,3.24s-1.29,2.06,0,2Z"/><path d="M270.79,170.76c-3.52-.55-7.13-1-10.57.16l1.27,1a562.47,562.47,0,0,0-5.89-69.55q-1.46-9.85-3.26-19.64l-.7,1.23,11-1.82c1.27-.21.73-2.14-.53-1.93l-11,1.82a1,1,0,0,0-.7,1.23,555.64,555.64,0,0,1,8.3,69q.57,9.81.78,19.65a1,1,0,0,0,1.26,1c3.1-1.09,6.34-.66,9.51-.16,1.25.19,1.8-1.73.53-1.93Z"/><path d="M241.94,180l-13.59-39.8c-.42-1.21-2.35-.69-1.93.53L240,180.53c.41,1.21,2.34.69,1.93-.53Z"/><path d="M242.31,181.55l13.36-3.8c1.72-.49,3.92-.81,5.19-2.2a2.91,2.91,0,0,0-.07-4.12c-1-.8-2.41.61-1.41,1.42,1.31,1.05-1.19,2.09-1.92,2.31-1.68.5-3.38,1-5.06,1.44l-10.62,3a1,1,0,0,0,.53,1.93Z"/><path d="M221.26,82.45a65.78,65.78,0,0,0,17.35-1.72c2.64-.59,5.48-1.4,8.21-1.16a3.48,3.48,0,0,1,3,1.65c.62,1.22.34,2.81.13,4.09s1.73,1.8,1.93.53c.4-2.47.65-5.4-1.6-7.11s-5.5-1.21-8.1-.77c-3.39.57-6.7,1.51-10.1,2a58.5,58.5,0,0,1-10.83.49c-1.29,0-1.28,2,0,2Z"/><path d="M250,178l-8.16-75.52L239.5,81.09c-.13-1.27-2.13-1.28-2,0l8.17,75.52L248,178c.14,1.27,2.14,1.28,2,0Z"/><path d="M180.9,151.71l.07,4a1,1,0,0,0,.73,1c7.47,1.36,15,0,22.46-1l23.49-3.17-.53-1.92-1.61.66c-1.17.48-.66,2.42.54,1.93l1.6-.67a1,1,0,0,0-.53-1.92l-22.52,3c-7.35,1-15,2.49-22.36,1.14l.73,1-.07-4a1,1,0,0,0-2,0Z"/><path d="M180.37,152.12a54.28,54.28,0,0,0,.79,6.75c.52,2.15,3.14,1.62,4.8,1.6q7.29-.06,14.58-.33,14.7-.54,29.36-1.94a1,1,0,0,0,1-1.27,13.05,13.05,0,0,0-4.11-6.7c-1-.83-2.39.57-1.42,1.42a11.14,11.14,0,0,1,3.6,5.81l1-1.26q-13.31,1.26-26.64,1.83-6.67.28-13.35.4l-3,0h-2a6.12,6.12,0,0,1-1.48,0c-.64-.24-.48-.8-.55-1.42l-.19-1.65-.38-3.3c-.14-1.26-2.14-1.28-2,0Z"/><path d="M105.34,128.15l-2.71-24.66c-.21-1.89-.61-3.86-.63-5.77,0-1.12.73-1.35,1.62-1.83s1.94-1,2.93-1.53c1.62-.8,3.26-1.55,4.92-2.23s3.87-1.88,5.79-1.4a38.09,38.09,0,0,1,5.39,2.2c1.88.8,3.78,1.57,5.65,2.41a5.2,5.2,0,0,1,2,1.24,3.51,3.51,0,0,1,.47,2.52c-.13,2.09-.36,4.19-.54,6.28q-.49,5.91-1,11.81l-.51,5.9c-.08,1-.17,2-.26,3a10.86,10.86,0,0,1-.32,3.13c-.41.91-2.15.79-3,.87-1.08.11-2.17.19-3.25.23a58.08,58.08,0,0,1-19.48-2.5,1,1,0,0,0-.53,1.93,57.81,57.81,0,0,0,25.83,2,2.93,2.93,0,0,0,2.56-2.93c.27-2.31.41-4.63.61-7q.61-7,1.21-14c.2-2.29.4-4.59.59-6.88.16-1.81.53-3.83-.59-5.41s-3-2.06-4.57-2.74L121,90.08c-1.74-.75-3.47-1.67-5.43-1.41a23.35,23.35,0,0,0-6,2.09q-3,1.29-6,2.84c-1.48.78-3.48,1.52-3.65,3.43a18.66,18.66,0,0,0,.3,3.5l.41,3.7.87,7.89,1.76,16c.14,1.27,2.14,1.28,2,0Z"/><path d="M116.94,130.9q0-21.42.49-42.84a1,1,0,0,0-1.5-.86A4.14,4.14,0,0,0,114,89.46c-.47,1.19,1.47,1.71,1.93.53a2.07,2.07,0,0,1,1-1.07l-1.51-.86q-.45,21.42-.49,42.84a1,1,0,0,0,2,0Z"/><path d="M45.77,120.5c-.18,2.79-.33,5.58-.43,8.37-.05,1.33-.1,2.66-.13,4a14.93,14.93,0,0,0,0,3.72,2.05,2.05,0,0,0,1.79,1.6,27.61,27.61,0,0,0,3.86,0h8.39c1.33,0,2.67,0,4,0A2.15,2.15,0,0,0,65.48,137a9.31,9.31,0,0,0,.19-3.12l0-4.31.06-8.22c0-1,.19-2.11-.57-2.84s-2-.67-3-.78a52.1,52.1,0,0,0-17.69,1c-1.25.29-.72,2.22.53,1.93a50.14,50.14,0,0,1,13-1.26c1.08,0,2.15.11,3.23.21.52,0,1,.11,1.57.18.73.1.91,0,1,.76.13,2.19,0,4.45-.05,6.65l0,6.66c0,.59,0,1.17,0,1.76s0,.64-.59.64H47.88c-.54,0-.72.12-.73-.43-.09-5.08.29-10.22.62-15.29.08-1.28-1.92-1.28-2,0Z"/><path d="M90.4,137.45c-3.62-.52-5.63-3.84-6.25-7.18-.77-4.1-.23-8.54-.13-12.68l.6-26-1.27,1c3.11.76,6.35,1.47,9.56,1a10.14,10.14,0,0,0,6.92-4.56c3.78-5.81,1.73-12.9-.29-18.93-.24-.75-1.43-1.07-1.82-.24l-.88,1.83c-.55,1.16,1.17,2.17,1.73,1l.87-1.83-1.82-.24c1.77,5.31,3.81,11.5.85,16.78-3.1,5.52-9.37,4.56-14.59,3.29a1,1,0,0,0-1.26,1L82,120.07c-.1,4.21-.64,8.85.84,12.9,1.15,3.12,3.65,5.92,7.07,6.41,1.26.18,1.8-1.75.53-1.93Z"/><path d="M80.46,87.19a9.82,9.82,0,0,0,12-4.07c2.62-4.52,1.33-10.15.07-14.88l-1.23,1.23A6.71,6.71,0,0,0,95,69.21c.44-.11,1.26-.3,1.64.06.14.13.28.44.11.53-1.14.61-.13,2.33,1,1.73a2.34,2.34,0,0,0,.1-3.84,3.49,3.49,0,0,0-2.67-.55c-1.14.16-2.28.78-3.42.41a1,1,0,0,0-1.23,1.23c1.07,4,2.36,8.91.39,12.86a7.84,7.84,0,0,1-10,3.62c-1.18-.49-1.7,1.44-.53,1.93Z"/><path d="M11.84,87.69C28.51,82.32,45.18,77.27,62.3,73.54c8.45-1.84,16.92-3.57,25.3-5.7,8.15-2.07,16.08-4.73,24-7.53,4.43-1.57,8.86-3.13,13.37-4.46,2.2-.66,4.42-1.26,6.67-1.77,1.12-.26,2.24-.5,3.37-.71.52-.1,3-.85,3.34-.48l-.3-.7.3-.53.77.1L139,51.7l.49.87v-.15c-.15-1.27-2.16-1.28-2,0a1.29,1.29,0,0,0,2.45.45,1.34,1.34,0,0,0-.36-1.61,2.83,2.83,0,0,0-2.36-.29A96.75,96.75,0,0,0,124,54.05c-8.71,2.61-17.16,6-25.84,8.74C80,68.49,61.08,71.22,42.73,76.18c-10.57,2.86-21,6.23-31.42,9.59-1.22.39-.7,2.32.53,1.92Z"/><path d="M138.58,52.91c.13.43-.13-.16.15.1a1.78,1.78,0,0,1,.37.45,8.13,8.13,0,0,1,.61,1.6c.45,1.38.87,2.78,1.25,4.19a77.64,77.64,0,0,1,1.77,8.55,1,1,0,0,0,1.23.7,1,1,0,0,0,.69-1.23,75.89,75.89,0,0,0-2.75-11.91c-.46-1.45-.86-3.53-2.43-4.19s-3.3.66-2.82,2.27a1,1,0,0,0,1.93-.53Z"/><path d="M154.14,66.65A125.15,125.15,0,0,0,151.56,51l-.7,1.23c2.49-1,5.71-2.14,8.08-.31a1,1,0,0,0,1.37-.36,1,1,0,0,0-.36-1.36c-2.81-2.17-6.64-1-9.62.1a1,1,0,0,0-.7,1.23,118.89,118.89,0,0,1,2.51,15.1c.13,1.27,2.13,1.28,2,0Z"/><path d="M151.2,163.44l-4.89-76.7-1.4-21.91c-.08-1.28-2.08-1.29-2,0l4.9,76.7,1.39,21.91c.09,1.28,2.09,1.29,2,0Z"/><path d="M164.44,183.19c-2.36-16.14-3.35-32.42-4.14-48.7s-1.38-32.43-3-48.58c-.88-9.07-2.08-18.11-3.76-27.07-.23-1.27-2.16-.73-1.93.53,3,16,4.4,32.25,5.33,48.49s1.41,32.45,2.61,48.65c.67,9.1,1.59,18.18,2.91,27.21.18,1.27,2.11.73,1.93-.53Z"/><path d="M151.23,246.25l-1.32,17.53h2L151.27,247a1,1,0,0,0-2,0l0,12.79a1,1,0,0,0,2,0l0-12.79h-2l.64,16.76a1,1,0,0,0,2,0l1.32-17.53c.1-1.28-1.9-1.27-2,0Z"/><path d="M64,250.31c5,.69,9.65-1.58,14.63-1.73a50.17,50.17,0,0,1,7.73.72l8.2,1.06c1.28.16,1.26-1.84,0-2l-7.72-1a59.32,59.32,0,0,0-7.75-.78c-4.91,0-9.63,2.48-14.56,1.8-1.26-.17-1.8,1.75-.53,1.93Z"/><path d="M71.52,263l24.15.79c8,.27,16,.28,23.87,1.12,1.28.14,1.27-1.86,0-2-7.91-.84-15.92-.85-23.87-1.12L71.52,261c-1.29,0-1.28,2,0,2Z"/><path d="M118,268.85v9.88c0,1.31.27,3-1.35,3.31a16.33,16.33,0,0,1-4.19-.08L92.79,280.9c-1.28-.07-1.28,1.93,0,2,7.48.41,15,1,22.45,1.21,2.78.08,4.67-1.12,4.76-4,.13-3.73,0-7.49,0-11.22a1,1,0,0,0-2,0Z"/><path d="M56.15,229,69,227.7c1.87-.18,3.82-.22,5.66-.57a2.53,2.53,0,0,0,2.31-2.69,41.56,41.56,0,0,0-1.11-5.95q-.6-3-1.21-6.07-1.26-6.31-2.6-12.6-2.62-12.47-5.51-24.88-1.42-6.15-2.9-12.28c-.59-2.46-1.13-6.72-4.45-6.86a7.61,7.61,0,0,0-2.7.59l-3.55,1.22-6.62,2.26-13.94,4.78c-1.22.41-.7,2.35.53,1.93L55.1,159c1.23-.42,3.62-1.78,4.78-.84s1.27,2.87,1.57,4.1q1.34,5.52,2.63,11.07,5.22,22.41,9.68,45l.57,2.91c.1.49.19,1,.28,1.46a5.75,5.75,0,0,1,.35,2c-.23.82-1.93.67-2.54.73L69,225.7,56.15,227c-1.27.13-1.28,2.13,0,2Z"/><path d="M27.06,149.16q5.25-1.75,10.49-3.49L42.81,144l2.52-.82,1.26-.41c.31-.1,1.13-.54,1.43-.46.57.16.36,1.41.36,1.89v11.24c0,.38.1.85-.16,1.13s-.9.3-1.29.38q-2.67.56-5.33,1.18-6.06,1.44-12,3.25a1,1,0,0,0,.53,1.93q6.18-1.87,12.46-3.35c2-.47,4.21-.72,6.19-1.36,1.78-.58,1.62-2.26,1.63-3.82V145a13.05,13.05,0,0,0-.11-2.93c-.42-1.72-1.82-2.07-3.37-1.58-2.11.66-4.21,1.36-6.31,2q-7,2.3-14.06,4.66c-1.21.41-.69,2.34.53,1.93Z"/><path d="M62,157.79l-3.43-18.36-1,1.26,7.75-.07-1-.73q6.75,30.57,13.52,61.16l3.86,17.48c.28,1.25,2.21.72,1.93-.53L70.17,156.83l-3.86-17.48a1,1,0,0,0-1-.73l-7.75.07a1,1,0,0,0-1,1.27l3.43,18.36c.23,1.27,2.16.73,1.93-.53Z"/><path d="M117.23,88.82a64.29,64.29,0,0,0-.57-14.47q-.27-1.75-.63-3.51a10.49,10.49,0,0,0-.8-3c-.92-1.59-3.45-.35-2.44,1.2.7,1.08,2.43.08,1.73-1l-.09-.12.1.77c-.85-.21-1.17-.09-1,.37,0,.19.1.39.14.58.11.45.22.9.31,1.35.17.77.33,1.55.47,2.33q.47,2.59.69,5.22a64.15,64.15,0,0,1,.06,10.28c-.1,1.29,1.9,1.28,2,0Z"/><path d="M102.75,67.81a57.55,57.55,0,0,1,11.48,1.24c1.25.27,1.79-1.66.53-1.93a59.93,59.93,0,0,0-12-1.31,1,1,0,0,0,0,2Z"/><path d="M103.53,67.41l20.56-5.92-1-1.67-8.73,9.88c-.85,1,.56,2.38,1.41,1.41l8.73-9.88a1,1,0,0,0-1-1.67L103,65.48a1,1,0,0,0,.53,1.93Z"/><path d="M122.84,59.71c4.1,10.41,8.4,22.51,3.32,33.38-.54,1.16,1.18,2.17,1.73,1,5.35-11.45,1.22-23.9-3.12-34.92-.46-1.19-2.4-.67-1.93.53Z"/><path d="M102.07,68.42c1.84.49,2.6,2.51,3.26,4.1q1.35,3.33,2.59,6.69T110.29,86c.7,2.1,1.87,4.53,1.19,6.76-.38,1.23,1.55,1.76,1.92.53.77-2.5-.25-5-1-7.37q-1.35-4.09-2.86-8.12c-.9-2.43-1.8-4.9-2.87-7.26-.82-1.81-2-3.5-4-4a1,1,0,0,0-.53,1.93Z"/><path d="M179.15,75.27l-3-25.35c-.08-.63-1.08-.64-1,0l3,25.35c.07.64,1.07.64,1,0Z"/><path d="M171.23,73.46l3.62,2.26a.5.5,0,0,0,.68-.18.52.52,0,0,0-.18-.69l-3.62-2.26a.5.5,0,0,0-.68.18.52.52,0,0,0,.18.69Z"/><path d="M169.38,69.89l7.25,5c.53.37,1-.5.5-.86l-7.24-5c-.54-.37-1,.5-.51.86Z"/><path d="M169.42,66.22,178.49,73c.52.38,1-.49.51-.87l-9.07-6.75c-.52-.38-1,.49-.51.87Z"/><path d="M168,60.67A92.38,92.38,0,0,0,175.57,68c.48.42,1.19-.28.7-.71A93.87,93.87,0,0,1,168.71,60c-.44-.47-1.15.24-.71.71Z"/><path d="M168.47,57.48l7.69,7.24c.46.44,1.17-.26.7-.71l-7.68-7.24c-.47-.44-1.18.27-.71.71Z"/><path d="M167.28,52.88a20.1,20.1,0,0,1,6,5.17.5.5,0,1,0,.71-.71A21,21,0,0,0,167.79,52c-.57-.31-1.07.55-.51.86Z"/><path d="M170.79,52.63,173.51,54a.5.5,0,0,0,.5-.86l-2.71-1.36a.52.52,0,0,0-.69.18.51.51,0,0,0,.18.69Z"/><path d="M200,72.1a95.12,95.12,0,0,0-5.12-23.75c-.22-.61-1.18-.35-1,.26A94.07,94.07,0,0,1,199,72.1c0,.64,1,.64,1,0Z"/><path d="M187.12,68.36q4.9,2.39,9.95,4.4c.6.23.86-.73.27-1-3.29-1.31-6.53-2.75-9.71-4.29-.58-.28-1.09.58-.51.86Z"/><path d="M189.32,65.78c3.11,1.65,6.16,3.4,9.14,5.28.54.34,1-.52.5-.87q-4.47-2.81-9.14-5.27c-.57-.3-1.07.56-.5.86Z"/><path d="M189.21,62.53A61.2,61.2,0,0,0,197,68a.5.5,0,0,0,.51-.87,59.87,59.87,0,0,1-7.63-5.28c-.5-.41-1.21.3-.71.7Z"/><path d="M187.11,57.1l9.54,7.19c.51.39,1-.48.5-.86l-9.53-7.19c-.52-.39-1,.48-.51.86Z"/><path d="M188.43,54.89a37,37,0,0,1,8,6.71c.44.47,1.14-.24.71-.71A38.46,38.46,0,0,0,188.94,54c-.55-.34-1.05.52-.51.86Z"/><path d="M188.45,50.79l6.34,4.51a.5.5,0,1,0,.51-.86L189,49.93a.5.5,0,0,0-.68.18.5.5,0,0,0,.18.68Z"/><path d="M190.24,49l3.62,1.81a.5.5,0,0,0,.5-.87l-3.61-1.8a.5.5,0,1,0-.51.86Z"/><path d="M220.39,72q-4.24-13-8.95-25.82c-.22-.6-1.19-.34-1,.27q4.71,12.83,9,25.81c.2.61,1.17.35,1-.26Z"/><path d="M210.14,68a37.05,37.05,0,0,1,8.44,5c.5.39,1.22-.31.71-.71a38.6,38.6,0,0,0-8.64-5.12c-.59-.24-1.1.62-.51.87Z"/><path d="M210.12,63.07l8.14,5a.5.5,0,0,0,.51-.86l-8.15-5c-.55-.34-1.05.52-.5.86Z"/><path d="M206.59,55.24a31.91,31.91,0,0,1,7,6.37c.41.5,1.11-.21.71-.71a32.9,32.9,0,0,0-7.26-6.52c-.54-.36-1,.51-.5.86Z"/><path d="M206.65,50.86a19.52,19.52,0,0,1,6.1,4c.47.45,1.18-.26.71-.7a20.71,20.71,0,0,0-6.55-4.21.5.5,0,0,0-.61.35.51.51,0,0,0,.35.61Z"/><path d="M205.65,45.8l7.25,5.41a.52.52,0,0,0,.69-.18.53.53,0,0,0-.18-.69l-7.25-5.41a.52.52,0,0,0-.69.18.52.52,0,0,0,.18.69Z"/><path d="M235.39,71.48A241.5,241.5,0,0,1,228,45.65c-.15-.63-1.11-.37-1,.26a241.73,241.73,0,0,0,7.41,25.84c.21.6,1.17.34,1-.27Z"/><path d="M224.29,65.78a24.4,24.4,0,0,1,11.06,6.69c.44.47,1.15-.24.71-.71a25.53,25.53,0,0,0-11.5-7,.5.5,0,0,0-.27,1Z"/><path d="M222.34,58.53a61.91,61.91,0,0,1,8.53,7.57c.44.47,1.15-.24.71-.71a64.72,64.72,0,0,0-8.73-7.73c-.52-.38-1,.49-.51.87Z"/><path d="M221.45,52.62a49.09,49.09,0,0,1,8,7.66c.41.5,1.11-.21.7-.7A49.62,49.62,0,0,0,222,51.76c-.52-.39-1,.48-.51.86Z"/><path d="M220.94,47.52l7.68,6.35c.49.41,1.2-.3.7-.71l-7.67-6.35c-.49-.4-1.2.3-.71.71Z"/><path d="M220.9,42.6l5.43,5c.47.44,1.18-.27.7-.7l-5.43-5c-.47-.43-1.18.27-.7.71Z"/><path d="M249.09,68.77a95.25,95.25,0,0,1-6.77-19.48c-.14-.62-1.11-.36-1,.27a95.56,95.56,0,0,0,6.87,19.71c.28.58,1.14.07.86-.5Z"/><path d="M237.13,60.3l9.52,8.56c.48.43,1.19-.27.71-.71l-9.52-8.56c-.48-.43-1.19.27-.71.71Z"/><path d="M234.11,51.74A26.49,26.49,0,0,1,243,61c.31.56,1.18,0,.86-.51a27.49,27.49,0,0,0-9.26-9.64c-.55-.35-1.05.52-.5.86Z"/><path d="M233.68,45.82a35.72,35.72,0,0,1,7,7.11.53.53,0,0,0,.69.18.51.51,0,0,0,.18-.69A37.75,37.75,0,0,0,234.18,45a.5.5,0,0,0-.68.18.49.49,0,0,0,.18.68Z"/><path d="M234,42.15l4.08,4.07a.5.5,0,0,0,.7-.71l-4.07-4.07c-.45-.46-1.16.25-.71.71Z"/><path d="M259,66.15Q255.63,54,253.36,41.58c-.11-.63-1.08-.36-1,.27q2.25,12.4,5.66,24.57a.5.5,0,0,0,1-.27Z"/><path d="M250,60.73a79.7,79.7,0,0,1,8.7,5.74c.52.39,1-.48.51-.86a82.28,82.28,0,0,0-8.7-5.75.5.5,0,0,0-.51.87Z"/><path d="M247.68,54.44a23.26,23.26,0,0,1,8.41,7.06c.38.52,1.24,0,.86-.5a24.34,24.34,0,0,0-8.76-7.42c-.58-.29-1.08.57-.51.86Z"/><path d="M247.13,51.64l7.75,6.73c.48.42,1.19-.29.7-.71l-7.74-6.72c-.48-.42-1.19.28-.71.7Z"/><path d="M247.71,49.42a19.07,19.07,0,0,1,6.19,4.95c.41.5,1.11-.21.71-.71a20,20,0,0,0-6.4-5.11c-.57-.29-1.08.58-.5.87Z"/><path d="M247.67,46.78a12,12,0,0,1,4.85,3.83.5.5,0,0,0,.68.18.5.5,0,0,0,.18-.68,12.92,12.92,0,0,0-5.21-4.19.51.51,0,0,0-.68.18.5.5,0,0,0,.18.68Z"/><path d="M249.29,43.65a.5.5,0,0,0,0-1,.5.5,0,0,0,0,1Z"/><path d="M189.14,137.65Q187,113.9,184.56,90.2c-.06-.63-1.06-.64-1,0q2.41,23.72,4.58,47.45c.06.63,1.06.64,1,0Z"/><path d="M188.24,139.08l19-2.08,9.38-1c.73-.08,1.59-.13,2-.9a.74.74,0,0,0-.47-1.11c-.6-.22-.86.74-.27,1a7.31,7.31,0,0,0-2.44.18l-2,.22-3.45.38-7.16.78-14.57,1.6c-.63.07-.64,1.07,0,1Z"/><path d="M220.21,135.26a430.81,430.81,0,0,1-6.76-45.77c-.06-.64-1.06-.64-1,0a432.75,432.75,0,0,0,6.8,46c.13.63,1.09.37,1-.26Z"/><path d="M183.7,89q14.58,0,29.13-.63l-.35-.85-.76.88c-.42.49.29,1.2.71.71l.76-.89a.51.51,0,0,0-.36-.85q-14.55.67-29.13.63a.5.5,0,0,0,0,1Z"/><path d="M189.85,125.09l2.94,4,.78-.61a3,3,0,0,1-.77-3.54h-.87a6.31,6.31,0,0,1,.82,3.53.51.51,0,0,0,.85.36,18.74,18.74,0,0,0,3.15-4.3c.3-.56-.56-1.07-.86-.5a18,18,0,0,1-3,4.09l.86.35a7.29,7.29,0,0,0-.95-4,.51.51,0,0,0-.87,0,4,4,0,0,0,.94,4.75.5.5,0,0,0,.65,0,.49.49,0,0,0,.13-.64l-2.93-4a.52.52,0,0,0-.69-.17.5.5,0,0,0-.18.68Z"/><path d="M190.18,109.81l3.48,4.88a.5.5,0,0,0,.91-.39,6.66,6.66,0,0,1-.29-3.9h-1a16.3,16.3,0,0,1,.37,4.12.5.5,0,0,0,.93.25l3-4.47c.36-.53-.51-1-.87-.5l-3,4.47.93.25a17.41,17.41,0,0,0-.41-4.38.5.5,0,0,0-1,0,7.45,7.45,0,0,0,.29,4.43l.91-.38L191,109.3c-.37-.52-1.24,0-.86.51Z"/><path d="M199.3,95.3l3,4.93a.5.5,0,0,0,.93-.26l.12-5.63-1,.13a30,30,0,0,1,.52,5.18.5.5,0,0,0,.93.25l2.34-4.35c.3-.57-.56-1.07-.87-.5l-2.33,4.35.93.25a33.23,33.23,0,0,0-.55-5.45c-.11-.57-1-.41-1,.14l-.12,5.63.94-.25-3-4.92a.5.5,0,0,0-.87.5Z"/><path d="M204.81,118.84a22.35,22.35,0,0,1,2.45,3.11.5.5,0,0,0,.93-.25v-2l-1,.13.56,2.54a.5.5,0,0,0,.91.12,7,7,0,0,1,2.88-2.92c.56-.31.06-1.17-.51-.86a8,8,0,0,0-3.23,3.27l.91.12-.56-2.53a.5.5,0,0,0-1,.13v2l.93-.25a24.53,24.53,0,0,0-2.6-3.32c-.44-.47-1.15.23-.71.71Z"/><path d="M189.19,286.5q-1.06-13.39-2.41-26.77c-.45-4.46-.91-8.91-1.43-13.36A8.19,8.19,0,0,0,184,242a6.13,6.13,0,0,0-3.58-2,57.28,57.28,0,0,0-6.41-.81l-7.51-.85.5.5,2.1-24.49-.5.5q14.46.24,28.92.77,7.11.27,14.2.6l7.23.35c2.08.11,4.67-.09,6.54,1s2.24,3.63,2.65,5.64c.48,2.31,1,4.61,1.42,6.94.21,1.15.32,2.6-1,3a8.5,8.5,0,0,1-2.89,0,6.91,6.91,0,0,0-4.22,1.24c-3,2-4.17,5.54-4.45,9-.36,4.58.13,9.31.3,13.9q.6,16.23,1.32,32.44l.5-.5a130.08,130.08,0,0,0-30.36-.07c-.64.08-.64,1.08,0,1a130.08,130.08,0,0,1,30.36.07.51.51,0,0,0,.5-.5q-.68-15-1.23-29.94c-.18-4.86-.53-9.75-.46-14.62,0-4.16,1.24-9.39,5.79-10.79,1.69-.52,3.44.22,5.11-.26a2.85,2.85,0,0,0,1.91-3.2,54.86,54.86,0,0,0-1.29-6.57c-.39-1.91-.6-4-1.56-5.78-1.95-3.51-7-2.93-10.39-3.1q-7.47-.39-15-.68-16.93-.69-33.9-1a.51.51,0,0,0-.5.5L166,238.84c0,.29.25.48.5.5l7.76.87c2.26.26,4.76.27,6.93,1,2.76,1,3,3.56,3.29,6.11s.57,5.11.83,7.67q1.65,15.71,2.9,31.47c.05.63,1.05.64,1,0Z"/><path d="M192,271.25a13.88,13.88,0,0,1,2.45,6.21l1-.27a16.35,16.35,0,0,1-.4-4.78h-1l.12,4.63c0,.39.57.72.85.36a13.68,13.68,0,0,0,2.85-6.72c0-.27-.25-.5-.5-.5a.51.51,0,0,0-.5.5,12.42,12.42,0,0,1-2.55,6l.85.35-.12-4.63a.5.5,0,0,0-1,0,17.14,17.14,0,0,0,.43,5,.51.51,0,0,0,.62.35.53.53,0,0,0,.35-.62,14.53,14.53,0,0,0-2.56-6.44c-.37-.52-1.24,0-.86.5Z"/><path d="M200.12,253.34a8.44,8.44,0,0,1,2.86,4.22.5.5,0,0,0,1-.26,10.6,10.6,0,0,1-.25-4h-1l.71,4.67c.07.48.87.46,1,0l1-5.23a.5.5,0,0,0-1-.27l-1,5.23h1l-.71-4.67c-.07-.47-.9-.48-1,0a11.74,11.74,0,0,0,.25,4.57l1-.26a9.31,9.31,0,0,0-3.11-4.67.52.52,0,0,0-.71,0,.51.51,0,0,0,0,.71Z"/><path d="M187.41,237l2.18,4a.5.5,0,0,0,.92-.38,3.66,3.66,0,0,1,.48-2.66l-.92-.12.76,3c.1.39.74.52.91.12l2.07-4.73a.51.51,0,0,0-.18-.69.5.5,0,0,0-.68.18l-2.07,4.74.91.12-.75-3a.51.51,0,0,0-.92-.11,4.7,4.7,0,0,0-.58,3.42l.92-.38-2.19-4c-.31-.57-1.17-.06-.86.5Z"/><path d="M175.33,225.39a11.89,11.89,0,0,1,3.44,3.3.51.51,0,0,0,.94-.25l.09-2.91-.94.25a4.38,4.38,0,0,1,.32,2.23.51.51,0,0,0,.37.49.53.53,0,0,0,.56-.23l2.66-3.5a.5.5,0,0,0-.18-.68.5.5,0,0,0-.68.18l-2.66,3.49.93.25a5.35,5.35,0,0,0-.45-2.73c-.21-.48-.92-.2-.93.25l-.09,2.91.93-.25a13,13,0,0,0-3.81-3.66c-.54-.35-1.05.52-.5.86Z"/><path d="M207.21,223.89l1.88,3.92c.25.52,1.06.15.91-.38a2.56,2.56,0,0,1,.65-2.47l-.86-.35.2,2.68a.51.51,0,0,0,.94.26l2.85-3.76a.51.51,0,0,0-.18-.68.52.52,0,0,0-.69.18L210.06,227l.93.25-.2-2.68a.51.51,0,0,0-.85-.36,3.58,3.58,0,0,0-.9,3.44l.91-.38-1.87-3.92a.51.51,0,0,0-.69-.18.5.5,0,0,0-.18.68Z"/><path d="M206.39,276.32l2,4.05c.25.52,1.07.16.91-.38a6.73,6.73,0,0,1-.08-3.45h-1l.8,4.54a.5.5,0,0,0,.91.12,24.65,24.65,0,0,0,2.34-5.4.5.5,0,0,0-1-.26,23.85,23.85,0,0,1-2.24,5.16l.91.12-.8-4.55a.5.5,0,0,0-1,0,7.67,7.67,0,0,0,.08,4l.91-.38-2-4.05c-.28-.58-1.15-.07-.86.5Z"/><path d="M207,239.25a25.73,25.73,0,0,1,3.32,4.94l.86-.51a5.56,5.56,0,0,1-.74-3.86h-1a11,11,0,0,1,.5,3.56.5.5,0,0,0,.93.25l2.11-4c.31-.57-.56-1.08-.86-.51l-2.11,4,.93.25a11.87,11.87,0,0,0-.54-3.83c-.14-.43-.87-.51-1,0a6.66,6.66,0,0,0,.84,4.64.5.5,0,0,0,.86-.51,26.58,26.58,0,0,0-3.47-5.13.5.5,0,0,0-.71,0,.51.51,0,0,0,0,.7Z"/><path d="M185.1,401.38l.05-19.9-.5.5a295.62,295.62,0,0,1,43.82-1.82l-.5-.5.45,21.72.5-.5a4.36,4.36,0,0,1-2.42-.84c-.52-.37-1,.49-.5.86a5.27,5.27,0,0,0,2.92,1,.51.51,0,0,0,.5-.5L229,379.66a.52.52,0,0,0-.5-.5A295.62,295.62,0,0,0,184.65,381a.51.51,0,0,0-.5.5l-.05,19.9a.5.5,0,0,0,1,0Z"/><path d="M183.22,402.83l45.18-3.45a.5.5,0,0,0,0-1l-2.17-.21c-.64-.06-.64.94,0,1l2.17.21v-1l-45.18,3.45c-.63.05-.64,1.05,0,1Z"/><path d="M186.87,346.2l0,13v6.4c0,1.07,0,2.14,0,3.2a1.87,1.87,0,0,0,.5,1.46,2.38,2.38,0,0,0,1.63.38h38.21a.51.51,0,0,0,.5-.5q-.83-14.18-.62-28.37a.5.5,0,0,0-.85-.35l-3,2.66c-.48.43.23,1.13.71.7l3-2.65-.86-.36q-.19,14.19.62,28.37l.5-.5-31.22,0h-5.74a5.78,5.78,0,0,1-1.81,0c-1-.5-.57-3.35-.57-4.28v-3.69l0-15.51a.5.5,0,0,0-1,0Z"/><path d="M186.43,344.75q19.38.69,38.77.63a.51.51,0,0,0,.25-.94,1.82,1.82,0,0,1-.67-2.56.5.5,0,0,0-.86-.5,2.85,2.85,0,0,0,1,3.93l.25-.93q-19.39.06-38.77-.63a.5.5,0,0,0,0,1Z"/><path d="M221,336.24c.07.91.13,1.83.21,2.74a2.1,2.1,0,0,0,.9,1.84,6.84,6.84,0,0,0,2.09.58,14.07,14.07,0,0,0,2.14.27,5.64,5.64,0,0,0,3.89-1.12,1.7,1.7,0,0,0,.74-1.81,1.1,1.1,0,0,0-1.52-.64c-.58.28-.08,1.14.5.87.13-.07,0,.39,0,.42a1.85,1.85,0,0,1-.54.54,3.68,3.68,0,0,1-1.29.58,7.21,7.21,0,0,1-2.89.06c-.49-.07-1-.17-1.44-.28s-1.11-.14-1.39-.51-.22-1.18-.26-1.66l-.14-1.88c0-.64-1-.65-1,0Z"/><path d="M190,359.44a5.76,5.76,0,0,1,2.22,3.81.52.52,0,0,0,.5.5.51.51,0,0,0,.5-.5l.15-4.06-1,.13a11.7,11.7,0,0,1,.37,3.95c0,.41.59.7.85.36l2.69-3.48a.51.51,0,0,0,0-.71.49.49,0,0,0-.7,0l-2.7,3.48.86.35a12.31,12.31,0,0,0-.41-4.22.5.5,0,0,0-1,.14l-.15,4.06h1a6.88,6.88,0,0,0-2.72-4.68.5.5,0,0,0-.68.18.52.52,0,0,0,.18.69Z"/><path d="M197.43,349.66l3.14,3.07a.51.51,0,0,0,.84-.48,6.49,6.49,0,0,1,.31-3.12l-1-.13.21,2.53a.5.5,0,0,0,.85.35l2.43-2.45a.5.5,0,0,0-.7-.71l-2.44,2.46.86.35-.21-2.53a.5.5,0,0,0-1-.13,7.61,7.61,0,0,0-.31,3.64l.84-.49L198.14,349c-.46-.46-1.17.25-.71.7Z"/><path d="M207.51,360.78l2.52,4.5a.5.5,0,0,0,.91-.38,2.46,2.46,0,0,1,1-2.76l-.74-.57a7.86,7.86,0,0,0-.36,3.3.5.5,0,0,0,.93.25l2.2-3.74a.5.5,0,0,0-.86-.51l-2.21,3.75.94.25a7.08,7.08,0,0,1,.33-3,.51.51,0,0,0-.74-.56,3.45,3.45,0,0,0-1.46,3.88l.91-.38-2.52-4.5a.5.5,0,0,0-.86.5Z"/><path d="M216,348.35l2.69,3.48c.28.36.86.05.86-.35l0-1.53-1,.13.61,1.66a.51.51,0,0,0,.92.12,6,6,0,0,1,1.8-1.85c.53-.36,0-1.23-.51-.87a7.46,7.46,0,0,0-2.16,2.21l.92.12-.61-1.65a.51.51,0,0,0-1,.13l0,1.53.85-.35-2.7-3.49a.49.49,0,0,0-.7,0,.5.5,0,0,0,0,.71Z"/><path d="M189.41,392.66a5.06,5.06,0,0,1,2,2.83.5.5,0,0,0,1-.13l0-3.43-.93.25a4.65,4.65,0,0,1,.44,3,.52.52,0,0,0,.23.56.5.5,0,0,0,.61-.08l3-3.52a.52.52,0,0,0,0-.71.51.51,0,0,0-.71,0l-3,3.53.84.48a5.81,5.81,0,0,0-.55-3.73.51.51,0,0,0-.93.26l0,3.43,1-.14a6.08,6.08,0,0,0-2.41-3.42.51.51,0,0,0-.69.17.52.52,0,0,0,.18.69Z"/><path d="M212.52,387.89a27.68,27.68,0,0,1,2.85,2.88c.3.36.82,0,.85-.35l.21-2.87-1,.14.7,2.91a.5.5,0,0,0,.91.12,4.59,4.59,0,0,1,2.41-2.26.53.53,0,0,0,.35-.62.51.51,0,0,0-.62-.35,5.61,5.61,0,0,0-3,2.73l.91.12-.69-2.92c-.14-.58-.94-.41-1,.13l-.21,2.87.85-.35a25.84,25.84,0,0,0-2.84-2.89c-.49-.42-1.2.28-.71.71Z"/><path d="M221.12,395.22l1,3a.5.5,0,0,0,1-.13l0-3-.94.26a2.73,2.73,0,0,1,.41,1.78c0,.51.7.65.94.25a5,5,0,0,1,2-1.88.5.5,0,0,0,.18-.68.49.49,0,0,0-.68-.18,5.89,5.89,0,0,0-2.35,2.24l.93.25a3.69,3.69,0,0,0-.54-2.29.5.5,0,0,0-.93.25l0,3,1-.14-1-3a.5.5,0,0,0-.61-.34.49.49,0,0,0-.35.61Z"/><path d="M274.93,397l.11,0-.35-.35a.48.48,0,0,0,.08-.74c-.09-.18-.18-.35-.28-.52a11.35,11.35,0,0,0-.64-1,12.64,12.64,0,0,0-1.41-1.69c-1-1-2.32-1.73-3.41-2.7s-1.47-2.43-.14-3.43a9.52,9.52,0,0,1,4.07-1.34l2.75-.53,1.38-.26c.36-.07,1.19-.37,1.53-.18s.6,1.07.91,1.46a3.39,3.39,0,0,0,1.33.92c1.28.52,2.81.49,3.85,1.49a3.62,3.62,0,0,1,.8,4c-.25.6.72.86,1,.27a4.56,4.56,0,0,0-3.07-6.05c-.68-.2-1.39-.3-2-.56-.9-.34-1.14-.93-1.61-1.69-.86-1.43-2.63-.65-3.95-.4-1.76.34-3.59.56-5.31,1.07a5.2,5.2,0,0,0-3.1,2c-1.7,2.82,2,4.59,3.71,6.05a11.87,11.87,0,0,1,2,2.21c.44.64.73,1.68,1.33,2.18,1,.8,1.88-.83.79-1.19-.61-.2-.87.77-.26,1Z"/><path d="M276.06,396.42c-.31,3.09-.63,6.19-.92,9.28-.11,1.17.15,2.06,1.42,2.3a22.44,22.44,0,0,0,4.17.36,9.07,9.07,0,0,0,6.65-2.38c1.92-2,1.68-4.76,1.69-7.31,0-1.67.09-3.37,0-5,0-.91-.45-2-1.53-1.79-.64.12-.37,1.08.26,1,.39-.07.27,3.72.26,4.08,0,1.46,0,2.92,0,4.38a5.71,5.71,0,0,1-1.22,3.83A6.58,6.58,0,0,1,283.7,407a12.53,12.53,0,0,1-4.4.31c-.67-.05-1.34-.12-2-.2-.32,0-.85,0-1.09-.3s-.09-.79-.06-1.1c.29-3.09.61-6.19.92-9.28.06-.64-.94-.64-1,0Z"/><path d="M279.18,394.88c-1.29.28-2.13-1.3-2.25-2.36-.19-1.71.58-3.38.36-5.09l-.25.43a5.49,5.49,0,0,1,8.06,4.93.5.5,0,0,0,1,0,6.49,6.49,0,0,0-9.56-5.8.5.5,0,0,0-.25.44c.25,2-.79,4-.19,6,.44,1.45,1.7,2.81,3.34,2.45.63-.13.36-1.1-.26-1Z"/><path d="M259.33,241.12a308.82,308.82,0,0,0-6.52-31.59.46.46,0,0,0-.35-.35,27.65,27.65,0,0,1-15.57-7.53c-.46-.45-1.17.26-.71.71a28.63,28.63,0,0,0,9,5.9,27.72,27.72,0,0,0,5.44,1.63c.3.05,1,0,1.2.2s.37.94.48,1.36c.28,1.1.56,2.21.83,3.32q3.21,13.18,5.26,26.62c.1.63,1.06.36,1-.27Z"/><path d="M258.74,242.49c-.6,2.36-3,3.6-4.82,4.89A13.38,13.38,0,0,0,249,253.5l.74-.3a1.64,1.64,0,0,1-.81-1.22c-.11-.63-1.07-.36-1,.27a2.66,2.66,0,0,0,1.27,1.82.52.52,0,0,0,.74-.3,11.33,11.33,0,0,1,2.23-3.59,15.92,15.92,0,0,1,3-2.46c1.87-1.27,3.92-2.64,4.5-5,.16-.62-.81-.89-1-.26Z"/><path d="M249.42,244.75l3.52,2.84a.52.52,0,0,0,.71,0,.51.51,0,0,0,0-.71L250.13,244a.53.53,0,0,0-.71,0,.5.5,0,0,0,0,.71Z"/><path d="M247.1,240.75l8.12,6.36c.51.39,1.22-.31.71-.71l-8.12-6.35c-.5-.4-1.22.31-.71.7Z"/><path d="M244.43,234.37a78.69,78.69,0,0,0,10.39,10.42c.49.4,1.2-.3.71-.71a78.09,78.09,0,0,1-10.39-10.42c-.41-.5-1.11.21-.71.71Z"/><path d="M247.07,233.36a64.08,64.08,0,0,0,10.35,12c.48.43,1.19-.27.71-.7a63,63,0,0,1-10.19-11.8c-.36-.54-1.22,0-.87.5Z"/><path d="M244.54,227.05q6.59,8.49,13.68,16.57c.43.48,1.13-.23.71-.71q-7.11-8.07-13.68-16.57c-.39-.51-1.1.2-.71.71Z"/><path d="M242.77,222.89a96.26,96.26,0,0,1,15.83,17.42c.36.52,1.23,0,.86-.5a97,97,0,0,0-16-17.63c-.49-.42-1.2.28-.71.71Z"/><path d="M241.09,214.17l17.33,20.22c.42.49,1.13-.22.71-.7L241.8,213.46c-.42-.49-1.13.22-.71.71Z"/><path d="M239.87,207.1q6.94,9.35,14.45,18.28c.41.49,1.12-.22.7-.71q-7.41-8.82-14.29-18.07c-.38-.51-1.25,0-.86.5Z"/><path d="M241.27,206.17A187.12,187.12,0,0,0,254.57,222c.45.47,1.15-.24.71-.71a186.07,186.07,0,0,1-13.15-15.58c-.38-.51-1.25,0-.86.51Z"/><path d="M247.23,209.13a15,15,0,0,1,6.6,6.61c.29.57,1.15.07.86-.51a15.87,15.87,0,0,0-6.95-7c-.57-.29-1.08.58-.51.87Z"/><path d="M274.41,212.82a8,8,0,0,0-3.39-1c-1.08-.15-2.48-.26-3.22-1.17a3.42,3.42,0,0,1-.54-2.25,26,26,0,0,0-.06-2.65,20.15,20.15,0,0,0-1.22-5.36l-.48.64,4,.4c1.29.13,2.53.11,3.25,1.35a15.28,15.28,0,0,1,1.75,7.36.5.5,0,0,0,1,0,18.19,18.19,0,0,0-.53-4.29,12.37,12.37,0,0,0-1.56-3.9,3.77,3.77,0,0,0-3-1.43l-4.9-.49a.5.5,0,0,0-.48.63,19.37,19.37,0,0,1,1.24,5.92c.07,1.55-.3,3.37.75,4.68,1.66,2.06,4.84,1.08,6.89,2.45.54.36,1-.51.51-.86Z"/><path d="M263.19,194.23a43.11,43.11,0,0,0,8.72.48c.64,0,.64-1,0-1a42,42,0,0,1-8.46-.45c-.63-.1-.9.87-.26,1Z"/><path d="M263,193.52a18.85,18.85,0,0,0,3.06-8.76l-.75.43c.78.57,1.71.33,2.6.31a3.24,3.24,0,0,1,2.43,1.13c1.54,1.64,1.49,4.07,1.46,6.18a.5.5,0,0,0,1,0c0-2.32,0-4.81-1.56-6.67a4.44,4.44,0,0,0-2.43-1.55,5,5,0,0,0-1.49-.05,2.18,2.18,0,0,1-1.51-.21c-.33-.25-.72.09-.75.43a18,18,0,0,1-2.92,8.25c-.36.54.51,1,.86.51Z"/><path d="M264.39,191.32l3,2.43a.52.52,0,0,0,.71,0,.5.5,0,0,0,0-.71l-3-2.42a.5.5,0,0,0-.71,0,.49.49,0,0,0,0,.7Z"/><path d="M265.24,189.59a25.79,25.79,0,0,1,4.41,4.45.54.54,0,0,0,.69.18.5.5,0,0,0,.17-.69,26.46,26.46,0,0,0-4.57-4.65.5.5,0,0,0-.7,0,.5.5,0,0,0,0,.71Z"/><path d="M266.26,187.68l5.14,6.12c.42.49,1.12-.22.71-.71L267,187c-.41-.5-1.11.21-.7.7Z"/><path d="M267.06,186a25.5,25.5,0,0,1,4.82,5.39c.36.53,1.23,0,.87-.5a26.54,26.54,0,0,0-5-5.59.5.5,0,0,0-.71,0,.49.49,0,0,0,0,.7Z"/><path d="M267.65,207.23a27,27,0,0,1,5.25,5,.49.49,0,0,0,.7,0,.51.51,0,0,0,0-.71,28.62,28.62,0,0,0-5.44-5.16.52.52,0,0,0-.69.18.52.52,0,0,0,.18.69Z"/><path d="M266.75,204.05a23.11,23.11,0,0,1,6.94,6.74c.35.54,1.22,0,.86-.5a24.27,24.27,0,0,0-7.3-7.11c-.54-.34-1.05.53-.5.87Z"/><path d="M265.71,200l8.11,8.63c.44.47,1.15-.24.71-.71l-8.11-8.63c-.44-.47-1.15.24-.71.71Z"/><path d="M273.27,205.58a.5.5,0,0,0,0-1,.5.5,0,0,0,0,1Z"/><path d="M265.32,210l2.72,1.81a.5.5,0,0,0,.68-.18.53.53,0,0,0-.18-.69l-2.71-1.81a.51.51,0,0,0-.69.18.52.52,0,0,0,.18.69Z"/><path d="M47,226.73a24,24,0,0,1,7.16,3.57c.52.38,1-.49.5-.86a24.69,24.69,0,0,0-7.39-3.67.5.5,0,0,0-.27,1Z"/><path d="M45,222.73a66.45,66.45,0,0,0,10.55,5.41c.6.24.86-.72.27-1a65.75,65.75,0,0,1-10.32-5.31c-.54-.35-1.05.52-.5.86Z"/><path d="M44.05,217.18a31.86,31.86,0,0,0,10,7.85c.57.29,1.08-.58.5-.86a31.24,31.24,0,0,1-9.8-7.7c-.42-.49-1.12.22-.71.71Z"/><path d="M43.18,212.18a58.9,58.9,0,0,0,11.32,11c.51.38,1-.49.5-.87a58.41,58.41,0,0,1-11.12-10.87c-.39-.51-1.09.2-.7.7Z"/><path d="M41.45,208.46Q47,213.58,52.2,219c.45.46,1.15-.25.7-.71q-5.22-5.4-10.74-10.53c-.47-.43-1.18.27-.71.71Z"/><path d="M40.38,205l10.85,9.51c.48.42,1.19-.28.7-.71l-10.85-9.5c-.48-.43-1.19.28-.7.7Z"/><path d="M39.93,201.85A59.51,59.51,0,0,0,51,211.75c.53.36,1-.5.51-.87a57.85,57.85,0,0,1-10.87-9.74c-.42-.48-1.12.23-.7.71Z"/><path d="M39.1,196.36Q44,202.3,49.41,207.75c.45.46,1.16-.25.71-.7q-5.43-5.46-10.31-11.4c-.41-.5-1.11.21-.71.71Z"/><path d="M36.58,192a79.39,79.39,0,0,1,13.29,14.18c.37.51,1.24,0,.86-.51a81.06,81.06,0,0,0-13.44-14.38c-.49-.41-1.2.3-.71.71Z"/><path d="M36.49,187.81A37.75,37.75,0,0,1,48.4,200.4a.5.5,0,0,0,.86-.5,38.88,38.88,0,0,0-12.26-13c-.54-.35-1,.51-.51.87Z"/><path d="M34.66,183.32a108.12,108.12,0,0,1,12.55,11.26c.44.46,1.15-.25.71-.71a109.48,109.48,0,0,0-12.75-11.41c-.51-.39-1,.48-.51.86Z"/><path d="M34.56,179.18a87.73,87.73,0,0,1,13.1,13.59c.39.51,1.1-.21.71-.71a88.18,88.18,0,0,0-13.1-13.59c-.49-.41-1.2.29-.71.71Z"/><path d="M35.05,175.07a172.8,172.8,0,0,1,13,14.57c.41.5,1.11-.21.71-.71a172.8,172.8,0,0,0-13-14.57c-.45-.46-1.16.25-.71.71Z"/><path d="M33.39,171.86a37.57,37.57,0,0,1,14.12,13.61c.33.55,1.2.05.86-.5a38.7,38.7,0,0,0-14.48-14c-.56-.31-1.07.56-.5.87Z"/><path d="M39.66,174.23a37.3,37.3,0,0,1,8.5,7.19c.42.49,1.12-.22.7-.71a38.75,38.75,0,0,0-8.69-7.35c-.55-.34-1.05.53-.51.87Z"/><path d="M99.19,225Q98,192,98.14,159.06q.06-9.33.22-18.66a.5.5,0,0,0-1,0q-.58,33,.24,65.93.24,9.33.59,18.65c0,.64,1,.64,1,0Z"/><path d="M85.22,214.46l6.32,5.89c.48.44,1.18-.27.71-.71l-6.33-5.88c-.47-.44-1.18.27-.7.7Z"/><path d="M83.59,208.85l14.2,13.85c.46.45,1.16-.25.7-.7L84.3,208.14c-.46-.45-1.17.26-.71.71Z"/><path d="M83.91,204.65a86.47,86.47,0,0,1,14,12.06c.44.47,1.15-.24.71-.71a87.39,87.39,0,0,0-14.19-12.21c-.53-.37-1,.5-.51.86Z"/><path d="M82.45,196a88.45,88.45,0,0,0,13.6,13.55c.5.39,1.21-.31.71-.71a88,88,0,0,1-13.6-13.54c-.41-.5-1.11.21-.71.7Z"/><path d="M81.65,189.54a200.83,200.83,0,0,1,14.34,16c.4.5,1.11-.21.7-.71a200.51,200.51,0,0,0-14.33-15.95.5.5,0,0,0-.71.71Z"/><path d="M82.47,185.55,95.7,199.91c.44.48,1.15-.23.71-.7L83.18,184.84c-.44-.47-1.15.24-.71.71Z"/><path d="M81.9,178.69a123.38,123.38,0,0,0,15,16.38c.47.43,1.18-.27.7-.71a121.15,121.15,0,0,1-14.86-16.18c-.39-.5-1.26,0-.87.51Z"/><path d="M83.08,174.56q6.74,8.16,12.85,16.79c.37.52,1.23,0,.86-.51q-6.18-8.73-13-17c-.41-.49-1.12.22-.71.71Z"/><path d="M85.66,171.5A91.07,91.07,0,0,1,96,185.44c.33.55,1.2.05.86-.5a91.48,91.48,0,0,0-10.45-14.15c-.43-.48-1.14.23-.71.71Z"/><path d="M83.79,163.43a127.36,127.36,0,0,1,13.84,15.15c.39.51,1.09-.2.7-.71a126.44,126.44,0,0,0-13.84-15.15c-.47-.44-1.17.27-.7.71Z"/><path d="M84.89,157.38l11.93,15.14c.4.51,1.1-.2.71-.7L85.6,156.67c-.4-.51-1.1.21-.71.71Z"/><path d="M85.71,152A66.76,66.76,0,0,1,95,164.66c.31.55,1.18.05.86-.51a68.07,68.07,0,0,0-9.47-12.85c-.44-.47-1.14.24-.7.71Z"/><path d="M87,148a79,79,0,0,1,10.84,13.42c.35.54,1.21,0,.87-.5a80.58,80.58,0,0,0-11-13.63A.5.5,0,0,0,87,148Z"/><path d="M87.42,143.5l10.37,13.14c.4.51,1.1-.2.71-.7L88.13,142.79c-.4-.51-1.1.21-.71.71Z"/><path d="M86.64,139.31a39.88,39.88,0,0,1,7.83,10c.31.56,1.17.06.86-.5a41.08,41.08,0,0,0-8-10.23c-.47-.44-1.18.27-.71.71Z"/><path d="M92.33,139.77l4.14,5.37a.53.53,0,0,0,.69.18.5.5,0,0,0,.18-.68l-4.15-5.38a.51.51,0,0,0-.68-.17.49.49,0,0,0-.18.68Z"/><path d="M65.1,253.42c.27-1.16-1.74-1.19-1.57.06.1.71.88,1.25,1.36,1.71s1.17,1.09,1.78,1.61a54.88,54.88,0,0,0,7.81,5.66.5.5,0,0,0,.5-.86,55,55,0,0,1-5.68-3.91c-.88-.69-1.74-1.42-2.57-2.17-.41-.36-.81-.73-1.21-1.11l-.62-.6a2.56,2.56,0,0,0-.31-.34c0-.1-.08-.11-.14,0s-.26.05-.31-.3c-.15.63.81.9,1,.27Z"/><path d="M66.21,250.66l10.4,10.41a.5.5,0,0,0,.71-.71L66.91,250a.5.5,0,0,0-.7.7Z"/><path d="M71.18,251.57,81.13,262c.45.47,1.15-.24.71-.7l-10-10.41c-.45-.46-1.16.24-.71.71Z"/><path d="M75.16,249.67A84.72,84.72,0,0,0,83,260.59c.41.5,1.11-.21.7-.7A84.24,84.24,0,0,1,76,249.16a.5.5,0,0,0-.86.51Z"/><path d="M79.28,250.09a46.79,46.79,0,0,0,9.5,11c.49.42,1.2-.29.71-.7a46.05,46.05,0,0,1-9.35-10.82c-.34-.55-1.2-.05-.86.5Z"/><path d="M82,249.77,95.12,262c.47.43,1.18-.27.71-.71l-13.1-12.24c-.47-.44-1.17.27-.7.71Z"/><path d="M86.58,248.83l13.55,14c.45.47,1.16-.24.71-.7L87.29,248.12c-.45-.46-1.15.25-.71.71Z"/><path d="M94.19,251.45a47.44,47.44,0,0,0,9.5,10.59c.49.41,1.21-.3.71-.71A46.67,46.67,0,0,1,95.05,251c-.35-.54-1.21,0-.86.5Z"/><path d="M100.62,254.69l9,8.2c.47.43,1.18-.28.7-.71l-9-8.2c-.47-.43-1.18.27-.71.71Z"/><path d="M101.61,251l12.22,11.3c.48.43,1.18-.27.71-.71l-12.23-11.29c-.47-.44-1.18.27-.7.7Z"/><path d="M109.21,253.35l7.08,8.56c.37.44,1.08-.13.79-.61a38.84,38.84,0,0,1-4.33-10.09l-.84.49a30.63,30.63,0,0,1,5.41,5.9c.36.52,1.23,0,.86-.5a31.33,31.33,0,0,0-5.56-6.11.5.5,0,0,0-.83.49,39.6,39.6,0,0,0,4.42,10.32l.79-.6-7.08-8.56c-.41-.5-1.11.21-.71.71Z"/><path d="M145.93,261.57a4.9,4.9,0,0,1,2.35,2.44l.87-.51-2.73-4.57-.86.5,2.79,3.67c.38.5,1.25,0,.86-.5a26,26,0,0,1-3.47-6.47l-.83.49,4.1,5.26c.37.48,1-.13.78-.6l-4.3-9.32-.78.6a11.32,11.32,0,0,1,2.41,4l1-.26L145.23,249l-.73.57a9,9,0,0,1,3.51,5.32l1-.27L147.13,248l-.84.49,2.23,2.49a.51.51,0,0,0,.84-.49l-1.78-5.4-.84.48,2.67,3.23c.33.41,1,0,.83-.48l-1-3.9-.83.48,1.91,2.11a.5.5,0,0,0,.83-.49l-1.78-5.16-.73.56a7.94,7.94,0,0,1,3.4,3.66c.27.59,1.12.08.86-.51l-2.47-5.55-.78.6a19.4,19.4,0,0,1,4.14,4.93l.86-.5a25,25,0,0,1-3.7-7.48l-.83.49a59.34,59.34,0,0,1,5.1,7.57l.86-.5a43.29,43.29,0,0,1-5.16-10.75l-.91.39,5.4,8.06c.36.53,1.21.05.86-.5a66,66,0,0,1-5.5-10.63l-.83.49a49.1,49.1,0,0,1,5.68,9.36l.87-.5A58.72,58.72,0,0,1,150.57,229l-.83.49a54.21,54.21,0,0,1,6.63,10.65l.86-.5A80.3,80.3,0,0,1,150,226.81l-.79.61,8.57,10.9.71-.71a42.6,42.6,0,0,1-7.61-13.35l-.83.48a41.91,41.91,0,0,1,6.62,8.81l.78-.61a54.83,54.83,0,0,1-8.41-13.31l-.78.6a37.36,37.36,0,0,1,8,10l.78-.61a42.51,42.51,0,0,1-7.16-11.82l-.84.48,7.53,9.26c.35.43,1.13-.16.78-.61a67.86,67.86,0,0,1-7.54-12.54l-.87.51L156.67,225l.79-.61a26,26,0,0,1-6.7-12.26l-.83.49,9.7,11.49c.42.49,1.11-.22.71-.71a62.12,62.12,0,0,1-7.93-12.8l-.78.6a65.37,65.37,0,0,1,7.05,9.26l.78-.61a47.28,47.28,0,0,1-7.31-11.51l-.78.61,7.83,9.2c.38.44,1.07-.12.79-.6l-6.45-11.08-.79.61,6.77,7.81.71-.71a48,48,0,0,1-8.06-11l-.79.61,9.89,9.7.7-.7a35.31,35.31,0,0,1-10-13.41l-.78.61,7.49,8.44.71-.7a34.64,34.64,0,0,1-7.73-12.46l-.84.49,8.83,10.94c.36.44,1.12-.14.79-.61a120.53,120.53,0,0,1-8.78-14.48l-.79.61,9.18,9.93.71-.71a49.72,49.72,0,0,1-9.67-14.36l-.79.6a59.91,59.91,0,0,1,9.14,9.69l.78-.61a35.23,35.23,0,0,1-9-14.09l-.84.49q5.34,5.91,10.2,12.23l.78-.6a52.39,52.39,0,0,1-9.72-16.15l-.83.49a157.1,157.1,0,0,0,10.82,12c.46.46,1.12-.22.71-.71A99.68,99.68,0,0,1,150.86,174l-.79.61,9.74,11.24c.42.49,1.1-.21.7-.71a86.56,86.56,0,0,1-8.84-13.25l-.78.6A111.73,111.73,0,0,1,159.83,183c.37.5,1.21,0,.86-.51l-9.28-14.65-.68.68a28,28,0,0,1,7.5,7.65c.36.53,1.22,0,.87-.5l-7.58-11.48-.79.6a118.83,118.83,0,0,1,10.48,10.81c.42.49,1.12-.22.7-.71a110.41,110.41,0,0,1-8.43-11.29l-.79.61,6,5.3a.5.5,0,0,0,.71-.71,67.3,67.3,0,0,1-6.59-9.87l-.78.61a48,48,0,0,1,6.72,7.73c.37.52,1.23,0,.87-.51l-8.09-12-.69.68a44.93,44.93,0,0,1,8,7.7l.71-.71a72.88,72.88,0,0,1-8.07-11.55l-.78.61,8.58,7.3c.48.41,1.16-.25.7-.71a53.13,53.13,0,0,1-8.2-10.62l-.69.68a24.32,24.32,0,0,1,7.77,7.47l.79-.6a53.68,53.68,0,0,1-6.74-10.14l-.79.61a39.67,39.67,0,0,1,6.88,7.3c.37.52,1.24,0,.86-.5a40.37,40.37,0,0,0-7-7.51.51.51,0,0,0-.79.61,55.54,55.54,0,0,0,6.9,10.33c.37.44,1.1-.13.79-.6a25.54,25.54,0,0,0-8.13-7.83.5.5,0,0,0-.69.68,54.61,54.61,0,0,0,8.37,10.83l.7-.71-8.57-7.3a.51.51,0,0,0-.79.61,74.15,74.15,0,0,0,8.22,11.75c.42.49,1.11-.21.71-.71a46.23,46.23,0,0,0-8.21-7.85c-.4-.3-1,.29-.69.69l8.09,12,.87-.51a50,50,0,0,0-6.89-7.93.5.5,0,0,0-.78.61,69.34,69.34,0,0,0,6.74,10.07l.71-.71-6-5.3c-.41-.36-1.11.11-.79.61a113,113,0,0,0,8.6,11.49l.7-.71a117.28,117.28,0,0,0-10.47-10.8c-.4-.37-1.11.11-.78.6l7.57,11.48.87-.5a29.27,29.27,0,0,0-7.87-8c-.41-.29-.94.27-.68.68L159.83,183l.86-.51a110.32,110.32,0,0,0-9.1-10.68.5.5,0,0,0-.78.6,87.47,87.47,0,0,0,9,13.46l.7-.71-9.73-11.24c-.38-.44-1.05.12-.78.6a100.61,100.61,0,0,0,11.62,16.61l.71-.71a155.15,155.15,0,0,1-10.83-12,.5.5,0,0,0-.83.49,53.34,53.34,0,0,0,10,16.58c.37.42,1.13-.15.78-.6q-4.94-6.42-10.35-12.44a.51.51,0,0,0-.84.49,36.39,36.39,0,0,0,9.27,14.53c.4.38,1.14-.13.79-.61A61.7,61.7,0,0,0,151,187a.51.51,0,0,0-.79.61,50.76,50.76,0,0,0,9.83,14.57c.45.47,1.15-.23.71-.71l-9.18-9.93c-.4-.43-1,.12-.78.6a119.37,119.37,0,0,0,8.78,14.49l.78-.61-8.83-10.94c-.31-.39-1,0-.84.49a35.82,35.82,0,0,0,8,12.89c.45.47,1.13-.23.71-.7l-7.5-8.45c-.41-.46-1,.13-.78.61a35.88,35.88,0,0,0,10.16,13.6c.48.41,1.17-.25.7-.7l-9.88-9.71a.51.51,0,0,0-.79.61,49.19,49.19,0,0,0,8.22,11.21c.46.47,1.13-.22.71-.71l-6.77-7.81c-.38-.44-1.07.12-.79.61l6.46,11.07.78-.6-7.83-9.21c-.4-.46-1,.13-.79.61a48,48,0,0,0,7.47,11.71c.37.43,1.08-.13.78-.61a66.09,66.09,0,0,0-7.21-9.45c-.4-.45-1,.12-.78.6a63.27,63.27,0,0,0,8.08,13l.71-.71L150.63,212c-.34-.4-.94,0-.83.49a27,27,0,0,0,6.95,12.7c.38.4,1.13-.14.78-.6l-7.66-10.14a.5.5,0,0,0-.87.51,68.24,68.24,0,0,0,7.55,12.54l.79-.61-7.53-9.25c-.31-.38-1,0-.83.48a43.83,43.83,0,0,0,7.42,12.27c.38.44,1-.12.78-.61A38.42,38.42,0,0,0,149,219.52a.51.51,0,0,0-.79.61,55.63,55.63,0,0,0,8.56,13.52c.38.44,1.06-.13.79-.61a42.85,42.85,0,0,0-6.78-9,.5.5,0,0,0-.83.48,44.12,44.12,0,0,0,7.86,13.8c.42.5,1.1-.21.71-.71L150,226.71c-.38-.48-1,.13-.78.61a79.43,79.43,0,0,0,7.19,12.78.5.5,0,0,0,.86-.5,54.78,54.78,0,0,0-6.79-10.86c-.3-.38-1,0-.83.49a59,59,0,0,0,6,11.77.5.5,0,0,0,.87-.5,50.36,50.36,0,0,0-5.85-9.57c-.3-.39-1,0-.83.49a66,66,0,0,0,5.6,10.86l.86-.5-5.4-8.07c-.3-.44-1.09-.18-.91.39a43.88,43.88,0,0,0,5.26,11,.5.5,0,0,0,.86-.5,59.91,59.91,0,0,0-5.25-7.78c-.32-.4-1,0-.84.49a25.67,25.67,0,0,0,3.8,7.71c.37.51,1.2.06.86-.5a20,20,0,0,0-4.29-5.13.5.5,0,0,0-.79.6l2.47,5.56.86-.51a8.75,8.75,0,0,0-3.76-4,.5.5,0,0,0-.73.56l1.78,5.17.83-.49-1.91-2.1a.5.5,0,0,0-.83.48l1,3.9.83-.48-2.66-3.23c-.32-.39-1,0-.84.48l1.78,5.41.84-.49L147,247.73a.5.5,0,0,0-.83.49l1.84,6.64a.5.5,0,0,0,1-.27,10,10,0,0,0-4-5.91.5.5,0,0,0-.73.56l2.85,7.36c.23.59,1.17.36,1-.26a12.46,12.46,0,0,0-2.67-4.48c-.41-.45-1,.12-.78.6l4.3,9.32.79-.6-4.11-5.27c-.3-.39-1,0-.83.48a26.54,26.54,0,0,0,3.57,6.71l.86-.5-2.79-3.67c-.38-.5-1.2-.07-.86.5l2.72,4.58a.5.5,0,0,0,.87-.51,5.82,5.82,0,0,0-2.72-2.8c-.57-.29-1.08.57-.5.87Z"/><path d="M151.14,142.22l8.16,8.44a.5.5,0,0,0,.78-.6,51.81,51.81,0,0,0-10.67-13.22l-.61.78a43.12,43.12,0,0,1,11,10.71l.79-.61-11.5-14.06-.61.79a42.93,42.93,0,0,1,10.64,9.88l.79-.61q-6.73-6.85-12.79-14.34l-.6.78a45.67,45.67,0,0,1,10.95,8.67l.7-.71A50.33,50.33,0,0,1,148,124.85l-.79.61a52,52,0,0,1,9.21,9.19l.7-.71a69.14,69.14,0,0,1-8.68-12.37l-.78.6a62.64,62.64,0,0,1,10.84,11.11l.78-.61a144.59,144.59,0,0,1-11.19-15.62l-.68.69a37.57,37.57,0,0,1,10.21,10.77l.86-.5-10.07-14.09-.68.68a27.83,27.83,0,0,1,9.12,9.13l.78-.61a54.34,54.34,0,0,1-9.53-14.65l-.69.68a28,28,0,0,1,9.86,11l.78-.61a40.88,40.88,0,0,1-8.67-12.93l-.69.69a48.79,48.79,0,0,1,9.8,10l.79-.6a63.66,63.66,0,0,1-9-13.75l-.68.69a28.18,28.18,0,0,1,8.15,9.19l.87-.5a58.59,58.59,0,0,1-7.25-12.18l-.68.69a22.4,22.4,0,0,1,7.2,6.7l.79-.6a48.05,48.05,0,0,1-7-9.72L151,98a9.63,9.63,0,0,1,4.22,3.21l.78-.6a27.12,27.12,0,0,1-6.44-9.13l-.68.68A26.48,26.48,0,0,1,156,98.87l.78-.61a59.46,59.46,0,0,1-7.9-11.82l-.68.69a52.29,52.29,0,0,1,8.35,7.45c.37.41,1.13-.15.79-.6l-8.54-11.23-.56.74a16.36,16.36,0,0,1,8.22,6l.79-.61a66.13,66.13,0,0,1-9.79-11.27l-.57.73a22.4,22.4,0,0,1,8.21,5.85l.71-.7a35.74,35.74,0,0,1-9.31-10.8l-.69.68a38.46,38.46,0,0,1,8.52,7.1l.71-.71a76,76,0,0,1-9.42-11.23l-.69.69a51.63,51.63,0,0,1,9.21,7.53l.71-.71a54.15,54.15,0,0,1-9.25-10.9l-.56.73a20.66,20.66,0,0,1,8.5,5.8l.71-.71-8.57-9-.49.84a27.32,27.32,0,0,1,8.66,5.6l.71-.71-10-8.75-.48.84a18.87,18.87,0,0,1,7.42,3.93l.6-.79A39.22,39.22,0,0,1,142.44,53l-.68.69a42.88,42.88,0,0,1,8.77,6.5l.71-.71L142.12,51l-.6.78a55.5,55.5,0,0,1,9.18,7l.61-.79a21.8,21.8,0,0,1-6.5-6.61l-.57.74,3.94.88c.52.12.93-.67.39-.91a7.58,7.58,0,0,1-3.32-2.84l-.44.76,6.78,0a.5.5,0,0,0,0-1l-6.78,0a.5.5,0,0,0-.43.75A8.5,8.5,0,0,0,148.06,53l.39-.91-3.94-.89a.51.51,0,0,0-.57.74,23.26,23.26,0,0,0,6.86,7,.51.51,0,0,0,.61-.79A56.59,56.59,0,0,0,142,51a.51.51,0,0,0-.61.79l9.12,8.45c.47.43,1.18-.26.71-.71a44.69,44.69,0,0,0-9-6.66c-.41-.23-1,.26-.68.69a40.75,40.75,0,0,0,10.08,10.21c.46.32,1-.42.6-.79a19.8,19.8,0,0,0-7.86-4.18.5.5,0,0,0-.48.83l10,8.75c.48.42,1.18-.26.71-.71a29,29,0,0,0-9.1-5.86c-.49-.2-.8.51-.49.84l8.57,9c.45.47,1.13-.23.71-.71a21.79,21.79,0,0,0-8.95-6.05.5.5,0,0,0-.56.73,54.89,54.89,0,0,0,9.4,11.11c.47.43,1.16-.25.71-.71a53.42,53.42,0,0,0-9.41-7.69c-.41-.26-1,.27-.69.69a78.74,78.74,0,0,0,9.58,11.43.5.5,0,0,0,.71-.71,39.64,39.64,0,0,0-8.72-7.25.5.5,0,0,0-.69.68,36.51,36.51,0,0,0,9.47,11,.5.5,0,0,0,.71-.7,23.37,23.37,0,0,0-8.65-6.11.5.5,0,0,0-.56.73,67.57,67.57,0,0,0,9.94,11.48c.4.36,1.13-.13.78-.61a17.57,17.57,0,0,0-8.82-6.43c-.38-.12-.83.38-.56.74l8.53,11.22.79-.61a53.83,53.83,0,0,0-8.56-7.61c-.44-.31-.89.28-.68.69a60.3,60.3,0,0,0,8.06,12c.36.43,1.12-.14.78-.61a27.52,27.52,0,0,0-7.47-7.08c-.46-.3-.86.27-.68.68a27.65,27.65,0,0,0,6.59,9.34c.4.36,1.14-.13.79-.61A10.77,10.77,0,0,0,151.31,97c-.43-.17-.76.38-.57.73a49,49,0,0,0,7.18,9.92c.38.41,1.11-.13.79-.6a23.69,23.69,0,0,0-7.57-7.07c-.47-.27-.87.26-.68.69a58.47,58.47,0,0,0,7.24,12.17c.38.5,1.19.08.87-.5a29.23,29.23,0,0,0-8.52-9.55c-.44-.32-.88.28-.68.68a64.91,64.91,0,0,0,9.18,13.94c.37.43,1.12-.14.79-.6a50.8,50.8,0,0,0-10.16-10.34c-.46-.35-.85.29-.69.68a41.77,41.77,0,0,0,8.83,13.13.51.51,0,0,0,.79-.61,28.86,28.86,0,0,0-10.21-11.4c-.46-.3-.87.27-.69.68a55,55,0,0,0,9.7,14.86.5.5,0,0,0,.78-.6,29,29,0,0,0-9.47-9.49c-.41-.26-1,.26-.69.68l10.07,14.09c.37.52,1.21.05.86-.5a38.83,38.83,0,0,0-10.57-11.14c-.41-.29-.93.28-.68.69a144.34,144.34,0,0,0,11.35,15.82c.35.43,1.12-.15.78-.61a63.26,63.26,0,0,0-11-11.3.5.5,0,0,0-.78.6,69.66,69.66,0,0,0,8.84,12.58c.43.5,1.09-.21.7-.71a51.63,51.63,0,0,0-9.2-9.19.51.51,0,0,0-.79.61,51.11,51.11,0,0,0,10.37,13.47.5.5,0,0,0,.7-.71A46,46,0,0,0,147,129.3a.5.5,0,0,0-.6.78q6,7.48,12.78,14.35c.38.39,1.14-.15.78-.61a44.25,44.25,0,0,0-11-10.23c-.5-.34-.94.37-.6.78l11.5,14.06c.36.44,1.12-.14.79-.6a44.48,44.48,0,0,0-11.37-11.07c-.47-.32-1,.41-.61.78a50.86,50.86,0,0,1,10.52,13L160,150l-8.16-8.44c-.44-.46-1.15.25-.7.71Z"/><path d="M178.49,429.85l5.82,3.71c.54.35,1.05-.52.5-.86L179,429c-.54-.35-1.05.52-.5.86Z"/><path d="M178.88,425.21l5.39,5.92c.44.47,1.14-.24.71-.71l-5.39-5.91c-.44-.48-1.14.23-.71.7Z"/><path d="M178,422.05l5.79,5.08c.49.42,1.2-.28.71-.71l-5.79-5.08c-.48-.42-1.19.28-.71.71Z"/><path d="M178.38,419.83l5,5c.45.45,1.16-.26.7-.71l-5-5a.5.5,0,0,0-.71.71Z"/><path d="M177.47,417.57l5,4.53c.48.43,1.19-.27.71-.71l-5-4.52c-.48-.44-1.19.27-.71.7Z"/><path d="M176.68,415.82a21.27,21.27,0,0,1,5.32,4c.44.47,1.15-.24.7-.71a22.24,22.24,0,0,0-5.51-4.17c-.57-.3-1.08.56-.51.87Z"/><path d="M177.48,413.94l4.54,3.6a.5.5,0,0,0,.71-.71l-4.54-3.6a.53.53,0,0,0-.71,0,.51.51,0,0,0,0,.71Z"/><path d="M179.28,413.05l.91.9a.51.51,0,0,0,.35.15.53.53,0,0,0,.36-.15.52.52,0,0,0,.14-.35.52.52,0,0,0-.14-.36l-.91-.9a.51.51,0,0,0-.35-.15.55.55,0,0,0-.36.15.5.5,0,0,0-.14.35.54.54,0,0,0,.14.36Z"/><path d="M178.73,409.57a.5.5,0,0,0,0-1,.5.5,0,0,0,0,1Z"/><path d="M198,428l5.4,4.11a.5.5,0,1,0,.5-.86l-5.4-4.11a.5.5,0,0,0-.5.86Z"/><path d="M197.87,425l8.14,5.89c.52.38,1-.49.5-.86l-8.13-5.89c-.52-.38-1,.49-.51.86Z"/><path d="M195.63,420.87l11,7.08c.54.35,1-.51.5-.86l-11-7.08c-.55-.35-1,.51-.51.86Z"/><path d="M195.69,418.51l8.54,5.07a.5.5,0,0,0,.5-.86l-8.53-5.07a.5.5,0,0,0-.51.86Z"/><path d="M194.5,415.27a30.16,30.16,0,0,1,7.81,4.61c.5.4,1.21-.3.71-.71a31.94,31.94,0,0,0-8.26-4.86c-.59-.24-.85.72-.26,1Z"/><path d="M194.66,411.7a32.24,32.24,0,0,0,6.41,4.64c.57.31,1.07-.56.51-.87a30.81,30.81,0,0,1-6.22-4.48c-.47-.44-1.18.27-.7.71Z"/><path d="M196.11,410a10,10,0,0,1,3.92,3.42.5.5,0,1,0,.86-.51,11,11,0,0,0-4.27-3.77.52.52,0,0,0-.69.18.5.5,0,0,0,.18.68Z"/><path d="M198.82,408.62l1.36.9a.5.5,0,0,0,.68-.18.5.5,0,0,0-.18-.68l-1.35-.9a.49.49,0,0,0-.39-.05.52.52,0,0,0-.3.23.51.51,0,0,0,.18.68Z"/><path d="M217.75,423.43a23.94,23.94,0,0,0,6.37,4.71c.57.29,1.08-.57.51-.87a23,23,0,0,1-6.17-4.55c-.45-.46-1.16.25-.71.71Z"/><path d="M216.92,419.92l9,5.95c.54.36,1-.51.5-.86l-9-6c-.54-.35-1,.51-.51.87Z"/><path d="M217.32,417.74l6.8,4.5c.54.35,1-.51.5-.87l-6.79-4.5c-.54-.35-1,.51-.51.87Z"/><path d="M216.88,414.54l6.36,4.49c.52.38,1-.49.5-.86l-6.35-4.49c-.53-.37-1,.49-.51.86Z"/><path d="M216.85,411.65l5,4.09a.5.5,0,0,0,.71,0,.49.49,0,0,0,0-.7l-5-4.09a.51.51,0,0,0-.71,0,.5.5,0,0,0,0,.7Z"/><path d="M216.45,408.19a23.57,23.57,0,0,1,4.51,4.36.5.5,0,0,0,.7,0,.51.51,0,0,0,0-.71,23.75,23.75,0,0,0-4.71-4.52.5.5,0,0,0-.68.18.51.51,0,0,0,.18.69Z"/><path d="M219.17,407.28l2.27,1.35a.5.5,0,0,0,.5-.87l-2.27-1.35a.5.5,0,0,0-.5.87Z"/><path d="M238.6,420.88l6,3.42a.5.5,0,0,0,.5-.87l-6-3.41a.5.5,0,0,0-.51.86Z"/><path d="M236.9,417.55a55.26,55.26,0,0,0,6.69,4.21c.57.3,1.08-.56.51-.87a52.19,52.19,0,0,1-6.69-4.21.52.52,0,0,0-.69.18.52.52,0,0,0,.18.69Z"/><path d="M235.88,414.34a37,37,0,0,0,6.73,4.85.5.5,0,0,0,.5-.87,35.35,35.35,0,0,1-6.52-4.69c-.48-.43-1.19.27-.71.71Z"/><path d="M234.07,408.92l7.25,6.77c.47.44,1.18-.27.7-.71l-7.25-6.77c-.47-.44-1.18.27-.7.71Z"/><path d="M235.93,408.15l3.61,2.71a.51.51,0,0,0,.69-.18.51.51,0,0,0-.18-.68l-3.62-2.72a.5.5,0,0,0-.68.18.51.51,0,0,0,.18.69Z"/><path d="M238,406a.5.5,0,0,0,0-1,.5.5,0,0,0,0,1Z"/><path d="M254.27,360.14h.25c.08,0,0,0,0,0l.33.07.16,0,.1,0s-.09,0,0,0l.32.17.14.1s.08,0,0,0l.07.05.24.24.06.06s.07.09,0,0,0,0,0,0l0,.07a2,2,0,0,1,.17.32.5.5,0,0,0,.87-.51,3.09,3.09,0,0,0-2.75-1.71.51.51,0,0,0-.5.5.5.5,0,0,0,.5.5Z"/><path d="M254.11,356.89l6.58,3.95a.5.5,0,0,0,.51-.87l-6.59-4c-.55-.33-1.05.53-.5.87Z"/><path d="M258.88,356.52a28.17,28.17,0,0,0,7,4.18.51.51,0,0,0,.62-.35.53.53,0,0,0-.35-.62,25.94,25.94,0,0,1-6.58-3.92.52.52,0,0,0-.71,0,.5.5,0,0,0,0,.71Z"/><path d="M263.5,356.62l5,3.13c.55.34,1.05-.53.51-.87l-5-3.13c-.55-.34-1.05.52-.5.87Z"/><path d="M267.14,356.12a12.55,12.55,0,0,1,4.41,3.11c.44.47,1.14-.24.71-.71a13.62,13.62,0,0,0-4.61-3.27.53.53,0,0,0-.69.18.51.51,0,0,0,.18.69Z"/><path d="M269.91,355.14l3.17,2.26a.51.51,0,0,0,.69-.18.53.53,0,0,0-.18-.69l-3.18-2.25a.5.5,0,0,0-.68.18.5.5,0,0,0,.18.68Z"/><path d="M250.39,343.94l3.12,1.88a.49.49,0,0,0,.68-.18A.5.5,0,0,0,254,345l-3.12-1.89a.5.5,0,0,0-.68.18.52.52,0,0,0,.18.69Z"/><path d="M253,340.9a5.23,5.23,0,0,0,2.35,3.58.5.5,0,1,0,.5-.86,3.89,3.89,0,0,1-.68-.56,4,4,0,0,1-.34-.37s0-.06,0,0l-.08-.1-.14-.21a4.16,4.16,0,0,1-.23-.42,1.24,1.24,0,0,1-.1-.2c0-.05,0,0,0,0a.56.56,0,0,1,0-.12,4.59,4.59,0,0,1-.25-.95.5.5,0,0,0-.61-.35.52.52,0,0,0-.35.62Z"/><path d="M255.69,340.71l4.08,4.06c.45.46,1.16-.25.71-.7L256.4,340c-.45-.46-1.16.25-.71.71Z"/><path d="M259.31,340.27l3.14,2.73a.5.5,0,0,0,.71-.71L260,339.56a.5.5,0,0,0-.7,0,.5.5,0,0,0,0,.71Z"/><path d="M263,339.77l2.26,2.26a.5.5,0,0,0,.71,0,.51.51,0,0,0,0-.71l-2.26-2.26a.51.51,0,0,0-.71,0,.52.52,0,0,0,0,.71Z"/><path d="M266.82,340.3h0l.08,0,.14.07.27.16.06,0s.1.08,0,0,0,0,0,0l.06.06a2.5,2.5,0,0,1,.24.22l.1.12,0,.06s-.07-.09,0,0l.18.26.14.28c0,.09-.05-.12,0,0l0,.08a.75.75,0,0,1,0,.16.51.51,0,0,0,.62.34.5.5,0,0,0,.35-.61,3.49,3.49,0,0,0-2.09-2.22.48.48,0,0,0-.39.05.53.53,0,0,0-.23.3.52.52,0,0,0,.35.61Z"/><path d="M269.4,339.4l1.81,1.35a.46.46,0,0,0,.38.05.5.5,0,0,0,.3-.23.5.5,0,0,0,.05-.38.57.57,0,0,0-.23-.3l-1.81-1.36a.51.51,0,0,0-.38,0,.47.47,0,0,0-.3.23.53.53,0,0,0-.05.39.61.61,0,0,0,.23.3Z"/><path d="M272,338.87l.9.9a.53.53,0,0,0,.36.15.51.51,0,0,0,.35-.15.5.5,0,0,0,0-.71l-.9-.9a.53.53,0,0,0-.36-.15.51.51,0,0,0-.5.5.55.55,0,0,0,.15.36Z"/><path d="M242.63,325.72a8.05,8.05,0,0,0,3.36,1.57.51.51,0,0,0,.61-.35.51.51,0,0,0-.35-.62,7.75,7.75,0,0,1-.83-.21c-.13-.05-.27-.09-.4-.15l-.3-.12c-.25-.12-.5-.25-.73-.39s-.25-.15-.37-.23l-.17-.12-.09-.07,0,0a.52.52,0,0,0-.71,0,.51.51,0,0,0,0,.71Z"/><path d="M247.66,325.4l1.82,1.36a.5.5,0,0,0,.38.05.5.5,0,0,0,.35-.62.61.61,0,0,0-.23-.3l-1.81-1.35a.53.53,0,0,0-.39-.05.52.52,0,0,0-.3.23.51.51,0,0,0,0,.38.58.58,0,0,0,.23.3Z"/><path d="M250.42,325.78l1.8.92a.51.51,0,0,0,.69-.18.5.5,0,0,0-.18-.68l-1.8-.93a.5.5,0,0,0-.51.87Z"/><path d="M253.09,325l2.69,1.86a.51.51,0,0,0,.68-.18.52.52,0,0,0-.18-.69l-2.68-1.85a.51.51,0,0,0-.69.18.51.51,0,0,0,.18.68Z"/><path d="M256.72,325.4l2.71,1.37a.5.5,0,0,0,.5-.87l-2.71-1.36a.5.5,0,1,0-.5.86Z"/><path d="M260.35,324.92l1.81.91a.5.5,0,0,0,.5-.87l-1.81-.9a.5.5,0,0,0-.5.86Z"/><path d="M264.44,324.44l1.81,1.36a.53.53,0,0,0,.39.05.48.48,0,0,0,.29-.23.43.43,0,0,0,.05-.38.53.53,0,0,0-.23-.3l-1.8-1.36a.53.53,0,0,0-.39-.05.5.5,0,0,0-.3.23.5.5,0,0,0-.05.38.53.53,0,0,0,.23.3Z"/><path d="M267.5,323.93l1.37,1.34a.5.5,0,0,0,.71-.71l-1.37-1.34a.5.5,0,0,0-.71,0,.51.51,0,0,0,0,.71Z"/><path d="M271.19,323.59l.18.11c.11.08-.06-.06,0,0l.08.07.14.15c.09.1,0-.07,0,0l.06.08.1.16a1,1,0,0,0,0,.1c0,.08,0-.13,0,0a1.8,1.8,0,0,1,.1.4v-.13a1.87,1.87,0,0,1,0,.41.53.53,0,0,0,.15.36.52.52,0,0,0,.71,0,.6.6,0,0,0,.14-.36,2.33,2.33,0,0,0-1.18-2.21.51.51,0,0,0-.69.17.52.52,0,0,0,.18.69Z"/><path d="M183,326.23l4.93,3.24c.54.36,1-.51.51-.86l-4.93-3.24c-.54-.36-1,.51-.51.86Z"/><path d="M183.25,322.5a9.23,9.23,0,0,0,4.4,3.81.51.51,0,0,0,.62-.35.5.5,0,0,0-.35-.61,8.14,8.14,0,0,1-3.81-3.36.5.5,0,0,0-.86.51Z"/><path d="M182.48,318.48l5,4.51c.48.43,1.19-.27.71-.71l-5-4.51c-.48-.43-1.19.28-.71.71Z"/><path d="M182.1,315.68l4.32,3.85a.5.5,0,0,0,.7,0,.49.49,0,0,0,0-.7L182.81,315a.52.52,0,0,0-.71,0,.51.51,0,0,0,0,.71Z"/><path d="M184.79,315.92l2.26,1.35a.49.49,0,0,0,.68-.18.5.5,0,0,0-.18-.68l-2.26-1.36a.5.5,0,0,0-.5.87Z"/><path d="M197.83,323.94l4.52,4.52a.5.5,0,0,0,.71-.71l-4.52-4.52a.5.5,0,0,0-.71.71Z"/><path d="M197.83,320.16l3.64,5a.5.5,0,0,0,.86-.5l-3.64-5a.5.5,0,0,0-.68-.18.49.49,0,0,0-.18.68Z"/><path d="M197.42,316.66l4.06,4.54c.43.48,1.14-.23.71-.71L198.13,316c-.43-.48-1.14.23-.71.7Z"/><path d="M197,314.94a13.65,13.65,0,0,1,4,3.12.5.5,0,0,0,.7,0,.51.51,0,0,0,0-.71,14.25,14.25,0,0,0-4.16-3.27.51.51,0,0,0-.68.18.5.5,0,0,0,.18.68Z"/><path d="M215.64,324.83a45.85,45.85,0,0,1,5.68,5c.45.47,1.16-.24.71-.7a46.69,46.69,0,0,0-5.89-5.17.5.5,0,0,0-.68.18.5.5,0,0,0,.18.68Z"/><path d="M216.48,322.49l4,4.57a.5.5,0,0,0,.71,0,.5.5,0,0,0,0-.7l-4-4.58a.5.5,0,1,0-.71.71Z"/><path d="M216.69,319.53l4.19,4.87a.5.5,0,0,0,.71,0,.5.5,0,0,0,0-.7l-4.19-4.87a.5.5,0,1,0-.71.7Z"/><path d="M216,315.88a15.23,15.23,0,0,1,3.52,3.08.5.5,0,0,0,.71,0,.51.51,0,0,0,0-.7,16.47,16.47,0,0,0-3.72-3.25.5.5,0,0,0-.51.87Z"/><path d="M218.09,315.47h0l.11,0,.17,0a2,2,0,0,1,.35.09,2.06,2.06,0,0,1,.35.12h0l.08,0,.17.09.32.18a.71.71,0,0,1,.14.1.18.18,0,0,1,.07.05s.11.07.06,0,0,0,0,0l.07.06.14.12a3.5,3.5,0,0,1,.27.28.5.5,0,0,0,.71,0,.51.51,0,0,0,0-.71,4.85,4.85,0,0,0-3-1.53.5.5,0,0,0-.5.5.51.51,0,0,0,.5.5Z"/><path d="M160.65,372.92c2.26.09,2.93-2.68,2.91-4.47a48.9,48.9,0,0,0-1.28-9.78c-.14-.63-1.1-.37-1,.26a53.09,53.09,0,0,1,1.18,8.32c.08,1.34.25,4.75-1.85,4.67-.64,0-.64,1,0,1Z"/><path d="M181.49,299.21c0-.18,0-.24-.06-.17v0s0,0,0,0a1.27,1.27,0,0,1-.33-.2c-.33-.3-.61-.65-.91-1l-2-2.13-.7.7a11,11,0,0,1,2.4,4.06l.84-.49L177,295.77l-.71.71a8.3,8.3,0,0,1,2.16,4l.92-.39-3.2-4.23-.79.61a19.8,19.8,0,0,1,2.83,4.55l.78-.61a9,9,0,0,1-3-4.52.5.5,0,0,0-1,.26,9.86,9.86,0,0,0,3.25,5,.51.51,0,0,0,.79-.61,21,21,0,0,0-3-4.75c-.36-.43-1.13.15-.79.61l3.2,4.23a.51.51,0,0,0,.92-.39,9.33,9.33,0,0,0-2.42-4.44c-.46-.46-1.13.23-.71.71l3.75,4.28a.51.51,0,0,0,.84-.49,12.09,12.09,0,0,0-2.67-4.49c-.44-.47-1.14.23-.7.7l1.48,1.63c.47.5.91,1.06,1.42,1.52a1.32,1.32,0,0,0,1.54.31,1,1,0,0,0,.28-1.44.49.49,0,0,0-.7,0,.51.51,0,0,0,0,.71Z"/><path d="M180,265.24c.09-5.69,3.7-11.57,1.06-17.12-.23-.46-.93-.21-.94.26l-.18,8.63,1-.13a11.86,11.86,0,0,1-.78-6.15l-1-.13,0,6.42,1-.13a46.25,46.25,0,0,1-.91-6.32c0-.63-1-.64-1,0a24.43,24.43,0,0,0,1,5.57c.16.52,1,.45,1-.13a40.19,40.19,0,0,0-2.06-9.45l-.91.39a24,24,0,0,1,1.94,5.19l1-.27a11.6,11.6,0,0,0-2.11-4.12l-.35.85,1.4-.06a.51.51,0,0,0,.35-.86l-2.16-2.46-.35.85a2.74,2.74,0,0,1,2,1.15,6.31,6.31,0,0,1,.6,1.13h-1a2.94,2.94,0,0,1,.14,1.61l.91-.12a2.19,2.19,0,0,1-.29-1.34c0-.64-1-.64-1,0a3,3,0,0,0,.43,1.84.5.5,0,0,0,.91-.12,4.05,4.05,0,0,0-.13-2.13.51.51,0,0,0-1,0c-.3,1.28,1.76,1.4,1.72-.06,0-1.68-1.85-2.81-3.33-3-.47,0-.61.56-.36.85l2.16,2.47.36-.85-1.4.06a.51.51,0,0,0-.36.85,10.53,10.53,0,0,1,1.86,3.69.5.5,0,0,0,1-.27,24.53,24.53,0,0,0-2-5.43.5.5,0,0,0-.91.39,38.93,38.93,0,0,1,2,9.18l1-.13a22.83,22.83,0,0,1-.93-5.31h-1a50.51,50.51,0,0,0,.94,6.59c.12.56,1,.42,1-.14l0-6.42c0-.55-.9-.71-1-.14a12.9,12.9,0,0,0,.78,6.68.5.5,0,0,0,1-.13l.18-8.63-.93.25c1.28,2.69.85,5.65.22,8.45a40.41,40.41,0,0,0-1.41,8.16.5.5,0,0,0,1,0Z"/><path d="M211.17,199.64a1.67,1.67,0,0,1,1.14,1l.68-.68a10,10,0,0,1-2.66-2.77l-.43.75,2.36.11a.51.51,0,0,0,.14-1l-1.76-.27.12.91,2.2-1a.5.5,0,0,0-.26-.93.94.94,0,0,0-.65,1.46,1.05,1.05,0,0,0,.94.5,2.32,2.32,0,0,0,1.18-.45.52.52,0,0,0,.18-.69.52.52,0,0,0-.69-.18,1.94,1.94,0,0,1-.53.29.49.49,0,0,1-.21,0h0s.12.06,0,0,0,.06,0,0,0,0,0,0,0-.13,0-.05,0,0,0,0,0-.06,0,0,0,0,0,0,0,0,0,0a.22.22,0,0,1-.14.05l-.25-.93-2.19,1a.5.5,0,0,0,.12.91l1.75.28.13-1-2.36-.11a.5.5,0,0,0-.43.75,11.08,11.08,0,0,0,3,3.13.5.5,0,0,0,.61-.08.52.52,0,0,0,.08-.6,2.6,2.6,0,0,0-1.73-1.44c-.62-.16-.89.81-.27,1Z"/><path d="M222.3,185.27a23.17,23.17,0,0,1,5.57,3.59l.7-.71a13.38,13.38,0,0,1-4.11-5.39l-.74.56a9.11,9.11,0,0,1,3.45,4.79l.73-.57a6,6,0,0,1-2.44-4.25l-.63.49a3.35,3.35,0,0,1,2.24,3.29l.5-.5a11.32,11.32,0,0,1-5.93-2.69.53.53,0,0,0-.61-.08,4.08,4.08,0,0,1-3.07.12l-.26,1,7.22,1.43.14-1a28.84,28.84,0,0,0-5.25-.21.5.5,0,0,0,0,1h3.6v-1a18.71,18.71,0,0,1-5.63-.48c-.63-.15-.89.81-.27,1a19.51,19.51,0,0,0,5.9.52c.63,0,.65-1,0-1h-3.6v1a28.84,28.84,0,0,1,5.25.21c.55.07.68-.87.13-1L218,183.92a.5.5,0,0,0-.26,1,5.16,5.16,0,0,0,3.84-.23l-.61-.07a12.52,12.52,0,0,0,6.64,3c.27,0,.49-.26.5-.5a4.38,4.38,0,0,0-3-4.26.5.5,0,0,0-.63.48,7,7,0,0,0,2.93,5.11.5.5,0,0,0,.74-.56,10.12,10.12,0,0,0-3.9-5.38c-.34-.24-.9.16-.74.56a14.45,14.45,0,0,0,4.38,5.84c.49.39,1.2-.27.7-.71a23.55,23.55,0,0,0-5.76-3.74c-.58-.27-1.09.59-.51.86Z"/><path d="M223.51,215.91l-4.95-.1.35.86a3.45,3.45,0,0,1,2.21-1.15.5.5,0,0,0,0-1l-2.87.07.25.93a20.19,20.19,0,0,1,3.62-1.27l-.49-.83a2.1,2.1,0,0,1-3,.16l-.22.84a21.47,21.47,0,0,0,4.63-2.23c.54-.35,0-1.22-.51-.87a19.83,19.83,0,0,1-4.39,2.14.5.5,0,0,0-.22.83,3.13,3.13,0,0,0,4.38-.16.51.51,0,0,0-.49-.84,21.64,21.64,0,0,0-3.86,1.37c-.46.21-.22.94.26.93l2.87-.07v-1a4.42,4.42,0,0,0-2.91,1.44.5.5,0,0,0,.35.85l4.95.1a.5.5,0,0,0,0-1Z"/><path d="M154.31,381.53l13.44-.06a.5.5,0,0,0,0-1A64.81,64.81,0,0,0,155,381.56c-.63.12-.36,1.08.27,1a62.77,62.77,0,0,1,12.47-1.06v-1l-13.44.06a.5.5,0,0,0,0,1Z"/><path d="M159.8,384c.38.9,2.07.6,1.79-.45a3.57,3.57,0,0,0-1.67-2.19l-.25.94c1.83.15,3.66.27,5.49.37.64,0,.64-1,0-1-1.83-.1-3.66-.22-5.49-.37-.51,0-.66.69-.25.93a2.63,2.63,0,0,1,1.24,1.7l.05-.38c0,.06,0,.06,0,0s0-.05,0,0,.13,0,0,0c.06,0-.06,0,0,0s0,0,0,0a.49.49,0,0,0-.68-.18.5.5,0,0,0-.18.68Z"/><path d="M164.83,352.61a55.84,55.84,0,0,0-10.17-.58.5.5,0,0,0,0,1h9.2v-1h-5.38v1a16.51,16.51,0,0,1,7,.82.51.51,0,0,0,.56-.74c-.38-.69-1.64-1-2.12-.22s.26,2,1,2.37c.58.27,1.09-.59.51-.87a1,1,0,0,1-.61-.74c-.06-.32.22-.29.36,0l.56-.74a17.39,17.39,0,0,0-7.23-.85.5.5,0,0,0,0,1h5.38a.5.5,0,0,0,0-1h-9.2v1a53.77,53.77,0,0,1,9.9.55c.63.09.9-.87.27-1Z"/><path d="M171.73,337.23a127.14,127.14,0,0,0-16.51-4.3l-.13,1a26.78,26.78,0,0,1,14.7,2.66l.38-.91-13.25-2.82-.14,1a30.82,30.82,0,0,1,13.06,2.51c.59.26,1.1-.6.51-.86a32,32,0,0,0-13.57-2.65c-.54,0-.7.86-.13,1l13.26,2.82c.52.12.91-.64.38-.91a27.65,27.65,0,0,0-15.2-2.8c-.52,0-.74.87-.14,1a127.28,127.28,0,0,1,16.52,4.3c.61.21.87-.76.26-1Z"/><path d="M177.42,402.63a173.34,173.34,0,0,0-24,4.63c-.53.14-.44,1,.13,1A144.26,144.26,0,0,0,173.68,404a.51.51,0,0,0-.14-1A35.54,35.54,0,0,0,159,406.53a.5.5,0,0,0,.25.93A98.11,98.11,0,0,0,173,405a.5.5,0,0,0-.27-1,97.19,97.19,0,0,1-13.45,2.42l.25.93a34.45,34.45,0,0,1,14-3.41l-.13-1a140.5,140.5,0,0,1-19.87,4.24l.13,1a172.58,172.58,0,0,1,23.75-4.59c.63-.07.64-1.07,0-1Z"/><path d="M240.48,341.73a50.4,50.4,0,0,1-4.32-9.27l-.73.56c2.16,1,2.58,3.92,3.45,5.91a24.94,24.94,0,0,0,4.18,6.46l.71-.71a23.43,23.43,0,0,1-6-12.14l-.91.38a70.42,70.42,0,0,1,4.54,10.2c.21.6,1.16.35,1-.27l-3.58-11.1a.5.5,0,0,0-1,.26l2.52,9.94,1-.27a47.89,47.89,0,0,1-3.21-14l-1,.13a16,16,0,0,1,.22,6.38h1a15.21,15.21,0,0,1-.69-6.56c.07-.64-.93-.63-1,0a15.93,15.93,0,0,0,.72,6.82c.15.43.88.53,1,0a17.43,17.43,0,0,0-.22-6.9c-.13-.54-1-.44-1,.13A48.41,48.41,0,0,0,240.34,342a.5.5,0,0,0,1-.27l-2.52-9.93-1,.26,3.58,11.11,1-.27a69.91,69.91,0,0,0-4.64-10.43c-.29-.53-1-.15-.91.38a24.31,24.31,0,0,0,6.25,12.59c.45.47,1.14-.23.71-.71a23.49,23.49,0,0,1-4.41-7.22c-.76-2-1.36-4.31-3.43-5.3-.36-.17-.89.12-.73.56a51,51,0,0,0,4.42,9.51.5.5,0,0,0,.86-.5Z"/><path d="M182.2,314.17a111.42,111.42,0,0,0,3.3-16.37c.08-.64-.92-.64-1,0a110.4,110.4,0,0,1-3.26,16.1.5.5,0,0,0,1,.27Z"/><path d="M185.65,314.7a117.58,117.58,0,0,0,3.91-16.77c.1-.63-.86-.9-1-.27a116.4,116.4,0,0,1-3.92,16.78c-.19.61.77.88,1,.26Z"/><path d="M190.48,315.57l2.7-17.64c.09-.63-.87-.9-1-.27l-2.69,17.64c-.1.63.87.91,1,.27Z"/><path d="M195.56,311.52a84.05,84.05,0,0,0,.92-15.53c0-.64-1-.64-1,0a83.8,83.8,0,0,1-.88,15.26c-.1.63.87.9,1,.27Z"/><path d="M199.59,314.54V298.26a.5.5,0,0,0-1,0v16.28a.5.5,0,0,0,1,0Z"/><path d="M203.48,315.34a70.6,70.6,0,0,1-1.15-17.53c0-.65-1-.65-1,0a71.35,71.35,0,0,0,1.19,17.8c.12.63,1.08.36,1-.27Z"/><path d="M206.3,314.42a79.06,79.06,0,0,1-.8-17.52c0-.64-1-.64-1,0a80.17,80.17,0,0,0,.83,17.78c.11.63,1.07.37,1-.26Z"/><path d="M210.37,314.87a109.51,109.51,0,0,1-1.67-17.52.5.5,0,0,0-1,0,111.51,111.51,0,0,0,1.7,17.78c.12.64,1.08.37,1-.26Z"/><path d="M214.92,314.87a40,40,0,0,1-2.59-16.16c0-.64-1-.64-1,0A40.51,40.51,0,0,0,214,315.13c.23.6,1.19.34,1-.26Z"/><path d="M219,313.07a46.08,46.08,0,0,1-3.05-16.62.5.5,0,0,0-1,0A46.82,46.82,0,0,0,218,313.33c.23.6,1.19.34,1-.26Z"/><path d="M223.83,312.1a31.48,31.48,0,0,1-4.69-15.66c0-.64-1-.64-1,0A32.41,32.41,0,0,0,223,312.6c.34.55,1.2,0,.86-.5Z"/><path d="M231.13,314.16A29.57,29.57,0,0,1,224.05,296c0-.64-1-.64-1,0a30.72,30.72,0,0,0,7.37,18.88c.42.49,1.12-.22.71-.71Z"/><path d="M233.89,312.93a60,60,0,0,1-7.17-12.55c-.25-.58-1.22-.33-1,.27A61.3,61.3,0,0,0,233,313.44c.37.51,1.24,0,.86-.51Z"/><path d="M234.88,264.2a9,9,0,0,0-3.81-5.95l.18.69a23,23,0,0,0,2.29-7.31c.08-.62,0-1.92-1-1.56-.59.21-.74,1.25,0,1.36s.9-.87.27-1l.09.06.14.35c-.32,0-.46.18-.43.43s-.05.41-.09.61-.11.66-.17,1c-.13.61-.28,1.22-.46,1.82a21.44,21.44,0,0,1-1.47,3.7.53.53,0,0,0,.18.69,8.06,8.06,0,0,1,3.35,5.34c.11.64,1.07.37,1-.26Z"/><path d="M232.4,250.9a26,26,0,0,0,10.69.32c.63-.11.37-1.07-.26-1a24.67,24.67,0,0,1-10.16-.33.5.5,0,0,0-.27,1Z"/><path d="M234.83,265.09l14-.35c.64,0,.64-1,0-1l-14,.35a.5.5,0,0,0,0,1Z"/><path d="M248.82,265.49l.45-.91a.51.51,0,0,0,0-.38.5.5,0,0,0-.23-.3.5.5,0,0,0-.38,0,.5.5,0,0,0-.3.23l-.45.9a.54.54,0,0,0-.05.39.5.5,0,0,0,.23.3.5.5,0,0,0,.38.05.53.53,0,0,0,.3-.23Z"/><path d="M248.8,262.42a8.62,8.62,0,0,1,0-5.43.52.52,0,0,0-.23-.57,18.26,18.26,0,0,1-4.21-4.6c-.35-.54-1.21,0-.87.5a19.89,19.89,0,0,0,4.58,5l-.23-.57a9.42,9.42,0,0,0,0,6c.2.61,1.17.35,1-.26Z"/><path d="M233.14,259.37a49.16,49.16,0,0,1,15.73-.63c.64.08.63-.93,0-1a49.91,49.91,0,0,0-16,.67c-.63.13-.37,1.09.26,1Z"/><path d="M288,392.43l2.32-11.21c.13-.62-.83-.89-1-.26l-2.32,11.2c-.13.63.83.9,1,.27Z"/><path d="M287.43,385.16a3.94,3.94,0,0,1,1.64,0,3.76,3.76,0,0,1,1.49.72.52.52,0,0,0,.71,0,.5.5,0,0,0,0-.71,4.87,4.87,0,0,0-4.11-1,.52.52,0,0,0-.35.62.52.52,0,0,0,.62.35Z"/><path d="M281.64,365.36l-.15,0,.13,0h-.24l.13,0a1.34,1.34,0,0,1-.27-.07l.12.05a1,1,0,0,1-.26-.16l.1.08a1.36,1.36,0,0,1-.24-.24l.07.1a1.28,1.28,0,0,1-.17-.3l.05.12a1,1,0,0,1-.08-.29l0,.13a.76.76,0,0,1,0-.26l0,.13a.9.9,0,0,1,.06-.22l-.05.12,0-.07a.5.5,0,0,0-.86-.5,1.53,1.53,0,0,0,0,1.44,1.78,1.78,0,0,0,1,.87,1.43,1.43,0,0,0,.82,0,.5.5,0,1,0-.27-1Z"/><path d="M258.16,322.05l-4.9-24c-.13-.63-1.1-.36-1,.26l4.9,24c.13.63,1.1.37,1-.26Z"/><path d="M261.64,339.27a39.3,39.3,0,0,0-1.86-7.7c-.21-.6-1.17-.34-1,.27a39.1,39.1,0,0,1,1.85,7.7.5.5,0,0,0,1-.27Z"/><path d="M267.5,352.38l-1.32-5a.5.5,0,0,0-1,.27l1.32,5a.5.5,0,0,0,1-.27Z"/><path d="M272.16,376.07a32.85,32.85,0,0,0-1-10.59.5.5,0,0,0-1,.27,32,32,0,0,1,1,10.32c-.05.64.95.64,1,0Z"/><path d="M177.2,213.06l11-13.92c.39-.5-.31-1.21-.71-.7l-11,13.91c-.39.5.31,1.21.71.71Z"/><path d="M181.52,214.43l8.19-15.36c.3-.57-.56-1.07-.87-.5l-8.19,15.35c-.3.57.57,1.07.87.51Z"/><path d="M186.18,213.81a63.7,63.7,0,0,0,5.41-15.35c.13-.63-.83-.9-1-.27a62.76,62.76,0,0,1-5.31,15.12c-.29.57.57,1.08.86.5Z"/><path d="M191.8,213.66a81.68,81.68,0,0,1,2.35-13,.5.5,0,0,0-1-.27,83.93,83.93,0,0,0-2.39,13.24c-.06.64.94.64,1,0Z"/><path d="M194.54,214.12l1.55-14.91c.06-.64-.94-.63-1,0l-1.55,14.91c-.07.64.93.63,1,0Z"/><path d="M197.82,212.77a98.06,98.06,0,0,1,.31-14c.06-.64-.94-.64-1,0a98.06,98.06,0,0,0-.31,14c0,.64,1,.64,1,0Z"/><path d="M201.1,212.6a45.18,45.18,0,0,1-.76-13.87c.06-.64-.94-.63-1,0a46.23,46.23,0,0,0,.79,14.13c.14.63,1.1.37,1-.26Z"/><path d="M205,213.08a41.32,41.32,0,0,1-2.73-11.17c-.07-.63-1.07-.64-1,0A42.5,42.5,0,0,0,204,213.35c.24.59,1.2.33,1-.27Z"/><path d="M208.05,213.11l-2.5-13.61c-.11-.63-1.08-.37-1,.26l2.5,13.61c.11.64,1.08.37,1-.26Z"/><path d="M211.64,211.2a75,75,0,0,1-3.4-9.89.5.5,0,0,0-1,.26,76.66,76.66,0,0,0,3.49,10.13c.25.59,1.12.09.87-.5Z"/><path d="M210,202.72a86.88,86.88,0,0,1,7.61,10.3c.34.55,1.21,0,.86-.5A89.57,89.57,0,0,0,210.75,202c-.42-.49-1.12.22-.71.71Z"/><path d="M179.74,186a31.94,31.94,0,0,1,7.63,10.29c.28.59,1.14.08.87-.5a32.73,32.73,0,0,0-7.8-10.5c-.47-.42-1.18.28-.7.71Z"/><path d="M186.11,186.72A44.6,44.6,0,0,1,189.89,198c.12.63,1.09.36,1-.27A45.54,45.54,0,0,0,187,186.22c-.29-.58-1.15-.07-.87.5Z"/><path d="M190.92,187.12a27.47,27.47,0,0,1,1.33,10.72c-.05.64.95.64,1,0a28.25,28.25,0,0,0-1.36-11c-.2-.61-1.17-.35-1,.27Z"/><path d="M195.07,188.46a22.18,22.18,0,0,1-.45,10.18.5.5,0,0,0,1,.26,23.09,23.09,0,0,0,.45-10.71c-.12-.63-1.08-.36-1,.27Z"/><path d="M198.2,189.25l-.52,9.5c0,.64,1,.64,1,0l.52-9.5c0-.64-1-.64-1,0Z"/><path d="M201.36,188.67l-1.47,10.84c-.09.63.87.9,1,.26l1.47-10.84c.09-.63-.88-.9-1-.26Z"/><path d="M205.09,188.71a71.3,71.3,0,0,0-2.54,9.43c-.13.62.84.89,1,.26a71.58,71.58,0,0,1,2.54-9.42c.21-.61-.76-.87-1-.27Z"/><path d="M208.13,190,205,199.08c-.21.61.76.88,1,.27l3.14-9.06c.21-.6-.76-.87-1-.26Z"/><path d="M210.88,190.36a47.79,47.79,0,0,0-3.73,9.14.5.5,0,0,0,1,.27,46.32,46.32,0,0,1,3.64-8.91c.3-.56-.56-1.07-.87-.5Z"/><path d="M214.39,189.4l-4.08,8.14c-.29.57.58,1.08.86.5l4.08-8.14c.29-.57-.57-1.08-.86-.5Z"/><path d="M176.5,146.28a11.42,11.42,0,0,0-5.23-9.88c-.55-.35-1.05.51-.51.86a10.4,10.4,0,0,1,4.74,9c0,.64,1,.64,1,0Z"/><path d="M170.59,136.37h7.24a.5.5,0,0,0,0-1h-7.24a.5.5,0,0,0,0,1Z"/><path d="M171.34,136.71a12,12,0,0,0,3.8-10.3l-.5.5c1.38.15,3,.18,4-.91.44-.47-.27-1.18-.71-.71-.83.88-2.18.74-3.27.62a.5.5,0,0,0-.5.5,11.11,11.11,0,0,1-3.5,9.59c-.48.43.23,1.14.7.71Z"/><path d="M174.6,126.39c1.52-1.21-.36-3.51-1.13-4.57a29.55,29.55,0,0,0-4.17-4.56c-.48-.42-1.19.28-.71.71a28,28,0,0,1,3.66,3.88,25.64,25.64,0,0,1,1.47,2.11c.28.47.71,1.3.17,1.73s.21,1.1.71.7Z"/><path d="M168.78,116.92h6.79a.5.5,0,0,0,0-1h-6.79a.5.5,0,0,0,0,1Z"/><path d="M166.36,116.28a2.33,2.33,0,0,0,3-.78,14.13,14.13,0,0,0,1.59-4.06,21.78,21.78,0,0,0,1.21-4.11,2.58,2.58,0,0,0-1.06-2.76l-.11.91a8.82,8.82,0,0,1,3.92.26.5.5,0,0,0,.26-1,9.85,9.85,0,0,0-4.45-.26.5.5,0,0,0-.12.91c.73.42.67,1.4.52,2.13a27.73,27.73,0,0,1-1,3.21c-.37,1.11-.67,2.25-1.12,3.32-.33.8-1.18,1.94-2.17,1.32-.55-.34-1.05.53-.5.87Z"/><path d="M171.9,105.31a13,13,0,0,0-5.65-6.13c-.4-.22-.81-.41-1.23-.59-.21-.08-.43-.15-.63-.24a1.27,1.27,0,0,0-.23-.12c-.13-.12-.24,0-.31.37-.22,0-.27-.22-.14-.62-.49.42.22,1.12.7.71a.62.62,0,0,0-.37-1.07.7.7,0,0,0-.84.93c.2.59.89.74,1.39.94a12.3,12.3,0,0,1,1.62.82,12.18,12.18,0,0,1,4.83,5.5c.26.59,1.12.08.86-.5Z"/><path d="M162.92,97.58c.19,1.11,1.63.89,2.31.43a11.43,11.43,0,0,0,2.62-2.62,14.49,14.49,0,0,0,2.86-7c.09-.64-.92-.63-1,0a13.29,13.29,0,0,1-2.14,5.66,13.82,13.82,0,0,1-1.94,2.31,5.7,5.7,0,0,1-1.08.88,1.69,1.69,0,0,1-.45.14c-.18,0-.2,0-.21-.08-.11-.64-1.08-.37-1,.26Z"/><path d="M170,88.31l3.63,1.32a.5.5,0,0,0,.62-.35.51.51,0,0,0-.35-.61l-3.63-1.33a.5.5,0,0,0-.61.35.51.51,0,0,0,.34.62Z"/><path d="M165.72,99.2a13.07,13.07,0,0,1,7.94-.51.5.5,0,0,0,.26-1,13.91,13.91,0,0,0-8.46.51c-.6.23-.34,1.19.26,1Z"/><path d="M167.5,149.91,166,99.85l-.44-14.19c0-.64-1-.65-1,0l1.55,50.05.44,14.2c0,.64,1,.64,1,0Z"/><path d="M161.19,145.27a22.79,22.79,0,0,0,5.08,4.15.5.5,0,0,0,.5-.86,22,22,0,0,1-4.87-4c-.44-.48-1.14.23-.71.7Z"/><path d="M157.93,93.88a14.7,14.7,0,0,1,7.75-7.28l-.48-.12A7.56,7.56,0,0,1,167,88.63a.5.5,0,0,0,.87-.5,8.4,8.4,0,0,0-2-2.36.48.48,0,0,0-.48-.13,15.69,15.69,0,0,0-8.36,7.73c-.27.58.59,1.09.87.51Z"/><path d="M168.33,149.4H167.1l.13,1,5.63-.9c.56-.09.43-1-.13-1l-5.61.51c-.63.06-.65,1,0,1l3.94-.25c.64,0,.64-1,0-1l-3.94.25v1l5.61-.51-.13-1-5.63.89c-.57.1-.42,1,.13,1h1.23a.5.5,0,0,0,0-1Z"/><path d="M166.65,88.83a27.1,27.1,0,0,1,5.61-.49v-1a59.51,59.51,0,0,1-6.94,0l.36.85a3.51,3.51,0,0,1,4.68-.06c.47.43,1.18-.27.71-.71a4.53,4.53,0,0,0-6.1.07.5.5,0,0,0,.35.85,59.51,59.51,0,0,0,6.94,0,.5.5,0,0,0,0-1,28.34,28.34,0,0,0-5.88.53c-.63.12-.36,1.08.27,1Z"/><path d="M164.18,185.58q8.16-13.79,17.45-26.85c.29-.4-.28-1-.68-.68l-.66.46c-.52.37,0,1.23.51.86l.65-.46-.68-.68q-9.28,13.05-17.45,26.85a.5.5,0,0,0,.86.5Z"/><path d="M161.83,145.61l19,11.77c.55.34,1-.52.51-.86l-19-11.78c-.55-.34-1.05.53-.5.87Z"/><path d="M226.1,186.28l3.55-15.78c1.13-5,1.94-10.32,3.95-15.1.22-.52-.65-.87-.91-.38l-.53,1c-.31.56.55,1.07.86.5l.53-1-.91-.38c-2,4.77-2.82,10.06-4,15.09L225.13,186c-.14.63.83.89,1,.27Z"/><path d="M173.05,184.05,191,161.64c.4-.5-.3-1.21-.7-.7l-17.9,22.4c-.4.5.3,1.21.7.71Z"/><path d="M181.73,184.43a202.46,202.46,0,0,1,20-25.54c.43-.48-.27-1.19-.71-.71a204.46,204.46,0,0,0-20.17,25.74c-.36.54.51,1,.86.51Z"/><path d="M190.25,182.56a255.15,255.15,0,0,1,21.06-26.33c.44-.47-.27-1.18-.7-.7a252.94,252.94,0,0,0-21.22,26.53c-.37.53.5,1,.86.5Z"/><path d="M195,185.58q10.62-13.08,20.2-27c.37-.53-.5-1-.86-.51q-9.51,13.75-20,26.75c-.4.5.3,1.21.71.71Z"/><path d="M204.08,183.65q10.17-14.07,21.17-27.5c.41-.49-.3-1.2-.71-.7Q213.47,169,203.21,183.14c-.37.52.49,1,.87.51Z"/><path d="M209.79,184.58Q220,171.89,229,158.31c.35-.54-.51-1-.87-.51q-8.9,13.47-19,26.07c-.4.5.3,1.21.71.71Z"/><path d="M216.07,186.54a248.48,248.48,0,0,0,15.35-22.95.5.5,0,0,0-.87-.51A245.07,245.07,0,0,1,215.21,186c-.39.52.48,1,.86.51Z"/><path d="M242.23,175.86l6.3-1.48c.63-.14.36-1.11-.27-1l-6.3,1.47c-.63.15-.36,1.11.27,1Z"/><path d="M238.58,172.11l9-1.86c.63-.13.37-1.09-.26-1l-9,1.85c-.63.13-.36,1.1.27,1Z"/><path d="M236.18,167.59A42.19,42.19,0,0,0,247.24,166a.5.5,0,0,0-.26-1,41.53,41.53,0,0,1-10.8,1.52.5.5,0,0,0,0,1Z"/><path d="M234,163.78l11.36-1.93c.64-.11.37-1.07-.26-1l-11.37,1.92c-.63.11-.36,1.07.27,1Z"/><path d="M232.57,159.14l12.65-.58c.65,0,.65-1,0-1l-12.65.58c-.65,0-.65,1,0,1Z"/><path d="M232.11,154.94a83.52,83.52,0,0,0,13.26-1.79c.63-.13.36-1.1-.27-1a82.43,82.43,0,0,1-13,1.75c-.64,0-.65,1,0,1Z"/><path d="M230.3,150.45A96.8,96.8,0,0,0,244,149c.63-.11.37-1.07-.26-1a94.73,94.73,0,0,1-13.43,1.44c-.64,0-.65,1,0,1Z"/><path d="M228.93,144.75a89.56,89.56,0,0,0,13.72-2c.63-.14.36-1.11-.27-1a89.78,89.78,0,0,1-13.45,2c-.64.05-.65,1.05,0,1Z"/><path d="M227.12,140.79l15.39-1.25c.64-.06.64-1.06,0-1l-15.39,1.25c-.63.05-.64,1.05,0,1Z"/><path d="M229.08,136a108.45,108.45,0,0,1,13-1c.64,0,.64-1,0-1A112.84,112.84,0,0,0,228.82,135c-.64.09-.37,1,.26,1Z"/><path d="M226.23,131.89l16.28-.53c.64,0,.64-1,0-1l-16.28.53c-.64,0-.65,1,0,1Z"/><path d="M226.69,125.64l14-1.47c.64-.06.64-1.06,0-1l-14,1.47c-.63.06-.64,1.06,0,1Z"/><path d="M223.06,122q9-.42,18.09-.44a.5.5,0,0,0,0-1q-9,0-18.09.44c-.64,0-.64,1,0,1Z"/><path d="M222.16,116.48l17.63-1c.64,0,.65-1,0-1l-17.63,1c-.64,0-.65,1,0,1Z"/><path d="M219.9,111.12l21.69-.92c.64,0,.64-1,0-1l-21.69.92c-.64,0-.65,1,0,1Z"/><path d="M220.8,105.16H238a.5.5,0,0,0,0-1H220.8a.5.5,0,0,0,0,1Z"/><path d="M219.9,101.14l19-.53a.5.5,0,0,0,0-1l-19,.53a.5.5,0,0,0,0,1Z"/><path d="M221.25,96.57l16.28.54c.64,0,.64-1,0-1l-16.28-.54c-.64,0-.64,1,0,1Z"/><path d="M221.25,92.5a127,127,0,0,1,15.85.69c.64.07.64-.93,0-1a127,127,0,0,0-15.85-.69.5.5,0,0,0,0,1Z"/><path d="M222.15,88.81a56.56,56.56,0,0,1,16.17.45c.63.11.9-.86.26-1a57.63,57.63,0,0,0-16.43-.48c-.63.07-.64,1.07,0,1Z"/><path d="M219.89,84.31q7.71-.15,15.4.25c.64,0,.64-1,0-1q-7.69-.41-15.4-.25a.5.5,0,0,0,0,1Z"/><path d="M228.16,82a15.1,15.1,0,0,1,7.43.51c.62.2.88-.76.27-1a16.32,16.32,0,0,0-8-.52c-.63.12-.36,1.08.27,1Z"/><path d="M265.13,170a14,14,0,0,1-2.23-5.14l-.84.49,5.09,5.73c.39.45,1-.12.78-.6l-5.27-10.33-.79.6,7.74,9.81.71-.71a32.48,32.48,0,0,1-7.88-14.57l-.92.39,7.59,10.16.86-.51a59.1,59.1,0,0,1-7.85-14l-.83.48a61.6,61.6,0,0,1,6.94,10.43l.86-.5a80.58,80.58,0,0,1-8.51-15.57l-.83.49,8.74,10.43c.37.43,1.09-.13.79-.61l-8.11-12.75-.86.5,7.31,9.91c.37.5,1.22,0,.86-.51a62.29,62.29,0,0,1-7.59-16.1l-.92.38,9.11,11.81c.38.49,1.23,0,.86-.51A75.28,75.28,0,0,1,261,131.33l-.91.38,8.66,11.39c.38.5,1.25,0,.86-.51a76.31,76.31,0,0,1-10.2-18.4l-.83.48A40.21,40.21,0,0,1,266,136l.86-.5-8.44-18.17-.79.6a56.87,56.87,0,0,1,7.68,11.89l.86-.5-9.81-20.35-.79.6a39.11,39.11,0,0,1,8.3,11.64l.87-.51a115.73,115.73,0,0,1-8.67-20.42l-.91.38A97.19,97.19,0,0,1,264.87,117c.24.5,1.12.14.91-.39a131.88,131.88,0,0,0-10.19-20.51l-.79.61a56.82,56.82,0,0,1,7.73,11.79c.25.5,1.12.15.92-.38l-8.36-21.8-.91.38a65.73,65.73,0,0,1,8.91,16.22l.91-.39-9.72-19-.68.68a21.89,21.89,0,0,1,7.74,10c.22.59,1.15.37,1-.26l-2.42-8.23-.49.63a2.71,2.71,0,0,0,2.94-3c-.06-.64-1.06-.64-1,0a1.73,1.73,0,0,1-1.94,2,.5.5,0,0,0-.48.63l2.43,8.23,1-.26a23,23,0,0,0-8.2-10.65c-.43-.31-.89.28-.68.68l9.72,19c.25.49,1.12.15.91-.39a66.49,66.49,0,0,0-9-16.45c-.31-.41-1.14-.19-.91.38l8.35,21.8.92-.38a58.27,58.27,0,0,0-7.89-12c-.37-.43-1.08.13-.79.61a129.83,129.83,0,0,1,10.1,20.27l.91-.39A96.44,96.44,0,0,0,256,100.11c-.31-.42-1.1-.2-.91.39a117.33,117.33,0,0,0,8.76,20.66c.31.57,1.13.07.87-.51a40.33,40.33,0,0,0-8.46-11.84.5.5,0,0,0-.78.61l9.81,20.35c.28.58,1.14.07.86-.5a58,58,0,0,0-7.83-12.09c-.39-.47-1,.12-.79.6L266,136c.27.59,1.11.08.86-.5A40.42,40.42,0,0,0,259.3,124c-.32-.35-1,0-.83.48a77,77,0,0,0,10.3,18.65l.86-.51L261,131.21c-.31-.41-1.11-.2-.91.38a76.16,76.16,0,0,0,9,18.1l.86-.51-9.1-11.8c-.32-.42-1.1-.21-.92.38a63.53,63.53,0,0,0,7.7,16.35l.86-.51-7.31-9.9c-.37-.51-1.21,0-.86.5l8.1,12.76.79-.61-8.75-10.43c-.31-.37-1,0-.83.49a81.47,81.47,0,0,0,8.61,15.8.5.5,0,0,0,.86-.5,61.62,61.62,0,0,0-7.1-10.64.5.5,0,0,0-.83.49,59.81,59.81,0,0,0,7.95,14.25c.38.51,1.25,0,.86-.51l-7.58-10.16a.51.51,0,0,0-.92.39,33.66,33.66,0,0,0,8.14,15c.45.48,1.1-.22.71-.71l-7.74-9.8c-.37-.47-1,.12-.79.6L267.07,171l.78-.6-5.08-5.74c-.35-.4-.94,0-.84.48a15,15,0,0,0,2.34,5.38c.36.53,1.23,0,.86-.5Z"/><path d="M47.65,131.72A19.29,19.29,0,0,1,52.13,137a.5.5,0,0,0,.87-.5,20.43,20.43,0,0,0-4.64-5.5.52.52,0,0,0-.71,0,.5.5,0,0,0,0,.71Z"/><path d="M47.61,125.7a47,47,0,0,0,10.54,10.63c.52.37,1-.49.51-.87A45.5,45.5,0,0,1,48.47,125.2c-.37-.52-1.24,0-.86.5Z"/><path d="M47.34,120.73q6.82,7.84,14.26,15.13a.5.5,0,0,0,.7-.71Q54.88,127.88,48.05,120c-.42-.49-1.13.22-.71.7Z"/><path d="M50.07,119.82,62.5,134.05c.42.48,1.12-.23.7-.71L50.78,119.11c-.43-.49-1.13.22-.71.71Z"/><path d="M52.31,118.63a64.59,64.59,0,0,1,8.46,7.65c.44.47,1.15-.23.71-.71a66.06,66.06,0,0,0-8.66-7.8c-.52-.39-1,.48-.51.86Z"/><path d="M56.35,118.22a17.31,17.31,0,0,1,6.23,4.89.5.5,0,0,0,.71-.7,18,18,0,0,0-6.43-5,.5.5,0,1,0-.51.86Z"/><path d="M39,143.43l-6-23.15-3-11.4c-.21-.79-1.21-7.19-3.21-5.25-.46.45.24,1.16.71.71.19-.19.89,2.35.93,2.47l.61,2.34,1.28,4.9,2.58,9.88L38,143.69a.5.5,0,0,0,1-.26Z"/><path d="M27.59,103.08l-1.27-2.59-.43.75c9.32-1.18,18.24-4.14,27.1-7.14,4.49-1.51,9-3,13.55-4.33,2.27-.64,4.56-1.23,6.87-1.73,1.15-.25,2.31-.47,3.47-.67a17.68,17.68,0,0,1,1.75-.28,1.54,1.54,0,0,1,1.7.71c.41.49,1.12-.22.71-.71s-.68-1.07-1.22-1.17a9.89,9.89,0,0,0-2.77.41c-1.81.3-3.62.67-5.42,1.09-3.74.87-7.43,2-11.09,3.12-7.2,2.31-14.3,4.94-21.58,7a91.4,91.4,0,0,1-13.07,2.73.51.51,0,0,0-.44.75l1.27,2.6c.29.58,1.15.07.87-.51Z"/><path d="M125.51,157.86c-1.74-.35-1.89-2.57-1.85-4,0-2.34.26-4.68.39-7l.81-14.2c0-.53-.68-.64-.93-.26l-.36.55c-.35.54.51,1,.86.5l.36-.54-.93-.25-1,16.69c-.14,2.54-1.43,8.76,2.34,9.52.63.12.9-.84.26-1Z"/><path d="M116.58,123a14.49,14.49,0,0,0,7.1,4.09c2,.47,5.36,1,6.35-1.42.24-.59-.72-.85-1-.26-.37.91-1.63,1.06-2.49,1a12.26,12.26,0,0,1-3.4-.54,13.41,13.41,0,0,1-5.88-3.63c-.44-.47-1.15.24-.71.71Z"/><path d="M115.71,116.17a15.05,15.05,0,0,0,12.38,5.61c.64,0,.65-1,0-1a14.09,14.09,0,0,1-11.67-5.32c-.4-.51-1.1.21-.71.71Z"/><path d="M116.6,108.83A14.72,14.72,0,0,0,129,116a.5.5,0,0,0,0-1,13.71,13.71,0,0,1-11.52-6.67.5.5,0,0,0-.86.5Z"/><path d="M118.27,102.26a14,14,0,0,0,11.17,5c.64,0,.65-1,0-1A13,13,0,0,1,119,101.56c-.42-.5-1.12.21-.71.7Z"/><path d="M120.11,97.68a14.87,14.87,0,0,0,6,3,.5.5,0,0,0,.26-1A13.85,13.85,0,0,1,120.82,97a.5.5,0,0,0-.71,0,.49.49,0,0,0,0,.7Z"/><path d="M103.39,123.5a14.53,14.53,0,0,0,8.8.22,14.07,14.07,0,0,0,4-1.85c.76-.51,2.09-1.83.84-2.6-.55-.35-1,.52-.5.86.19.12-.94.94-1,1A11.8,11.8,0,0,1,114,122a13.12,13.12,0,0,1-3.35,1.08,13.47,13.47,0,0,1-6.95-.53c-.6-.22-.87.75-.26,1Z"/><path d="M103.45,117.2a13.6,13.6,0,0,0,13.72-1c.52-.37,0-1.24-.51-.87a12.54,12.54,0,0,1-12.7,1c-.58-.28-1.08.58-.51.87Z"/><path d="M103.83,113.47c3.13.43,6.56.9,9.52-.53,2.29-1.11,4.18-3.42,4-6.08,0-.63-1-.64-1,0,.16,2.39-1.6,4.37-3.68,5.3-2.66,1.19-5.79.73-8.57.34-.63-.09-.9.88-.27,1Z"/><path d="M103.05,105.82A10.37,10.37,0,0,0,117,101.87c.3-.57-.56-1.08-.87-.51a9.34,9.34,0,0,1-12.54,3.6.5.5,0,0,0-.51.86Z"/><path d="M103.52,101.48a13.23,13.23,0,0,0,13.93-7.31c.27-.58-.59-1.08-.86-.5a12.26,12.26,0,0,1-12.8,6.85c-.63-.1-.9.86-.27,1Z"/></g></g></svg>