<svg xmlns="http://www.w3.org/2000/svg" viewBox="0 0 170.58 145.6"><g id="Layer_2" data-name="Layer 2"><g id="Layer_7_154" data-name="Layer 7,154"><path d="M.85,83.46c-1.91,8.87,1.85,19.29,3.93,28,2.28,9.51,4.56,19,6.92,28.5s16.8,5.4,14.47-4-4.81-19-7.26-28.41c-2.24-8.68-3.77-19.29-9.64-26.28-2.4-2.86-7.66-1.31-8.42,2.22Z"/><path d="M17.87,145.55c12.65-.13,25.73-7.13,37.39-11.54,12.52-4.73,24.95-9.72,37.39-14.67Q130,104.48,167,88.72c3.76-1.59,4.51-7.06,2.69-10.26-2.21-3.88-6.56-4.26-10.26-2.69q-36.6,15.49-73.3,30.72c-12.09,5-24.21,10-36.28,15-11.41,4.8-25.52,8.6-34.83,17-2.66,2.41-.55,7,2.9,7Z"/><path d="M33.12,49.18c4.88,1.3,9.39.06,14.14-1.26,5.43-1.51,10.86-2.79,16.32-4.08,10.31-2.43,20.55-5.83,30.68-8.9,19.8-6,39.43-12.53,58.23-21.22,8.75-4.05,1.14-17-7.57-12.95-18.2,8.41-37.25,14.59-56.38,20.47-9.84,3-20.06,5.57-29.68,9.2-5,1.88-9.89,3.65-15,5.28-4.67,1.49-9.23,2.85-12.59,6.6a4.15,4.15,0,0,0,1.81,6.86Z"/><path d="M146.71,6.93c-1.55,5.7.49,11.64,1.7,17.24,1.37,6.36,2.47,12.8,3.54,19.22a209.58,209.58,0,0,1,2.6,37.78c-.16,9.66,14.84,9.66,15,0a232.3,232.3,0,0,0-2.84-39.94,148.53,148.53,0,0,0-4.33-19C160.63,16.37,159,9,154,5c-2.46-2-6.31-1.51-7.24,1.91Z"/><path d="M6.2,88c8.94.44,18.06-3.47,26.42-6.15,9.21-2.94,5.1-17.67-4-14.46C19.76,70.48,9.9,73,2.55,79.15c-3.66,3.06-.45,8.6,3.65,8.8Z"/><path d="M33.7,77.31c3.87-6.7,4.51-16.38,5.6-23.94,1.39-9.57-12.44-11.49-13.12-1.78-.3,4.29-.49,8.49-.47,12.79,0,4-.44,8.09.81,12,1,3.15,5.44,4,7.18.93Z"/><path d="M.52,83.51c-1.9,8.87,1.86,19.28,3.94,27.95C6.74,121,9,130.47,11.38,140s16.8,5.4,14.46-4S21,117,18.59,107.56C16.35,98.88,14.82,88.27,9,81.29,6.54,78.43,1.29,80,.52,83.51Z"/><path d="M17.55,145.6c12.65-.14,25.73-7.14,37.39-11.54,12.52-4.73,25-9.72,37.39-14.67q37.32-14.86,74.29-30.62c3.76-1.59,4.51-7.07,2.7-10.26-2.22-3.89-6.56-4.26-10.27-2.69q-36.59,15.5-73.3,30.72c-12.08,5-24.21,10-36.27,15-11.41,4.79-25.52,8.59-34.83,17-2.67,2.41-.55,7,2.9,7Z"/><path d="M32.79,49.22c4.89,1.3,9.4.07,14.15-1.25,5.43-1.51,10.86-2.79,16.32-4.08,10.3-2.43,20.54-5.84,30.68-8.9,19.8-6,39.43-12.53,58.23-21.22,8.75-4,1.14-17-7.57-13C126.4,9.23,107.35,15.4,88.21,21.29c-9.83,3-20,5.57-29.67,9.2-5,1.88-9.89,3.65-15,5.27-4.67,1.5-9.23,2.85-12.6,6.61a4.14,4.14,0,0,0,1.81,6.85Z"/><path d="M146.38,7c-1.54,5.69.5,11.64,1.71,17.24,1.37,6.36,2.47,12.8,3.54,19.22a209.58,209.58,0,0,1,2.6,37.78c-.16,9.66,14.84,9.66,15,0a233.24,233.24,0,0,0-2.84-39.94,146.88,146.88,0,0,0-4.34-19c-1.74-5.88-3.4-13.26-8.42-17.24-2.46-1.95-6.32-1.51-7.25,1.92Z"/><path d="M5.88,88c8.94.43,18.06-3.48,26.42-6.15,9.21-2.94,5.1-17.68-4-14.46C19.44,70.53,9.58,73.05,2.23,79.2c-3.66,3.06-.45,8.6,3.65,8.8Z"/><path d="M33.38,77.36c3.87-6.7,4.5-16.39,5.6-23.94,1.39-9.57-12.44-11.49-13.12-1.78-.3,4.29-.49,8.49-.47,12.78,0,4-.44,8.1.81,12,1,3.16,5.43,4,7.18.94Z"/><path d="M52.53,107.94q36.9-15.82,73.89-31.43l20.94-8.87a1.51,1.51,0,0,0,.54-2,1.55,1.55,0,0,0-2.06-.54Q109,80.7,72.06,96.35q-10.53,4.49-21,9c-1.77.76-.25,3.34,1.51,2.59Z"/><path d="M46.46,69Q64.52,62.3,83,56.84c1.85-.55,1.06-3.44-.8-2.89Q63.73,59.41,45.66,66.07c-1.79.66-1,3.56.8,2.89Z"/><path d="M80.87,54.55l8.49,13.69c1,1.64,3.61.14,2.59-1.51L83.46,53c-1-1.64-3.61-.13-2.59,1.52Z"/><path d="M82.7,54.75l13.39-6a1.5,1.5,0,0,0,.54-2,1.54,1.54,0,0,0-2-.54l-13.39,6a1.51,1.51,0,0,0-.54,2.05,1.54,1.54,0,0,0,2,.54Z"/><path d="M91.7,68.55Q99.1,65,106.2,60.8a1.5,1.5,0,0,0-1.52-2.59Q97.59,62.36,90.18,66a1.5,1.5,0,0,0,1.52,2.59Z"/><path d="M94.29,48l9.93,11.87a1.52,1.52,0,0,0,2.12,0,1.54,1.54,0,0,0,0-2.12L96.41,45.91a1.52,1.52,0,0,0-2.12,0,1.54,1.54,0,0,0,0,2.12Z"/><path d="M98.4,50.5l32.66-12c1.8-.66,1-3.56-.8-2.89l-32.66,12c-1.79.66-1,3.56.8,2.89Z"/><path d="M46.49,67.45a45.94,45.94,0,0,0-1.62-6.84c-.35-1.2-.69-2.39-1-3.6-.14-.54-.28-1.08-.4-1.62,0-.24-.1-.49-.14-.73l-.06-.35c0-.08-.06-.47,0-.11a1.55,1.55,0,0,0-1.5-1.5,1.51,1.51,0,0,0-1.5,1.5A44.73,44.73,0,0,0,41.87,61c.34,1.2.69,2.39,1,3.6q.21.81.39,1.62l.15.73.06.35c0,.07.06.47,0,.11A1.54,1.54,0,0,0,45,69a1.51,1.51,0,0,0,1.5-1.5Z"/><path d="M43,53.44l-3.58-6.35a1.5,1.5,0,1,0-2.59,1.51L40.45,55A1.5,1.5,0,0,0,43,53.44Z"/><path d="M69.3,60.13,82,91c.72,1.76,3.62,1,2.89-.8L72.19,59.33c-.73-1.76-3.63-1-2.89.8Z"/><path d="M90.24,70.76q3.18,8.19,6.86,16.16a1.51,1.51,0,0,0,2.05.54,1.53,1.53,0,0,0,.54-2Q96.18,77.79,93.13,70a1.54,1.54,0,0,0-1.84-1,1.5,1.5,0,0,0-1.05,1.84Z"/><path d="M80.18,53.38l.34,4.39a.5.5,0,0,0,1,0l-.34-4.39a.51.51,0,0,0-.5-.5.5.5,0,0,0-.5.5Z"/><path d="M89.22,68.15a35.7,35.7,0,0,1,0,3.73.5.5,0,0,0,.5.5.51.51,0,0,0,.5-.5,35.7,35.7,0,0,0,0-3.73.5.5,0,0,0-1,0Z"/><path d="M105.79,59.81l-.65,5.46a.5.5,0,0,0,1,0l.65-5.46a.5.5,0,0,0-1,0Z"/><path d="M80.94,57.72l7.23,13.41c.31.56,1.17.06.87-.51l-7.23-13.4c-.31-.57-1.17-.07-.87.5Z"/><path d="M86,55.12q4.8-2,9.58-4.1c.58-.26.08-1.12-.51-.86q-4.65,2-9.34,4c-.58.25-.33,1.22.27,1Z"/><path d="M85.11,54.93q1.61,2.25,3.1,4.58a26.64,26.64,0,0,1,2.65,4.6c.23.59,1.2.34,1-.26a27.47,27.47,0,0,0-2.64-4.7c-1-1.6-2.1-3.17-3.2-4.73-.37-.52-1.24,0-.87.51Z"/><path d="M91.73,64.3l9.94-5c.57-.29.07-1.16-.51-.87l-9.93,5c-.58.29-.07,1.15.5.86Z"/><path d="M94.78,51a80.82,80.82,0,0,0,5.52,7.76c.4.5,1.1-.21.7-.71a78,78,0,0,1-5.35-7.55c-.34-.55-1.21-.05-.87.5Z"/><path d="M77.84,60.91a119.39,119.39,0,0,1,6.21,13.14c.87,2.18,1.66,4.39,2.42,6.62a19.81,19.81,0,0,0,2.78,5.83c.38.5,1.25,0,.86-.51a20.56,20.56,0,0,1-2.82-6c-.76-2.24-1.57-4.46-2.45-6.65A119.61,119.61,0,0,0,78.7,60.41c-.31-.57-1.18-.06-.86.5Z"/><path d="M79.79,61.07l1.81-.68a.57.57,0,0,0,.3-.23.53.53,0,0,0,0-.39.52.52,0,0,0-.62-.35l-1.81.68a.57.57,0,0,0-.3.23.53.53,0,0,0,0,.39.52.52,0,0,0,.62.35Z"/><path d="M74.45,62.9l3.23-1a.5.5,0,1,0-.27-1l-3.23,1a.5.5,0,0,0-.35.61.52.52,0,0,0,.62.35Z"/><path d="M81.35,64.71a9.67,9.67,0,0,0,2.32-.86.51.51,0,0,0,.18-.69.52.52,0,0,0-.69-.18,4,4,0,0,1-.51.25l-.15.07h0l-.28.11a8.35,8.35,0,0,1-1.11.33.5.5,0,1,0,.27,1Z"/><path d="M76.13,66.78l3.26-1a.52.52,0,0,0,.35-.62.49.49,0,0,0-.61-.34l-3.27,1a.5.5,0,0,0,.27,1Z"/><path d="M82.91,68.35l2.34-.91a.51.51,0,0,0,.35-.62.5.5,0,0,0-.61-.35l-2.35.91a.5.5,0,1,0,.27,1Z"/><path d="M77.43,70.82a26.22,26.22,0,0,0,4.29-1.74.51.51,0,0,0,.18-.69.51.51,0,0,0-.68-.18,24.57,24.57,0,0,1-4,1.65c-.61.18-.35,1.15.26,1Z"/><path d="M84.69,71.5c.39-.24.79-.47,1.2-.67.2-.11.41-.2.61-.3l.3-.13c.06,0,.06,0,0,0l.09,0,.17-.07a.51.51,0,0,0,.35-.61.49.49,0,0,0-.61-.35,17.37,17.37,0,0,0-2.63,1.3.5.5,0,1,0,.51.87Z"/><path d="M79.48,74.36,83,72.81a.5.5,0,0,0-.51-.87L79,73.5a.49.49,0,0,0-.18.68.51.51,0,0,0,.68.18Z"/><path d="M86.13,75.17a26.58,26.58,0,0,1,3.14-1.81.5.5,0,1,0-.5-.86,26.3,26.3,0,0,0-3.14,1.8.5.5,0,0,0,.5.87Z"/><path d="M80.41,78.31,84,76.39a.51.51,0,0,0,.18-.69.52.52,0,0,0-.69-.18l-3.53,1.92a.51.51,0,0,0-.18.69.5.5,0,0,0,.68.18Z"/><path d="M87.46,78.11a27.74,27.74,0,0,0,4.28-1.9c.56-.31.06-1.17-.51-.86a25.89,25.89,0,0,1-4,1.79.51.51,0,0,0-.35.62.5.5,0,0,0,.61.35Z"/><path d="M82,81.13a29.69,29.69,0,0,1,3.44-1.7.51.51,0,0,0,.35-.61.5.5,0,0,0-.62-.35,33.76,33.76,0,0,0-3.68,1.79.5.5,0,0,0,.51.87Z"/><path d="M88.73,81.8a27.26,27.26,0,0,0,4.63-2.36c.55-.35,0-1.22-.5-.87a26.83,26.83,0,0,1-4.39,2.27.51.51,0,0,0-.35.61.5.5,0,0,0,.61.35Z"/><path d="M83,84.7a22.84,22.84,0,0,0,3.26-2,.5.5,0,0,0-.5-.87,22.84,22.84,0,0,1-3.26,2,.5.5,0,0,0,.5.87Z"/><path d="M90.55,85.17a33.22,33.22,0,0,0,3.92-2.06c.55-.34,0-1.2-.5-.86a32.46,32.46,0,0,1-3.92,2,.5.5,0,0,0,.5.87Z"/><path d="M84.6,88A15.49,15.49,0,0,0,88,86.25a.5.5,0,1,0-.51-.86,15.16,15.16,0,0,1-1.54,1,15.79,15.79,0,0,1-1.58.72.5.5,0,0,0,.26,1Z"/><path d="M60.59,64q4.09,9,7.59,18.29c.23.59,1.2.34,1-.27q-3.56-9.37-7.69-18.52c-.27-.59-1.13-.08-.87.5Z"/><path d="M68.73,82.87q3.64-1.2,7.22-2.61c.6-.24.34-1.21-.26-1q-3.57,1.41-7.23,2.61c-.61.2-.35,1.17.27,1Z"/><path d="M68.92,60.6a4.87,4.87,0,0,0-.13,2.08A.52.52,0,0,0,69,63a.5.5,0,0,0,.68-.18.59.59,0,0,0,0-.39c0,.15,0,0,0,0s0-.08,0-.12,0-.14,0-.21a3.27,3.27,0,0,1,0-.44,1.5,1.5,0,0,1,0-.2c0-.1,0,.12,0,0s0-.07,0-.11a3,3,0,0,1,.1-.43.52.52,0,0,0-.35-.62.5.5,0,0,0-.61.35Z"/><path d="M68.77,62.62q5.76,13.93,11.38,27.94c.24.59,1.21.33,1-.27q-5.62-14-11.38-27.94c-.25-.59-1.21-.33-1,.27Z"/><path d="M60,64.29a158.55,158.55,0,0,0,7.54,19c.27.58,1.13.08.86-.5A156.14,156.14,0,0,1,61,64c-.2-.61-1.17-.35-1,.26Z"/><path d="M68.4,84.17q4-1.22,7.89-2.74c.6-.23.34-1.2-.26-1-2.6,1-5.23,1.93-7.9,2.74a.5.5,0,0,0,.27,1Z"/><path d="M52.21,118.29q19.33-8.39,38.73-16.6t39-16.32q11-4.55,22-9c.59-.24.33-1.21-.26-1q-19.62,8-39.17,16.18T73.56,108q-10.94,4.68-21.85,9.42c-.59.25-.08,1.12.5.86Z"/><path d="M53.93,109.38l2.41,5.55a.51.51,0,0,0,.69.18.51.51,0,0,0,.18-.68l-2.41-5.55a.51.51,0,0,0-.69-.18.51.51,0,0,0-.18.68Z"/><path d="M59.23,106.74a36.22,36.22,0,0,1,2.93,6.2c.22.6,1.18.34,1-.27a39.34,39.34,0,0,0-3-6.44.5.5,0,0,0-.87.51Z"/><path d="M54.28,109a40.44,40.44,0,0,0,5.36-2.34c.57-.3.06-1.16-.51-.86A39.36,39.36,0,0,1,54,108a.5.5,0,1,0,.26,1Z"/><path d="M57,109.83l2.22,4.36a.5.5,0,0,0,.86-.5l-2.21-4.36a.5.5,0,0,0-.87.5Z"/><path d="M54.32,109.14l2.81.77a.5.5,0,0,0,.61-.35.52.52,0,0,0-.35-.62l-2.81-.76a.5.5,0,0,0-.61.34.51.51,0,0,0,.35.62Z"/><path d="M57.77,109.58l2-2.54a.5.5,0,0,0-.18-.68.51.51,0,0,0-.69.18l-2,2.54a.49.49,0,0,0,.18.68.5.5,0,0,0,.68-.18Z"/><path d="M85.84,96.3l2.41,5.55a.5.5,0,0,0,.68.18.51.51,0,0,0,.18-.69L86.7,95.79a.5.5,0,0,0-.68-.18.51.51,0,0,0-.18.69Z"/><path d="M91.14,93.65a36.53,36.53,0,0,1,2.92,6.2c.22.6,1.19.34,1-.27a38.58,38.58,0,0,0-3-6.44.5.5,0,0,0-.86.51Z"/><path d="M86.19,95.91a42.46,42.46,0,0,0,5.35-2.34c.57-.3.07-1.17-.5-.87a38.61,38.61,0,0,1-5.11,2.24.5.5,0,0,0,.26,1Z"/><path d="M88.9,96.75l2.22,4.36a.49.49,0,0,0,.68.17.51.51,0,0,0,.18-.68l-2.22-4.36a.5.5,0,0,0-.68-.18.53.53,0,0,0-.18.69Z"/><path d="M86.22,96.05l2.81.77a.5.5,0,1,0,.27-1l-2.81-.77a.5.5,0,1,0-.27,1Z"/><path d="M89.68,96.5l2-2.55a.5.5,0,0,0-.18-.68.51.51,0,0,0-.68.18l-2,2.54a.52.52,0,0,0,.18.69.52.52,0,0,0,.69-.18Z"/><path d="M93.93,92.63l2.41,5.55a.5.5,0,0,0,.69.18.52.52,0,0,0,.18-.68l-2.42-5.55a.49.49,0,0,0-.68-.18.5.5,0,0,0-.18.68Z"/><path d="M99.23,90a36.22,36.22,0,0,1,2.93,6.2c.21.6,1.18.34,1-.27a39.34,39.34,0,0,0-3-6.44.5.5,0,0,0-.87.51Z"/><path d="M94.28,92.24a40.44,40.44,0,0,0,5.36-2.34c.57-.3.06-1.16-.51-.86A40,40,0,0,1,94,91.28a.5.5,0,0,0,.26,1Z"/><path d="M97,93.08l2.22,4.36a.5.5,0,1,0,.86-.5l-2.21-4.36a.5.5,0,0,0-.87.5Z"/><path d="M94.32,92.39l2.81.77a.5.5,0,0,0,.61-.35.52.52,0,0,0-.35-.62l-2.81-.77a.5.5,0,0,0-.26,1Z"/><path d="M97.77,92.83l2-2.54a.49.49,0,0,0-.17-.68.52.52,0,0,0-.69.17l-2,2.55a.49.49,0,0,0,.18.68.5.5,0,0,0,.68-.18Z"/><path d="M62.42,105.72l2.41,5.55a.51.51,0,0,0,.69.18.52.52,0,0,0,.18-.68l-2.42-5.56a.51.51,0,0,0-.68-.18.51.51,0,0,0-.18.69Z"/><path d="M67.72,103.07a36.94,36.94,0,0,1,2.93,6.2c.21.6,1.18.34,1-.26a38.58,38.58,0,0,0-3-6.44.5.5,0,0,0-.87.5Z"/><path d="M62.77,105.33A40.44,40.44,0,0,0,68.13,103c.57-.3.06-1.16-.51-.86a39.91,39.91,0,0,1-5.11,2.23.51.51,0,0,0-.35.62.5.5,0,0,0,.61.35Z"/><path d="M65.48,106.17l2.22,4.36a.5.5,0,0,0,.68.18.52.52,0,0,0,.18-.69l-2.21-4.35a.5.5,0,0,0-.87.5Z"/><path d="M62.81,105.48l2.81.76a.5.5,0,0,0,.61-.34.51.51,0,0,0-.35-.62l-2.81-.77a.5.5,0,0,0-.61.35.52.52,0,0,0,.35.62Z"/><path d="M66.26,105.92l2-2.54a.5.5,0,0,0-.17-.69.52.52,0,0,0-.69.18l-2,2.55a.5.5,0,0,0,.18.68.51.51,0,0,0,.68-.18Z"/><path d="M74.13,101.49,76.54,107a.51.51,0,0,0,.69.18.52.52,0,0,0,.18-.68L75,101a.51.51,0,0,0-.68-.18.51.51,0,0,0-.18.69Z"/><path d="M79.43,98.84a36.94,36.94,0,0,1,2.93,6.2c.21.6,1.18.34,1-.26a39,39,0,0,0-3-6.44.5.5,0,0,0-.87.5Z"/><path d="M74.48,101.1a40.44,40.44,0,0,0,5.36-2.34c.57-.3.06-1.16-.51-.86a39.91,39.91,0,0,1-5.11,2.23.51.51,0,0,0-.35.62.5.5,0,0,0,.61.35Z"/><path d="M77.19,101.94l2.22,4.36a.5.5,0,0,0,.68.18.52.52,0,0,0,.18-.69l-2.21-4.35a.5.5,0,0,0-.87.5Z"/><path d="M74.51,101.25l2.81.76a.5.5,0,0,0,.62-.34.51.51,0,0,0-.35-.62l-2.81-.77a.5.5,0,0,0-.27,1Z"/><path d="M78,101.69l2-2.54a.51.51,0,0,0-.18-.69.51.51,0,0,0-.68.18l-2,2.55a.51.51,0,0,0,.18.68.52.52,0,0,0,.69-.18Z"/><path d="M107.3,87.43,109.72,93a.51.51,0,0,0,.68.18.51.51,0,0,0,.18-.69l-2.41-5.55a.51.51,0,0,0-.69-.18.53.53,0,0,0-.18.69Z"/><path d="M112.61,84.78a37.31,37.31,0,0,1,2.92,6.2c.22.6,1.18.34,1-.27a37.76,37.76,0,0,0-3-6.44.5.5,0,0,0-.86.51Z"/><path d="M107.66,87A43.77,43.77,0,0,0,113,84.7c.57-.3.07-1.17-.5-.87a38.73,38.73,0,0,1-5.12,2.24.52.52,0,0,0-.35.62.52.52,0,0,0,.62.35Z"/><path d="M110.37,87.88l2.21,4.35a.5.5,0,1,0,.86-.5l-2.21-4.36a.5.5,0,0,0-.68-.18.51.51,0,0,0-.18.69Z"/><path d="M107.69,87.18l2.81.77a.5.5,0,0,0,.61-.35.5.5,0,0,0-.35-.61L108,86.22a.5.5,0,0,0-.61.35.5.5,0,0,0,.35.61Z"/><path d="M111.14,87.63l2-2.55a.5.5,0,0,0-.18-.68.53.53,0,0,0-.69.18l-2,2.54a.51.51,0,0,0,.18.69.51.51,0,0,0,.68-.18Z"/><path d="M120.93,81.61l2.41,5.55a.5.5,0,0,0,.86-.5l-2.41-5.56a.5.5,0,1,0-.86.51Z"/><path d="M126.23,79a37.69,37.69,0,0,1,2.92,6.2c.22.6,1.19.34,1-.26a37.85,37.85,0,0,0-3-6.44.5.5,0,0,0-.86.5Z"/><path d="M121.28,81.22a39.75,39.75,0,0,0,5.35-2.34c.57-.3.07-1.16-.5-.86A39.43,39.43,0,0,1,121,80.25a.51.51,0,0,0-.34.62.5.5,0,0,0,.61.35Z"/><path d="M124,82.06l2.21,4.36a.52.52,0,0,0,.69.18.53.53,0,0,0,.18-.69l-2.22-4.35a.49.49,0,0,0-.68-.18.5.5,0,0,0-.18.68Z"/><path d="M121.31,81.36l2.81.77a.5.5,0,1,0,.27-1l-2.81-.77a.52.52,0,0,0-.62.35.5.5,0,0,0,.35.61Z"/><path d="M124.77,81.81l2-2.54a.51.51,0,0,0-.18-.69.51.51,0,0,0-.68.18l-2,2.54a.51.51,0,0,0,.18.69.52.52,0,0,0,.69-.18Z"/><path d="M128.5,78.52l2.41,5.55a.49.49,0,0,0,.68.18.5.5,0,0,0,.18-.68L129.36,78a.49.49,0,0,0-.68-.18.5.5,0,0,0-.18.68Z"/><path d="M133.8,75.88a36.94,36.94,0,0,1,2.92,6.2c.22.6,1.19.34,1-.27a38.58,38.58,0,0,0-3-6.44.5.5,0,0,0-.86.51Z"/><path d="M128.85,78.13a39.75,39.75,0,0,0,5.35-2.34c.57-.3.07-1.16-.5-.86a39.49,39.49,0,0,1-5.12,2.24.52.52,0,0,0-.35.61.51.51,0,0,0,.62.35Z"/><path d="M131.56,79l2.21,4.36a.5.5,0,0,0,.87-.5l-2.22-4.36a.5.5,0,1,0-.86.5Z"/><path d="M128.88,78.28l2.81.77a.5.5,0,0,0,.27-1l-2.81-.77a.52.52,0,0,0-.62.35.51.51,0,0,0,.35.62Z"/><path d="M132.34,78.72l2-2.54a.49.49,0,0,0-.18-.68.5.5,0,0,0-.68.18l-2,2.54a.49.49,0,0,0,.18.68.52.52,0,0,0,.69-.18Z"/><path d="M135.3,75l2.41,5.55a.51.51,0,0,0,.69.18.53.53,0,0,0,.18-.69l-2.42-5.55a.5.5,0,0,0-.68-.18.51.51,0,0,0-.18.69Z"/><path d="M140.6,72.39a36.57,36.57,0,0,1,2.93,6.2c.21.6,1.18.34,1-.27a38.86,38.86,0,0,0-3-6.43.5.5,0,0,0-.87.5Z"/><path d="M135.65,74.65A43.24,43.24,0,0,0,141,72.31c.57-.3.06-1.16-.51-.87a38.61,38.61,0,0,1-5.11,2.24.5.5,0,0,0,.26,1Z"/><path d="M138.36,75.49l2.22,4.36a.49.49,0,0,0,.68.17.5.5,0,0,0,.18-.68L139.23,75a.51.51,0,0,0-.69-.18.53.53,0,0,0-.18.69Z"/><path d="M135.69,74.79l2.81.77a.5.5,0,0,0,.61-.35.5.5,0,0,0-.35-.61L136,73.83a.5.5,0,0,0-.61.35.5.5,0,0,0,.35.61Z"/><path d="M139.14,75.24l2-2.55a.49.49,0,0,0-.17-.68.52.52,0,0,0-.69.18l-2,2.54a.51.51,0,0,0,.18.69.51.51,0,0,0,.68-.18Z"/><path d="M147.7,68.26,153,70.57a.52.52,0,0,0,.69-.18.51.51,0,0,0-.18-.69l-5.27-2.3a.51.51,0,0,0-.69.18.5.5,0,0,0,.18.68Z"/><path d="M100.82,53.07,124.58,45l6.82-2.32c.6-.2.34-1.17-.27-1l-23.75,8.07-6.82,2.32c-.61.2-.35,1.17.26,1Z"/><path d="M131.87,41.62l1.59-4.6a.5.5,0,0,0-.35-.61.51.51,0,0,0-.62.35l-1.59,4.59a.51.51,0,0,0,.35.62.52.52,0,0,0,.62-.35Z"/><path d="M46.37,71.2q7.22-2.1,14.26-4.71c.6-.22.34-1.19-.27-1q-7,2.61-14.25,4.7a.5.5,0,0,0,.26,1Z"/><path d="M131.16,42.23Q136.27,54,140.79,66c.22.6,1.19.34,1-.26q-4.56-12.11-9.73-24c-.26-.59-1.12-.08-.86.51Z"/><path d="M141.45,54.12q3.31-1.75,6.75-3.27a.5.5,0,0,0,.18-.68.51.51,0,0,0-.69-.18q-3.42,1.51-6.74,3.27c-.57.3-.07,1.16.5.86Z"/><path d="M138.46,43l7-3.65c.57-.3.06-1.16-.51-.87l-7,3.66c-.57.29-.07,1.16.5.86Z"/><path d="M134,33.71l6-12.08c.29-.58-.57-1.08-.86-.51l-6,12.09c-.29.57.58,1.08.87.5Z"/><path d="M139,19q4.42,12,9.3,23.9c.9,2.19,1.82,4.38,2.74,6.57.25.59,1.11.08.87-.51Q147,37.38,142.49,25.56q-1.29-3.39-2.53-6.78c-.22-.6-1.19-.34-1,.26Z"/><path d="M136.43,40.53a.9.9,0,0,0,.26.85,2.64,2.64,0,0,0,.73.37c.4.23.61.69,1,.89l.19.08.1,0c.06,0,.05,0,0,0s-.06-.06-.05,0a.66.66,0,0,1,0,.14,1.23,1.23,0,0,1,0,.2q0,.49.06,1a17,17,0,0,1-.07,2,.5.5,0,0,0,1,0,15.41,15.41,0,0,0,.07-1.92c0-.31,0-.62,0-.93a2.71,2.71,0,0,0-.16-1c-.15-.29-.4-.34-.67-.46a1.33,1.33,0,0,1-.4-.35,1.89,1.89,0,0,0-.93-.66.49.49,0,0,0-.16-.05c-.12,0,0-.19,0,.11a.5.5,0,1,0-1-.27Z"/><path d="M139.93,51.94a2.45,2.45,0,0,0,.84.79,1.64,1.64,0,0,1,.22.14l.14.1a1,1,0,0,1,.18.18.59.59,0,0,0,.05.08c0,.06,0,0,0,.06a1.06,1.06,0,0,1,.08.47,5.83,5.83,0,0,1,0,.59,4.23,4.23,0,0,0,0,1.28.49.49,0,0,0,.61.35.5.5,0,0,0,.35-.61,3,3,0,0,1,0-.54c0-.21,0-.42.05-.63a2.84,2.84,0,0,0-.11-1.23,2.13,2.13,0,0,0-.84-1l-.43-.28a1.44,1.44,0,0,1-.27-.28.5.5,0,0,0-.86.5Z"/><path d="M136,41a49.41,49.41,0,0,0-2.82,4.33.5.5,0,0,0,.86.5,51.06,51.06,0,0,1,2.83-4.33.51.51,0,0,0-.18-.68A.51.51,0,0,0,136,41Z"/><path d="M138.39,46.14q-1.62,2.2-3.08,4.51c-.35.55.51,1.05.86.51q1.47-2.31,3.09-4.51a.5.5,0,0,0-.18-.68.52.52,0,0,0-.69.17Z"/><path d="M139.85,51.31a28.43,28.43,0,0,0-2.63,3.56.52.52,0,0,0,.18.69.5.5,0,0,0,.68-.18A26.4,26.4,0,0,1,140.55,52a.51.51,0,0,0,0-.71.49.49,0,0,0-.7,0Z"/><path d="M141.39,55.42,139.1,58.6a.5.5,0,0,0,.86.5l2.3-3.18a.5.5,0,0,0-.18-.68.52.52,0,0,0-.69.18Z"/><path d="M139.39,46.79l2.94-1a.5.5,0,0,0-.26-1l-2.95,1a.52.52,0,0,0-.35.61.51.51,0,0,0,.62.35Z"/><path d="M142.37,56.17c1.18,0,2.36.07,3.53.14a.5.5,0,0,0,.5-.5.51.51,0,0,0-.5-.5c-1.17-.07-2.35-.12-3.53-.14a.5.5,0,0,0-.5.5.51.51,0,0,0,.5.5Z"/><path d="M146.81,56a17.43,17.43,0,0,0,1.8-4,.5.5,0,0,0-1-.26,16.11,16.11,0,0,1-1.7,3.79c-.34.55.53,1.06.87.51Z"/><path d="M140.7,51.67c1.1-.29,2.22-.54,3.35-.74a.52.52,0,0,0,.35-.62.52.52,0,0,0-.62-.35c-1.12.2-2.24.45-3.35.75a.5.5,0,0,0-.35.61.51.51,0,0,0,.62.35Z"/><path d="M137.23,40.93l4.24-1.44a.51.51,0,0,0,.35-.61.51.51,0,0,0-.62-.35L137,40a.5.5,0,0,0,.26,1Z"/><path d="M142.67,45l1.9-3.4a.51.51,0,0,0-.18-.69.5.5,0,0,0-.68.18l-1.9,3.4a.5.5,0,1,0,.86.51Z"/><path d="M131.06,36.91c.31.63.61,1.28.88,1.93l-.15-.36q.61,1.46,1.11,2.94a1.5,1.5,0,0,0,2.89-.79,41.12,41.12,0,0,0-2.14-5.24,1.51,1.51,0,0,0-2.05-.54,1.54,1.54,0,0,0-.54,2.06Z"/><path d="M140.6,57l2.73,7.29a1.5,1.5,0,0,0,2.89-.8l-2.73-7.29a1.5,1.5,0,1,0-2.89.8Z"/><path d="M107.82,56.64q10.07-3.28,20.23-6.29a.5.5,0,0,0-.27-1q-10.16,3-20.23,6.29c-.61.2-.35,1.16.27,1Z"/><path d="M107.11,56.51q2,5.34,4.12,10.6c.24.58,1.21.33,1-.27q-2.18-5.25-4.12-10.6c-.21-.6-1.18-.34-1,.27Z"/><path d="M112.11,67.31q9.78-3.68,19.48-7.57c.59-.24.33-1.2-.27-1q-9.7,3.88-19.48,7.57c-.6.22-.34,1.19.27,1Z"/><path d="M127.46,50.36a83.48,83.48,0,0,1,3.67,9.12c.21.61,1.17.35,1-.26a85.15,85.15,0,0,0-3.78-9.36c-.27-.58-1.14-.08-.86.5Z"/><path d="M96.87,80.81q18.38-7.22,36.51-15,5.09-2.19,10.14-4.43c.59-.26.08-1.12-.5-.86q-17.94,7.93-36.13,15.27-5.13,2.07-10.28,4.09c-.6.24-.34,1.2.26,1Z"/><path d="M49,101.62q12.33-6.27,25.07-11.71,3.7-1.57,7.44-3.08c.59-.24.34-1.21-.26-1q-13,5.25-25.64,11.36-3.57,1.74-7.11,3.54c-.58.29-.07,1.15.5.86Z"/><path d="M97.47,81.89q17.77-7.17,35.38-14.75,5-2.15,9.94-4.32c.59-.26.08-1.12-.5-.86q-17.43,7.63-35,14.88-5,2.05-10,4.08c-.59.24-.33,1.21.26,1Z"/><path d="M49.06,102.64,73.32,91.53l6.89-3.16c.58-.26.07-1.13-.51-.86L55.44,98.62l-6.88,3.16c-.59.26-.08,1.13.5.86Z"/><path d="M108.73,58a9.12,9.12,0,0,1,3.15-2.87l-.69-.69a38.44,38.44,0,0,0-2.2,5.36.5.5,0,0,0,.84.48L115,54.54l-.79-.6-3.88,8.29a.51.51,0,0,0,.68.69c1.79-1,2.44-3,3.45-4.63a16.44,16.44,0,0,1,4.72-4.86l-.69-.68-3.23,6a20.93,20.93,0,0,0-2.47,5.78c-.11.52.66.93.91.38a39.1,39.1,0,0,1,9.48-12.71l-.79-.61-6.57,11.48a.5.5,0,0,0,.86.51,98.54,98.54,0,0,1,9.48-11.8l-.78-.6a52,52,0,0,0-6.15,11.11c-.19.46.53.87.83.49l9-11.15-.78-.61L126,55.2l-1.16,2a3.06,3.06,0,0,0-.58,1.86.5.5,0,0,0,.85.35l4.33-3.92-.78-.6-3.14,5.73a.5.5,0,0,0,.43.75c2.34-.05,2.7-2.86,4.61-3.59L130,57.6v.13c-.45.46.26,1.17.71.71a1,1,0,0,0,.14-1.35.5.5,0,0,0-.56-.23,5.35,5.35,0,0,0-2.2,1.89c-.54.7-1.16,1.65-2.15,1.67l.43.76,3.14-5.74a.5.5,0,0,0-.79-.6l-4.33,3.91.86.36a3.32,3.32,0,0,1,.75-1.89l1.09-1.94,2.14-3.78c.27-.47-.42-1.06-.79-.6l-9,11.15.83.49a51,51,0,0,1,6-10.88c.34-.46-.4-1-.78-.6a99.2,99.2,0,0,0-9.64,12l.86.51,6.58-11.48a.51.51,0,0,0-.79-.61,39.86,39.86,0,0,0-9.63,12.92l.91.38A21.1,21.1,0,0,1,116.28,59l3.12-5.77c.22-.41-.25-1-.69-.68a17.61,17.61,0,0,0-4.62,4.53,28.91,28.91,0,0,0-1.56,2.69,5.13,5.13,0,0,1-2,2.26l.68.69,3.89-8.3c.22-.48-.38-1-.79-.6l-5.21,5.72L110,60a36.09,36.09,0,0,1,2.1-5.11.51.51,0,0,0-.69-.69,10.31,10.31,0,0,0-3.5,3.23c-.36.54.51,1,.86.51Z"/><path d="M94.36,74.15q5.6-3.08,11-6.46c.55-.34,0-1.21-.5-.87q-5.4,3.41-11,6.46c-.57.31-.06,1.17.5.87Z"/><path d="M44,53.4l37.4-11.78L118.6,29.91c6.61-2.08,13.3-4,19.57-7,.58-.28.07-1.14-.5-.87a132.92,132.92,0,0,1-17.43,6.34L101.66,34.2l-37,11.67L43.77,52.44c-.61.19-.35,1.16.27,1Z"/><path d="M37.94,55.83l.13,0-.39,0c.31.15.56,1.3.67,1.62l.49,1.35c.37,1,.73,2,1.09,3q1.07,3,2.09,6c.21.61,1.18.35,1-.26-.82-2.38-1.65-4.76-2.49-7.12-.42-1.17-.84-2.33-1.27-3.49-.25-.68-.52-2.3-1.56-2a.5.5,0,0,0,.27,1Z"/><path d="M43.48,68l-.25,2.08a.48.48,0,0,0,.14.36.52.52,0,0,0,.36.14.5.5,0,0,0,.35-.14.61.61,0,0,0,.15-.36L44.48,68a.48.48,0,0,0-.14-.36.52.52,0,0,0-.36-.14.52.52,0,0,0-.35.14.68.68,0,0,0-.15.36Z"/><path d="M17.2,104.88a265.11,265.11,0,0,0,26.43-9.26c1.77-.72,1-3.63-.79-2.89A265.29,265.29,0,0,1,16.4,102c-1.84.54-1.06,3.44.8,2.89Z"/><path d="M44.51,93.23q-2.62-6.65-5.06-13.36a1.53,1.53,0,0,0-1.84-1.05,1.5,1.5,0,0,0-1,1.84Q39,87.38,41.61,94a1.55,1.55,0,0,0,1.85,1,1.51,1.51,0,0,0,1-1.84Z"/><path d="M35.28,81.72A15.21,15.21,0,0,1,36.69,81l-.36.15a14,14,0,0,1,1.53-.55,1.64,1.64,0,0,0,.9-.69,1.62,1.62,0,0,0,.15-1.16,1.5,1.5,0,0,0-1.85-1.05,18,18,0,0,0-3.3,1.39,1.54,1.54,0,0,0-.69.89,1.56,1.56,0,0,0,.15,1.16,1.54,1.54,0,0,0,2.06.54Z"/><path d="M39,83.72a48.6,48.6,0,0,1,5.53-2.56,5.54,5.54,0,0,1,2.74-.54,2.69,2.69,0,0,1,1.92,1.61,4.57,4.57,0,0,1,.65,2.83A3.36,3.36,0,0,1,48.21,87a10.87,10.87,0,0,1-5,2.28c-.64,0-.65,1,0,1a10.83,10.83,0,0,0,4.84-2c1.28-.81,2.62-1.76,2.76-3.39A5.94,5.94,0,0,0,49,80.38c-1.33-1.15-3.09-.82-4.6-.25a48.21,48.21,0,0,0-5.94,2.72c-.57.31-.06,1.17.5.87Z"/><path d="M44.89,85.36c0-.09,0,0,0,0a.29.29,0,0,1,0-.09.94.94,0,0,1,0-.16c0,.09,0,0,0-.06s0-.21,0-.1a1.29,1.29,0,0,1,.08-.31c0-.07,0,.07,0,0l0,0A1.18,1.18,0,0,1,45,84.4l0-.06c0-.06,0,.06,0,0l.11-.12.13-.12h0l.09-.06a1.46,1.46,0,0,1,.3-.17c-.1,0,.07,0,.09,0l.17,0c.1,0,0,0,0,0h.09a1.08,1.08,0,0,1,.18,0s.1,0,0,0h.07l.21.06h0l.09,0,.15.09.08,0c.06,0-.05,0,0,0l.16.15s.06.07,0,0l0,.06a.83.83,0,0,1,.09.16s0,0,0,0l0,.08s0,.06,0,.09,0,0,0,0v.09s0,.11,0,.06,0,0,0,0l0,.1c0,.08,0,0,0,0l0,.09-.06.09,0,.08-.1.1a.46.46,0,0,0-.07.07c0-.05,0,0,0,0l-.16.1-.06,0s.07,0,0,0a2.14,2.14,0,0,1-.34.09c.1,0,0,0-.07,0a.67.67,0,0,1-.2,0s-.19,0-.08,0l-.16,0-.14,0-.09,0c-.13,0,.08,0,0,0l-.27-.15c-.08-.06,0,0,0,0l-.07,0L45,85.13s-.06-.09,0,0,0,0,0,0l-.09-.15a.59.59,0,0,0,0-.08s0,.08,0,0a1.54,1.54,0,0,0,0-.17s0-.19,0-.08c0-.06,0-.12,0-.18a.76.76,0,0,1,0-.15v-.09c0-.06,0,.07,0,0s.05-.21.09-.32,0-.1,0,0,0,0,0,0l.09-.18,0-.07s0-.06,0,0l0,0,.06-.06a.52.52,0,0,1,.11-.1c.07-.07,0,0,0,0l.09-.06.16-.08c.05,0,0,0,0,0l.07,0,.17,0h.09a1.61,1.61,0,0,1,.31,0s.09,0,0,0h.09l.16,0,.16.06.08,0a2.61,2.61,0,0,1,.28.17l.07.06.1.1.06.07,0,0c0-.05,0,0,0,0l.07.11.07.13c0,.07,0-.08,0,0a.31.31,0,0,1,0,.08.83.83,0,0,1,0,.15s0,0,0,.08,0,0,0,0v.16s0,.07,0,.1,0,0,0,0a1.16,1.16,0,0,1,0,.18l0,.09s0,0,0,0a1.81,1.81,0,0,1-.2.33l-.06.07-.16.15-.07.06s.07,0,0,0a1.19,1.19,0,0,1-.15.09.56.56,0,0,1-.17.09c-.07,0,.07,0,0,0l-.11,0-.17,0c-.08,0,.08,0,0,0h-.28l-.1,0-.17,0s-.09,0,0,0,0,0,0,0l-.15-.08-.07,0c-.08-.05,0,0,0,0a2.39,2.39,0,0,1-.23-.22l0-.07h0L45,85a1.09,1.09,0,0,1-.08-.15s0-.09,0,0l0-.08a1.59,1.59,0,0,1-.08-.33s0-.09,0,0v-.09a.61.61,0,0,1,0-.14.73.73,0,0,1,0-.13c0,.07,0,0,0,0l0-.13c0-.05,0-.09,0-.14s0,.07,0,0l0-.08.07-.12,0-.07c0,.06,0,0,0,0l.11-.11s.12-.1,0,0a2.49,2.49,0,0,1,.3-.19l0,0h0l.15-.05.17,0s.18,0,.07,0a1.58,1.58,0,0,1,.31,0h.12c-.07,0,0,0,0,0l.1,0,.14,0,.08,0c.07,0-.08,0,0,0a1.56,1.56,0,0,1,.28.16c.06,0-.06-.05,0,0l.06,0s.11.12.07.07a.41.41,0,0,1,.05.09v0s0,.07,0,0,0,.06,0,.07a2.78,2.78,0,0,1-.16.4s0-.06,0,0,0,.07,0,.1a1.86,1.86,0,0,1-.1.2l-.11.19-.06.08s0,0,0,0a1.85,1.85,0,0,1-.14.14s-.09.07,0,0-.07,0-.08,0l-.09,0s.07,0,0,0l-.1,0h-.18c-.06,0,0,0,0,0l-.13,0c.09,0-.09-.07,0,0s0-.06,0,0l0,0,0,0c0,.08,0,0,0,0s0-.06,0-.08,0,0,0,0,0-.1,0,0,0,0,0,0l0-.06h0c.07,0,0-.06,0,0s.08-.07,0,0l.08,0c.07-.05,0,0,0,0s.16,0,.06,0,.19,0,.09,0l.09,0s-.08,0,0,0l0,0c.07,0-.08-.08,0,0L46,84.07a.57.57,0,0,1,0,.14s0,0,0,0,0,0,0,0a.2.2,0,0,1,.12-.08.27.27,0,0,1,.28.06.33.33,0,0,1-.07.55.5.5,0,0,0,.18-.68.51.51,0,0,0-.69-.18c-.5.24-.34.94.09,1.16s1-.21,1.11-.69-.51-.87-1-.9a1.25,1.25,0,0,0-1.09.55A1.28,1.28,0,0,0,45.74,86a1.94,1.94,0,0,0,2-1.29,2.46,2.46,0,0,0,.36-1.36,1.5,1.5,0,0,0-.74-.95,2.46,2.46,0,0,0-1.93-.25A2.27,2.27,0,0,0,44,83.35a2.37,2.37,0,0,0,.12,2.06,2.31,2.31,0,0,0,1.58,1.21,2.35,2.35,0,0,0,2.11-.77,2.28,2.28,0,0,0,.56-2.15A2.38,2.38,0,0,0,47,82.25a2.31,2.31,0,0,0-2.05,0,2.4,2.4,0,0,0-1.14,1.8,2.19,2.19,0,0,0,.7,1.9,2.5,2.5,0,0,0,2,.58,2.07,2.07,0,0,0,1.67-1.47,1.88,1.88,0,0,0-1-2,2.21,2.21,0,0,0-2.17,0,2.37,2.37,0,0,0-1.2,1.65A1.84,1.84,0,0,0,44,85.86a.5.5,0,1,0,.86-.5Z"/><path d="M50.42,85.83a114.07,114.07,0,0,1,4.39,12c.19.61,1.15.35,1-.27a116.23,116.23,0,0,0-4.48-12.28c-.26-.59-1.12-.09-.87.5Z"/><path d="M49.17,86.52a25.61,25.61,0,0,1,2.31,5.87,28.24,28.24,0,0,0,1,2.79,17.6,17.6,0,0,1,1.22,3.14c.14.63,1.1.36,1-.26a14.83,14.83,0,0,0-1.15-3,28.4,28.4,0,0,1-1.15-3.12A25.37,25.37,0,0,0,50,86c-.34-.55-1.21,0-.87.5Z"/><path d="M40.48,96l5.58,14.73a1.57,1.57,0,0,0,1.85,1A1.52,1.52,0,0,0,49,110L43.37,95.22a1.53,1.53,0,0,0-1.84-1A1.51,1.51,0,0,0,40.48,96Z"/><path d="M50.06,111.87a32.27,32.27,0,0,1-3.69,6.22.51.51,0,0,0,.18.69.51.51,0,0,0,.68-.18,32.91,32.91,0,0,0,3.7-6.23.51.51,0,0,0-.18-.68.5.5,0,0,0-.69.18Z"/><path d="M46.52,119a37.36,37.36,0,0,1,7.14,5c.48.42,1.19-.28.7-.71A38.47,38.47,0,0,0,47,118.13c-.57-.3-1.07.56-.5.87Z"/><path d="M125.31,93.24a.5.5,0,0,0,0-1,.5.5,0,0,0,0,1Z"/><path d="M29.91,102.29q3.36,11.61,7.74,22.9c.23.59,1.19.33,1-.27Q34.25,113.66,30.87,102a.5.5,0,0,0-1,.26Z"/><path d="M92,63.41l1.2-6.22c.12-.63-.85-.9-1-.27L91,63.15c-.12.63.84.9,1,.26Z"/><path d="M92.85,57.23l6.71,2.1c.62.19.88-.77.27-1l-6.71-2.1c-.62-.19-.88.77-.27,1Z"/><path d="M93.08,56.46l.5-.84a.51.51,0,0,0-.18-.69.5.5,0,0,0-.38,0,.53.53,0,0,0-.3.23l-.5.84a.48.48,0,0,0,0,.39.52.52,0,0,0,.23.3.5.5,0,0,0,.38,0,.53.53,0,0,0,.3-.23Z"/><path d="M93.62,55.47l1-1.55a.5.5,0,0,0-.86-.5l-1,1.55a.49.49,0,0,0,.18.68.5.5,0,0,0,.68-.18Z"/><path d="M94.6,53.77l.33-.68a.3.3,0,0,0,.06-.18.34.34,0,0,0,0-.2.28.28,0,0,0-.09-.17.29.29,0,0,0-.14-.13.5.5,0,0,0-.38,0,.5.5,0,0,0-.3.23l-.34.67a.6.6,0,0,0-.06.19.46.46,0,0,0,0,.2.56.56,0,0,0,.09.17.58.58,0,0,0,.14.13.51.51,0,0,0,.69-.18Z"/><path d="M87.14,55.7,92,57.09a.5.5,0,0,0,.27-1L87.4,54.73a.5.5,0,0,0-.26,1Z"/><path d="M36.77,74.45a23.46,23.46,0,0,1,12.39-1.37,40.85,40.85,0,0,1,6.39,1.28,11.56,11.56,0,0,1,3,1.3,24.4,24.4,0,0,1,2.73,2.13L67.39,83c.49.41,1.2-.29.71-.71l-5.76-4.86a18.36,18.36,0,0,0-5.67-3.73A33.64,33.64,0,0,0,50,72.19a32.13,32.13,0,0,0-6.5-.31,21,21,0,0,0-7.19,1.71c-.58.26-.07,1.12.51.86Z"/><path d="M56.87,85.45a2.31,2.31,0,0,0-2.33-2.31,5,5,0,0,0-2.83,1.06,2.8,2.8,0,0,0-1.22,2.43,2.38,2.38,0,0,0,1.8,2.25V86a4.11,4.11,0,0,0-2.94,4.72A3.55,3.55,0,0,0,51,92.87a3.31,3.31,0,0,0,3.06.1l-2.2-.9a3.44,3.44,0,0,0,2,3,2.48,2.48,0,0,0,2-.16,4.94,4.94,0,0,0,.7-.5c-.28.21,0,0,.09,0,.19-.14-.1,0-.24,0-.39,0,0,.06.12.1l.35.11a2.76,2.76,0,0,0,1,0,3,3,0,0,0,2.43-3.9l-2.2,1.7a2,2,0,0,0,2.76-.68,3.52,3.52,0,0,0,.34-2.24c-.14-1.49-.76-3-2.33-3.42a1.5,1.5,0,1,0-.8,2.89c.16,0,.14,0-.06,0,.13.09.12.07-.06-.06a1.85,1.85,0,0,1,.14.14c-.12-.17-.14-.18-.05,0s.08.33,0,0c0,.15.09.29.12.44s0,.15,0,.23c0-.2,0-.22,0,0s0,.23,0,.35-.05.4,0,.5c-.27-.54,1-.91,1.38-.64a1.5,1.5,0,0,0-2.2,1.69,1.8,1.8,0,0,1,.08.21c0-.22,0-.24,0-.07.05-.39,0-.06,0,0q.12-.28,0-.06t0,0a1.21,1.21,0,0,1-.16.16l.12-.11c-.15.08-.13.08.06,0-.17,0-.14,0,.07,0-.17,0-.15,0,.07,0l-.16,0a2.62,2.62,0,0,0-1.61-.17,2.48,2.48,0,0,0-1,.46l-.35.27c.14-.11.15-.12,0,0a.82.82,0,0,1-.2.12.5.5,0,0,1,.21-.09.49.49,0,0,1,.42.11c-.12-.13-.13-.13,0,0-.08-.14-.09-.17,0-.08l0-.09c0-.1-.05-.19-.07-.29s-.07-.38-.1-.58a1.4,1.4,0,0,0-.86-1,1.57,1.57,0,0,0-1.34.08q.25-.1.09-.06c-.11,0-.07,0,.13,0h-.16c-.12,0-.08,0,.12,0-.05,0-.45-.16-.07,0-.08,0-.16-.11-.24-.14s-.07,0,.07.07l-.13-.12c-.12-.12-.13-.16,0,0a2.91,2.91,0,0,1-.17-.3c.16.31,0,0,0-.07.06.26,0,.06,0-.09,0,.2,0,.13,0,0s.1-.23,0-.05c.06-.11.13-.22.2-.33-.15.25,0,0,.09-.09s.34-.25.09-.09l.32-.2c.27-.16-.2.06.12,0a1.53,1.53,0,0,0,1.1-1.45A1.51,1.51,0,0,0,53.09,86c-.16,0-.14,0,.08.06a.65.65,0,0,1,.26.26c.08.21.09.23,0,.07,0,.23,0,.26,0,.09s0-.14,0,.08-.1.22,0,0c-.1.13-.1.13,0,0s.13-.11.05,0,.27-.14.31-.17l.25-.11c-.16.06-.15.06,0,0l.32-.11c.18-.05.21-.05.09,0A.58.58,0,0,1,54.1,86a1.09,1.09,0,0,1-.23-.5,1.51,1.51,0,0,0,1.5,1.5,1.54,1.54,0,0,0,1.5-1.5Z"/><path d="M45.12,81c2.06-1,4.24.43,6,1.5A27.31,27.31,0,0,0,53.91,84a11.43,11.43,0,0,1,2.59,2,19.09,19.09,0,0,0,10.64,5.08A12.86,12.86,0,0,0,73.87,90c.58-.27.07-1.13-.51-.86-3.92,1.82-8.48,1.08-12.16-1a26.17,26.17,0,0,1-5-3.74,9.38,9.38,0,0,0-2.63-1.62,26.87,26.87,0,0,1-2.81-1.61c-1.86-1.14-4.08-2.06-6.19-1-.58.28-.07,1.15.5.86Z"/><path d="M56.48,70.3l.35,1a.61.61,0,0,0,.13.22.53.53,0,0,0,.28.14.5.5,0,0,0,.5-.24l.56-1.07a.56.56,0,0,0,.05-.38.47.47,0,0,0-.23-.3.49.49,0,0,0-.39,0,.5.5,0,0,0-.3.23l-.55,1.07.91.12-.35-1a.5.5,0,0,0-.23-.3.46.46,0,0,0-.38,0,.5.5,0,0,0-.3.23.46.46,0,0,0-.05.38Z"/><path d="M57.7,71.86l.11-.08-.1.07a5.08,5.08,0,0,1,1.06-.62l-.12,0,.41-.15a.5.5,0,1,0-.26-1,5.58,5.58,0,0,0-1.81,1,.52.52,0,0,0-.14.36.5.5,0,0,0,.14.35.53.53,0,0,0,.36.15.58.58,0,0,0,.35-.15Z"/><path d="M37.46,68.47a2.09,2.09,0,0,0,.63,1.15.5.5,0,0,0,.85-.35V67.85a.5.5,0,0,0-.5-.5.5.5,0,0,0-.5.5v1.42l.85-.36-.18-.2.08.1a1.8,1.8,0,0,1-.21-.35l.05.11a2.26,2.26,0,0,1-.11-.37.46.46,0,0,0-.23-.3.5.5,0,0,0-.38-.05.53.53,0,0,0-.3.23.59.59,0,0,0,0,.39Z"/><path d="M39.09,69.55l.76-1.32a.5.5,0,1,0-.86-.51L38.22,69a.51.51,0,0,0,.18.69.52.52,0,0,0,.69-.18Z"/><path d="M44.55,91.73a29.21,29.21,0,0,1,4.11-2.67L48,88.38l-4.31,6c-.24.34.17.9.57.74,1.87-.74,2.93-2.66,4.79-3.38L48.46,91a29.63,29.63,0,0,1-2.41,3.76c-.77,1-1.84,2-1.75,3.41a.5.5,0,0,0,.85.35,43,43,0,0,1,5.19-4l-.68-.69-2.75,3.91c-.44.61-.88,1.23-1.31,1.85a1.37,1.37,0,0,0-.26,1.47c.72,1.21,2.36-.86,2.84-1.34l3.43-3.34-.84-.49a5.69,5.69,0,0,1-1.22,2.38c-.39.52.48,1,.86.51a6.26,6.26,0,0,0,1.32-2.62.5.5,0,0,0-.83-.49l-2.48,2.43-1.2,1.17-.6.58c-.13.13-.47.58-.68.55l.3.23c-.16-.26.68-1.19.84-1.41l1.17-1.66,2.27-3.22c.29-.41-.28-1-.68-.69a44,44,0,0,0-5.39,4.2l.85.36c-.08-1.26,1.19-2.32,1.88-3.26a28,28,0,0,0,2.15-3.41c.18-.35-.14-.9-.57-.73-1.88.73-2.94,2.64-4.79,3.37l.56.74,4.31-6c.31-.44-.27-.91-.68-.69A30.14,30.14,0,0,0,43.85,91c-.51.4.2,1.1.7.71Z"/><path d="M48.79,105.25a11,11,0,0,1,3.32-3.67l-.68-.69a6.35,6.35,0,0,0-1,4.28.5.5,0,0,0,.85.35L58,98.65,57.23,98a5.19,5.19,0,0,0-.2,4.19.51.51,0,0,0,.91.12c1.58-2.1,3.11-4.23,4.62-6.39l-.87-.5a7.58,7.58,0,0,0-.95,4.54c0,.39.54.71.85.36l4.77-5.43-.84-.48a11.13,11.13,0,0,0-.8,4,.5.5,0,0,0,.85.35c1.76-1.86,3.5-3.74,5.2-5.65L70,92.49a7.12,7.12,0,0,0-.83,4.07.51.51,0,0,0,.86.35,36,36,0,0,0,4.75-5.42l-.91-.38a9.45,9.45,0,0,0-.28,3c0,.39.56.72.86.35l4-5-.78-.1a1.17,1.17,0,0,1,.18,1.23c-.26.58.6,1.09.86.5a2.16,2.16,0,0,0-.18-2.24.5.5,0,0,0-.78-.1l-4.06,5,.85.35a8.73,8.73,0,0,1,.24-2.74.5.5,0,0,0-.91-.38,35.67,35.67,0,0,1-4.6,5.22l.85.35A6.24,6.24,0,0,1,70.85,93c.25-.48-.39-1-.79-.6q-2.55,2.86-5.2,5.66l.86.35a10.62,10.62,0,0,1,.76-3.69c.19-.46-.51-.84-.83-.48l-4.76,5.42.85.35a6.7,6.7,0,0,1,.82-4c.32-.56-.5-1-.87-.5q-2.25,3.23-4.61,6.38L58,102a4.14,4.14,0,0,1,.11-3.41c.23-.49-.37-1-.79-.61l-6.74,6.88.86.35a5.5,5.5,0,0,1,.86-3.77c.27-.41-.27-1-.68-.69a12.24,12.24,0,0,0-3.68,4c-.32.57.55,1.07.86.51Z"/><path d="M98.93,83a6.91,6.91,0,0,1,2.31-1.92l-.73-.56-.55,3.7c-.06.45.46.89.84.49A32.83,32.83,0,0,1,106.15,80l-.75-.43,0,2.75a.5.5,0,0,0,.85.35L112.53,76l-.79-.6a7.05,7.05,0,0,0-.69,4.38c.06.39.59.44.84.22l5.83-5.32-.79-.61a7,7,0,0,0-.78,3.6A.5.5,0,0,0,117,78q3-2.61,5.89-5.31l-.83-.49-.74,2.91a.5.5,0,0,0,.73.57,23.44,23.44,0,0,0,6.19-5.85l-.92-.38c-.32,1.64,1.64,2.6,3,2a5,5,0,0,0,1.95-1.91c.57-.84,1.2-2,2.32-2.14l-.48-.63a2.73,2.73,0,0,0,.27,2.28.52.52,0,0,0,.79.11,24.65,24.65,0,0,1,4.33-3.56c.54-.35,0-1.22-.51-.87a26.09,26.09,0,0,0-4.53,3.72l.79.1a1.72,1.72,0,0,1-.18-1.51.51.51,0,0,0-.48-.64c-1.59.21-2.4,1.49-3.23,2.72-.41.6-1,1.39-1.75,1.52-.52.08-1.44-.26-1.31-.92a.5.5,0,0,0-.92-.38,22.36,22.36,0,0,1-5.82,5.49l.73.56.74-2.91a.51.51,0,0,0-.84-.49c-1.93,1.8-3.9,3.57-5.89,5.31l.86.36a5.91,5.91,0,0,1,.65-3.09.51.51,0,0,0-.79-.61l-5.83,5.32.84.22a5.8,5.8,0,0,1,.59-3.61c.25-.48-.38-1-.79-.6L105.5,82l.86.36,0-2.75a.5.5,0,0,0-.75-.43A34.3,34.3,0,0,0,100.09,84l.84.49.54-3.71a.5.5,0,0,0-.73-.56,7.83,7.83,0,0,0-2.67,2.28c-.39.51.47,1,.86.5Z"/><path d="M14.54,89.24,36,82.76a.5.5,0,0,0-.26-1L14.27,88.27a.5.5,0,0,0,.27,1Z"/><path d="M15.11,88.8q2,5.22,3.59,10.59a.5.5,0,0,0,1-.27c-1.05-3.57-2.25-7.11-3.59-10.59-.22-.59-1.19-.34-1,.27Z"/><path d="M34.93,82.61a54.78,54.78,0,0,1,2.94,9.86c.12.63,1.08.36,1-.27a55.57,55.57,0,0,0-2.93-9.86c-.24-.59-1.21-.33-1,.27Z"/><path d="M35.05,105.24l9.14-4.2c.59-.27.08-1.13-.5-.86l-9.14,4.19c-.59.27-.08,1.13.5.87Z"/><path d="M35.74,101.69c2.1-.9,4.23-1.76,6.36-2.58a.51.51,0,0,0,.35-.61.49.49,0,0,0-.61-.35q-3.33,1.27-6.6,2.68a.49.49,0,0,0-.18.68.5.5,0,0,0,.68.18Z"/><path d="M38,106.4,43.93,104a.5.5,0,1,0-.27-1l-5.9,2.36a.51.51,0,0,0-.35.62.5.5,0,0,0,.61.35Z"/><path d="M34.7,104.82l.84-2.67a.5.5,0,1,0-1-.26l-.84,2.67a.5.5,0,0,0,1,.26Z"/><path d="M34.27,105.59a10.63,10.63,0,0,0,2.4,1,.5.5,0,0,0,.61-.35.5.5,0,0,0-.35-.61,11.9,11.9,0,0,1-1.15-.38l-.13,0-.06,0c.06,0,.06,0,0,0l-.27-.12-.56-.29a.5.5,0,0,0-.5.87Z"/><path d="M19.75,113.67l.8-4.48a.5.5,0,0,0-.35-.61.49.49,0,0,0-.61.34l-.81,4.48a.53.53,0,0,0,.35.62.52.52,0,0,0,.62-.35Z"/><path d="M17.55,106.35a8.12,8.12,0,0,0,2.05,2.46A.53.53,0,0,0,20,109a.47.47,0,0,0,.35-.15.49.49,0,0,0,0-.7A7.87,7.87,0,0,1,19.22,107l-.12-.14-.06-.08c-.05,0,.07.1,0,0l-.22-.31c-.14-.21-.28-.44-.4-.66a.51.51,0,0,0-.69-.18.5.5,0,0,0-.17.68Z"/><path d="M20.33,109q3.56-1.47,7.16-2.83c.6-.22.34-1.19-.27-1-2.4.9-4.78,1.85-7.15,2.83a.51.51,0,0,0-.35.61.49.49,0,0,0,.61.35Z"/><path d="M19.75,113l4.95-1.89a.53.53,0,0,0,.35-.62.52.52,0,0,0-.62-.35L19.49,112a.51.51,0,0,0-.35.62.5.5,0,0,0,.61.35Z"/><path d="M26.25,108.6l1.36-2.55a.5.5,0,0,0-.18-.68.49.49,0,0,0-.68.18l-1.37,2.55a.5.5,0,0,0,.87.5Z"/><path d="M27.31,104.77q-.49-.48-1-1l-.43-.51L25.7,103l-.11-.13c0-.05,0,0,0,0l-.07-.09a.5.5,0,0,0-.3-.23.46.46,0,0,0-.38,0,.5.5,0,0,0-.18.68,19.14,19.14,0,0,0,1.93,2.19.5.5,0,0,0,.71-.71Z"/><path d="M22.9,123.72l.8-4.47a.5.5,0,1,0-1-.27l-.8,4.48a.5.5,0,0,0,1,.26Z"/><path d="M20.69,116.41a8.27,8.27,0,0,0,2.06,2.46.5.5,0,0,0,.71,0,.5.5,0,0,0,0-.71,7.88,7.88,0,0,1-1.1-1.06l-.11-.14-.06-.08c-.05-.06.07.1,0,0l-.22-.3c-.15-.22-.28-.44-.4-.66a.5.5,0,0,0-.87.5Z"/><path d="M23.48,119c2.37-1,4.76-1.93,7.16-2.83.59-.22.34-1.19-.27-1q-3.6,1.35-7.16,2.83a.52.52,0,0,0-.35.61.51.51,0,0,0,.62.35Z"/><path d="M22.9,123l5-1.89a.5.5,0,0,0-.27-1l-4.95,1.89a.51.51,0,0,0-.34.62.49.49,0,0,0,.61.34Z"/><path d="M29.39,118.66l1.37-2.55a.52.52,0,0,0-.18-.69.51.51,0,0,0-.68.18l-1.37,2.55a.5.5,0,1,0,.86.51Z"/><path d="M30.46,114.83c-.34-.32-.65-.65-1-1-.15-.16-.29-.33-.44-.5l-.21-.27-.11-.14s0,0,0,0a.31.31,0,0,1-.07-.09.53.53,0,0,0-.3-.23.59.59,0,0,0-.39,0,.51.51,0,0,0-.17.69,19,19,0,0,0,1.93,2.18.51.51,0,0,0,.71,0,.5.5,0,0,0,0-.7Z"/><path d="M142.07,17.49a227.64,227.64,0,0,0,8.54,21.61c.8,1.75,3.38.23,2.59-1.52A217.74,217.74,0,0,1,145,16.69c-.61-1.82-3.51-1-2.89.8Z"/><path d="M162.75,28.39a.5.5,0,0,0,0-1,.5.5,0,0,0,0,1Z"/></g></g></svg>