<svg xmlns="http://www.w3.org/2000/svg" viewBox="0 0 239.89 342.05"><g id="Layer_2" data-name="Layer 2"><g id="Layer_7_142" data-name="Layer 7,142"><path d="M26.68,340.12c8.85-1.55,17-4.91,25.48-7.88s16.87-5.8,25.33-8.63q25.83-8.62,52-16.14,51.92-14.88,105-25.26c9.47-1.86,5.46-16.32-4-14.46Q177,278.25,124.61,293.27q-25.73,7.39-51.11,15.88C65,312,56.63,315,48.24,318c-9,3.27-18,6.23-26.12,11.29-5.94,3.68-1.9,11.95,4.56,10.81Z"/><path d="M1.88,154.51c-2.67,7-1.37,16.27-1.53,23.71C.18,186.39,0,194.55,0,202.72.09,218.15.07,233.58.44,249c.7,29.27,2.82,60.14,14.05,87.53,1.53,3.73,5,6.43,9.23,5.24,3.54-1,6.79-5.44,5.24-9.23-11.25-27.43-14.27-55.94-15-85.36-.38-15.14-.49-30.29-.73-45.44-.12-7.85-.51-15.68-.84-23.52-.32-7.41.8-16.77-2-23.71-1.65-4.08-6.87-4.22-8.48,0Z"/><path d="M4.08,162.93C12.41,165.4,21,164,28.66,160.11c8.59-4.41,1-17.35-7.57-13a54.94,54.94,0,0,1-17,5.15c-5.67.87-4.8,9.2,0,10.62Z"/><path d="M30.79,160.49c4.4-19.25,4.71-39.47,6-59.1q1-14.76,2.05-29.51c.69-10.06,2.18-20.42,1.94-30.49-.19-7.74-12.93-10.26-14.16-1.92-1.43,9.68-1.36,19.69-1.84,29.46q-.75,15.24-1.4,30.49c-.87,19.85-2.78,40.23-.34,60,.49,4,6.63,5.75,7.71,1Z"/><path d="M34.29,48.13c31.61,7,64,2.4,95.25-4.24,31.85-6.76,62.76-18.09,93.39-29,9-3.2,5.15-17.7-4-14.46-29.9,10.61-59.84,20.65-90.61,28.43-30.5,7.71-61.67,10.42-93,11.29-4.41.12-5.68,6.92-1.08,7.94Z"/><path d="M236.27,275.7c-.33-16.83-.19-33.6-1-50.44q-1.3-25.72-2.46-51.48-2.29-50.5-2.92-101.08-.36-29.25-.15-58.5c.06-9.66-14.94-9.67-15,0-.46,68.36.81,136.93,5.75,205.13,1.41,19.39,4.05,38.39,6.72,57.6.73,5.22,9.19,3.9,9.1-1.23Z"/><path d="M65,125l-.9-43.75-.23-10.94c0-1.82-.09-3.64-.11-5.46,0-.37-.12-1.2.12-1.54s.89-.28,1.31-.3c7.25-.34,14.51-.54,21.76-.81l24.72-.93c2.56-.1,2.57-4.1,0-4q-23,.85-46,1.72a6.75,6.75,0,0,0-4.24,1.12,5.41,5.41,0,0,0-1.69,4.36c0,3.77.15,7.55.23,11.31l.48,23.37L61,125c.05,2.57,4.05,2.58,4,0Z"/><path d="M61.33,127.31l26.53-.24L101,127l6.7-.07a38.57,38.57,0,0,0,6.36-.17c4.46-.8,3.77-6.2,3.86-9.58q.18-6.72.21-13.45.06-13.2-.47-26.4c-.19-5-.21-10-.79-14.94A5,5,0,0,0,114,58.5c-1.94-.87-3.53.38-3.76,2.35a2,2,0,0,0,2,2,2.05,2.05,0,0,0,2-2l-.09.47-.72.72-.92.14s-.08,0-.09,0,.43.56.38.45a6,6,0,0,1,.19,2q.18,3,.33,6c.2,3.82.35,7.64.47,11.45q.36,11.46.29,22.92,0,6-.19,12a44.86,44.86,0,0,1-.17,5.19c-.07.41-.07.55-.4.71-.71.35-2.16.07-2.94.08l-22.81.21-26.28.23c-2.57,0-2.58,4,0,4Z"/><path d="M27.28,148.83a8.68,8.68,0,0,0,.4,9,12.46,12.46,0,0,0,8.25,5.41c3.88.83,7.94.6,11.88.6H61.06l52.49,0H143.3c2.58,0,2.58-4,0-4l-99,0c-3.71,0-8,.18-11.18-2-2.18-1.44-3.85-4.58-2.4-7,1.32-2.22-2.14-4.24-3.45-2Z"/><path d="M143,163.24l.2-51.13.2-51.12.11-28.93c0-2.58-4-2.58-4,0l-.2,51.12-.2,51.13L139,163.24c0,2.57,4,2.57,4,0Z"/><path d="M109.79,166l-1.27,54.58a2,2,0,0,0,2,2l61.48.06c2.57,0,2.58-4,0-4l-61.48-.06,2,2L113.79,166c.06-2.57-3.94-2.57-4,0Z"/><path d="M173.38,217.91Q172,180,171.7,142.1t.53-75.57q.47-21.33,1.27-42.64c.1-2.57-3.9-2.57-4,0q-1.44,37.89-1.78,75.81t.44,75.58q.43,21.32,1.22,42.63c.1,2.57,4.1,2.58,4,0Z"/><path d="M8,180.22a78.15,78.15,0,0,1,21.46,2.72l-1.4-2.46a121.89,121.89,0,0,0-3.62,34.29,2,2,0,0,0,2,2l16-.89c2.53-.14,5.16-.09,7.67-.48a4.23,4.23,0,0,0,3.69-4.25c.16-2.57,0-5.2,0-7.78v-23.6l0-17.9c0-2.57-4-2.58-4,0l0,29.33v17.89c0,.62,0,1.26,0,1.87,0,.14,0,.36-.05.48s.22-.1-.06,0a12.15,12.15,0,0,1-2.77.21l-3.74.21-16.69.93,2,2A117.68,117.68,0,0,1,32,181.54a2,2,0,0,0-1.4-2.46A82.73,82.73,0,0,0,8,176.22c-2.58,0-2.58,4,0,4Z"/><path d="M23.23,224.7l-1.47,28.58a2,2,0,0,0,1,1.73A13.36,13.36,0,0,0,31,256.86l-2-2a74,74,0,0,1-1,20.8A2,2,0,0,0,30,278.19l13.77,1,6.89.52a49.83,49.83,0,0,0,6.33.41,4.81,4.81,0,0,0,4.49-2.88c.74-1.84.47-4,.47-6l0-14.15,0-27.79c0-3.58,0-7.93-3.6-9.92s-7.78-.36-11.42.25a76.78,76.78,0,0,1-29.82-1c-2.51-.59-3.58,3.27-1.07,3.85a81.35,81.35,0,0,0,24.59,1.92c4-.32,7.94-1.1,11.91-1.77,1.29-.21,3-.44,4.14.42s1.2,2.48,1.25,3.73c.17,4.14,0,8.31,0,12.46l0,12.9,0,12.9v6.45c0,1,0,1.94,0,2.91,0,.52.09,1.28-.39,1.59s-1.63.1-2.21.06l-3.69-.28-7.14-.53L30,274.19l1.93,2.53A77.45,77.45,0,0,0,33,254.86c-.1-1-.85-2.13-2-2a9.73,9.73,0,0,1-6.26-1.31l1,1.73,1.47-28.58c.13-2.58-3.87-2.57-4,0Z"/><path d="M115.65,290.39c-4.69,1.16-10.84,1.1-14.26-2.88-2.3-2.67-3-7.94.21-10.25,2.06-1.48.13-4.92-2-3.46a6.06,6.06,0,0,1-6.77-.19,7.74,7.74,0,0,1-3.26-7.07c.25-6.79,6.17-11.31,11.5-14.48a2,2,0,0,0,1-1.73,10.84,10.84,0,0,1,19.18-8,2,2,0,0,0,2.82,0,10.81,10.81,0,0,1,19,5.52,2,2,0,0,0,3.35.88,9.21,9.21,0,0,1,16,7.84,2,2,0,0,0,3.66,1.54c-.11.14,0,0,.13,0a1.22,1.22,0,0,1,.54,0,1.6,1.6,0,0,1,.76.37,5.13,5.13,0,0,1,1.37,2.86,42.17,42.17,0,0,1,1.19,8.8,30.55,30.55,0,0,1-.5,8.21c-.25,1-1.72,4.05-3.2,2.56-1.82-1.82-4.65,1-2.83,2.83,2.72,2.73,7.08,1.31,8.87-1.73a13.14,13.14,0,0,0,1.45-5.42,45.82,45.82,0,0,0,.19-6.93,50.33,50.33,0,0,0-.76-6.7,17.47,17.47,0,0,0-1.71-5.71c-1.9-3.32-6.47-4.39-9-1.11l3.65,1.54a13.21,13.21,0,0,0-22.73-11.73l3.34.88a14.77,14.77,0,0,0-25.66-7.28h2.82a14.83,14.83,0,0,0-26,10.79l1-1.73c-6.94,4.13-14.26,10.56-13.45,19.49a11.4,11.4,0,0,0,5.77,9.3,9.89,9.89,0,0,0,10.23-.13l-2-3.46c-5,3.6-5.26,10.9-1.73,15.66,4.28,5.77,12.39,6.38,18.85,4.78,2.5-.62,1.44-4.47-1.06-3.85Z"/><path d="M204.79,272.11c-6.79-.1-14-2-19.07-6.78A16.45,16.45,0,0,1,181,249a11.87,11.87,0,0,1,5.38-7.28l-2-3.46a5.22,5.22,0,0,1-6-.52,6.47,6.47,0,0,1-2.17-6.63c1.37-6.42,7.89-9.12,13.68-10.33l-1.07-3.86c-2.47.61-4.46-1.94-4.62-4.18-.21-2.9,1.4-5.79,3.24-7.91a18.74,18.74,0,0,1,14.79-6.47c2.32.08,2.62-3.26.53-3.93-.36-.12-.39-.26-.44-.7a4,4,0,0,1,.4-2,6.72,6.72,0,0,1,4.18-3.25,11.26,11.26,0,0,1,11.28,2.32c1.86,1.78,4.69-1,2.83-2.83a15.37,15.37,0,0,0-17.23-2.5,9.42,9.42,0,0,0-5.24,6.2c-.64,2.78.26,5.64,3.16,6.57l.53-3.93a22.67,22.67,0,0,0-19.3,9.83c-2.24,3.3-3.66,7.75-2.07,11.61a7.94,7.94,0,0,0,9,5c2.51-.63,1.44-4.39-1.07-3.86-7.83,1.64-16.09,6.24-16.75,15.12a10.16,10.16,0,0,0,4.53,9.31,9.08,9.08,0,0,0,9.77.37c2.15-1.39.22-4.77-2-3.46-6.36,3.72-8.72,11.39-7.63,18.38,1.23,7.9,7.3,13.76,14.45,16.75a36.74,36.74,0,0,0,13.65,2.71c2.58,0,2.58-4,0-4Z"/><path d="M217.34,138.43c-4.26,5.66-11.19,11.93-18.88,10.94-5.55-.72-12-7.23-9-13.05a2,2,0,0,0-1.73-3c-5.49.23-10.72-4.74-10.31-10.34.37-5.26,6-9.68,11.2-8.81a2,2,0,0,0,1.06-3.86,9,9,0,0,1-5.43-6.16A11.67,11.67,0,0,1,185.47,95a19.58,19.58,0,0,1,7.22-7c2.75-1.62,6.46-3,9.28-.81l.48-3.65c-.66.25.63.32.66.31.35-.14-.05.67,0-.08,0-.23-.09-.48,0-.73a4.16,4.16,0,0,1,1.59-2,7.83,7.83,0,0,1,5.68-1.71c4,.4,6.92,4.65,6.2,8.55-.47,2.51,3.38,3.59,3.85,1.06,1.36-7.24-4.51-14.47-12.08-13.56-3.39.41-7,2.29-8.62,5.4-1.36,2.56-.17,8.14,3.77,6.67a2,2,0,0,0,.48-3.66c-5.85-4.47-14.3.52-18.62,4.9-4.79,4.85-7.1,11.85-4.33,18.33a12.73,12.73,0,0,0,7.58,7.21l1.06-3.86c-7.69-1.28-15.53,4.45-16.24,12.32s6.57,15,14.29,14.69l-1.73-3c-3.19,6.24.35,13.21,5.85,16.75,6.23,4,14,2.41,19.78-1.55a39.19,39.19,0,0,0,9.17-9.05,2,2,0,0,0-.72-2.74,2.06,2.06,0,0,0-2.74.72Z"/><path d="M140.69,215.21a400.12,400.12,0,0,1-.79-61.54c.17-2.57-3.83-2.56-4,0a400.12,400.12,0,0,0,.79,61.54,2.05,2.05,0,0,0,2,2,2,2,0,0,0,2-2Z"/><path d="M28.78,327.5q-.66-27,.83-53.91l-1.71.71a34.88,34.88,0,0,0,19.8,10l-.73-1-.34,39.78,1.71-.71-1.58-1.23c-1-.78-2.42.62-1.41,1.42l1.57,1.23a1,1,0,0,0,1.71-.71L49,283.31a1,1,0,0,0-.73-1,33.14,33.14,0,0,1-18.92-9.47,1,1,0,0,0-1.71.71q-1.48,26.93-.83,53.91a1,1,0,0,0,2,0Z"/><path d="M10,283.63a28.94,28.94,0,0,0,19.52-7.19c1-.85-.45-2.26-1.41-1.41A26.87,26.87,0,0,1,10,281.63a1,1,0,0,0,0,2Z"/><path d="M24.76,252a70.88,70.88,0,0,0,24.22.68,1,1,0,0,0,.73-1l-.55-33a1,1,0,0,0-2,0l.55,33,.73-1a68.2,68.2,0,0,1-23.15-.68c-1.25-.26-1.79,1.67-.53,1.93Z"/><path d="M40.4,270.57l5.65.71a1,1,0,0,0,1-1,1,1,0,0,0-1-1l-5.65-.71a1,1,0,0,0-1,1,1,1,0,0,0,1,1Z"/><path d="M37.29,269.89l2.83.71a1,1,0,1,0,.53-1.92L37.82,268a1,1,0,1,0-.53,1.92Z"/><path d="M46.05,272H56.47a1,1,0,0,0,0-2,25.46,25.46,0,0,0-5.16.22,1,1,0,0,0,.53,1.93,23.12,23.12,0,0,1,4.63-.15v-2H46.05a1,1,0,0,0,0,2Z"/><path d="M45.59,213.75q.33-25.44-.16-50.88a1,1,0,0,0-2,0q.49,25.44.16,50.88a1,1,0,0,0,2,0Z"/><path d="M45.26,150.86a660.41,660.41,0,0,1,3.27-73.35q1-10.31,2.4-20.57c.17-1.27-1.84-1.26-2,0a661.79,661.79,0,0,0-5.58,73.21q-.21,10.36-.09,20.71a1,1,0,0,0,2,0Z"/><path d="M43.19,151q32.94,2.07,66,1.88,9.44-.06,18.86-.3c1.28,0,1.29-2,0-2q-33,.84-66-.58-9.42-.41-18.83-1c-1.28-.08-1.28,1.92,0,2Z"/><path d="M129.44,151.53q-3.59-40.27-3.45-80.77,0-11.42.38-22.83a1,1,0,0,0-1.5-.86l-3,1.89c-1.09.68-.08,2.41,1,1.72l3-1.88-1.51-.87q-1.2,40.42,1.34,80.85.71,11.39,1.73,22.75c.11,1.28,2.12,1.29,2,0Z"/><path d="M50.59,56.19A24.06,24.06,0,0,1,51.36,48a1,1,0,0,0-1.93-.53,25.9,25.9,0,0,0-.84,8.72,1,1,0,0,0,1,1,1,1,0,0,0,1-1Z"/><path d="M49.64,45.53A58,58,0,0,1,61.9,59.67c.67,1.1,2.4.09,1.72-1A59.51,59.51,0,0,0,51.05,44.11c-1-.82-2.4.59-1.41,1.42Z"/><path d="M45.72,148.43a99.09,99.09,0,0,0,9.57-12.13q2.15-3.21,4-6.58c.61-1.09,1.2-2.19,1.76-3.31.29-.57.56-1.16.86-1.72.08-.14,1-1.57,1.22-1,.4,1.21,2.33.69,1.92-.53a2.19,2.19,0,0,0-2.25-1.55,3.2,3.2,0,0,0-2.52,1.92c-1.52,2.74-2.86,5.56-4.49,8.25A95.92,95.92,0,0,1,44.31,147c-.87.95.54,2.36,1.41,1.41Z"/><path d="M115.84,124a65.15,65.15,0,0,0,11.42,21c1.79,2.2,3.8,4.23,5,6.83.55,1.16,2.28.15,1.73-1a29.69,29.69,0,0,0-4.51-6.24,63.24,63.24,0,0,1-4.84-6.55,64,64,0,0,1-6.89-14.52c-.4-1.22-2.33-.7-1.93.53Z"/><path d="M116.69,59.88A106.2,106.2,0,0,1,125.87,41c.68-1.1-1.05-2.11-1.72-1a108.41,108.41,0,0,0-9.39,19.32c-.45,1.21,1.49,1.73,1.93.53Z"/><path d="M168.57,159.56a24,24,0,0,0-14.83-3.35l1,1.27c.39-1.57.79-3.13,1.19-4.7.14-.54.18-1,.8-1.06a16.9,16.9,0,0,1,2.36,0l9.92.19a1,1,0,0,0,0-2l-11.42-.22c-1.55,0-2.85.29-3.41,1.89s-.92,3.57-1.37,5.34a1,1,0,0,0,1,1.26,22.17,22.17,0,0,1,13.82,3.08c1.1.67,2.11-1.06,1-1.73Z"/><path d="M169.29,144a18.57,18.57,0,0,0-10-2.67,3.1,3.1,0,0,1-1.81-.26c-.5-.38-.27-1.26-.2-1.78q.42-3,.83-6l-1.47.6a12.81,12.81,0,0,0,12.09.7,1,1,0,0,0,.36-1.36,1,1,0,0,0-1.37-.36,10.75,10.75,0,0,1-10.07-.71,1,1,0,0,0-1.46.6c-.31,2.22-.63,4.44-.92,6.67a3.82,3.82,0,0,0,.33,2.53,2.91,2.91,0,0,0,2,1.29,15.75,15.75,0,0,0,2.57.11,14.82,14.82,0,0,1,2.74.29,16.25,16.25,0,0,1,5.38,2.11c1.1.67,2.11-1.06,1-1.73Z"/><path d="M169,124.27a22.08,22.08,0,0,0-11.88-2.73l1,1,0-4.84-1,1q5.3,0,10.57-.18c1.28,0,1.29-2,0-2q-5.28.23-10.57.18a1,1,0,0,0-1,1l0,4.84a1,1,0,0,0,1,1A20.18,20.18,0,0,1,168,126c1.12.63,2.13-1.1,1-1.72Z"/><path d="M169.88,111.49a13.55,13.55,0,0,0-13.7-6l1.27,1,.69-5.68-1,1a30.08,30.08,0,0,0,11.47-1.31c1.23-.39.7-2.32-.53-1.93a28.52,28.52,0,0,1-10.94,1.24c-.59,0-.94.5-1,1l-.69,5.68c-.09.7.7,1.06,1.27,1a11.5,11.5,0,0,1,11.44,5.12c.68,1.09,2.41.08,1.72-1Z"/><path d="M168.6,92.55a38.22,38.22,0,0,0-12.47-2.3l.71,1.71a7.26,7.26,0,0,0,1.67-6.67l-1.23,1.23a17.55,17.55,0,0,0,13.12-.82c1.16-.55.14-2.27-1-1.72a15.53,15.53,0,0,1-11.58.61,1,1,0,0,0-1.23,1.23,5.13,5.13,0,0,1-1.15,4.72,1,1,0,0,0,.7,1.71,36,36,0,0,1,11.93,2.23c1.21.45,1.74-1.49.54-1.93Z"/><path d="M169.89,79.32a16.78,16.78,0,0,0-14.38-4.81l1.23,1.23A8.77,8.77,0,0,1,168.25,71c1.16.55,2.17-1.18,1-1.73a10.79,10.79,0,0,0-14.45,6c-.28.8.55,1.33,1.23,1.23a14.7,14.7,0,0,1,12.44,4.29c.89.93,2.31-.49,1.41-1.41Z"/><path d="M169.7,62.7a30.74,30.74,0,0,0-11-3.18l1,1.27a6.87,6.87,0,0,0,0-4.75l-1,1.27a25.6,25.6,0,0,0,11.48-1.82,1,1,0,0,0,.7-1.23,1,1,0,0,0-1.23-.7,24.27,24.27,0,0,1-11,1.75,1,1,0,0,0-1,1.26,5.16,5.16,0,0,1,0,3.69c-.25.66.38,1.21,1,1.26a28,28,0,0,1,10,2.91c1.15.58,2.16-1.14,1-1.73Z"/><path d="M169.61,45.91l-7.39-2.41a7.92,7.92,0,0,1-2.72-1.15c-.47-.39-.78-1.14-.24-1.58l-.7.3,6.19-.18a1,1,0,0,0,0-2l-3.2.09-1.71.05a6.67,6.67,0,0,0-1.55.07A2.28,2.28,0,0,0,157,41.21a3.21,3.21,0,0,0,.81,2.26c1.23,1.41,3.43,1.81,5.13,2.36l6.16,2c1.23.4,1.75-1.53.53-1.93Z"/><path d="M167.62,172.73a16,16,0,0,0-13.42-3.61l1.23,1.23A15.72,15.72,0,0,0,156,166l-.74,1a28.94,28.94,0,0,1,10.92-1.47c1.29.07,1.28-1.93,0-2A30.5,30.5,0,0,0,154.75,165a1,1,0,0,0-.73,1,13.36,13.36,0,0,1-.52,3.83,1,1,0,0,0,1.23,1.23,13.87,13.87,0,0,1,11.48,3.1c1,.84,2.39-.57,1.41-1.41Z"/><path d="M167.79,186.87a27.61,27.61,0,0,0-15.56-4.52l.51,1.86a7,7,0,0,0,3.9-5.29l-1,.73,12.65,1.67c.54.07,1-.51,1-1a1,1,0,0,0-1-1l-12.65-1.67a1,1,0,0,0-1,.74,5.17,5.17,0,0,1-3,4.09c-.92.43-.44,1.88.5,1.87a25.72,25.72,0,0,1,14.55,4.24c1.08.71,2.09-1,1-1.72Z"/><path d="M168.82,200.84a26.71,26.71,0,0,0-13-4.69l.26,2,1.82-.42a1,1,0,0,0,.74-1l.19-3.37-1,1a22.75,22.75,0,0,1,10.28,1.19c1.21.43,1.73-1.5.53-1.93a24.08,24.08,0,0,0-10.81-1.26,1,1,0,0,0-1,1l-.19,3.37.73-1-1.82.42c-1.16.27-.8,1.87.27,2a24.82,24.82,0,0,1,12,4.41c1.06.74,2.06-1,1-1.72Z"/><path d="M169.17,214.47a30.31,30.31,0,0,0-13.42-4.73l.86.5a1.56,1.56,0,0,1,.38-2,4,4,0,0,1,3.27-.71c2.38.21,5,.94,7.13-.65a1,1,0,0,0,.35-1.37,1,1,0,0,0-1.36-.36c-1.57,1.19-3.65.68-5.45.45s-4.15-.17-5.53,1.41a4.18,4.18,0,0,0-1,2.31,2.6,2.6,0,0,0,.88,2.33,5,5,0,0,0,1.59.27q.84.12,1.68.3a29.36,29.36,0,0,1,3.06.82,28.1,28.1,0,0,1,6.59,3.2c1.09.7,2.09-1,1-1.73Z"/><path d="M209.83,75.81a135.4,135.4,0,0,1-3.71-22.35,1,1,0,0,0-.74-1c-6.06-1.78-12.13-3.53-18.19-5.34A31.25,31.25,0,0,1,179,43.63a59.54,59.54,0,0,1-6.87-5.5c-1-.85-2.38.56-1.42,1.42A68.68,68.68,0,0,0,177.45,45a31.44,31.44,0,0,0,8.3,3.83c6.34,2,12.74,3.74,19.1,5.6l-.73-1a138.44,138.44,0,0,0,3.78,22.88,1,1,0,0,0,1.93-.53Z"/><path d="M172.37,38.41a35,35,0,0,0,24.17-1.69l-1.37-.36a34.73,34.73,0,0,0,21,14c1.25.27,1.79-1.66.53-1.93a32.66,32.66,0,0,1-19.79-13.1,1,1,0,0,0-1.37-.36,32.87,32.87,0,0,1-22.63,1.49,1,1,0,0,0-.53,1.93Z"/><path d="M204.77,185.26a5.71,5.71,0,0,1-4.52-10.19c.69-.52.6-2-.51-1.86-3.19.31-5.88-2.73-5.66-5.85.23-3.29,3.07-5.81,6-6.75,1-.32.9-2.05-.27-2-1.35.1-1.84-1.69-1.38-2.73.67-1.5,2.56-2.22,4-2.77.77-.3,7.89-3.55,7.95-1.28a1,1,0,0,0,1.5.86,6.87,6.87,0,0,1,9.51,7.29c-.16,1.27,1.85,1.26,2,0a8.76,8.76,0,0,0-12.52-9l1.51.86c-.06-2.21-2.23-2.9-4.13-2.73a12.6,12.6,0,0,0-3.45,1c-1.4.53-2.82,1-4.19,1.63-2.08.91-4.35,2.51-4.33,5,0,2,1.42,4,3.55,3.87l-.27-2c-3.92,1.23-7.5,4.67-7.52,9,0,4,3.53,7.92,7.67,7.51l-.5-1.87a7.71,7.71,0,0,0,6.06,13.85c1.27-.23.73-2.16-.53-1.93Z"/><path d="M200.37,263.48a21.54,21.54,0,0,1-7.26-3c-2.7-2-3.29-5-3.06-8.15A23.41,23.41,0,0,1,198,236.58c.81-.72-.08-1.84-1-1.67-1.74.31-4-.17-4.85-1.84a2.84,2.84,0,0,1,1.23-3.94c1.2-.43.68-2.36-.53-1.93a4.81,4.81,0,0,0-2.67,6.36c1.18,2.86,4.55,3.78,7.35,3.27l-1-1.67a25.46,25.46,0,0,0-8.54,18c-.11,3.34.82,6.46,3.49,8.61,2.4,1.92,5.42,2.85,8.35,3.65a1,1,0,0,0,.53-1.93Z"/><path d="M142,284.67a13.9,13.9,0,0,0,8.72-11.37,13.25,13.25,0,0,0-1-7.32c-.47-1-1.3-2.78-2.73-2.45a1.35,1.35,0,0,0-.06,2.59c1.26.29,1.79-1.64.54-1.93l-.14,0,.6.46q-1.09.5-.66,1.05l.18.3c.12.2.24.41.34.61a8.82,8.82,0,0,1,.49,1.15,10.8,10.8,0,0,1,.56,2.44,12.86,12.86,0,0,1-.57,5.16,11.47,11.47,0,0,1-6.76,7.42c-1.2.43-.68,2.37.53,1.93Z"/><path d="M152.11,255a5.47,5.47,0,0,0-6-2,1,1,0,1,0,.53,1.92,6,6,0,0,1,.61-.15c.23,0-.16,0,0,0l.18,0H148l.18,0c.13,0-.2,0-.06,0s.43.09.64.16l.3.1c.12.05-.17-.08-.05,0l.16.08a4.17,4.17,0,0,1,.54.31l.14.1c.11.08-.18-.15,0,0l.23.21.22.23.09.1c.16.19-.13-.17,0,0a1,1,0,0,0,1.37.36,1,1,0,0,0,.36-1.37Z"/><path d="M107.54,266a6,6,0,0,1-6.7.91,3.07,3.07,0,0,1-.61-.44l-.3-.3-.1-.11c.11.13-.07-.1-.07-.11a3.62,3.62,0,0,1-.2-.33,2.08,2.08,0,0,0-.12-.22s-.08-.22-.1-.29-.08-.27-.11-.41-.08-.4,0-.22a2.34,2.34,0,0,1,0-.38,4.07,4.07,0,0,1,0-.78c0-.2,0-.07,0,0l0-.19c0-.13,0-.26.08-.38s.07-.25.11-.37a1.34,1.34,0,0,0,.07-.18c.06-.17,0,0,0-.06a4.77,4.77,0,0,1,.42-.73c.07-.09,0,0,0,0l.18-.2.3-.29c.12-.1-.12.08,0,0l.19-.13a3.9,3.9,0,0,1,.35-.19c.15-.07-.13,0,0,0l.22-.07.47-.1a1,1,0,0,0,.7-1.23,1,1,0,0,0-1.23-.7c-2.8.42-4.24,3.53-3.91,6.1a5.35,5.35,0,0,0,2,3.65,6.79,6.79,0,0,0,4.53,1.31,8.71,8.71,0,0,0,5.18-2.13,1,1,0,0,0-1.41-1.41Z"/><path d="M129,151.86a8.55,8.55,0,0,1,6.06,1.38l1-1.73-2.36-1.44c-1.1-.68-2.06,1-1,1.72l6.13,4.15c1.07.72,2.08-1,1-1.73l-6.14-4.14-1,1.72,2.35,1.45c1.11.67,2.08-1,1-1.73a10.59,10.59,0,0,0-7.6-1.57,1,1,0,0,0-.7,1.23,1,1,0,0,0,1.23.69Z"/><path d="M171.81,246.71c-6-1.72-12.44-5.93-15.18-11.78a6.1,6.1,0,0,1-.41-4.92,9.86,9.86,0,0,1,2.34-3c1.75-1.75,3.52-3.44,3.76-6h-2l-.1,2c-.06,1.28,1.94,1.28,2,0l.1-2c.06-1.3-1.89-1.26-2,0-.26,2.76-3.39,4.52-4.93,6.57-2,2.68-1.79,5.88-.3,8.76,3.14,6.11,9.73,10.49,16.19,12.34a1,1,0,0,0,.53-1.93Z"/><path d="M48.15,305.1q10.26-.35,20.46-1.45a1,1,0,0,0,1-1q-.8-18.06-1.23-36.13a1,1,0,0,0-1-1l-6.48.41c-1.27.08-1.28,2.08,0,2l6.48-.41-1-1q.44,18.08,1.23,36.13l1-1q-10.2,1.11-20.46,1.45c-1.28,0-1.28,2,0,2Z"/><path d="M35.68,266.31l9.64,4.07c.59.25.85-.72.27-1l-9.65-4.07c-.59-.25-.85.72-.26,1Z"/><path d="M33,260.86,54.9,271.18c.57.28,1.08-.59.5-.86L33.48,260c-.58-.27-1.09.59-.51.87Z"/><path d="M29.39,252.19q14.14,8.19,29.06,15c.58.26,1.09-.6.5-.87q-14.88-6.77-29.06-15a.5.5,0,0,0-.5.87Z"/><path d="M37.79,251.51a53,53,0,0,0,19,10.76c.62.2.88-.77.27-1A51.88,51.88,0,0,1,38.5,250.8c-.48-.42-1.19.28-.71.71Z"/><path d="M46.24,251.53a125.64,125.64,0,0,1,13,8.3c.52.38,1-.49.51-.86a129.67,129.67,0,0,0-13-8.31.5.5,0,0,0-.51.87Z"/><path d="M50.47,247.86,59.3,254c.53.36,1-.5.5-.87L51,247c-.53-.36-1,.5-.5.87Z"/><path d="M49.32,241.24a23.91,23.91,0,0,1,8.16,5.57c.45.46,1.16-.25.71-.71a25.28,25.28,0,0,0-8.61-5.82c-.59-.25-.85.72-.26,1Z"/><path d="M47.46,230.57a28.86,28.86,0,0,1,10.35,9.56c.35.54,1.21,0,.86-.51A29.86,29.86,0,0,0,48,229.71c-.56-.31-1.07.55-.5.86Z"/><path d="M50.06,226.68,57.52,232c.52.37,1-.5.5-.87l-7.45-5.32c-.53-.37-1,.49-.51.87Z"/><path d="M53.61,224l1.76,1.32a.46.46,0,0,0,.38.05.5.5,0,0,0,.3-.23.5.5,0,0,0,.05-.38.57.57,0,0,0-.23-.3l-1.76-1.32a.51.51,0,0,0-.38,0,.47.47,0,0,0-.3.23.5.5,0,0,0,0,.38.57.57,0,0,0,.23.3Z"/><path d="M60.75,218.33q1.56-23.81,1.61-47.69l-.5.5,33.46.14,4.21,0c1.39,0,3.43-.35,3.94,1.34a16.63,16.63,0,0,1,.27,3.87L104,181l.77,16.64.79,16.88a55.78,55.78,0,0,0,.41,7.54c.37,1.91,2,2.26,3.74,2.35,4.21.23,8.31-1.22,12.51-1a7.88,7.88,0,0,1,5.68,2.44c1.21,1.33,2,3,3.22,4.31,1.54,1.68,3.07,1.74,5.24,1.73,1.61,0,2.79.84,4.13,1.6a26.54,26.54,0,0,0,3.53,1.68,27.81,27.81,0,0,0,15.13,1.45c.63-.11.36-1.07-.27-1a26.55,26.55,0,0,1-17.89-3,14.18,14.18,0,0,0-3-1.54,12.37,12.37,0,0,0-3.16-.14,4,4,0,0,1-2.8-1.28c-1.26-1.28-2.06-2.93-3.22-4.3a8.21,8.21,0,0,0-4.42-2.68c-3.9-.91-8,.37-11.88.69a19.88,19.88,0,0,1-3,0,3.19,3.19,0,0,1-2-.59,3.13,3.13,0,0,1-.63-2.33c-.14-2.82-.26-5.63-.39-8.45l-.78-16.63-.78-16.63-.18-4a7.89,7.89,0,0,0-.42-3c-.87-1.85-3.28-1.5-5-1.5l-37.42-.16a.51.51,0,0,0-.5.5q0,23.87-1.61,47.69c0,.64,1,.64,1,0Z"/><path d="M58,221.54a5.85,5.85,0,0,0,1.39-6.94c-.29-.58-1.16-.07-.87.5a4.83,4.83,0,0,1-1.22,5.73c-.5.41.21,1.12.7.71Z"/><path d="M69.59,177.57A5.83,5.83,0,0,1,72,181.33a.51.51,0,0,0,1,0,30.9,30.9,0,0,0,.49-5.76l-1,.13a13.12,13.12,0,0,1,.37,3.85.5.5,0,0,0,.36.48.52.52,0,0,0,.57-.23,10.2,10.2,0,0,1,2.6-2.43c.54-.35,0-1.22-.51-.86a11.72,11.72,0,0,0-3,2.79l.94.25a14,14,0,0,0-.41-4.12.5.5,0,0,0-1,.14,28.87,28.87,0,0,1-.46,5.49h1a6.92,6.92,0,0,0-2.83-4.36c-.53-.37-1,.5-.51.87Z"/><path d="M86.75,195.42a7.07,7.07,0,0,1,4,4.38.5.5,0,0,0,1-.14l.1-4.51-1,.13a8,8,0,0,1,.43,3,.5.5,0,0,0,.85.35,9.73,9.73,0,0,0,2.17-3c.27-.58-.59-1.09-.86-.5a9.37,9.37,0,0,1-2,2.83l.85.35a8.8,8.8,0,0,0-.46-3.3.5.5,0,0,0-1,.14l-.1,4.51,1-.13A8.2,8.2,0,0,0,87,194.45a.5.5,0,1,0-.27,1Z"/><path d="M68.59,216.28a12.07,12.07,0,0,1,4.15,6,.5.5,0,0,0,1-.13l.14-4.21-1,.13.61,3.57c.08.44.7.45.91.12A22.82,22.82,0,0,0,76.61,217c.21-.61-.76-.87-1-.27a21.55,21.55,0,0,1-2.1,4.45l.91.12-.61-3.56c-.1-.58-1-.41-1,.13l-.14,4.21,1-.14a13,13,0,0,0-4.4-6.41.53.53,0,0,0-.71,0,.51.51,0,0,0,0,.71Z"/><path d="M73.49,272.76a7.52,7.52,0,0,1,3.24,4.53.5.5,0,0,0,1-.13l0-3.29-1,.13a4.92,4.92,0,0,0,.93,2.28.5.5,0,0,0,.91-.12l1.74-4.48a.49.49,0,0,0-.34-.61.51.51,0,0,0-.62.35l-1.75,4.48.92-.12a4.35,4.35,0,0,1-.83-2c-.08-.56-1-.41-1,.14l0,3.29,1-.14A8.56,8.56,0,0,0,74,271.89c-.55-.34-1,.52-.51.87Z"/><path d="M71.45,239.43l4.36,4.78a.5.5,0,0,0,.78-.6,4,4,0,0,1-.58-3H75l.93,3a.5.5,0,0,0,1,0L78.15,240c.2-.61-.77-.87-1-.26L76,243.37h1l-.92-3a.51.51,0,0,0-1,0,5,5,0,0,0,.69,3.71l.78-.61-4.35-4.78c-.43-.48-1.14.23-.71.71Z"/><path d="M94.15,229.93a13.14,13.14,0,0,1,3.23,4.1c.3.58,1.15.07.87-.5a3.79,3.79,0,0,1,.08-3.47l-.91-.12.79,3.3a.5.5,0,0,0,1,0,4.74,4.74,0,0,1,1.82-2.57c.52-.37,0-1.24-.51-.87A5.85,5.85,0,0,0,98.21,233h1l-.79-3.31a.5.5,0,0,0-.91-.12,4.83,4.83,0,0,0-.09,4.48l.87-.5a13.94,13.94,0,0,0-3.39-4.31c-.49-.41-1.2.29-.71.71Z"/><path d="M177.39,271a4.89,4.89,0,0,1,2,3.14l1-.27a2.87,2.87,0,0,1,.89-3.33l-.75-.43a16.68,16.68,0,0,0,.4,3.66.5.5,0,0,0,.91.12l2-3.85c.29-.57-.57-1.08-.87-.51l-2,3.85.91.12a15.43,15.43,0,0,1-.36-3.39.5.5,0,0,0-.75-.43,3.87,3.87,0,0,0-1.36,4.46.5.5,0,0,0,1-.27,5.91,5.91,0,0,0-2.45-3.74.5.5,0,0,0-.5.87Z"/><path d="M186,199.06c-.38.84-2.6-2.42-2.79-2.79a11.13,11.13,0,0,1-1.19-4.1,10.89,10.89,0,0,1,2.14-7.72.52.52,0,0,0-.1-.79,10.56,10.56,0,0,1-.86-17.84.5.5,0,0,0-.12-.91c-3.32-1-4.85-4.7-4.48-7.92.46-3.92,3.3-7.09,5.94-9.78a.51.51,0,0,0-.1-.79,5.22,5.22,0,0,1-2-4.44,5.67,5.67,0,0,1,.54-2.32,4.54,4.54,0,0,1,.73-1.11c.16-.19,1.58-1.31,1.61-1.08-.09-.64-1-.37-1,.26l0,.13a.47.47,0,0,0,.34.35.78.78,0,0,0,.59-1.44c-1.26-.56-2.65,1.34-3.13,2.26a6.56,6.56,0,0,0,1.8,8.26l-.1-.79c-3,3-6.19,6.74-6.29,11.23-.08,3.48,1.77,7.12,5.27,8.14l-.12-.91a11.56,11.56,0,0,0,.85,19.57l-.1-.79a12.14,12.14,0,0,0-2.1,10.39,11.64,11.64,0,0,0,2.38,4.7c.63.74,2.43,2.27,3.14.73.26-.58-.6-1.09-.87-.5Z"/><path d="M184,88.54c-2.3,1-3.3-2.08-3.66-3.7a41.86,41.86,0,0,1-1-5.68c-.27-3.35.38-6.87,3-9.2a.51.51,0,0,0-.22-.84c-3.47-.5-4.65-4.64-4.78-7.64-.15-3.71,1.51-7.7,5.39-8.7a.5.5,0,0,0,0-1c-1.43-.6-1-2.48.11-3.15A4.08,4.08,0,0,1,186,48.4c.71.18,6.52,2.37,5.38,3.44-.47.44.24,1.15.71.71,2.73-2.57-5.79-5.31-7.36-5.34A3.77,3.77,0,0,0,181,49.44a2.65,2.65,0,0,0,1.49,3.34v-1c-4.31,1.11-6.31,5.51-6.13,9.66.15,3.41,1.58,8,5.51,8.61l-.22-.84c-3.36,3-3.68,7.72-3,11.93.42,2.75,1.32,10.22,5.9,8.22.59-.26.08-1.12-.51-.86Z"/><path d="M193.16,51.72a4.47,4.47,0,0,1,6.69,2.5c.14.62,1.11.36,1-.27a5.46,5.46,0,0,0-8.15-3.09c-.52.37,0,1.24.5.86Z"/><path d="M191.11,77.13c0-.07.09-.15.07-.17s-.16,0-.19,0a.74.74,0,0,1-.42-.17,3.79,3.79,0,0,1-.84-1.15,4.4,4.4,0,0,1-.4-2.83,4.34,4.34,0,0,1,4.1-3.36l-.5-.5c0-.08-.05,0-.08,0-.58-.27-1.09.59-.5.86a1.09,1.09,0,0,0,1.58-.89.5.5,0,0,0-.5-.5,5.38,5.38,0,0,0-4.86,3.41,5.24,5.24,0,0,0-.14,3.16,4.79,4.79,0,0,0,1.65,2.65c.72.5,2.25.38,2-.81-.14-.62-1.1-.36-1,.27Z"/><path d="M194,62.27a4.46,4.46,0,0,1,.18-3.49h-.86l.6,1.25a.52.52,0,0,0,.69.18.51.51,0,0,0,.18-.69l-.61-1.25a.5.5,0,0,0-.86,0,5.51,5.51,0,0,0-.29,4.27.52.52,0,0,0,.62.34.49.49,0,0,0,.35-.61Z"/><path d="M185.73,122.31a5.47,5.47,0,0,0,3.24,4.3,8.7,8.7,0,0,0,6.82-.26l-.62-.62c-.75,2.33-1.52,4.78-1.11,7.25a6.22,6.22,0,0,0,3.14,4.64c.58.29,1.08-.57.51-.86-4.07-2.06-2.67-7.37-1.58-10.76.11-.34-.26-.76-.61-.61a8.12,8.12,0,0,1-5.77.46,4.51,4.51,0,0,1-3-3.54c-.07-.63-1.07-.64-1,0Z"/><path d="M209.37,173.43c-1.07,1.09-2.89-.06-3.29-1.26-.61-1.9,1.2-3.73,2.65-4.64a.5.5,0,0,0,.18-.68l-1.48-2c-.38-.51-1.25,0-.87.51l1.48,2,.18-.68c-1.91,1.2-4,3.65-3,6.07.76,1.76,3.31,2.94,4.83,1.4.46-.46-.25-1.17-.7-.71Z"/><path d="M199.28,104.28c-.74-.25-.84-1.16-.8-1.83a5.71,5.71,0,0,1,1-2.59A8.59,8.59,0,0,1,204,96.22l-.62-.35a1,1,0,0,1-.54,1.32c-.58.28-.07,1.14.51.86a2,2,0,0,0,1-2.44.51.51,0,0,0-.62-.35,9.64,9.64,0,0,0-5.45,4.56c-.84,1.59-1.6,4.64.7,5.42.61.21.87-.76.27-1Z"/><path d="M114.24,120.49l10.53,8.41c.5.4,1.21-.3.71-.71l-10.54-8.41c-.5-.39-1.21.31-.7.71Z"/><path d="M116.11,117.48l8.9,6c.53.36,1-.5.5-.86l-8.9-6c-.53-.37-1,.5-.5.86Z"/><path d="M116.67,113.15a20.44,20.44,0,0,1,7.72,5.1c.44.47,1.15-.24.71-.7a21.38,21.38,0,0,0-8.17-5.36c-.6-.23-.86.74-.26,1Z"/><path d="M117.26,109.13a15.58,15.58,0,0,1,6.43,1.57c.57.28,1.08-.58.5-.87a17,17,0,0,0-6.93-1.7.5.5,0,0,0,0,1Z"/><path d="M117.7,104.75h6.17a.5.5,0,0,0,0-1H117.7a.5.5,0,0,0,0,1Z"/><path d="M117.4,98.12l7.45-1.47c.63-.12.37-1.09-.26-1l-7.46,1.47c-.63.12-.36,1.09.27,1Z"/><path d="M118.32,92.67a23.21,23.21,0,0,1,6.12-2.9.5.5,0,0,0-.26-1,24.15,24.15,0,0,0-6.37,3c-.53.35,0,1.22.51.86Z"/><path d="M116.64,88.39A77,77,0,0,0,126,80.81c.46-.45-.24-1.15-.71-.71a74,74,0,0,1-9.13,7.43c-.52.36,0,1.23.51.86Z"/><path d="M116.48,80.11l10.26-11.28c.43-.48-.27-1.19-.7-.71L115.77,79.4c-.43.48.27,1.19.71.71Z"/><path d="M115.75,71.48A59.08,59.08,0,0,0,126,54.32c.23-.6-.73-.86-1-.26a58,58,0,0,1-10,16.72c-.42.48.29,1.19.71.7Z"/><path d="M116.79,61.33l7.68-10.87c.37-.53-.5-1-.87-.5l-7.67,10.87c-.37.52.49,1,.86.5Z"/><path d="M69.34,124.73q-6.75,10.9-13,22.11c-.32.56.55,1.07.86.51q6.27-11.21,13-22.12c.34-.55-.53-1-.87-.5Z"/><path d="M74.63,125.29a217.58,217.58,0,0,1-9.42,23.57c-.27.58.59,1.08.87.5a218.3,218.3,0,0,0,9.51-23.81c.21-.61-.76-.87-1-.26Z"/><path d="M80.27,125.26l-5.72,22.45a.5.5,0,0,0,1,.27l5.72-22.46c.16-.62-.81-.89-1-.26Z"/><path d="M86.15,125.81a65.34,65.34,0,0,1-4,19.74c-.22.61.74.87,1,.27a66.17,66.17,0,0,0,4.05-20c0-.64-1-.64-1,0Z"/><path d="M91.06,125.81a130.85,130.85,0,0,1-.63,19.79c-.07.64.93.63,1,0a130.85,130.85,0,0,0,.63-19.79c0-.64-1-.65-1,0Z"/><path d="M96.59,125.38c.46,7,.56,14.09.32,21.13a.5.5,0,0,0,1,0c.24-7,.14-14.1-.32-21.13,0-.64-1-.65-1,0Z"/><path d="M103.81,125.48l3.12,19.87c.1.64,1.06.37,1-.26l-3.11-19.88c-.1-.63-1.07-.36-1,.27Z"/><path d="M108.1,125.31c1.43,1.53,1.57,3.7,1.83,5.68s.62,4,1.08,6a66.17,66.17,0,0,0,4,12c.27.58,1.13.08.87-.51a64.38,64.38,0,0,1-4.23-13.05c-.43-2.07-.69-4.16-1-6.25a8.14,8.14,0,0,0-1.89-4.57c-.44-.47-1.14.24-.7.71Z"/><path d="M60.93,66.1a30,30,0,0,0-9-9.39c-.54-.35-1,.51-.5.87a28.86,28.86,0,0,1,8.67,9,.5.5,0,0,0,.86-.51Z"/><path d="M60.28,70.35l-7.93-3.52c-.58-.26-1.09.6-.51.86l7.93,3.53c.58.25,1.09-.61.51-.87Z"/><path d="M62.78,75.28,52.24,73.79c-.63-.09-.91.87-.27,1l10.54,1.49c.63.09.9-.87.27-1Z"/><path d="M64.11,84A48.19,48.19,0,0,0,53.42,82.6a.5.5,0,0,0,0,1,47.62,47.62,0,0,1,10.43,1.34c.62.15.89-.81.26-1Z"/><path d="M59.68,93.36a25.7,25.7,0,0,0-11.31-.06c-.63.13-.37,1.1.26,1a24.36,24.36,0,0,1,10.78.07c.63.14.89-.82.27-1Z"/><path d="M60.75,98.83a90.67,90.67,0,0,1-11.43,2.29c-.63.09-.36,1,.27,1A90.55,90.55,0,0,0,61,99.79a.5.5,0,0,0-.26-1Z"/><path d="M61.8,103.81a100.22,100.22,0,0,1-13,9.33.5.5,0,0,0,.5.86,100.87,100.87,0,0,0,13.2-9.48c.49-.42-.22-1.12-.71-.71Z"/><path d="M62.2,110.38c-4.53,5.55-7.4,13.34-14.28,16.49-.59.27-.08,1.13.5.87,7-3.21,9.89-11,14.49-16.66.4-.49-.3-1.2-.71-.7Z"/><path d="M60.42,121.58A140.63,140.63,0,0,1,53,134.4c-.35.54.51,1,.86.5a138.33,138.33,0,0,0,7.4-12.82c.29-.57-.57-1.08-.86-.5Z"/><path d="M73.64,59.16l.54,1.16c.21.47.93.22.93-.25l0-7.62a2.55,2.55,0,0,0-.22-1.37.78.78,0,0,0-1-.31c-.7.42-.26,1.64.57,1.25.59-.27.08-1.14-.5-.87.73.25.77.41.11.47a.35.35,0,0,1,0,.14,2.08,2.08,0,0,0,0,.43v1.15l0,2.21,0,4.52.93-.25-.54-1.17c-.27-.58-1.13-.07-.86.51Z"/><path d="M75.66,60.91C80.88,59,88,57.43,90.86,52.13l-.79.1a14,14,0,0,0,7.48,3.56c1.5.3,3,.49,4.52.72.72.12,1.44.24,2.16.38s1.8.63,2.55.3h.5l-.12-.09c-.51-.39-1,.47-.5.86l.12.09a.5.5,0,0,0,.5,0,.71.71,0,0,0,.42-.93c-.21-.54-1-.66-1.44-.78a44.71,44.71,0,0,0-5.38-1c-3.61-.54-7.42-1.1-10.1-3.81a.5.5,0,0,0-.78.1,12.33,12.33,0,0,1-6,5c-2.79,1.3-5.76,2.25-8.65,3.32-.6.22-.34,1.19.26,1Z"/><path d="M91.38,53A5.35,5.35,0,0,1,92,48.94c.34-.54-.53-1-.86-.5a6.36,6.36,0,0,0-.77,4.85.5.5,0,0,0,1-.26Z"/><path d="M108.24,60.13A45.39,45.39,0,0,1,108,46.61c.08-.63-.92-.63-1,0a45.81,45.81,0,0,0,.3,13.78c.11.64,1.07.37,1-.26Z"/><path d="M61.43,49l4.63,10.22c.27.58,1.13.07.87-.51L62.29,48.48c-.26-.58-1.12-.08-.86.51Z"/><path d="M70.53,52.73l.88,7.05a.53.53,0,0,0,.5.5c.25,0,.54-.24.5-.5l-.88-7.05a.5.5,0,1,0-1,0Z"/><path d="M111.92,47a32,32,0,0,1-1.28,10.88c-.19.61.78.88,1,.26A32.54,32.54,0,0,0,112.92,47c0-.64-1-.65-1,0Z"/><path d="M118.54,47.75l-1.32,3.53a.5.5,0,0,0,1,.26L119.51,48a.52.52,0,0,0-.35-.62.53.53,0,0,0-.62.35Z"/><path d="M136,152.25l4-97.8L140.62,41c0-1,.56-3.26-.67-3.85a1,1,0,0,0-1.48,1.18c.19.61,1.16.35,1-.27a3,3,0,0,1,.25,1.45L139.62,41l-.11,2.5-.24,6-.46,11-.91,22.21-1.84,44.66-1,25c0,.64,1,.64,1,0Z"/><path d="M141.28,104q-2.37-14.07-4.75-28.15c-.81-4.79-1.62-9.58-2.11-14.42a95.07,95.07,0,0,1-.27-14.12c.07-1.29.13-2.58.15-3.87,0-.66.14-1.61-.32-2.17a.91.91,0,0,0-1.57.92c.25.58,1.11.08.86-.51a5.75,5.75,0,0,1,0,1.76c0,.48,0,1,0,1.45,0,1-.09,2.1-.14,3.15-.1,2-.18,4-.15,6.07a101.83,101.83,0,0,0,1,11.83c1.11,8.2,2.64,16.34,4,24.49l2.34,13.84c.11.63,1.07.36,1-.27Z"/><path d="M196,38a79.13,79.13,0,0,0,4.12-13.11c.24-1.09.46-2.18.65-3.28a14.82,14.82,0,0,0,.44-2.94c0-.5-.24-1.09-.82-1.09a.79.79,0,0,0-.77.88.54.54,0,0,0,.25.43l.12.05c.58.26,1.09-.6.51-.86l-.12-.06.24.44a.49.49,0,0,0-.46.68c0,.25-.07.49-.11.74L199.9,21c-.15.85-.31,1.71-.48,2.56-.33,1.57-.7,3.14-1.12,4.7a79.13,79.13,0,0,1-3.23,9.49c-.25.6.72.86,1,.27Z"/><path d="M203.82,54.51a72.89,72.89,0,0,0,12.51-4.8l-.68-.68c-.15.2-.45,0-.54-.11-.3-.57-1.16-.07-.86.5a1.34,1.34,0,0,0,2.26.11c.33-.43-.29-.88-.68-.68a72.14,72.14,0,0,1-12.28,4.7.5.5,0,0,0,.27,1Z"/><path d="M182.3,47.37c-.06,1.25,1.33,1.65,2.29,1.22a12.61,12.61,0,0,0,3.3-2.57,20.6,20.6,0,0,0,4.53-6.82l-.62.35a20.28,20.28,0,0,1,4.89,2.64l-.18-.69A18.23,18.23,0,0,1,191,48.6l.68.69a.94.94,0,0,1,.88-.4.5.5,0,0,0,0-1,2,2,0,0,0-1.74.89c-.28.4.29,1,.68.69A19.23,19.23,0,0,0,197.37,42a.53.53,0,0,0-.18-.69,21.57,21.57,0,0,0-5.12-2.74.52.52,0,0,0-.62.35,18.86,18.86,0,0,1-3.2,5.23,18.22,18.22,0,0,1-2.06,2.06c-.4.34-.81.67-1.23,1s-1.7,1.14-1.66.18c0-.64-1-.64-1,0Z"/><path d="M208.07,53.17A124.18,124.18,0,0,0,210.6,78c.13.63,1.09.37,1-.26a123.11,123.11,0,0,1-2.49-24.52.5.5,0,0,0-1,0Z"/><path d="M221.62,250.28l-10.44-.37a11.36,11.36,0,0,1-2.74-.12c-1-.33-.88-1.83-1-2.78-.17-1.71-.3-3.42-.4-5.13s-.17-3.43-.2-5.15c0-.81,0-1.63,0-2.45a11.27,11.27,0,0,1,.06-2.6c.41-1.56,3.7-1.43,5-1.61l5.45-.76c.28,0,.39-.38.35-.62l-6.56-36.91a.5.5,0,0,0-.49-.37,57,57,0,0,1-9.41-.42c-.63-.09-.63.91,0,1a57,57,0,0,0,9.41.42l-.48-.37L216.75,229l.35-.61-6.68.93c-1.32.18-3.49.05-4.26,1.41a3.49,3.49,0,0,0-.31,1.63c0,1.14,0,2.29,0,3.43q0,3.19.23,6.37c.13,2.12.3,4.24.54,6.35.14,1.27.37,2.13,1.76,2.33a62.55,62.55,0,0,0,6.28.23l7,.25c.64,0,.64-1,0-1Z"/><path d="M213.38,246.76A81.64,81.64,0,0,1,212,234.69a.5.5,0,0,0-1,0L211,240.5c0,1.47-.33,3.36.8,4.51a4.46,4.46,0,0,0,3.38,1c1.86,0,3.74-.36,5.59-.56.25,0,.53-.21.5-.5l-.6-6c-.18-1.81-.23-3.7-.57-5.48a2.15,2.15,0,0,0-2.7-1.67,36.73,36.73,0,0,0-5.1,1.5c-.61.19-.35,1.16.27,1,1.43-.45,2.85-.92,4.3-1.33a2.37,2.37,0,0,1,1.83,0c.6.4.52,1.55.58,2.18l1,9.84.5-.5c-1.64.18-3.28.39-4.92.53-1.07.09-2.54.16-3.34-.69a2.8,2.8,0,0,1-.53-2c0-.82,0-1.64,0-2.47l0-5.12h-1A82.35,82.35,0,0,0,212.42,247c.11.63,1.08.37,1-.26Z"/></g></g></svg>