<svg xmlns="http://www.w3.org/2000/svg" viewBox="0 0 274.4 310.84"><g id="Layer_2" data-name="Layer 2"><g id="Layer_7_147" data-name="Layer 7,147"><path d="M2.65,1.92C-1.23,9.32.12,18.45.73,26.48c.68,9,2,18,3.46,27,3,17.75,7.1,35.29,11,52.85,8,35.54,13.24,71,13.82,107.49a457.69,457.69,0,0,1-3.36,62.8c-.49,4,3.8,7.5,7.5,7.5,4.46,0,7-3.46,7.5-7.5a441,441,0,0,0-.16-110.11C35.9,130.78,26.11,96.25,19.06,61q-3-14.83-4.91-29.82C12.92,21.85,14,10.41,9.43,1.92a4,4,0,0,0-6.78,0Z"/><path d="M7.47,13.62a21.82,21.82,0,0,1,4.64.08l-3.5-1.44c5.31,4.88,13.25,6.83,20.14,8.9Q40.92,24.84,53.24,28,77.4,34.12,102,38.22a600.39,600.39,0,0,0,99.44,8.45,491.78,491.78,0,0,0,56.39-2.9c4-.48,7.5-3.11,7.5-7.5,0-3.84-3.44-7.8-7.5-7.5-33.89,2.45-67.59,3.46-101.52,1a566.68,566.68,0,0,1-100-16.53c-9.42-2.42-18.7-5.36-28.09-7.89-4-1.07-8.76-3.2-12.94-3-1.84.07-3,1-4.65,1.59A40.41,40.41,0,0,0,5.34,5.76C1.71,7.58,3.3,14,7.47,13.62Z"/><path d="M253.82,38.31c.08,8.25,1.54,16.37,2.41,24.55.9,8.53,1.69,17.08,2.15,25.65.91,16.86,1.17,33.8.73,50.68-.88,34.09-4.82,68-9.92,101.73-2.9,19.12-6.14,38.18-9.41,57.24-1.62,9.44,12.83,13.5,14.46,4,5.95-34.67,11.8-69.38,15.68-104.36,3.83-34.56,6.2-69.81,2.94-104.52-1.77-18.86-3.44-39.59-11.07-57.12-1.75-4-8-1.81-8,2.16Z"/><path d="M29.37,280.7l.08.38a5.45,5.45,0,0,0,5.2,3.95c8.73.12,17.51,1,26.26,1.17s17.48.26,26.23.73c16.83.9,33.63,2.61,50.32,4.94s33.47,5.29,50.09,8.62q12.48,2.5,24.9,5.17c8.55,1.82,18.26,5.36,27,5.17,7.12-.15,11.25-11,3.91-14.41-8.09-3.71-17.94-4.45-26.67-6.13q-12.49-2.42-25-4.68c-17.65-3.18-35.34-6.18-53.11-8.6-17.39-2.37-34.85-4.23-52.38-5.13-8.72-.45-17.51-.87-26.23-.58-9.06.3-17.84,1.87-26.72,3.15-2.46.35-3.76,3-4,5.19a2.55,2.55,0,0,0,.11,1.06Z"/><path d="M133.16,277.11l4.4-76.69,1.25-21.92c.15-2.57-3.85-2.56-4,0l-4.39,76.7-1.26,21.91c-.15,2.57,3.85,2.56,4,0Z"/><path d="M139.54,173.31c.3.28-.19,0,.31,0,.7,0,1.36-.13,2.07-.11,2.14.09,4.27.22,6.41.33q5.92.33,11.83.71Q172,175,183.8,176q23.63,2,47.13,5.11,13.45,1.75,26.85,3.85a2.06,2.06,0,0,0,2.46-1.39,2,2,0,0,0-1.4-2.46q-25.51-4-51.2-6.78T156.22,170c-4.77-.3-9.53-.59-14.3-.79-2-.08-4.3.15-5.57,2a3.81,3.81,0,0,0,.36,5c1.9,1.73,4.74-1.09,2.83-2.83Z"/><path d="M141.65,107.35l74.64,6.14,20.9,1.72a2,2,0,0,0,2-2,452.58,452.58,0,0,0,2.13-53.73c-.1-5.1-.3-10.2-.57-15.29-.14-2.56-4.14-2.58-4,0a452.87,452.87,0,0,1-.3,53.77q-.49,7.64-1.26,15.25l2-2-74.64-6.14-20.9-1.72c-2.56-.21-2.55,3.79,0,4Z"/><path d="M142.43,104.1Q144,74.55,145.14,45c.09-2.57-3.91-2.57-4,0Q140,74.55,138.43,104.1c-.14,2.58,3.86,2.57,4,0Z"/><path d="M19.79,86.9l50,10.15,6.34,1.29a24.44,24.44,0,0,0,5.54,1,3.66,3.66,0,0,0,3.65-3c.38-2.07.47-4.23.69-6.33L88.7,64.61l3-28.78c.18-1.65-1.79-2.31-3-1.73L85.9,35.45c-2.32,1.1-.29,4.55,2,3.45l2.84-1.35-3-1.72L82.65,84l-.63,6-.31,3-.16,1.49-.11,1c-.09.27,0,.23.35-.12-.33-.1-1.06-.06-1.41-.13l-2.93-.6-6.34-1.29L47.69,88.49,20.85,83c-2.51-.51-3.58,3.34-1.06,3.86Z"/><path d="M13.76,36.68a172.88,172.88,0,0,0,30,7.78c2.57.43,5.16.79,7.75,1.11a54.3,54.3,0,0,0,7.52.68c2.49-.06,4.08-1.22,5.84-2.83,1.6-1.47,3.6-1.8,5.71-1.87,2.76-.08,5.53,0,8.29.05l4.38,0c.81,0,1.63,0,2.44,0,.16,0,.55.07.69,0-.07,0-.27-.25-.27-.29V40.29l0,.13L87,39.23l.15-.09a2,2,0,0,0-1.39,2.46A2,2,0,0,0,88.25,43c2.85-.45,1.81-4,0-4.92-1.18-.62-2.66-.41-3.94-.43l-4.63,0c-2.81,0-5.62-.11-8.43-.07a14.85,14.85,0,0,0-7,1.48,14.55,14.55,0,0,0-2.66,2.1,3.9,3.9,0,0,1-3.27,1.11c-2.78-.13-5.57-.51-8.32-.87q-8.37-1.11-16.6-3.06a172.87,172.87,0,0,1-18.5-5.48c-2.43-.86-3.47,3-1.06,3.86Z"/><path d="M93.18,274.09Q96.26,243.6,98.47,213T102,152q.2-4.33.37-8.68c.1-2.52.5-5.24,0-7.73a5.09,5.09,0,0,0-3.95-4.27,4,4,0,0,0-4.81,2.75c-.65,2.49,3.21,3.56,3.86,1.06,0,.19-.34,0,.15.09s.74.68.86,1.24c.4,2,0,4.33-.08,6.37q-.28,7.06-.61,14.13-.66,14.15-1.5,28.26-1.71,28.5-4.14,57-1.38,15.94-3,31.88a2,2,0,0,0,4,0Z"/><path d="M25.89,112.42Q53.81,118.92,81,128q7.68,2.58,15.29,5.37c2.42.88,3.47-3,1.07-3.86q-26.92-9.84-54.7-17.1-7.84-2-15.74-3.87c-2.5-.59-3.57,3.27-1.06,3.85Z"/><path d="M105.27,137.5a771.48,771.48,0,0,0,9.52-77.7q.78-11.05,1.24-22.12c.1-2.41-3.16-2.51-3.93-.53L111,40a2,2,0,0,0,1.4,2.46,2,2,0,0,0,2.46-1.4L116,38.21,112,37.68a760.25,760.25,0,0,1-7.16,77.12q-1.58,10.85-3.45,21.63a2,2,0,0,0,1.39,2.46,2,2,0,0,0,2.46-1.39Z"/><path d="M138.82,108.68a157.55,157.55,0,0,1-1,26.77c-.14,1.13,1,1.92,2,2l92.54,7.38,12.93,1,6.22.49,3.23.26c.33,0,.72,0,1.05.08a4,4,0,0,1,.57.16.75.75,0,0,1-.41-.67l.27-1a1.19,1.19,0,0,1,1.82-.32l.52.88,0-.1v1.06l0-.11-.51.88.12-.12c1.81-1.84-1-4.67-2.83-2.83a2.3,2.3,0,0,0,1,3.88,2.73,2.73,0,0,0,3.52-1.68c.49-1.8-1-3.3-2.6-3.77a29.49,29.49,0,0,0-6-.62l-27.11-2.16-54-4.31-30.35-2.42,2,2a157.55,157.55,0,0,0,1-26.77c-.12-2.56-4.12-2.58-4,0Z"/><path d="M143.63,107.16v-2.27a1.5,1.5,0,0,0-.18-.78,1.47,1.47,0,0,0-.41-.64,1.5,1.5,0,0,0-.64-.41,1.38,1.38,0,0,0-.77-.17,2,2,0,0,0-1.42.58,2.07,2.07,0,0,0-.58,1.42v2.27a1.45,1.45,0,0,0,.17.77,1.6,1.6,0,0,0,.41.65,2.26,2.26,0,0,0,1.42.58,2,2,0,0,0,1.41-.58,2.11,2.11,0,0,0,.59-1.42Z"/><path d="M237.26,294.55c1.47-16.49,2.31-33,2.79-49.58s.61-33.29.66-49.94l0-7c0-1.95.42-4.43-.35-6.28a2.74,2.74,0,0,0-4.47-1.12,2.5,2.5,0,0,0,.94,4.27c2.49.66,3.56-3.2,1.07-3.85l-.19-.05.89.51-.11-.11.51.89-.73,1.47h-1.06c-1.12-.23-.22-.68-.49,0a5.3,5.3,0,0,0,0,1.49v2.48c0,1.83,0,3.65,0,5.47,0,3.64,0,7.29-.05,10.93q-.06,10.93-.21,21.87c-.22,14.57-.64,29.14-1.43,43.69q-.67,12.39-1.77,24.77a2,2,0,0,0,4,0Z"/><path d="M60.82,215.7a8.16,8.16,0,0,1-9.06-11.86,1,1,0,0,0-1.36-1.37c-3,1.45-6.57-1-7.34-3.95-1-3.72,1.72-7.37,4.77-9.18a1,1,0,0,0,.2-1.57c-2.81-3-3.66-8.85.09-11.51,2.77-2,7.68-1.15,8.85,2.3a1,1,0,0,0,1.83.24c1.63-2.33,4.93-2.89,7.59-2.88s6.76,1.77,5.4,5.18l1.93.53c1.31-3.46,6.06-4.68,9.15-2.94,3.61,2,4.51,7.08,2.89,10.65a1,1,0,0,0,1.13,1.47c3.75-.8,5.9,3.74,5.3,6.82a12.93,12.93,0,0,1-2.33,5c-1,1.42-2.37,2.64-3.18,4.19a21.9,21.9,0,0,0-1.4,4.93,24.24,24.24,0,0,1-1.89,5.21c-1.66,3.18-4.58,6-8.32,6.36s-7.57-2.74-6.71-6.64c.28-1.25-1.65-1.79-1.92-.53-.85,3.8,1.69,7.53,5.27,8.77,4,1.4,8.52-.67,11.2-3.7a18.48,18.48,0,0,0,3.31-5.76c.84-2.21,1.11-4.53,1.84-6.76s2.66-3.73,3.89-5.58a13.35,13.35,0,0,0,2.34-6.19c.37-4.33-3.3-9-7.93-8l1.13,1.47c2.09-4.62,1-11.06-3.88-13.53-4.29-2.19-10.09-.3-11.82,4.28-.45,1.21,1.46,1.71,1.93.53a5.15,5.15,0,0,0-.88-5A7.4,7.4,0,0,0,67.65,174c-3.76-.4-8.3.56-10.58,3.8l1.83.24c-1.58-4.66-7.85-6.19-11.79-3.5-4.89,3.34-4.21,10.73-.49,14.65l.2-1.57c-4,2.36-7.21,7.33-5.49,12,1.44,4,6.16,6.46,10.08,4.54L50,202.83a10.16,10.16,0,0,0,11.31,14.8c1.26-.28.73-2.21-.53-1.93Z"/><path d="M185.78,146.4l-1.29,8.8c-.21,1.43-.43,2.87-.64,4.3-.16,1.1-.34,2.28.53,3.15a4.28,4.28,0,0,0,3,.81l4.33.14,9,.3a1,1,0,0,0,1-1.27,66.22,66.22,0,0,1-1.46-19,1,1,0,0,0-1-1l-14.41.92c-1.28.08-1.29,2.08,0,2l14.41-.92-1-1a68.53,68.53,0,0,0,1.53,19.58l1-1.27-7.53-.25-3.76-.12-1.89-.06a4.6,4.6,0,0,1-1.57-.13c-.76-.35-.07-2.49,0-3.18l.52-3.55,1.13-7.68c.19-1.26-1.74-1.8-1.93-.53Z"/><path d="M136.07,168.62l-.36-33.84-1.71.7,8,7.83a43.54,43.54,0,0,1,3.52,3.54c1.38,1.72.67,3.44-.22,5.21-3.25,6.39-6.83,12.63-10.66,18.69-.69,1.09,1,2.1,1.73,1q3.15-5,6.07-10.15a82.26,82.26,0,0,0,5.44-10.4,5.3,5.3,0,0,0-.12-4.6,18.25,18.25,0,0,0-3.48-3.86l-8.82-8.68a1,1,0,0,0-1.71.71l.36,33.84a1,1,0,0,0,2,0Z"/><path d="M248.8,141.3a724.05,724.05,0,0,0,3.4-75.8q-.09-10.66-.48-21.33c-.05-1.28-2.05-1.29-2,0A724.64,724.64,0,0,1,248.56,120q-.72,10.63-1.76,21.26c-.12,1.28,1.88,1.27,2,0Z"/><path d="M141.62,120.35l81.8,4.63,23,1.3c1.28.07,1.28-1.93,0-2l-81.8-4.63-22.95-1.3c-1.28-.07-1.28,1.93,0,2Z"/><path d="M111.57,275.79c3.6-30.67,5.44-61.5,7.07-92.33,1.62-30.65,3-61.33,5.81-91.92C126,74.25,128,57,130.74,39.83c.2-1.25-1.72-1.8-1.93-.53-4.83,30.56-7.44,61.42-9.34,92.28s-3.12,61.69-5.23,92.5c-1.18,17.27-2.65,34.52-4.67,51.71-.15,1.28,1.85,1.26,2,0Z"/><path d="M22.22,32.94a2.12,2.12,0,0,1-.64-2.44A2.32,2.32,0,0,1,23,28.92a4.15,4.15,0,0,1,.7-.2A4.16,4.16,0,0,1,27,29.83a5,5,0,0,1,1.49,3,5.22,5.22,0,0,1-1,3.85,1,1,0,0,0,.36,1.37,1,1,0,0,0,1.36-.36,7.22,7.22,0,0,0-.67-9.19,6.17,6.17,0,0,0-4.87-1.78,4.55,4.55,0,0,0-3.88,2.89,4.19,4.19,0,0,0,1,4.75,1,1,0,0,0,1.41,0,1,1,0,0,0,0-1.42Z"/><path d="M35.64,39.88c-1.43-2.38-1.58-6.18.7-8.12s6.24-.1,6.67,2.82a6.54,6.54,0,0,1-.67,3.15,7.87,7.87,0,0,0-.67,3.54,1,1,0,0,0,1,1,1,1,0,0,0,1-1,8,8,0,0,1,.79-3.52,7.2,7.2,0,0,0,.53-3.3,6.48,6.48,0,0,0-3.55-4.85,5.79,5.79,0,0,0-5.75.16,6.91,6.91,0,0,0-2.94,4.69,9.52,9.52,0,0,0,1.17,6.44,1,1,0,0,0,1.72-1Z"/><path d="M48.94,42l.61-6.62-.49.86.33-.19s.37-.17.18-.1a4.68,4.68,0,0,1,.73-.21s.41-.06.2,0l.37,0a4.78,4.78,0,0,1,.76,0c-.21,0,.16,0,.2,0l.37.1.36.12c.11,0,.12,0,0,0l.17.08a4.3,4.3,0,0,1,.65.39c-.15-.11.13.11.16.14l.24.23c.07.08.15.16.22.25-.1-.13.11.17.12.2a2.79,2.79,0,0,1,.19.33l.09.18c0-.09,0-.08,0,0a4.83,4.83,0,0,1,.22.74s.06.42,0,.22c0,.13,0,.26,0,.39a2.54,2.54,0,0,1,0,.39s0,.42,0,.22a4.94,4.94,0,0,1-.18.76s-.13.38-.06.21a3.78,3.78,0,0,1-.17.35c-.07.12-.13.23-.2.33l-.12.16c.06-.07.05-.06,0,0A1,1,0,0,0,54,43a1,1,0,0,0,1.41,0A5.81,5.81,0,0,0,55,35.12a5.88,5.88,0,0,0-3.81-1.49,5.61,5.61,0,0,0-2,.32,6.4,6.4,0,0,0-.92.43,1.17,1.17,0,0,0-.62.69,5.15,5.15,0,0,0-.09.88l-.56,6a1,1,0,0,0,1,1,1,1,0,0,0,1-1Z"/><path d="M183.11,134.92c-.68-3.42,1.57-6.74,4.46-8.38,3.31-1.88,7.38-2,11.07-1.62,3.47.33,6.74,1.57,7.81,5.18.88,3,.38,6.26-.18,9.25-.24,1.26,1.69,1.8,1.92.54,1-5.39,1.69-12.84-4.23-15.69-3-1.43-6.74-1.58-10-1.38a15.57,15.57,0,0,0-9.29,3.32,9.87,9.87,0,0,0-3.49,9.32c.25,1.26,2.18.72,1.92-.54Z"/><path d="M129.64,258.13a60.1,60.1,0,0,0-5.14-29.63c-1-2.29-2.55-4.54-3-7.06-.5-2.9,1.47-4.79,3.15-6.85a60.83,60.83,0,0,0,7.71-12.14,61.56,61.56,0,0,0,5-15.49c.23-1.25-1.7-1.79-1.93-.53a59.25,59.25,0,0,1-12.35,26.91c-1.39,1.7-3.06,3.36-3.54,5.58-.52,2.44.42,4.83,1.45,7a68.65,68.65,0,0,1,5.4,14.53,58.37,58.37,0,0,1,1.22,17.68c-.11,1.28,1.9,1.27,2,0Z"/><path d="M172.15,104.79c-4.57-.64-8-4.26-9.66-8.41-2-4.89-1.68-10.31-1.55-15.47L161.39,64a33.55,33.55,0,0,1,.54-7.22c.67-2.66,2.45-4,5-4.8a47.74,47.74,0,0,1,15.8-2.09,41,41,0,0,1,8.19,1,5.41,5.41,0,0,1,4.33,5c.56,4.49-1.29,9.36-3.92,12.94a26.48,26.48,0,0,1-4.82,4.7c-1.41,1.15-2.41,2.62-1.76,4.48A11.69,11.69,0,0,0,186.59,81a32.36,32.36,0,0,1,2.06,3.25,33.57,33.57,0,0,1,3.34,23.6c-.14.62.83.89,1,.26a34.9,34.9,0,0,0-6.11-28.42c-.83-1.13-1.83-2.52-1-3.94a9.81,9.81,0,0,1,2.69-2.48,21,21,0,0,0,4.63-5.32c2.27-3.68,3.83-8.58,3-12.92a6.11,6.11,0,0,0-3.51-4.63A24.54,24.54,0,0,0,185,49a49.87,49.87,0,0,0-16.9,1.56c-2.18.59-4.52,1.27-5.93,3.17a10.85,10.85,0,0,0-1.68,5.83c-.37,6-.34,12.11-.5,18.14-.17,6.19-.83,12.85,1.43,18.76,1.73,4.52,5.45,8.58,10.42,9.28.63.08.9-.88.27-1Z"/><path d="M203.87,110.18c0-5.78-1.85-11.72-.32-17.42,1.25-4.69,4.5-8.55,5.73-13.24a11.59,11.59,0,0,0,0-6.13,30.7,30.7,0,0,0-3-6.27,14.23,14.23,0,0,1-2.11-7.59,31.44,31.44,0,0,1,.66-4.51,5,5,0,0,1,.53-1.6c.56-.91,1.69-.91,2.64-1,3-.21,6.07-.4,9.11-.6a55.25,55.25,0,0,1,7.93-.2,11.9,11.9,0,0,1,7.29,2.83,12.42,12.42,0,0,1,3.35,5.68c1.36,4.51,1.15,9.34,1.11,14A114.83,114.83,0,0,1,235.65,92c-.5,3-1,6.38-2.5,9.08-1.68,3.06-5,3.71-8.13,4.46a137.27,137.27,0,0,1-20.45,3.33c-.63.06-.64,1.06,0,1a138.12,138.12,0,0,0,19.3-3c2.67-.61,5.8-1.06,8-2.76,2-1.51,2.87-3.93,3.5-6.26a80.53,80.53,0,0,0,2.34-18.69c.16-5.35.48-10.9-.37-16.21-.7-4.38-2.6-8.8-6.77-10.89-5.05-2.53-11.42-1.33-16.81-1l-4.55.3c-1.22.08-2.81-.06-3.88.66A3.61,3.61,0,0,0,204,54.27a28.45,28.45,0,0,0-.73,4.32,13.76,13.76,0,0,0,1.47,7.69c1.14,2.34,2.67,4.51,3.45,7,1.92,6.12-2.66,11.47-4.84,16.83-2.67,6.55-.53,13.27-.52,20.05a.5.5,0,0,0,1,0Z"/><path d="M180.45,285.45,181.8,202l.38-23.5a.5.5,0,0,0-1,0L179.83,262l-.38,23.49a.5.5,0,0,0,1,0Z"/><path d="M189.18,287l1.31-82.2.38-23.24a.5.5,0,0,0-1,0l-1.32,82.2L188.18,287a.5.5,0,0,0,1,0Z"/><path d="M190.81,181.37l24,3.45,11.77,1.69,5.89.84,3.19.46a3.56,3.56,0,0,1,2.43.85c.41.5,1.12-.21.71-.71-.94-1.15-2.76-1.09-4.1-1.28l-6.13-.88L216.09,184l-25-3.6c-.63-.09-.9.88-.27,1Z"/><path d="M134.8,176l25.26-.73c4.05-.12,8.1-.27,12.15-.35,3.77-.07,7.66.07,11,2.07l.12-.92a10.73,10.73,0,0,0-6.3,4.82.5.5,0,0,0,.86.51,9.69,9.69,0,0,1,5.71-4.36.5.5,0,0,0,.12-.91c-3.09-1.87-6.68-2.23-10.22-2.22-4.14,0-8.28.21-12.42.33L134.8,175c-.64,0-.64,1,0,1Z"/><path d="M111.59,128.45a4.08,4.08,0,0,1,1.41-2.16,4.23,4.23,0,0,0,1.41-2.21,3,3,0,0,0-.58-2.26,1.43,1.43,0,0,0-1.94-.38c-.54.35,0,1.21.5.87a.56.56,0,0,1,.27-.11.29.29,0,0,1,.21.07,1.32,1.32,0,0,1,.41.56,1.89,1.89,0,0,1,0,1.64,13.41,13.41,0,0,1-1.58,1.79,3.91,3.91,0,0,0-1.07,2.19.5.5,0,0,0,.5.5.51.51,0,0,0,.5-.5Z"/><path d="M111.64,136.19a3.56,3.56,0,0,1,2-1.38.5.5,0,0,0,.29-.74A8.46,8.46,0,0,0,110.8,131c-.56-.32-1.07.55-.51.86a7.55,7.55,0,0,1,2.77,2.73l.3-.74a4.71,4.71,0,0,0-2.59,1.85.5.5,0,0,0,.18.68.51.51,0,0,0,.69-.18Z"/><path d="M110.22,142.33l2.17-3a.5.5,0,0,0,0-.5,3.61,3.61,0,0,0-3.39-2,.5.5,0,0,0-.5.5.51.51,0,0,0,.5.5,2.62,2.62,0,0,1,2.52,1.47v-.5l-2.17,3a.51.51,0,0,0,.18.69.53.53,0,0,0,.69-.18Z"/><path d="M108.76,150.39a3.32,3.32,0,0,1,2.74-2.77.51.51,0,0,0,.3-.74,7.43,7.43,0,0,0-4.19-3,.5.5,0,0,0-.27,1,6.38,6.38,0,0,1,3.6,2.54l.3-.74a4.32,4.32,0,0,0-3.48,3.74.5.5,0,0,0,.5.5.51.51,0,0,0,.5-.5Z"/><path d="M106.92,158.82l4.16-5.62a.51.51,0,0,0-.18-.69L107,150.66c-.58-.27-1.09.59-.51.87l3.89,1.85-.18-.69-4.16,5.63c-.38.51.48,1,.86.5Z"/><path d="M106.36,168.24a22,22,0,0,1,4.32-3.22.5.5,0,0,0,0-.86l-4.45-2.83c-.54-.34-1,.52-.5.87l4.45,2.82v-.86a22.7,22.7,0,0,0-4.53,3.37c-.47.45.24,1.16.71.71Z"/><path d="M107,175.61a5.91,5.91,0,0,1,3.42-2.7.51.51,0,0,0,.22-.84,5.89,5.89,0,0,0-5.55-1.59c-.63.15-.36,1.11.26,1a4.86,4.86,0,0,1,4.58,1.34l.22-.84a7,7,0,0,0-4,3.16.5.5,0,0,0,.87.51Z"/><path d="M107.23,185.17a4.71,4.71,0,0,1,3.2-5.39.5.5,0,0,0,0-1l-5.86-2.29c-.6-.24-.86.73-.27,1l5.86,2.29v-1a5.74,5.74,0,0,0-3.9,6.62c.14.62,1.11.36,1-.27Z"/><path d="M104.45,192.63l5.23-.15a.51.51,0,0,0,.36-.86l-4.15-4.39a7.67,7.67,0,0,0-1-.94c-.24-.19-.53-.32-.77-.52-.08-.07-.11-.15-.18-.22s0-.1,0,0l0,.14a.21.21,0,0,1-.12.11s0,0,0,0h.08s.12,0,0,0,0,0,0,0c-.21-.38-.2-.61,0-.71-.61.21-.35,1.17.26,1a.63.63,0,0,0-.07-1.24c-.6-.16-1.31.16-1.18.88s.9,1,1.43,1.46a15.34,15.34,0,0,1,1.11,1.17l1.16,1.23,2.63,2.78.35-.85-5.23.15c-.64,0-.64,1,0,1Z"/><path d="M103.69,200.13a4.76,4.76,0,0,0,4.25-3.18.49.49,0,0,0-.23-.56L104,194.72a.52.52,0,0,0-.69.18.5.5,0,0,0,.18.68l3.76,1.67-.23-.56a3.75,3.75,0,0,1-3.29,2.44.5.5,0,0,0,0,1Z"/><path d="M103.31,206.33a2.14,2.14,0,0,1-1.42.89l.49.83,3.08-2.57a.52.52,0,0,0,.08-.61,4.36,4.36,0,0,0-3.4-2.17.51.51,0,0,0-.5.5.51.51,0,0,0,.5.5,3.35,3.35,0,0,1,2.54,1.67l.07-.6-3.08,2.58a.5.5,0,0,0-.07.6.51.51,0,0,0,.56.23,3.07,3.07,0,0,0,2-1.35.49.49,0,0,0-.17-.68.52.52,0,0,0-.69.18Z"/><path d="M102.82,213.81a3.68,3.68,0,0,0,4.32-2.41.49.49,0,0,0-.13-.49,9.32,9.32,0,0,0-4.74-2.31.51.51,0,0,0-.61.35.49.49,0,0,0,.35.61,8.52,8.52,0,0,1,4.3,2.06l-.13-.49a2.67,2.67,0,0,1-3.1,1.71.5.5,0,0,0-.26,1Z"/><path d="M99.08,225.46c1.3,1,3.13,0,3.81-1.24a3.19,3.19,0,0,0-1.4-4.1,5,5,0,0,0-2.68-.79.5.5,0,0,0,0,1,3.65,3.65,0,0,1,3.11,1.61,1.83,1.83,0,0,1,.2,1.57,2.26,2.26,0,0,1-1,1.16,1.28,1.28,0,0,1-1.49-.07.5.5,0,0,0-.69.17.53.53,0,0,0,.18.69Z"/><path d="M100.65,234.72a3.42,3.42,0,0,0,3.15-2.89,3.29,3.29,0,0,0-4.69-3.27.5.5,0,0,0-.18.68.51.51,0,0,0,.69.18,2.39,2.39,0,0,1,2.72.66,2.11,2.11,0,0,1-.1,2.82,2.26,2.26,0,0,1-1.59.82c-.64,0-.64,1,0,1Z"/><path d="M99.18,242.94a10.53,10.53,0,0,1,3.14-4.4.51.51,0,0,0-.1-.78l-2.78-2.12a.5.5,0,1,0-.5.86l2.77,2.12-.1-.78a11.38,11.38,0,0,0-3.39,4.84c-.23.6.74.86,1,.26Z"/><path d="M99.47,253.7a6.24,6.24,0,0,1,2.8-4.36.49.49,0,0,0,.18-.68l-3.11-4.28c-.37-.52-1.24,0-.86.5l3.11,4.28.18-.68a7.13,7.13,0,0,0-3.26,5c-.1.63.87.9,1,.26Z"/><path d="M98.45,271.58a86.33,86.33,0,0,1-1.87-10.35,9.37,9.37,0,0,1-.19-2.3c.16-1.1,1.39-.77,2.2-.69l5.39.49-.48-.63a23.45,23.45,0,0,0,.42,15.36c.23.59,1.19.33,1-.27a22.65,22.65,0,0,1-.42-14.83.5.5,0,0,0-.48-.63c-2.13-.19-4.27-.48-6.4-.58a2.07,2.07,0,0,0-1.82.62,2.71,2.71,0,0,0-.34,2,85.21,85.21,0,0,0,2.07,12.1c.15.63,1.11.36,1-.26Z"/><path d="M168.44,114l.07,3.67a.53.53,0,0,0,.37.48,4.49,4.49,0,0,0,2.94,0,.66.66,0,0,0,.49-.58c.07-.26.13-.52.19-.79a7.89,7.89,0,0,0,.18-1.53,3.73,3.73,0,0,0-.85-2.51,2.57,2.57,0,0,0-2.2-.94.52.52,0,0,0-.5.5c0,.24.23.54.5.5a1.85,1.85,0,0,1,1.87,1.29,5.69,5.69,0,0,1-.21,3.41l.35-.35a3.64,3.64,0,0,1-2.5.05l.37.48-.07-3.67a.5.5,0,0,0-1,0Z"/><path d="M174.51,114.75l.08,3.74a.53.53,0,0,0,.37.48,2.92,2.92,0,0,0,3.41-1.52c.86-1.53.38-3.39-.07-5a.51.51,0,0,0-.48-.37L175,112c-.65,0-.64,1,0,1l2.81.14-.48-.36c.35,1.24.84,2.8.24,4a2,2,0,0,1-2.35,1.21l.36.48-.08-3.74c0-.64-1-.65-1,0Z"/><path d="M180,114.81a9.28,9.28,0,0,1,.64,4.39.51.51,0,0,0,.37.49,3.66,3.66,0,0,0,4.45-2,3.32,3.32,0,0,0-1.82-4.34,3.44,3.44,0,0,0-2.94,0,.5.5,0,0,0-.18.68.51.51,0,0,0,.69.18,2.66,2.66,0,0,1,3.23,1.13,2.32,2.32,0,0,1-1.08,3.19,2.4,2.4,0,0,1-2.09.16l.37.48a10,10,0,0,0-.67-4.66.52.52,0,0,0-.62-.35.51.51,0,0,0-.35.62Z"/><path d="M186.65,116.26l.08,2.45c0,.4,0,.8.05,1.2s.42.54.75.66a3.81,3.81,0,0,0,3-.35,3.67,3.67,0,0,0,1.87-2.49,3.57,3.57,0,0,0-1.09-3.11,3.74,3.74,0,0,0-3.58-1,.5.5,0,0,0,.27,1,2.87,2.87,0,0,1,3.33,1.91,2.55,2.55,0,0,1-1.73,3.09,2.59,2.59,0,0,1-2.11-.07l.25.43-.13-3.65c0-.64-1-.64-1,0Z"/><path d="M193.58,115.51l-.35,4.53a.52.52,0,0,0,.36.49,3.94,3.94,0,0,0,4.63-1.82,3.59,3.59,0,0,0-1.38-4.76,3.69,3.69,0,0,0-3-.47c-.62.19-.35,1.15.26,1a2.94,2.94,0,0,1,3.4,1.68,2.79,2.79,0,0,1-3.61,3.44l.37.48.35-4.53c0-.64-1-.63-1,0Z"/><path d="M200.3,114.75l.1,4.43a.5.5,0,0,0,.5.5l3.56,0a.5.5,0,0,0,.43-.25,4.55,4.55,0,0,0-4.1-6.17c-.64,0-.64,1,0,1a3.55,3.55,0,0,1,3.23,4.66l.44-.24-3.56,0,.5.5-.1-4.43a.5.5,0,0,0-1,0Z"/><path d="M208.1,116.16l-.88,5.13a.53.53,0,0,0,.23.57,3.83,3.83,0,0,0,4.45-1.07,3.55,3.55,0,0,0-.2-4.64,3.66,3.66,0,0,0-2.55-1.25c-.64,0-.64,1,0,1A2.66,2.66,0,1,1,208,121l.23.57.88-5.13a.5.5,0,1,0-1-.27Z"/><path d="M214.91,117.08a9.07,9.07,0,0,1,.64,4.43.51.51,0,0,0,.5.5l3.12.06a.53.53,0,0,0,.49-.37,5,5,0,0,0-4.44-6c-.64,0-.64,1,0,1a3.92,3.92,0,0,1,3.47,4.74l.48-.36-3.12-.06.5.5a9.63,9.63,0,0,0-.68-4.69.51.51,0,0,0-.61-.35.49.49,0,0,0-.35.61Z"/><path d="M222.1,117l-.23,2.5-.11,1.27a1.3,1.3,0,0,0,0,.65,1,1,0,0,0,.31.36,2.87,2.87,0,0,0,2.88.38,3.1,3.1,0,0,0,2-2.19,3.05,3.05,0,0,0-1.24-3,3.5,3.5,0,0,0-3.61-.47.51.51,0,0,0-.18.68.52.52,0,0,0,.69.18,2.2,2.2,0,0,1,.45-.14l.12,0h.33l.26,0h.08l.13,0a3.45,3.45,0,0,1,.52.16c-.08,0,.08,0,.07,0a.31.31,0,0,1,.1,0l.25.14.18.13.19.16.18.18.1.12,0,0a2.4,2.4,0,0,1,.27.46c0-.08,0,.07,0,.07a.56.56,0,0,1,0,.12,1.14,1.14,0,0,1,.06.25c0,.09,0-.12,0,0a.53.53,0,0,0,0,.13c0,.1,0,.19,0,.28s0-.09,0,.06l0,.11a1.41,1.41,0,0,1-.06.22c0,.09,0-.1,0,0a.54.54,0,0,1,0,.11,2.39,2.39,0,0,1-.13.21s-.09.13,0,.05l-.07.09-.16.17-.18.16,0,0-.14.09a2.36,2.36,0,0,1-.83.36l-.12,0h0l-.28,0h-.27c-.15,0,.09,0,0,0l-.13,0a1.36,1.36,0,0,1-.79-.46l.14.35.39-4.23a.5.5,0,1,0-1,0Z"/><path d="M229.89,118.54l.1,4.61a.53.53,0,0,0,.5.5,3.57,3.57,0,0,0,3.5-2.82,3.33,3.33,0,0,0-2.17-3.69,3.29,3.29,0,0,0-2.43,0,.51.51,0,0,0-.35.61.49.49,0,0,0,.61.35,2.57,2.57,0,0,1,2.92.79,2.25,2.25,0,0,1-.28,3,2.41,2.41,0,0,1-1.8.73l.5.5-.1-4.61c0-.64-1-.64-1,0Z"/><path d="M235.79,118.68c-1.37,1.85.57,4.93,2.86,4.14a3,3,0,0,0,2-2.68,2.79,2.79,0,0,0-1.9-2.52,7.6,7.6,0,0,0-3.73-.27.51.51,0,0,0-.5.5.5.5,0,0,0,.5.5,8.46,8.46,0,0,1,2.75,0,2.27,2.27,0,0,1,1.78,1.23,1.79,1.79,0,0,1-.77,2.07,1.39,1.39,0,0,1-1.92-.27,1.77,1.77,0,0,1-.16-2.21.5.5,0,1,0-.87-.51Z"/><path d="M250.88,121.37a16.48,16.48,0,0,0,2.42-.29,6.08,6.08,0,0,0,2.34-.7c.62-.51.38-1.74.12-2.39a3.78,3.78,0,0,0-5-2.14l.75.44,0-4.35-.75.43c1.75.83,5.25,1.69,5.6-1.21.39-3.34-3.65-3.77-6-3.6l.48.36a4.78,4.78,0,0,1-.22-2.77c.42-1.28,1.8-.77,2.83-1a4,4,0,0,0,2.88-3.19c.52-3.14-3.29-5.08-5.79-3.46l.76.43c-.21-1.61-.36-3.63.55-5.08,1.07-1.71,3.46-.65,4.56-2.27a3.1,3.1,0,0,0-.4-3.61c-1.2-1.38-3.21-1.51-4.91-1.59-.64,0-.64,1,0,1,1.18.07,1.33-1.11,1.48-2a3.2,3.2,0,0,1,.18-.93c.32-.63,1-.49,1.62-.53a1.93,1.93,0,0,0,1.57-.71,2.87,2.87,0,0,0,0-3.29c-1.06-1.48-3.15-1.58-4.79-1.62l.35.85a3.6,3.6,0,0,0,.62-4.86l-.3.74a16.61,16.61,0,0,1,4.75-.66.46.46,0,0,0,.43-.24c2-3.95-1.95-9-6.26-8l.27,1c2.59-1,5.91-3.84,4.63-7-.86-2.16-4-3.59-5.77-1.66l.84.49.92-4.6-.84.22a2.66,2.66,0,1,0,3.15-4c-.58-.27-1.08.59-.5.86a1.64,1.64,0,1,1-1.94,2.47.51.51,0,0,0-.84.23l-.92,4.59c-.09.46.48.88.84.49,1.39-1.51,3.91,0,4.26,1.73.5,2.5-2.1,4.47-4.1,5.29a.5.5,0,0,0,.27,1c2.39-.55,4.67,1.28,5.35,3.51a4.31,4.31,0,0,1,.2,1.51c-.05.8-.13,1.1-.89,1.25-1.38.27-2.73.28-4.11.68a.51.51,0,0,0-.3.74,2.64,2.64,0,0,1-.47,3.65c-.35.29-.05.84.36.85,1.35,0,3.51,0,4.14,1.52a1.76,1.76,0,0,1-.13,1.72c-.5.66-1.31.21-2,.3a1.68,1.68,0,0,0-1.36,1.24c-.15.4-.19,2.35-.73,2.32v1c1.69.08,4.25.22,4.67,2.29.49,2.4-2.48,1.7-3.8,2.62-2,1.39-1.95,4.49-1.67,6.64,0,.35.4.67.75.44a2.87,2.87,0,0,1,4.19,1.22c.76,2-1.17,3.63-3,3.64-2.89,0-3,2.74-2.35,5a.51.51,0,0,0,.48.37c1.7-.13,4.35-.28,4.91,1.82.71,2.66-2.84,1.69-4,1.12a.52.52,0,0,0-.76.44l0,4.35a.51.51,0,0,0,.75.43,2.79,2.79,0,0,1,3.56,1.72c.36,1,0,1.21-.92,1.46a13.82,13.82,0,0,1-3.06.47c-.64,0-.65,1,0,1Z"/><path d="M246.07,247.17a2.45,2.45,0,0,1-2.69-1.88,2.18,2.18,0,0,1,1.62-2.44,2,2,0,0,1,2.58,1.13,2.4,2.4,0,0,1-.6,2.79s-.09.06-.13.08l-.13.07-.21.07-.15,0a1.75,1.75,0,0,1-.82-.1,1.42,1.42,0,0,1-1-1.07.5.5,0,0,0-1,.27,2.63,2.63,0,0,0,3.42,1.76,3.36,3.36,0,0,0,.43-5.63,3,3,0,0,0-2.22-.48,3.33,3.33,0,0,0-2.88,3.14,3.44,3.44,0,0,0,4,3.23.51.51,0,0,0,.35-.62.51.51,0,0,0-.61-.35Z"/><path d="M247,236.72a2.14,2.14,0,0,1-3-3l-.18.18a3.8,3.8,0,0,1,4.13.45l-.07-.61-1.21,2.12a.5.5,0,0,0,.87.51l1.2-2.12a.52.52,0,0,0-.08-.61,4.87,4.87,0,0,0-4.17-1,2.32,2.32,0,0,0-1.39.67,3.19,3.19,0,0,0-.42,2.62,3,3,0,0,0,1.84,2.05,3.17,3.17,0,0,0,3-.38.5.5,0,0,0,.18-.68.49.49,0,0,0-.68-.18Z"/><path d="M247.57,227.52c-1.49,1.34-4.39-.05-4.34-2l-.25.43a3.78,3.78,0,0,1,4.31-.12l-.23-.3a1.82,1.82,0,0,1-1.46,1.94.5.5,0,1,0,0,1,2.83,2.83,0,0,0,2.47-2.72,1.24,1.24,0,0,0-.07-.54,1,1,0,0,0-.47-.41,4.63,4.63,0,0,0-1-.41,5.06,5.06,0,0,0-2.12-.12,4.58,4.58,0,0,0-1.9.77.64.64,0,0,0-.31.57,2.28,2.28,0,0,0,0,.45,3,3,0,0,0,.22.77,4,4,0,0,0,2.35,2,3.44,3.44,0,0,0,3.44-.6c.48-.43-.23-1.13-.71-.71Z"/><path d="M248.7,220.84a3.55,3.55,0,0,1-3,.69,2.47,2.47,0,0,1-1.27-.75,2.13,2.13,0,0,1-.41-1.06,2.51,2.51,0,0,1,.18-1.18,2.11,2.11,0,0,1,.16-.3,1,1,0,0,1,.16-.21,1.37,1.37,0,0,1,.44-.36.58.58,0,0,1,.22-.08,1.52,1.52,0,0,1,.27-.06h.18l.14,0,.06,0a1.3,1.3,0,0,1,.26.14l0,0h0l.12.11.09.1,0,0a2.68,2.68,0,0,1,.18.28l.07.14s0,0,0,0l0,.09a1.91,1.91,0,0,1,.1.34s0,.16,0,.07,0,.1,0,.16v.15s0,.16,0,.11,0,0,0,0a.43.43,0,0,1,0,.11c0,.05,0,.09,0,.14s0,0,0,.06l-.08.12s0,.06,0,0,0,0,0,0l-.1.09-.09.06-.09,0a.5.5,0,0,0-.35.61.5.5,0,0,0,.61.35,2,2,0,0,0,1.07-2.71,2.3,2.3,0,0,0-2.53-1.71,2.79,2.79,0,0,0-2.08,2.6,3,3,0,0,0,1.74,3.08,4.46,4.46,0,0,0,4.6-.72.49.49,0,0,0,0-.7.5.5,0,0,0-.7,0Z"/><path d="M247.43,211.46a1.81,1.81,0,0,1-2.42.27,1.53,1.53,0,0,1-.41-.5,2.11,2.11,0,0,1-.21-.67c0,.07,0-.07,0-.09a1.62,1.62,0,0,1,0-.22,1.55,1.55,0,0,1,0-.31,1.5,1.5,0,0,1,.3-.64l-.18.18a3.25,3.25,0,0,1,3.59.75l-.08-.61a2.08,2.08,0,0,1-1.72.95.5.5,0,0,0,0,1,3.1,3.1,0,0,0,2.59-1.45.5.5,0,0,0-.08-.6,4.14,4.14,0,0,0-2.31-1.22,4.39,4.39,0,0,0-1.4,0,2,2,0,0,0-1.31.56,2.76,2.76,0,0,0,1.63,4.16,2.82,2.82,0,0,0,2.69-.84.5.5,0,0,0,0-.7.5.5,0,0,0-.71,0Z"/><path d="M247.75,202.32c0,.09-.09.18-.14.27a.35.35,0,0,0-.06.08l-.09.1-.09.09s-.13.1-.05,0l-.26.16-.12.05c.09,0,0,0-.07,0a1.32,1.32,0,0,1-.3.08l-.13,0h-.07a1.71,1.71,0,0,1-.32,0l-.28,0h-.08l-.16,0-.29-.08-.16-.06-.06,0c-.08,0,.06,0,0,0a2.12,2.12,0,0,1-.9-.68s0,0,0,0l-.05-.07a1.19,1.19,0,0,1-.09-.15l-.07-.14h0l0-.08c0-.05,0-.1,0-.15s0-.19,0-.09a2.28,2.28,0,0,1,0-.37l-.36.48,3.88-.68-.56-.23a1.26,1.26,0,0,1-.06,1.47.51.51,0,0,0,0,.7.5.5,0,0,0,.71,0,2.26,2.26,0,0,0,.21-2.67.52.52,0,0,0-.56-.23l-3.89.67a.52.52,0,0,0-.37.49c-.18,2.28,2.74,3.49,4.58,2.68a2.36,2.36,0,0,0,1.21-1.18.51.51,0,0,0-.18-.68.49.49,0,0,0-.68.18Z"/><path d="M247,195.11a1.27,1.27,0,0,1-.38.51s0,0,0,0l-.07.06-.12.07a.85.85,0,0,1-.26.12,2.32,2.32,0,0,1-1.22.07l-.33-.09-.18-.06-.11,0-.29-.17s-.16-.12-.09-.06l-.11-.09a1.44,1.44,0,0,1-.37-.48,1.53,1.53,0,0,1-.13-.53l-.15.35c.85-.82,2.21-1.58,3.35-.86a1.52,1.52,0,0,1,.76,1.21.67.67,0,0,1-.18.5,1.16,1.16,0,0,1-.43.32,1.28,1.28,0,0,1-.34.09c.07,0-.08,0-.1,0s-.18,0-.1,0l-.16,0c-.1,0,0,0-.09,0a.49.49,0,0,1-.18-.17c-.35-.53-1.22,0-.86.51a1.94,1.94,0,0,0,3.18-.25c.88-1.4-.49-3.1-1.89-3.37a3.62,3.62,0,0,0-2.41.44,6.06,6.06,0,0,0-1.05.75.76.76,0,0,0-.35.57,2.42,2.42,0,0,0,.06.47,2.89,2.89,0,0,0,2.31,2,2.8,2.8,0,0,0,3.16-1.29.51.51,0,0,0-.18-.69.5.5,0,0,0-.68.18Z"/><path d="M144.63,151.29l38.75,3c.64,0,.64-1,0-1l-38.75-3c-.64,0-.64,1,0,1Z"/><path d="M200.71,153.69a371,371,0,0,0,49.5,5.87q7.23.36,14.46.44l-.36-.85-.77.87c-.43.48.28,1.19.71.71l.77-.88a.5.5,0,0,0-.35-.85A368.65,368.65,0,0,1,215,155.08q-7-1-14-2.35c-.63-.12-.9.84-.27,1Z"/><path d="M21.6,94.44c3.67,3.41,8.37,5.21,13.14,6.49,5.72,1.55,11.54,2.77,17.33,4q17.94,3.94,36,7.14,5.07.9,10.14,1.73c1.77.3,3.55.58,5.32.86l2.42.38c.69.11,1.67.09,1.71,1,0-.64-1-.64-1,0,.07,1.43,2.23.92,2.13-.35,0-.75-.83-1.19-1.47-1.38a37.6,37.6,0,0,0-5-.82Q92.09,111.87,81.86,110q-20.6-3.8-41-8.57c-6.51-1.53-13.51-3-18.56-7.68-.48-.44-1.18.27-.71.71Z"/><path d="M261.07,138.43a13.37,13.37,0,0,0-7.94-1.6l.35.86,3.26-3.09a27.58,27.58,0,0,0,2.93-2.89,2,2,0,0,0,.09-2.69,1.38,1.38,0,0,0-2.16.13.5.5,0,0,0,.86.5c.11-.18.34-.08.49,0a.61.61,0,0,1,.3.71c-.16.88-1.19,1.59-1.8,2.17L252.78,137c-.29.28-.09.9.35.85a12.42,12.42,0,0,1,7.44,1.47.5.5,0,0,0,.5-.87Z"/><path d="M247.93,134.53a8.87,8.87,0,0,0,5-6.6c.51-2.65,0-6.12-2.18-8-.86-.72-3.3-.66-2.58,1,.26.59,1.12.08.87-.5-.07.1-.05.13.05.07l.18,0a2.07,2.07,0,0,1,.49.07,1.64,1.64,0,0,1,.71.57,7,7,0,0,1,1.09,1.83,8.46,8.46,0,0,1,.5,4.11,8,8,0,0,1-4.65,6.59c-.6.25-.09,1.11.5.87Z"/><path d="M150.26,120.68a25.25,25.25,0,0,0-.63,9.52.5.5,0,0,0,.5.5,175.63,175.63,0,0,1,26.25.73.51.51,0,0,0,.5-.5l.21-11.63c0-.64-1-.64-1,0l-.21,11.63.5-.5a175.63,175.63,0,0,0-26.25-.73l.5.5a24.5,24.5,0,0,1,.6-9.26.5.5,0,0,0-1-.26Z"/><path d="M216.4,139.89a6.22,6.22,0,0,0,.19-3.06c-.12-1-.54-2.43.07-3.33.93-1.36,3.65-.35,5-.15,1.56.24,3.13.44,4.7.58a76.25,76.25,0,0,0,19.9-.8l-.63-.48.35,5.61c0,.64,1,.64,1,0l-.35-5.61a.51.51,0,0,0-.64-.48,75.21,75.21,0,0,1-22.86.39c-1.52-.21-3-.61-4.57-.71A2.83,2.83,0,0,0,215.8,133c-1.25,2,.44,4.52-.36,6.62-.23.6.74.86,1,.27Z"/><path d="M43.5,75.55l2.84,2.7a.51.51,0,0,0,.86-.36l.12-2.39h-1a2.36,2.36,0,0,0,1.36,2.13.51.51,0,0,0,.68-.18A8.12,8.12,0,0,1,50.84,75c.54-.35,0-1.22-.51-.87A9.35,9.35,0,0,0,47.5,77l.68-.18a1.39,1.39,0,0,1-.86-1.27.5.5,0,0,0-1,0l-.12,2.39.85-.35-2.84-2.7c-.46-.44-1.17.26-.71.71Z"/><path d="M54.89,54.31a7.75,7.75,0,0,1,2,3.45.49.49,0,0,0,.55.35.51.51,0,0,0,.43-.49l.29-2.51c.07-.58-.83-.66-1-.13-.34,1.14.94,1.93,1.94,1.76,1.2-.2,1.68-1.57,2-2.58a.5.5,0,0,0-1-.26c-.18.62-.41,1.59-1.1,1.84a.83.83,0,0,1-.63-.08.67.67,0,0,1-.25-.21c0-.07,0-.1,0-.21l-1-.13-.29,2.51,1-.13a8.74,8.74,0,0,0-2.28-3.89.5.5,0,0,0-.7.71Z"/><path d="M65.53,75.7l2.92,2.24c.32.24.75-.09.76-.43l0-2.67a.5.5,0,0,0-.93-.25,1.83,1.83,0,0,0,1.51,2.5c1.32.22,2.38-.86,3.17-1.77.42-.48-.28-1.19-.71-.7s-1.16,1.39-2,1.5c-.47,0-1.39-.45-1.1-1l-.93-.25,0,2.67.75-.43L66,74.84a.5.5,0,0,0-.69.17.52.52,0,0,0,.18.69Z"/><path d="M70,84l3.81,3.51a.5.5,0,0,0,.85-.36l0-2.47-.94.26,1.39,1.88a.52.52,0,0,0,.79.1l2.35-2.06c.49-.42-.22-1.13-.71-.71l-2.35,2.06.78.1-1.38-1.88a.5.5,0,0,0-.93.25l0,2.47.86-.35-3.81-3.5c-.48-.44-1.19.27-.71.7Z"/><path d="M29.18,54.21l4.23,3.94a.51.51,0,0,0,.85-.36l.33-3.53-.94.25a4.9,4.9,0,0,1,.6,2.68.5.5,0,0,0,.63.48,11.51,11.51,0,0,0,4.65-3.29c.41-.49-.29-1.2-.71-.71a10.62,10.62,0,0,1-4.2,3l.63.49A6,6,0,0,0,34.52,54a.51.51,0,0,0-.93.26l-.33,3.53.85-.35L29.89,53.5c-.47-.44-1.18.27-.71.71Z"/><path d="M72.55,54.86l3.23,3.32a.5.5,0,0,0,.85-.35l.5-4.31c.07-.58-.83-.66-1-.14A5.28,5.28,0,0,0,76.9,58a.51.51,0,0,0,.86,0l3.31-4.63c.37-.52-.49-1-.86-.5L76.9,57.47h.86a4.34,4.34,0,0,1-.65-3.82l-1-.13-.5,4.31.85-.36-3.23-3.32c-.45-.46-1.15.24-.7.71Z"/><path d="M166.18,86.14c.23-.38.91.21,1.08.41a3.58,3.58,0,0,0,1.46,1.35c1.24.45,2.46-1.57,1.05-2.07a.5.5,0,0,0-.64.48l.21,1.81a.5.5,0,0,0,.75.43,4.64,4.64,0,0,0,2.32-2.38.52.52,0,0,0-.18-.68.5.5,0,0,0-.68.18,3.83,3.83,0,0,1-2,2l.75.43-.21-1.81-.63.48a.2.2,0,0,1-.08-.1c0-.06.05,0,0,0s0,0,0,0l0,.07a.37.37,0,0,1-.25.19c-.42,0-.81-.73-1-1-.62-.79-2.07-1.42-2.73-.32a.5.5,0,0,0,.86.51Z"/><path d="M169.59,66.26a6.15,6.15,0,0,1,1.88,4.3.5.5,0,0,0,1,0l0-4.93c0-.55-.87-.7-1-.13a5.82,5.82,0,0,0,.91,4.51.52.52,0,0,0,.69.18,5.3,5.3,0,0,0,2.45-3.08c.19-.62-.77-.88-1-.27a4.31,4.31,0,0,1-2,2.49l.68.17a4.82,4.82,0,0,1-.81-3.74l-1-.13,0,4.93h1a7.15,7.15,0,0,0-2.18-5c-.46-.44-1.17.26-.7.71Z"/><path d="M180.14,58.13a6.38,6.38,0,0,1,2.78,2.78c.22.42,1,.24.94-.26a6.42,6.42,0,0,1,.72-3.87l-.93-.26.09,3.6c0,.34.43.67.75.43A8,8,0,0,1,188,59c.63-.1.36-1.07-.27-1A8.51,8.51,0,0,0,184,59.68l.76.44-.09-3.6a.5.5,0,0,0-.93-.25,7.35,7.35,0,0,0-.86,4.38l.93-.25a7.32,7.32,0,0,0-3.15-3.13c-.57-.3-1.07.56-.5.86Z"/><path d="M176.43,94.57a3.58,3.58,0,0,1,2.65,3.28.5.5,0,0,0,1,0l0-4.13h-1a5.15,5.15,0,0,0,1.58,3.67.52.52,0,0,0,.61.07l3.07-2.09c.53-.36,0-1.22-.51-.86l-3.06,2.09.6.08a4.1,4.1,0,0,1-1.29-3,.5.5,0,0,0-1,0l0,4.13h1a4.59,4.59,0,0,0-3.38-4.24.5.5,0,0,0-.27,1Z"/><path d="M212.84,94.4a7.44,7.44,0,0,1,3.38,4.32.51.51,0,0,0,1-.13l.21-5.31-1,.13,1.06,4.48a.51.51,0,0,0,.92.12l3-5.16a.5.5,0,0,0-.86-.51l-3,5.16.92.12-1.07-4.48c-.13-.56-1-.41-1,.14l-.21,5.31,1-.14a8.54,8.54,0,0,0-3.84-4.92.5.5,0,0,0-.51.87Z"/><path d="M213.65,77.78a10.58,10.58,0,0,1,4.28,3,.51.51,0,0,0,.86-.35L218.73,77a.5.5,0,0,0-1,0,3.08,3.08,0,0,0,.85,2.17.51.51,0,0,0,.61.07L223,76.42c.51-.38,0-1.25-.5-.87l-3.82,2.85.61.08a2,2,0,0,1-.56-1.46h-1l.06,3.38.85-.36a11.55,11.55,0,0,0-4.72-3.22c-.6-.22-.86.74-.27,1Z"/><path d="M210.31,61.24l3.06,3.52a.5.5,0,0,0,.85-.35l.07-3.31-.85.35a2.72,2.72,0,0,1,.65,1.7.51.51,0,0,0,.86.36l3.38-3.32c.46-.45-.25-1.15-.71-.7l-3.38,3.31.85.35a3.74,3.74,0,0,0-.94-2.4.51.51,0,0,0-.86.35l-.07,3.31.85-.35-3-3.53c-.42-.49-1.13.22-.71.71Z"/><path d="M227.05,65.75l2.85,3.61c.3.38.81,0,.85-.35l.33-3.39-.93.25a7.16,7.16,0,0,1,.64,3.41.5.5,0,0,0,.85.36,7.62,7.62,0,0,0,2.22-3.33c.21-.61-.75-.87-1-.26a6.74,6.74,0,0,1-2,2.88l.86.35a8.12,8.12,0,0,0-.78-3.91.49.49,0,0,0-.56-.23.51.51,0,0,0-.37.48L229.75,69l.85-.35L227.76,65a.5.5,0,0,0-.71.71Z"/><path d="M142.88,200.73l2.27,2.06a.49.49,0,0,0,.7,0l2.23-2.7a.52.52,0,0,0,0-.71.51.51,0,0,0-.71,0l-2.22,2.71h.7L143.59,200c-.48-.43-1.18.27-.71.71Z"/><path d="M148.86,213l2.31,2.78c.31.36.82,0,.86-.36a13.42,13.42,0,0,0-.47-4.84c-.15-.53-1-.45-1,.13a9.52,9.52,0,0,0,1.37,4.24.51.51,0,0,0,.79.1l2.9-2.81c.46-.45-.25-1.16-.71-.71l-2.9,2.82.79.1a8.47,8.47,0,0,1-1.24-3.74l-1,.13a12.9,12.9,0,0,1,.43,4.58l.85-.35-2.31-2.78a.5.5,0,0,0-.71,0,.51.51,0,0,0,0,.71Z"/><path d="M159.76,225.05a5.33,5.33,0,0,1,2.66,2,.5.5,0,0,0,.93-.25l.09-2.55-1,.13a3.13,3.13,0,0,0,5.67.12.5.5,0,1,0-1-.27c-.6,1.46-3.24,1.34-3.75-.12a.5.5,0,0,0-1,.14l-.09,2.55.94-.25a6.52,6.52,0,0,0-3.27-2.46c-.61-.2-.87.76-.26,1Z"/><path d="M140.56,230.37a11.8,11.8,0,0,1,2.89,4.19c.19.49,1,.48,1-.13l-.05-3.4-1,.13.95,2.57a.52.52,0,0,0,.74.3A5.56,5.56,0,0,0,147.5,231c.2-.61-.76-.88-1-.27a4.4,4.4,0,0,1-2,2.46l.74.3-.95-2.57a.51.51,0,0,0-1,.14l.05,3.4,1-.13a12.9,12.9,0,0,0-3.14-4.64c-.47-.44-1.18.26-.71.71Z"/><path d="M155.69,244.07,158,246.9c.29.35.84,0,.85-.36l.14-4-.93.26a6.41,6.41,0,0,1,.6,2.58.51.51,0,0,0,.24.44,2.6,2.6,0,0,0,3.73-2.1c0-.65-1-.64-1,0a1.59,1.59,0,0,1-2.22,1.23l.25.43a7.71,7.71,0,0,0-.74-3.09c-.22-.47-.92-.21-.93.25l-.14,4,.86-.35-2.32-2.82a.49.49,0,0,0-.7,0,.5.5,0,0,0,0,.7Z"/><path d="M145.92,262.38a6.38,6.38,0,0,1,3,3.25c.14.34.72.56.91.12a8.4,8.4,0,0,0,.74-3.63l-.93.25L151,265a.5.5,0,0,0,.78.1l2.37-2.06c.49-.42-.22-1.13-.71-.71l-2.37,2.06.79.1-1.31-2.65a.5.5,0,0,0-.93.25,7.19,7.19,0,0,1-.6,3.13l.91.12a7.36,7.36,0,0,0-3.5-3.85c-.57-.29-1.08.57-.5.86Z"/><path d="M170.21,275.25a7.57,7.57,0,0,1,2.84,4,.51.51,0,0,0,1-.13l.12-4.94-.85.35a5.38,5.38,0,0,1,1.37,4.56c-.09.52.64.93.91.39l2.65-5.31c.28-.58-.58-1.09-.87-.51L174.73,279l.92.39a6.44,6.44,0,0,0-1.63-5.53.51.51,0,0,0-.86.35l-.12,4.94,1-.14a8.76,8.76,0,0,0-3.31-4.64c-.52-.37-1,.49-.5.87Z"/><path d="M198.32,266.79a7.83,7.83,0,0,1,3.67,3.54l.86-.51a5.18,5.18,0,0,1-.62-3.59h-1l.78,2.63a.5.5,0,0,0,.91.12l2.08-3c.36-.53-.5-1-.87-.5l-2.07,3,.91.12-.77-2.62c-.14-.45-.87-.51-1,0a6.26,6.26,0,0,0,.73,4.36c.33.56,1.15.06.86-.51a8.61,8.61,0,0,0-4-3.89.52.52,0,0,0-.69.18.51.51,0,0,0,.18.68Z"/><path d="M194.87,234.35a2.83,2.83,0,0,1,3.18,1.68.5.5,0,0,0,1-.14l.18-4.14-.94.25a6.49,6.49,0,0,1,.63,3.21.5.5,0,0,0,.93.26,11.52,11.52,0,0,1,2.62-3.07c.49-.41-.22-1.12-.71-.71A12.42,12.42,0,0,0,199,235l.93.25a7.55,7.55,0,0,0-.76-3.71c-.23-.48-.92-.21-.93.25l-.18,4.14,1-.13a3.84,3.84,0,0,0-4.4-2.37c-.63.14-.37,1.11.26,1Z"/><path d="M215.13,244.66a11.06,11.06,0,0,1,3.45,4.45c.21.49.93.21.94-.25l.11-5.63-1,.13,1.64,3.92c.15.34.72.55.92.12l2.22-4.86c.26-.58-.6-1.09-.87-.51l-2.22,4.86.92.12-1.64-3.92a.5.5,0,0,0-1,.14l-.11,5.63.93-.25a12,12,0,0,0-3.81-4.81c-.52-.39-1,.48-.51.86Z"/><path d="M219.52,222.15l3.68,2.79c.33.25.72-.1.75-.43l.26-2.79-.85.35a5.73,5.73,0,0,1,1.76,2.44c.13.35.72.54.91.11l2.16-4.74c.27-.58-.59-1.09-.86-.51l-2.16,4.75.91.12a6.7,6.7,0,0,0-2-2.88.51.51,0,0,0-.86.36l-.26,2.79.75-.44L220,221.29c-.51-.39-1,.48-.5.86Z"/><path d="M196,211.31a25.21,25.21,0,0,1,3.58,4.33.5.5,0,0,0,.93-.25l.11-6.44-.93.26a17,17,0,0,1,1.5,4.82c.07.45.71.46.91.12l2.7-4.44a.5.5,0,0,0-.86-.5l-2.7,4.44.91.12a17.63,17.63,0,0,0-1.6-5.07.5.5,0,0,0-.93.25l-.11,6.44.93-.26a26.58,26.58,0,0,0-3.74-4.53c-.46-.45-1.17.26-.7.71Z"/><path d="M210.47,198.56l4.23,3.18c.39.3,1-.29.69-.68a2.28,2.28,0,0,1-.26-2.39l-.91-.12a3.47,3.47,0,0,0,2.33,2.45.5.5,0,0,0,.63-.48,2.52,2.52,0,0,1,1.87-2.22.5.5,0,0,0-.27-1,3.54,3.54,0,0,0-2.6,3.18l.63-.48a2.45,2.45,0,0,1-1.63-1.76.5.5,0,0,0-.91-.12,3.26,3.26,0,0,0,.25,3.4l.69-.68L211,197.69c-.51-.38-1,.48-.5.87Z"/><path d="M227.26,196.31A4.91,4.91,0,0,1,230,199c.23.52,1.07.15.91-.38a3.07,3.07,0,0,1,.59-2.91l-.78-.1L233,199a.5.5,0,0,0,.78.1l2-1.78c.48-.43-.23-1.13-.71-.7l-2,1.77.78.1-2.19-3.45a.49.49,0,0,0-.78-.1,4,4,0,0,0-.85,3.87l.91-.38a5.91,5.91,0,0,0-3.38-3.13c-.6-.22-.86.74-.26,1Z"/><path d="M218.18,282.3l2.2,2.19a.5.5,0,0,0,.83-.22l1.1-3.93-.73.29a2.24,2.24,0,0,1,.81,2.23.5.5,0,0,0,.48.63,2.54,2.54,0,0,0,2.65-2.58c0-.65-1-.65-1,0a1.54,1.54,0,0,1-1.65,1.58l.48.64a3.27,3.27,0,0,0-1.27-3.36.5.5,0,0,0-.73.3l-1.1,3.94.83-.22-2.19-2.2c-.46-.45-1.17.26-.71.71Z"/><path d="M39.75,131.64l5.12,4.42c.28.25.91.12.85-.35a4.79,4.79,0,0,1,.58-3l-.93-.26a6.41,6.41,0,0,0,1.19,3.64c.17.23.57.38.79.1L49.82,133c.39-.5-.31-1.22-.71-.71l-2.47,3.14.79.1a5.46,5.46,0,0,1-1.06-3.14.5.5,0,0,0-.93-.25,5.66,5.66,0,0,0-.72,3.55l.86-.35-5.13-4.43c-.48-.42-1.19.29-.7.71Z"/><path d="M68.67,144.51a10.8,10.8,0,0,1,3.6,3c.33.42.93-.05.83-.49a5.07,5.07,0,0,1,.41-3.36l-.79.1,2.47,3.1a.5.5,0,0,0,.71,0L79,143.18c.42-.49-.29-1.2-.71-.71l-3.12,3.66h.71L73.43,143a.51.51,0,0,0-.79.11,6.14,6.14,0,0,0-.5,4.13l.83-.49a11.43,11.43,0,0,0-3.8-3.14c-.57-.29-1.07.57-.5.87Z"/><path d="M50.47,155.87A8.49,8.49,0,0,1,54,159.54a.5.5,0,0,0,.93-.25,12,12,0,0,1,.7-5.56h-1a13,13,0,0,1,.85,4.7.5.5,0,0,0,.93.25l2.17-3.47c.34-.55-.53-1.05-.87-.51l-2.16,3.47.93.26a13.83,13.83,0,0,0-.89-5,.5.5,0,0,0-1,0,12.71,12.71,0,0,0-.74,5.83l.93-.25A9.3,9.3,0,0,0,51,155c-.57-.31-1.07.55-.51.86Z"/><path d="M42.24,226.92c13.46.88,26.93,1.61,40.38,2.64a4.39,4.39,0,0,1,1.08.1c.88.33.87,1.13,1,1.84s.18,1.44.26,2.15c.18,1.68.33,3.35.45,5,.22,3.2.32,6.41.31,9.61a127.29,127.29,0,0,1-1.61,19.5q-.46,2.85-1,5.68c-.21,1-.33,1.76.92,2,2,.36,2.6-2.17,1.06-3.14-.54-.34-1,.52-.5.87.76.73.48,1.07-.85,1l.13.48a128.8,128.8,0,0,0,2.65-35c-.18-2.87-.41-5.76-.83-8.61a2.81,2.81,0,0,0-.88-2c-.86-.64-2.35-.49-3.34-.56l-18.2-1.18-20.94-1.37c-.64,0-.64,1,0,1Z"/><path d="M55.1,254.39l3.27,3.35a.51.51,0,0,0,.86-.35l.35-3.35c.05-.49-.72-.67-.94-.25a4,4,0,0,0,1.3,5,.5.5,0,0,0,.75-.43,4.91,4.91,0,0,1,1.58-3.76c.47-.44-.24-1.15-.71-.71a6,6,0,0,0-1.87,4.47l.75-.43a3,3,0,0,1-.93-3.68l-.93-.26-.35,3.35.85-.35-3.27-3.36c-.45-.46-1.16.25-.71.71Z"/><path d="M65.65,237.81a22,22,0,0,1,4.19,3,.5.5,0,0,0,.85-.35l.29-4.91-.93.25a7.9,7.9,0,0,1,1.56,5,.5.5,0,0,0,.93.25L75,236.25c.3-.57-.56-1.08-.86-.51l-2.48,4.78.93.25a8.69,8.69,0,0,0-1.7-5.48.5.5,0,0,0-.93.25l-.29,4.91.86-.36a22.73,22.73,0,0,0-4.4-3.14c-.56-.31-1.07.55-.5.86Z"/><path d="M76.27,165.18a4.82,4.82,0,0,1,3.53,2.7c.22.47.92.21.93-.25l.11-4.89-1,.13,1.28,3.47a.51.51,0,0,0,.84.22l3.9-3.62c.47-.44-.24-1.15-.71-.71l-3.9,3.63.83.22-1.28-3.48a.5.5,0,0,0-1,.14l-.11,4.89.93-.26a5.72,5.72,0,0,0-4.13-3.16c-.63-.11-.9.86-.26,1Z"/><path d="M139.36,179.75l20.66.51,10.21.24,5,.12c.81,0,4.79-.38,4.79,1a.5.5,0,0,0,1,0c0-2.67-4.68-2-6.29-2.06l-11.7-.28-23.65-.58a.5.5,0,0,0,0,1Z"/><path d="M24.7,91.47a23.47,23.47,0,0,0,5.41,9.59c.44.47,1.15-.24.71-.71a22.39,22.39,0,0,1-5.16-9.15.5.5,0,0,0-1,.27Z"/><path d="M25.14,87.54a56.55,56.55,0,0,0,8.38,13.93c.41.49,1.11-.22.71-.71A55,55,0,0,1,26.1,87.28c-.25-.59-1.21-.33-1,.26Z"/><path d="M30.4,93l6,8.39c.37.52,1.24,0,.87-.51l-6-8.38c-.37-.52-1.24,0-.86.5Z"/><path d="M34.9,91.53l6.87,11.36a.5.5,0,0,0,.86-.51L35.76,91c-.33-.55-1.2,0-.86.5Z"/><path d="M40.3,93a43.11,43.11,0,0,0,6.11,9.23c.42.49,1.12-.22.71-.7a42.32,42.32,0,0,1-5.95-9c-.29-.58-1.15-.07-.87.51Z"/><path d="M44.11,93.74l5.93,10a.5.5,0,0,0,.86-.5L45,93.24a.5.5,0,0,0-.86.5Z"/><path d="M48.71,96l5.88,10a.5.5,0,0,0,.86-.51l-5.87-10a.5.5,0,0,0-.87.51Z"/><path d="M50.85,93l6.82,12.15c.32.56,1.18,0,.87-.51L51.72,92.53a.5.5,0,0,0-.87.5Z"/><path d="M54.87,93.55a34.94,34.94,0,0,0,8,12c.47.45,1.17-.25.71-.7a33.82,33.82,0,0,1-7.74-11.51c-.24-.59-1.21-.34-1,.26Z"/><path d="M59.22,96.23l7.63,9.07c.41.5,1.12-.21.7-.7l-7.62-9.07c-.42-.5-1.12.21-.71.7Z"/><path d="M64.66,96.73l7.39,10c.37.51,1.24,0,.86-.51l-7.39-10c-.37-.51-1.24,0-.86.51Z"/><path d="M68.56,96l9.64,12.32c.4.5,1.1-.21.71-.71L69.27,95.33c-.4-.5-1.1.21-.71.71Z"/><path d="M77.5,101.33a30,30,0,0,0,6.1,7.72c.48.43,1.19-.28.71-.71a29.1,29.1,0,0,1-6-7.52c-.31-.56-1.18-.06-.86.51Z"/><path d="M81.35,99.77A45,45,0,0,0,89.46,110c.47.44,1.18-.27.71-.71a43.88,43.88,0,0,1-8-10,.5.5,0,0,0-.87.5Z"/><path d="M86.6,99.81a41.86,41.86,0,0,0,9.92,11.49c.49.4,1.2-.3.7-.7a41.4,41.4,0,0,1-9.76-11.29.5.5,0,0,0-.86.5Z"/><path d="M88.79,95.48a115.63,115.63,0,0,0,17.73,17.93c.49.4,1.21-.31.71-.71A115.56,115.56,0,0,1,89.5,94.78c-.4-.51-1.11.21-.71.7Z"/><path d="M91.19,90.08l16.71,18.19c.43.47,1.14-.24.7-.71L91.9,89.37c-.44-.48-1.14.23-.71.71Z"/><path d="M86,78.54l20.89,18.6c.48.43,1.19-.28.71-.71L86.73,77.84c-.48-.43-1.19.27-.71.7Z"/><path d="M87.4,74.14a228.15,228.15,0,0,0,22.73,20c.51.4,1-.47.5-.86A226.68,226.68,0,0,1,88.11,73.43a.5.5,0,0,0-.71.71Z"/><path d="M86.64,69.59,110.86,90.9c.48.42,1.19-.28.71-.71L87.35,68.88c-.48-.42-1.19.28-.71.71Z"/><path d="M88.79,65.16a241.82,241.82,0,0,0,21.33,19.65c.5.41,1.21-.3.71-.7A241.94,241.94,0,0,1,89.5,64.45c-.45-.46-1.15.24-.71.71Z"/><path d="M90.6,61.07,111,79.41c.48.43,1.19-.28.71-.71L91.3,60.36c-.47-.43-1.18.28-.7.71Z"/><path d="M90.7,55a104.92,104.92,0,0,1,20.14,18.43c.42.49,1.12-.22.71-.71A105.62,105.62,0,0,0,91.2,54.16c-.52-.37-1,.5-.5.86Z"/><path d="M91.28,50a46.17,46.17,0,0,1,18.86,16.42c.35.54,1.22,0,.86-.5A47.16,47.16,0,0,0,91.78,49.12c-.57-.27-1.08.59-.5.87Z"/><path d="M96.61,47.66a58.1,58.1,0,0,1,15.07,12.82c.42.49,1.12-.22.71-.71a59,59,0,0,0-15.27-13,.5.5,0,0,0-.51.86Z"/><path d="M94.42,41a43.11,43.11,0,0,1,17.47,13.29c.39.51,1.09-.2.7-.7A43.83,43.83,0,0,0,94.69,40c-.6-.24-.85.72-.27,1Z"/><path d="M103.42,41.63a16.06,16.06,0,0,1,6.74,5.8c.35.54,1.22,0,.86-.5a17,17,0,0,0-7.09-6.17c-.58-.26-1.09.6-.51.87Z"/><path d="M108,38.56l3,2.27a.49.49,0,0,0,.68-.18.5.5,0,0,0-.18-.68l-3-2.28a.51.51,0,0,0-.69.18.54.54,0,0,0,.18.69Z"/><path d="M239.25,110.75l.33-.27.09,0c0,.06-.07-.09-.09-.07s-.18,0-.06.1.19,0,.23,0a1.17,1.17,0,0,1,.26.1,3,3,0,0,1,.54.39c.86.72,1.7,1.45,2.55,2.18l5,4.3c.49.42,1.2-.29.71-.71l-4-3.39c-1.29-1.1-2.55-2.28-3.9-3.32a2,2,0,0,0-1.72-.52.9.9,0,0,0-.68,1.09c.23.82,1.62,1.21,1.68.08,0-.64-1-.64-1,0Z"/><path d="M237.71,105.13l12.7,10.11c.5.4,1.21-.31.71-.71l-12.71-10.1c-.49-.4-1.21.3-.7.7Z"/><path d="M239,100.81a60.72,60.72,0,0,0,10.13,9c.53.37,1-.5.51-.87a58.46,58.46,0,0,1-9.93-8.86c-.43-.48-1.14.23-.71.71Z"/><path d="M239,94l11.41,12.11c.44.47,1.15-.24.71-.71L239.75,93.24c-.44-.47-1.15.24-.71.71Z"/><path d="M240,89.24l11.86,13.15c.43.48,1.13-.23.7-.7L240.67,88.54c-.43-.48-1.13.23-.7.7Z"/><path d="M238,83a60.84,60.84,0,0,1,11.93,10.78c.41.49,1.12-.22.7-.71a61.21,61.21,0,0,0-12.13-10.93c-.53-.36-1,.5-.5.86Z"/><path d="M238.44,77.3l10.68,7.51c.52.38,1-.49.5-.86L239,76.44c-.53-.37-1,.5-.51.86Z"/><path d="M239.26,71.9a64.05,64.05,0,0,0,11.35,6.88c.58.27,1.09-.59.51-.86A64.29,64.29,0,0,1,239.77,71c-.51-.39-1,.48-.51.86Z"/><path d="M241.42,66.55a47,47,0,0,0,9.2,7.66c.54.35,1-.52.51-.86a45.7,45.7,0,0,1-9-7.51c-.44-.47-1.14.24-.7.71Z"/><path d="M242.26,61.13l7.53,6.14c.49.41,1.2-.3.71-.71L243,60.43c-.5-.41-1.21.3-.71.7Z"/><path d="M240.15,53.43a45.62,45.62,0,0,1,10.17,7.26c.47.44,1.18-.27.71-.71a46.57,46.57,0,0,0-10.37-7.41c-.57-.3-1.08.56-.51.86Z"/><path d="M240.23,48.16a30,30,0,0,1,10.25,6.29c.47.44,1.17-.26.7-.7a31.1,31.1,0,0,0-10.68-6.56c-.61-.22-.87.75-.27,1Z"/><path d="M243.8,46.88l5.28,2.35a.51.51,0,0,0,.68-.17.5.5,0,0,0-.18-.69L244.31,46a.52.52,0,0,0-.69.18.5.5,0,0,0,.18.68Z"/><path d="M112.58,268.1l5.69,8.25.79-.61a23,23,0,0,1-5.64-10.2l-.84.49,8,9.52.71-.71a54.45,54.45,0,0,1-8.15-12.93l-.79.6,14.25,15.58c.44.48,1.13-.23.71-.71A161.72,161.72,0,0,1,113,258.68l-.86.51a105.86,105.86,0,0,0,17.31,17.71c.49.39,1.19-.27.71-.71a80.39,80.39,0,0,1-14.48-17.26l-.79.61,17.94,18.2.71-.71a109.21,109.21,0,0,1-17.88-19.68L115,258a138.23,138.23,0,0,1,15.66,14.06.51.51,0,0,0,.79-.61l-6.73-10.43-.69.69a22,22,0,0,1,6.44,4.93l.71-.71a20.83,20.83,0,0,1-4.06-5.65l-.78.61a6.28,6.28,0,0,0,2.85,2.07c.32.12.61-.19.63-.48l.21-3.39-.93.25c1.23,2.41.26,5-.76,7.32-.51,1.14-1.07,2.25-1.55,3.4s-.82,2.32-1.23,3.48c-.88,2.48-2.84,4.35-5.63,4.14a5.21,5.21,0,0,1-4.64-5.06l-.37.48a1.07,1.07,0,0,1,1,.32l.1-.79c-.61.28-1.31-.92-.75-1.32s0-1.24-.51-.86a1.79,1.79,0,0,0,1.77,3.05.51.51,0,0,0,.1-.79,2.23,2.23,0,0,0-2-.57.49.49,0,0,0-.37.48,6.11,6.11,0,0,0,11.15,3.44,17.85,17.85,0,0,0,1.79-4.38c.56-1.61,1.35-3.11,2-4.67,1.16-2.62,2.08-5.46.69-8.17-.24-.47-.9-.21-.93.25l-.21,3.39.63-.49a5.33,5.33,0,0,1-2.41-1.81c-.36-.47-1,.13-.78.61a21.74,21.74,0,0,0,4.21,5.85c.46.46,1.14-.23.71-.71a23.07,23.07,0,0,0-6.64-5.09c-.42-.21-1,.24-.69.69L130.56,272l.79-.61a140.83,140.83,0,0,0-15.87-14.22c-.39-.3-1,.29-.68.69a110.5,110.5,0,0,0,18,19.88c.48.42,1.17-.24.71-.71l-17.94-18.2a.5.5,0,0,0-.79.6,81.73,81.73,0,0,0,14.64,17.47l.71-.71A104.91,104.91,0,0,1,113,258.68c-.38-.49-1.22-.05-.86.51a163.17,163.17,0,0,0,14.42,18.9l.71-.71L113,261.81c-.41-.45-1,.12-.79.6a55.28,55.28,0,0,0,8.31,13.14c.42.49,1.12-.22.71-.71l-8-9.52c-.34-.4-1,0-.84.49a24.15,24.15,0,0,0,5.9,10.64c.39.4,1.12-.13.79-.61l-5.7-8.24c-.36-.53-1.23,0-.86.5Z"/></g></g></svg>