<svg xmlns="http://www.w3.org/2000/svg" viewBox="0 0 580.82 536.73"><g id="Layer_2" data-name="Layer 2"><g id="Layer_7_133" data-name="Layer 7,133"><path d="M9.23,363.5C25.64,349.32,39.86,333,54.4,316.89,68.35,301.47,82.26,286,96.34,270.75c27.32-29.67,55.46-58.68,85.68-85.42a595.29,595.29,0,0,1,95.62-68.88C311,97,346.1,79.05,382.19,65.3,423.78,49.45,465,32.83,507.05,18.23c11.09-3.85,6.16-21.69-4.86-17.63C464.6,14.44,426.82,27.68,389.74,42.86,371.28,50.42,353.05,59,335,67.49S298.94,85.11,281.49,95a646.66,646.66,0,0,0-98.09,68.64c-31.06,26.27-59.5,55.33-87.18,85.08-15.89,17.08-31.49,34.41-47.14,51.71C32.44,318.83,15.23,336.8,1,357.11c-3.63,5.17,4,10.08,8.28,6.39Z"/><path d="M1.16,361.28c.55,6.59,4.71,12.1,8.38,17.4q5.88,8.49,11.61,17.07C29,407.46,36.77,419.19,44.3,431.09a797.69,797.69,0,0,1,41.39,72.59c4.88,9.86,20.61.92,14.87-8.7-14.27-23.92-28.4-47.93-43.3-71.46C49.89,411.89,42.38,400.33,34.54,389q-5.89-8.49-11.92-16.89c-3.82-5.32-8-12.34-14.23-15-3-1.27-7.57.1-7.23,4.15Z"/><path d="M98,503.74c2.21-.54,3.59-.29,5.75-1.1,1.74-.65,3.44-1.51,5.14-2.27,3-1.36,6.07-2.68,9.06-4.11,6.87-3.28,13.63-6.8,20.43-10.19,13.32-6.65,26.63-13.31,39.88-20.1,8.6-4.4,1-17.34-7.57-13-13.24,6.78-26.42,13.68-39.59,20.59-6.44,3.38-12.91,6.7-19.31,10.14-3.2,1.71-6.33,3.57-9.47,5.39a40.86,40.86,0,0,0-5.09,3.06c-1.44,1.13-2.34,2.61-3.73,3.8-3.69,3.16.3,8.76,4.5,7.74Z"/><path d="M175.2,457.85c4.5,12.75,13.3,23.94,19.54,35.93a309.41,309.41,0,0,1,16.85,37.32c3.9,10.8,19.38,4.58,14.67-6.19-5.63-12.87-11.31-25.61-18-38-6.42-11.85-12.8-25.88-23-35-4.15-3.72-12.22-.21-10.08,5.87Z"/><path d="M223.29,535.12c8.33-2.36,15.89-7.58,23.12-12.18q11.26-7.17,22.56-14.32c14.5-9.18,29.12-18.17,43.73-27.16s29.16-18.11,43.73-27.18c7.28-4.54,14.59-9,21.79-13.71,7.69-5,16.61-9.09,23.45-15.19,6.09-5.44-.33-17.56-8.33-14.3-8.26,3.37-15.52,9.18-23.15,13.79s-15.14,9.41-22.65,14.21c-14.48,9.23-28.94,18.49-43.28,27.94s-28.64,19-43,28.37L239.7,509.52c-7.41,4.87-15.85,9.8-21.6,16.69-3.23,3.87-.29,10.46,5.19,8.91Z"/><path d="M381.54,366.69l-.27,1.68,2.6-3.39c-4.48,3.45-4.39,7-3.59,12.29a129.36,129.36,0,0,0,2.85,13.35,160.21,160.21,0,0,0,9.76,26.57c4.05,8.75,17,1.14,12.95-7.57a139.14,139.14,0,0,1-8.48-23.87c-1.88-7.35-1.19-18.06-9.13-21.34l4,4-.71-1.68c-1.69-4-9-5.69-9.94,0Z"/><path d="M386.63,376.48c8.65-2,16-6.27,23.83-10.39s15.44-8.71,23.17-13q23.21-13,46.83-25.17c31.51-16.31,63.44-31.78,96.07-45.66,9.63-4.1,1.36-18.82-8.34-14.27-32,15.05-64,30.41-95.39,46.83q-23.55,12.31-46.74,25.32c-7.72,4.31-15.57,8.52-23.05,13.25s-14.8,9.09-20.66,15.77a4.44,4.44,0,0,0,4.28,7.35Z"/><path d="M576.15,275.63c4.54-6.78,2.17-16.87,1.33-24.49-.92-8.28-2.05-16.53-3.08-24.79-2.11-16.95-4.64-33.81-8-50.55a727.65,727.65,0,0,0-27-98.11C532.89,59.5,525.74,41.58,518,23.9c-1.92-4.41-8.38-5.42-12.18-3.19-4.55,2.66-5.14,7.76-3.2,12.18,26.53,60.6,44.81,124.84,56,190,1.55,9.08,2.75,18.19,3.78,27.33.93,8.37.29,19.86,6.41,26.36,2.18,2.31,5.74,1.47,7.36-.95Z"/><path d="M301.28,407.05a186.55,186.55,0,0,1,13.2,23.75,2,2,0,0,0,2.74.72,225.06,225.06,0,0,1,36.37-20.12q4.74-2.07,9.58-3.91c1.55-.59,3.1-1.16,4.67-1.72a14.17,14.17,0,0,0,4.23-2c2.91-2.32,2.38-5.89.77-8.83-1.79-3.29-3.83-6.45-5.74-9.67-1.06-1.76-2.09-3.55-3.17-5.3a12,12,0,0,0-3.31-3.8c-2.56-1.75-6.64-1.47-8.14,1.54-1.14,2.3,2.31,4.33,3.45,2,1-2,3.39.49,4.05,1.47,1.77,2.64,3.3,5.48,4.93,8.22l2.4,4a39.79,39.79,0,0,1,2.48,4.29c.46,1.05.75,2.2-.27,3a11.5,11.5,0,0,1-3.17,1.39,227.55,227.55,0,0,0-33.43,15.09q-9.1,5-17.72,10.9l2.73.72A184.12,184.12,0,0,0,304.73,405c-1.41-2.14-4.87-.14-3.45,2Z"/><path d="M303.55,405.29a250.34,250.34,0,0,1,24.62-14.66q6.27-3.24,12.7-6.13,3.3-1.49,6.63-2.86l3.38-1.36,1.7-.66a10.24,10.24,0,0,1,1.27-.53l-1.19-.92.12.17-.27-1,0-.11.51-.88-.13.13,1.42-.59h-.19c-2.57,0-2.58,4,0,4a2.4,2.4,0,0,0,1.44-4.29c-1.76-1.36-4.45.31-6.2,1q-6,2.4-12,5.11a246.32,246.32,0,0,0-23.18,12.1q-6.47,3.82-12.69,8c-2.12,1.44-.12,4.9,2,3.46Z"/><path d="M58.9,403.8,28.78,356c-1.36-2.17-4.83-.17-3.45,2l30.12,47.84c1.36,2.17,4.83.16,3.45-2Z"/><path d="M57.25,405.39c12.57-7.48,25.22-14.85,37.67-22.52,6.11-3.76,12.13-7.65,18-11.83s11.52-8.75,17.21-13.22l9.69-7.61,5-3.95,2.32-1.83,1.17-.91.77-.61c.37-.2.38-.26,0-.19l-.88-.51.12.14-.58-1.41.3-.76.88-.52-.14.06h1.06l-.13,0,1.2.92-.09-.14c-1.36-2.18-4.82-.18-3.45,2a2.31,2.31,0,0,0,4-.1,2.46,2.46,0,0,0-2.23-3.71c-1.86,0-3.48,1.85-4.84,2.92l-4.85,3.81c-6.56,5.14-13.11,10.31-19.68,15.44-12.73,9.92-26.36,18.34-40.2,26.59l-24.36,14.5c-2.21,1.31-.2,4.77,2,3.45Z"/><path d="M152.61,337.34c-6.26-12.57-17.37-21.95-23.48-34.6-1.36-2.81-2.88-9.34-7.35-7.06-2.29,1.17-.27,4.63,2,3.46-.65-.16-.86-.12-.62.12a1.66,1.66,0,0,1,.3.43,6.47,6.47,0,0,1,.51,1.18c.39,1,.82,2,1.27,3A53,53,0,0,0,128,309a104.7,104.7,0,0,0,7.18,10.21c5,6.46,10.32,12.75,14,20.12,1.15,2.3,4.6.28,3.46-2Z"/><path d="M124.49,296.26a357.83,357.83,0,0,0,40.9-21.15c2.21-1.32.2-4.78-2-3.46a357.26,357.26,0,0,1-40.91,21.16,2,2,0,0,0-.71,2.73,2,2,0,0,0,2.73.72Z"/><path d="M167.41,271.47c-2.55-4.25-5-8.59-7.67-12.76-2-3.18-5.17-6.76-9.37-6.26a2.06,2.06,0,0,0-2,2,2,2,0,0,0,2,2,4.16,4.16,0,0,1,1.22,0l.58.17a5.46,5.46,0,0,1,1.72,1.15,17.84,17.84,0,0,1,2.94,3.86c2.39,3.95,4.75,7.92,7.13,11.88,1.32,2.21,4.78.2,3.45-2Z"/><path d="M97.79,286c5.71-5.6,11.46-11.23,18.13-15.7s13.93-7.92,21.16-11.37l6.39-3,3.08-1.47,1.77-.84c.21-.11.45-.2.66-.32.42-.25.27,0,0-.07l-.88-.51.19.18-.51-.89.06.17V251.1l0,.15.52-.88.82-.34,1.41.58-.08-.08.59,1.42,0-.16a2,2,0,1,0-4,0c-.29,2.66,3.57,2.85,4.48.76a2.31,2.31,0,0,0-.83-2.84,3.29,3.29,0,0,0-3.31-.1c-4.75,2.06-9.39,4.45-14.06,6.68-9.07,4.34-18,8.9-25.82,15.28-4.44,3.61-8.53,7.62-12.61,11.62-1.84,1.81,1,4.64,2.83,2.83Z"/><path d="M119.58,323.73a327.55,327.55,0,0,1-21.83-32.42,2,2,0,0,0-2.26-.92A5.19,5.19,0,0,0,92,294.06c-.66,2.49,3.2,3.55,3.85,1.06a1.09,1.09,0,0,1,.73-.87l-2.26-.92a327.65,327.65,0,0,0,21.84,32.42,2.07,2.07,0,0,0,2.74.72,2,2,0,0,0,.71-2.74Z"/><path d="M26.92,351.24l19-14.79-3.35-.88a77.81,77.81,0,0,0,10.29,18.67,2.07,2.07,0,0,0,2.74.72,2,2,0,0,0,.72-2.74,74,74,0,0,1-9.89-17.71,2,2,0,0,0-3.34-.89l-19,14.79a2,2,0,0,0,0,2.83,2,2,0,0,0,2.83,0Z"/><path d="M54.44,356.13c10.59-5.62,21.27-11.34,30.26-19.4,4-3.55,7.58-7.55,12-10.61a32,32,0,0,1,3.2-2c.59-.31,1.18-.61,1.79-.87a7.35,7.35,0,0,1,1.53-.56,5.82,5.82,0,0,1,.57,1.37l.88,2.21a17.24,17.24,0,0,0,1.85,4,4.82,4.82,0,0,0,6.64,1.29c1.69-1.08,3-3.3,5-3.76,2.51-.57,1.44-4.43-1.07-3.86-2.14.49-3.61,2.13-5.19,3.53a4.66,4.66,0,0,1-1.37.94c-.76.05-1.22-1.17-1.5-1.83-.58-1.39-1.11-2.81-1.67-4.21s-1.17-2.77-2.67-3.33c-2.56-.94-5.7,1-7.86,2.24-4.78,2.81-8.71,6.81-12.72,10.58a92.65,92.65,0,0,1-13.73,10.67c-5.79,3.71-11.87,6.93-17.94,10.15-2.28,1.21-.26,4.66,2,3.46Z"/><path d="M294,343.67A58,58,0,0,1,305.45,365a2,2,0,0,0,3.66.47c2.41-3.82,6.81-5.51,10.88-7,4.62-1.64,9.3-3.17,13.16-6.32,1.66-1.35-.17-3.73-1.95-3.34l-2.15.47c-2.51.55-1.45,4.4,1.07,3.86l2.15-.47-1.95-3.35c-3.7,3-8.56,4.22-12.95,5.86-4.6,1.73-9,4-11.71,8.25l3.65.47a62.81,62.81,0,0,0-12.5-23c-1.67-2-4.49.88-2.83,2.83Z"/><path d="M297.25,345.16a58.61,58.61,0,0,0,26.48-16l-3.34-.88A65.58,65.58,0,0,0,332,347.23c1.71,1.94,4.53-.9,2.83-2.83a60,60,0,0,1-10.58-17.16,2,2,0,0,0-3.34-.88,54.65,54.65,0,0,1-24.72,14.94c-2.48.7-1.43,4.56,1.06,3.86Z"/><path d="M394.73,360.32a806.21,806.21,0,0,0-35.81-75.51q-2.71-5-5.51-10.05a45,45,0,0,1-2.55-4.67c-.37-.88-.78-3,.81-2.82,1.08.15,2-1,2-2a2.06,2.06,0,0,0-2-2c-3.67-.48-5.66,3.63-5,6.71a15.59,15.59,0,0,0,1.9,4.3c.94,1.67,1.87,3.33,2.79,5q5.32,9.62,10.38,19.36,10.21,19.73,19.34,40,5.08,11.29,9.82,22.76a2.06,2.06,0,0,0,2.46,1.4,2,2,0,0,0,1.39-2.46Z"/><path d="M355.39,259.63l-26.22-50.12-7.51-14.35a2,2,0,0,0-3.65.47c-.34,1.16-2.12.17-2.6-.32-1.46-1.48-2.28-3.73-3.22-5.55L305,175.84l-14.15-27.4-4-7.73c-.65-1.27-2.19-3.87-1-5.21a2,2,0,0,0,0-2.82A34.84,34.84,0,0,1,276,115.74c-.62-2.49-4.48-1.44-3.86,1.07A38.6,38.6,0,0,0,283,135.5v-2.82c-3.78,4.2.36,10,2.42,14l8.33,16.13c5.52,10.7,10.93,21.46,16.57,32.1,1.19,2.24,2.89,4.62,5.57,5.09a5.08,5.08,0,0,0,5.94-3.32l-3.66.48,26.22,50.11,7.51,14.36c1.19,2.28,4.64.26,3.45-2Z"/><path d="M430,331.29A6.44,6.44,0,0,1,424.28,321a2,2,0,0,0-1.73-3c-1.84,0-6.17-.13-4.49-3.06a11.71,11.71,0,0,1,3.48-3.46c.57-.39,2.61-1.53,3-.6.91,2.36,4.47,1.49,3.86-1.06-.51-2.15,1.43-4.78,3.73-4.6a3.91,3.91,0,0,1,3.15,4.95c-.58,1.86,2,3.46,3.35,1.95a4.84,4.84,0,0,1,5.51-1.42,4.78,4.78,0,0,1,2.64,5,2.08,2.08,0,0,0,1.39,2.46,5.6,5.6,0,0,1,1,9.71c-2.11,1.45-.11,4.92,2,3.46a9.55,9.55,0,0,0-1.93-17l1.39,2.46a8.57,8.57,0,0,0-14.83-7.52l3.34,1.95a7.94,7.94,0,0,0-6.9-10c-5-.28-8.82,5-7.7,9.65l3.86-1.06a5.17,5.17,0,0,0-6.86-2.84,15.25,15.25,0,0,0-6.7,5.61c-1.52,2.32-1.61,5.48.54,7.45,1.92,1.76,4.72,2,7.2,2l-1.73-3A10.43,10.43,0,0,0,430,335.29c2.56-.12,2.58-4.12,0-4Z"/><path d="M427.94,335.34l.73,2.24a2.11,2.11,0,0,0,.92,1.19,2.18,2.18,0,0,0,1.54.2,2,2,0,0,0,1.2-.91,2.1,2.1,0,0,0,.2-1.55l-.73-2.23a2.09,2.09,0,0,0-.92-1.2,1.62,1.62,0,0,0-.74-.24,1.56,1.56,0,0,0-.8,0,2,2,0,0,0-1.4,2.46Z"/><path d="M416.89,299.34a56.78,56.78,0,0,1,18.09-9,2,2,0,0,0,1.19-2.94l-3.51-5.18L432,285l31.51-16.33a2,2,0,0,0,.72-2.73A55.27,55.27,0,0,1,455.13,247c-.65-2.49-4.51-1.43-3.86,1.07a58.22,58.22,0,0,0,9.46,19.88l.71-2.74-31.51,16.33a2,2,0,0,0-.72,2.73l3.51,5.18,1.19-2.94a60,60,0,0,0-19,9.4,2.06,2.06,0,0,0-.72,2.74,2,2,0,0,0,2.74.71Z"/><path d="M448,247.78a390.64,390.64,0,0,1,55.79-19l-1.54-.2c1.65,1.21,1.91,3.66,1.52,5.52-.58,2.67-2.57,4.71-4.64,6.36-2.53,2-5.36,3.7-8.06,5.49l-9,5.93c-2.51,1.66-5.22,3.28-6.36,6.23s-.19,6.29.85,9.17c2.47,6.84,5,13.65,7.47,20.48L492.56,311c.87,2.4,4.74,1.36,3.85-1.07l-12-32.81-3-8.14c-.88-2.4-2.15-5-2.25-7.58-.09-2.38,1.37-3.73,3.21-5,2.31-1.56,4.65-3.09,7-4.63,4.41-2.92,9.15-5.61,13.17-9.06,3.33-2.86,5.79-6.87,5.25-11.4a8.66,8.66,0,0,0-2.66-5.54c-1.22-1.09-2.09-1-3.6-.61s-2.76.73-4.14,1.11q-8.16,2.24-16.21,4.82-17.92,5.76-35.25,13.22a2,2,0,0,0-.72,2.73,2.05,2.05,0,0,0,2.74.72Z"/><path d="M507.45,229.46l-4.28-11.06c-1.21-3.12-2.28-6.54-5.7-7.82a2,2,0,1,0-1.06,3.85,4.22,4.22,0,0,1,1.73,2.14c.63,1.3,1.13,2.79,1.67,4.18l3.79,9.77a2.05,2.05,0,0,0,2.46,1.4,2,2,0,0,0,1.39-2.46Z"/><path d="M400.22,199.14c22.63-.4,42.38-12.66,63.46-19.24a84,84,0,0,1,18-3.77l-1.73-1a38.61,38.61,0,0,0,4.51,8.06,33.93,33.93,0,0,1,2.65,3.23,11.06,11.06,0,0,1,1.09,4.18c1,6.79,1.94,13.59,2.92,20.38a2,2,0,0,0,2.46,1.4,2,2,0,0,0,1.39-2.46c-1-7-2-13.9-3-20.84a13.53,13.53,0,0,0-1.22-4.32,19.93,19.93,0,0,0-2.79-3.55,32.82,32.82,0,0,1-4.57-8.1,2,2,0,0,0-1.73-1c-22.51,1.92-42,14.39-63.41,20.25a73.67,73.67,0,0,1-18.06,2.76c-2.57.05-2.58,4.05,0,4Z"/><path d="M450.62,183.06a754.16,754.16,0,0,1-31.86-86.7c-.4-1.33-1.62-3.7-.71-5a12.72,12.72,0,0,1,2.2-2l2.58-2.26,10-8.69-3.34-.88,24.19,77,6.87,21.87c.77,2.45,4.64,1.4,3.86-1.06l-24.19-77-6.87-21.88A2,2,0,0,0,430,75.6l-9.25,8.05c-1.52,1.33-3.06,2.65-4.57,4a6.34,6.34,0,0,0-2.46,4.42c-.08,1.89.73,3.82,1.26,5.6s1.16,3.82,1.75,5.73q1.75,5.72,3.62,11.41,7.46,22.89,16.36,45.27,5,12.6,10.47,25a2,2,0,0,0,2.73.72,2.05,2.05,0,0,0,.72-2.74Z"/><path d="M482.73,170.75,467.9,123.69l-7.34-23.3L457,89c-1.1-3.5-2.26-6.76-5.43-8.89s-7.09-2.78-10.65-3.56a130.19,130.19,0,0,0-13.18-2.16,2,2,0,0,0-2,2,2,2,0,0,0,2,2q5.64.64,11.18,1.82c3.14.66,6.62,1.21,9.49,2.69,3.12,1.6,3.9,4.51,4.88,7.64l3.6,11.41,14.08,44.69,7.94,25.2c.77,2.44,4.63,1.4,3.85-1.07Z"/><path d="M386.53,167.82a408.93,408.93,0,0,1-20.7-45.95,10.71,10.71,0,0,1-.93-2.78c0-.81.49-1.28,1.06-1.78a26.12,26.12,0,0,1,4-2.69,63.63,63.63,0,0,1,9.11-4.2c6.4-2.46,13.11-4.56,18.79-8.5a17.32,17.32,0,0,0,4.45-3.86c1.29-1.84.88-3.85-.06-5.74-2.2-4.37-4.53-8.69-6.8-13a2,2,0,0,0-2.26-.92,9,9,0,0,0-4.29,3.29,2,2,0,0,0,.72,2.74,2,2,0,0,0,2.74-.72,4.16,4.16,0,0,1,1.9-1.46L392,81.3l5.92,11.37a9.44,9.44,0,0,1,1.21,2.47c.11.7-.5,1.12-1,1.54a28.34,28.34,0,0,1-3.89,2.82c-5.84,3.59-12.47,5.48-18.77,8.06a54.37,54.37,0,0,0-9.18,4.61c-3.09,2-6.25,4.43-5.1,8.57.57,2,1.47,4,2.23,6s1.57,4,2.37,5.94q2.37,5.84,4.92,11.61,5.74,13,12.38,25.59c1.2,2.28,4.65.26,3.45-2Z"/><path d="M341.25,165.38q-7.29-17.62-15.9-34.64l-.32,2.42,4.45-4.49c1.24-1.25,2.79-2.49,3.49-4.15a4.52,4.52,0,0,0-.43-4.26c-.72-1.09-1.79-1.85-2.56-2.88-1.56-2.09,2.66-3,4-3.26,2.69-.46,5.86-1.2,7.26-3.83,1-2-.31-4.25-1-6.2l-2.34-6.84L337,99.51a422.64,422.64,0,0,1,54.39-19.24l-2.53-1.93a2.65,2.65,0,0,1-.49,2.11c-1.63,2,1.18,4.81,2.83,2.83a6.6,6.6,0,0,0,1.66-4.94,2,2,0,0,0-2.53-1.93A430.72,430.72,0,0,0,335,96.05a2,2,0,0,0-.92,2.26l3.75,10.94v-1.06c-.73,2-4.62,1.91-6.29,2.36-2.74.74-5.8,2.67-5.91,5.81a5.74,5.74,0,0,0,1.6,3.91c.55.64,1.93,1.52,2.1,2.37.1.49-.35.87-.67,1.21-.64.68-1.32,1.33-2,2l-4.46,4.49a2.09,2.09,0,0,0-.31,2.43q8.39,16.53,15.5,33.68a2.07,2.07,0,0,0,2.46,1.4,2,2,0,0,0,1.4-2.46Z"/><path d="M342,165.91l6.75,14.64,3.42,7.44,1.66,3.6a25.36,25.36,0,0,0,1.6,3.37c1.53,2.37,4.09,1.9,6.23.72,2.3-1.27,4.58-2.57,6.87-3.86l7.09-4a39.37,39.37,0,0,0,5.77-3.58,8.25,8.25,0,0,0,3.22-5.75,5.92,5.92,0,0,0-2.79-5.64c-2.23-1.3-4.24,2.15-2,3.46a2.27,2.27,0,0,1,.67,2.74,6.72,6.72,0,0,1-3.07,3.14c-3.6,2.25-7.41,4.2-11.1,6.27l-5.8,3.25c-.46.26-.92.56-1.41.78-.05,0-.39.14-.41.16-.27.38.07-.13.2.26a31.09,31.09,0,0,0-1.39-2.92l-5.6-12.16-6.44-14a2,2,0,0,0-2.74-.72,2,2,0,0,0-.71,2.74Z"/><path d="M211.35,361a14.87,14.87,0,0,1-11.4-4.67c-2.12-2.25-4.8-7.11-1.61-9.6,1.46-1.13.14-3.35-1.42-3.41a4.09,4.09,0,0,1-3.39-2.88c-.84-2.2-.22-4.7.42-6.86.84-2.87,2.21-7.26,5.35-8.4a5.45,5.45,0,0,1,2.41-.05,4.43,4.43,0,0,0,3-.79c1.54-1.08,2.36-2.75,4.29-3.26a4.86,4.86,0,0,1,6,5.65,2,2,0,0,0,3.34,1.94c1.17-.9,3.05,0,4,.84,1.65,1.45,2.11,3.9,2.49,5.95.45,2.4.59,4.89,2.34,6.75,1.36,1.44,2.87,2.41,3.87,4.17a11,11,0,0,1,.54,9.9c-.88,1.8-2.3,2.77-3.86,3.94a12.23,12.23,0,0,0-2.6,2.63,17.27,17.27,0,0,1-2.13,2.75,5.62,5.62,0,0,1-9.3-4.09c-.08-2.56-4.08-2.57-4,0a9.65,9.65,0,0,0,11.24,9.34,10.39,10.39,0,0,0,6.82-4.82,10.7,10.7,0,0,1,2.68-2.85,16.16,16.16,0,0,0,3.12-2.65,14.16,14.16,0,0,0,2.07-13.64,14.4,14.4,0,0,0-4.06-6.14c-.95-.82-1.89-1.44-2.21-2.71-.36-1.46-.51-3-.82-4.45-.65-3.11-1.92-6.14-4.68-7.93a7,7,0,0,0-8.3.19l3.34,1.94a8.8,8.8,0,0,0-11.09-10.52c-2.16.63-3.38,2-4.95,3.47-.66.62-1.21.33-2.08.27a6.87,6.87,0,0,0-2.8.42,9.9,9.9,0,0,0-4.34,3.45,24.45,24.45,0,0,0-4.4,12.07c-.45,4.82,2.4,10.18,7.71,10.37L195.51,344c-4.71,3.66-2.22,10.65.89,14.43A18.75,18.75,0,0,0,211.35,365c2.57-.1,2.58-4.11,0-4Z"/><path d="M251.8,329.15a9.43,9.43,0,0,1-15.29-10.63c.8-1.69-.91-3.88-2.73-2.74a3,3,0,0,1-3.56-.47,4.86,4.86,0,0,1-1.6-4.74,12.92,12.92,0,0,1,2.79-5.89c.56-.7,2.59-2.79,3.59-1.87a2,2,0,0,0,3.35-.88c1.14-3.58,5.56-5.4,9-4.27,4,1.32,6.08,5.85,5.73,9.85a2,2,0,0,0,2,2,2,2,0,0,0,2-2c.14-1.15,1.54-1.82,2.54-1.9a6.38,6.38,0,0,1,4.5,1.88,9.59,9.59,0,0,1,3.06,8.18,2,2,0,0,0,2.94,2.25c2.11-1,4.09,1.92,4.27,3.67.34,3.34-1.8,7-3.52,9.69a7.25,7.25,0,0,1-7.47,3.75c-3.5-.45-6.52-2.7-9.32-4.68-2.1-1.49-4.1,2-2,3.45,3,2.1,6.1,4.28,9.73,5a11.4,11.4,0,0,0,9.87-2.25c2.63-2.27,4.31-5.88,5.59-9s1.82-7.1-.22-10.1-5.56-4.53-8.94-2.95l2.94,2.26a13.67,13.67,0,0,0-5.64-13.29,9.09,9.09,0,0,0-7.77-1.49,6.57,6.57,0,0,0-4.55,5.56h4c.51-5.87-3.13-12.18-9-13.8a11.36,11.36,0,0,0-13.64,7.15l3.34-.88c-2.64-2.41-6.07-1.15-8.43,1a16.06,16.06,0,0,0-4.7,8.92,8.79,8.79,0,0,0,3,8.43,7,7,0,0,0,8.14.9l-2.73-2.74a13.87,13.87,0,0,0,4.21,17c5.19,3.77,12.88,2.88,17.36-1.56,1.83-1.82-1-4.65-2.83-2.83Z"/><path d="M286.08,307c-1.45,1.13-3.7-1-4.23-2.2-1.22-2.89.81-6.49,2.1-9a2,2,0,0,0-2.26-2.94,16.12,16.12,0,0,1-11.14-1.5,8.79,8.79,0,0,1-4.25-9.87c1.13-4.85,4.72-8.55,8.54-11.5,2.08-1.6,4.27-3.14,6.5-4.53,2-1.25,4.13-2,6.14-.37s3.2,4.24,4.08,6.56a29.68,29.68,0,0,1,1.9,8.87,2,2,0,0,0,2.54,1.93c2.31-.86,4.74-1.81,7.25-1.69,1.65.07,3.64.86,4.38,2.44.88,1.89.23,4.25.76,6.25a7.32,7.32,0,0,0,1.73,3,3.51,3.51,0,0,1,1.18,2.69c0,3.81-.66,8.44-2.7,11.73a8.13,8.13,0,0,1-1.81,2.07c-.88.71-1.92,1.18-2.74,2-1.34,1.3-1.71,3.52-3.79,3.82-4.84.71-6.83-5.11-8-8.67-.81-2.43-4.67-1.39-3.85,1.07,1.6,4.8,3.89,10.39,9.48,11.45a7.49,7.49,0,0,0,6.89-1.85c.88-.93,1.29-2.29,2.26-3.12s2.17-1.39,3.12-2.31c3.7-3.6,4.51-9.08,5-14a13.76,13.76,0,0,0,0-3.95c-.3-1.68-1.33-2.63-2.33-3.91a5.15,5.15,0,0,1-.75-3.22,12.86,12.86,0,0,0-.56-4.14,8.56,8.56,0,0,0-6.49-5.16c-3.48-.66-6.85.43-10.08,1.62l2.53,1.93a33.26,33.26,0,0,0-1.89-9.52,23.29,23.29,0,0,0-4.46-8,8.34,8.34,0,0,0-8-2.73c-3.09.7-5.84,3-8.37,4.81-5,3.59-9.83,7.82-11.89,13.84-1.76,5.15-.63,11,3.69,14.48,4.48,3.64,10.67,4.44,16.19,3.29l-2.26-2.94c-2.08,4.05-4.57,9.54-1.62,13.83,2.28,3.33,6.67,4.84,10,2.21a2,2,0,0,0,0-2.83,2.05,2.05,0,0,0-2.83,0Z"/><path d="M260.79,254.05c-3,1.65-6.83-.25-8.47-3-2.36-3.92-.85-9,1.37-12.58.72-1.18-.19-3.21-1.73-3-3.5.45-7.54-.39-9.4-3.7a6.17,6.17,0,0,1-.63-4.62c.49-1.68,1.94-2.85,3.18-4a16.54,16.54,0,0,0,3.68-4.4c.86-1.64,1.41-3.61,2.72-5,2.14-2.22,5.95-1.51,8.16.24,3.36,2.65,4,7.54,3.94,11.52A2,2,0,0,0,267,227c1.43-1.13,3.39-2.73,5.36-2.58,1.61.13,2.71,1.57,3.6,2.76,2.46,3.3,4.8,6.72,4.26,11a20.61,20.61,0,0,1-5.18,10.51c-1.06,1.2-2.43,2.49-4.1,2.71a3,3,0,0,1-3.32-1.65c-.82-1.79-3.88-.91-3.73,1a4.25,4.25,0,0,1-4.28,4.61c-2.57-.07-2.57,3.93,0,4a8.27,8.27,0,0,0,8.28-8.61l-3.73,1c1.57,3.46,6.05,4.36,9.32,3,3.84-1.58,6.58-5.58,8.41-9.16,1.95-3.8,3.06-8.18,2-12.41a18.7,18.7,0,0,0-2.85-5.85,26.49,26.49,0,0,0-3.85-4.9,7.37,7.37,0,0,0-6.34-1.94c-2.54.43-4.68,2-6.65,3.62l3.41,1.41c.05-4.84-.91-10-4.37-13.66-3.05-3.19-8.23-4.5-12.29-2.56a10.26,10.26,0,0,0-4.61,5.29,26.43,26.43,0,0,1-1.49,3,12.36,12.36,0,0,1-2.29,2.5c-1.76,1.6-3.47,3.2-4.31,5.49a9.63,9.63,0,0,0,.19,6.75c2.13,5.38,8,7.84,13.52,7.13l-1.73-3c-3,5-4.6,12-1,17.17,3,4.26,8.82,6.49,13.58,3.86,2.26-1.24.24-4.7-2-3.45Z"/><path d="M148.39,394.74c-3.78,1.58-7.77-1.71-8.46-5.44-.91-4.87,2.82-9.4,6.37-12.18a2,2,0,0,0,.16-2.63,2,2,0,0,0-2.58-.52c-.76.35-1.7-.52-2.08-1.06a3.86,3.86,0,0,1-.08-3.7,18.1,18.1,0,0,1,5.5-6.84c1.92-1.54,4.49-2.76,7-2.07,1.81.5,4.14,2.21,3.84,4.36A2,2,0,0,0,159.2,367a2,2,0,0,0,2.49-.82,5.41,5.41,0,0,1,7-2c2.81,1.38,4,5,3.29,7.91a10.32,10.32,0,0,0-.47,3.21,5.13,5.13,0,0,0,1.39,2.91,9.31,9.31,0,0,1,2,4.15c.55,2.76-.34,6.08-3,7.39-2.48,1.2-5.94.64-7.32-1.89a2,2,0,0,0-3.14-.41,22.72,22.72,0,0,1-14,8.52c-2.53.46-1.46,4.32,1.06,3.86a25.92,25.92,0,0,0,15.76-9.55l-3.14-.4c2,3.66,6.42,5,10.36,4.21,4.41-.93,7.18-4.85,7.55-9.19a12.63,12.63,0,0,0-1.2-6.37,12.46,12.46,0,0,0-1.77-2.72c-.31-.39-.57-.62-.59-1.13a10.53,10.53,0,0,1,.46-2c.8-4.44-.93-9.43-5-11.76-4.26-2.46-10.3-1.07-12.72,3.3l3.66,1.54c1-7-6.86-11.19-12.89-8.92a19.21,19.21,0,0,0-7.88,6.05c-2.26,2.77-4.56,6.32-3.65,10.07s4.85,6.11,8.42,4.51l-2.43-3.14c-4.84,3.8-9.08,10.31-7.24,16.72,1.53,5.33,7.65,9.91,13.22,7.59a2.07,2.07,0,0,0,1.4-2.46,2,2,0,0,0-2.46-1.4Z"/><path d="M235.66,413.07a12,12,0,0,1-7.07-20.63l-3.34-1.95a.56.56,0,0,1,.66-.31l.72.72c-1.58-2.82,1.8-5.36,4.19-5.88a16.59,16.59,0,0,1,5.31-.07c2,.21,4,.62,5.87-.23,1.6-.71,2.42-2.24,3.83-3.16a5.38,5.38,0,0,1,4-.75,5.19,5.19,0,0,1,3.73,6.7,2,2,0,0,0,1.16,2.36,2,2,0,0,0,2.5-.82c1.59-2.08,5-2.39,7.16-1.24,3.18,1.66,3.21,5.89,3.06,9s-.18,7.28-2.47,9.69c-2.58,2.7-6.79,1.44-9.51-.34a2,2,0,0,0-2.74.72c-1.67,3-3.65,6.07-6.64,7.91-2.65,1.65-6.07,2.19-8.83.51a2,2,0,0,0-2.73.71c-.24.47-.41.47-.87.29l1.4,1.4a1.42,1.42,0,0,1-.41.86h-1.07l.27,0a2.06,2.06,0,0,0,2.46-1.4,2,2,0,0,0-1.39-2.46A3.17,3.17,0,0,0,231.6,416a2.93,2.93,0,0,0,.07,3.67c1.85,1.85,5.26.4,6.27-1.61l-2.74.72c3.74,2.28,8.45,1.91,12.21-.12,3.92-2.11,6.62-5.93,8.74-9.73l-2.74.72c3.16,2.06,7.45,3.24,11.12,1.82s5.65-5.08,6.3-8.91c1.14-6.71,1.63-17.21-6.92-19.09a9.93,9.93,0,0,0-10.18,3.6l3.66,1.55a9.42,9.42,0,0,0-3.53-10.32,9.32,9.32,0,0,0-11,.56c-.72.59-1.26,1.37-2,2a3.46,3.46,0,0,1-2.66.42,33.56,33.56,0,0,0-6.49-.34c-4.08.41-7.9,2.52-9.13,6.66-.54,1.83-.51,5,1.31,6.12a3.52,3.52,0,0,0,5.21-2.08,2,2,0,0,0-3.34-1.95,16,16,0,0,0,8.84,27.32,2.07,2.07,0,0,0,2.46-1.4,2,2,0,0,0-1.4-2.46Z"/><path d="M234.35,516.46l-7.16-13.13L223.73,497l-1.79-3.28c-.37-.69-1.18-1.75-.82-2.55s1.23-1.12,1.83-1.5l3.37-2.14,6.13-3.88,12.67-8C261,465.55,276.78,455.1,293.25,446a211.9,211.9,0,0,1,27.81-13.13l-2.25-.92L324.45,443l2.7,5.32,1.36,2.66a5.45,5.45,0,0,0,.64,1.33c0,.09.07.18.11.28,1-1,1.64-.86,2,.48l-.27,1,.09-.19c1.15-2.3-2.3-4.33-3.45-2-1.26,2.53,1.62,5,4.05,3.71,3.13-1.68.82-5.57-.27-7.73l-9.14-17.95A2,2,0,0,0,320,429c-18,6.78-34.55,16.51-50.77,26.67-8.52,5.34-17,10.75-25.49,16.12l-13.31,8.43-6.34,4c-1.92,1.21-4.32,2.33-5.81,4.09-1.85,2.19-1.28,4.67,0,7,1.37,2.56,2.78,5.1,4.17,7.66l8.47,15.53c1.24,2.26,4.69.25,3.46-2Z"/><path d="M121.43,455.85c-5.53-7.38-11.06-14.78-15.87-22.65-4.69-7.68-8.53-15.79-13.82-23.1a117.14,117.14,0,0,0-9.59-11.6c-1.77-1.88-4.6.95-2.83,2.83A109.89,109.89,0,0,1,94.73,422.1C97,426,99,430.1,101.38,434s4.83,7.67,7.44,11.37c3,4.22,6.06,8.36,9.16,12.49a2.05,2.05,0,0,0,2.73.71,2,2,0,0,0,.72-2.73Z"/><path d="M47.4,415.32a187.32,187.32,0,0,0,35.28-18.56l-2.94-1.19a8.53,8.53,0,0,0,3.34,4.17c2.15,1.43,4.16-2,2-3.45a3.88,3.88,0,0,1-1.5-1.78,2,2,0,0,0-2.94-1.2,181.75,181.75,0,0,1-34.33,18.15,2.06,2.06,0,0,0-1.39,2.46,2,2,0,0,0,2.46,1.4Z"/><path d="M118.27,458.37c7.53-2.46,13.06-8.38,19.85-12.21s14.23-6.23,21.34-9.37a61.07,61.07,0,0,0,11.59-6.51l-2.74-.72a95.48,95.48,0,0,1,10.46,24.27l3.65-1.54-.61-1c-1.33-2.2-4.79-.19-3.46,2l.62,1a2,2,0,0,0,3.66-1.54,100,100,0,0,0-10.86-25.23,2,2,0,0,0-2.74-.72c-6.19,4.58-13.4,7.31-20.48,10.16-3.6,1.46-7.2,2.95-10.65,4.74a72.75,72.75,0,0,0-9.62,6.26c-3.44,2.56-7,5.19-11.07,6.54-2.44.79-1.39,4.66,1.06,3.85Z"/><path d="M104.58,490.73a97.44,97.44,0,0,1,15.57-31.84l-3.72-1-.09,1.86c-.12,2.57,3.88,2.56,4,0l.09-1.86c.1-2.17-2.66-2.47-3.73-1a100.5,100.5,0,0,0-16,32.79c-.69,2.49,3.17,3.55,3.86,1.07Z"/><path d="M113.26,487.26c.22-3.15,1.86-6,3.33-8.7l5.35-9.89,10.58-19.55c1.23-2.26-2.23-4.29-3.45-2L118,467.53c-1.8,3.34-3.62,6.68-5.42,10-1.65,3.07-3.08,6.2-3.33,9.71-.19,2.57,3.81,2.56,4,0Z"/><path d="M538.36,286.78c-3-14.18-5.43-28.49-7.08-42.89q-1.23-10.69-1.94-21.44c-.24-3.57-.44-7.16-.59-10.74,0-.82-.07-1.63-.1-2.44a3.92,3.92,0,0,1,.09-1.9c.25-.42.9-.61,1.32-.79.87-.38,1.75-.72,2.62-1.08a147.8,147.8,0,0,0,20.49-10.62l-2.43-3.14-1.69,1.79c-1.77,1.88,1.06,4.71,2.83,2.83l1.69-1.79c1.52-1.61-.43-4.38-2.42-3.14a145.73,145.73,0,0,1-19,10c-2.84,1.23-6.84,2-7.42,5.63a25.43,25.43,0,0,0,0,5.16c.08,2,.18,3.91.29,5.86q1.29,22.49,4.79,44.78,2,12.56,4.65,25c.54,2.52,4.4,1.45,3.86-1.06Z"/><path d="M514.83,200.85c.25,0,.3,0,.15,0l.45.07.9.16c.52.1,1,.21,1.55.34a30,30,0,0,1,3.37,1.07,27.13,27.13,0,0,1,2.82,1.34,28.82,28.82,0,0,1,3,1.89,2,2,0,1,0,2-3.45,30.35,30.35,0,0,0-14.24-5.43,2,2,0,0,0-2,2,2.05,2.05,0,0,0,2,2Z"/><path d="M513.36,199.17l19.25-8.51a19.61,19.61,0,0,1,4.45-1.72c1.53-.25,3,.57,4.4,1.15l9.64,4.1a2.07,2.07,0,0,0,2.74-.72,2,2,0,0,0-.72-2.73l-10.31-4.39a12.93,12.93,0,0,0-5.42-1.46,14.12,14.12,0,0,0-5,1.52l-21.07,9.31a2,2,0,0,0-.72,2.73,2.05,2.05,0,0,0,2.74.72Z"/><path d="M511.75,199.43l2.82,40.63L516,260.38l.69,9.91c.22,3.12.56,6,2.59,8.55s5,4.07,7.6,5.76l9.46,6.12c2.17,1.4,4.18-2.06,2-3.45L530.11,282a50.43,50.43,0,0,1-6.86-4.7c-2.1-1.93-2.39-4.24-2.58-7l-.69-9.91-2.7-38.9-1.53-22c-.18-2.56-4.18-2.57-4,0Z"/><path d="M514.55,173.7q-2-8.58-3.83-17.2-.9-4.19-1.77-8.38c-.54-2.63-1.23-5.29-1.54-8-.24-2-.24-4.33,1.27-5.9,1.34-1.39,3.36-2,5.06-2.85a12.11,12.11,0,0,0,5-4,13.92,13.92,0,0,0,2-6.65,64,64,0,0,0-.85-14.62,79.83,79.83,0,0,0-3.59-14.44,82.09,82.09,0,0,0-14.49-25.6c-1.69-2-3.48-4.29-5.82-5.59-2.71-1.49-5.5-1-8.12.38-5.66,3.1-11.1,6.7-16.62,10l2.94,1.19a102.55,102.55,0,0,0-12.08-22.75q-1.92-2.7-4-5.28c-1.15-1.43-2.42-3.43-4.34-3.88a3,3,0,0,0-3.89,2.85,2.69,2.69,0,0,0,3.32,2.83c2.52-.55,1.45-4.4-1.06-3.86l.18-.05,1,.28a.85.85,0,0,1,.51.9c.06.5-.26.81-.95.93,0,.14.13.14.2.24a17.65,17.65,0,0,0,1.5,1.74q1.44,1.74,2.78,3.55c1.78,2.39,3.45,4.87,5,7.41a98.08,98.08,0,0,1,7.95,16.16,2,2,0,0,0,2.94,1.19l14.46-8.75c1.79-1.08,3.91-2.8,6.08-1.75,1.93.94,3.41,3,4.77,4.57a76.8,76.8,0,0,1,13.87,24.32c3,8.69,4.93,18.35,4.32,27.6-.14,2-.55,4.16-2,5.63s-3.25,2-4.94,2.81a12.17,12.17,0,0,0-4.75,3.51,10.07,10.07,0,0,0-1.8,6.43,48.17,48.17,0,0,0,1.34,8.27c.62,3,1.26,6.08,1.9,9.11q2,9.33,4.14,18.64c.58,2.5,4.44,1.44,3.86-1.07Z"/><path d="M516.92,170.49l-1.19-1.29c-1.39-1.52-3.8.08-3.34,1.94a7.24,7.24,0,0,1-.38,4.59c-.64,1.59,1.15,2.65,2.46,2.46a215.14,215.14,0,0,0,37-8.83c1.77-.59,2-3.38,0-3.86a3.83,3.83,0,0,0-4,1.23,2.06,2.06,0,0,0,0,2.83,2,2,0,0,0,2.83,0c.5-.64.2-.17.08-.2V165.5a214,214,0,0,1-37,8.83l2.46,2.46a10.78,10.78,0,0,0,.39-6.71L512.9,172l1.19,1.29c1.74,1.9,4.57-.93,2.83-2.83Z"/><path d="M342.32,161.73l-11.86-28-.86,1.51c5.2-.45,9.69-3.07,14-5.81s8.91-5.85,14.21-6.32l-1-.74a252.44,252.44,0,0,0,6.85,24.93q1,3.07,2.11,6.11l.57,1.58a4.36,4.36,0,0,1,.46,1.26c0,.54-.55.54-1,.7l-1.65.54-12.78,4.18c-1.73.57-9,3.89-9.78.41-.27-1.26-2.2-.73-1.93.53.7,3.25,4.72,3.23,7.28,2.58,2.4-.6,4.75-1.52,7.09-2.29l7.34-2.4,3.78-1.24a10.08,10.08,0,0,0,2.93-1.11c1.71-1.28.2-3.75-.34-5.27q-2.55-7.09-4.68-14.34-2.42-8.28-4.28-16.7a1,1,0,0,0-1-.73c-5.21.47-9.69,3.1-14,5.83s-8.91,5.84-14.21,6.3a1,1,0,0,0-.86,1.5l11.85,28c.5,1.18,2.22.16,1.73-1Z"/><path d="M345.94,158.26a79.54,79.54,0,0,0-3.45-9.2c-.69-1.52-1.42-3-2.21-4.5a50,50,0,0,1-2.49-4.54c-.8-2,1.13-2.85,2.59-3.75s2.86-1.72,4.33-2.51a81.23,81.23,0,0,1,9.5-4.33c1.19-.45.68-2.39-.53-1.93a86.41,86.41,0,0,0-10.18,4.64c-1.73.94-3.44,1.94-5.1,3-1.23.79-2.52,1.66-2.8,3.2s.63,3.09,1.4,4.43q1.44,2.46,2.69,5a75.1,75.1,0,0,1,4.33,11,1,1,0,0,0,1.92-.53Z"/><path d="M344.93,160.76l9.73-4.31,4.78-2.12,2.39-1.06,1.1-.48.76-.34c.43-.06.58-.37.47-.93l.77.11-.16-.08c-1.16-.55-2.17,1.17-1,1.73a1.52,1.52,0,0,0,1.46-2.65,2.63,2.63,0,0,0-2.56.1c-1.29.56-2.57,1.14-3.86,1.71L343.92,159c-1.18.52-.16,2.24,1,1.73Z"/><path d="M355.57,150.46a21.89,21.89,0,0,1-10,3.27l1,.73-2.4-6.52-1.23-3.35c-.27-.73-1.34-2.63-.86-3.33a3,3,0,0,1,1.09-.67l1.61-.8,3.23-1.55q3.24-1.55,6.53-3c1.18-.52.16-2.24-1-1.73q-3.65,1.6-7.25,3.32c-1.2.57-2.4,1.15-3.59,1.74a4.91,4.91,0,0,0-2.49,1.91c-.53,1-.11,2.11.26,3.13l1.37,3.72,2.81,7.65a1,1,0,0,0,1,.73,24.2,24.2,0,0,0,11.05-3.54c1.09-.67.09-2.41-1-1.73Z"/><path d="M357.83,147a50.79,50.79,0,0,0-13.68,2.2l1.23.7-2.1-8-.46,1.13a50.07,50.07,0,0,1,12.95-4.94c1.26-.29.73-2.22-.53-1.93a51.75,51.75,0,0,0-13.43,5.15,1,1,0,0,0-.46,1.13l2.1,8a1,1,0,0,0,1.23.7A48.53,48.53,0,0,1,357.83,149a1,1,0,0,0,0-2Z"/><path d="M351.13,143.45l14.17.7c1.28.06,1.28-1.94,0-2l-14.17-.7c-1.29-.06-1.28,1.94,0,2Z"/><path d="M368.29,143.5a6.74,6.74,0,0,1-5.78-7.87l-.46.6a4.12,4.12,0,0,1,3.49,7.46c-1.13.62-.12,2.35,1,1.73a6.35,6.35,0,0,0,3.17-5.43,5.85,5.85,0,0,0-3.25-5.31,6.51,6.51,0,0,0-3.18-.72,5.56,5.56,0,0,0-1.57.27,2.24,2.24,0,0,0-.89.43,1.76,1.76,0,0,0-.37,1.05,8.76,8.76,0,0,0,7.83,9.79,1,1,0,0,0,1-1,1,1,0,0,0-1-1Z"/><path d="M359.64,134.75l-11.86,5.3a1,1,0,0,0-.36,1.37,1,1,0,0,0,1.37.36l11.86-5.3a1,1,0,0,0,.36-1.37,1,1,0,0,0-1.37-.36Z"/><path d="M399.76,222.18c21.51-11.15,44.8-18.22,68.17-24.3q9.82-2.55,19.7-5a1,1,0,0,0-.27-2l-1.6,0a1,1,0,0,0,0,2l1.6,0-.27-2c-23.54,5.83-47.21,11.71-69.72,20.9q-9.5,3.87-18.62,8.56c-1.14.59-.13,2.32,1,1.73Z"/><path d="M400.8,221A23.87,23.87,0,0,0,390,201.6v1.72l8.13-3.63c1.18-.53.16-2.25-1-1.73L389,201.6a1,1,0,0,0,0,1.72A21.82,21.82,0,0,1,398.8,221a1,1,0,0,0,2,0Z"/><path d="M399.25,220.27a69.94,69.94,0,0,1,3,19.06,1,1,0,0,0,1.26,1c24.06-5.71,48.19-11.44,71.45-19.92q9.81-3.57,19.36-7.84c1.13-.51.24-2-.77-1.83l-2.83.39c-1.27.18-.73,2.11.53,1.93l2.83-.39-.77-1.83c-22.5,10.11-46.33,16.82-70.22,22.72-6.69,1.66-13.4,3.25-20.11,4.85l1.27,1a72,72,0,0,0-3.05-19.6,1,1,0,0,0-1.93.54Z"/><path d="M446.35,229.9a4.08,4.08,0,0,1,.36.36l.2.24c-.08-.11,0,.05.06.09a4.64,4.64,0,0,1,.26.44l.12.23c.13.27,0-.15.06.14a5.55,5.55,0,0,1,.26,1c0-.18,0,.14,0,.14s0,.17,0,.26a5.12,5.12,0,0,1,0,.56,1,1,0,0,0,.73,1A6.25,6.25,0,0,0,454,233a3.74,3.74,0,0,0,.09-5.06,2.76,2.76,0,0,0-2.76-.93,1,1,0,1,0,.53,1.92c.11,0,.1,0-.05,0h.22l.26.08c-.24-.08-.05,0,0,0s.27.22.08,0c.07.07.14.13.2.2a.52.52,0,0,1,.1.11q-.12-.17,0,0a1.88,1.88,0,0,1,.12.18c0,.09.1.18.14.27-.12-.24,0,.05,0,.11s0,.19.07.29,0,.21,0,0q0,.3,0,.6c0-.28,0,0,0,.1s-.1.3,0,.17-.07.12-.08.14-.23.31-.1.16l-.24.26s-.25.21-.17.15l-.19.13-.31.17-.16.08c.1,0,.09,0,0,0l-.3.1a5.43,5.43,0,0,1-.67.16c-.12,0-.13,0,0,0l-.18,0-.33,0a5.61,5.61,0,0,1-.71,0l-.37,0c.22,0-.16,0-.19,0l.73,1a5.93,5.93,0,0,0-1.9-4.86,1,1,0,1,0-1.41,1.41Z"/><path d="M456.16,226a8.28,8.28,0,0,1,2.55,4.3,1,1,0,0,0,1.23.7,11.28,11.28,0,0,0,3.16-1,4,4,0,0,0,2.08-2.47c.43-2-1-4.58-3.33-4a1,1,0,0,0,.54,1.93c.12,0,.19,0,0,0,0,0,.32,0,.15,0s.08,0,.11,0,0,0-.08,0l.09.05c.06,0,.23.2.06,0l.16.16c.14.13-.08-.15,0,0l.12.2a2.12,2.12,0,0,1,.11.21c-.1-.22,0,0,0,.06l.06.23c0,.06,0,.29,0,.06,0,.16,0,.32,0,.48,0-.24,0,0,0,.05s-.1.31-.05.18-.05.1-.07.13-.16.24-.11.18l-.39.4c-.15.13.07,0-.11.08l-.25.17c-.17.1-.35.19-.53.28s.16-.06-.13.05l-.29.11q-.3.1-.6.18c-.43.12-.86.22-1.3.31l1.23.7a10.35,10.35,0,0,0-3.07-5.19,1,1,0,0,0-1.41,1.42Z"/><path d="M466.24,221.76c.71,2.85,2.84,5.52,6,5.65a5,5,0,0,0,3.74-1.41,4,4,0,0,0,1-3.66,3.69,3.69,0,0,0-2.8-2.93,1,1,0,1,0-.53,1.93,2,2,0,0,1,.33.08l.13,0s-.12-.06,0,0a1.61,1.61,0,0,1,.28.17c-.13-.09.08.08.12.12s.21.24.12.12a2,2,0,0,1,.16.24l.12.23s.07.18.09.24a3.38,3.38,0,0,1,.08.34.59.59,0,0,1,0,.14s0-.14,0,0,0,.23,0,.34v.15c0,.17,0-.13,0,0s0,.22-.08.33-.1.26,0,.13a2.09,2.09,0,0,1-.3.49,3,3,0,0,1-2.29.91,3.64,3.64,0,0,1-2.45-1.07,6.37,6.37,0,0,1-1.69-3.12,1,1,0,0,0-1.93.53Z"/><path d="M478.38,218.69a10.91,10.91,0,0,1,2.1,4.77,1,1,0,0,0,1.47.6,7.86,7.86,0,0,1,4.53-1.51,1,1,0,0,0,1-1,6.11,6.11,0,0,0-3.38-5.27,1,1,0,0,0-1.37.36,1,1,0,0,0,.36,1.37,4.12,4.12,0,0,1,2.39,3.54l1-1a9.74,9.74,0,0,0-5.54,1.78l1.47.6a13,13,0,0,0-2.61-5.65,1,1,0,0,0-1.42,0,1,1,0,0,0,0,1.41Z"/><path d="M487,213.42a9.66,9.66,0,0,0,1,4.05,4.85,4.85,0,0,0,3,2.45,4.47,4.47,0,0,0,3.43-.63,3.21,3.21,0,0,0,1.29-3.63,7,7,0,0,0-3.45-4,1,1,0,0,0-1,1.73,5.5,5.5,0,0,1,2.33,2.3,2.2,2.2,0,0,1,.26.76s0,.27,0,.32-.05.17,0,0a.8.8,0,0,0,0,.15c0,.09-.13.31,0,.11,0,.09-.09.17-.14.26s-.12.14,0,0a.52.52,0,0,0-.1.11l-.24.23.05,0-.13.08a1.17,1.17,0,0,1-.27.15.61.61,0,0,1-.14.07s.2-.06,0,0l-.34.1-.27.06c.23-.06-.06,0-.14,0h-.48c-.2,0,.1,0,0,0l-.58-.15c.22.06-.05,0-.12-.07l-.34-.22c-.13-.1.09.08,0,0a.86.86,0,0,1-.14-.13,2.72,2.72,0,0,1-.24-.24s-.25-.31-.16-.17l-.24-.37a3.72,3.72,0,0,1-.21-.39l-.09-.18,0-.09c0,.07,0,.07,0,0a8,8,0,0,1-.28-.87,6.52,6.52,0,0,1-.18-.9s0-.23,0-.11,0-.15,0-.17c0-.17,0-.34,0-.51a1,1,0,0,0-1-1,1,1,0,0,0-1,1Z"/><path d="M89.59,402.08c3.61,7.49,7,15.15,10.93,22.46a42.12,42.12,0,0,0,6.55,9.23,77,77,0,0,0,8.61,7.4c1.26,1,2.29,1.75,3.91,1.09,1.87-.77,3.65-1.89,5.44-2.83,1.32-.69,3.46-1.36,4.25-2.74s-.08-3.06-.71-4.38c-3.28-6.81-6.61-13.65-10.94-19.87a98.3,98.3,0,0,0-7.64-9.28c-2.6-2.93-5-6.08-5.79-10a1,1,0,0,0-1.47-.6l-5.15,3.9-2.48,1.88c-.38.29-.76.59-1.15.87-.11.08-1.42.89-1.31.58.4-1.23-1.53-1.75-1.93-.53a2,2,0,0,0,1.16,2.43c1.29.56,2.49-.3,3.48-1.05l8.39-6.35-1.47-.6c1.18,6.29,6.27,10.61,10.19,15.27a90.27,90.27,0,0,1,11.08,17.65c.73,1.44,1.44,2.9,2.15,4.36l1.15,2.38a12.48,12.48,0,0,1,.59,1.29c.27.77.19,1.09-.47,1.55a42,42,0,0,1-4.7,2.47L119.62,440a1.8,1.8,0,0,1-2.48-.23,81.26,81.26,0,0,1-8.2-7,39.23,39.23,0,0,1-6.37-8.71c-2-3.54-3.64-7.24-5.4-10.89l-5.85-12.16c-.56-1.16-2.28-.15-1.73,1Z"/><path d="M79.62,398.47l8-4.23-1.37-.36L89,397.46a1,1,0,0,0,1.37.36l7.87-5.1L102,390.3,104,389c.64-.42,1.53-1.34,2.33-.85a8.18,8.18,0,0,1,1.34,1.68l1.11,1.41q1.44,1.83,2.86,3.68c1.73,2.24,3.42,4.51,5.06,6.83a104.12,104.12,0,0,1,8.73,14.47c2.34,4.79,3.83,10,6.6,14.59a23.82,23.82,0,0,0,2.58,3.51c.84,1,2,1.94,1.89,3.33-.14,2.51-3.38,4.12-5.35,5-1.17.53-.16,2.26,1,1.73,2.15-1,4.52-2.38,5.7-4.52s.49-4.32-1-6.11a30.87,30.87,0,0,1-4.79-7.26c-1.27-2.7-2.28-5.53-3.46-8.27a96.11,96.11,0,0,0-9.37-16.4c-1.82-2.64-3.73-5.21-5.68-7.75-.92-1.2-1.84-2.38-2.77-3.56s-1.9-2.65-3-3.8-2.25-1-3.51-.27c-1.69,1-3.31,2.15-5,3.23l-9.94,6.44,1.37.36L88,392.87a1,1,0,0,0-1.37-.36l-8,4.23c-1.14.6-.13,2.33,1,1.73Z"/><path d="M76.52,458.57a1.43,1.43,0,0,0,.65,2.13c1.17.61,2.29.1,3.41-.36q4.52-1.83,8.92-3.95A156.52,156.52,0,0,0,107,446.48a1,1,0,0,0,.36-1.37,357.34,357.34,0,0,0-24.85-45.24c-.7-1.08-2.44-.08-1.73,1a358.67,358.67,0,0,1,24.86,45.24l.35-1.37a153.21,153.21,0,0,1-13.8,8.05c-2.33,1.2-4.7,2.34-7.09,3.43-1.26.57-2.52,1.12-3.8,1.65l-1.71.71c-.31.13-.69.23-1,.38a.45.45,0,0,1-.28,0q-.47-.14-.09.6c.73-1.07-1-2.07-1.73-1Z"/><path d="M41.77,389.59c.27-2.52-4.6-.76-2.45,1.3,1.12,1.07,2.69.28,3.84-.28l5.67-2.77a227.36,227.36,0,0,0,21.79-12.28c6.89-4.41,13.58-9.11,20.21-13.88s13.06-9.35,19.43-14.24a167.88,167.88,0,0,0,20.11-17.75c.88-.93-.53-2.35-1.42-1.41-9.59,10.16-20.87,18.48-32.15,26.64-11.46,8.29-22.93,16.63-35.14,23.79q-5.2,3-10.58,5.77c-1.88.95-3.76,1.88-5.66,2.81l-2.62,1.27a14.44,14.44,0,0,1-1.31.64,2.29,2.29,0,0,1-.77.23c.17,1.08-.14,1.13-.95.16-.13,1.28,1.87,1.27,2,0Z"/><path d="M104.72,328.2a78.37,78.37,0,0,0,22.55,1.55c1.28-.1,1.29-2.1,0-2a76.46,76.46,0,0,1-22-1.48c-1.25-.27-1.79,1.65-.53,1.93Z"/><path d="M45.82,386.71a45.21,45.21,0,0,0,3.73-9.22,67.81,67.81,0,0,0,1.55-9.28c.49-3.65,3.41-4.92,6.33-6.49s5.68-3.16,8.46-4.85a187.29,187.29,0,0,0,31.5-24.06c1.18-1.12,2.61-3.1,4.22-3.6s3.81,0,5.52.19l12.69,1.12c1.28.11,1.28-1.89,0-2l-11.72-1c-3.07-.27-6.52-1.19-9.08,1s-4.81,4.6-7.29,6.81-5.14,4.45-7.8,6.57A183,183,0,0,1,66.77,354c-2.88,1.8-5.82,3.53-8.79,5.17-2.51,1.38-5.59,2.54-7.39,4.88a8.71,8.71,0,0,0-1.53,4.59c-.21,1.93-.41,3.85-.81,5.76a42.31,42.31,0,0,1-4.16,11.32c-.61,1.14,1.12,2.15,1.73,1Z"/><path d="M95.72,286.87a60.77,60.77,0,0,1,12.16,4,1.06,1.06,0,0,0,1.21-.16c5.63-5,13.15-7.08,19-11.72,3.24-2.54,6.12-5.5,9.45-7.95a83.33,83.33,0,0,1,10.18-6.31c4.06-2.18,8.24-4.12,12.42-6.06l-1-1.73a10.66,10.66,0,0,0-3.76,3.7c-.68,1.1,1.05,2.1,1.73,1a8.51,8.51,0,0,1,3-3c1.12-.66.14-2.26-1-1.73-7.39,3.43-14.84,6.89-21.52,11.6-3.33,2.34-6.27,5.1-9.36,7.75a51,51,0,0,1-10,6.32,50.63,50.63,0,0,0-10.67,6.69l1.21-.16a63.05,63.05,0,0,0-12.63-4.2c-1.26-.27-1.79,1.66-.53,1.93Z"/><path d="M109,288.35l-4.91,15c-.3.91.74,1.45,1.47,1.13l23.76-10.41c1.17-.52.16-2.24-1-1.73l-23.76,10.41,1.47,1.13,4.91-15c.41-1.22-1.53-1.75-1.93-.53Z"/><path d="M263.66,373.19a9.44,9.44,0,0,1,3-18.46l-.27-2c-1.38.39-2.16-1.52-2-2.64.28-1.57,2.1-2.48,3.44-3a19.31,19.31,0,0,1,5.43-1.35c1.83-.12,4.21.71,4.18,2.9a1,1,0,0,0,1.51.87c2.64-1.32,5.74,1.09,6.36,3.68.82,3.44-1.59,6.76-4.06,8.86a1,1,0,0,0,.71,1.71,3.59,3.59,0,0,1,3.62,2.24,4.91,4.91,0,0,1-.83,4.71c-.85,1.16-2.35,1.8-2.91,3.17s.21,3,.18,4.51c-.05,2.77-1.7,5.89-4.6,6.49a5,5,0,0,1-5.95-3.56,1,1,0,0,0-1-.73c-2,.21-4.63.58-6.43-.7-1.28-.91-2-3-.7-4.16,1-.85-.45-2.26-1.42-1.41-1.88,1.66-1.49,4.55,0,6.33,2.08,2.44,5.65,2.24,8.53,1.94l-1-.73a6.67,6.67,0,0,0,5.17,4.92,7.16,7.16,0,0,0,7.16-2.47,9.69,9.69,0,0,0,2-7.89c-.21-1.15-.31-1.86.63-2.66a11.84,11.84,0,0,0,1.69-1.63,7.68,7.68,0,0,0,1.69-4.23c.22-3.27-2.52-6.44-5.9-6.14l.71,1.7c3.21-2.73,6-7.38,4.27-11.68-1.39-3.46-5.48-5.76-9-4l1.5.86c0-2.67-2.3-4.57-4.82-4.86a13.46,13.46,0,0,0-5,.67,19.45,19.45,0,0,0-3.85,1.39c-2.13,1.1-3.8,3.14-3.26,5.65.44,2,2.24,3.76,4.4,3.15a1,1,0,0,0-.26-2,11.44,11.44,0,0,0-3.57,22.39c1.23.4,1.75-1.54.53-1.93Z"/><path d="M242.53,381.84a9.72,9.72,0,0,1-9.31-9.53,8.42,8.42,0,0,1,2.5-6.35c1.55-1.41,3.82-2.21,5.66-.89l.24-1.82c-1.87.29-3.47-1.75-3.34-3.5a4.85,4.85,0,0,1,3.32-3.85,8.41,8.41,0,0,1,5.9.35,8.91,8.91,0,0,1,2.68,1.4c.36.31,1.55,1.58.89,2a1,1,0,0,0,1,1.72c1.45-.8,3.09.29,3.85,1.57,1,1.65.48,3.73-.16,5.41-.74,1.94-1.79,3.78-2.72,5.64-.5,1-1.81,4.86-3.37,4.37l.45,1.67,1.32-1.43c.87-.95-.54-2.37-1.42-1.42l-1.32,1.44a1,1,0,0,0,.44,1.67c2.61.83,4-2.12,5-4,1.41-2.8,3.17-5.64,4-8.68a6.92,6.92,0,0,0-1.29-6.79,4.73,4.73,0,0,0-5.75-1.18l1,1.72c2.49-1.63.45-4.7-1.45-5.86-2.85-1.74-6.69-2.72-9.89-1.43-2.6,1-4.84,3.64-4.4,6.59a5.19,5.19,0,0,0,5.81,4.49c.94-.15.86-1.39.24-1.83-2.24-1.61-5.13-1-7.24.51a10,10,0,0,0-3.9,7.65,11.74,11.74,0,0,0,11.28,12.33c1.29.06,1.29-1.94,0-2Z"/><path d="M262.54,282.15c-3.61,1.32-7.56-1.66-8.13-5.3-.67-4.24,2.57-8.05,6.13-9.82,1.07-.53.29-2-.77-1.83-1.72.36-2.44-1.88-2-3.17a6.83,6.83,0,0,1,3.67-3.38,12.16,12.16,0,0,1,9.8-.22,1,1,0,0,0,1.13-.46,4.29,4.29,0,1,1,7.6,3.93c-.63,1.13,1.1,2.14,1.72,1a6.28,6.28,0,1,0-11.05-6l1.13-.46a13.81,13.81,0,0,0-13.82,2c-1.62,1.38-2.84,3.55-2.19,5.71a3.93,3.93,0,0,0,4.51,2.88l-.77-1.83c-4.46,2.22-8.17,7.25-7,12.44,1,4.46,6,8,10.52,6.34,1.2-.44.68-2.38-.53-1.93Z"/><path d="M309.66,398.91a8.57,8.57,0,0,1,.11-16.61l-1-1.67c-.51.58-1.38,0-1.62-.6-.46-1.15.75-2.57,1.43-3.36a20,20,0,0,1,4.54-4c3.38-2.11,8.06-2.78,11.26.06a1,1,0,0,0,1.67-.44,13.65,13.65,0,0,1,6.08-8c1.48-.87,3.48-1.57,5.15-.81A2.87,2.87,0,0,1,339,367l1.93.53c1.25-3.43,4-6.77,8-6.5a4.53,4.53,0,0,1,4.05,2.67,3.85,3.85,0,0,1-.86,4.37,1,1,0,0,0,1.21,1.57c1.59-1.05,3.51.6,3.87,2.19.56,2.38-1.2,4.83-2.45,6.69a1,1,0,0,0,.36,1.37,2.42,2.42,0,0,0,3.55-2c.13-1.28-1.87-1.27-2,0a.39.39,0,0,1-.54.26l.36,1.37c1.75-2.62,3.88-6.16,2.23-9.34-1.16-2.25-4.06-3.81-6.39-2.28l1.21,1.57c3.7-3.34,1.2-9.29-3.28-10.27-5.41-1.18-9.55,3.09-11.26,7.79-.44,1.22,1.47,1.71,1.93.53a4.63,4.63,0,0,0-1.44-5.07,6.29,6.29,0,0,0-6.24-.94c-4.49,1.52-7.8,5.74-9.08,10.19l1.67-.44c-4.84-4.31-11.65-2.41-16.1,1.43-2,1.72-5.19,4.6-4.53,7.57.47,2.11,3.41,3.58,5,1.75a1,1,0,0,0-1-1.68,10.57,10.57,0,0,0-.12,20.47,1,1,0,0,0,.54-1.93Z"/><path d="M377,326.77c-2.87,4.28-7,8.82-12.69,8.28a6.21,6.21,0,0,1-5.41-3.77,5,5,0,0,1,1.23-5.74c.94-.78-.25-2-1.21-1.57-4.52,2.07-10.83,1.48-13.95-2.76-2.6-3.52-2.28-9.34,1.48-11.94a1,1,0,0,0-.77-1.83c-4.36.71-8.31-3.45-8.58-7.61-.31-4.68,2.92-8.84,6.74-11.18.78-.47.53-2-.51-1.86-.76.09-.78-.94-.71-1.52a4.2,4.2,0,0,1,1.5-2.41,9.1,9.1,0,0,1,5.94-2.31c4.83-.13,8.82,3.31,11.16,7.26a1,1,0,0,0,1.73-1c-3.18-5.36-9.12-9.55-15.58-7.88-2.56.66-5.5,2.42-6.46,5-.68,1.83-.15,5.14,2.42,4.84l-.5-1.86c-4.67,2.85-8.5,8.16-7.62,13.87.79,5.17,5.69,9.44,11,8.57l-.77-1.83c-4.65,3.22-5.42,10.17-2.2,14.68,3.74,5.23,11.17,6,16.69,3.48l-1.21-1.58a6.88,6.88,0,0,0-1.93,7.1,7.89,7.89,0,0,0,5.79,5.55c7,1.78,12.58-3.67,16.15-9,.72-1.07-1-2.07-1.73-1Z"/><path d="M473.15,311.31c-3.34,2.5-8.29.81-10.27-2.64-2.45-4.3-.18-9.75,3.16-12.83.78-.73-.06-1.85-1-1.67-1.86.35-4.66.81-5.57-1.4a5.17,5.17,0,0,1,.72-4.5c2.19-3.49,7.48-3.9,11-5.45a1,1,0,0,0-.51-1.86c-1.65.18-2-2.27-1.23-3.35,1.43-2,4.82-.95,6.62-.2l-.7-.7,0,.07.29-.7c-.06.07-.44-.18-.45-.19-1.07-.73-2.07,1-1,1.73a2.44,2.44,0,0,0,2.57.15,1.32,1.32,0,0,0,0-2.19,8.51,8.51,0,0,0-3.54-1,6.84,6.84,0,0,0-3.66.47,4.27,4.27,0,0,0-2.5,4.76c.29,1.75,1.63,3.37,3.54,3.16l-.5-1.87c-4.6,2.06-10.74,2.5-12.54,8.05a5.94,5.94,0,0,0,.7,5.54c1.79,2.22,4.78,1.89,7.28,1.42l-1-1.68c-4.05,3.75-6.47,10.47-3.3,15.52,2.58,4.12,8.72,6.19,12.84,3.09,1-.76,0-2.5-1-1.72Z"/><path d="M411.91,296.49c-1.27-6.62-8.46-9.1-12.24-14-2.84-3.67-2.31-8.13-1-12.31,1.47-4.74,3.26-9.29,4.32-14.16,1.19-5.48,1.89-11.06,2.59-16.61.15-1.2-1.6-1.24-2-.27L403,240.8c-.46,1.2,1.47,1.72,1.92.53l.62-1.63-2-.26c-.64,5.07-1.29,10.14-2.32,15.15A134.51,134.51,0,0,1,396.94,269c-1.35,4.13-2.18,8.69-.12,12.73,1.48,2.9,4.13,5,6.61,7,2.78,2.23,5.84,4.6,6.55,8.3.25,1.27,2.18.73,1.93-.53Z"/><path d="M341.63,110.68a4.93,4.93,0,0,1,2.08-2.11l-1.37-.36,3.41,6.51a6.07,6.07,0,0,0,1.58,2.31,3.52,3.52,0,0,0,2.75.38c4.94-.83,9.86-1.93,14.79-2.89,1.26-.24.73-2.17-.53-1.93L351.79,115c-.81.16-2.22.74-3.05.48s-1.34-2-1.69-2.63l-3-5.69a1,1,0,0,0-1.37-.36,6.94,6.94,0,0,0-2.8,2.83c-.61,1.14,1.12,2.15,1.73,1Z"/><path d="M450.24,178.39,458.46,165c.67-1.1-1.06-2.11-1.73-1l-8.21,13.37c-.68,1.1,1.05,2.1,1.72,1Z"/><path d="M443.51,176.46A76.32,76.32,0,0,0,455.37,155c.43-1.21-1.5-1.73-1.93-.53a73.58,73.58,0,0,1-11.34,20.57c-.78,1,.62,2.43,1.41,1.41Z"/><path d="M439.45,166.67l13-25.5c.58-1.15-1.14-2.16-1.73-1l-13,25.5c-.58,1.14,1.15,2.15,1.73,1Z"/><path d="M433.56,151a108.15,108.15,0,0,0,14.2-23.26c.52-1.17-1.2-2.18-1.73-1a106.06,106.06,0,0,1-13.88,22.86c-.8,1,.61,2.42,1.41,1.41Z"/><path d="M429.09,138.81a178.37,178.37,0,0,1,14-25.69c.7-1.08-1-2.08-1.73-1a177.89,177.89,0,0,0-14,25.7c-.52,1.16,1.2,2.18,1.72,1Z"/><path d="M425.65,124.8l13.19-25.74c.59-1.15-1.14-2.16-1.72-1l-13.2,25.74c-.59,1.15,1.14,2.16,1.73,1Z"/><path d="M422.24,110.86a125.06,125.06,0,0,0,11.44-24.81c.41-1.22-1.52-1.74-1.93-.53a122,122,0,0,1-11.24,24.33,1,1,0,0,0,1.73,1Z"/><path d="M421.32,97.36l9.41-17.25c.61-1.13-1.11-2.14-1.73-1l-9.41,17.25c-.61,1.13,1.11,2.14,1.73,1Z"/><path d="M457.93,164.84l21.58,6.65c1.23.38,1.76-1.55.53-1.93l-21.58-6.64a1,1,0,0,0-.53,1.92Z"/><path d="M453.43,153.1A246.77,246.77,0,0,0,476.37,163c1.21.45,1.73-1.48.54-1.92a241,241,0,0,1-22.47-9.68c-1.15-.56-2.16,1.16-1,1.73Z"/><path d="M448.93,142l22.17,10c1.16.53,2.18-1.2,1-1.72l-22.17-10c-1.16-.52-2.18,1.2-1,1.73Z"/><path d="M445.1,131.84a144,144,0,0,0,24,10.55c1.22.41,1.74-1.52.53-1.93a141.45,141.45,0,0,1-23.55-10.35c-1.13-.62-2.14,1.11-1,1.73Z"/><path d="M442.19,116.13a154.75,154.75,0,0,0,24.37,13.72c1.17.52,2.18-1.2,1-1.73A153.18,153.18,0,0,1,443.2,114.4c-1.06-.73-2.06,1-1,1.73Z"/><path d="M437.94,105.06a134.17,134.17,0,0,1,23.44,11.3c1.1.67,2.11-1.06,1-1.73a137.4,137.4,0,0,0-23.92-11.5c-1.21-.44-1.73,1.49-.53,1.93Z"/><path d="M434.93,89.53a58.47,58.47,0,0,1,23.43,13.07c.95.87,2.37-.54,1.42-1.42A60.86,60.86,0,0,0,435.46,87.6a1,1,0,0,0-.53,1.93Z"/><path d="M433.4,77.77a66.16,66.16,0,0,1,20.06,10c1,.76,2-1,1-1.73a67.48,67.48,0,0,0-20.54-10.15,1,1,0,0,0-.53,1.93Z"/><path d="M500.88,61.66l5.22-7.59a13.3,13.3,0,0,1,2.62-3.41c.67-.48,1.94-.55,1.74.58a6.48,6.48,0,0,1-.82,1.77c-.32.59-.66,1.19-1,1.77-.74,1.26-1.52,2.5-2.34,3.7a63.73,63.73,0,0,1-5.25,6.68c-.86,1,.55,2.37,1.42,1.41a65.1,65.1,0,0,0,9.24-13.2,4.14,4.14,0,0,0,.62-3.37A2.71,2.71,0,0,0,510,48.34c-2.55-.26-3.95,2.27-5.18,4.06l-5.67,8.25c-.74,1.07,1,2.07,1.72,1Z"/><path d="M507.65,71A19,19,0,0,1,513,60.83l-1,.26a1.64,1.64,0,0,1,1.18,2.07,12.44,12.44,0,0,1-1.67,3.65l-4.28,7.92c-.61,1.14,1.11,2.15,1.72,1L512.62,69c1-1.89,2.55-4,2.63-6.2a3.87,3.87,0,0,0-.83-2.51A2.63,2.63,0,0,0,512,59.16c-.45.13-.82.63-1.12,1s-.71.79-1,1.21a20.85,20.85,0,0,0-1.72,2.53,20.49,20.49,0,0,0-2.43,6.64c-.23,1.25,1.7,1.79,1.93.53Z"/><path d="M512.6,80.14a39,39,0,0,0,4.1-8l-1.23.7a4.21,4.21,0,0,1,2.45,5.78c-.64,1.22-2,1.9-3.1,2.7-1.22.93-2.28,2.09-2.23,3.72,0,1.28,2,1.29,2,0s1.62-2.26,2.63-3a6.53,6.53,0,0,0,2.93-3.76c.7-3-1-6.59-4.15-7.39a1,1,0,0,0-1.23.7,37,37,0,0,1-3.89,7.56c-.72,1.07,1,2.07,1.72,1Z"/><path d="M516.42,91.78l7-6.39-1.22.16c1.85,1.31,2.08,4.17,1,6-1.38,2.42-5,2-6,4.89-.41,1.22,1.52,1.75,1.93.53a2.36,2.36,0,0,1,1.35-1.2c.66-.33,1.36-.58,2-.92a6,6,0,0,0,2.84-3.27,6.68,6.68,0,0,0-2.19-7.79A1,1,0,0,0,522,84l-7,6.39c-1,.87.46,2.28,1.41,1.41Z"/><path d="M518.33,103.86l10.74-4.68-1.37-.36a6.08,6.08,0,0,1-7.37,8.62c-1.23-.39-1.75,1.54-.53,1.93a8.09,8.09,0,0,0,9.63-11.56,1,1,0,0,0-1.37-.36l-10.74,4.68a1,1,0,0,0-.35,1.37,1,1,0,0,0,1.36.36Z"/><path d="M520,113.32l11.53-.47-.86-1.51a9.69,9.69,0,0,1-11,3.49c-1.21-.43-1.74,1.5-.53,1.93a11.68,11.68,0,0,0,13.28-4.41,1,1,0,0,0-.86-1.5l-11.53.47c-1.28.05-1.29,2.06,0,2Z"/><path d="M520.33,120.39l7.28,2c1.1.31,2.24.56,3.31.93.22.08.7.21.8.45s-.16.34-.36.48a9.06,9.06,0,0,1-2.83,1,16.1,16.1,0,0,1-3.17.41,16.79,16.79,0,0,1-6.54-1.09c-1.21-.45-1.73,1.48-.53,1.93a18.66,18.66,0,0,0,12.32.24c1.56-.53,3.88-1.7,2.93-3.75-.77-1.67-3.31-1.93-4.86-2.36l-7.81-2.18a1,1,0,0,0-.54,1.93Z"/><path d="M519.66,130.59a39.54,39.54,0,0,1,14.51,9.79l.71-1.71A26.62,26.62,0,0,1,517,133.23c-1-.78-2.43.63-1.41,1.41a28.62,28.62,0,0,0,19.29,6,1,1,0,0,0,.7-1.71,41.74,41.74,0,0,0-15.39-10.3c-1.2-.46-1.72,1.47-.53,1.93Z"/><path d="M511.43,168c4.57-2.22,9.74-1.95,14.68-1.78a37.19,37.19,0,0,0,7.31-.07c2.61-.44,2.2-2.84,2.08-4.89l-.5-8.41-.24-4.2a5.26,5.26,0,0,0-.8-3,4.74,4.74,0,0,0-2.22-1.41c-1.29-.51-2.61-.93-3.93-1.34-2.5-.77-5-1.46-7.49-2.33-4.94-1.73-9.87-4.39-12.5-9.11-.62-1.13-2.35-.12-1.72,1,4.52,8.12,14.15,10.09,22.28,12.71a24.12,24.12,0,0,1,3.22,1.14c1.31.65,1.14,2,1.21,3.33l.47,7.91.22,3.71a10.21,10.21,0,0,1,.11,2c-.15,1-.56,1-1.45,1-2.3.11-4.61,0-6.92-.06-5-.17-10.17-.18-14.82,2.09-1.16.56-.14,2.29,1,1.72Z"/><path d="M535.14,165.6a46.88,46.88,0,0,1,13.64.12A1,1,0,0,0,550,165a1,1,0,0,0-.69-1.23,50.36,50.36,0,0,0-14.71-.12,1,1,0,1,0,.53,1.93Z"/><path d="M521.13,196.93a56.42,56.42,0,0,1,14,5.5c1.12.63,2.13-1.1,1-1.72A58.48,58.48,0,0,0,521.66,195a1,1,0,0,0-.53,1.93Z"/><path d="M528.4,194.31a45.75,45.75,0,0,0,10.61,4c1.25.3,1.78-1.63.53-1.93a43.27,43.27,0,0,1-10.13-3.79c-1.14-.6-2.15,1.13-1,1.73Z"/><path d="M535.65,191.17a15.61,15.61,0,0,0,7.1,3.35,1,1,0,0,0,1.23-.7,1,1,0,0,0-.7-1.23,13.68,13.68,0,0,1-6.22-2.83,1,1,0,0,0-1.41,1.41Z"/><path d="M510.76,192.31,492,176.79c-1-.81-2.41.6-1.41,1.42l18.8,15.52c1,.81,2.41-.6,1.41-1.42Z"/><path d="M490.23,179q14.49-.69,29-.73a1,1,0,0,0,0-2q-14.5,0-29,.73c-1.28.06-1.29,2.06,0,2Z"/><path d="M488.67,177.08q2,18.91,2.12,37.95a1,1,0,0,0,2,0q-.14-19-2.12-37.95c-.14-1.27-2.14-1.28-2,0Z"/><path d="M490.31,206.76l20.81,22.34c.88.94,2.29-.48,1.41-1.42l-20.8-22.33c-.88-.94-2.29.47-1.42,1.41Z"/><path d="M514.34,224q-.47-15.22.52-30.44a1,1,0,0,0-1-1,5.19,5.19,0,0,1-3.62-1c-.81-.57-1.93.56-1.37,1.37a25.58,25.58,0,0,0,4.24,4.76l1.41-1.42-4.95-4a1,1,0,0,0-1.67,1,5.26,5.26,0,0,0,1.72,3.2c.95.86,2.37-.55,1.41-1.42a3.51,3.51,0,0,1-1.2-2.31l-1.67,1,4.95,4c1,.8,2.39-.56,1.41-1.42a23.5,23.5,0,0,1-3.92-4.35l-1.37,1.37a6.88,6.88,0,0,0,4.63,1.24l-1-1q-1,15.21-.52,30.44c0,1.29,2,1.29,2,0Z"/><path d="M213.12,352.68a4.48,4.48,0,0,1-4.76-7.56,1,1,0,0,0-.5-1.87,6.21,6.21,0,0,1-4.61-10.6c.88-.93-.53-2.35-1.42-1.41a8.22,8.22,0,0,0,6,14l-.51-1.86a6.48,6.48,0,0,0,6.78,11c1.15-.58.14-2.31-1-1.73Z"/><path d="M245.79,325.67a4.33,4.33,0,0,1-3.38-4.28,3.74,3.74,0,0,1,.25-1.28,6.12,6.12,0,0,0,.82-2.24c0-1.46-1.9-2.78-3-1.52-.87,1,.54,2.37,1.41,1.42-.09.1-.27.07-.39.06s.06.11,0,0c0,.11,0,.07,0,.05a2.14,2.14,0,0,1-.09.34,15,15,0,0,0-.76,1.69,5.9,5.9,0,0,0,0,3.28,6.19,6.19,0,0,0,4.59,4.42,1,1,0,0,0,1.23-.7,1,1,0,0,0-.7-1.23Z"/><path d="M270.08,280.5a8.17,8.17,0,0,0,7.26,7.3,6.86,6.86,0,0,0,2.67-.22c1.23-.35,2.42-1.12,3.63-.34a29.28,29.28,0,0,1,3.06,2.61l3.22,2.79c1,.84,2.38-.57,1.41-1.42-1.92-1.67-3.82-3.37-5.78-5A5,5,0,0,0,283,284.9a7.77,7.77,0,0,0-3.38.7,6.07,6.07,0,0,1-7.57-5.1c-.1-1.27-2.1-1.28-2,0Z"/><path d="M355.33,316.37c-.46.77-1.6.49-2.18,0-1.06-.89-.72-2.67-.4-3.81a24.44,24.44,0,0,1,4.4-8.17,1,1,0,0,0-.71-1.71,8.16,8.16,0,0,1-6.89-4.75c-.54-1.17-2.27-.16-1.73,1a10.14,10.14,0,0,0,8.62,5.74l-.71-1.7a29.25,29.25,0,0,0-3.59,5.72,13.25,13.25,0,0,0-1.69,5.93,4.16,4.16,0,0,0,2.64,4,3.19,3.19,0,0,0,4-1.21,1,1,0,0,0-1.72-1Z"/><path d="M126.25,329.57l.19,14a1,1,0,0,0,.73,1l11.73,1.69a1,1,0,0,0,1.23-.7,1,1,0,0,0-.7-1.23l-11.73-1.69.74,1-.19-14a1,1,0,0,0-2,0Z"/><path d="M141.18,326.44a35.59,35.59,0,0,0-14.71-4.67l.86,1.51,3.61-7c.51-1,1.54-2.19.73-3.25a2.13,2.13,0,0,0-2.64-.56c-1.17.54-.15,2.27,1,1.73-.07,0,.05.06,0,0l.1-.77-4.57,8.87a1,1,0,0,0,.87,1.5,33.26,33.26,0,0,1,13.7,4.4,1,1,0,0,0,1-1.73Z"/><path d="M132.87,309.64l-12.69-4,.6,1.46a15.17,15.17,0,0,0,2.27-9.49,1,1,0,0,0-1-1,1,1,0,0,0-1,1,13.43,13.43,0,0,1-2,8.49,1,1,0,0,0,.6,1.46l12.69,4c1.23.39,1.75-1.54.53-1.93Z"/><path d="M111,267.39a29.78,29.78,0,0,0-7-12c-.9-.93-2.31.49-1.42,1.42a27.64,27.64,0,0,1,6.48,11.12,1,1,0,0,0,1.93-.53Z"/><path d="M156.78,258.64q19.77-17.74,40.11-34.85t41.43-33.65q11.85-9.3,23.89-18.38c1-.77,0-2.51-1-1.73q-21.31,16.1-42.08,32.87T178,237.28q-11.4,9.87-22.63,20c-1,.86.46,2.27,1.42,1.41Z"/><path d="M261.21,174.65,246.8,156.56l-7.13-8.95c-.92-1.16-1.85-2.92-3.22-3.58a1.59,1.59,0,0,0-2.39.87,1,1,0,0,0,1.93.54c-.2.69-.35.35.09.86.28.31.52.65.78,1l1.55,1.95,3.1,3.89,6,7.58,12.25,15.37c.8,1,2.21-.42,1.41-1.41Z"/><path d="M116.12,260.41a28.85,28.85,0,0,0-4.48,6.91,1,1,0,0,0,.08,1.11,1,1,0,0,0,1,.36,6.1,6.1,0,0,0,4.86-4.46,1,1,0,0,0-.69-1.23,1,1,0,0,0-1.24.7,3.1,3.1,0,0,1-.49,1.17l-.16.24c-.07.09-.08.1,0,0l-.12.15a5.32,5.32,0,0,1-.47.48l-.15.13c-.08.06-.1.08,0,0l-.06,0-.15.11c-.19.12-.39.23-.59.33l-.17.08h0l-.27.09a4.55,4.55,0,0,1-.75.17l1.13,1.47a27.79,27.79,0,0,1,4.17-6.51,1,1,0,0,0,0-1.41,1,1,0,0,0-1.41,0Z"/><path d="M130.3,257.21Q157.79,238.49,184,217.9t51-43.06q6.87-6.22,13.62-12.58c1.13-1.06,2.26-2.12,3.37-3.19.79-.77,1.79-1.83,1.25-3-.81-1.79-3.87-.38-2.72,1.26.73,1,2.47,0,1.73-1l0,.19-.29.71-.82-.13-.27.28a5.68,5.68,0,0,0-.67.63l-1.35,1.28-3,2.86c-1.81,1.69-3.61,3.38-5.43,5.06q-5.62,5.19-11.32,10.29-11.4,10.2-23.12,20-23.6,19.8-48.45,38.06-13.92,10.22-28.19,19.94c-1.06.72-.06,2.45,1,1.72Z"/><path d="M107,270.25q30.47-20.06,59.34-42.39t56.09-46.92q15.27-13.8,29.93-28.24c.92-.9-.5-2.32-1.42-1.41q-25.89,25.5-53.67,49t-57.6,45q-16.59,12-33.68,23.23c-1.07.7-.07,2.43,1,1.72Z"/><path d="M259.68,171.13a309.15,309.15,0,0,1-24.15-30.43L234,141.92Q247.37,156.2,260,171.18l1-1.67c-2.58-.68-4.09-3-5.47-5.13l-5.31-8.13L239.58,140l-1.73,1,20.76,29.51c.73,1,2.44.08,1.72-1l-19.59-30.07-1.36,1.37c2.27,1.05,3.62,3.13,5,5.12l5.07,7.36,10,14.5,1.57-1.21-25.45-26.94-1.21,1.57A41.36,41.36,0,0,1,248.6,158.5c.52,1.17,2.24.16,1.73-1a43.27,43.27,0,0,0-15-18c-1-.67-2,.77-1.21,1.57L259.61,168c.76.81,2.22-.27,1.57-1.22l-10.57-15.32c-1.72-2.49-3.42-5-5.15-7.47-1.37-2-2.85-3.89-5.07-4.9-.84-.39-2,.45-1.37,1.36l19.59,30.07,1.72-1L239.58,140c-.73-1-2.44-.08-1.73,1l11.45,17.5c1.78,2.73,3.5,5.51,5.37,8.18,1.47,2.11,3.22,4.07,5.79,4.74a1,1,0,0,0,1-1.67q-12.63-15-26.06-29.26c-.76-.81-2.22.27-1.57,1.21a316,316,0,0,0,24.47,30.84c.86,1,2.27-.46,1.41-1.42Z"/><path d="M256.49,175.8l6.34-3.7a1,1,0,0,0,.2-1.57l-2.77-2.6c-.68-.64-2,0-1.67,1a1.77,1.77,0,0,0,3,.44c1.13-1.23.08-2.8-.9-3.71l-1.21,1.57,1.95,1a1,1,0,1,0,1-1.73l-1.95-1a1,1,0,0,0-1.22,1.57,5.39,5.39,0,0,1,.59.58c.07.11.14.25.19.34s.05.16,0,.11,0-.07,0,0,0,.05,0,0,.07-.09,0,0c.09-.06.09-.06,0,0s-.1.05,0,0,.05,0,0,0c.13,0,.14,0,0,0a.53.53,0,0,1,.46.36l-1.67,1,2.77,2.6.2-1.57-6.34,3.7a1,1,0,0,0,1,1.73Z"/><path d="M144.06,469.41l3.28-26.74c.15-1.27-1.85-1.26-2,0l-3.28,26.74c-.15,1.28,1.85,1.27,2,0Z"/><path d="M151.17,468.66q-1-16.77-2.07-33.53c-.09-1.28-2.09-1.29-2,0q1.08,16.75,2.07,33.53c.08,1.28,2.08,1.29,2,0Z"/><path d="M73.7,340.25c-7-.39-11.37-7.26-14.62-12.63L58.72,329l4.43-2.29,2.22-1.14a8.25,8.25,0,0,1,2.12-1.06c.64-.09,1.12.55,1.56.95s1,.92,1.44,1.39a21.18,21.18,0,0,1,2.63,3,8.07,8.07,0,0,1,1.57,6.65c-.49,1.88-1.85,3.77-3.94,3.92-1.28.09-1.29,2.09,0,2,4.44-.31,6.77-5.2,6-9.22a14.09,14.09,0,0,0-3.66-6.56c-.87-1-1.8-1.85-2.74-2.73s-1.83-1.66-3.13-1.43a8,8,0,0,0-2.08.91l-2.38,1.23-5.06,2.62a1,1,0,0,0-.36,1.37c3.67,6.07,8.56,13.18,16.35,13.62,1.29.07,1.29-1.93,0-2Z"/><path d="M83.09,323.62a36.35,36.35,0,0,0,7-22.62l-1.51.86a41.28,41.28,0,0,0,15.75,4.68l-.71-1.71a95.79,95.79,0,0,1-10.79,7.88C91,313.86,89.17,315,87.26,316c-1,.53-2,1-3,1.54l-1.51.73-.76.36c-.44.06-.5.2-.17.43l.1.77.06-.15-.7.7-.34-.06-.46-1.13,0,.13c-.24,1.26,1.69,1.8,1.93.53l0-.13a1.05,1.05,0,0,0-.46-1.13,1.27,1.27,0,0,0-2,.71c-.23,1,.85,1.72,1.77,1.57a15.89,15.89,0,0,0,3.89-1.79q2.14-1.08,4.25-2.27a100.94,100.94,0,0,0,15.16-10.55c.73-.61.07-1.64-.71-1.71a39,39,0,0,1-14.74-4.4,1,1,0,0,0-1.5.86,34.71,34.71,0,0,1-6.76,21.62c-.77,1,1,2,1.72,1Z"/><path d="M252.62,231.58l0,0-.18.07-.38.11-.29.06c.19,0-.19,0-.23,0a5.3,5.3,0,0,1-.69,0c.19,0-.19,0-.23-.05l-.38-.1a2.86,2.86,0,0,1-.5-.2,4.05,4.05,0,0,1-.59-.36l0,0-.15-.13-.28-.28s-.2-.24-.1-.1a4,4,0,0,1-.22-.34l-.18-.35c.07.15,0-.1-.05-.13s-.08-.25-.11-.37-.07-.42-.05-.22a5.47,5.47,0,0,1,0-.7l0-.39c0,.17,0-.1,0-.13a4.75,4.75,0,0,1,.22-.76c-.05.15.05-.1.06-.13a3.72,3.72,0,0,1,.19-.34l.19-.29c.05-.06,0-.06,0,0l.13-.15L249,226l.15-.13c-.07.06-.06.05,0,0a1,1,0,0,0,.36-1.37,1,1,0,0,0-1.37-.36,5.57,5.57,0,0,0-2.19,5.56,5.21,5.21,0,0,0,4.08,4,5.51,5.51,0,0,0,3.53-.41,1,1,0,1,0-1-1.73Z"/><path d="M343.76,248.37c1.84,1.68-3.54,5.13-4.6,5.77a16.43,16.43,0,0,1-8.19,2.54,12.92,12.92,0,0,1-7.39-2.15,8.94,8.94,0,0,1-2.8-2.81c-.36-.63-.95-2.38.11-2.62l-.77-1.83a11.31,11.31,0,0,1-14.4-16.17,1,1,0,0,0-.87-1.5c-3.35.34-7.4.69-10.16-1.66-2.43-2.07-2.91-5.54-2.66-8.54.55-6.84,4.56-13.32,9.76-17.61.74-.61.06-1.63-.71-1.71-2.32-.23-3.74-2.8-3.6-5,.18-2.66,2.32-4.83,4.47-6.16,2.38-1.47,5.4-2.44,8.2-1.74a5.86,5.86,0,0,1,4.62,5.47,1,1,0,0,0,2,0,7.83,7.83,0,0,0-5.55-7.24c-3.65-1.22-7.86.08-10.92,2.21-2.72,1.89-5.14,4.93-4.79,8.43a6.43,6.43,0,0,0,5.57,6l-.7-1.71c-5.84,4.82-10.27,12.4-10.41,20.1-.06,3.35.88,6.92,3.57,9.11,3.17,2.57,7.49,2.41,11.31,2l-.86-1.51A13.31,13.31,0,0,0,321.13,249c1.07-.49.29-2.07-.77-1.83a2.8,2.8,0,0,0-2,3.1,6.44,6.44,0,0,0,2,4,14.32,14.32,0,0,0,10,4.35,18.62,18.62,0,0,0,11.3-3.7c2.09-1.49,6.65-5.27,3.64-8-.95-.87-2.36.54-1.41,1.41Z"/><path d="M342.6,244.84c.17,3.11-4,4.55-6.42,3.42-3.48-1.6-4-6.43-3.29-9.71.22-1.06-1.27-1.82-1.83-.77a3.16,3.16,0,0,1-5.82-2.43c.38-1.23-1.55-1.76-1.93-.53a5.15,5.15,0,0,0,9.48,4L331,238c-.91,4.39.06,10.47,4.85,12.24,3.68,1.35,9-1,8.79-5.42-.06-1.28-2.07-1.28-2,0Z"/><path d="M311.45,225.4a5,5,0,1,1-2.82-9.44l-.77-1.82a2.27,2.27,0,0,1-2.72-.57,3.17,3.17,0,0,1-.44-3.37c1-2.61,3.86-3.78,6.26-4.75,1.17-.48.66-2.41-.54-1.93-3.51,1.43-7.62,3.41-8,7.71-.28,3.34,3.27,6.44,6.44,4.63a1,1,0,0,0-.77-1.82A6.95,6.95,0,1,0,312,227.33c1.19-.45.68-2.38-.53-1.93Z"/><path d="M372.38,123.77l5.83,7.81a10.49,10.49,0,0,0,2.83,3,3.79,3.79,0,0,0,3.46.24,2.76,2.76,0,0,0,1.66-2.93,16.16,16.16,0,0,0-1.36-4c-1-2.49-2.43-5-4.74-6.45s-5.51-2-7.89-.35c-1.06.72-.06,2.45,1,1.73a5.08,5.08,0,0,1,5.24,0,9.91,9.91,0,0,1,4,4.74,31.93,31.93,0,0,1,1.26,3.1c.25.68.91,1.89,0,2.36-1.81,1-3.41-1.83-4.26-3l-5.39-7.23a1,1,0,0,0-1.37-.36,1,1,0,0,0-.36,1.37Z"/><path d="M382.23,118.87a50.26,50.26,0,0,1,6.12,12.51,1.05,1.05,0,0,0,1,.73,5,5,0,0,0,4.61-3.46c.84-2.18.18-4.52-.88-6.5a27.38,27.38,0,0,0-2-3.12,9,9,0,0,0-2.22-2.38c-1.71-1.17-4.35-1.07-5.46.85a1,1,0,0,0,1.73,1c.73-1.27,2.47-.45,3.24.32a18.7,18.7,0,0,1,3,4.33,6.06,6.06,0,0,1,.79,4.61,3,3,0,0,1-2.8,2.34l1,.73a52.38,52.38,0,0,0-6.32-13c-.72-1.07-2.45-.07-1.73,1Z"/><path d="M402,343.73c-1.25-.42-1.83-1.83-2.4-2.92-.78-1.47-1.54-2.94-2.32-4.41l-4.73-9-9.37-17.86-.86,1.5a157.06,157.06,0,0,1,17.62-.64l-1-.74a72.42,72.42,0,0,0,12.44,21.9l.44-1.67a26,26,0,0,0-14,13.64c-.51,1.17,1.22,2.19,1.73,1a24,24,0,0,1,12.76-12.73,1,1,0,0,0,.44-1.67,69.37,69.37,0,0,1-11.92-21,1,1,0,0,0-1-.73,157.06,157.06,0,0,0-17.62.64,1,1,0,0,0-.86,1.51l10,19.18,5,9.49c1.22,2.31,2.28,5.56,5,6.48,1.22.41,1.75-1.52.53-1.93Z"/><path d="M171.39,338.47l-20.75-27.16c-3.07-4-7.46-9.1-3.41-14a52.82,52.82,0,0,1,5.37-5.1q3.15-2.87,6.31-5.72,24.83-22.38,50.32-44,14.37-12.19,29-24.13c.5-.41-.21-1.12-.71-.71q-26.7,21.89-52.72,44.59-12.9,11.28-25.64,22.75-3.17,2.85-6.32,5.71c-2,1.79-4.09,3.51-5.88,5.49a8.13,8.13,0,0,0-2.41,5.33,11.4,11.4,0,0,0,2.27,6.24c1.74,2.64,3.8,5.09,5.71,7.6l6,7.87,12,15.75c.39.5,1.26,0,.87-.51Z"/><path d="M176.63,350.22a96.81,96.81,0,0,1,14.45,22.91.5.5,0,0,0,.78.11,115.81,115.81,0,0,1,14.5-12.69c.51-.38,0-1.25-.51-.86a115.69,115.69,0,0,0-14.69,12.84l.78.1a97.6,97.6,0,0,0-14.6-23.12c-.42-.49-1.13.22-.71.71Z"/><path d="M173.75,379.79a31.5,31.5,0,0,1,8.58,11.26.51.51,0,0,0,.79.1,85,85,0,0,1,19.46-12.92c5.54-2.66,11.93-4.86,15.2-10.45a.5.5,0,0,0-.86-.5c-3.39,5.79-10.38,7.84-16,10.67a86.83,86.83,0,0,0-18.47,12.49l.79.1a32.11,32.11,0,0,0-8.74-11.46c-.49-.41-1.2.3-.71.71Z"/><path d="M232.27,345l9.61-6.46,4.8-3.23c1.51-1,3.07-2.11,5-2,.64,0,.64-1,0-1a7.54,7.54,0,0,0-4.59,1.53c-1.7,1.1-3.36,2.26-5,3.39l-10.26,6.89c-.53.35,0,1.22.51.86Z"/><path d="M254,355.23c-2-1-4.32-2-5.62-3.91s-1.37-4.63.74-6a14.67,14.67,0,0,1,3-1.22,28.77,28.77,0,0,0,3-1.3,26.56,26.56,0,0,0,5.66-3.91c.48-.43-.23-1.14-.71-.71a25,25,0,0,1-6.89,4.42c-2,.88-4.71,1.24-6,3.22a5.55,5.55,0,0,0,.35,6c1.4,2.09,3.77,3.23,6,4.26.58.27,1.09-.59.51-.86Z"/><path d="M276.54,326.39a109,109,0,0,1,18.19-12.19c.57-.3.06-1.16-.51-.86a110.87,110.87,0,0,0-18.39,12.34c-.5.42.22,1.12.71.71Z"/><path d="M273.78,317.8a55.36,55.36,0,0,0,17.94-12c.45-.45-.26-1.16-.71-.71a54.24,54.24,0,0,1-17.49,11.71c-.59.24-.33,1.21.26,1Z"/><path d="M311.43,303.51a196.34,196.34,0,0,1,36.28-19.94c.59-.25.33-1.21-.26-1a197.55,197.55,0,0,0-36.52,20c-.53.37,0,1.23.5.87Z"/><path d="M309.84,294.81c2.24-3.11,5.72-4.81,9.15-6.3a61.12,61.12,0,0,0,9.67-4.85c6-4,11.11-9.16,17.2-13a26.58,26.58,0,0,1,11.2-4.24c.64-.07.64-1.07,0-1-7.26.81-13.21,5.09-18.74,9.55-3,2.42-5.94,4.92-9.11,7.12a54.84,54.84,0,0,1-10,5.26c-3.84,1.64-7.69,3.47-10.2,6.95-.37.53.49,1,.87.51Z"/><path d="M265.73,394.87a9.83,9.83,0,0,0,7.92,2.39,18.22,18.22,0,0,0,4.26-1.58c2-.83,4-.1,5.75,1,3.14,2,5.82,4.51,9.18,6.16,2.83,1.39,6.11,2.27,9.26,1.49.66-.16,2-.94,1.12-1.74a.78.78,0,0,0-1.32.67c.1.64,1.07.37,1-.26l0-.14-.13.49s-1.27.1-1.51.14a9.61,9.61,0,0,1-1.51.12,11.3,11.3,0,0,1-2.72-.31,18.23,18.23,0,0,1-4.79-1.93c-3-1.66-5.46-4-8.39-5.78a6.72,6.72,0,0,0-7.88-.07,8.76,8.76,0,0,1-9.48-1.36c-.49-.43-1.2.28-.71.7Z"/><path d="M269.23,386.14c3,2.36,6.69.72,10-.05a9.73,9.73,0,0,1,6,.19,23.7,23.7,0,0,1,5.68,3.72,35.92,35.92,0,0,0,10.78,6,29.79,29.79,0,0,0,6.25,1.42c1.57.16,3.26,0,4.33-1.26.4-.49-.3-1.2-.71-.71-1.34,1.62-3.93,1-5.71.63a32.7,32.7,0,0,1-5.88-1.79c-3.76-1.55-6.82-3.91-10-6.35-2.7-2.05-5.63-3.66-9.12-3.2-3.31.43-7.81,3.05-10.84.65-.5-.4-1.22.31-.71.71Z"/><path d="M117,383.93c4.32,7.31,9.18,15.27,16.88,19.44,4.35,2.35,9.11,2.82,14,2.68,2.84-.08,5.68-.3,8.52-.18,1.49.06,2.86.25,3.35,1.88a10.07,10.07,0,0,1,.11,3.55l-.69,9.79-.34,4.89-.17,2.45a16.66,16.66,0,0,1-.16,3l-.49.13.15,0c.63.1.9-.86.26-1-1.33-.22-1,1.94.18,1.6.87-.24.88-1.36.94-2.07.13-1.71.24-3.43.36-5.14l.74-10.52c.16-2.35,1-5.68-.28-7.88s-4.62-1.79-6.8-1.75c-3.3.06-6.61.36-9.91.17a23.29,23.29,0,0,1-15.06-6.85c-4.4-4.24-7.63-9.52-10.71-14.74a.5.5,0,0,0-.87.5Z"/><path d="M153.38,435.51a37.88,37.88,0,0,1-1.69-23.83.5.5,0,0,0-.48-.63,38.13,38.13,0,0,1-35.53-18.59c-2-3.42-3.45-7.21-6.59-9.76-.5-.4-1.21.3-.71.71,3,2.45,4.47,6.09,6.34,9.39a36.47,36.47,0,0,0,6.41,8.26,39.92,39.92,0,0,0,18.19,10,37.45,37.45,0,0,0,11.89,1l-.49-.64a38.92,38.92,0,0,0,1.69,24.37c.24.58,1.21.33,1-.27Z"/><path d="M116.91,381.66c6.37-6.1,12.63-12.34,19.22-18.2,6.09-5.43,12.68-10.49,20.25-13.67,1-.43,3-1.55,3.91-.76s1.16,2.48,1.54,3.45l2.87,7.4c.23.59,1.2.34,1-.27l-2.79-7.17c-.52-1.35-1-4-2.58-4.65a3,3,0,0,0-2.11.21c-1,.37-2,.79-3,1.23a53.49,53.49,0,0,0-5.73,3c-7.61,4.49-14.16,10.53-20.52,16.6-4.25,4-8.47,8.11-12.71,12.16-.46.45.24,1.15.71.71Z"/><path d="M105.74,383.1l-7.85,5.34c-.53.36,0,1.23.5.87l7.85-5.35c.53-.36,0-1.23-.5-.86Z"/><path d="M147.53,342.3c3.29-1.29,4.87-4.59,5-8,.11-4.14-2-7.61-4.82-10.52-3.39-3.53-7.33-6.43-10.49-10.21a48.54,48.54,0,0,1-7.82-13.11c-.51-1.27-1-2.56-1.36-3.86a24.21,24.21,0,0,0-1-3.53c-.33-.68-1-1.23-1.75-.85a1,1,0,0,0-.46,1.5c.37.52,1.24,0,.87-.51a3.79,3.79,0,0,1,.62.88,4.34,4.34,0,0,1,.14.6c.12.46.25.93.38,1.39.3,1,.63,2.09,1,3.12a52.9,52.9,0,0,0,2.22,5.21,50.3,50.3,0,0,0,6.44,9.87,94.3,94.3,0,0,0,8.66,8.42c2.72,2.52,5.47,5.47,6.18,9.23.66,3.53-.4,7.95-4,9.38-.59.23-.34,1.2.26,1Z"/><path d="M470.77,118.91q-6.48-18.36-11.53-37.16l-.35.61a178.44,178.44,0,0,0,19.19-5.87c1.5-.56,3-1.13,4.46-1.72,1.69-.68,3.58-1.92,5.2-.48a48.35,48.35,0,0,1,5.71,6.42,70.27,70.27,0,0,1,9.2,15.52,25.92,25.92,0,0,1,1.65,4.23,2,2,0,0,1-1,2.48c-.75.48-1.52.91-2.28,1.36L492,109.62q-10,5.91-20.12,11.73l.73.3a14.3,14.3,0,0,0-3.63-5.9c-.46-.45-1.17.26-.71.71a13.17,13.17,0,0,1,3.38,5.46.51.51,0,0,0,.73.3q9.88-5.7,19.7-11.49,4.9-2.9,9.8-5.82c1-.61,2.58-1.23,3.23-2.32.76-1.27,0-2.77-.47-4a71.16,71.16,0,0,0-14.95-23.71c-.81-.85-1.69-2-2.89-2.27-1.54-.38-3.18.64-4.56,1.19a178.41,178.41,0,0,1-23.65,7.6.5.5,0,0,0-.35.61q5,18.8,11.52,37.16c.22.6,1.18.34,1-.26Z"/><path d="M491.16,60.34a127.08,127.08,0,0,1-.31,15.73.48.48,0,0,0,.37.48c3.63.84,6.13,3.7,8,6.77a68.09,68.09,0,0,1,5,10.86A96.89,96.89,0,0,1,510.11,119c.23,2.31.38,4.64.44,7,0,1.13.05,2.25,0,3.38l0,1.8c0,.23,0,.45,0,.68a5,5,0,0,1,0,.67.72.72,0,0,1-.36.68c.12-.63-.84-.9-1-.27a1.08,1.08,0,0,0,1.92.84,3.48,3.48,0,0,0,.44-2.15c0-1.28.06-2.55,0-3.83a98.11,98.11,0,0,0-1.3-14.92,92.34,92.34,0,0,0-9.4-28.53c-2.06-3.83-4.95-7.65-9.41-8.68l.37.48a127.08,127.08,0,0,0,.31-15.73c0-.65-1-.65-1,0Z"/><path d="M477.3,133.36l3.07,12.45.76,3.11a4.94,4.94,0,0,0,.62,1.8,2.52,2.52,0,0,0,2.86.64,29.49,29.49,0,0,0,4.39-2.11,46.34,46.34,0,0,1,5.69-2.24,47.12,47.12,0,0,1,11.71-2.13.5.5,0,0,0,0-1h-2a.5.5,0,0,0,0,1h2v-1a48.17,48.17,0,0,0-19.51,5.3c-1.06.54-3.47,2.27-4.39.78a8.75,8.75,0,0,1-.7-2.5l-.7-2.87-2.83-11.5c-.15-.62-1.12-.36-1,.27Z"/><path d="M476.69,135.66a225.11,225.11,0,0,0,20-12.49l2.47-1.76c.65-.47,2.12-2,3-1.15a7.71,7.71,0,0,1,1.15,2.27,31.56,31.56,0,0,1,1.17,3,33,33,0,0,1,1.72,11.41.5.5,0,0,0,1,0,34,34,0,0,0-2-12.31c-.32-.87-.67-1.73-1.06-2.58a9.53,9.53,0,0,0-1.41-2.63c-1.23-1.27-2.66.11-3.72.88a224.24,224.24,0,0,1-22.8,14.53.5.5,0,0,0,.5.86Z"/><path d="M472,107.54l2.86,2.75a.51.51,0,0,0,.86-.35l.11-3.31h-1l.15,3.47a.5.5,0,0,0,.75.43,8.52,8.52,0,0,0,4.13-4.59c.23-.6-.73-.86-1-.26a7.56,7.56,0,0,1-3.68,4l.76.43-.15-3.47a.5.5,0,0,0-1,0l-.11,3.31.85-.36-2.86-2.75c-.47-.44-1.17.26-.71.71Z"/><path d="M468.29,87.48A12.52,12.52,0,0,1,472,92.33c.24.55,1,.13.91-.39a8.55,8.55,0,0,1,.64-5.13l-.93-.25.07,4.29a.5.5,0,0,0,.75.43A14.53,14.53,0,0,0,478,87.35c.39-.51-.48-1-.87-.51A13.06,13.06,0,0,1,473,90.41l.76.44-.07-4.29c0-.46-.72-.72-.94-.25a9.74,9.74,0,0,0-.73,5.9l.91-.39a13.27,13.27,0,0,0-3.88-5c-.5-.4-1.21.31-.71.71Z"/><path d="M486.88,91.93a15.41,15.41,0,0,1,2.87,6.24c.12.56,1,.41,1-.14l.11-5.73-.86.35a5.14,5.14,0,0,1,1.31,4.17c-.05.42.46.57.76.43a6.87,6.87,0,0,0,3.66-4.12c.2-.62-.77-.88-1-.27a5.88,5.88,0,0,1-3.2,3.53l.75.43a6.09,6.09,0,0,0-1.6-4.88.5.5,0,0,0-.85.36L489.73,98l1-.13a16.53,16.53,0,0,0-3.12-6.68c-.39-.5-1.09.21-.71.71Z"/><path d="M486.32,137.21a6.22,6.22,0,0,1,2.74,2.7.51.51,0,0,0,.94-.25l.17-3.25-.94.25,1,2.08a.5.5,0,0,0,.86,0,4,4,0,0,1,1.32-1.88,1,1,0,0,1,1.47.29c.28.58,1.14.07.86-.51a2,2,0,0,0-2.46-.82,4.11,4.11,0,0,0-2.05,2.42h.86l-.95-2.08c-.22-.49-.91-.2-.93.25l-.17,3.25.93-.25a7.16,7.16,0,0,0-3.1-3.06c-.57-.29-1.08.58-.51.86Z"/><path d="M437.43,293.8a8.15,8.15,0,0,1,3.94,6.52l1-.13A7.52,7.52,0,0,1,443.6,294l-.93-.25.23,6.42a.5.5,0,0,0,1,0,9,9,0,0,1,2-4.95.5.5,0,0,0-.7-.71l-1.41,1.23c-.49.42.22,1.12.71.7l1.4-1.22-.7-.71a10.17,10.17,0,0,0-2.27,5.66h1l-.23-6.42a.5.5,0,0,0-.93-.25,8.51,8.51,0,0,0-1.35,6.94.5.5,0,0,0,1-.13,9.18,9.18,0,0,0-4.43-7.38.5.5,0,0,0-.51.86Z"/><path d="M415,313a31,31,0,0,1-10.5-14l-.13.48a11.57,11.57,0,0,1,9.29-3.42c.64.06.64-.94,0-1a12.52,12.52,0,0,0-10,3.71.49.49,0,0,0-.12.49,32.2,32.2,0,0,0,11,14.6c.51.38,1-.49.5-.87Z"/><path d="M455.84,312.73a9,9,0,0,1,3.48,3.45.51.51,0,0,0,.93-.26l.16-3.45-.93.26a2.62,2.62,0,0,1,.4,2.33c-.2.63.74.87,1,.27l1.8-4.9c.22-.6-.74-.86-1-.26l-1.8,4.89,1,.27a3.58,3.58,0,0,0-.5-3.11.5.5,0,0,0-.93.25l-.16,3.45.94-.25a10.08,10.08,0,0,0-3.84-3.8c-.56-.31-1.07.55-.51.86Z"/><path d="M287.08,327.66a7.4,7.4,0,0,1,4.06,2.22.51.51,0,0,0,.84-.49l-1.14-3.76-.83.49a7.7,7.7,0,0,1,1.63,4,.5.5,0,0,0,1,0,6.43,6.43,0,0,1,2.94-4.62c.54-.35,0-1.21-.5-.87a7.53,7.53,0,0,0-3.44,5.49h1a8.94,8.94,0,0,0-1.93-4.7c-.31-.4-1,0-.83.49l1.13,3.76.84-.49a8.42,8.42,0,0,0-4.51-2.48c-.63-.12-.9.85-.26,1Z"/><path d="M323.5,317.78a13,13,0,0,1,4.84,3.75c.29.36.85,0,.86-.35l.13-4.81h-1l.1,3.55a.5.5,0,0,0,.75.43l3.66-2.19a.5.5,0,0,0-.51-.87l-3.66,2.2.76.43-.1-3.55a.5.5,0,0,0-1,0l-.13,4.81.85-.35a13.52,13.52,0,0,0-5.05-3.91c-.58-.27-1.09.6-.5.86Z"/><path d="M326.51,357.39a5.73,5.73,0,0,1,3.41,2.67.5.5,0,0,0,.86-.5,5.1,5.1,0,0,1-.55-3.07l-.93.26,1.51,2.47a.51.51,0,0,0,.86,0l2.8-4.11c.36-.54-.5-1-.86-.51l-2.8,4.11h.86l-1.51-2.47a.5.5,0,0,0-.93.25,6,6,0,0,0,.69,3.57l.86-.5a6.72,6.72,0,0,0-4-3.14.5.5,0,0,0-.27,1Z"/><path d="M215.59,279.21l3.71,4.32a.5.5,0,0,0,.83-.48,14.08,14.08,0,0,1-.78-5.19l-.93.25,1.8,4.07a.5.5,0,0,0,.91-.12l1.13-5.15c.14-.63-.82-.9-1-.27l-1.13,5.15.91-.12-1.8-4.07c-.21-.48-.91-.2-.93.26a14.62,14.62,0,0,0,.82,5.45l.84-.48-3.71-4.33c-.42-.49-1.12.22-.71.71Z"/><path d="M183,288a3.64,3.64,0,0,1,4.11,1.46c.3.46,1.1.17.92-.39l-1.5-4.62-.83.48a4.23,4.23,0,0,1,1.53,2.42.51.51,0,0,0,.84.22,8.11,8.11,0,0,0,2.12-4c.13-.62-.83-.89-1-.26a7.13,7.13,0,0,1-1.86,3.52l.84.22a5,5,0,0,0-1.8-2.86c-.35-.28-1,0-.83.48l1.49,4.63.92-.39a4.68,4.68,0,0,0-5.24-1.92c-.61.2-.35,1.16.26,1Z"/><path d="M188.84,253.13c-2.18.66-4.4-1.21-4.62-3.38-.24-2.35,1.44-4.42,3.37-5.53.34-.19.32-.84-.12-.91a2.61,2.61,0,0,1-2.11-2.63,3.59,3.59,0,0,1,2.5-3.15c1.11-.43,2.38-.17,3.45-.66s1.18-1.45,1.41-2.47c.75-3.43,5.28-.82,7.34-.64a9.47,9.47,0,0,1,2.38,0,1.37,1.37,0,0,1,.83,1.69c-.28,1.58-2.11,2.14-3.43,2.57a.5.5,0,0,0-.12.91,4.53,4.53,0,0,1,1.41,5,8,8,0,0,1-4,4.47,24.06,24.06,0,0,1-2.54,1.27,2.2,2.2,0,0,0-.94.5c-.21.28-.25.76-.44,1.08a3.9,3.9,0,0,1-4.87,1.49c-.58-.28-1.09.58-.51.87a4.88,4.88,0,0,0,5.33-.78,4.48,4.48,0,0,0,1-1.19c.29-.51.25-.79.8-1a23.73,23.73,0,0,0,3.53-1.86,8.12,8.12,0,0,0,3.78-5.37,5.31,5.31,0,0,0-2.05-5.32l-.12.91c2.07-.66,4.84-2,4.11-4.67a2.22,2.22,0,0,0-2.11-1.65,15.56,15.56,0,0,1-2.81-.08c-.84-.19-1.64-.53-2.48-.75a5.14,5.14,0,0,0-3.44.15,3.3,3.3,0,0,0-1.73,2.71c-.21,1-.85,1.36-1.85,1.44a8.84,8.84,0,0,0-1.91.3,5.33,5.33,0,0,0-2.92,2.14c-1.29,2.06-.32,5.24,2.24,5.66l-.12-.91c-2.41,1.39-4.39,4.12-3.78,7a4.81,4.81,0,0,0,5.81,3.71.5.5,0,0,0-.27-1Z"/><path d="M226.84,252.54a10.37,10.37,0,0,1,5.71,3.5c.36.44.89-.05.83-.48l-.7-5-.91.38a5.5,5.5,0,0,1,.55,4.27c-.15.53.68.92.91.38a17.55,17.55,0,0,1,2.63-4.27c.41-.49-.29-1.2-.71-.7a17.81,17.81,0,0,0-2.78,4.47l.91.38a6.51,6.51,0,0,0-.65-5c-.3-.53-1-.15-.91.38l.7,5,.83-.48a11.19,11.19,0,0,0-6.15-3.76c-.62-.14-.89.82-.26,1Z"/><path d="M200.16,305.48a5.26,5.26,0,0,1,4.39,2.75c.31.58,1.12.07.86-.5l-3.32-7.33-.78.61a10.9,10.9,0,0,1,3.52,6.18c.11.59.93.39,1-.13a16.32,16.32,0,0,1,2.31-6.94c.34-.55-.53-1.05-.86-.5a17.25,17.25,0,0,0-2.45,7.44l1-.13A11.77,11.77,0,0,0,202,300.3a.51.51,0,0,0-.79.61l3.32,7.32.86-.5a6.24,6.24,0,0,0-5.25-3.25c-.64,0-.64,1,0,1Z"/><path d="M170.16,316.62a19,19,0,0,1,5,3.4.51.51,0,0,0,.79-.61,30.35,30.35,0,0,1-2.64-6.21l-.91.39,2.91,4.89a.51.51,0,0,0,.93-.26,6.33,6.33,0,0,1,3.15-5.17.5.5,0,0,0-.51-.86,7.37,7.37,0,0,0-3.64,6l.93-.25-2.91-4.89a.5.5,0,0,0-.91.39,32.11,32.11,0,0,0,2.73,6.45l.79-.61a19.79,19.79,0,0,0-5.18-3.55c-.58-.28-1.09.58-.5.86Z"/><path d="M204.23,393l4.09,5.34a.5.5,0,0,0,.86-.51,17.64,17.64,0,0,1-1.74-7.31l-.93.25a20.43,20.43,0,0,1,1.54,6.28c0,.45.71.75.93.26l2.65-5.82c.27-.58-.6-1.09-.86-.51l-2.65,5.82.93.25a22.11,22.11,0,0,0-1.67-6.78c-.2-.47-.94-.21-.94.25a18.74,18.74,0,0,0,1.88,7.82l.86-.51-4.08-5.34a.54.54,0,0,0-.69-.18.51.51,0,0,0-.18.69Z"/><path d="M169.57,406.51a10,10,0,0,1,5.38,3.1c.43.48,1.13-.23.7-.71a4.43,4.43,0,0,1-1-3.85h-1l.81,4a.5.5,0,0,0,1,0,3.21,3.21,0,0,1,1.91-2.45c.58-.26.07-1.13-.51-.87a4.14,4.14,0,0,0-2.36,3h1l-.8-4a.51.51,0,0,0-1,0,5.46,5.46,0,0,0,1.27,4.83l.7-.71a10.93,10.93,0,0,0-5.82-3.36c-.63-.13-.9.84-.26,1Z"/><path d="M157.75,382.07c-1.39.53-2.53-1.15-2.38-2.4.19-1.6,1.56-2.8,2.68-3.81a.51.51,0,0,0-.22-.84,2.47,2.47,0,1,1,1.24-4.72c.6.23.86-.74.26-1a3.47,3.47,0,1,0-1.77,6.65l-.22-.83c-1.43,1.3-3.24,3.05-3,5.19.22,1.66,1.86,3.36,3.62,2.69.6-.23.34-1.19-.26-1Z"/><path d="M234.11,443.08a9.29,9.29,0,0,1,4.67,4.77c.24.54,1,.13.91-.39a22.75,22.75,0,0,1-.28-6.84l-1,.13,1.92,7.74a.5.5,0,0,0,1,0l2.09-6.14c.2-.62-.76-.88-1-.27l-2.08,6.14h1l-1.92-7.73c-.14-.59-.92-.4-1,.13a23.91,23.91,0,0,0,.32,7.11l.91-.39a10.1,10.1,0,0,0-5-5.13c-.58-.26-1.09.6-.5.87Z"/><path d="M220.17,468.89a6.76,6.76,0,0,1,4.5,4.12l.91-.39a6.22,6.22,0,0,1-1-5.14h-1l2.76,6.71a.5.5,0,0,0,1,0l2.22-6.37c.22-.61-.75-.87-1-.26l-2.22,6.36h1l-2.75-6.71a.51.51,0,0,0-1,0,7.23,7.23,0,0,0,1.06,5.92c.3.43,1.12.18.91-.39a7.81,7.81,0,0,0-5.19-4.82.5.5,0,0,0-.27,1Z"/><path d="M51.49,385a53.29,53.29,0,0,0,4.7-23.47.5.5,0,0,0-1,0,52.19,52.19,0,0,1-4.56,23c-.27.58.6,1.09.86.5Z"/><path d="M59.55,381.07a77.25,77.25,0,0,0,2-21.75c0-.64-1-.64-1,0a76.17,76.17,0,0,1-1.95,21.49c-.15.62.82.89,1,.26Z"/><path d="M65.93,377.28a96.77,96.77,0,0,0,1.57-23.17c0-.64-1-.64-1,0A96.06,96.06,0,0,1,65,377c-.12.63.85.9,1,.27Z"/><path d="M72,373.45l1-19.33c0-.64-1-.64-1,0l-1,19.33c0,.64,1,.64,1,0Z"/><path d="M77.1,370.47l.63-21.55c0-.64-1-.64-1,0l-.63,21.55c0,.64,1,.64,1,0Z"/><path d="M83.48,364.49l-1.88-20c-.06-.64-1.06-.64-1,0l1.88,20c.06.64,1.06.64,1,0Z"/><path d="M88.43,360.8a112.08,112.08,0,0,0-2.87-18c-.15-.62-1.12-.36-1,.27a111.14,111.14,0,0,1,2.83,17.76c0,.64,1,.64,1,0Z"/><path d="M92.1,359.32a69.15,69.15,0,0,0-2.25-19.48.5.5,0,0,0-1,.27,68,68,0,0,1,2.21,19.21.5.5,0,0,0,1,0Z"/><path d="M96.66,354.11a113.47,113.47,0,0,0-2.53-19.43c-.13-.63-1.1-.37-1,.26a112.54,112.54,0,0,1,2.49,19.17c0,.64,1,.64,1,0Z"/><path d="M101.16,350.38a137.71,137.71,0,0,0-3.41-20.88.5.5,0,0,0-1,.26,137,137,0,0,1,3.38,20.62c.06.64,1.06.64,1,0Z"/><path d="M105.55,348.16A61.27,61.27,0,0,0,102.24,328c-.2-.61-1.17-.35-1,.26a60.52,60.52,0,0,1,3.27,19.87.5.5,0,0,0,1,0Z"/><path d="M111.55,345.18a48.44,48.44,0,0,0-4.76-18.05c-.28-.58-1.15-.07-.87.51a47,47,0,0,1,4.63,17.54c0,.64,1,.64,1,0Z"/><path d="M117.33,339.85,113.61,328c-.19-.61-1.15-.35-1,.27l3.71,11.9c.19.61,1.16.35,1-.27Z"/><path d="M121.21,334.61l-.78-3.71a.52.52,0,0,0-.62-.35.52.52,0,0,0-.35.62l.78,3.71a.5.5,0,1,0,1-.27Z"/><path d="M47.44,389.51l17.86,8.16c.58.26,1.09-.6.5-.86l-17.86-8.16c-.58-.27-1.09.59-.5.86Z"/><path d="M48.46,386.43a61.05,61.05,0,0,1,22.82,7.46.5.5,0,0,0,.51-.86,62.34,62.34,0,0,0-23.33-7.6c-.64-.07-.63.93,0,1Z"/><path d="M56.5,382.77a50.7,50.7,0,0,1,19.18,7.51c.54.35,1-.51.51-.86a51.31,51.31,0,0,0-19.42-7.61c-.63-.11-.9.85-.27,1Z"/><path d="M62.52,378.83a49.31,49.31,0,0,1,18.08,9.35c.5.41,1.21-.29.71-.7a50.31,50.31,0,0,0-18.52-9.61.5.5,0,0,0-.27,1Z"/><path d="M69.87,376.93A51.85,51.85,0,0,1,87,385.64c.51.39,1-.48.51-.87A53,53,0,0,0,70.14,376a.5.5,0,0,0-.27,1Z"/><path d="M74.35,372.42a87,87,0,0,1,18.57,9.48c.54.36,1-.5.5-.86a88.21,88.21,0,0,0-18.81-9.59c-.6-.22-.86.75-.26,1Z"/><path d="M80.93,369.38a121.07,121.07,0,0,1,14.86,9c.52.37,1-.49.5-.86a119.11,119.11,0,0,0-14.86-9c-.57-.29-1.08.57-.5.86Z"/><path d="M86.39,363.81a105.64,105.64,0,0,1,13.53,11c.47.44,1.18-.26.71-.71A108.76,108.76,0,0,0,86.9,362.94c-.53-.36-1,.51-.51.87Z"/><path d="M92.15,359.63a42.76,42.76,0,0,1,12.21,13.43.5.5,0,0,0,.86-.51,44,44,0,0,0-12.56-13.79c-.53-.37-1,.5-.51.87Z"/><path d="M97.55,357a83.77,83.77,0,0,1,12.71,14.59c.36.53,1.23,0,.86-.5a84.07,84.07,0,0,0-12.87-14.8c-.47-.43-1.18.27-.7.71Z"/><path d="M103.07,354.51q6,5.94,11.42,12.43c.41.49,1.11-.22.7-.71q-5.4-6.48-11.41-12.42a.5.5,0,0,0-.71.7Z"/><path d="M109.88,352.15A41.79,41.79,0,0,1,120.27,364a.5.5,0,0,0,.86-.5,42.56,42.56,0,0,0-10.54-12c-.5-.39-1.21.31-.71.71Z"/><path d="M111.51,348a24.52,24.52,0,0,1,14.09,11.48c.31.56,1.18.06.86-.51A25.55,25.55,0,0,0,111.77,347c-.61-.19-.88.78-.26,1Z"/><path d="M116.57,342.7a68.42,68.42,0,0,1,13.32,12.51c.41.5,1.11-.21.71-.7a69.43,69.43,0,0,0-13.52-12.67c-.53-.38-1,.49-.51.86Z"/><path d="M121.2,340.17A29.52,29.52,0,0,1,132,349.94c.36.54,1.22,0,.87-.5a30.74,30.74,0,0,0-11.14-10.14c-.57-.3-1.07.56-.51.87Z"/><path d="M134.36,344.8l2.23,2.23a.5.5,0,0,0,.71-.71l-2.23-2.23a.5.5,0,0,0-.71,0,.51.51,0,0,0,0,.71Z"/><path d="M55.35,403A157.56,157.56,0,0,1,40.43,389.4l-.6.79a47.07,47.07,0,0,1,13.67,9.06l.61-.79A32.24,32.24,0,0,1,42.87,390l-.7.7A46,46,0,0,1,50,399.57l.79-.61-9.18-7.74L41,392a36.43,36.43,0,0,1,9.76,7.13l.61-.79-11-8.08c-.52-.38-1,.49-.5.87l11,8.07c.46.35,1-.39.6-.78a37.23,37.23,0,0,0-10-7.28c-.47-.24-1.06.39-.6.78l9.18,7.74c.4.34,1.13-.1.79-.6a46.49,46.49,0,0,0-8-9,.5.5,0,0,0-.7.7,32.84,32.84,0,0,0,11.43,8.59c.49.22,1-.37.61-.79a47.9,47.9,0,0,0-13.88-9.22c-.49-.21-1,.35-.61.79a158.92,158.92,0,0,0,14.92,13.61c.5.4,1.21-.31.71-.71Z"/><path d="M42.48,389.56l3.67-4.89-.93-.25a4.47,4.47,0,0,1-3.68,3.87l.56.73A8.17,8.17,0,0,1,44.6,386l-.6-.78a10.61,10.61,0,0,1-4.53,3.26l.57.74,3.66-4.84-.92-.12A1.59,1.59,0,0,1,41.53,386l.62.62a17.94,17.94,0,0,1,3.67-6.08c.43-.48-.27-1.18-.71-.71a19.41,19.41,0,0,0-3.93,6.52c-.13.38.28.69.62.62a2.61,2.61,0,0,0,2-3c-.08-.48-.69-.42-.92-.12l-3.66,4.83c-.26.34.18.88.57.74a11.53,11.53,0,0,0,5-3.53c.33-.4-.11-1.15-.6-.78a9.2,9.2,0,0,0-2.86,3.42.5.5,0,0,0,.56.73,5.44,5.44,0,0,0,4.42-4.83c.05-.55-.67-.6-.94-.25l-3.66,4.88c-.39.52.48,1,.86.51Z"/><path d="M45.87,382.37a32.71,32.71,0,0,1,2.4-10.08l-1-.27a29.13,29.13,0,0,1-2.9,9.05l.91.38,4.91-20.29-1-.13a33.27,33.27,0,0,1-4,17l.91.39A74.16,74.16,0,0,1,49,368.66l-1-.26a48.67,48.67,0,0,0-2.38,12.18h1a17.6,17.6,0,0,1,2.47-9,.5.5,0,0,0-.86-.5,18.57,18.57,0,0,0-2.61,9.47c0,.65,1,.64,1,0A48.05,48.05,0,0,1,49,368.66c.2-.61-.74-.86-1-.26a74,74,0,0,0-2.87,9.78c-.12.54.63.91.91.39A34.27,34.27,0,0,0,50.24,361a.5.5,0,0,0-1-.13l-4.91,20.29c-.13.53.64.9.91.38a30.06,30.06,0,0,0,3-9.28.5.5,0,0,0-1-.27,33.54,33.54,0,0,0-2.43,10.35c0,.64,1,.64,1,0Z"/><path d="M46.55,393.93a7.43,7.43,0,0,1-2.18-3.59l-.91.39L45.92,395l.78-.61a9.94,9.94,0,0,1-2.58-5.4l-.75.43A3.11,3.11,0,0,1,45,391.82l1-.13-.37-2-1,.26a4.6,4.6,0,0,0,2.82,2.92.5.5,0,1,0,.26-1,3.55,3.55,0,0,1-2.11-2.22.5.5,0,0,0-1,.26l.38,2a.5.5,0,0,0,1-.13,4.11,4.11,0,0,0-2.12-3.24c-.29-.16-.8,0-.75.43A11.08,11.08,0,0,0,46,395.12a.51.51,0,0,0,.79-.61l-2.46-4.29a.5.5,0,0,0-.91.39,8.42,8.42,0,0,0,2.44,4c.47.43,1.18-.27.7-.71Z"/><path d="M334.16,350.83l2.74-.8-.27-1a9.17,9.17,0,0,1-3.87.73l.36.85,1.59-1.27a.5.5,0,0,0,.08-.61.52.52,0,0,0-.56-.23,1.14,1.14,0,0,1-1.15-1.49l-1-.26a1.33,1.33,0,0,1-1.68,1.06l.22.13a.67.67,0,0,1,0-1H330l2.2,1.83c.49.4,1.2-.28.71-.71,0,0-.07-.06-.08-.09s0-.06,0,0a.6.6,0,0,1,.13-.23.6.6,0,0,1,.55-.24c.67.13,1,1.1,1.14,1.65l.74-.56c-.76-.43-1.77-.87-2.55-.25a1.28,1.28,0,0,0-.22,1.91c.48.43,1.19-.27.71-.71-.15-.14,0-.39.2-.47.41-.2,1,.19,1.35.38a.51.51,0,0,0,.74-.56c-.33-1-1-2.55-2.35-2.39-1,.12-2,1.47-1.08,2.31l.71-.71-2.21-1.83a.51.51,0,0,0-.7,0,1.67,1.67,0,0,0-.16,2.31,1.17,1.17,0,0,0,.81.36,2.35,2.35,0,0,0,2.46-1.86.5.5,0,0,0-1-.26,2.14,2.14,0,0,0,2.37,2.72l-.48-.84-1.6,1.28c-.36.28,0,.84.35.85a10,10,0,0,0,4.14-.76.53.53,0,0,0,.35-.62.52.52,0,0,0-.62-.35l-2.74.81a.5.5,0,0,0,.27,1Z"/><path d="M304.64,353.24l7.27,5.47c.51.39,1-.48.5-.87a48.77,48.77,0,0,1-9.79-9.83l-.68.68a92.3,92.3,0,0,1,13,8.53c.49.39,1.19-.25.71-.71l-13.16-12.39-.6.79L320,355.37c.56.33,1-.5.5-.86-5.25-3.72-10.59-7.54-14.35-12.86l-.69.68c6.32,4.4,12.71,8.79,20,11.46a.5.5,0,0,0,.39-.91,52.69,52.69,0,0,1-16.07-12.19l-.61.79,20.15,11.11a.5.5,0,0,0,.51-.86A182.21,182.21,0,0,1,315,339.11l-.61.79,14.86,9.21c.56.34,1-.49.5-.87a57,57,0,0,1-12.83-13.51l-.68.68a53.4,53.4,0,0,1,11.64,8.44l.71-.7a25.82,25.82,0,0,1-7.75-13l-.23.57a1.93,1.93,0,0,1,2,.06.5.5,0,0,0,.5-.86,3,3,0,0,0-3-.07.51.51,0,0,0-.23.57,26.67,26.67,0,0,0,8,13.45c.47.43,1.17-.26.71-.7a53.89,53.89,0,0,0-11.85-8.6c-.41-.22-1,.25-.68.68a58.37,58.37,0,0,0,13.19,13.88l.5-.87L314.88,339a.51.51,0,0,0-.61.79,186.9,186.9,0,0,0,15.05,12.77l.51-.86-20.15-11.12a.51.51,0,0,0-.61.79,53.42,53.42,0,0,0,16.27,12.34l.39-.91c-7.18-2.64-13.51-7-19.74-11.36-.41-.28-1,.28-.69.68,3.87,5.47,9.31,9.4,14.72,13.22l.5-.86-18.14-10.46a.5.5,0,0,0-.6.78l13.15,12.39.71-.71a94.49,94.49,0,0,0-13.2-8.68c-.4-.22-1,.26-.68.68a50.31,50.31,0,0,0,10.15,10.2l.5-.87-7.26-5.46c-.52-.39-1,.48-.51.86Z"/><path d="M236.27,219.83l5.89,6.75c.42.49,1.12-.22.7-.7L237,219.12c-.42-.48-1.13.23-.71.71Z"/><path d="M409.63,236c-2.71,1-2.17-6.05-2.17-7.15L407.39,218a.5.5,0,0,0-1,0l.08,13.45c0,1.82.4,6.6,3.43,5.54.6-.21.34-1.18-.27-1Z"/><path d="M412.93,233.6a42.46,42.46,0,0,1,.43-22.15.5.5,0,0,0-1-.27,43.56,43.56,0,0,0-.44,22.69.5.5,0,0,0,1-.27Z"/><path d="M419.24,233.5a53.32,53.32,0,0,1,.74-22.07c.15-.63-.81-.89-1-.27a54.55,54.55,0,0,0-.75,22.61c.12.63,1.08.36,1-.27Z"/><path d="M424.25,229.07a50.84,50.84,0,0,1,1.08-20.58.5.5,0,0,0-1-.27,52.05,52.05,0,0,0-1.07,21.12c.1.63,1.06.36,1-.27Z"/><path d="M428.28,232.74a52.42,52.42,0,0,1,.65-21.31c.15-.62-.82-.89-1-.26a53.75,53.75,0,0,0-.65,21.84c.12.63,1.08.36,1-.27Z"/><path d="M432.65,231.27A58.93,58.93,0,0,1,434,205.46a.5.5,0,0,0-1-.27,60,60,0,0,0-1.4,26.34c.11.64,1.07.37,1-.26Z"/><path d="M436.29,228.43a59.56,59.56,0,0,1,3.89-25.89c.23-.6-.73-.86-1-.27a60.19,60.19,0,0,0-3.92,26.16c0,.64,1,.64,1,0Z"/><path d="M442.46,227.67a68.65,68.65,0,0,1,2.7-26.69.5.5,0,0,0-1-.27,69.27,69.27,0,0,0-2.74,27c.06.63,1.06.64,1,0Z"/><path d="M446.83,226.19a66,66,0,0,1,3.84-26.6c.22-.61-.75-.87-1-.27a67,67,0,0,0-3.87,26.87c0,.64,1,.64,1,0Z"/><path d="M451.28,224.7a91.25,91.25,0,0,1,3.52-24.47.5.5,0,0,0-1-.27,92.06,92.06,0,0,0-3.56,24.74.5.5,0,0,0,1,0Z"/><path d="M455.89,225.43a60.69,60.69,0,0,1,3.75-26.85c.23-.6-.74-.86-1-.27a61.46,61.46,0,0,0-3.78,27.12c.05.64,1.05.65,1,0Z"/><path d="M460.92,221.73a43.79,43.79,0,0,1,5.84-23.61.5.5,0,0,0-.87-.5,44.74,44.74,0,0,0-6,24.11c0,.64,1,.64,1,0Z"/><path d="M465.83,223.25a39.94,39.94,0,0,1,6.05-25.93c.35-.55-.51-1-.86-.51a40.81,40.81,0,0,0-6.19,26.44c.07.64,1.07.64,1,0Z"/><path d="M470.52,218.75a54.18,54.18,0,0,1,6.18-24.2c.3-.57-.57-1.07-.86-.5a55.38,55.38,0,0,0-6.32,24.7.5.5,0,0,0,1,0Z"/><path d="M476.51,218.75a74.29,74.29,0,0,1,4.58-25.13c.22-.61-.74-.87-1-.27a74.93,74.93,0,0,0-4.62,25.4.5.5,0,0,0,1,0Z"/><path d="M481,216.52a56.1,56.1,0,0,1,3.81-22.16c.24-.6-.73-.86-1-.26A56.65,56.65,0,0,0,480,216.52c0,.64,1,.65,1,0Z"/><path d="M485.53,208.34l2.07-17.13c.08-.63-.93-.63-1,0l-2.07,17.13c-.08.64.93.63,1,0Z"/><path d="M444.83,247.52,437.25,229l-.84.49a24.68,24.68,0,0,1,5.14,11c.12.63,1.08.36,1-.27a25.69,25.69,0,0,0-5.39-11.41c-.31-.37-1,0-.84.49l7.59,18.56c.24.59,1.2.33,1-.27Z"/><path d="M393.25,203.43a39.57,39.57,0,0,0,12.63,10.63c.57.3,1.08-.56.51-.86A39,39,0,0,1,394,202.73c-.4-.51-1.1.2-.71.7Z"/><path d="M396.16,202.74a81.59,81.59,0,0,0,14.25,11.2c.55.34,1-.52.51-.86A80.66,80.66,0,0,1,396.87,202c-.46-.45-1.17.26-.71.71Z"/><path d="M398.52,201.12a62.82,62.82,0,0,0,19.26,12.58c.59.24.85-.72.26-1a61.27,61.27,0,0,1-18.82-12.32c-.46-.44-1.17.26-.7.71Z"/><path d="M403,200.56l17.86,9.64c.57.3,1.08-.56.51-.86l-17.87-9.65c-.56-.3-1.07.56-.5.87Z"/><path d="M407.39,197.67l17.79,9.76c.57.31,1.07-.55.51-.86l-17.8-9.77c-.56-.31-1.07.56-.5.87Z"/><path d="M414.77,196.77a54,54,0,0,0,15.07,8.36c.6.22.87-.75.26-1a52.63,52.63,0,0,1-14.63-8.09c-.5-.4-1.21.31-.7.7Z"/><path d="M415.47,192.35a83.58,83.58,0,0,0,18,11.17c.59.27,1.09-.59.51-.86a83,83,0,0,1-17.79-11c-.49-.4-1.21.3-.71.7Z"/><path d="M418.58,191.65a82.77,82.77,0,0,0,18.72,10.44c.6.23.86-.73.27-1a80.79,80.79,0,0,1-18.48-10.34c-.52-.38-1,.49-.51.87Z"/><path d="M424.48,192.47A92.2,92.2,0,0,0,444,201.28c.61.2.88-.77.27-1A91.48,91.48,0,0,1,425,191.61a.5.5,0,0,0-.51.86Z"/><path d="M432,192.34a77.72,77.72,0,0,0,19.36,7.78.5.5,0,0,0,.26-1,77.25,77.25,0,0,1-19.12-7.68.5.5,0,0,0-.5.86Z"/><path d="M437.92,190.9a170.89,170.89,0,0,0,20.21,8.19c.61.21.87-.76.26-1a169.21,169.21,0,0,1-20-8.09c-.57-.28-1.08.58-.5.86Z"/><path d="M443.16,187.14a59.74,59.74,0,0,0,21.61,9.21c.63.13.9-.84.26-1a59.08,59.08,0,0,1-21.37-9.1c-.53-.37-1,.5-.5.86Z"/><path d="M452.08,185.65a62.52,62.52,0,0,0,20.1,9.29.5.5,0,0,0,.26-1,61.84,61.84,0,0,1-19.85-9.19c-.53-.37-1,.49-.51.86Z"/><path d="M457.23,184.26a163.21,163.21,0,0,0,22.46,8.91c.61.2.88-.77.26-1a160.9,160.9,0,0,1-22.21-8.82c-.58-.28-1.09.59-.51.87Z"/><path d="M466.92,182.74l17.85,8.18c.58.27,1.08-.6.5-.86l-17.85-8.19c-.58-.26-1.09.6-.5.87Z"/><path d="M472.91,179.69a84.92,84.92,0,0,0,15.58,7.86c.6.23.86-.74.27-1a83.61,83.61,0,0,1-15.34-7.75c-.55-.35-1.05.51-.51.86Z"/><path d="M479.81,176.11a.5.5,0,0,0,0-1,.5.5,0,0,0,0,1Z"/><path d="M518.25,268.82A87.46,87.46,0,0,0,535,282.19c.55.34,1-.52.51-.86A86.91,86.91,0,0,1,519,268.12a.5.5,0,0,0-.7.7Z"/><path d="M519,263.06,532.36,272c.54.36,1-.51.51-.87l-13.39-8.92c-.53-.36-1,.51-.5.86Z"/><path d="M516.88,258.62,528,263.06c.6.23.86-.73.27-1l-11.17-4.44c-.59-.23-.85.73-.26,1Z"/><path d="M516.07,252.83l10.43,3.68c.61.21.87-.76.27-1l-10.43-3.67c-.61-.21-.87.75-.27,1Z"/><path d="M518.26,245.16l6.69,3a.51.51,0,0,0,.68-.18.49.49,0,0,0-.18-.68l-6.69-3a.51.51,0,0,0-.68.18.49.49,0,0,0,.18.68Z"/><path d="M517.61,237.82a21.58,21.58,0,0,0,9.06,1.51c.64,0,.64-1,0-1a20.94,20.94,0,0,1-8.79-1.47c-.6-.24-.86.73-.27,1Z"/><path d="M518.32,229l7.44,1.52c.62.13.89-.84.26-1l-7.43-1.51c-.63-.13-.9.83-.27,1Z"/><path d="M519.23,223l5.95.74c.27,0,.5-.25.5-.5a.51.51,0,0,0-.5-.5l-5.95-.74a.5.5,0,0,0-.5.5.51.51,0,0,0,.5.5Z"/><path d="M517.6,212.56a11.32,11.32,0,0,0,6.22.71.51.51,0,0,0,.35-.62.52.52,0,0,0-.61-.35,10.4,10.4,0,0,1-5.7-.7.5.5,0,0,0-.61.35.5.5,0,0,0,.35.61Z"/><path d="M519.23,205.86h1.49a.51.51,0,0,0,.5-.5.51.51,0,0,0-.5-.5h-1.49a.5.5,0,0,0,0,1Z"/><path d="M517.74,201.4a.5.5,0,0,0,0-1,.5.5,0,0,0,0,1Z"/><path d="M110.85,267.12a22.31,22.31,0,0,1-6.82-7.6l-.78.61a16.5,16.5,0,0,1,4,8.4l.83-.49a8.27,8.27,0,0,1-2.69-5.17l-.93.25L108,270.9l.79-.6A28.93,28.93,0,0,1,104,262l-.92.38,4.12,9.27.79-.61a20.58,20.58,0,0,1-4.64-8.59l-.92.39,5,7.29c.29.43,1.14.18.91-.38l-3-7.56-.84.48L108,267.1l.71-.71a6.89,6.89,0,0,1-2.43-6l-.93.25,3.75,6.46.79-.6a43,43,0,0,1-4.3-6.07l-.79.61a13.09,13.09,0,0,1,2.6,5.38l.61-.62-1.91-.33c-.43-.08-.91.48-.48.83a7.58,7.58,0,0,0,10.92-1.66c.22-.34-.16-.9-.57-.74l-8,3.34a.5.5,0,0,0,.27,1,50.6,50.6,0,0,0,15.2-6.28.5.5,0,0,0-.25-.93,20.7,20.7,0,0,0-14.43,5c-.46.39.12,1,.6.78l19.94-9.6c.51-.24.15-1.07-.39-.91l-14.39,4.26.38.91A46.43,46.43,0,0,1,129,254.27c.51-.15.45-1.06-.14-1a20.23,20.23,0,0,0-11.3,5.37.5.5,0,0,0,.22.83,14.57,14.57,0,0,0,10.91-2.58c.43-.31.19-1.09-.39-.91a120.65,120.65,0,0,0-22.72,9.37c-.58.31-.07,1.11.51.87l14.7-6.38a.5.5,0,0,0-.12-.91c-2.81-.58-5.55.18-8.23,1-2.9.89-6.09,2-9,.7l-.12.91a22.75,22.75,0,0,1,12.17.18l.14-1a28.47,28.47,0,0,1-10.56-2.35c-.58-.25-1.09.54-.51.86l6.79,3.73.26-.93a12.29,12.29,0,0,1-4.62-.76l-.27,1a29,29,0,0,1,6.12,1.85l.25-.94a10.24,10.24,0,0,1-4.68-1.3v.86a10.18,10.18,0,0,1,8.12-.68v-1l-8.46,3.44a.5.5,0,0,0,0,1,11.11,11.11,0,0,0,5.51.52l-.26-1a18.4,18.4,0,0,0-6.25,2.82.51.51,0,0,0,.39.92l6.39-1.81-.39-.92a6.31,6.31,0,0,1-3,.89.51.51,0,0,0-.5.5,2.67,2.67,0,0,1-.91,1.88h.71l-1.17-1.25-.22.84c-.18,0-.37-.25-.32-.44.13-.48,1-.71,1.45-.78s1-.13,1.51-.19c.93-.13,1.85-.27,2.77-.44a31,31,0,0,0,6-1.72,15.74,15.74,0,0,0,8.28-7c.19-.36-.13-.88-.56-.74l-8.59,2.92a.5.5,0,0,0,.27,1A29,29,0,0,0,130.37,257a.5.5,0,0,0-.39-.91l-11,3.25.49.83a15.32,15.32,0,0,1,8.38-3.24l-.26-.93-9.95,4.69.51.86a17.67,17.67,0,0,1,7.31-2.52l-.36-.85a18.61,18.61,0,0,1-9.36,3.85l.25.93,10-4.49c.51-.23.14-1.12-.39-.91l-6.38,2.5c-.59.23-.36,1.17.26,1a12.73,12.73,0,0,0,6.09-4.2.51.51,0,0,0-.11-.79,6.41,6.41,0,0,0-6.89.77c-.41.33,0,1,.49.84l7.42-2-.39-.92-7.35,4.7a.5.5,0,0,0,.12.91,2.78,2.78,0,0,1,1.44.94l.22-.84-2.93,1c-.5.18-.47,1,.13,1a38,38,0,0,0,13.55-3.91c.57-.29.07-1.15-.51-.86a36.67,36.67,0,0,1-13,3.77l.13,1,2.93-1a.51.51,0,0,0,.22-.84,3.63,3.63,0,0,0-1.88-1.2l.12.92,7.36-4.69a.51.51,0,0,0-.39-.92l-7.42,2,.49.84a5.33,5.33,0,0,1,5.68-.61l-.1-.79a11.75,11.75,0,0,1-5.64,3.94l.26,1,6.39-2.51-.39-.91-10,4.48a.51.51,0,0,0,.26.94,19.92,19.92,0,0,0,10.07-4.14.51.51,0,0,0-.35-.86,18.76,18.76,0,0,0-7.82,2.66.5.5,0,0,0,.51.86l10-4.69a.5.5,0,0,0-.25-.93,16.42,16.42,0,0,0-9.09,3.54c-.41.31,0,1,.49.83l11-3.25-.39-.91a28.08,28.08,0,0,1-11,4.41l.27,1,8.58-2.92-.56-.74c-3.09,5.81-10,7.78-16,8.62-1.17.16-2.86.07-3.69,1.08a1.6,1.6,0,0,0,.21,2.32c1.59,1,2.3-2.21.47-1.94-.4.06-.45.59-.22.84l1.16,1.25a.52.52,0,0,0,.71,0,3.71,3.71,0,0,0,1.2-2.59l-.5.5a7.44,7.44,0,0,0,3.46-1,.51.51,0,0,0-.39-.92l-6.39,1.81.39.92a17.47,17.47,0,0,1,6-2.73c.64-.15.35-1-.26-1a10.22,10.22,0,0,1-5-.52v1l8.46-3.44a.5.5,0,0,0,0-1,11.17,11.17,0,0,0-8.89.78.5.5,0,0,0,0,.86,11.27,11.27,0,0,0,5.19,1.44c.47,0,.72-.73.25-.93a30.06,30.06,0,0,0-6.35-1.94.5.5,0,0,0-.27,1,12.72,12.72,0,0,0,4.89.8.5.5,0,0,0,.25-.93l-6.79-3.73-.51.86a29.76,29.76,0,0,0,11.07,2.49.5.5,0,0,0,.13-1,23.81,23.81,0,0,0-12.7-.18.5.5,0,0,0-.12.91c5.9,2.59,11.53-2.83,17.5-1.59l-.12-.92-14.7,6.37.51.87A119.19,119.19,0,0,1,128.6,257l-.39-.91a13.58,13.58,0,0,1-10.13,2.48l.22.84a19,19,0,0,1,10.59-5.08l-.13-1a47.1,47.1,0,0,0-14.37,7.25c-.43.31-.2,1.08.38.91l14.4-4.26-.39-.91-19.93,9.6.6.78A19.69,19.69,0,0,1,123.18,262l-.26-.94a49.7,49.7,0,0,1-15,6.19l.27,1,8-3.33-.56-.74a6.59,6.59,0,0,1-9.36,1.47l-.48.83,1.9.34a.52.52,0,0,0,.62-.62,14.16,14.16,0,0,0-2.85-5.82c-.36-.45-1.07.13-.78.61a45,45,0,0,0,4.45,6.26c.37.44,1.06-.12.78-.6l-3.75-6.46a.5.5,0,0,0-.93.25A7.85,7.85,0,0,0,108,267.1a.5.5,0,0,0,.71-.71L105.26,262c-.3-.38-1,0-.84.49l3,7.56.92-.38-5-7.3a.51.51,0,0,0-.92.39,21.85,21.85,0,0,0,4.9,9c.41.45,1-.13.79-.61L104,261.9c-.23-.52-1.12-.15-.92.38a30.07,30.07,0,0,0,5.05,8.72c.39.47,1-.12.79-.6l-3.59-7.78a.5.5,0,0,0-.93.25,9.36,9.36,0,0,0,3,5.88.5.5,0,0,0,.83-.49,17.4,17.4,0,0,0-4.26-8.84c-.38-.43-1,.12-.78.61a23.33,23.33,0,0,0,7.18,8c.53.37,1-.5.5-.87Z"/><path d="M138.62,218.58l29.61,26.93c.48.43,1.19-.27.71-.71l-29.61-26.93c-.48-.43-1.19.28-.71.71Z"/><path d="M149.29,211.5A53.89,53.89,0,0,0,175.51,236c.58.26,1.09-.61.5-.86A53.13,53.13,0,0,1,150.15,211c-.3-.57-1.16-.06-.86.51Z"/><path d="M157.22,200.47a79.41,79.41,0,0,0,25.52,30c.53.37,1-.5.51-.87A78.33,78.33,0,0,1,158.08,200c-.28-.58-1.14-.07-.86.51Z"/><path d="M163.59,195.81A166.22,166.22,0,0,1,189,226.67c.34.55,1.21,0,.86-.5a166.84,166.84,0,0,0-25.51-31.06c-.47-.45-1.18.26-.71.7Z"/><path d="M172.36,194.38c12.68,4.49,16.42,19.43,24.82,28.54l.48-.84-1.88-.76c-.6-.25-.86.72-.27,1l1.89.77c.49.2.79-.5.48-.84-8.57-9.3-12.27-24.2-25.26-28.79-.61-.22-.87.75-.26,1Z"/><path d="M179.8,186.18a151.38,151.38,0,0,0,25,28.72c.48.42,1.19-.28.71-.71a149.76,149.76,0,0,1-24.84-28.52c-.35-.53-1.22,0-.86.51Z"/><path d="M186,177.9a95.5,95.5,0,0,0,29.06,32c.53.37,1-.5.5-.86a94.38,94.38,0,0,1-28.69-31.67.5.5,0,0,0-.87.51Z"/><path d="M192.65,173.45q14.08,13.43,27.69,27.35c.45.46,1.16-.25.71-.71q-13.61-13.92-27.7-27.35c-.46-.44-1.17.26-.7.71Z"/><path d="M201.46,164.84a59.51,59.51,0,0,1,18.06,16.91c3.76,5.4,7.23,12,13.93,14.11.61.2.87-.77.26-1-7.08-2.25-10.4-9.8-14.52-15.33A60.8,60.8,0,0,0,202,164a.5.5,0,0,0-.51.87Z"/><path d="M212.84,157l29,32c.43.48,1.14-.23.7-.71l-29-32c-.43-.48-1.14.23-.7.71Z"/><path d="M219.94,149.74a158.79,158.79,0,0,0,27.43,27.77c.5.39,1.21-.31.7-.71a157.78,157.78,0,0,1-27.27-27.57c-.39-.5-1.26,0-.86.51Z"/><path d="M228.17,141.82c6.69,3.75,11.18,10.07,15.57,16.16a120.62,120.62,0,0,0,15.94,18.35c.47.44,1.18-.27.7-.71A126.24,126.24,0,0,1,243.9,156.5c-4.26-5.91-8.74-11.91-15.22-15.54-.56-.32-1.07.55-.51.86Z"/><path d="M134,226c4.06,4.6,9.8,7.37,14.33,11.48A56.48,56.48,0,0,1,159.79,252c.31.56,1.17.06.86-.5a57.1,57.1,0,0,0-11.27-14.41,63.59,63.59,0,0,0-6.95-5.5,41.37,41.37,0,0,1-7.69-6.26c-.42-.49-1.13.22-.7.7Z"/><path d="M130.41,233.24a107.48,107.48,0,0,0,23.44,23.06c.52.37,1-.49.5-.87a105.41,105.41,0,0,1-23.07-22.69c-.38-.51-1.25,0-.87.5Z"/><path d="M123.51,238.57q5.24,8.18,10.88,16.06c.37.52,1.24,0,.86-.51q-5.66-7.87-10.87-16.06c-.35-.54-1.21,0-.87.51Z"/><path d="M114.89,246.79a83.3,83.3,0,0,1,12.25,12.3c.4.5,1.11-.21.71-.7a83.37,83.37,0,0,0-12.25-12.31c-.5-.4-1.21.3-.71.71Z"/><path d="M161.14,260.93A345.65,345.65,0,0,1,197.36,224c13-11.56,26.53-22.44,40.11-33.28l24.7-19.71a2,2,0,0,0,.32-2.43,2.1,2.1,0,0,0-2.26-.92l-3.37.59a2,2,0,0,0-1.4,2.46,2,2,0,0,0,2.46,1.39l3.37-.58-2-3.34C245.21,179.5,231,190.7,217,202.15c-13.44,11-26.63,22.29-39,34.51-6.9,6.85-13.51,14-19.72,21.45-1.64,2,1.18,4.81,2.83,2.82Z"/><path d="M107.73,261.28c9.62-5,17.56-12.56,25.18-20.16q12.78-12.7,25.52-25.47l51.81-51.74,14.45-14.43c1.1-1.1,2.49-2.21,2.83-3.81a2.76,2.76,0,0,0-1.84-3.29c-2.91-.73-4.85,3.87-1.6,4.76,2.48.68,3.54-3.18,1.06-3.86l-.17,0,.88.51-.09-.1.59,1.42-1.57,1.22-.88-.51.14.14-.52-.88c-.13-.33.3-.3,0-.06a6.92,6.92,0,0,0-.6.61L221.51,147l-3.17,3.17-5.64,5.63-11.81,11.79L177.45,191Q154.23,214.18,131,237.37c-7.69,7.68-15.57,15.38-25.3,20.45-2.28,1.19-.26,4.65,2,3.46Z"/><path d="M381.9,174.36l4.24-2.06.41-.31a1.56,1.56,0,0,0,.41-.64,1.91,1.91,0,0,0,.1-1.31,2.36,2.36,0,0,0-.51-.88,2.14,2.14,0,0,0-1.42-.59l-3.27-.33,1.41,3.41.11-.08-.41.31a2.7,2.7,0,0,1,.52-.3l-.47.2a2.74,2.74,0,0,1,.64-.17l-.53.07a3,3,0,0,1,.6,0l-.53-.07.13,0a2.12,2.12,0,0,0,1.54-.2,2,2,0,0,0,.72-2.73,1.94,1.94,0,0,0-1.2-.92,4.74,4.74,0,0,0-2.12,0,4.62,4.62,0,0,0-1.83,1l-.31.41-.2.47A2,2,0,0,0,380,171a1.87,1.87,0,0,0,.62.8,2.14,2.14,0,0,0,1.21.43l3.27.33-1-3.72-4.24,2.06a2.06,2.06,0,0,0-.92,1.2,2,2,0,0,0,1.4,2.46,2.23,2.23,0,0,0,1.54-.21Z"/><path d="M348.92,144.23a57,57,0,0,1,14.87.64l.53-3.93-18.05-1.28.54,3.93,16-5.12a2,2,0,0,0-1.06-3.85l-11.9,2.87c-2.2.53-1.71,3.93.54,3.93a29.56,29.56,0,0,0,9-1.38,15.83,15.83,0,0,1,3.22-1c.16,0,.47,0,.45,0s-.11-.08-.11-.1c0-.39-.05-.43-.06-.73.1-.11.1-.11,0,0s-.1.09,0,0l-.18.1a.23.23,0,0,1,.22-.06c.11.06.23.07.32.17a2.71,2.71,0,0,1,.15.26l0,.1c.08-.23.09-.27,0-.13.2-.16.35-.25,0-.23-.18,0,.17.08.12,0s.22.25.13.13a1.48,1.48,0,0,1,.19.59c.08.22-.22.24,0,.09a2.39,2.39,0,0,1,.41-.26s0,0,0,0a1.38,1.38,0,0,1-.27-.08c.16.07.18.07,0,0s0,0,0,0c.06.21.18.32.13.57l-2.94,1.19,4.52,3.39a2,2,0,0,0,2.73-.71,2.05,2.05,0,0,0-.71-2.74l-4.52-3.39a2,2,0,0,0-2.94,1.19c-.75,3.53,3.94,6.18,6.54,3.58,2.89-2.9-.38-8.54-4.33-7.38a4.43,4.43,0,0,0-3,4.1,3.51,3.51,0,0,0,3.43,3.56,4.11,4.11,0,0,0,3.89-2.83,3.53,3.53,0,0,0-2.81-4.27c-2.2-.45-4.25.68-6.29,1.28a25.6,25.6,0,0,1-7.22,1l.53,3.93,11.89-2.88-1.06-3.85-16,5.11a2,2,0,0,0,.53,3.93l18.05,1.28c2.22.16,2.76-3.52.53-3.92a60.76,60.76,0,0,0-15.93-.79,2,2,0,0,0-2,2,2,2,0,0,0,2,2Z"/><path d="M324,138.39a184.53,184.53,0,0,0,35.14-13.24l-2-3.46-2.55,1.62c-2.17,1.37-.17,4.84,2,3.45l2.55-1.61a2,2,0,0,0-2-3.46A179.14,179.14,0,0,1,323,134.53c-2.49.66-1.44,4.52,1.06,3.86Z"/><path d="M341.47,163.94l-4.54,0,1.93,1.47a104.38,104.38,0,0,0-7.06-18.06c-1.41-2.8-3-5.49-4.59-8.19-1.49-2.51-3-5.17-3.35-8.13a2.07,2.07,0,0,0-2-2,2,2,0,0,0-2,2c.69,6.39,5,11.59,7.87,17.13A99.38,99.38,0,0,1,335,166.43a2,2,0,0,0,1.92,1.47l4.54,0c2.58,0,2.58-4,0-4Z"/><path d="M414.39,298a15,15,0,0,0-6-7.91c-2.34-1.66-4.39-3.25-5.48-6-2.25-5.7-.56-11.93,1.34-17.46,1.14-3.29,2.4-6.54,3.21-9.93a35.74,35.74,0,0,0,.81-11c-.57-7.3-2.61-14.51-4.75-21.49A190.12,190.12,0,0,0,394.66,201a2,2,0,0,0-2.74-.71,2,2,0,0,0-.72,2.73,180.57,180.57,0,0,1,7.88,20.43c2.16,6.81,4.31,13.9,5.05,21a33,33,0,0,1-.46,10.68,89.11,89.11,0,0,1-3.16,9.95c-2,5.87-3.62,12.14-2,18.33a14.91,14.91,0,0,0,5,8c1.39,1.11,3,2,4.29,3.2a10,10,0,0,1,2.75,4.38c.77,2.45,4.63,1.4,3.86-1.06Z"/><path d="M400.36,357.93q-20.26-34.12-38-69.68-5.06-10.11-9.89-20.34l-2.26,2.94c2.1.56,2.92,3.11,3.57,4.95,1,3,2.1,5.93,3.22,8.87q3.39,8.86,7.31,17.5a301.52,301.52,0,0,0,17.84,33.54q5.61,9.09,11.85,17.77l2.74-2.73a6.41,6.41,0,0,1-3.45-3.45l-3.45,2A28.23,28.23,0,0,1,393,356l3.34-1.94a13.52,13.52,0,0,1-2.17-3.91l-3.35,1.95a5.91,5.91,0,0,1,1.85,4.46l3.72-1-3.13-6.42-2.74,2.74a4.46,4.46,0,0,1,2.43,4.59l3.65-.48-2.2-3.58c-1.34-2.19-4.8-.19-3.45,2l2.2,3.58c.83,1.35,3.35,1.3,3.65-.48a8.55,8.55,0,0,0-4.26-9.11,2,2,0,0,0-2.73,2.74l3.13,6.42c.9,1.86,3.7.87,3.73-1a9.9,9.9,0,0,0-3-7.29c-1.35-1.32-4,0-3.34,1.94a19.25,19.25,0,0,0,3.2,5.67c1.27,1.58,3.93-.12,3.34-1.94a31.88,31.88,0,0,0-3.61-7.65,2,2,0,0,0-3.45,2,9.6,9.6,0,0,0,4.88,4.88,2.07,2.07,0,0,0,2.42-.31,2,2,0,0,0,.31-2.42,300.5,300.5,0,0,1-36.75-68.28c-1.23-3.23-2.27-6.54-3.54-9.75-1.12-2.83-2.75-5.61-5.88-6.45a2,2,0,0,0-2.26,2.94q17,35.88,36.55,70.46,5.56,9.84,11.34,19.56c1.31,2.21,4.77.2,3.46-2Z"/><path d="M355.26,270.51l5.27-3.23a2,2,0,0,0-.47-3.65,21.66,21.66,0,0,0-9.48-.07l1.95,3.34a3.68,3.68,0,0,1,3.59-.88,2,2,0,0,0,2.26-2.94c-1.62-3.67-7.95-1.4-6.88,2.5s7.09,2.79,7.24-1a2,2,0,0,0-1.47-1.93,5.83,5.83,0,0,0-6.93,4.25,2,2,0,0,0,.92,2.26,4.26,4.26,0,0,0,5.95-3.59,8.27,8.27,0,0,0-1.09-4.47c-.79-1.64-1.65-3.24-2.47-4.86l-9.51-18.67c-6.26-12.3-12.44-24.65-18.79-36.91-2.58-5-7.51-10.84-13.7-8.17l2.94,1.19L311,183.06l-3.86,1.07,5.49,13.45a2.07,2.07,0,0,0,2.46,1.4,2,2,0,0,0,1.4-2.46q-6.6-17-14.68-33.47c-2.63-5.34-5.42-10.61-8.25-15.85-2.67-4.93-5.41-10.1-6.09-15.74a6.34,6.34,0,0,0-.6-2.51c-.37-.68-.76-1.34-1.13-2q-1.2-2.24-2.27-4.54a83.14,83.14,0,0,1-3.64-9.41l-3.65,1.54c-.44-.64,1.67-1.26,1.4-.06.55-2.51-3.3-3.58-3.85-1.06-.51,2.32,1.41,4.86,4,4.23a3.43,3.43,0,0,0,1.95-5.13c-1.21-1.78-4.39-.73-3.66,1.54a90,90,0,0,0,7.67,17.33l-.27-1c.73,9.4,6.09,17.49,10.36,25.63q6.78,12.9,12.61,26.28,3.31,7.59,6.29,15.31l3.86-1.06L311,183.06a2.07,2.07,0,0,0-2.46-1.4,2,2,0,0,0-1.4,2.47l3.61,10.58a2,2,0,0,0,2.94,1.2c1.68-.72,3.41.49,4.57,1.6a19.58,19.58,0,0,1,3.77,5.37q4,7.88,8,15.78l16.08,31.57,4.53,8.89c.7,1.39,1.46,2.76,2.11,4.17.22.47.69,1.36.47,1.92s-.51.23,0,.47l.91,2.26a1.78,1.78,0,0,1,2-1.46l-1.46-1.93c0-.22.24-.37.29-.54s0-.09-.13,0-.06-.09,0,0,.37.25.44.52-.21.77-.09.71.06,0-.06,0-.48-.6-.26-.1l2.26-2.94a7.79,7.79,0,0,0-7.48,1.92c-1.52,1.44.08,3.74,1.95,3.34a16.83,16.83,0,0,1,7.34.07l-.47-3.66-5.28,3.23c-2.19,1.34-.19,4.8,2,3.45Z"/><path d="M457.08,42.14a26.38,26.38,0,0,1-7-5.55l-1.95,3.34a9.28,9.28,0,0,1,5.34,5l2.73-2.73-9.39-5.86c-2-1.27-3.84,1.48-2.43,3.14,5.06,5.91,11.72,10,17.5,15.12,5.09,4.5,9.93,10.35,10.32,17.43l3.73-1a147.85,147.85,0,0,0-25.17-36.22L448.36,38a45.84,45.84,0,0,1,17.48,28.47c.46,2.53,4.31,1.46,3.85-1.07a49.86,49.86,0,0,0-19.31-30.86c-1.88-1.4-3.9,1.55-2.42,3.15a144.18,144.18,0,0,1,24.55,35.41c.86,1.78,3.83.92,3.72-1-1-17.2-19.19-23.93-29-35.38l-2.42,3.14,9.39,5.86c1.85,1.15,3.51-1.05,2.74-2.74a13.19,13.19,0,0,0-7.72-6.89c-2-.7-3.18,2-2,3.35a29.64,29.64,0,0,0,7.78,6.17c2.25,1.24,4.27-2.21,2-3.45Z"/><path d="M472,72.24c-.25.18-.2.34-.62.1A1.47,1.47,0,0,1,471,72a5.87,5.87,0,0,1-.87-2.54,52.7,52.7,0,0,0-1.57-5.66,62.44,62.44,0,0,0-5-10.75c-4-6.92-9-13.18-14-19.38a2,2,0,0,0-2.83,0,2.05,2.05,0,0,0,0,2.83c5.42,6.7,10.84,13.49,14.85,21.15A50.33,50.33,0,0,1,466,69.29c.48,2,.8,4.17,2.33,5.69a4.58,4.58,0,0,0,5.74.72,2.06,2.06,0,0,0,.71-2.74,2,2,0,0,0-2.73-.72Z"/><path d="M512.28,169.88l6.38,3.79c2.23,1.32,4.14-2,2-3.46l-6.87-4.57-1.54,3.65a27.56,27.56,0,0,1,6.47,2.88l1-3.72-6.23,0c-2.2,0-2.79,3.44-.53,3.93,14.44,3.13,28.38-3,42.66-4,2.56-.19,2.58-4.19,0-4-7.11.52-14,2.22-21,3.53-6.77,1.28-13.76,2.12-20.57.65l-.53,3.93,6.23,0a2,2,0,0,0,1-3.73,32.05,32.05,0,0,0-7.43-3.29c-2.25-.67-3.37,2.44-1.54,3.66l6.87,4.58,2-3.46-6.38-3.78c-2.22-1.32-4.23,2.13-2,3.45Z"/><path d="M294,206.09c-2.9.65-6.34,1.52-9.21.28-1.69-.73-3.78-3-2.9-5a2,2,0,0,0-2.26-2.94c-3.45.68-7.79,1.5-11-.5a5.53,5.53,0,0,1-.88-8.37,2,2,0,0,0-2.42-3.14,4.94,4.94,0,0,1-6.74-2.16c-1.27-3,1.68-6.31,4.66-6.21a2,2,0,0,0,1.41-3.42,4.86,4.86,0,0,1,3.38-8.48,2,2,0,0,0,1.93-2.53,14.18,14.18,0,0,1-.18-10.56,11.22,11.22,0,0,1,2.75-4.26,3,3,0,0,1,1.88-1c.39,0,1.09.21,1.11.69l3.93-.53a3,3,0,0,1,1.4-3.93,2.89,2.89,0,0,1,3.49,1.65c.87,2.41,4.73,1.37,3.86-1.06-1.21-3.38-5.06-5.66-8.6-4.37a6.89,6.89,0,0,0-4,8.77,2,2,0,0,0,2.2,1.43,2,2,0,0,0,1.73-2,5,5,0,0,0-5.44-4.67c-2.94.23-5.13,2.57-6.6,4.93a17.75,17.75,0,0,0-1.38,15.91l1.93-2.54a8.8,8.8,0,0,0-6.2,15.31l1.41-3.41c-5.58-.18-10.45,5.86-8.51,11.27a8.93,8.93,0,0,0,12.61,4.55L265,186.7c-3.64,3.73-3.63,10.29.44,13.73,4.27,3.6,10.23,2.83,15.3,1.83l-2.26-2.94c-1.67,3.78.1,7.78,3.43,10,3.89,2.58,8.95,1.58,13.19.64,2.51-.56,1.45-4.42-1.06-3.86Z"/><path d="M285.05,185.38c.47-.38,0,0-.1,0l-.31.19-.22.11.14-.06c-.09,0-.26.1-.34.13a4.48,4.48,0,0,0-.84.2c.33-.05.39-.05.17,0l-.18,0h-.8l-.24,0c.33.05.38.06.16,0a4.7,4.7,0,0,1-.82-.21l-.12,0c-.2-.07-.15-.05.14.07a2.69,2.69,0,0,0-.38-.19l-.37-.22-.2-.14.16.13a6.88,6.88,0,0,1-.55-.53l-.15-.18.09.12-.19-.29c-.08-.14-.16-.27-.23-.41s-.1-.45,0,0c-.05-.26-.19-.52-.26-.79,0-.11-.05-.23-.07-.34-.11-.56,0,.3,0-.06a7.67,7.67,0,0,1,0-.83c0-.2.13-.42,0,.06.05-.14.05-.31.09-.46l.09-.34c.05-.13.26-.65,0-.08a2.12,2.12,0,0,0,.2-1.54,2,2,0,0,0-3.65-.48,7.5,7.5,0,0,0-.69,3.79,7.9,7.9,0,0,0,1.23,3.65,7.43,7.43,0,0,0,6.72,3.27,8,8,0,0,0,4.38-1.76,2,2,0,0,0,.59-1.41,2,2,0,0,0-3.41-1.42Z"/><path d="M287.29,167.23l-.16-.36.2.48a6.34,6.34,0,0,1-.38-1.42l.07.53a6.15,6.15,0,0,1,0-1.66l-.07.53a6.71,6.71,0,0,1,.43-1.61l-.2.47a8,8,0,0,1,.43-.82,1.6,1.6,0,0,1,.25-.37s-.31.38-.13.17l.19-.22a2,2,0,1,0-2.83-2.83,8.2,8.2,0,0,0-1.24,9.13,2,2,0,0,0,2.74.72,2.05,2.05,0,0,0,.71-2.74Z"/><path d="M297.64,210.3a6.48,6.48,0,0,1,5.06-5.48,2,2,0,0,0,.48-3.66,15.27,15.27,0,0,1-4.66-3.78,6.36,6.36,0,0,1-.82-5.35c1.09-4.26,4.89-7,8.26-9.45a2.06,2.06,0,0,0,.71-2.74,2,2,0,0,0-2.73-.71c-4.41,3.2-9.25,6.89-10.26,12.61a10.31,10.31,0,0,0,1.38,7.66,19.41,19.41,0,0,0,6.1,5.22l.48-3.66a10.31,10.31,0,0,0-7.85,8.28,2.06,2.06,0,0,0,1.39,2.46,2,2,0,0,0,2.46-1.4Z"/><path d="M307.3,184.47a5.49,5.49,0,0,0-2-1.07,5.07,5.07,0,0,0-1.86-.15,5.23,5.23,0,0,0-3.63,1.81l2.83,2.83a4.81,4.81,0,0,1,.42-.48l.19-.18c.34-.3-.21.14-.09.06a7.33,7.33,0,0,1,1.06-.59l-.48.2a5.81,5.81,0,0,1,1.3-.35l-.53.07a5.7,5.7,0,0,1,1.43,0l-.53-.07a4.6,4.6,0,0,1,1.21.32l-.48-.2a4,4,0,0,1,.79.42,2,2,0,0,0,2.74-.72,2,2,0,0,0-.72-2.73,7.1,7.1,0,0,0-9.14,1.42,2.18,2.18,0,0,0-.58,1.41,2.08,2.08,0,0,0,.58,1.42,2,2,0,0,0,1.42.58,1.92,1.92,0,0,0,1.41-.58,2.55,2.55,0,0,1,.26-.3c.15-.16.47-.3-.05,0a5.57,5.57,0,0,1,.68-.37l-.48.2a4.18,4.18,0,0,1,.92-.25l-.53.08a3.78,3.78,0,0,1,.95,0l-.53-.07a3.84,3.84,0,0,1,.82.23l-.47-.2.3.16c.14.08.5.35,0-.07a2.17,2.17,0,0,0,1.41.59,2,2,0,0,0,2-2,1.92,1.92,0,0,0-.59-1.42Z"/><path d="M241.21,139.78q10.85,12.85,21.08,26.21l2.74-2.74a78,78,0,0,1-16.93-15.87l-1.42,3.41c1,.12,1.75,1.35,2.23,2.08.94,1.44,1.81,2.92,2.7,4.38l5.69,9.24c1.35,2.19,4.81.19,3.46-2L254,153.55c-1.82-3-3.53-6.31-7.35-6.76-1.93-.22-2.34,2.24-1.41,3.42A81,81,0,0,0,263,166.7c1.59,1.09,4-1.14,2.74-2.73Q255.22,150.2,244,137c-1.66-2-4.48.88-2.83,2.83Z"/><path d="M373.23,404.35l13-4.88-1.07-3.86-19.57,7.49a2.07,2.07,0,0,0-1.4,2.46,2,2,0,0,0,2.46,1.4l19.58-7.49a2.05,2.05,0,0,0,1.39-2.46,2,2,0,0,0-2.46-1.4l-13,4.88a2.06,2.06,0,0,0-1.4,2.46,2,2,0,0,0,2.46,1.4Z"/></g></g></svg>