<svg xmlns="http://www.w3.org/2000/svg" viewBox="0 0 475.44 862.19"><g id="Layer_2" data-name="Layer 2"><g id="Layer_7_139" data-name="Layer 7,139"><path d="M77.18,856c2.14-8.49-.09-18.13-.91-26.73s-1.62-17.33-2.52-26c-1.85-17.73-4-35.46-6.56-53.11C62.14,715.45,54.47,681,42.34,648a354.65,354.65,0,0,0-25.55-54.91c-5.77-10-21.38-.91-15.48,9C36.55,661.61,50.2,731,58.05,798.89q1.7,14.72,3.14,29.47c.93,9.52.45,20.29,4.43,29.1,2.29,5.07,10.32,3.45,11.56-1.51Z"/><path d="M272,11c16.41,5.71,34.95,5.88,52.07,8.73,17.43,2.91,34.77,6.36,52,10.2,27.34,6.07,56,13.72,76.57,33.93,8.34,8.21,21.26-4.7,12.84-12.84-22.58-21.84-53.34-30.86-83.37-37-17.89-3.64-35.92-6.59-54-9.06C309.81,2.51,290.39-1.85,272,.86c-5.61.82-4.37,8.65,0,10.17Z"/><path d="M7.82,590.47c18.77-6.89,36-18.93,52-30.81a509.16,509.16,0,0,0,46.76-39.24,500.77,500.77,0,0,0,77.29-93.95,477.59,477.59,0,0,0,51.89-110.13C249.74,273,256,228.25,259.59,183c4.45-55.76,6.09-112.17,21.3-166.36,3-10.77-13.73-15.37-16.73-4.62-25.74,92.2-13.93,190.05-39.76,282.29a482,482,0,0,1-116.81,203.5A452.53,452.53,0,0,1,57.7,542.6c-17.85,13.7-37.49,25-55.07,39-4.15,3.28.33,10.69,5.19,8.91Z"/><path d="M428.63,346.58c.92-4.68,2.33-8.67,2.53-13.52s.32-9.43.25-14.18q-.23-14.22-.18-28.45c.08-19,.63-38,1.87-56.9,2.44-37.29,7.52-74.82,18.33-110.69a375.29,375.29,0,0,1,23-58.22c5-10.07-10.24-18.92-15.08-8.82-33.44,69.89-42.19,149.13-43.07,225.73q-.18,16,0,32c.07,5.64.16,11.24.65,16.86a79.16,79.16,0,0,0,.79,8c.54,2.83,1.9,5.39,2.61,8.18,1,3.93,7.42,4.22,8.25,0Z"/><path d="M294,417.46c22.84-9.79,45.25-20.54,67.61-31.36q16.32-7.89,32.48-16.11,8.29-4.22,16.57-8.48c5.53-2.85,12.66-5.34,16.7-10.23,3.82-4.6,1.88-14-5.51-13.3-6.45.62-11.77,4.11-17.4,7.11q-8.21,4.37-16.44,8.68-16.91,8.87-33.84,17.65c-22.28,11.57-44.8,22.66-67.09,34.21-8,4.15-1,15.22,6.92,11.83Z"/><path d="M290.85,413.52c3.39,7.72,6.3,15.66,9.79,23.36s7.45,15.07,11.42,22.41Q324,481.4,336.15,503.4q24,43.59,49.45,86.39,14.5,24.53,29.31,48.9c5.47,9,19.79.69,14.16-8.28Q376,545.69,328.23,457.67q-6.68-12.32-13.61-24.49c-4.78-8.43-10.52-16.22-15.57-24.45-3.27-5.33-10.6-.68-8.2,4.79Z"/><path d="M79.23,861.24c44.92-25.83,88.24-54.43,132.15-82s87.85-55.06,131.73-82.67l74.25-46.73c9.17-5.78.68-20.42-8.52-14.57q-131.28,83.43-262.46,167c-24.74,15.69-49.45,31.27-73.54,48-6.61,4.58-.77,15,6.39,10.92Z"/><path d="M256.66,715q-10-14-20-27.93c-.39-.54-1.37-1.55-1.23-2.26s1.94-1.53,2.48-1.87l7-4.43c4.59-2.89,9.2-5.76,13.86-8.54a269.67,269.67,0,0,1,28.44-15c8.68-3.87,17.6-7.15,26.28-11,9.65-4.33,19-9.5,26.79-16.71l-3.14-.4,21.31,32.28,1.73-3-5.14.17c-2.57.09-2.58,4.09,0,4l5.14-.17a2,2,0,0,0,1.73-3L340.6,624.76a2,2,0,0,0-3.14-.41c-14.41,13.3-33.75,19-51.32,26.71A267.32,267.32,0,0,0,257,666.37c-4.79,2.86-9.53,5.81-14.25,8.79l-7,4.42c-1.94,1.23-4.23,2.6-4.27,5.2a6.73,6.73,0,0,0,1.49,3.87c.95,1.36,1.93,2.7,2.89,4.05l5.79,8.1L253.21,717a2.07,2.07,0,0,0,2.74.71,2,2,0,0,0,.71-2.73Z"/><path d="M253,719.26l47-25.79c7.45-4.09,15-8.08,21.93-13,5.81-4.12,11.15-8.84,16.85-13.1,6.32-4.72,13.13-8.88,21-10.39,2.53-.48,1.46-4.34-1.06-3.86-14.36,2.77-24.95,13.55-36.2,22a171.63,171.63,0,0,1-21.05,13l-23.8,13L251,715.81c-2.26,1.24-.24,4.69,2,3.45Z"/><path d="M365.74,648.07l-40.32-56.52L314.1,575.69l-1.19,2.94c4.3-.72,9.89-2.7,10.41-7.75.31-3-1.66-6-2.88-8.55l-4.46-9.5-1.73,3c6.47.42,10-5.75,15.31-8.07,2.7-1.18,5.1,0,6.85,2.27a36.13,36.13,0,0,1,3,5q1.77,3.3,3.55,6.58,13.92,25.62,29.1,50.55,8.58,14.1,17.56,28l1.2-2.94-24.27,9.64a2,2,0,0,0-1.4,2.46,2,2,0,0,0,2.46,1.39l24.27-9.63a2,2,0,0,0,1.2-2.94Q376.72,612.95,361.7,587q-7.49-12.93-14.64-26.06-1.79-3.28-3.55-6.57a62.8,62.8,0,0,0-3.22-5.71c-2.07-3-5.11-5.62-9-5.33-3.51.25-6.31,2.49-9,4.6-2.34,1.86-4.92,4.16-8.08,4-1.64-.11-2.32,1.74-1.73,3l3.64,7.74,1.77,3.76a13.24,13.24,0,0,1,1.41,3.52c.49,3.47-5.12,4.51-7.5,4.91a2,2,0,0,0-1.19,2.94L351,634.23l11.31,15.86a2.06,2.06,0,0,0,2.74.72,2,2,0,0,0,.72-2.74Z"/><path d="M269.29,618.24A167.55,167.55,0,0,0,256,594.06q-3.81-5.73-8.08-11.14c-1.15-1.47-3.12-3.22-3.48-5.13-.31-1.68,1.44-2.74,2.69-3.43,4.24-2.38,8.79-4.31,13.16-6.44l13.93-6.77,13.7-6.66,3.37-1.63.47-.23c.92-.42.33,0,.24-.1.3.2.54.88.7,1.17,1.22,2.27,2.43,4.55,3.65,6.83l16.27,30.4.72-2.73q-11.88,6.67-24,12.82-6,3-12.13,5.94-3,1.45-6.11,2.88a3.29,3.29,0,0,1-1.89.51c-.21,0-.5-.19-.69-.17.6-.07-.16,2.07.43,1.26a2,2,0,0,0-.71-2.73,2,2,0,0,0-2.74.72c-2.22,3,1.93,5.12,4.44,4.91,1.83-.15,3.51-1.2,5.15-2,1.89-.88,3.78-1.78,5.66-2.68q11.21-5.37,22.17-11.21,6.27-3.35,12.48-6.83a2,2,0,0,0,.71-2.73q-7.77-14.55-15.56-29.09l-4-7.49c-1.08-2-2.43-4.16-5.05-3.74a12.4,12.4,0,0,0-3.32,1.35l-4,2-7.19,3.5L247,569.92c-3.74,1.82-8,4.8-6.24,9.6.83,2.25,2.56,4,4,5.88s3,3.88,4.41,5.87a167.92,167.92,0,0,1,16.61,29,2,2,0,0,0,2.73.72,2.05,2.05,0,0,0,.72-2.74Z"/><path d="M286.42,568.48a15.06,15.06,0,0,0-13.65,4.23,11.37,11.37,0,0,0-1.56,14c2.69,4.35,8,7,13,4.89,4.54-1.93,7.21-7.16,6.83-12-.5-6.15-5.16-11.09-10.54-13.63a2.06,2.06,0,0,0-2.74.72,2,2,0,0,0,.72,2.73c3.54,1.67,6.9,4.43,8.13,8.28a8.74,8.74,0,0,1-2.63,9.45c-2.86,2.21-6.44,1-8.61-1.51a7.35,7.35,0,0,1-.36-9.35,10.81,10.81,0,0,1,10.36-3.92c2.52.48,3.6-3.37,1.07-3.86Z"/><path d="M181.33,586.39l9.41,11.91c1.53,1.93,3,3.91,4.59,5.8,1.4,1.66,3.34,2.77,5.56,2.18s4.55-2,6.7-3.06l7-3.32,14-6.64c1.9-.9,4.07-1.68,5.36-3.43s1-4,.16-6c-2-4.65-4-9.27-6.05-13.9l-3-7c-.84-1.92-1.51-4.34-3.15-5.76-1.81-1.58-4.17-1.35-6.18-.31a57.14,57.14,0,0,0-6.13,4.18l-28.18,19.79A2,2,0,0,0,181,584l6.19,5.89c1.86,1.77,4.7-1,2.83-2.83l-6.19-5.89-.4,3.14,22.3-15.66c3.68-2.58,7.3-5.31,11.08-7.76.54-.35,1.45-1,2.15-.86s1,1.16,1.21,1.69c.94,2,1.8,4.13,2.7,6.19l5.39,12.4a62.69,62.69,0,0,1,2.5,5.85,1.29,1.29,0,0,1-.41,1.7,11.49,11.49,0,0,1-2.18,1.18l-24.84,11.78a24.13,24.13,0,0,1-3.27,1.51c-.88.26-1.35-.45-1.88-1.08-1.53-1.82-3-3.74-4.44-5.61l-9.56-12.1a2,2,0,0,0-2.83,0,2.05,2.05,0,0,0,0,2.83Z"/><path d="M190.12,759.79a152.31,152.31,0,0,1-24-46.14l-.92,2.26a338.53,338.53,0,0,1,45-20.85q6.57-2.47,13.25-4.68l-2-.52A141,141,0,0,1,234.24,707q2.88,4.53,5.42,9.28c1.41,2.64,3.66,6,2.17,9.06-1.3,2.66-4.24,4.33-6.61,5.91q-4.6,3-9.32,5.92-9.43,5.74-19.29,10.75-11.06,5.61-22.57,10.25a2.06,2.06,0,0,0-1.39,2.46,2,2,0,0,0,2.46,1.39,290.62,290.62,0,0,0,42-20.92q5-3,9.92-6.27c2.8-1.86,5.75-3.72,7.69-6.55,2.23-3.27,1.75-7,.2-10.43a100.07,100.07,0,0,0-5.48-10A147.12,147.12,0,0,0,224.25,687a2,2,0,0,0-1.95-.51,344.93,344.93,0,0,0-46.52,19.26q-6.39,3.19-12.63,6.68a2,2,0,0,0-.92,2.26,155.59,155.59,0,0,0,24.43,47.09,2.07,2.07,0,0,0,2.74.72,2,2,0,0,0,.72-2.74Z"/><path d="M176.39,577.22C171,565,160,556.79,149.23,549.53c-5.58-3.76-11.27-7.37-16.59-11.49-1.32-1-2.64-2.09-3.89-3.21s-2.29-2.39-1.57-4.28a26.16,26.16,0,0,1,3.15-5.14q1.72-2.55,3.57-5a139.76,139.76,0,0,1,16.18-18.11c5.89-5.55,12.46-10.3,18.43-15.76a63.12,63.12,0,0,0,8.23-9.06A109.19,109.19,0,0,0,183.3,467a112.72,112.72,0,0,1,13.29-19.11c10.07-11.32,22.06-20.83,31.37-32.83,1.19-1.54,2.34-3.1,3.43-4.7a2,2,0,0,0-1.73-3,8.74,8.74,0,0,0-7,4.38c-1.28,2.25,2.18,4.26,3.45,2a4.6,4.6,0,0,1,3.55-2.4l-1.73-3c-8.7,12.77-20.9,22.53-31.41,33.71a105.19,105.19,0,0,0-14.13,18.53c-4.22,7.14-8,14.45-13.89,20.42S156,491.6,149.84,497.08a143,143,0,0,0-17,18.1q-3.82,4.88-7.24,10A15,15,0,0,0,123,530.7a6.8,6.8,0,0,0,1.76,5.83c2.24,2.55,5.32,4.6,8,6.6s5.54,3.92,8.35,5.8c10.81,7.24,22.79,14.42,29.56,25.93a42.91,42.91,0,0,1,2.23,4.38,2,2,0,0,0,2.74.72,2.05,2.05,0,0,0,.71-2.74Z"/><path d="M176.11,579.23q17.44-18,35.16-35.7,8.76-8.79,17.59-17.5c3-2.93,5.95-5.86,8.94-8.78,1.32-1.3,2.65-3,4.21-4,1.28-.8,2.85,1.07,3.79,1.8l22.52,17.5a2,2,0,0,0,2.82,0L290,512.11l-3.41-1.42a17.64,17.64,0,0,0,9.64,14.64c6.19,3.21,13.56,2.58,19.73-.33,5.86-2.76,11.69-8.34,10.63-15.38-.57-3.74-2.87-7-4.81-10.1l-6.55-10.59-26.35-42.58L262.67,404a3.47,3.47,0,0,0-2.08-1.73c-.72-.24-1.46-.45-2.2-.63a31,31,0,0,0-4.5-.7,31.31,31.31,0,0,0-24.39,9,31.31,31.31,0,0,0-2.9,3.5,2,2,0,0,0,.72,2.73,2,2,0,0,0,2.73-.71c6.62-9.18,19.38-12.92,30-9.2l-1.19-.92,38.27,61.86,19.14,30.93c1.52,2.45,3.1,4.88,4.54,7.38,1.21,2.12,2.34,4.54,1.86,7-.86,4.48-5.42,7.61-9.34,9.28-4.81,2-10.66,2.42-15.35-.14-4.05-2.21-7.16-6.31-7.35-11a2,2,0,0,0-3.42-1.41l-18.86,20.43h2.82l-20.75-16.13c-2.89-2.26-6.48-6.27-10.39-3.8a27.94,27.94,0,0,0-4.33,4l-4.73,4.65q-18.66,18.35-37,37-10.35,10.49-20.62,21.07c-1.79,1.84,1,4.68,2.83,2.82Z"/><path d="M297.65,229.26q6.18-25.68,11.31-51.6t9.2-52q4.08-26.11,7.09-52.39.75-6.57,1.44-13.13c.22-2,.38-4.12.64-6.16a11.21,11.21,0,0,1,1.31-4.43c1.74-2.8,5.55-2.54,8.38-2.08,4.24.69,8.46,1.62,12.69,2.43,8.56,1.66,17.2,3.11,25.71,5,2.63.58,6,1.41,7.43,4a8.39,8.39,0,0,1,.48,5.1c-.27,2.14-.64,4.27-1,6.4L378.3,96.85c-.66,4.31-1.4,8.63-1.93,13-.5,4-.5,8.12,1.12,11.88,1.29,3,3.64,5.75,3.93,9.13a13.23,13.23,0,0,1-1.72,7.11c-2.66,5.15-6.71,9.44-9.28,14.65a21,21,0,0,0-2.36,9.19c0,3.95,1.06,7.8,1.27,11.74a14.43,14.43,0,0,1-.68,5.58A20.46,20.46,0,0,1,366,183.9a57.08,57.08,0,0,0-5.72,9.52c-3,6.86-4.12,14.27-4.52,21.69-.2,3.76-.22,7.53-.2,11.29,0,1.87,0,3.74.05,5.61a15,15,0,0,1-.41,5c-1.06,3.11-4.81,2.86-7.45,2.4-4.27-.74-8.5-1.75-12.73-2.63l-26.4-5.5-13-2.69c-2.51-.53-3.59,3.33-1.06,3.85l27.38,5.7,13.44,2.8c4.27.89,8.56,2,12.89,2.56,3.44.44,7.24,0,9.48-2.94s1.84-7.09,1.8-10.62c-.07-7.7-.23-15.5,1-23.13a49.83,49.83,0,0,1,2.95-10.92,50.92,50.92,0,0,1,5.79-9.8c2.29-3.31,3.92-6.77,4-10.86s-1.06-8.09-1.26-12.16c-.32-6.48,3.41-11.58,7-16.64,3.23-4.63,6.95-10,6.35-15.9-.39-3.83-2.55-6.72-4.12-10.1-1.67-3.62-1.32-7.81-.77-11.64,1.31-9.12,2.79-18.22,4.18-27.33L386.75,68c.59-3.86,1.58-8.21-.8-11.69-1.93-2.83-5.23-4.2-8.43-5-4.15-1-8.42-1.69-12.62-2.5C356,47,347.18,45.1,338.27,43.61c-3.47-.58-7.47-.91-10.52,1.2s-4.05,5.88-4.46,9.51c-2.05,18-4,35.9-6.53,53.8s-5.49,35.78-8.8,53.58q-5,26.93-11.14,53.64-1.49,6.43-3,12.85c-.6,2.51,3.26,3.57,3.86,1.07Z"/><path d="M338.34,338l6.4-78.42,1.83-22.34h-4l-.19,3.38c-.15,2.58,3.85,2.57,4,0l.19-3.38c.14-2.59-3.8-2.54-4,0l-6.41,78.43L334.34,338c-.21,2.57,3.79,2.55,4,0Z"/><path d="M337.75,339.47l34.84,3.18c1.17.1,1.87-1,2-2q4-30.25,6.8-60.64,1.41-15.19,2.55-30.4.57-7.55,1.06-15.1c.16-2.55.33-5.11.48-7.67.13-2.18.35-4.44-.61-6.47-2.09-4.48-8.18-4.16-12.31-4.5l-17.33-1.45c-2.57-.22-2.55,3.78,0,4l14.6,1.22c2.41.2,4.82.37,7.22.61,1.3.13,3.15.32,4,1.46,1.11,1.48.49,4.19.38,5.87q-.21,3.6-.45,7.18-.48,7.31-1,14.6-2.18,29.31-5.41,58.53-1.82,16.39-4,32.76l2-2-34.84-3.18a2,2,0,0,0-2,2,2,2,0,0,0,2,2Z"/><path d="M386.5,53.76c-1.13,4.4,1.42,8.65,5.15,10.91,4.56,2.77,10.22,1.89,15.12.67,5.32-1.33,10.62-2.81,15.92-4.22,2.2-.58,5-.93,6.19-3.17,1.1-2.05.34-4.41-.62-6.35-2.8-5.7-5.9-11.27-8.85-16.89a2,2,0,0,0-3.14-.41l-3.95,3.48c-1.93,1.71.91,4.53,2.83,2.83l4-3.48L416,36.72l6.52,12.44a34.92,34.92,0,0,1,2.76,5.5c.14.45.37,1.08,0,1.49s-2.1.71-2.71.87l-13.16,3.49c-4.15,1.1-8.74,2.69-13.07,1.75-3.25-.71-6.93-3.75-6-7.44.64-2.49-3.22-3.55-3.86-1.06Z"/><path d="M388.63,54.2c-2.55-3.88-4-9-2.13-13.46,1.45-3.55,5.43-6.59,9.4-6a2.07,2.07,0,0,0,2.47-1.4,2,2,0,0,0-1.4-2.46,13.32,13.32,0,0,0-13.88,7.69c-2.63,5.74-1.29,12.48,2.09,17.62,1.41,2.14,4.88.14,3.45-2Z"/><path d="M321.35,12l-3,12.06c-.94,3.82-2.23,7.71-2.69,11.63a7.68,7.68,0,0,0,4.37,8.12A80,80,0,0,0,330,47.74c6.92,2.45,14.2,4.45,21.59,4.43a32,32,0,0,0,19.88-6.8c6.51-5,11.7-11.81,17.13-17.95,1.7-1.93-1.12-4.77-2.83-2.83-4.54,5.14-8.91,10.57-13.94,15.25C367.1,44.23,361.49,47.35,355,48c-6.67.67-13.31-.72-19.66-2.69-3.27-1-6.49-2.21-9.69-3.46-2.2-.86-5.77-1.69-6-4.52-.15-1.8.55-3.72,1-5.44l1.54-6.27,3.07-12.54c.62-2.5-3.24-3.56-3.85-1.06Z"/><path d="M227.36,328.28l20.58,20.17a2,2,0,0,0,2.43.31c9.15-6.75,21.39-6.56,32.24-7.29l19.93-1.33c1.58-.11,3.16-.19,4.73-.32s3-.45,3.87-1.85c.75-1.24.62-2.75.64-4.14l.08-5.2q.15-9.88.31-19.79c0-2.76-.13-5.69-2.24-7.74-1.95-1.89-4.92-2.8-7.43-3.66-5.15-1.78-10.51-2.84-15.69-4.52a40.06,40.06,0,0,1-7.27-3.08,35.08,35.08,0,0,1-6.66-5.11,57.45,57.45,0,0,0-7.28-6.11,33.79,33.79,0,0,0-8.45-4,34.13,34.13,0,0,0-18.13-.55c-2.5.61-1.44,4.47,1.07,3.86a29.84,29.84,0,0,1,14.84.21,31.49,31.49,0,0,1,13.2,7.58,79.4,79.4,0,0,0,6.33,5.54,32.55,32.55,0,0,0,6.66,3.75c4.78,2,9.84,3.21,14.84,4.59a72.75,72.75,0,0,1,7.38,2.35c2.21.86,4.45,1.67,4.77,4.29a63.89,63.89,0,0,1,0,8.75l-.14,9.4-.15,9.4,0,1.87c0,.48.17,0,0,.06a4.55,4.55,0,0,1-1,.09l-5,.34-18.68,1.25c-11.66.78-24.92.61-34.76,7.87l2.42.31-20.58-20.17c-1.84-1.8-4.67,1-2.83,2.83Z"/><path d="M257.92,281.3a68,68,0,0,1-4.21,12.49,108.48,108.48,0,0,1-6.31,11.35c-4.14,6.77-8,14.12-6.91,22.32a16.22,16.22,0,0,0,5.3,10.42c2,1.66,4.79-1.16,2.83-2.83-5.08-4.33-5.09-11.77-3.05-17.63,2.67-7.66,8.13-14.06,11.5-21.41a72.48,72.48,0,0,0,4.71-13.65c.59-2.5-3.26-3.57-3.86-1.06Z"/><path d="M268.66,288.89a33.35,33.35,0,0,0-4.2,33.54,2,2,0,0,0,1.73,1l42.29,4.06a2,2,0,0,0,2-2,2,2,0,0,0-2-2l-42.29-4.06,1.73,1a29.13,29.13,0,0,1,3.57-28.7,2.06,2.06,0,0,0,0-2.82,2,2,0,0,0-2.83,0Z"/><path d="M243.93,335.8l2.26,6.81a2,2,0,0,0,3.86-1.07l-2.26-6.8a2,2,0,0,0-3.86,1.06Z"/><path d="M124.6,692.46c-4.92,3.16-11-1.29-13-5.93-1.4-3.27-1-7.14-.16-10.5a57.55,57.55,0,0,1,5-11.7,2,2,0,0,0-2.26-2.94c-5.45,1.61-12.78-.89-14.51-6.76-1.62-5.51,4.21-12.22,9.93-10.13l1.06-3.86c-2.22-.38-2.52-3.27-1.59-5,1.61-2.9,5.2-4.61,8-6.18s6.4-3.36,9.78-2.57c2.45.57,5,2.35,5,5.09,0,2.14,2.6,2.52,3.72,1,2.83-3.81,7.24-7.33,12.24-7.15,4.12.15,8.26,3.62,7.89,7.94a2,2,0,0,0,2.53,1.93,9.08,9.08,0,0,1,10.3,13.94,2,2,0,0,0,.31,2.43,18.73,18.73,0,0,1-15.48,31.55l1.73,3a.93.93,0,0,1-.93.35c-.48-.12.35.12.24.19s.12-.5,0-.18a1.55,1.55,0,0,1-.48.54,9.91,9.91,0,0,1-3.44,1.27,103.65,103.65,0,0,1-32.81,3.8c-2.58-.11-2.57,3.89,0,4a109.33,109.33,0,0,0,29.51-2.81A59.44,59.44,0,0,0,153.8,692c1.76-.66,3.48-1.64,4.22-3.47,1.56-3.8-4.08-7.77-6.42-3.87a2,2,0,0,0,1.73,3,23.31,23.31,0,0,0,19-7.7,23,23,0,0,0-.66-30.68l.31,2.42a13.08,13.08,0,0,0-14.81-19.82l2.53,1.93c.54-6.33-5.31-11.28-11.2-11.89-6.7-.68-12.63,4-16.38,9.08l3.73,1a9.05,9.05,0,0,0-4.8-7.7,12.84,12.84,0,0,0-10.17-.89,39.14,39.14,0,0,0-10.25,5.3c-2.84,1.9-5.59,4.46-6,8-.37,3.28,1.47,7.13,5,7.73a2,2,0,0,0,1.06-3.86c-6.38-2.34-13,2.76-14.82,8.8-2,6.71,2.7,12.87,8.75,15.28a16.51,16.51,0,0,0,10.66.53L113,662.31c-3.47,6.7-7.08,14.06-6,21.82A15.94,15.94,0,0,0,117.52,697a10.65,10.65,0,0,0,9.1-1c2.16-1.39.16-4.85-2-3.46Z"/><path d="M80.33,648.51c-3.06,4-10,4.36-13.45.78-3.69-3.78-2.77-10.42,1.25-13.55l-2.83-2.82c-1.92,1.61-4.72,1.42-6.88.42a8.25,8.25,0,0,1-4.88-6.47,12.76,12.76,0,0,1,3.22-9.43,11.19,11.19,0,0,1,3.53-3.11,3.2,3.2,0,0,1,1.59-.19c-.08,0,.34.05.32.11s-.45-.49-.38-.72l1.93-1.47c-2.16.24-2.66-2.45-1.91-4,1.15-2.37,4-4,6.33-5s5.33-1.6,7.44,0c1.49,1.16,2.5,3.29,1.4,5l3.65,1.55a5.77,5.77,0,0,1,4.61-4.15,7.5,7.5,0,0,1,6.67,2c5.1,4.57,5,12,5,18.26a2,2,0,0,0,3.41,1.41c.58-.6,1.47-.24,2,.23,1.13.91.89,2.67.54,3.9a23.73,23.73,0,0,1-5.4,8.87,28.28,28.28,0,0,1-8,6.26c-2.51,1.29-6.43,2.49-8.94.51-1.38-1.09-2.82-4.29-1-5.66a2.07,2.07,0,0,0,.72-2.74,2,2,0,0,0-2.74-.71c-3.21,2.44-3.47,6.79-1.34,10.09,2.65,4.09,7.78,4.71,12.14,3.31a28.65,28.65,0,0,0,12-8.23c3.15-3.48,6.58-8.24,6.85-13.08a6.61,6.61,0,0,0-3.37-6.34,5.26,5.26,0,0,0-6.32.76l3.42,1.42c.08-8-.41-17.23-7.64-22.3a11.2,11.2,0,0,0-9.82-1.59,9.65,9.65,0,0,0-6.63,6.73,2,2,0,0,0,3.66,1.54c2.07-3.24.76-7.48-2-9.86-3.51-3-8.31-2.44-12.25-.67-3.63,1.63-7.79,4.56-8.61,8.72-.72,3.67,2.05,8.26,6.17,7.8a2.07,2.07,0,0,0,1.92-1.47c1.09-3.94-3.7-5.09-6.57-4.07a12.57,12.57,0,0,0-4.54,3.39A19.38,19.38,0,0,0,51.08,619c-1.62,3.51-2.23,7.68-.76,11.35a12.62,12.62,0,0,0,7.25,7,10.31,10.31,0,0,0,10.56-1.56,2,2,0,0,0,0-2.82,2,2,0,0,0-2.83,0c-4.5,3.48-5.86,10.16-3.74,15.33,2.32,5.67,8.3,8.25,14.16,7.25a12.85,12.85,0,0,0,8.06-5,2,2,0,1,0-3.45-2Z"/><path d="M81.07,573.6c-1.07,6,.4,13,5.17,17.18a13.11,13.11,0,0,0,15.93,1.07,10.79,10.79,0,0,0,4.89-7.87c.27-2.31-3.3-2.61-3.93-.53-1.83,6,3.28,11.74,9,12.94,6.45,1.35,11.89-3.07,14.24-8.8a19.73,19.73,0,0,0,1.12-10.48c-.26-1.75-2.87-1.86-3.65-.48-2,3.57,2.33,7.15,5.78,6,4-1.39,4.39-6.7,4.74-10.24.42-4.36.22-9.15-2.24-12.93-2.13-3.29-5.7-5.75-9.74-5.56l1.41,3.41c4.67-5.53,2.13-13.58-3.09-17.79-7.09-5.71-17.06-3.51-25.09-1.51l1.54.2a16.58,16.58,0,0,0-23.56,22.51l.31-2.43a18.61,18.61,0,0,0-5.3,17.83c.77,3.17,2.54,6.63,5.63,8.06,2.81,1.3,6.73.53,8.1-2.48a2.06,2.06,0,0,0-.71-2.74,2,2,0,0,0-2.74.72c-.85,1.86-3.08,1.12-4.21-.06a10.89,10.89,0,0,1-2.51-6.15,14.64,14.64,0,0,1,4.57-12.35,2,2,0,0,0,.31-2.42,13.14,13.14,0,0,1-.49-13.13A12.37,12.37,0,0,1,88,539.19a12.6,12.6,0,0,1,6.42,1.94,3.24,3.24,0,0,0,1.73.77,10.43,10.43,0,0,0,2.25-.5c1.59-.38,3.19-.74,4.8-1,5-.87,11.25-1.17,15.29,2.45,3,2.7,5.52,8,2.48,11.62-1,1.23-.44,3.5,1.42,3.42a7.05,7.05,0,0,1,5.87,3,12.84,12.84,0,0,1,2.28,7.85,26.36,26.36,0,0,1-1,8.39c-.2.57-.61,1.6-1.29,1.75-.38.08-.56-.23-.87-.31-.54-.14.24-.49-.11.13l-3.65-.47c.78,5.25-1.41,12.21-6.87,14.13-4.5,1.58-11.35-2.59-9.76-7.8l-3.93-.53c-.59,5-7.38,7.25-11.55,5.51-5.52-2.3-7.54-9.38-6.58-14.83a2.06,2.06,0,0,0-1.4-2.46,2,2,0,0,0-2.46,1.4Z"/><path d="M261.34,257.21c-5.92,1.05-10.88,7.07-9.89,13.17.87,5.34,6.4,8.05,11.41,7.06a7.67,7.67,0,0,0,5.91-5.2l-3.93-.53c-.22,6.42,3.73,13.48,10.31,15,5.89,1.38,12.86-2.14,14.14-8.3h-3.86a14.16,14.16,0,0,0,14,9.88c6.33-.27,11.17-5.28,12.09-11.43a13.24,13.24,0,0,0-2.19-9.86l-.31,2.42a18.74,18.74,0,0,0,2.72-18.3,17.85,17.85,0,0,0-14.11-11,18.49,18.49,0,0,0-10.55,1.51h2c-.39-.22-.07-1.48,0-1.88a12.92,12.92,0,0,0,.21-3.72,8,8,0,0,0-3.5-5.33c-4-2.89-9.32-3.19-14.06-3.18-5.73,0-11.82.9-16.43,4.59A14.72,14.72,0,0,0,249.84,245c.3,2.44,1.52,6,4.28,6.51a3.94,3.94,0,0,0,3.54-.94c1.22-1.28.58-2.83-.64-3.77a2,2,0,0,0-2.74.72,2.06,2.06,0,0,0,.72,2.74l-.13-.05-.52-.89,0-.28.27-1c.1-.18.39-.29.49-.45s-.07.4,0,0c0,.26-.14-.16,0,0a9.19,9.19,0,0,1-.87-1.64,7.83,7.83,0,0,1-.26-4,11.39,11.39,0,0,1,4.68-7.25A20.9,20.9,0,0,1,269,231.65a35.25,35.25,0,0,1,10.15.56c2.15.52,5.11,1.5,6,3.76.5,1.25,0,2.69-.11,4a5.27,5.27,0,0,0,1.05,4.48,2.67,2.67,0,0,0,2.51.93c.77-.21,1.49-.64,2.27-.86a14.22,14.22,0,0,1,4.63-.53,14.84,14.84,0,0,1,8.52,3.17c5.68,4.58,6.63,13.73,2.14,19.48a2.08,2.08,0,0,0-.31,2.43c3.32,4.52,1.95,11.72-3.12,14.4s-12-.74-13.48-6.07c-.51-1.82-3.44-2-3.86,0-.85,4.12-5.56,6.5-9.52,5.43-4.73-1.29-7.23-6.5-7.07-11.09.08-2.32-3.26-2.63-3.93-.53-1.06,3.35-6.68,3.18-8.73.51-1.37-1.79-1-4.4.07-6.26a8.77,8.77,0,0,1,6.16-4.36,2,2,0,0,0,1.39-2.46,2,2,0,0,0-2.46-1.4Z"/><path d="M267.81,65.87c.41,2.54.81,5.08,1.22,7.61a27.07,27.07,0,0,0,1.49,5.94,11.55,11.55,0,0,0,8.59,7.2,11,11,0,0,0,10.3-3.32,11.77,11.77,0,0,0,2.73-10.54,2,2,0,0,0-3.85,0C286.52,80,292.2,87.19,299.42,88c7.66.81,14.67-5.25,16.17-12.55a20.62,20.62,0,0,0-2-13.57l-.72,2.74a18.59,18.59,0,0,0,8.82-15,17.65,17.65,0,0,0-8.36-15.52,18,18,0,0,0-9.89-2.86l1,3.73c6.44-3.08,5.17-12.48.33-16.35-3.12-2.5-7-3.45-10.92-3.87a22.1,22.1,0,0,0-10,.85c-3.39,1.24-6.33,3.77-6.22,7.66.07,2.57,4.07,2.58,4,0-.08-2.84,3.08-3.92,5.4-4.4a23.26,23.26,0,0,1,10.06.46c3,.76,6.35,2.35,7.38,5.54.78,2.44.46,5.45-2.06,6.66-1.83.87-.89,3.75,1,3.72a14.37,14.37,0,0,1,13.83,10.26,14.36,14.36,0,0,1-6.42,15.66,2.05,2.05,0,0,0-.71,2.74c3.47,6.77,2.16,16.2-5.52,19.36a9.09,9.09,0,0,1-9.2-1,8.45,8.45,0,0,1-3.26-8.39h-3.85A7.69,7.69,0,0,1,286.11,81a7.16,7.16,0,0,1-7.27,1.46c-3-1-4.48-3.51-5.23-6.39-1-3.65-1.34-7.5-1.94-11.23a2,2,0,0,0-2.46-1.4,2,2,0,0,0-1.4,2.46Z"/><path d="M271.78,612.94c-7.16,2.34-7.64,12.11-3.26,17.19a8.28,8.28,0,0,0,8.78,2.6,7.54,7.54,0,0,0,5.5-7.07,2,2,0,0,0-3.73-1,8,8,0,0,0,.6,8.65,8.52,8.52,0,0,0,8.66,3.34,10.85,10.85,0,0,0,7.68-6.12,15,15,0,0,0,.25-11l-3.86,1.06c1.84,5.06,7.74,6.67,12.52,4.91,5.89-2.17,8.06-8.34,6.54-14.18a19,19,0,0,0-5.78-9.25l-.41,3.14a7.51,7.51,0,1,0-8.61-12c-1.86,1.78,1,4.61,2.83,2.83a3.75,3.75,0,0,1,5.42.44c1.29,1.82.2,4.42-1.66,5.32a2,2,0,0,0-.4,3.14,15.24,15.24,0,0,1,4.8,7.66c.61,2.48.43,5.59-1.43,7.53-2.44,2.53-8.55,3.32-10-.56-.87-2.4-4.71-1.39-3.86,1.06,1.5,4.32,1,10.39-4.12,12a4.63,4.63,0,0,1-5.07-1.17,4.08,4.08,0,0,1-.69-4.69l-3.72-1a3.56,3.56,0,0,1-2.86,3.31,4.46,4.46,0,0,1-4.75-1.87c-2.14-2.81-2.43-9,1.65-10.3,2.44-.8,1.4-4.66-1.06-3.86Z"/><path d="M231.45,655.45c-5.13,2.15-12.06.49-14.55-4.84-2.11-4.5.09-11,4.89-12.7l-1.54-3.65c-1.86.91-4.11,0-5.51-1.32a6.49,6.49,0,0,1-1.43-6.54c1.61-5.85,7.72-8.4,13-9.91l-1.54-3.66c-.47.3-1.06-.22-1.21-.73-.3-1,.56-2.13,1.19-2.78a9.61,9.61,0,0,1,16.3,6.58,2,2,0,0,0,2.54,1.92A10.14,10.14,0,0,1,254,634c-1.16,1.45-.13,3.95,2,3.34,4.14-1.21,7.56,4.08,6.32,7.73-1.48,4.38-6.72,6.12-10.93,5.71a2,2,0,0,0-2,1.73,2,2,0,0,0,1.44,2.2c.43.17.29,1.22.16,1.53a4.43,4.43,0,0,1-2.41,1.89,13.35,13.35,0,0,1-5.86,1c-3-.11-7.29-1.38-7.55-5-.19-2.55-4.19-2.57-4,0,.48,6.55,7.25,9.28,13.07,9,3.18-.18,7-1.11,9.22-3.54,2.52-2.75,2.1-7.3-1.57-8.75l-.53,3.93c6.22.61,13.75-3,15-9.6,1.24-6.36-4.77-13.67-11.49-11.7l1.94,3.35c3.8-4.71,4.54-11.68,1.14-16.85a14.57,14.57,0,0,0-15.48-6l2.53,1.93a13.73,13.73,0,0,0-16.54-13c-3.75.8-8.05,3.54-8.85,7.56a5.27,5.27,0,0,0,1.76,5.24,4.56,4.56,0,0,0,5.37.54c1.88-1.18.7-4.29-1.54-3.65-7.34,2.09-15.18,6.29-16.18,14.69a10,10,0,0,0,3.57,9.09,8.92,8.92,0,0,0,9.62,1.3c2-1,.6-4.43-1.54-3.65a13.55,13.55,0,0,0-8.61,13.25c.22,6.07,4.65,10.88,10.39,12.5a15.41,15.41,0,0,0,10-.5,2.07,2.07,0,0,0,1.39-2.46,2,2,0,0,0-2.46-1.4Z"/><path d="M73.85,799.18c2-3.65,5.91-8.24,10.63-7.56,3.13.45,6.37,4.39,4.29,7.37l3.73,1a6.59,6.59,0,0,1,7.19-5.5,6.68,6.68,0,0,1,5.23,7.46l3.93-.53c-.26-.67.05.06-.16.14,0,0,.19-.18.28-.18.59-.06,1-.35,1.62-.26a8.15,8.15,0,0,1,3.34,1.57,10.62,10.62,0,0,1,4.16,6.94c.78,5.64-4.19,10.84-9.74,10.94a2,2,0,0,0-2,2c-.57,6.88-5.2,14-12.81,13.66a7.64,7.64,0,0,1-7-4.6A6.82,6.82,0,0,1,88,824c1.79-1.64-.48-4-2.42-3.14-2.84,1.3-6.26,3-9.47,2.25-2.3-.5-4.41-2.34-4.14-4.84a2,2,0,0,0-2-2,2,2,0,0,0-2,2c-.44,4,2.81,7.33,6.39,8.51,4.49,1.48,9.21-.62,13.24-2.47l-2.43-3.14c-5,4.61-3.65,13.12,1.64,16.89,6.14,4.37,14.84,1.8,19.22-3.77a21.63,21.63,0,0,0,4.33-11.73l-2,2a13.86,13.86,0,0,0,3.69-27.2c-3-.84-8.65,1-7.05,5.11a2,2,0,0,0,3.93-.53A10.58,10.58,0,0,0,100,790.53c-5.74-.72-10.87,3.9-11.48,9.47-.24,2.16,2.72,2.46,3.73,1,3.51-5-1-11.85-6.31-13.16-6.66-1.64-12.57,4-15.53,9.31-1.24,2.25,2.21,4.27,3.46,2Z"/><path d="M299.7,205.94a120.54,120.54,0,0,1,22.37,1.48,1,1,0,0,0,1.27-1q1.05-17.15,3.2-34.19,1.09-8.62,2.48-17.22c.46-2.9,1-5.81,1.47-8.71.23-1.28.48-2.57.7-3.86a4.46,4.46,0,0,0-.14-2.82,3.31,3.31,0,0,0-2.54-1.6c-1.55-.27-3.13-.42-4.69-.63l-9.67-1.31c-1.26-.17-1.8,1.76-.53,1.93l8.22,1.11,3.62.49c.92.12,2.81,0,3.57.65s0,2.74-.12,3.58c-.27,1.45-.52,2.9-.77,4.35q-.67,3.87-1.28,7.74-2.52,16-4.08,32.14-.88,9.16-1.44,18.35l1.26-1a123.63,123.63,0,0,0-22.9-1.55,1,1,0,0,0,0,2Z"/><path d="M317.55,118.92a118,118,0,0,0,16,1.94,1,1,0,0,0,1-.74q4.51-27.45,9-54.91l2.54-15.52c.21-1.26-1.72-1.8-1.93-.53q-4.5,27.45-9,54.92l-2.55,15.51,1-.73A115,115,0,0,1,318.08,117c-1.26-.24-1.8,1.68-.53,1.92Z"/><path d="M356.14,214.47c-1.93-.43-2-3-2-4.56.11-2.78.55-5.57.84-8.33L356.84,184,360.49,149l.26-2.48c.06-.61,0-1.89.47-2.31s1.54-.06,2.13,0l2.43.31,9.94,1.27c1.27.16,1.26-1.84,0-2l-9.7-1.24a32.32,32.32,0,0,0-4.58-.54,2.36,2.36,0,0,0-2.28,1.54,17.91,17.91,0,0,0-.54,4.2l-.52,4.94-1,9.89Q355,182.31,353,202.07c-.32,3.06-1,6.34-.74,9.42.2,2.15,1.07,4.39,3.39,4.91,1.25.28,1.78-1.65.53-1.93Z"/><path d="M381.72,123.46a37.35,37.35,0,0,0-14.21-5c-1-.13-2.52,0-3.41-.4-1.07-.52-.53-2.62-.43-3.54a69,69,0,0,1,1.52-8.41c1.27-5.49,2.71-10.94,3.89-16.45s2.19-11,3.07-16.52q1.49-9.4,2.4-18.87c.12-1.28-1.88-1.28-2,0a312.17,312.17,0,0,1-5.5,35.33c-1.24,5.75-2.79,11.41-4.06,17.15a69.58,69.58,0,0,0-1.37,8.25c-.2,2-.29,4.45,2.14,5,1.31.33,2.75.26,4.08.46a36.85,36.85,0,0,1,4.29.94,35.64,35.64,0,0,1,8.59,3.74,1,1,0,0,0,1-1.73Z"/><path d="M338.58,225a93.21,93.21,0,0,1,.12-11c.06-.85.14-1.71.22-2.57.05-.48.1-1,.16-1.44a1.89,1.89,0,0,1,.08-.58c.14-.3-.11,0,0-.07s.85,0,1.12,0l1.29.08,2.9.18-1-1L342.86,225l1-1-4.74-.61c-1.28-.16-1.27,1.84,0,2l4.74.61c.55.07,1-.51,1-1l.62-16.32a1,1,0,0,0-1-1l-3.22-.2a7.77,7.77,0,0,0-2.72,0,2,2,0,0,0-1.35,1.68c-.18,1-.25,2.08-.35,3.12a93.12,93.12,0,0,0-.26,12.72c.06,1.28,2.06,1.29,2,0Z"/><path d="M354.55,188.19a34.14,34.14,0,0,0-8.54-7.11c-.79-.47-1.62-.86-1.75-1.86a10.57,10.57,0,0,1,.45-3.24q.62-3.28,1.29-6.55c.45-2.18.93-4.35,1.42-6.52.39-1.72.49-4.48,2-5.59s3.19-1.6,4.67-2.55a31,31,0,0,0,4.66-3.66c.93-.88-.48-2.29-1.42-1.41a28.83,28.83,0,0,1-5.37,4c-1.55.9-3.58,1.47-4.72,2.93-1.27,1.64-1.44,4.26-1.88,6.21q-.79,3.49-1.5,7c-.48,2.34-.94,4.69-1.36,7-.35,1.89-.52,3.65,1.1,5s3.42,2.11,5,3.34a32.76,32.76,0,0,1,4.53,4.36c.84,1,2.25-.44,1.41-1.41Z"/><path d="M362.39,118a31.32,31.32,0,0,0-5.21-13.08,2.6,2.6,0,0,1-.65-2,13,13,0,0,1,.53-1.92c.4-1.38.79-2.77,1.16-4.16.69-2.55,1.32-5.12,1.91-7.69q1.77-7.84,2.93-15.82c.61-4.2.63-8.86,2.29-12.83a6.63,6.63,0,0,1,4.23-4.14c1.82-.54,3.88-.8,4.86-2.66.59-1.14-1.13-2.15-1.73-1-.84,1.6-3.47,1.52-5,2.21a8.37,8.37,0,0,0-3.69,3.66c-2,3.71-2.1,8.15-2.64,12.23q-1.11,8.27-2.91,16.42c-.6,2.73-1.25,5.46-2,8.17-.34,1.31-.7,2.63-1.08,3.94a16.83,16.83,0,0,0-1,3.92c0,1.33.77,2.32,1.47,3.37a28.18,28.18,0,0,1,4.52,11.89c.19,1.27,2.12.73,1.93-.53Z"/><path d="M338.35,105.47a16.34,16.34,0,0,1,11.33-4,1,1,0,0,0,1-1c-.48-5.23.46-10.37,1.53-15.47s2.16-10.07,3.21-15.11c.84-4.09,1-8.06-1.32-11.72a13.24,13.24,0,0,0-8.79-6c-1.26-.22-1.8,1.7-.53,1.93a11.4,11.4,0,0,1,8.12,6c2.09,4,.77,8.41-.12,12.59-1,4.63-2,9.26-2.93,13.91a47.93,47.93,0,0,0-1.17,13.87l1-1a18.39,18.39,0,0,0-12.75,4.61c-1,.85.45,2.26,1.42,1.41Z"/><path d="M324.74,183.94c1.19-2.12,4.64-1.68,6.69-1.95,2.77-.37,5-1.71,5.2-4.74.13-2.1-.23-4.22-.12-6.34.13-2.34.45-4.67.78-7,.65-4.6,1.36-9.2,1.95-13.81a4.87,4.87,0,0,0-.28-3,6.76,6.76,0,0,0-2-2l-6.2-4.85c-1-.79-2.42.62-1.41,1.41l4.88,3.82c.77.6,1.57,1.18,2.31,1.82,1,.9.79,2,.61,3.21q-.9,6.41-1.81,12.81a60.5,60.5,0,0,0-.76,12.46c.1,1.47,0,3-1.46,3.68a9.63,9.63,0,0,1-3.36.63c-2.49.2-5.4.34-6.77,2.78a1,1,0,0,0,1.73,1Z"/><path d="M336,339.58l9.06-9.12,4.53-4.57,1.4-1.4a5.08,5.08,0,0,1,.95-1c1-.49,1.6.83,2,1.51a54,54,0,0,0,14.5,15.84c1,.76,2-1,1-1.73a50.74,50.74,0,0,1-9-8.35A46.71,46.71,0,0,1,356.9,326c-.92-1.41-1.7-3.32-3.19-4.22-1.72-1-2.95.13-4.13,1.32L344.7,328l-10.1,10.17a1,1,0,0,0,1.41,1.42Z"/><path d="M354.23,320.29q3.86-38.81,4.54-77.82.19-10.93.13-21.85a1,1,0,0,0-2,0q.21,39-2.75,77.9-.84,10.89-1.92,21.77c-.13,1.28,1.87,1.27,2,0Z"/><path d="M359.89,237.25c2.73-5,8.51-6.95,13.47-9s9.71-4.7,11.85-9.77c.5-1.19-1.44-1.7-1.93-.53-2.18,5.16-8,7.37-12.83,9.34s-9.73,4.27-12.28,9c-.62,1.13,1.11,2.14,1.72,1Z"/><path d="M377.18,326.08c7.62-.78,7.12-12.22,7.61-17.62q1.35-15.12,2.53-30.26,2.37-30.54,4-61.14c.54-10.2,1.18-20.42,1.33-30.64s-.79-20.11-1.46-30.18c-.66-9.89-.74-19.76,1-29.55a129.69,129.69,0,0,1,8-26.31c7.28-17.64,17.06-34.24,26.15-51L430,42.78c.62-1.13-1.11-2.14-1.72-1-9.05,16.66-18.65,33.14-26.58,50.37-7.68,16.67-13.06,34.19-12.94,52.69.06,10,1.26,19.86,1.75,29.8s0,20.06-.52,30.08q-1.47,30-3.64,60-1.09,15-2.35,30-.64,7.57-1.32,15.13c-.34,3.75-.24,8.06-2,11.49a4.51,4.51,0,0,1-3.44,2.73c-1.27.13-1.28,2.13,0,2Z"/><path d="M417.35,334.31c-4.29,1.23-8.2-2.26-9.66-6.05-1.73-4.49-1.44-9.63-1.58-14.36q-.47-15.69-.43-31.38c.09-21,1-42,3.17-62.9,1.07-10.29,2.54-20.54,3.68-30.83a247,247,0,0,0,1.6-31.12c-.16-10.29-.65-20.71,1.29-30.88,1.87-9.82,5.64-19.27,9.57-28.42a259.74,259.74,0,0,1,13-26.14Q441.58,66,445.46,60c1.29-2,2.84-3.93,3.94-6,.77-1.48,1-3.33-.33-4.55a2.51,2.51,0,0,0-3.56,0c-.9.92.52,2.34,1.41,1.41.43-.43,1,.24,1.07.6a2.54,2.54,0,0,1-.44,1.78,37.48,37.48,0,0,1-2.1,3.2q-1.95,2.94-3.81,5.92-3.87,6.2-7.39,12.61A262.91,262.91,0,0,0,422,100.48c-3.82,9.17-7.43,18.62-8.92,28.49-1.52,10.06-1,20.24-.87,30.37.24,20.64-3.34,40.94-5.43,61.4-2.11,20.71-3,41.54-3.05,62.35q0,15.69.44,31.37c.23,7.61-.14,18.39,8.57,21.58a8.3,8.3,0,0,0,5.19.2,1,1,0,0,0-.53-1.93Z"/><path d="M253.79,183.23a19.14,19.14,0,0,0,14.66,9.07c2.72.21,5.92-.3,7.7-2.59a5.05,5.05,0,0,0-.24-6.76l-1.41,1.41c4.12,3.75,11,1.84,13.67-2.73,3.31-5.65-.3-12.79-5.37-15.94l.2,1.57a15.51,15.51,0,0,0-7.39-27.38l.7,1.23c1-4.13,2-8.54.84-12.74a10.62,10.62,0,0,0-6.13-7.06c-3.22-1.28-6.42-.1-8.67,2.38a25.11,25.11,0,0,0-3.09,4.36c-1,1.69-1.63,3.59-.93,5.5.43,1.2,2.37.68,1.92-.53-.61-1.7.29-3.28,1.18-4.7a22.07,22.07,0,0,1,2.59-3.49,5.63,5.63,0,0,1,7.14-1.25c6.13,3.48,4.56,11.35,3.22,17a1,1,0,0,0,.7,1.23,13.55,13.55,0,0,1,6.51,24,1,1,0,0,0,.2,1.57c4.08,2.53,7.26,8.26,4.8,12.94-1.9,3.59-7.43,5.53-10.68,2.59-1-.87-2.36.54-1.41,1.41,1.69,1.55.63,4.12-1.11,5.12-2,1.18-4.7,1-6.92.52a17.18,17.18,0,0,1-11-7.78c-.67-1.1-2.4-.09-1.72,1Z"/><path d="M257.2,205a17,17,0,0,1,10.42-3.14,9.32,9.32,0,0,1,5.09,1.35c1.15.86,1.94,3,.43,3.91l1.37,1.36c1.58-2.14,5.07-.94,6.46.81,2,2.59,1.61,6.47,1.35,9.53a1,1,0,0,0,1.26,1c2.84-1.14,5.63,1.32,6.37,4,1,3.6-1.08,7.42-2.68,10.51l1.37-.36-2.16-1c-1.16-.54-2.17,1.18-1,1.73l2.16,1a1,1,0,0,0,1.37-.35c2-3.84,4.37-8.62,2.55-13-1.34-3.2-5-5.87-8.5-4.46l1.27,1c.34-4,.61-9-2.82-11.8-2.58-2.1-6.61-2.41-8.72.45-.61.83.56,1.88,1.37,1.37a4.09,4.09,0,0,0,1.53-4.91c-.74-2.11-2.93-3.23-5-3.69a18.64,18.64,0,0,0-14.51,3c-1.05.74-.05,2.47,1,1.73Z"/><path d="M278.12,230.46a7.74,7.74,0,0,0,1.17-11.54c-.92-.93-2.38-1.27-3.19-2.27a7.65,7.65,0,0,1-.86-1.8,11.57,11.57,0,0,0-1.14-1.92,12.18,12.18,0,0,0-6.53-4.5,6.43,6.43,0,0,0-4.39,0,3,3,0,0,0-1.63,3.66c.47,1.18,2.4.67,1.93-.54-.71-1.84,2.33-1.54,3.27-1.32a10.24,10.24,0,0,1,3.53,1.63,9.86,9.86,0,0,1,2.67,2.9c.7,1.14,1,2.57,2,3.5s2.25,1.22,3.12,2.19a5.34,5.34,0,0,1,1.23,2.71,5.51,5.51,0,0,1-2.16,5.52c-1.08.7-.08,2.43,1,1.73Z"/><path d="M271,248.21c1-1.77,3.61-1.23,4.86-.05,2.06,2,1.71,5.49,1.53,8a1,1,0,0,0,1.87.5,4.25,4.25,0,0,1,7.76.94,1,1,0,0,0,1.93-.53,6.21,6.21,0,0,0-11.42-1.42l1.86.51c.24-3.41.33-7.77-2.79-10-2.24-1.59-5.86-1.63-7.33,1a1,1,0,0,0,1.73,1Z"/><path d="M257.55,172.8c2.33,1.12,5.39,1.64,7.66.08a4.43,4.43,0,0,0,1.85-2.66,5,5,0,0,0-.19-3,3.52,3.52,0,0,0-2.56-2.23,1,1,0,0,0-1.23.7,1,1,0,0,0,.7,1.23l.28.07s.29.1.15,0l.13.07c.1.06.24.19.08,0l.2.18s.19.22.1.11l.09.12.15.28c.11.2,0-.11,0,0a2.29,2.29,0,0,1,.09.28,1.82,1.82,0,0,1,.07.25c0,.05.05.33,0,.19s0,.13,0,.17,0,.2,0,.3,0,.17,0,.26,0,.2,0,.06,0,.08,0,.09a4.77,4.77,0,0,1-.13.51c0,.06-.15.34,0,.11,0,.09-.08.18-.13.27s-.09.15-.13.22-.18.2-.05.07a4.67,4.67,0,0,1-.45.44c.09-.07-.18.11-.21.14l-.31.17s-.32.14-.17.09l-.43.14a3.8,3.8,0,0,1-1.35.18,5.73,5.73,0,0,1-1.61-.2c-.29-.08-.58-.16-.87-.27a5.1,5.1,0,0,1-.73-.3,1,1,0,0,0-1.37.35,1,1,0,0,0,.36,1.37Z"/><path d="M275.24,173.74a6.24,6.24,0,0,0-1.25-11.4l.7,1.23a3.93,3.93,0,0,0-.45-3.65,1,1,0,0,0-1.37-.35,1,1,0,0,0-.36,1.36,2.07,2.07,0,0,1,.25,2.1,1,1,0,0,0,.7,1.23,4.24,4.24,0,0,1,.77,7.76,1,1,0,0,0,1,1.72Z"/><path d="M275.05,62.5a4.46,4.46,0,0,0,2.37,4.07,5.4,5.4,0,0,0,5.2-.14c3.87-2.07,4.83-7.08,6.07-10.9l-1.83.24a23.8,23.8,0,0,0,3,4.88,18.34,18.34,0,0,0,3.61,4,3,3,0,0,0,3.87-.08,2.29,2.29,0,0,0,.14-3.37c-1-.84-2.39.57-1.42,1.41.22.18,0,.47-.22.63-.4.26-.88,0-1.24-.22a11.3,11.3,0,0,1-2.16-2.36,25.74,25.74,0,0,1-3.85-5.94c-.38-.85-1.59-.5-1.83.24-.94,2.88-1.6,6.51-3.83,8.72a4.33,4.33,0,0,1-3.67,1.43,2.63,2.63,0,0,1-2.21-2.65c.09-1.29-1.91-1.28-2,0Z"/><path d="M298.17,48.17c-.36.48-1.26.1-1.6-.21a6.6,6.6,0,0,1-1.5-2.67,21.66,21.66,0,0,1-1.43-7c-.05-1.28-2.05-1.29-2,0a23.75,23.75,0,0,0,2.11,9,5.13,5.13,0,0,0,2.68,2.88,3,3,0,0,0,3.47-1,1,1,0,0,0-.36-1.37,1,1,0,0,0-1.37.36Z"/><path d="M369.9,46.73l7.62,5.85c1,.74,1.87-.77,1.22-1.57-2.28-2.79-4.74-6-4.41-9.76l-1.71.7,10.24,12.57c.76.94,2-.25,1.57-1.21q-3.75-7.74-7.09-15.66l-1.57,1.22a15.06,15.06,0,0,1,5,7.55,1,1,0,0,0,1.93,0,9.78,9.78,0,0,0-.48-6.26c-.71-2.08-1.78-4.32-1.38-6.58l-1.68.44,2.79,3.45c.61.75,1.63.05,1.71-.71l.53-5.07-1.71.71a4.18,4.18,0,0,0,6.5-.82,1,1,0,0,0-1.73-1,2.16,2.16,0,0,1-3.36.42,1,1,0,0,0-1.7.7l-.53,5.07,1.7-.7-2.78-3.45a1,1,0,0,0-1.67.44,12.33,12.33,0,0,0,.94,6.39c.73,2.07,1.65,4.25.92,6.45h1.93a16.88,16.88,0,0,0-5.51-8.44,1,1,0,0,0-1.57,1.21q3.34,7.92,7.09,15.66l1.57-1.21L374,40.54c-.6-.74-1.64-.06-1.7.71-.37,4.34,2.4,8,5,11.17l1.21-1.57L370.91,45c-1-.78-2,1-1,1.73Z"/><path d="M329.79,237.33q12.52.33,25.06.08v-2l-17.67,1a1,1,0,0,0-.27,2c6.34,2.11,13.06,1.43,19.57.67a1,1,0,0,0,0-2,62.23,62.23,0,0,0-14.21,1.32c-1.08.23-.86,2.11.27,2l11.79-1.46a1,1,0,0,0,.26-2l-3.4-1v1.93a11.77,11.77,0,0,1,4.34-.34c1.28.14,1.27-1.87,0-2a13.32,13.32,0,0,0-4.87.41,1,1,0,0,0,0,1.93l3.4,1,.27-2-11.79,1.46.26,2a59.89,59.89,0,0,1,13.68-1.25v-2c-6.33.74-12.87,1.46-19-.6l-.26,2,17.67-1a1,1,0,0,0,0-2q-12.53.24-25.06-.08c-1.29,0-1.29,2,0,2Z"/><path d="M244,367.86l79.15-22.14c1.57-.44,4-1.68,5.47-.53s2.32,2.9,3.31,4.26l6.93,9.42.6-1.47-6.1,1.35c-1.26.27-.73,2.2.53,1.93l6.1-1.36a1,1,0,0,0,.6-1.46L334.12,349c-1-1.31-1.9-2.63-2.88-3.92a5.63,5.63,0,0,0-2.92-2.32c-1.48-.39-3.08.26-4.48.65l-5.29,1.49-10.11,2.82-41.38,11.58-23.57,6.59a1,1,0,0,0,.53,1.93Z"/><path d="M245.33,366,260,386.2c1.13,1.57,2.24,3.16,3.4,4.7a8.35,8.35,0,0,0,3.52,3c3,1.16,6-.4,8.42-2a50.73,50.73,0,0,1,9.16-5.32c3.2-1.3,6.52-2.28,9.77-3.46a128.74,128.74,0,0,0,39.47-23c1-.83-.44-2.24-1.42-1.41A126.71,126.71,0,0,1,297,380c-6.18,2.44-12.94,3.93-18.64,7.45-2.64,1.63-5.16,4.22-8.3,4.83-3.69.73-5.66-3.35-7.46-5.84l-15.51-21.47c-.74-1-2.48,0-1.72,1Z"/><path d="M334.18,330.71a23.22,23.22,0,0,1-5.83-.17c-1.06-.19-1.31-.68-1.53-1.66s-.37-1.85-.51-2.78a54.28,54.28,0,0,1-.51-11.74,51.24,51.24,0,0,1,.74-6.05c.23-1.29.38-4.55,1.85-5a9.39,9.39,0,0,1,2.49-.2c.83,0,1.67-.06,2.51,0a10.63,10.63,0,0,1,5.31,1.47c1.1.68,2.1-1,1-1.73a12.55,12.55,0,0,0-5.91-1.72,28.63,28.63,0,0,0-3.34,0,9.79,9.79,0,0,0-2.95.37c-2,.74-2.26,3.13-2.63,4.92a56.1,56.1,0,0,0-.26,21.63c.33,1.85.64,3.77,2.7,4.35a20.53,20.53,0,0,0,6.86.34c1.28-.1,1.29-2.1,0-2Z"/><path d="M264.47,92.34c1.07,1.11,3.21,1,4.64,1.22l5.88.88,12.24,1.84L311.72,100l-.3-.74a1.88,1.88,0,0,1-1,1c-.59.26-.08,1.12.51.87a2.55,2.55,0,0,0,1.4-1.41c.11-.26,0-.68-.3-.74l-23.51-3.53L276.72,93.7l-5.63-.85-2.94-.44c-.87-.13-2.32-.1-3-.78-.45-.47-1.16.24-.71.71Z"/><path d="M268.37,83.58q22.63,3.89,45.37,7.09a.51.51,0,0,0,.63-.49,340.08,340.08,0,0,1,8.51-47,13,13,0,0,0,.72-3.68,7.17,7.17,0,0,0-1.12-3.5,7,7,0,0,0-5.56-3.41c-4.62-.13-7.94,5.41-6.23,9.55,2,4.79,9.24,4.94,12,.82.36-.54-.5-1-.86-.5-2.42,3.65-9.13,3.21-10.38-1.27-1.31-4.72,3.95-9.59,8.32-6.64a6.27,6.27,0,0,1,2.77,6.2c-.64,3-1.55,6-2.25,9Q318,59.32,316.36,69q-1.83,10.55-3,21.2l.64-.48q-22.74-3.2-45.37-7.09c-.63-.11-.9.86-.27,1Z"/><path d="M291,222.28c6.93-31.18,13.86-62.43,17.89-94.15,1.15-9,2.06-18.1,2.67-27.19a.5.5,0,0,0-.93-.25l-1.52,2.52a.5.5,0,0,0,.86.5l1.52-2.51-.93-.26c-2.15,32-8.05,63.54-14.76,94.83Q293,208.91,290,222c-.14.62.83.89,1,.26Z"/><path d="M288.7,236.23q7.62,2.34,15,5.25c1.18.46,2.36.94,3.53,1.43s2.86,1,3.82,1.91,1,2.36,1.21,3.55c.25,1.47.45,2.94.6,4.42,1.12,10.87.29,21.94,0,32.83-.08,3,.11,6.18-.5,9.12-.57,2.68-2.73,5.69-5.84,4.89a.5.5,0,0,0-.27,1,5.32,5.32,0,0,0,5.27-1.79c1.63-1.82,2-4.33,2.14-6.69.34-6.22.37-12.48.55-18.71a176.37,176.37,0,0,0-.15-18.68,49.39,49.39,0,0,0-1.19-8.57c-.62-2.37-2.63-3.06-4.7-3.93-6.28-2.64-12.7-4.95-19.21-6.95-.62-.19-.88.77-.27,1Z"/><path d="M284,112a12.06,12.06,0,0,1,4.3,7.27l1-.27a4.76,4.76,0,0,1,.82-4.17l-.94-.25.3,3.64c0,.28.31.61.64.48a5.28,5.28,0,0,0,3-3.08c.22-.6-.74-.86-1-.26a4.2,4.2,0,0,1-2.3,2.38l.63.48-.3-3.64a.5.5,0,0,0-.93-.25,5.69,5.69,0,0,0-.91,4.94.5.5,0,0,0,1-.27,12.92,12.92,0,0,0-4.55-7.7c-.5-.41-1.21.3-.71.7Z"/><path d="M292.83,137.17a15.1,15.1,0,0,1,2.65,5.11l1-.27a3.47,3.47,0,0,1,.75-3.47l-.86-.35.21,3.46a.5.5,0,0,0,.93.25l2.46-4c.33-.55-.53-1.05-.87-.5l-2.45,4,.93.25-.21-3.46a.5.5,0,0,0-.85-.36,4.51,4.51,0,0,0-1,4.45.5.5,0,0,0,1-.27,16.23,16.23,0,0,0-2.91-5.55.5.5,0,0,0-.7,0,.51.51,0,0,0,0,.71Z"/><path d="M265.48,103.21a25.42,25.42,0,0,1,4.1,6.79.51.51,0,0,0,1-.13l.2-6.13-1,.14a18.47,18.47,0,0,1,.58,4.57.5.5,0,0,0,.93.25l3-4c.38-.51-.48-1-.87-.5l-3,4,.93.25a19.29,19.29,0,0,0-.62-4.84.5.5,0,0,0-1,.13l-.2,6.13,1-.14a27.17,27.17,0,0,0-4.36-7.23c-.42-.49-1.12.22-.71.71Z"/><path d="M280.39,193.39a18.94,18.94,0,0,1,4.3,6.83.5.5,0,0,0,1-.26,14.9,14.9,0,0,1,0-6h-1a20.94,20.94,0,0,1,1.31,6.25.5.5,0,0,0,1,0,12.73,12.73,0,0,1,2.15-5.62c.36-.53-.5-1-.87-.5a13.77,13.77,0,0,0-2.28,6.12h1a22,22,0,0,0-1.34-6.51c-.16-.42-.86-.53-1,0a16.39,16.39,0,0,0,0,6.47l1-.26a20,20,0,0,0-4.57-7.28c-.45-.46-1.16.25-.7.71Z"/><path d="M290.76,289.7l2.45,4.37c.29.53,1,.14.91-.39a3.83,3.83,0,0,1,.45-2.48l-.92-.39a6.49,6.49,0,0,0,1,4.6.5.5,0,0,0,.91-.12,15.35,15.35,0,0,1,2.67-4.42c.42-.49-.29-1.2-.71-.71a16.83,16.83,0,0,0-2.92,4.86l.91-.12a5.38,5.38,0,0,1-.85-3.82c.08-.53-.62-.92-.92-.39a5,5,0,0,0-.54,3.26l.91-.38-2.44-4.38a.5.5,0,0,0-.87.51Z"/><path d="M262.65,316.32c-1.76.88-3.75.4-5.63.73a6.82,6.82,0,0,0-3.41,1.7c-2.18,2-3.25,4.93-4.12,7.64a.5.5,0,0,0,.34.61c4.82,1.82,7.4,6.68,9.61,11a.53.53,0,0,0,.57.23q22-3.28,44.24-4.5c.24,0,.54-.22.5-.5l-1.16-9.29c-.07-.63-1.08-.64-1,0l1.16,9.29.5-.5q-22.35,1.22-44.51,4.54l.57.22C258,332.9,255.2,328,250.1,326l.35.62c.85-2.64,1.89-5.6,4.11-7.41,2.54-2.08,5.83-.69,8.6-2.06.57-.29.07-1.15-.51-.87Z"/><path d="M273.49,320.07a7.27,7.27,0,0,0,5.56-2.4c1.48-1.62,1.79-3.39,1.92-5.49a3.25,3.25,0,0,1,.35-1.66c.54-.79,2-.47,2.78-.44l4.87.19,2.44.09a8.91,8.91,0,0,1,2.43.1c1.13.42,1.09,1.27,1.24,2.27l.42,2.65a.5.5,0,0,0,.61.35,6.07,6.07,0,0,1,7.77,8.28.51.51,0,0,0,.69.69L306,324c.57-.3.06-1.16-.51-.86l-1.4.73.69.69a7.07,7.07,0,0,0-8.9-9.75l.61.34c-.22-1.44-.2-3.28-.8-4.62-.51-1.14-1.72-1-2.79-1.07l-5.36-.21a44.36,44.36,0,0,0-5.4-.18c-2.5.21-2,3.15-2.25,4.87a6.37,6.37,0,0,1-6.37,5.17.5.5,0,0,0,0,1Z"/><path d="M342.89,243.6c0,2.61,3.19,3.47,5.22,4a30.82,30.82,0,0,0,9.61.9c.64,0,.64-1,0-1a30.35,30.35,0,0,1-8.29-.61c-1.65-.37-5.51-1-5.54-3.28a.5.5,0,0,0-1,0Z"/><path d="M342.27,251.19a37.09,37.09,0,0,0,15.45,2.2c.64,0,.64-1,0-1a36.21,36.21,0,0,1-15.19-2.17c-.6-.22-.86.75-.26,1Z"/><path d="M343.33,257.83a30,30,0,0,0,12.74,1.58c.64-.06.65-1.06,0-1a29.36,29.36,0,0,1-12.47-1.54c-.61-.22-.87.75-.27,1Z"/><path d="M342.18,265.78a38.85,38.85,0,0,0,13.34.67c.63-.08.63-1.08,0-1a38,38,0,0,1-13.07-.63c-.63-.14-.9.82-.27,1Z"/><path d="M342.75,271.66a26.42,26.42,0,0,0,12.92.39c.63-.14.36-1.11-.26-1a25.4,25.4,0,0,1-12.4-.38.5.5,0,0,0-.26,1Z"/><path d="M341.63,278.33a24.47,24.47,0,0,0,14.52-.48c.6-.21.34-1.18-.27-1a23.6,23.6,0,0,1-14,.48.5.5,0,0,0-.26,1Z"/><path d="M340.38,285.64c-.57.79.23,1.51.95,1.74a3.33,3.33,0,0,0,1.57,0c.73-.12,1.45-.25,2.18-.39a51.9,51.9,0,0,0,8.38-2.45c.6-.23.34-1.2-.26-1a54.16,54.16,0,0,1-6.34,2c-1.06.26-2.12.48-3.19.67a9.54,9.54,0,0,1-1.59.24,1.55,1.55,0,0,1-.56-.11,1.43,1.43,0,0,1-.27-.15q-.17-.11,0-.09c.38-.52-.49-1-.87-.51Z"/><path d="M340.48,293.8a15.87,15.87,0,0,0,13-1.76c.54-.35,0-1.21-.5-.87a14.91,14.91,0,0,1-12.24,1.67c-.61-.19-.88.78-.26,1Z"/><path d="M339.42,300.32c1.54,1.82,4.55.62,6.44.18l9.21-2.17c.63-.15.36-1.11-.26-1l-8.05,1.89c-1.25.29-2.5.62-3.76.88-1,.19-2.16.32-2.87-.53-.41-.49-1.12.22-.71.71Z"/><path d="M339.41,308a15,15,0,0,0,15-4.73c.41-.49-.29-1.2-.71-.7A14,14,0,0,1,339.68,307a.5.5,0,0,0-.27,1Z"/><path d="M337.68,315.79c1.86,1.84,4.64,1.39,6.91.66,3.35-1.09,6.64-2.44,10-3.66.6-.22.34-1.18-.27-1-3,1.12-6,2.25-9.07,3.35-2.08.75-5,1.7-6.82-.1a.5.5,0,0,0-.7.71Z"/><path d="M336.74,323.19a11.29,11.29,0,0,0,8.41-.37,10.68,10.68,0,0,0,3.48-2.47c.67-.73,2.44-3.11,3.55-2a.5.5,0,0,0,.71-.71c-1-1-2.26-.5-3.23.25-1.25,1-2.11,2.3-3.44,3.19a10.36,10.36,0,0,1-9.22,1.14c-.6-.22-.87.75-.26,1Z"/><path d="M337.61,331.54c.8,1.26,2.29,1.21,3.54.69a13.63,13.63,0,0,0,4.13-3.32,44.36,44.36,0,0,0,7.17-9.67c.31-.57-.55-1.07-.86-.51a43.6,43.6,0,0,1-6,8.43A27.54,27.54,0,0,1,342,330.6c-.85.64-2.74,1.67-3.52.43-.35-.54-1.21,0-.87.51Z"/><path d="M354.05,318.75c4.79,7,10.53,14.86,19.4,16.5.63.12.9-.85.27-1-8.61-1.59-14.16-9.29-18.81-16-.36-.53-1.23,0-.86.5Z"/><path d="M354.13,315.57C360,321.22,367,327.5,375.8,326.7c.63-.06.64-1.06,0-1-8.55.78-15.24-5.36-21-10.83-.47-.45-1.18.26-.71.7Z"/><path d="M355.78,311.79a21.41,21.41,0,0,0,16.72,7.32c.64,0,.64-1,0-1a20.47,20.47,0,0,1-16-7c-.42-.48-1.13.23-.71.71Z"/><path d="M355.7,304.59a20.66,20.66,0,0,0,17.37,8.29c.64,0,.64-1,0-1a19.65,19.65,0,0,1-16.51-7.8c-.38-.51-1.25,0-.86.51Z"/><path d="M358.14,296.84a21.24,21.24,0,0,0,17.14,6.2c.63-.07.64-1.07,0-1a20.29,20.29,0,0,1-16.43-5.91c-.45-.46-1.16.25-.71.71Z"/><path d="M355.88,291a67.1,67.1,0,0,0,18.28,4.94c.64.07.64-.93,0-1a65.43,65.43,0,0,1-17.78-4.8c-.58-.26-1.09.61-.5.86Z"/><path d="M355.91,280.58a54.83,54.83,0,0,0,20.9,7.27c.64.08.63-.92,0-1a53.65,53.65,0,0,1-20.4-7.13.5.5,0,0,0-.5.86Z"/><path d="M357.58,275.91a105.53,105.53,0,0,0,13.75,1.28c3.1.08,6.68,0,8.73-2.67.39-.51-.48-1-.86-.5-2,2.68-6.19,2.24-9.16,2.13a106.3,106.3,0,0,1-12.2-1.2c-.63-.1-.9.86-.26,1Z"/><path d="M358.71,270.83A32.26,32.26,0,0,0,381,269.3c.58-.27.08-1.13-.51-.87A31.12,31.12,0,0,1,359,269.86a.5.5,0,0,0-.26,1Z"/><path d="M359.16,263.43A24.58,24.58,0,0,0,382.1,260c.51-.38,0-1.25-.5-.86a23.69,23.69,0,0,1-22.17,3.36c-.61-.22-.87.74-.27,1Z"/><path d="M360.48,256.34a51.67,51.67,0,0,0,18.8-5.81c.57-.3.06-1.17-.51-.86a50.32,50.32,0,0,1-18.29,5.67c-.64.07-.64,1.07,0,1Z"/><path d="M360,251.71l14.21-5.38c3.12-1.18,6.73-2.48,8-5.9.22-.6-.75-.86-1-.26-1.27,3.52-5.76,4.63-8.89,5.81l-12.59,4.77c-.59.22-.34,1.19.27,1Z"/><path d="M360.23,247.44l23.32-14.05a.5.5,0,0,0-.5-.86l-23.33,14a.5.5,0,0,0,.51.87Z"/><path d="M360.08,242.68a63.65,63.65,0,0,1,13.62-9.62c2.26-1.19,4.62-2.15,7-3.18a10.83,10.83,0,0,0,5.13-4,.5.5,0,0,0-.87-.51c-1.33,2.19-3.74,3.2-6,4.15a69.31,69.31,0,0,0-6.85,3.27A65.68,65.68,0,0,0,359.37,242c-.48.44.23,1.15.71.71Z"/><path d="M361.6,189.42a315.91,315.91,0,0,1,6.26-44.79c.08-.39-.35-.83-.74-.56l-1.53,1c-.52.37,0,1.23.51.87l1.53-1-.74-.56a317.91,317.91,0,0,0-6.29,45c-.05.64.95.64,1,0Z"/><path d="M368.84,118.42c1.21-5.22,2.56-10.43,3.62-15.69.38-1.86.62-3.94-.3-5.69-.46-.9-1.3-1.55-1.75-2.45-.28-.55-.28-1.91.56-1.66.53.15.89,1.42,1,1.85a.5.5,0,0,0,.48.37c2-.21,2.75-2,2.73-3.85,0-2.91-3.17-5.74-1.85-8.6l-.68.18a6.59,6.59,0,0,1,2.71,3.77.5.5,0,0,0,.91.12,9.43,9.43,0,0,0,.86-7.29A12.08,12.08,0,0,0,375.29,76c-.83-1.21-2-3.38-.29-4.45l-.61-.08a8.73,8.73,0,0,1,1.94,3.65.5.5,0,0,0,.83.23c3.36-3.89-1.52-8.38-.75-12.55l-.84.22a13.15,13.15,0,0,1,2.8,3.54.51.51,0,0,0,.94-.26l.54-8.86c0-.64-1-.64-1,0l-.54,8.86.93-.25a14.3,14.3,0,0,0-3-3.74.5.5,0,0,0-.83.22c-.39,2.09.31,4,1,5.88s1.5,4.46,0,6.23l.83.22a9.68,9.68,0,0,0-2.19-4.09.51.51,0,0,0-.61-.08c-2.32,1.44-1.17,4.24.06,6,2,2.92,2.67,6.32.86,9.55l.91.12A7.67,7.67,0,0,0,373.15,82a.49.49,0,0,0-.68.18c-1,2.19,0,4.28,1,6.31.67,1.47,1.62,5.36-1,5.64l.48.36c-.32-1.34-1.91-4-3.31-2.09-1.59,2.18,1.47,4,2,5.92a10,10,0,0,1-.23,4.73c-.36,1.64-.76,3.26-1.13,4.9l-2.36,10.18c-.15.63.82.9,1,.27Z"/><path d="M367.34,117.77a375.12,375.12,0,0,0,17.08-57.31c.13-.63-.83-.9-1-.27a373.63,373.63,0,0,1-17.07,57.31c-.24.6.73.86,1,.27Z"/><path d="M330.06,141.7l8-3.88,3.88-1.88,2.08-1,.89-.44.6-.28a1.22,1.22,0,0,0,.71-.63c-.65,0-.65,1,0,1,1,0,1-1.53-.05-1.61-.78-.06-1.69.63-2.36,1L341,135.3l-11.46,5.54c-.58.28-.08,1.14.5.86Z"/><path d="M332.24,118.21a53.25,53.25,0,0,1,14.32,13.27c.38.51,1.25,0,.87-.51a54.47,54.47,0,0,0-14.69-13.62c-.55-.35-1.05.52-.5.86Z"/><path d="M347,133l14.3,8.65a.5.5,0,0,0,.51-.86l-14.3-8.65a.5.5,0,0,0-.51.86Z"/><path d="M350.5,130.77l12-9.36c.51-.39-.2-1.09-.71-.7l-12,9.35c-.51.39.2,1.1.7.71Z"/><path d="M347.14,130.55a247.61,247.61,0,0,0,6.66-30.7c.1-.63-.87-.9-1-.27a247.25,247.25,0,0,1-6.67,30.7.5.5,0,0,0,1,.27Z"/><path d="M346.2,136.79l-3,22.4c-.09.63.88.91,1,.27l3-22.4c.09-.63-.88-.91-1-.27Z"/><path d="M347.24,131.74A121.52,121.52,0,0,1,365.19,141c.55.34,1.05-.52.51-.87a124.65,124.65,0,0,0-18.19-9.39c-.6-.24-.86.72-.27,1Z"/><path d="M349.45,131.58a92.38,92.38,0,0,1,13.62,4.87c.58.27,1.09-.6.51-.86a95,95,0,0,0-13.86-5,.5.5,0,0,0-.27,1Z"/><path d="M350.71,132.32a39.23,39.23,0,0,1,13.57-.93c.64.07.64-.93,0-1a39.76,39.76,0,0,0-13.83,1c-.63.15-.36,1.12.26,1Z"/><path d="M352.06,130.9,364,123.6c.54-.34,0-1.2-.51-.87L351.55,130c-.54.33,0,1.2.51.86Z"/><path d="M330.7,139.25a12.56,12.56,0,0,1,3.66-18.51.5.5,0,0,0-.51-.87A13.4,13.4,0,0,0,330,140c.4.51,1.1-.2.71-.7Z"/><path d="M329.68,137.66a22.4,22.4,0,0,1,6.37-7.51c.51-.38,0-1.25-.5-.87a23.75,23.75,0,0,0-6.74,7.87c-.3.57.57,1.08.87.51Z"/><path d="M332.08,121.11l3.26,8a.53.53,0,0,0,.48.37,84.35,84.35,0,0,1,10.91,2.1.5.5,0,0,0,.27-1,86.79,86.79,0,0,0-11.18-2.14l.48.37-3.25-8c-.24-.59-1.21-.33-1,.27Z"/><path d="M343.58,151.91l2.69,3.86a.52.52,0,0,0,.69.18.5.5,0,0,0,.18-.68l-2.7-3.87a.5.5,0,1,0-.86.51Z"/><path d="M370.83,169.46a50.27,50.27,0,0,1,8-.41.51.51,0,0,0,.5-.5l.44-5.85a20.58,20.58,0,0,0,.16-5.37,3,3,0,0,0-2.58-2.56,2.18,2.18,0,0,0-1.57.56c-.27.22-.48.5-.75.71-.1.08-.86.47-.88.08,0-.64-1-.64-1,0,.07,1.19,1.5,1.41,2.34.82.55-.38,1-1.16,1.69-1.18a1.9,1.9,0,0,1,1.67,1.4,6.75,6.75,0,0,1,.14,2.61c-.08,1-.15,2-.22,2.93l-.44,5.85.5-.5a50.27,50.27,0,0,0-8,.41c-.63.08-.64,1.08,0,1Z"/><path d="M373.59,151.92l8.41.37-.5-.5a82.13,82.13,0,0,1-2.05,24.31l.74-.3a25.13,25.13,0,0,0-9.65-3.68c-.63-.1-.9.86-.27,1a24.52,24.52,0,0,1,9.41,3.58.5.5,0,0,0,.74-.29,83.31,83.31,0,0,0,2.08-24.58.51.51,0,0,0-.5-.5l-8.41-.37c-.64,0-.64,1,0,1Z"/><path d="M366.83,214.59l.62-16.19-.85.35a20.1,20.1,0,0,0,2.88,2.88c.52.43,1.07.83,1.63,1.21a6.93,6.93,0,0,0,1.7,1c.46.13,1-.28,1.41-.48a16.58,16.58,0,0,0,1.71-1,16,16,0,0,0,2.95-2.69c.41-.48-.29-1.19-.71-.7a15.25,15.25,0,0,1-5.42,4h.51a19.55,19.55,0,0,1-5.95-4.9c-.3-.35-.84,0-.86.36l-.62,16.19c0,.64,1,.64,1,0Z"/><path d="M364.05,196.42A77.85,77.85,0,0,0,380.16,198a.5.5,0,0,0,0-1,76.61,76.61,0,0,1-15.84-1.57c-.63-.13-.9.83-.27,1Z"/><path d="M379.69,199.82a162,162,0,0,1-1.39,16.32c-.09.63.88.9,1,.27a161.88,161.88,0,0,0,1.43-16.59.5.5,0,0,0-1,0Z"/><path d="M373.49,203.63l-1.05,13.15c-.05.64.95.63,1,0l1.05-13.15c.06-.64-.94-.63-1,0Z"/><path d="M172.68,731.88a49.14,49.14,0,0,0,16.69,8.84l-.74-1q-.21,3.71-.5,7.39c-.1,1.23-.21,2.46-.32,3.69-.05.62-.11,1.23-.17,1.85l-.09.92q-.33.95,1,1l-.29.71.14-.12c1-.83-.44-2.23-1.42-1.41a1.36,1.36,0,0,0,1.08,2.31c1.66-.15,1.54-2.44,1.65-3.6q.59-6.35,1-12.7a1,1,0,0,0-.73-1,46.66,46.66,0,0,1-15.8-8.32c-1-.8-2.42.61-1.42,1.41Z"/><path d="M244,725.34c-5.26-4-12-4.77-18.4-5.42l1,1.27,2.92-12.57c.43-1.81,2.47-7.21-1-7.39-1.29-.06-1.28,1.94,0,2,.29,0-.52,3.29-.56,3.46l-1.08,4.66-2.17,9.31a1,1,0,0,0,1,1.26c6,.62,12.4,1.35,17.39,5.15,1,.78,2-1,1-1.73Z"/><path d="M171.34,730.77a119.69,119.69,0,0,0,23.75-9.25A114.85,114.85,0,0,0,206.16,715c3.77-2.52,7.34-5.34,11.15-7.8a88.15,88.15,0,0,1,13.34-7.07c1.09-.46.27-2-.77-1.82a6.24,6.24,0,0,0-3.83,2.47c-.79,1,.95,2,1.72,1a4.28,4.28,0,0,1,2.64-1.56l-.77-1.82a90,90,0,0,0-11.6,6c-3.83,2.35-7.37,5.09-11.06,7.65a116.08,116.08,0,0,1-22.52,12.25,117.65,117.65,0,0,1-13.65,4.59,1,1,0,0,0,.53,1.93Z"/><path d="M189.82,741.86a266.26,266.26,0,0,1,37.4-18.68c1.17-.48.66-2.42-.54-1.93a270.58,270.58,0,0,0-37.87,18.88,1,1,0,0,0,1,1.73Z"/><path d="M233.5,683.19l9.37,4.72,4.91,2.47c1.36.69,3.23,1.2,3.55,2.88.65,3.34.95,6.78,1.42,10.15l1.47,10.6c.17,1.27,2.1.73,1.92-.53l-1.56-11.34-.75-5.42c-.22-1.59-.19-3.53-.87-5-.59-1.31-1.84-1.89-3.06-2.5l-5.13-2.59-10.26-5.17c-1.15-.58-2.16,1.15-1,1.73Z"/><path d="M249.43,691.91a247.42,247.42,0,0,0,37.14-20.1c5.75-3.79,11.24-8.45,17.74-10.93,6-2.3,12.22-3.43,17.41-7.44,2.51-1.94,4.76-4.2,7.32-6.06a18.62,18.62,0,0,1,4-2.33,12.93,12.93,0,0,1,2-.61,1.57,1.57,0,0,1,1,0,1.45,1.45,0,0,1,.45.33c.21.38.33.21.36-.52-1.25.31-.72,2.23.53,1.93a1.45,1.45,0,0,0,1-2.15,3.19,3.19,0,0,0-2.76-1.68c-2.74,0-5.63,1.85-7.76,3.41-2.48,1.83-4.68,4-7.09,5.89a29.78,29.78,0,0,1-9.41,4.82A88.74,88.74,0,0,0,301.33,660a65.6,65.6,0,0,0-9.72,6c-6.34,4.42-12.85,8.58-19.57,12.4a246.61,246.61,0,0,1-23.62,11.82c-1.18.51-.16,2.23,1,1.72Z"/><path d="M337.07,645A36.36,36.36,0,0,0,339,630.23l-1.86.5,1.6,3.16c.59,1.15,2.31.14,1.73-1l-1.6-3.16a1,1,0,0,0-1.87.51,34.83,34.83,0,0,1-1.88,14.28c-.42,1.22,1.51,1.74,1.93.53Z"/><path d="M337.85,645.07q5.55,1.73,10.92,3.94c1.8.74,3.59,1.54,5.35,2.37.86.41,1.72.82,2.57,1.25l1.27.64.72.38c.35.25.45.29.3.1l.26-1-.1.1.71-.29.24,0,.46,1.13,0-.1a1,1,0,0,0-1.93-.54l0,.11a1,1,0,0,0,.46,1.13,1.19,1.19,0,0,0,1.78-.5c.38-.94-.45-1.56-1.17-2-2.26-1.23-4.61-2.32-7-3.37a126.29,126.29,0,0,0-14.34-5.4c-1.23-.39-1.76,1.54-.53,1.92Z"/><path d="M293.09,678.43l1.11,4.62c.26,1.07.33,2.89,1.54,3.35a2.58,2.58,0,0,0,1.91-.3l2-.81,4.37-1.78c1.42-.58,2.85-1.15,4.27-1.75a3.07,3.07,0,0,0,2.21-2.38c.12-1.37-.86-2.7-1.47-3.85l-2.23-4.2a1,1,0,0,0-1.57-.2l-.76,1c-.8,1,.61,2.42,1.42,1.41l.76-1-1.57-.2,1.74,3.28a20,20,0,0,1,1.61,3.12c.18.57,0,.76-.52,1a15.77,15.77,0,0,1-1.47.62L303,681.76l-3.37,1.38-1.69.69a13.42,13.42,0,0,0-1.61.65c.3.32.38.34.27,0l-.07-.29-.21-.86-.42-1.73-.9-3.75c-.31-1.25-2.23-.72-1.93.53Z"/><path d="M294.43,677.93a41.92,41.92,0,0,1,10.51-6.37,1,1,0,0,0-1-1.73A43.43,43.43,0,0,0,293,676.52a1,1,0,0,0,0,1.41,1,1,0,0,0,1.42,0Z"/><path d="M296.1,684l-4.73-.78.7,1.23a13.67,13.67,0,0,0-1.58-8.64l-.36,1.37a1,1,0,0,1,.84-.12c.26.08-.09-.06.15.06a1.2,1.2,0,0,1,.27.16c-.11-.09.09.1.11.13s.11.19.13.23A1,1,0,0,0,293,678a1,1,0,0,0,.35-1.37,3,3,0,0,0-4.23-1.18,1,1,0,0,0-.36,1.37,11.41,11.41,0,0,1,1.38,7.1,1,1,0,0,0,.7,1.23l4.73.78a1,1,0,0,0,1.23-.7,1,1,0,0,0-.7-1.23Z"/><path d="M290.51,676.75c2.54-2.3,4.66-5.55,7.95-6.86a8.11,8.11,0,0,1,8.93,2.25c.85,1,2.26-.45,1.42-1.41a10.11,10.11,0,0,0-10.38-2.94c-4,1.24-6.38,4.87-9.34,7.55-.95.87.47,2.28,1.42,1.41Z"/><path d="M81.83,698.18a16.09,16.09,0,0,0-16.67-7.45l1.23.7a315.46,315.46,0,0,1-10.23-41.2l-1.47,1.13a20.77,20.77,0,0,0,10.09,3.34c1.79.11,3.56.12,4.41,2a59.93,59.93,0,0,1,2,5.69q3.93,11.55,7.27,23.27,1.92,6.74,3.64,13.52a1,1,0,0,0,1.83.24A21.37,21.37,0,0,1,98,689.17a1,1,0,0,0,.7-1.23,328.52,328.52,0,0,1-9.87-39.07c-.24-1.27-2.17-.73-1.93.53a330.46,330.46,0,0,0,9.87,39.07l.7-1.23A23.38,23.38,0,0,0,82.2,698.38l1.83.24q-3.15-12.4-7-24.62-1.89-6.12-4-12.17c-.64-1.89-1.23-3.82-2-5.67a4.86,4.86,0,0,0-3.29-3.11c-1.87-.52-3.88-.31-5.79-.72a18.9,18.9,0,0,1-6.35-2.7c-.79-.52-1.61.34-1.47,1.13A315.46,315.46,0,0,0,64.46,692a1,1,0,0,0,1.23.7,14,14,0,0,1,14.41,6.53,1,1,0,0,0,1.73-1Z"/><path d="M284.16,546.51l-4.5-18.73L279,529a62.25,62.25,0,0,1,16-3.13l-1-1,.34,5.35c.08,1.26-.13,3.06.92,4s2.69.86,3.89,1.08l5.09.92L303.5,535c-.92,2.24-.8,4.62-1.08,7-.24,2.07-1,4.42-3.13,5.17s-5.12.48-7.51.58l-4.21.16a14.44,14.44,0,0,1-1.74,0c-.17,0-1.84-.51-1.25-.93,1-.74,0-2.48-1-1.73a2.32,2.32,0,0,0-.86,2.78,3.15,3.15,0,0,0,2.92,1.87,46.58,46.58,0,0,0,5.66-.16c1.93-.08,3.87-.12,5.79-.24,3.05-.19,5.48-1.36,6.63-4.33s.45-6.55,1.72-9.64a1,1,0,0,0-.7-1.23l-3.94-.71a18.86,18.86,0,0,1-3.77-.69c-1-.42-.73-2.66-.79-3.63l-.28-4.38a1,1,0,0,0-1-1,64.53,64.53,0,0,0-16.52,3.2,1,1,0,0,0-.7,1.23l4.5,18.73c.31,1.25,2.23.72,1.93-.53Z"/><path d="M305.13,535.37a155.28,155.28,0,0,1,28.81,2,1,1,0,0,0,1.26-1,93.93,93.93,0,0,1,.05-11.13c.23-3.6.86-7.11,1.31-10.68.26-2,.24-4.83-1.7-6.1a4.83,4.83,0,0,0-3.82-.32c-1.8.39-3.59.81-5.39,1.22-1.25.28-.72,2.21.53,1.93l4.49-1c1.21-.27,2.85-.88,3.6.45,1.1,2,.07,5-.23,7a94.93,94.93,0,0,0-.84,18.61l1.27-1a157.57,157.57,0,0,0-29.34-2.12,1,1,0,0,0,0,2Z"/><path d="M338.15,542.12a171.75,171.75,0,0,1,11.48,18.31,1,1,0,0,0,1.13.46l13.29-5.23-.77-1.82a1.9,1.9,0,0,1-1.45.26c-1.26-.26-1.79,1.67-.53,1.92a4.06,4.06,0,0,0,3-.46c.95-.54.31-2.25-.77-1.82L350.22,559l1.13.46a170.08,170.08,0,0,0-11.47-18.31c-.74-1-2.48,0-1.73,1Z"/><path d="M339.76,544.86a54.14,54.14,0,0,1,15.67-9.81c1.17-.48.68-2.4-.53-1.93a7.47,7.47,0,0,1-8.47-2.12,7.38,7.38,0,0,1,.1-9c.8-1-.61-2.42-1.42-1.42a9.16,9.16,0,0,0,10.32,14.49l-.53-1.93a57,57,0,0,0-16.56,10.33c-1,.86.46,2.27,1.42,1.41Z"/><path d="M376.39,568.9l-4.07,7.91c-1.08,2.09-2.92,4.57-2.68,7.05a9.91,9.91,0,0,0,1.14,3.19l1.9,4,3.8,8q3.81,8,7.63,16.07c1.2,2.52,2.26,5.18,3.66,7.59a5.66,5.66,0,0,0,5.12,3.1c1.39,0,2.77-.29,4.16-.36a28.52,28.52,0,0,1,4.43.13,27.69,27.69,0,0,1,9.24,2.69c1.15.56,2.17-1.17,1-1.73a30.16,30.16,0,0,0-14.24-3.1c-2.05.07-5.11,1.1-6.86-.31a7.59,7.59,0,0,1-1.82-2.77c-.61-1.26-1.2-2.53-1.8-3.79q-7.17-15.07-14.29-30.15c-.6-1.26-1.37-2.52-1-4a21.6,21.6,0,0,1,2-4l4.41-8.57c.59-1.14-1.14-2.16-1.73-1Z"/><path d="M318.74,572.1a11.6,11.6,0,0,0,12.79-3.49c1.83-2.28,2.58-5.16,3.39-7.9q1.45-4.87,2.76-9.79a1,1,0,0,0-1.93-.54q-1.12,4.25-2.36,8.46c-.77,2.64-1.39,5.51-2.91,7.84a9.59,9.59,0,0,1-11.21,3.49c-1.2-.45-1.73,1.48-.53,1.93Z"/><path d="M329,571.21c2.66,3,3.91,6.95,5.18,10.73a77.43,77.43,0,0,0,4.88,11.4c4,7.58,9.22,14.48,14.37,21.33l.6-1.47-10.21,3.87c-1.2.45-.68,2.39.53,1.93l10.21-3.87c.53-.2,1-.9.59-1.47-5.23-7-10.5-14-14.57-21.72a82,82,0,0,1-4.86-11.7c-1.27-3.74-2.68-7.43-5.31-10.44-.85-1-2.26.44-1.41,1.41Z"/><path d="M355.84,630.6a1.36,1.36,0,0,0-.07,2.29c1.07.76,2.31-.34,3.18-.9l7.87-5.07-1.21-.16a81.22,81.22,0,0,1,10,15.54c.57,1.15,2.3.14,1.73-1A83.57,83.57,0,0,0,367,625.35a1,1,0,0,0-1.22-.16l-4.69,3-2.34,1.51-1,.65-.67.43c-.54.19-.51.52.08,1l-.46.6.13-.09c1.09-.68.08-2.41-1-1.72Z"/><path d="M373.53,617.44a4.41,4.41,0,0,1-6.15-1.24l-.6,1.47a8.39,8.39,0,0,1,8.3,1.58c.95.86,2.37-.55,1.41-1.41a10.38,10.38,0,0,0-10.24-2.1,1,1,0,0,0-.6,1.47,6.42,6.42,0,0,0,9.3,1.64,1,1,0,0,0,0-1.41,1,1,0,0,0-1.42,0Z"/><path d="M185.69,583.86a32.85,32.85,0,0,0,8.91,4.08c3.2.92,6.67,1.5,9.93.57l-1.13-.46a14.06,14.06,0,0,0,7.13,6.72c1.11.47,3,1.3,3.87,0,.67-1-.37-2.59-1.56-2.09s-.66,2.42.53,1.92l.17-.07-.77-.1-.19-.43.46-.6c-.5.34-2-.55-2.49-.8a11.81,11.81,0,0,1-2.24-1.46,12.46,12.46,0,0,1-3.18-4.09,1,1,0,0,0-1.13-.46c-3.06.87-6.31.21-9.29-.69a31.5,31.5,0,0,1-8-3.75c-1.09-.71-2.09,1-1,1.72Z"/><path d="M201.46,587c8.9-1.42,15.78-8,24.4-10.2l-1-1.67-.9,1.15c-.78,1,.62,2.43,1.41,1.41l.9-1.15a1,1,0,0,0-1-1.67c-8.62,2.23-15.52,8.78-24.4,10.2-1.27.2-.73,2.13.53,1.93Z"/><path d="M188.1,583.78a19.49,19.49,0,0,0,17.44,1.65c3.24-1.3,6.1-3.28,9.42-4.42a80.57,80.57,0,0,1,10.53-2.61l-1.13-.46a4.74,4.74,0,0,0,3.38,2.31c1.26.19,1.81-1.73.54-1.93a2.83,2.83,0,0,1-2.19-1.39,1,1,0,0,0-1.13-.46,86.85,86.85,0,0,0-9.68,2.33,61,61,0,0,0-8.9,4.06,17.56,17.56,0,0,1-17.27-.81c-1.1-.68-2.1,1.05-1,1.73Z"/><path d="M211.56,594.94a11.63,11.63,0,0,1,1.32,0l.37,0c.22,0-.13,0,.11,0s.44.07.65.12a9.21,9.21,0,0,1,1.27.36l.27.1.17.07h0l.6.28a1,1,0,0,0,1.37-.36,1,1,0,0,0-.36-1.37,8,8,0,0,0-2.62-1.27l-.27,2,2,0a1,1,0,0,0,0-2l-2,0a1,1,0,0,0-.26,2c.2.06.41.12.61.2l.17.06h0l.3.14a6.84,6.84,0,0,1,1.09.68l1-1.73a11.76,11.76,0,0,0-5.79-1.29,1,1,0,0,0-1,1,1,1,0,0,0,1,1Z"/><path d="M148,537.07c5.17,6,11.56,10.77,18,15.4,3.23,2.34,6.47,4.65,9.59,7.14,2,1.58,8.48,5.93,5.06,8.9-1,.84.45,2.25,1.41,1.41a4.61,4.61,0,0,0,1.31-4.63c-.46-2-2-3.42-3.45-4.69-3.25-2.81-6.71-5.36-10.18-7.88-7.16-5.2-14.47-10.31-20.28-17.06-.84-1-2.25.44-1.41,1.41Z"/><path d="M166,543.74a76.58,76.58,0,0,0,8.57,7.21q2.25,1.62,4.62,3.08a9.45,9.45,0,0,0,2.3,1.32,2.42,2.42,0,0,0,2-.8c2.3-2.2,1-5.58-1.06-7.37A48.31,48.31,0,0,0,177.8,544l-5.2-3.51c-1.45-1-3.27-2.48-5.16-1.92a2.63,2.63,0,0,0-1.74,3.7c.63,1.13,2.35.12,1.73-1-.4-.72,1-.81,1.37-.72a10.88,10.88,0,0,1,2.79,1.67l5.88,4c1.6,1.08,3.64,2.12,4.69,3.8.66,1,.79,3.06-.7,3.48l.77.1a73.54,73.54,0,0,1-14.84-11.19c-.93-.9-2.34.51-1.42,1.41Z"/><path d="M194.34,559.14,191,536.88l-.7,1.23a12.64,12.64,0,0,0,10-13.17l-1.26,1c3.73,1.28,7.18-1.49,9.13-4.45,2.07-3.14,2.85-7.36,6.19-9.53h-1c1.81,1.27,3.63,2.53,5.43,3.82.32.23.9.55,1,1s-.26,1.21-.46,1.65c-.43,1-.9,1.94-1.37,2.91q-2.53,5.21-5.48,10.2a141.77,141.77,0,0,1-13.62,19.19c-2.86,3.39-5.89,6.64-9,9.75l1.57,1.21,1.31-2.2a1,1,0,0,0-1.72-1l-1.31,2.2a1,1,0,0,0,1.57,1.21,143.76,143.76,0,0,0,29.47-41.68c.87-1.86,1.83-3.82,0-5.43a75.47,75.47,0,0,0-6.37-4.52,1,1,0,0,0-1,0c-2.89,1.88-4.2,5-5.66,8s-4.27,7.13-8.12,5.81a1,1,0,0,0-1.27,1,10.66,10.66,0,0,1-8.53,11.24,1,1,0,0,0-.7,1.23l3.35,22.26c.19,1.27,2.12.73,1.93-.53Z"/><path d="M268.93,528.87q.78-8.25.74-16.54l-.29.71,4.07-3.72,2-1.86c.34-.31.66-.64,1-.93a1.48,1.48,0,0,1,1.68-.4,44.19,44.19,0,0,1,5.41,2.31l5.46,2.35c1.17.5,2.19-1.22,1-1.73-3.5-1.5-7-3-10.5-4.51-1.37-.59-2.66-.86-3.93.1-1.46,1.1-2.76,2.49-4.11,3.72l-2,1.86c-.51.47-1.45,1.07-1.73,1.72a7.53,7.53,0,0,0-.09,2.51c0,.95,0,1.9,0,2.84q-.13,5.79-.7,11.57c-.12,1.28,1.88,1.27,2,0Z"/><path d="M269.76,511.49a49.84,49.84,0,0,0-13-21.31l-1.42,1.41a157.21,157.21,0,0,0,20.74,14.67,1,1,0,0,0,1-1.72,155.94,155.94,0,0,1-20.33-14.36c-1-.82-2.36.5-1.42,1.41A47.84,47.84,0,0,1,267.83,512a1,1,0,0,0,1.93-.53Z"/><path d="M247,511.11A75.56,75.56,0,0,0,253,485.68l-1.71.71a21.55,21.55,0,0,1,4.13,4.85L257,490a12.92,12.92,0,0,0-4.79-3.68l-.5,1.86,11.94,0c1.84,0,3.71-.12,5.54,0s3.1,1.45,4.44,2.64q8.31,7.38,17.32,13.91l-.2-1.57a30.15,30.15,0,0,0-6,10.46c-.41,1.23,1.52,1.75,1.93.54a27.68,27.68,0,0,1,5.54-9.59,1,1,0,0,0-.21-1.57c-6.34-4.61-12.32-9.61-18.22-14.76a7.25,7.25,0,0,0-3.92-2,44.68,44.68,0,0,0-5.67-.07l-12.44,0c-.93,0-1.45,1.44-.51,1.86a11.74,11.74,0,0,1,4.39,3.38c.72.88,2.17-.26,1.57-1.22a23.79,23.79,0,0,0-4.45-5.25,1,1,0,0,0-1.7.7,72.89,72.89,0,0,1-5.68,24.42c-.5,1.17,1.22,2.19,1.73,1Z"/><path d="M306,525.37l-14.87-26.73c-4.56-8.17-9.17-16.34-15-23.67l-.7,1.7a26.91,26.91,0,0,0,18.25-9c.85-1-.56-2.39-1.41-1.42a24.9,24.9,0,0,1-16.84,8.46,1,1,0,0,0-.71,1.71c5.85,7.32,10.41,15.53,14.95,23.69l14.65,26.31c.62,1.12,2.35.11,1.72-1Z"/><path d="M297.89,475.61q5.39,11.25,11.22,22.29,2.89,5.46,5.89,10.86c1,1.83,2,3.66,3.08,5.49.42.73,1.92,3,.67,3.63s-.15,2.28,1,1.73c3.31-1.58.19-6.12-.91-8.06q-3.39-6-6.65-12.1-6.57-12.27-12.58-24.85c-.56-1.16-2.28-.14-1.73,1Z"/><path d="M150.06,537.32l9.47-2c2.72-.59,5.59-1,8.05-2.43a14.07,14.07,0,0,0,4.92-5.35,19.16,19.16,0,0,1,4.79-5.69c3.78-2.82,8.46-4.52,11.42-8.35,3.09-4,3.53-9.38,7.54-12.79,3.47-2.94,8.39-4.95,9.55-9.81l-1.93-.53a4,4,0,0,1-1.59,2.56c-1,.75,0,2.49,1,1.73a6.05,6.05,0,0,0,2.51-3.76c.26-1.25-1.63-1.79-1.93-.53-1,4-5.28,6-8.28,8.32a15.39,15.39,0,0,0-4.23,4.92c-1.18,2.24-1.9,4.69-3.1,6.92-2.35,4.31-6.89,6.18-10.79,8.77a19,19,0,0,0-4.91,4.46c-1.47,2-2.46,4.37-4.25,6.12-2.22,2.16-5.47,2.67-8.37,3.3l-10.41,2.25c-1.26.28-.72,2.2.53,1.93Z"/><path d="M151.8,534.3c.18-1.5.38-3,.62-4.49a19.44,19.44,0,0,1,.82-4.44c.47-1.08,1.75-1.27,2.78-1.49,1.3-.29,2.61-.57,3.91-.87,4.95-1.13,10-2.61,14.07-5.72,7.37-5.59,10.1-15.35,17.63-20.72,4.51-3.21,10.07-4.63,14.12-8.52h-1.42a2.68,2.68,0,0,1,.7,2.7,1,1,0,0,0,1.93.53,4.76,4.76,0,0,0-1.21-4.65,1,1,0,0,0-1.42,0c-3.76,3.62-9,5-13.21,7.88-3.89,2.6-6.65,6.37-9.24,10.19-2.68,4-5.3,8.22-9.22,11.11-4.35,3.21-9.72,4.5-14.91,5.64-2.21.49-5.24.67-6.29,3a19.41,19.41,0,0,0-1,4.79c-.26,1.67-.49,3.34-.69,5-.16,1.27,1.84,1.26,2,0Z"/><path d="M228.77,520.3a82.72,82.72,0,0,0-2-33.69c-.34-1.26-.8-2.58-.31-3.86a16.66,16.66,0,0,1,2.37-3.57q2.41-3.29,4.86-6.56c3.34-4.46,6.76-8.86,10.37-13.11a142.66,142.66,0,0,1,13-13.5l-1.21.16,10.85,5.94,2.55,1.4c.57.32.65.65.44,1.32a8.3,8.3,0,0,1-.65,1.3c-.84,1.59-1.74,3.15-2.68,4.68-3.72,6-8.09,11.61-11.8,17.63A63.15,63.15,0,0,0,249.27,489a1,1,0,0,0,.69,1.23,3.12,3.12,0,0,0,3.61-2l-2-.27v2.55a1,1,0,0,0,2,0v-2.55a1,1,0,0,0-2-.27,1,1,0,0,1-1.14.62l.69,1.23c2.76-7.17,7.25-13.47,11.6-19.73,2.18-3.14,4.34-6.28,6.28-9.57a41,41,0,0,0,2.63-4.94c.74-1.77-.14-2.79-1.63-3.61q-6.58-3.63-13.19-7.23a1,1,0,0,0-1.21.16c-8.36,7.54-15.53,16.25-22.31,25.2q-2.6,3.43-5.14,6.91c-1.37,1.87-3.4,3.9-3.85,6.25a8,8,0,0,0,.33,3.53c.4,1.5.8,3,1.13,4.51a80.16,80.16,0,0,1,1.45,9,81,81,0,0,1-.44,19.8c-.18,1.26,1.75,1.8,1.93.53Z"/><path d="M225.79,480.7l-17.4.29.7,1.71q9.49-8.43,18.18-17.71c5.83-6.23,11.18-12.8,16.54-19.42a4.18,4.18,0,0,1,2.69-1.85,13.49,13.49,0,0,1,3.68.45l7.63,1.36c1.26.22,1.8-1.71.53-1.93l-7.15-1.28c-1.9-.33-4.06-1-6-.36s-2.91,2.3-4,3.74c-1.42,1.8-2.85,3.58-4.31,5.34q-8.52,10.32-18,19.76-5.44,5.4-11.17,10.48a1,1,0,0,0,.71,1.71l17.4-.29a1,1,0,0,0,0-2Z"/><path d="M279.22,476.21a36.14,36.14,0,0,0-11.61-2l.5,1.87a21.65,21.65,0,0,0,5.49-6.75,33.47,33.47,0,0,1,6-7.51c4.57-4.24,9.88-8.35,10.74-15,.13-1-1.4-1.29-1.87-.51a5.06,5.06,0,0,0-.73,2.54,1,1,0,0,0,2,0,3,3,0,0,1,.46-1.53l-1.86-.5c-.81,6.23-6.58,10.13-10.78,14.13a32,32,0,0,0-5.3,6.68c-1.46,2.41-2.85,5-5.17,6.68a1,1,0,0,0,.51,1.86,34.29,34.29,0,0,1,11.08,1.93c1.22.42,1.74-1.51.53-1.93Z"/><path d="M150.87,523.94l44.22-45.47,44.36-45.61,24.88-25.58c.92-.94-.43-2.2-1.41-1.41l-2.25,1.8c-1,.81.42,2.22,1.41,1.42l2.25-1.81-1.41-1.41L218.73,451.3l-44.37,45.62-24.91,25.61c-.89.92.52,2.34,1.42,1.41Z"/><path d="M142.41,507.47A16.69,16.69,0,0,0,153.87,523c1.23.39,1.75-1.54.53-1.93a14.63,14.63,0,0,1-10-13.64,1,1,0,0,0-2,0Z"/><path d="M117.73,623.76c-3.55,1.6-8-1.33-8.64-5-.84-4.46,3.46-8.46,7.65-8.75,1.05-.07,1.45-1.79.27-2a2.22,2.22,0,0,1-1.67-2.76c.27-1.5,1.77-2.45,3-3.06a11.9,11.9,0,0,1,5.1-1.33c1.65,0,3.47,1,3.45,2.86a1,1,0,0,0,1.51.87c2.9-1.31,7-2.85,10-1,2,1.25,3.36,4.07,1.78,6.15-.58.76.37,1.62,1.13,1.47a6.26,6.26,0,0,1,7,8.6c-.31.72.22,1.8,1.13,1.47,1.11-.39,1.7.8,1.72,1.74a5.77,5.77,0,0,1-.27,1.6l-.24.81c-.23.35-.1.43.4.23l.29.71,0-.24c-.08-1.28-2.08-1.29-2,0a1.51,1.51,0,0,0,2.22,1.32c1.11-.56,1.39-2.47,1.55-3.54.34-2.38-1.35-5.56-4.18-4.56L150,620.9a8.19,8.19,0,0,0-9.22-11.54l1.13,1.47c2.1-2.77.57-6.64-2-8.54-3.71-2.74-8.74-1.06-12.5.64l1.5.86a5,5,0,0,0-4.1-4.71c-2.59-.53-5.5.44-7.79,1.62-1.91,1-3.66,2.68-3.74,4.95-.06,2,1.12,4.07,3.18,4.36l.26-2c-5.49.37-10.76,5.49-9.58,11.28,1,5,6.87,8.28,11.58,6.16,1.17-.52.16-2.25-1-1.72Z"/><path d="M25.79,590.11A19.55,19.55,0,0,0,37,606.35c3.39,1.51,7.72,2.11,11,0a7.65,7.65,0,0,0,3.59-8.2,1,1,0,0,0-1.93,0c-1.13,4.93,4.26,8.47,8.62,6.71,5.35-2.15,6.25-8.39,5-13.38a1,1,0,0,0-1.83-.24,2.38,2.38,0,0,0,2,3.37c2.16.14,3.6-2.25,4.55-3.83,2.28-3.77,3.29-8.53,1-12.55a8.29,8.29,0,0,0-1.7-2.16c-.76-.69-1.7-1.08-2.51-1.71-.54-.42-.63-.63-.16-1.14.29-.3.64-.53.92-.86A7,7,0,0,0,67,570.1c1.17-3.2.08-7.25-3-9A7.71,7.71,0,0,0,53.78,564c-.63,1.13,1.1,2.14,1.73,1a5.72,5.72,0,0,1,6.89-2.42c2.62,1,3.59,4.17,2.76,6.71a5,5,0,0,1-.91,1.69c-.44.53-1.07.87-1.48,1.43a2.36,2.36,0,0,0,.53,3.24c1.09,1,2.49,1.46,3.44,2.64a8,8,0,0,1,1.65,4.45A11.56,11.56,0,0,1,67,588.65a17.77,17.77,0,0,1-1.59,2.57,4,4,0,0,1-1.07,1.17c-.13.07-1.33.34-1.11-.12L61.38,592c.91,3.69.7,8.29-2.88,10.52a4.72,4.72,0,0,1-4.75.36,3.94,3.94,0,0,1-2.14-4.21H49.68c.72,2.84-1.32,5.63-4,6.56-3.11,1.1-6.6.12-9.35-1.47a17.56,17.56,0,0,1-8.59-13.68c-.1-1.27-2.1-1.28-2,0Z"/><path d="M24.9,587.37l-5.69-.57,1,1s0-.26,0-.12,0-.06,0-.09.05-.25.08-.38a6.34,6.34,0,0,1,.23-.74l.06-.17c.07-.17,0,.07,0,0s.11-.23.17-.35a6.58,6.58,0,0,1,.4-.67,2.83,2.83,0,0,1,.2-.28c-.12.15,0,0,0,0l.11-.13a5.73,5.73,0,0,1,.54-.56l.3-.26c.14-.12-.06,0,0,0l.14-.1a6.25,6.25,0,0,1,.7-.43,1,1,0,1,0-1-1.72,7.8,7.8,0,0,0-4,6.11c-.06.58.51,1,1,1l5.69.57a1,1,0,0,0,1-1,1,1,0,0,0-1-1Z"/><path d="M69.59,626.7a3.28,3.28,0,0,1-4.52-4.43,3.54,3.54,0,0,1,.93-1.14c.4-.31,1-.46,1.39-.74a2,2,0,0,0,1-2.09,1.58,1.58,0,0,0-1.59-1.37,1,1,0,0,0-1,1,1,1,0,0,0,1,1c-.06,0-.24-.16-.22-.14s-.18-.21-.15-.12,0,0,0-.07l-.53.28a5.84,5.84,0,0,0-1.56,1,5.49,5.49,0,0,0-1.65,3.17,5.16,5.16,0,0,0,3.7,5.8,5.41,5.41,0,0,0,4.15-.43c1.13-.62.12-2.35-1-1.72Z"/><path d="M89.6,575.82a12.08,12.08,0,0,0,18.79-4.23L107,572c1.32.67,1.39,2.68,2,3.9a7,7,0,0,0,12.22.76c.75-1.06-1-2.06-1.72-1a5.08,5.08,0,0,1-7.78.67c-1.72-1.75-1.33-4.85-3.69-6a1,1,0,0,0-1.37.36A10.07,10.07,0,0,1,91,574.4c-1-.81-2.41.59-1.41,1.42Z"/><path d="M131.38,677.71c-3.58-.76-4.91-4.79-4.84-8.05a17.13,17.13,0,0,1,5.12-11.39,1,1,0,0,0,0-1.41,4.92,4.92,0,0,0-2.5-1.23c-1.12-.23-2.29-.31-3-1.28-1.7-2.24-.14-5.19,1-7.3.6-1.13-1.13-2.15-1.73-1-1.36,2.59-2.73,5.56-1.45,8.46a4.73,4.73,0,0,0,2.45,2.49c1.21.52,2.89.33,3.88,1.28v-1.41a18.94,18.94,0,0,0-5.71,13.45c.13,4,2.07,8.43,6.31,9.33,1.25.27,1.79-1.66.53-1.93Z"/><path d="M229.88,629l-.16,0h-.26c-.06,0-.35,0-.1,0l-.28-.06-.27-.08-.15,0c.11,0,.12,0,0,0s-.33-.19-.49-.29.11.11-.05-.05a2.5,2.5,0,0,1-.24-.22,1.46,1.46,0,0,1-.16-.19c.15.18-.06-.08-.09-.12l-.12-.21a1,1,0,0,1-.07-.15c0,.12.05.12,0,0a2.09,2.09,0,0,1-.08-.23s-.07-.4,0-.14a2.91,2.91,0,0,1,0-.59c0,.24,0-.06,0-.11l.09-.28c0-.11,0-.11,0,0a1.09,1.09,0,0,1,.08-.15,2.53,2.53,0,0,1,.12-.23s.23-.32.09-.14c.06-.07.11-.14.17-.2l.25-.24s.24-.16.06-.05a5.48,5.48,0,0,1,.52-.31c.1,0,.1,0,0,0l.17-.06.24-.07.17,0c-.13,0-.13,0,0,0h.34a1,1,0,0,0,1-1,1,1,0,0,0-1-1,4.3,4.3,0,0,0-4.15,3,4,4,0,0,0,2,4.58,4.13,4.13,0,0,0,3,.47,1,1,0,0,0,.7-1.23,1,1,0,0,0-1.23-.7Z"/><path d="M276.73,618a6.86,6.86,0,0,0,11.68-5.38l-1.71.71a4.32,4.32,0,0,0,7-4.69c-.47-1.18-2.4-.67-1.93.53a2.47,2.47,0,0,1-.63,2.87,2.41,2.41,0,0,1-3-.12,1,1,0,0,0-1.71.7,4.85,4.85,0,0,1-8.26,4c-.93-.89-2.35.52-1.42,1.42Z"/><path d="M266.58,614.14a1,1,0,0,1,.3-.08l-.27,0h.31l-.27,0a1.56,1.56,0,0,1,.37.1l-.24-.1a1.36,1.36,0,0,1,.37.21l-.2-.16a1.44,1.44,0,0,1,.27.28l-.15-.21a1.77,1.77,0,0,1,.19.33l-.1-.24a1.47,1.47,0,0,1,.08.3l0-.27a1.23,1.23,0,0,1,0,.19l1.26-1a2.13,2.13,0,0,1-.45-.13l.24.1a2.43,2.43,0,0,1-.52-.3l.2.15a2.79,2.79,0,0,1-.46-.45l.16.2a2.39,2.39,0,0,1-.32-.56l.1.24a2.39,2.39,0,0,1-.15-.54l0,.27c0-.1,0-.2,0-.3l-1.26,1a4.26,4.26,0,0,1,.47.15l-.24-.1a2.84,2.84,0,0,1,.61.35l-.2-.16a3.45,3.45,0,0,1,.51.5l-.16-.2a2.57,2.57,0,0,1,.36.62l-.1-.24.05.12,1.23-1.23-.14-.05.24.1a2.17,2.17,0,0,1-.33-.19l.21.16a1.94,1.94,0,0,1-.32-.32l.16.2a2.22,2.22,0,0,1-.25-.42l.1.23a2.52,2.52,0,0,1-.13-.47l0,.27a2,2,0,0,1,0-.49l0,.26a1.9,1.9,0,0,1,.11-.39l-.1.24.09-.17a1,1,0,1,0-1.73-1,2.67,2.67,0,0,0-.18,2.26,2.78,2.78,0,0,0,1.74,1.72,1,1,0,0,0,1.23-1.23,3.7,3.7,0,0,0-1-1.57,3.85,3.85,0,0,0-1.66-.87,1,1,0,0,0-.87.18,1,1,0,0,0-.4.79,3.4,3.4,0,0,0,2.66,3.25,1,1,0,0,0,.87-.18,1,1,0,0,0,.4-.79,2.43,2.43,0,0,0-1.11-2,2.29,2.29,0,0,0-2.06-.3,1.1,1.1,0,0,0-.6.46,1,1,0,0,0-.1.77,1.06,1.06,0,0,0,.46.6,1,1,0,0,0,.77.1Z"/><path d="M264.87,611.72c6.41-3,12.84-5.86,19.23-8.87a47.89,47.89,0,0,0,8-4.5c1.19-.87,2.27-1.86,3.41-2.81s2.55-2,4.13-1.8l-.44-1.67a142.12,142.12,0,0,1-27.82,17.46l1,1.73a58.83,58.83,0,0,0,10.91-7.91c.85-.78-.24-2.12-1.21-1.57q-6.31,3.54-12.28,7.64l1.37,1.37c2.15-3.09,5.94-4.35,9.36-5.48a1,1,0,0,0-.53-1.93,26.6,26.6,0,0,0-11.84,6.49,1,1,0,0,0,1.21,1.57q15.4-9.51,30.49-19.53c1.07-.71.07-2.44-1-1.73a11,11,0,0,0-4.3,5.38,1,1,0,0,0,.7,1.23,7.32,7.32,0,0,0,5.32-1c1.08-.69.09-2.41-1-1.73l-3.42,2.14a1,1,0,0,0,.77,1.83l3.12-.74c.92-.22,1-1.76,0-1.93a6.88,6.88,0,0,0-3.65.28c-1.18.45-.72,2.32.53,1.93l3.2-1-1-1.67a1.57,1.57,0,0,1-2.19,0l-.2,1.57a42.37,42.37,0,0,1,6.33-3.49c1.17-.52.16-2.24-1-1.72a41.49,41.49,0,0,0-6.33,3.49,1,1,0,0,0-.2,1.57,3.6,3.6,0,0,0,5,0,1,1,0,0,0-1-1.67l-3.2,1,.53,1.93a4.78,4.78,0,0,1,2.59-.28v-1.93l-3.12.74.77,1.82,3.42-2.13-1-1.73a5.22,5.22,0,0,1-3.78.84l.7,1.23a8.67,8.67,0,0,1,3.38-4.18l-1-1.73q-15.08,10-30.49,19.53l1.21,1.57a24.68,24.68,0,0,1,11-6l-.53-1.93c-4,1.31-8.07,2.83-10.56,6.4-.57.81.56,1.93,1.37,1.37q6-4.11,12.28-7.64l-1.22-1.57a56,56,0,0,1-10.5,7.59c-1.13.64-.14,2.28,1,1.73a144.54,144.54,0,0,0,28.23-17.77,1,1,0,0,0-.45-1.68c-3-.4-5.15,1.51-7.28,3.36a38.37,38.37,0,0,1-8.6,5.39c-6.74,3.27-13.61,6.3-20.42,9.44-1.17.53-.15,2.26,1,1.72Z"/><path d="M281.63,587.92l-.79-6a1,1,0,0,0-1-1c-.48,0-1.07.45-1,1l.79,6a1,1,0,0,0,1,1c.48,0,1.07-.44,1-1Z"/><path d="M274.51,581.82h6a1,1,0,0,0,1-1,1,1,0,0,0-1-1h-6a1,1,0,0,0,0,2Z"/><path d="M280.77,581.38l-.7-8.24a1,1,0,0,0-2,0l.7,8.24a1,1,0,0,0,1,1,1,1,0,0,0,1-1Z"/><path d="M280.79,582.83l7.11-1.14a1,1,0,0,0,.7-1.23,1,1,0,0,0-1.23-.7l-7.11,1.14a1,1,0,1,0,.53,1.93Z"/><path d="M64.85,761.41a88.1,88.1,0,0,0,18.7-4.23.51.51,0,0,0,.3-.74L72.68,733.55l-2.85-5.83c-.43-.88-1.39-2.22-1.09-3.24s1.78-1.57,2.6-2l10.77-6.07c7.17-4,14.26-8.32,21.57-12.1a41.77,41.77,0,0,1,5.57-2.44,15.61,15.61,0,0,1,5.69-1.18c1.76.14,3,2.47,4,3.71,1.19,1.46,2.41,2.9,3.66,4.3a111.11,111.11,0,0,0,18.37,16.43l-.18-.68-1.33,2.86c-.26.58.6,1.08.87.5l1.32-2.86a.5.5,0,0,0-.18-.68,111.21,111.21,0,0,1-18-16.11c-1.35-1.51-2.67-3.06-3.93-4.64-1-1.19-1.86-2.84-3.28-3.52s-3.24-.16-4.67.18a31.28,31.28,0,0,0-5.54,1.91c-3.87,1.72-7.53,4-11.22,6L82.87,714.8l-11.61,6.55c-1.21.68-3.06,1.37-3.49,2.86s1,3.57,1.64,4.91L83,757l.3-.74a86.47,86.47,0,0,1-18.44,4.2c-.63.07-.64,1.07,0,1Z"/><path d="M105.64,799.16l4.08-1.74a12.7,12.7,0,0,1,2.19-.92c1.09-.22,1.76.6,2.53,1.2l7.18,5.59c2,1.59,3.91,3.18,4.94,5.59.59,1.39,1.34,3,3.11,2.79.63-.09.36-1-.27-1-1.19.17-1.74-1.82-2.1-2.63a10.12,10.12,0,0,0-1.88-2.8,52,52,0,0,0-6.49-5.34l-3.59-2.8c-.74-.57-1.65-1.57-2.63-1.73s-2.33.65-3.28,1.06l-4.3,1.83c-.59.25-.08,1.11.51.86Z"/><path d="M139.86,725.6c3.54-2.56,6.7,1.93,8.5,4.37a70.17,70.17,0,0,0,7.63,8.17c1.37,1.35,2.73,2.7,4.11,4a3.88,3.88,0,0,0,3.78,1.41,20.62,20.62,0,0,0,9.2-4c.5-.39,0-1.25-.51-.87a20.44,20.44,0,0,1-4.94,2.8c-1.44.55-4.25,1.72-5.73.9a11.73,11.73,0,0,1-2.12-2l-2.23-2.18c-1.4-1.38-2.81-2.75-4.2-4.14a44.57,44.57,0,0,1-3.89-4.35,31.47,31.47,0,0,0-3-3.86c-1.85-1.78-4.79-2.85-7.06-1.2-.52.38,0,1.24.5.87Z"/><path d="M160,738.16l11.88-5.46c.58-.27.07-1.13-.51-.86l-11.87,5.45c-.58.27-.08,1.13.5.87Z"/><path d="M157.53,736.41a27.52,27.52,0,0,0,13.3-6.91c.47-.45-.24-1.15-.71-.71a26.52,26.52,0,0,1-12.85,6.66c-.63.12-.36,1.09.26,1Z"/><path d="M138.31,723.3l78.2-42,77.82-41.81L338,616c.57-.3.07-1.17-.5-.86L259.77,656.9l-77.95,41.88-44,23.66c-.57.3-.06,1.17.51.86Z"/><path d="M149.54,593.12a5.88,5.88,0,0,1,3.09,5.19.5.5,0,0,0,1,.13,55.05,55.05,0,0,1,2.32-6.49l-.93-.25.33,4.18a.51.51,0,0,0,.94.25l1.84-2.53c.3-.41.58-.82.89-1.22.1-.13.26-.39.42-.45a.18.18,0,0,1,.18,0c.05.09.07.09.05,0-.49.42.22,1.12.71.7a.94.94,0,0,0-.06-1.39,1.19,1.19,0,0,0-1.65.1,11.77,11.77,0,0,0-1.52,2l-1.73,2.37.93.25L156,591.7c0-.44-.72-.76-.94-.25a56.7,56.7,0,0,0-2.41,6.73l1,.13a6.87,6.87,0,0,0-3.59-6c-.57-.31-1.07.56-.5.86Z"/><path d="M172,617.2a11.06,11.06,0,0,1,4,5.76c.16.51,1,.44,1-.14a7.44,7.44,0,0,1,1.08-4.89l-.91-.39a7.32,7.32,0,0,0,.71,5.31.51.51,0,0,0,.92-.12,6.71,6.71,0,0,1,1.21-2.82,2,2,0,0,1,2.4-.57.5.5,0,0,0,.51-.86,2.9,2.9,0,0,0-3.3.42,6.68,6.68,0,0,0-1.79,3.57l.92-.12a6.2,6.2,0,0,1-.62-4.54.5.5,0,0,0-.91-.39,8.41,8.41,0,0,0-1.22,5.4l1-.13a12.14,12.14,0,0,0-4.5-6.35c-.52-.38-1,.49-.5.86Z"/><path d="M186.78,660.28l3.87,6.59c.33.57,1.11.07.86-.5a5.17,5.17,0,0,1,.52-4.93l-.93-.25a12,12,0,0,0,1.11,5.08.51.51,0,0,0,.87,0l3.2-5.17c.34-.55-.53-1.05-.86-.5l-3.21,5.16h.87a10.73,10.73,0,0,1-1-4.57.5.5,0,0,0-.93-.26,6.17,6.17,0,0,0-.52,5.94l.86-.5-3.87-6.59a.5.5,0,0,0-.86.5Z"/><path d="M67.86,708.29a11.23,11.23,0,0,1,3.49,4.52l.78-.6a3.43,3.43,0,0,1-.61-3.16h-1l1,3.59a.5.5,0,0,0,.83.22,8.94,8.94,0,0,0,3.12-5c.14-.62-.82-.89-1-.26a8.1,8.1,0,0,1-2.85,4.51l.83.22-1-3.59a.5.5,0,0,0-1,0,4.45,4.45,0,0,0,.86,4.13.51.51,0,0,0,.79-.61,12.2,12.2,0,0,0-3.85-4.89.5.5,0,0,0-.68.18.51.51,0,0,0,.18.69Z"/><path d="M138.86,706.43l3.77,5.27a.5.5,0,0,0,.93-.25l.2-2.84-1,.14.53,2.24a.51.51,0,0,0,.92.11,15.51,15.51,0,0,0,2.24-4.76.5.5,0,0,0-1-.26,14.92,14.92,0,0,1-2.15,4.52l.92.12-.53-2.24c-.14-.57-.95-.41-1,.13l-.2,2.84.94-.26-3.77-5.26c-.38-.52-1.24,0-.87.5Z"/><path d="M142.42,573.23l4,6c.25.39,1,.28.93-.25a12.21,12.21,0,0,1,.42-4.08l-1-.14a11.36,11.36,0,0,0,.83,4.43.5.5,0,0,0,.91.12l2.88-4.7c.33-.55-.53-1-.87-.5l-2.87,4.7.91.12a10.63,10.63,0,0,1-.79-4.17.5.5,0,0,0-1-.13,13.31,13.31,0,0,0-.46,4.35l.93-.25-4-6c-.36-.53-1.23,0-.87.51Z"/><path d="M112.29,522a6.69,6.69,0,0,1,2.52,2.49l.87-.5a4,4,0,0,1-.53-2.58h-1a10.76,10.76,0,0,0,1.14,3.25.51.51,0,0,0,.79.1l2.57-2.87c.43-.47-.27-1.18-.7-.7l-2.58,2.86.78.1a9.68,9.68,0,0,1-1-3c-.08-.47-.9-.48-1,0a5.08,5.08,0,0,0,.63,3.35.5.5,0,0,0,.87-.5,7.78,7.78,0,0,0-2.89-2.86.5.5,0,0,0-.5.87Z"/><path d="M206,544.52c1.47,2.49.23,5.77,2.17,8.1s5.5.68,7.83,0a57.7,57.7,0,0,0,18-9.24.51.51,0,0,0,.18-.69,38.38,38.38,0,0,1-6.47-16.58.51.51,0,0,0-.74-.3,1.76,1.76,0,0,0-.38,2.77c.45.47,1.15-.23.71-.7a.74.74,0,0,1,.18-1.21l-.74-.3a39.07,39.07,0,0,0,6.58,16.83l.18-.69a57.05,57.05,0,0,1-16.09,8.62q-2,.69-4.11,1.23c-1.64.42-3.49,1-4.57-.69-1.45-2.29-.44-5.26-1.83-7.62a.5.5,0,0,0-.86.51Z"/><path d="M228.65,527a27.08,27.08,0,0,1,6.16-.43c1.9.09,4.43.18,6.11,1.18s1.48,2.93,1.33,4.6c-.1,1.14-.44,3,.24,4.06.55.84,2.24.94,3.14.86a6.07,6.07,0,0,0,3.53-1.57,7,7,0,0,0,2-3.54,8.9,8.9,0,0,0,.26-2,9.53,9.53,0,0,1-.12-2.25c.39-1.18,2.84-.57,3.74-.52l3.41.21,3.42.21a13.9,13.9,0,0,1,1.71.11c.46.09.38-.06.77.33a1.41,1.41,0,0,1,.32,1.48c-.13.62.84.89,1,.26.21-1,.05-2.62-1.09-3a14.9,14.9,0,0,0-3.41-.21l-3.42-.21-3.42-.21a7.86,7.86,0,0,0-3,0c-1.3.5-1,2-.91,3.07a7,7,0,0,1-1.84,5.45,5.06,5.06,0,0,1-2.67,1.35c-.81.13-2.21.19-2.63-.63a6,6,0,0,1-.08-2.69,16.82,16.82,0,0,0,.14-2.65,4,4,0,0,0-1.75-3.27c-1.64-1-4-1.19-5.85-1.35a28.31,28.31,0,0,0-7.35.4c-.63.12-.37,1.08.26,1Z"/><path d="M264.66,561.06h.55a.33.33,0,0,0,.19,0,.42.42,0,0,0,.26-.26.46.46,0,0,0,0-.2l0-.13a.61.61,0,0,0-.13-.22.53.53,0,0,0-.35-.15h-.55a.38.38,0,0,0-.19.05.37.37,0,0,0-.17.1.54.54,0,0,0-.1.16.43.43,0,0,0,0,.19l0,.14a.48.48,0,0,0,.12.22.52.52,0,0,0,.36.14Z"/><path d="M250.09,614.39c-2.05-1.29-4.15-3.08-4.69-5.57-.46-2.18.63-4.77,2.91-5.33a.5.5,0,0,0-.13-1c-2.79-.07-4.35-2.91-4.08-5.44a9,9,0,0,1,1.43-3.8,7.62,7.62,0,0,1,1.2-1.56c.63-.57,2-1,2.19.23.1.63,1.07.37,1-.26a2,2,0,0,0-3-1.27c-1.73.91-2.9,3.29-3.43,5.07-1,3.46.69,7.93,4.77,8l-.13-1c-2.56.63-4,3.31-3.73,5.82.28,3.08,2.81,5.37,5.27,6.92.55.34,1-.53.5-.87Z"/><path d="M248.86,615.58c1.22,1.68,3.45,1.52,5.16.75,2-.92,3.47-3,5.78-3.36a.45.45,0,0,0,.35-.35,2.16,2.16,0,0,0-.64-2c-.48-.43-1.18.27-.71.71a1.12,1.12,0,0,1,.39,1l.35-.35c-2.07.33-3.5,1.9-5.18,3-1.24.81-3.57,1.55-4.64.08-.37-.52-1.24,0-.86.5Z"/><path d="M244.4,574.09a6.14,6.14,0,0,1-7.21-5.32c-.34-3.08,2.7-5.88,5.72-4.62v-1a3,3,0,0,1-4-2.15c-.54-2,.53-4,1.86-5.41a23.23,23.23,0,0,1,4.08-3.32c1.68-1.11,3.75-2.14,5.76-1.29a.49.49,0,0,0,.68-.18,8.13,8.13,0,0,1,7.21-5,8.23,8.23,0,0,1,4.67,1.37c1.05.69,1.84,1.88,3.1,2.21a7,7,0,0,0,3.47-.4,3.38,3.38,0,0,1,4.14,1.52c1.46,2.41,1.12,5.43,3,7.66v-.7l-2.16,2.19c-.46.46.25,1.17.7.71l2.17-2.2a.51.51,0,0,0,0-.7c-2.07-2.49-1.3-6.31-3.73-8.62a3.88,3.88,0,0,0-3.28-1c-2,.24-3.58,1.33-5.33-.21A9.52,9.52,0,0,0,257,545a9.12,9.12,0,0,0-6.6,5.37l.68-.18c-2.24-.95-4.45-.17-6.41,1.06a18.67,18.67,0,0,0-5.76,5.1c-1.14,1.74-1.67,4.19-.55,6.08a4,4,0,0,0,4.78,1.76.51.51,0,0,0,0-1c-3.57-1.48-7.29,1.85-7,5.49a7.16,7.16,0,0,0,8.5,6.38c.62-.15.36-1.11-.27-1Z"/><path d="M250.72,566.05a2.54,2.54,0,0,1,.78-4.92c.64,0,.65-1,0-1a3.54,3.54,0,0,0-1.29,6.79.53.53,0,0,0,.69-.18.51.51,0,0,0-.18-.69Z"/><path d="M257.63,556.19a4.29,4.29,0,0,1,8.35,1.62c0,.64,1,.64,1,0a5.29,5.29,0,0,0-10.31-1.89c-.21.61.75.87,1,.27Z"/><path d="M64.17,686.54l-.35.12a.5.5,0,0,0,.27,1,19.16,19.16,0,0,1,10.74.19,16.44,16.44,0,0,1,1.66.6c.36.15,1.64.53,1.72,1l.05-.39.49.26a.5.5,0,0,0-1,0c0,1.21,2.1.54,1.23-.58a4.71,4.71,0,0,0-1.93-1.08,19.07,19.07,0,0,0-2.57-.9,20.4,20.4,0,0,0-10.66,0l.27,1,.35-.12c.6-.2.34-1.17-.27-1Z"/><path d="M63,681.52a11.49,11.49,0,0,1,13.19,1.28c.48.43,1.19-.28.71-.71a12.55,12.55,0,0,0-14.41-1.44.5.5,0,0,0,.51.87Z"/><path d="M61.64,675.29a18.84,18.84,0,0,1,14,.36c.59.25,1.1-.61.51-.87a19.89,19.89,0,0,0-14.82-.45c-.6.22-.34,1.19.27,1Z"/><path d="M61.2,669.7c3.63-3,8.94-1.06,12.76.47.6.24.86-.72.27-1C70,667.5,64.47,665.74,60.5,669c-.5.41.21,1.11.7.7Z"/><path d="M58.4,661.46a12.38,12.38,0,0,1,13.11,1.4c.5.4,1.21-.3.71-.71a13.43,13.43,0,0,0-14.33-1.55c-.57.29-.06,1.15.51.86Z"/><path d="M81,692.55A16.63,16.63,0,0,1,92.36,682a.5.5,0,0,0-.27-1A17.66,17.66,0,0,0,80,692.28c-.21.61.75.87,1,.27Z"/><path d="M78.18,686.64a14.09,14.09,0,0,1,12.95-11.72c.64,0,.64-1,0-1a15.08,15.08,0,0,0-13.91,12.46c-.09.62.87.9,1,.26Z"/><path d="M76.9,677.36c-.62-1.26.85-2.69,1.67-3.49a12.7,12.7,0,0,1,3.05-2.19,13.21,13.21,0,0,1,7.3-1.41c.64.06.64-.94,0-1a14.12,14.12,0,0,0-8.47,1.92,13.59,13.59,0,0,0-3.31,2.73c-1,1.09-1.81,2.51-1.1,4,.28.57,1.15.07.86-.51Z"/><path d="M75.31,669.68a17.42,17.42,0,0,1,12.61-10.39c.63-.13.36-1.09-.27-1a18.47,18.47,0,0,0-13.31,11.1c-.24.59.73.85,1,.26Z"/><path d="M73.5,658.43a19.79,19.79,0,0,1,11.71-6.67c.64-.1.37-1.07-.26-1a20.7,20.7,0,0,0-12.16,6.92c-.42.49.29,1.2.71.71Z"/><path d="M177.93,729.4q4.37,4.15,9,8c.5.4,1.21-.3.71-.71q-4.65-3.84-9-8c-.46-.45-1.17.26-.7.7Z"/><path d="M183.24,728.47l7.11,8.76c.41.5,1.11-.21.71-.71L184,727.76c-.41-.5-1.11.21-.71.71Z"/><path d="M187.58,725.59a41.81,41.81,0,0,0,7.21,10.5c.44.47,1.14-.24.7-.71a40.94,40.94,0,0,1-7-10.29c-.28-.58-1.14-.08-.87.5Z"/><path d="M194.1,723.43l6,11.52c.3.57,1.16.07.87-.5l-6-11.52c-.3-.57-1.16-.07-.86.5Z"/><path d="M199.28,721.12a93.23,93.23,0,0,1,4.51,11.52c.19.61,1.16.35,1-.26a95.65,95.65,0,0,0-4.6-11.77c-.28-.58-1.14-.07-.87.51Z"/><path d="M204.07,718.34l1.68,9.84c.1.64,1.07.37,1-.26L205,718.07c-.11-.63-1.07-.36-1,.27Z"/><path d="M208.89,716.71a40.59,40.59,0,0,1,.53,9.72c0,.64,1,.64,1,0a41.2,41.2,0,0,0-.57-10c-.11-.64-1.08-.37-1,.26Z"/><path d="M213.8,716.58l.54,8.76c0,.64,1,.64,1,0l-.54-8.76c0-.64-1-.65-1,0Z"/><path d="M220.89,711.65a65.27,65.27,0,0,1-2.16,11.26.5.5,0,0,0,1,.27l.55-1.54c.22-.61-.75-.87-1-.27l-.56,1.54,1,.27a67.4,67.4,0,0,0,2.19-11.53c.06-.64-.94-.64-1,0Z"/><path d="M226.4,708.23l-1.64,10.95c-.09.63.87.9,1,.27l1.64-11c.09-.63-.87-.9-1-.27Z"/><path d="M198.09,739.59a127.69,127.69,0,0,1-2.47,15.69c-.14.63.82.9,1,.27a130.47,130.47,0,0,0,2.51-16c.06-.65-.94-.64-1,0Z"/><path d="M202.59,737.45a38.41,38.41,0,0,1,.69,13.6c-.08.64.92.63,1,0a39.23,39.23,0,0,0-.72-13.87c-.15-.62-1.11-.36-1,.27Z"/><path d="M207.23,735.87l2.27,9.84c.15.63,1.11.36,1-.27l-2.27-9.83c-.15-.63-1.11-.36-1,.26Z"/><path d="M211.62,735.47l3.83,7.12c.3.57,1.16.06.86-.5L212.49,735c-.31-.56-1.17-.06-.87.51Z"/><path d="M218.25,733.25l4.45,6a.5.5,0,0,0,.86-.5l-4.45-6a.52.52,0,0,0-.68-.18.52.52,0,0,0-.18.69Z"/><path d="M222.13,731.19a29.9,29.9,0,0,1,4.39,5.86.5.5,0,0,0,.86-.51,31.55,31.55,0,0,0-4.54-6.06c-.45-.47-1.16.24-.71.71Z"/><path d="M226.07,726.34l9.8,5c.57.29,1.08-.57.5-.86l-9.79-5c-.57-.29-1.08.57-.51.86Z"/><path d="M233.32,725.82l3.29,1.09a.49.49,0,0,0,.61-.35.51.51,0,0,0-.35-.61l-3.28-1.09a.5.5,0,0,0-.62.34.52.52,0,0,0,.35.62Z"/><path d="M256.05,687l-3.1-7.22-.3.74a5.14,5.14,0,0,1,6.43,5.24l.24-.43a13.21,13.21,0,0,1-3.53,1.12c-.63.11-.36,1.07.27,1a14.29,14.29,0,0,0,1.93-.47c.29-.1.58-.2.87-.32a4.22,4.22,0,0,0,1-.43c.4-.28.3-1,.25-1.46a5.6,5.6,0,0,0-.33-1.4,6.59,6.59,0,0,0-4.15-3.79,5.33,5.33,0,0,0-3.21,0,.51.51,0,0,0-.3.74l3.1,7.21a.5.5,0,0,0,.86-.5Z"/><path d="M267.09,682l-3.74-6.54-.56.74c1.13.31,2-.49,2.95-.85a1.18,1.18,0,0,1,1.62.73c.69,1.42.65,3.41,2.22,4.25l-.23-.57a2.89,2.89,0,0,1-2.05,2,.5.5,0,0,0,.27,1,3.91,3.91,0,0,0,2.74-2.74.5.5,0,0,0-.23-.57c-1.08-.58-1.21-2.15-1.57-3.19a3.37,3.37,0,0,0-.94-1.57,2.09,2.09,0,0,0-2-.35,9,9,0,0,0-1.33.63,1.63,1.63,0,0,1-1.19.25.51.51,0,0,0-.56.74l3.74,6.53a.5.5,0,0,0,.86-.5Z"/><path d="M275.81,677.05a35.11,35.11,0,0,1-2.24-5.29l-.05.38a1.54,1.54,0,0,1,1.4-.66,2.29,2.29,0,0,1,1.67.79,4.91,4.91,0,0,1,1,2,3,3,0,0,1,.19.93.79.79,0,0,1-.07.37c0,.05,0,.05-.12.07-.63.13-.36,1.1.27,1,1.16-.25,1-1.72.71-2.56a5.55,5.55,0,0,0-1.72-2.83,3.17,3.17,0,0,0-2.89-.57,2.43,2.43,0,0,0-1.22.85,1,1,0,0,0-.17.3,1,1,0,0,0,.1.57l.35,1a35,35,0,0,0,1.9,4.24c.3.57,1.16.07.86-.5Z"/><path d="M287.79,669.48a31.66,31.66,0,0,1-3.29-5.62l-.08.61a2.89,2.89,0,0,1,4.24,3.89.51.51,0,0,0,0,.71.5.5,0,0,0,.7,0,4.08,4.08,0,0,0,.44-4.26,3.81,3.81,0,0,0-3.74-2,4,4,0,0,0-2.35,1,.5.5,0,0,0-.08.6,31.91,31.91,0,0,0,3.29,5.62.52.52,0,0,0,.69.18.51.51,0,0,0,.18-.68Z"/><path d="M298.36,663.28l-3.06-7.13-.43.75a4.37,4.37,0,0,0,3.43-1.2l-.61.08c.95.41,2.25.93,2.63,2,.21.61-.16,1.89-1,1.72-.63-.14-.9.83-.27,1,1.41.3,2.44-1.13,2.33-2.44-.14-1.65-1.84-2.51-3.18-3.09a.53.53,0,0,0-.61.07,3.37,3.37,0,0,1-2.72.91c-.42,0-.57.45-.43.75l3.06,7.13c.26.59,1.12.08.86-.5Z"/><path d="M308.34,658.67a27.31,27.31,0,0,1-3.66-5.19l-.43.75a7.25,7.25,0,0,0,3.92-1.71l-.6.08a6.15,6.15,0,0,1,2.27,2.6,5.47,5.47,0,0,1,.47,1.6c0,.18.06.52-.12.66.09-.07-.05,0-.06,0s0,0,0,0,.05.27.06.06c.05-.64-.95-.64-1,0-.06.82,1,1.18,1.6.8.79-.5.59-1.65.39-2.4a7,7,0,0,0-3.07-4.15.48.48,0,0,0-.6.08,6.14,6.14,0,0,1-3.22,1.41.5.5,0,0,0-.43.75,27.57,27.57,0,0,0,3.81,5.4c.43.48,1.14-.23.71-.71Z"/><path d="M318.73,653.76a34.28,34.28,0,0,1-3.81-5.57l-.18.69a2.84,2.84,0,0,1,3.44,0,2.87,2.87,0,0,1,.76,3.27.51.51,0,0,0,.35.62.5.5,0,0,0,.61-.35,3.73,3.73,0,0,0-5.66-4.43.52.52,0,0,0-.18.69,35,35,0,0,0,4,5.77.5.5,0,0,0,.7-.71Z"/><path d="M327.21,648.44a7.15,7.15,0,0,1-3.1-5l-.06.25a2.06,2.06,0,1,1,3.43,2.15c-.44.47.27,1.18.71.71a3.09,3.09,0,0,0-1.68-5.09,3.3,3.3,0,0,0-3,1.13,2.27,2.27,0,0,0-.42.72,2.56,2.56,0,0,0,.14,1,7.4,7.4,0,0,0,.63,1.76,8.1,8.1,0,0,0,2.81,3.17c.53.36,1-.51.5-.86Z"/><path d="M333.85,642.85l0,0-.09-.08-.14-.14-.14-.16c.05.06,0,0,0,0l-.05-.07a2.82,2.82,0,0,1-.21-.38c0-.09,0,0,0,0a.36.36,0,0,0,0-.09c0-.07,0-.14-.07-.22s0-.13,0-.2,0-.06,0-.09,0,.06,0,0a2.16,2.16,0,0,1,0-.44c0-.07,0-.14,0-.2s0,.06,0,0a.29.29,0,0,1,0-.09,2.23,2.23,0,0,1,.13-.44.5.5,0,0,0-.35-.61.51.51,0,0,0-.62.35,3.37,3.37,0,0,0,1.17,3.85.49.49,0,0,0,.68-.18.51.51,0,0,0-.17-.68Z"/><path d="M332.8,640a1.95,1.95,0,0,1,3.61,1.46c-.2.61.76.87,1,.27a3.07,3.07,0,0,0-.91-3.19,2.91,2.91,0,0,0-3.33-.29,3.07,3.07,0,0,0-1.31,1.49.5.5,0,0,0,.35.61.52.52,0,0,0,.62-.35Z"/><path d="M263.36,498.36a26.28,26.28,0,0,1,6.83,12,.5.5,0,0,0,1-.27,27.26,27.26,0,0,0-7.08-12.42.5.5,0,0,0-.71.71Z"/><path d="M265.43,499.57,275.24,510c.44.47,1.14-.23.7-.7l-9.8-10.45c-.44-.47-1.15.23-.71.7Z"/><path d="M242,519.08l2,3.75a.5.5,0,0,0,.92-.38,4.41,4.41,0,0,1,.32-3.09h-.87a3.78,3.78,0,0,1,.62,2.69.5.5,0,0,0,.31.46.53.53,0,0,0,.55-.1l2.65-2.06a.5.5,0,0,0,0-.71.52.52,0,0,0-.71,0l-2.65,2.06.85.35a4.71,4.71,0,0,0-.75-3.2.52.52,0,0,0-.87,0,5.61,5.61,0,0,0-.42,3.86l.91-.38-2-3.75c-.3-.57-1.17-.07-.86.5Z"/><path d="M190.82,536.21a58.66,58.66,0,0,1,4.66,18.22l.93-.25-.9-1.49a.5.5,0,0,0-.86.5l.9,1.5a.5.5,0,0,0,.93-.26,60.21,60.21,0,0,0-4.8-18.73c-.25-.59-1.11-.08-.86.51Z"/><path d="M194.16,535.09a62.38,62.38,0,0,1,5.17,15.25c.13.64,1.09.37,1-.26a63.35,63.35,0,0,0-5.28-15.5c-.28-.58-1.14-.07-.86.51Z"/><path d="M196.34,531.81A61.83,61.83,0,0,1,203,547.54a.5.5,0,0,0,1-.27,63.14,63.14,0,0,0-6.71-16,.5.5,0,0,0-.86.51Z"/><path d="M199.22,527.9a81.77,81.77,0,0,1,6.2,16.42.5.5,0,0,0,1-.26,81.93,81.93,0,0,0-6.3-16.66c-.29-.58-1.15-.07-.86.5Z"/><path d="M202,523.94l6.46,15.92c.24.59,1.2.33,1-.27l-6.45-15.92c-.24-.59-1.21-.33-1,.27Z"/><path d="M205.12,523.58a23,23,0,0,1,3.88,9.73c.09.63,1.06.36,1-.27a23.59,23.59,0,0,0-4-10c-.36-.53-1.23,0-.86.5Z"/><path d="M207.84,522l3.83,6.57a.5.5,0,0,0,.87-.51l-3.83-6.57a.5.5,0,0,0-.87.51Z"/><path d="M210.73,519.8a37,37,0,0,0,5.72,5.81.51.51,0,0,0,.71,0,.49.49,0,0,0,0-.7,37,37,0,0,1-5.72-5.81.5.5,0,0,0-.71,0,.5.5,0,0,0,0,.7Z"/><path d="M214,518.22a9.2,9.2,0,0,0,5.14,2.87.5.5,0,0,0,.26-1,8.35,8.35,0,0,1-4.7-2.61c-.43-.48-1.14.23-.7.71Z"/><path d="M215.94,516.72a.5.5,0,0,0,0-1,.5.5,0,0,0,0,1Z"/><path d="M150.18,528.46l11.37,2.72c.63.15.89-.81.27-1l-11.37-2.72c-.63-.15-.89.81-.27,1Z"/><path d="M153.94,523.29,167.52,528c.61.21.87-.76.27-1l-13.58-4.69c-.61-.21-.87.76-.27,1Z"/><path d="M165,522.21a10.69,10.69,0,0,1,4.68,1.55.5.5,0,0,0,.51-.87,12,12,0,0,0-5.19-1.68.5.5,0,1,0,0,1Z"/><path d="M169.85,517.71l6,2.15c.61.22.87-.75.26-1l-6-2.15c-.61-.22-.87.74-.27,1Z"/><path d="M176.8,514.5l2.73,1.65a.5.5,0,0,0,.68-.18.51.51,0,0,0-.17-.68l-2.74-1.65a.49.49,0,0,0-.68.18.5.5,0,0,0,.18.68Z"/><path d="M180.1,510.63l3.29,2.19a.5.5,0,1,0,.5-.86l-3.28-2.19a.5.5,0,1,0-.51.86Z"/><path d="M184.38,506.18l2.19,2.19a.52.52,0,0,0,.71,0,.51.51,0,0,0,0-.71l-2.19-2.19a.5.5,0,0,0-.71,0,.51.51,0,0,0,0,.71Z"/><path d="M186.47,502.8l1.09,1.65a.5.5,0,0,0,.68.18.5.5,0,0,0,.18-.68l-1.08-1.65a.52.52,0,0,0-.69-.18.5.5,0,0,0-.18.68Z"/><path d="M190,501.31l1.65,1.08a.49.49,0,0,0,.68-.18.5.5,0,0,0-.18-.68l-1.64-1.09a.51.51,0,0,0-.69.18.53.53,0,0,0,.18.69Z"/><path d="M194.35,497.47l1.65,1.09a.5.5,0,1,0,.5-.86l-1.65-1.09a.5.5,0,0,0-.68.18.51.51,0,0,0,.18.68Z"/><path d="M199.92,496.48l1.64.56a.5.5,0,1,0,.26-1l-1.64-.56a.49.49,0,0,0-.61.35.51.51,0,0,0,.35.61Z"/><path d="M204.85,494.29l.08,0c.09,0-.07,0,0,0l.16.08a2.29,2.29,0,0,1,.29.18c.09.06-.09-.07,0,0l.06.05a.69.69,0,0,1,.13.11c.08.08.15.17.23.26s-.06-.08,0,0l0,.06c0,.06.07.11.1.16s0,.09.07.14l0,.08c0,.09,0-.1,0,0a2.81,2.81,0,0,1,.1.31l0,.16v.05s0,0,0-.06a.17.17,0,0,0,0,.1.5.5,0,0,0,1,0,3.09,3.09,0,0,0-2-2.64.48.48,0,0,0-.61.35.5.5,0,0,0,.35.61Z"/><path d="M353.87,570.28a14.7,14.7,0,0,1,1.87-9.47l-.93-.26-.34,18.56h1a55.72,55.72,0,0,1,3.19-19.45l-1-.13a146.46,146.46,0,0,1,.05,25.39h1a61.46,61.46,0,0,1,4.15-24.74l-1-.14L361,586.93h1a56.72,56.72,0,0,1,4.58-27.21l-.93-.25-1.48,31.44h1c-.2-9.53-.3-19.82,5.12-28.1l-.91-.39a156.4,156.4,0,0,0-1.89,34.1.5.5,0,0,0,1,0,121.57,121.57,0,0,1,4.66-28.47l-1-.27a146.54,146.54,0,0,0-2.61,37.15.5.5,0,0,0,1,0q.88-8.77,1.48-17.58h-1a178.27,178.27,0,0,0,1.5,20.26c.09.63,1.07.65,1,0a38.47,38.47,0,0,1,1-13.64l-1-.13a98.07,98.07,0,0,0,2.19,18.39.51.51,0,0,0,1,0,27.88,27.88,0,0,0,.62-10.49l-1,.13,2,13.48c.09.6.93.37,1-.14l1-9.12-1,.14a103.7,103.7,0,0,0,4,16.74c.16.51,1,.46,1-.13l-.83-9.84a.5.5,0,0,0-1,0A25.79,25.79,0,0,0,387,628.85a.52.52,0,0,0,.92-.12,13.8,13.8,0,0,0,.38-9.1l-1,.26,4.71,13.52a.5.5,0,0,0,1-.27l-1.23-8.57-.92.39a28.1,28.1,0,0,1,2.51,8.65.5.5,0,0,0,1,0l.09-6.87-.93.25,2.65,3.52a.5.5,0,0,0,.91-.12l1.11-2.74-.61.35a2.73,2.73,0,0,1,1.9,2,.51.51,0,0,0,1,0l.54-2-.49.36a16.47,16.47,0,0,0,7.1-2c.57-.31.06-1.17-.5-.87a15.14,15.14,0,0,1-6.6,1.82.54.54,0,0,0-.48.37l-.54,2h1a3.76,3.76,0,0,0-2.61-2.71.5.5,0,0,0-.61.35l-1.11,2.75.91-.12-2.64-3.52a.51.51,0,0,0-.94.25l-.09,6.87h1a29.65,29.65,0,0,0-2.65-9.16c-.26-.56-1-.12-.91.39l1.23,8.57,1-.27-4.71-13.51c-.21-.61-1.15-.36-1,.26a12.87,12.87,0,0,1-.38,8.57l.92-.12A24.81,24.81,0,0,1,383.49,613h-1l.83,9.84,1-.14a104.23,104.23,0,0,1-4-16.74c-.09-.6-.93-.38-1,.13l-1,9.12,1-.13-2-13.47c-.08-.55-1.05-.43-1,.13a27.12,27.12,0,0,1-.59,10.23h1a97.06,97.06,0,0,1-2.16-18.13.5.5,0,0,0-1-.14,39.28,39.28,0,0,0-1,13.91h1a178.27,178.27,0,0,1-1.5-20.26.5.5,0,0,0-1,0q-.59,8.8-1.48,17.58h1a145.33,145.33,0,0,1,2.58-36.88.5.5,0,0,0-1-.27,122.81,122.81,0,0,0-4.69,28.74h1a155.79,155.79,0,0,1,1.85-33.83.5.5,0,0,0-.91-.39c-5.52,8.44-5.46,18.91-5.26,28.61a.5.5,0,0,0,1,0l1.48-31.44c0-.48-.73-.72-.94-.26A57.75,57.75,0,0,0,361,586.93a.5.5,0,0,0,1,0L362.9,560c0-.6-.79-.62-1-.13a62.44,62.44,0,0,0-4.18,25,.5.5,0,0,0,1,0,146.46,146.46,0,0,0-.05-25.39.5.5,0,0,0-1-.13,56.5,56.5,0,0,0-3.23,19.71.5.5,0,0,0,1,0l.34-18.56a.5.5,0,0,0-.93-.25,15.79,15.79,0,0,0-2,10.24c.09.64,1,.37,1-.26Z"/><path d="M82.44,761c2.58.37,4.63-1.8,4.93-4.26.42-3.38-2.05-6.56-3.57-9.36a120.81,120.81,0,0,1-9.08-21.53c-.19-.61-1.16-.35-1,.27a122.93,122.93,0,0,0,7.08,17.71c1.4,2.83,3.07,5.53,4.47,8.36a7.41,7.41,0,0,1,1,5c-.4,1.58-1.82,3.12-3.57,2.87-.63-.09-.9.87-.27,1Z"/><path d="M73.27,725.77a150.79,150.79,0,0,1,19.33-9.11L113.54,708c.59-.24.33-1.21-.26-1L91.9,715.87a149.92,149.92,0,0,0-19.14,9,.5.5,0,0,0,.51.86Z"/><path d="M113.48,709.48q5.77,7.63,11.08,15.63,2.61,3.95,5.1,8c1.18,1.92,3.4,5.34,1.17,7.3a.5.5,0,0,0,.1.78c2.53,1.6,5-1,7.32-1.89s4,.52,5.65,2a60.6,60.6,0,0,1,4.48,4.59,59.16,59.16,0,0,1,4.15,5.31c1,1.45,1.84,3.21,3.17,4.41a4.24,4.24,0,0,0,4.27.84,65,65,0,0,0,6.5-2.64l15.22-6.34c.59-.24.33-1.21-.26-1l-12.92,5.38-6.46,2.69c-2.05.85-4.24,1.89-6-.05a58.15,58.15,0,0,1-3.41-4.92q-1.73-2.39-3.68-4.59a60.3,60.3,0,0,0-4.33-4.43c-1.22-1.12-2.57-2.37-4.28-2.6a6.88,6.88,0,0,0-4.17,1.21c-1.39.77-3.13,2.12-4.72,1.11l.1.78c1.79-1.57,1.28-4,.41-6a65.4,65.4,0,0,0-5.23-8.53q-5.86-9-12.38-17.61c-.39-.5-1.25,0-.86.51Z"/><path d="M105.7,794.13a1.64,1.64,0,0,0,1.91-.39c.43-.38.76-.88,1.23-1.22a3.15,3.15,0,0,1,2.5-.26,32.68,32.68,0,0,1,8.11,2.88,36.79,36.79,0,0,1,7.23,4.74,7.14,7.14,0,0,0,1.25,1.09c.42.2.7,0,.92.57s-.08,1.4-.73.92a.88.88,0,0,1,.11-1.44c.59-.26.08-1.12-.5-.87-1.46.64-1.08,3.15.46,3.43,1.75.32,2.19-2.05,1.19-3.09a2.24,2.24,0,0,0-.87-.44,8.67,8.67,0,0,1-1.56-1.24,38.31,38.31,0,0,0-3.83-2.76,37.29,37.29,0,0,0-8.6-4,12.38,12.38,0,0,0-4.79-.93,3,3,0,0,0-1.68.72c-.39.33-1.25,1.66-1.85,1.39s-1.09.6-.5.87Z"/><path d="M130,799.39a4.85,4.85,0,0,1,7.39-3,.5.5,0,0,0,.74-.29c.37-2.08.75-4.31,2.09-6s3.95-2.61,5.69-1.06a.5.5,0,0,0,.71,0,6.67,6.67,0,0,1,11.21,4.16c.07.63,1.07.64,1,0a7.59,7.59,0,0,0-12.92-4.86h.71a4.81,4.81,0,0,0-6.11.08c-2.28,1.72-2.87,4.78-3.35,7.42l.74-.3a5.85,5.85,0,0,0-8.87,3.56c-.11.62.85.89,1,.26Z"/><path d="M128.05,802.71c.56,3.79,5.48,6,8.72,4,.54-.34,0-1.2-.51-.86a5,5,0,0,1-7.24-3.41.5.5,0,1,0-1,.27Z"/><path d="M141.79,802.56c-1.16.67-3.31.28-3.54-1.28-.2-1.3,1.78-2.47,2.69-1.38l.35-.86c-1.27.08-.29-1.59.06-2a7.74,7.74,0,0,1,1.63-1.39c1.16-.75,2.6-1.22,3.84-.37a.51.51,0,0,0,.73-.57,2.21,2.21,0,1,1,4.22-.06.5.5,0,0,0,1,.27,3.21,3.21,0,1,0-6.14.06l.73-.56c-1.91-1.31-4.25-.24-5.83,1.09a4.56,4.56,0,0,0-1.82,2.64,1.63,1.63,0,0,0,1.62,1.87.5.5,0,0,0,.35-.85c-1.44-1.72-4.43-.14-4.41,1.92,0,2.47,3.23,3.37,5.07,2.31.56-.31,0-1.18-.51-.86Z"/><path d="M157.91,796.45a.5.5,0,0,0,0-1,.5.5,0,0,0,0,1Z"/><path d="M172.25,785.66c-3.3,3.31-8.65,1.33-9.93-2.87s1.52-8.36,5.45-9.9l-.38-.91c-1.66,1-3.08-.91-2.95-2.45a6.57,6.57,0,0,1,2.19-3.91,9.09,9.09,0,0,1,7.56-2.36v-1a1.66,1.66,0,0,1-2.06-1.57,3.08,3.08,0,0,1,.89-2.08,7.18,7.18,0,0,1,3.39-2c1.78-.52,8-.66,7.25,2.52-.15.62.81.89,1,.26.53-2.25-1.35-3.3-3.24-3.8a9.65,9.65,0,0,0-6.4.49c-1.72.76-3.67,2.25-3.84,4.29a2.68,2.68,0,0,0,3.32,2.89c.42-.14.52-.88,0-1a10.06,10.06,0,0,0-10,4.39c-.94,1.48-1.53,3.6-.46,5.17a2.92,2.92,0,0,0,3.89,1c.46-.28.16-1.12-.38-.91-4.68,1.82-7.9,6.84-5.92,11.8,1.81,4.52,7.78,6.23,11.37,2.64.46-.45-.25-1.16-.71-.71Z"/><path d="M178.3,783.16a4.23,4.23,0,0,1-5.52-2.53c-.81-2.62,1.76-5.25,4.34-5l-.48-.63c-.1.29-.47.32-.72.24a1,1,0,0,1-.62-.84,4.31,4.31,0,0,1,.18-1.85,7.11,7.11,0,0,1,1.66-3.15c1.56-1.63,4.35-2.11,6-.32.44.47,1.15-.24.71-.71a4.79,4.79,0,0,0-4.46-1.33,6,6,0,0,0-4,3.06c-.78,1.36-1.62,3.61-.86,5.13.61,1.23,2.57,1.5,3.07,0a.5.5,0,0,0-.48-.63c-3.23-.28-6.28,3.09-5.31,6.3a5.24,5.24,0,0,0,7,3.12c.58-.27.08-1.13-.51-.86Z"/><path d="M194.43,768.23c-1.46.75-3-1.11-2.78-2.51.32-1.71,2.22-2.65,3.81-2.75a.5.5,0,0,0,.48-.36,3.73,3.73,0,0,1,6-1.38c.44.47,1.15-.23.71-.7a4.73,4.73,0,0,0-7.67,1.81l.48-.37c-2.18.14-4.78,1.59-4.84,4-.05,2.12,2.28,4.13,4.31,3.08.57-.3.07-1.16-.5-.86Z"/><path d="M217.64,756.86a3.67,3.67,0,1,1,2.92-6.73c.57.27,1.07-.53.5-.86a2.48,2.48,0,0,1-1-2.84,5.32,5.32,0,0,1,2.19-2.82c.84-.63,1.74-1.19,2.56-1.84,1-.82,1.94-1.77,3-2.55a6,6,0,0,1,3.43-1.37c1.46,0,2.32.89,3.36,1.78,1.21,1,2.94,1.76,4.3.55.48-.42-.23-1.13-.71-.7-1.37,1.21-3-.75-4-1.54a4.52,4.52,0,0,0-3-1.09c-2.63,0-4.53,2-6.38,3.59s-4.55,2.7-5.52,5a3.64,3.64,0,0,0,1.19,4.65l.5-.86a4.67,4.67,0,1,0-3.69,8.55c.6.24.86-.73.27-1Z"/></g></g></svg>