<svg xmlns="http://www.w3.org/2000/svg" viewBox="0 0 450.01 554.51"><g id="Layer_2" data-name="Layer 2"><g id="Layer_7_130" data-name="Layer 7,130"><path d="M6.05,107.9c8.32-1.41,16.55-5.44,24.47-8.34,8.1-3,16.32-5.57,24.41-8.6,16.17-6,32.57-11.4,48.72-17.52q49-18.57,97.85-37.3L256.44,15c8.9-3.43,5.07-17.91-4-14.46-32.63,12.4-65.29,24.73-97.85,37.33q-24.65,9.54-49.35,19C89.06,63,73.22,70,57.07,76.33,47.74,80,38.48,83.67,29.32,87.71,20.51,91.6,10.5,94,2.34,99.12c-4.8,3-1.55,9.67,3.71,8.78Z"/><path d="M1.77,104.1c1.8,7.67,5.33,14.84,8.37,22.09,3.13,7.47,6.38,14.88,9.61,22.3,6.34,14.57,12.81,29.08,19.25,43.6,13,29.33,26.27,58.55,39.47,87.79,25.76,57.05,51.29,114.28,75.73,171.91,13.59,32,27.36,64.34,38.35,97.38,3.2,9.61,18.71,5,15-4.14-11.79-29.41-23-59-35.32-88.21-12.07-28.57-24.42-57.07-37.35-85.26C108.59,314.15,82.5,256.62,56.08,199.24c-7.46-16.2-14.85-32.45-22.4-48.61-3.92-8.37-7.79-16.77-11.8-25.1s-7.51-17-12.82-24.5C6.5,97.43.7,99.52,1.77,104.1Z"/><path d="M204,552.32c19.1-6,37.45-14.66,56.14-21.85s37.76-14,56.84-20.38c38.08-12.82,76.87-24.64,116.21-32.95,9.75-2.06,5.63-17.59-4.14-15-30.46,8-60.88,15.85-90.93,25.32-30.32,9.55-60.22,20.4-89.7,32.32-16.48,6.67-33.46,13.15-48.8,22.19-5.44,3.2-1.89,12.36,4.38,10.38Z"/><path d="M252.94,11.9c7.44,34.88,20.45,68.29,34.58,101a846.63,846.63,0,0,0,48.62,95.26c10.29,17.39,21.33,34.34,32.86,50.93,5.47,7.88,18.47.39,12.95-7.57a898.07,898.07,0,0,1-99.4-185.91C275.29,47,268.29,28.26,260.85,9.72c-1.93-4.82-9-3.09-7.91,2.18Z"/><path d="M449.85,462.71c1-8.46-3.18-18-5.65-26-2.7-8.72-5.5-17.4-8.14-26.14-5.29-17.47-11.14-34.75-17-52s-11.92-34.5-17.83-51.77-11.16-35-18.48-51.73c-3.82-8.71-18.14-2.51-15.32,6.46,5.46,17.36,13.09,34.21,19.53,51.23s12.54,34.32,18.55,51.57,11.86,34.56,18,51.77c3.07,8.61,5.86,17.31,8.77,26,2.64,7.84,4.72,17.37,10.41,23.63,2.73,3,6.79.33,7.2-3Z"/><path d="M133.69,285.71a223.78,223.78,0,0,1-22.15-48.88q-2.31-7.34-4.12-14.83l-1.92,2.54a133.65,133.65,0,0,0,49.66-6,140.15,140.15,0,0,0,13.29-5.05,2,2,0,0,0,.72-2.74,2.05,2.05,0,0,0-2.74-.71,129.2,129.2,0,0,1-47,10.7,131.92,131.92,0,0,1-13.92-.24,2,2,0,0,0-1.93,2.53,228.2,228.2,0,0,0,19.13,51.24q3.54,6.84,7.53,13.42c1.34,2.2,4.8.19,3.46-2Z"/><path d="M119.39,218.35a22.37,22.37,0,0,1-.66-19c1.42-3.22,3.87-5.85,5.22-9.1a16.63,16.63,0,0,0,.25-10.88,85.37,85.37,0,0,0-4.32-10.87L117.55,163l-1.17-2.7a9.65,9.65,0,0,1-1.11-2.85c0-.71.62-.88,1.36-1.17a13.48,13.48,0,0,0,3-1.45c1.2-.88,2.21-2.4,1.5-3.9-.82-1.74-1.77-3.4-2.49-5.19a51,51,0,0,1-3-10.78c-.41-2.5-1.32-6.12,1.36-7.61a6.55,6.55,0,0,1,6.1.16c2.54,1.44,4,4.37,5,7,1.31,3.5,2.27,7.15,3.35,10.72L135,156.74l7.23,23.89c1.09,3.62,2,7.74,4.84,10.44s6.66,3.24,9.83,5.17a20.59,20.59,0,0,1,9.74,16.35c.12,2.56,4.12,2.58,4,0a24.61,24.61,0,0,0-13.32-20.68c-2-1-4.27-1.61-6.22-2.78a8.88,8.88,0,0,1-3.58-4.94c-1.84-5.2-3.24-10.58-4.83-15.85-3.26-10.76-6.39-21.57-9.78-32.29-1.33-4.2-3.08-8.5-6.69-11.25a10.61,10.61,0,0,0-10.55-1.17,7.39,7.39,0,0,0-4,4.32c-.92,2.65-.22,5.88.25,8.56A53.23,53.23,0,0,0,117.72,153l-.2-1.54c-.07.18-.51.42-.94.62-.85.38-1.76.64-2.59,1.07a4.71,4.71,0,0,0-2.58,5.41,22.26,22.26,0,0,0,1.52,3.81l1.84,4.28c1.19,2.76,2.4,5.52,3.58,8.28,2,4.78,4,10.14,1.29,15-1.24,2.26-2.88,4.27-4,6.59a25.43,25.43,0,0,0-2.29,7,26.7,26.7,0,0,0,2.61,16.82c1.19,2.29,4.65.27,3.45-2Z"/><path d="M130.88,291.19l35.37-7a2,2,0,0,0,1.19-2.94,265.17,265.17,0,0,1-19.29-48.61q-2.07-7.22-3.72-14.55c-.57-2.51-4.43-1.44-3.86,1.07a269.85,269.85,0,0,0,16.8,50.37q3.12,7,6.62,13.74l1.2-2.94-35.37,7c-2.53.5-1.46,4.35,1.06,3.85Z"/><path d="M124.86,312.81l10.76,22.58,2.66,5.59c.73,1.54,1.38,3.4,2.92,4.32,1.8,1.07,3.65.26,5.36-.55s3.15-1.6,4.72-2.41c3-1.57,6.18-3.15,9.6-3.69s6.63.81,9.91.08a6.5,6.5,0,0,0,4.92-6.89c-.14-3.45-1.82-6.62-3.13-9.73q-5.45-12.9-11.07-25.73a2,2,0,0,0-2.73-.72,2.05,2.05,0,0,0-.72,2.73q4.53,10.37,9,20.76c1.37,3.22,2.95,6.44,4,9.76.58,1.73,1.49,4.95-.83,5.82a8.06,8.06,0,0,1-3.72.06,23,23,0,0,0-4.76-.25,27.42,27.42,0,0,0-9.26,2.74c-2.94,1.36-5.72,3.14-8.72,4.37-.62.25-.53.3-.87-.26-.46-.77-.79-1.63-1.18-2.43l-2.45-5.14-11-23c-1.11-2.32-4.56-.29-3.45,2Z"/><path d="M127.13,313.62l34.82-14a2.07,2.07,0,0,0,1.39-2.46,2,2,0,0,0-2.46-1.4l-34.81,14a2.07,2.07,0,0,0-1.4,2.46,2,2,0,0,0,2.46,1.4Z"/><path d="M199.12,420.73a316.7,316.7,0,0,1-27-62.47c-.25-.78-1-2.1-.28-2.77.86-.83,2.58-1.24,3.65-1.71l8.41-3.68,16.59-7.27,4.09-1.79a4.85,4.85,0,0,0,.91-.4c.39-.33.43-.11,0-.49a7.8,7.8,0,0,1,1,2.22l3.64,8.43,7.17,16.65,8.06,18.71,4,9.35,2,4.56,1.08,2.51c.11.26.22.51.31.77a4,4,0,0,1,.17.59c.66-.8,1.23-.93,1.72-.38l.28,1v-.19l-.28,1,.09-.21a2,2,0,0,0-.71-2.73,2,2,0,0,0-2.74.71,2.61,2.61,0,0,0,.84,3.47,3.08,3.08,0,0,0,3.75-.18c2.52-2.32-.22-6.46-1.26-8.85l-8.25-19.16-16.51-38.32c-.56-1.28-1-2.7-2.34-3.38-1.68-.87-3.43.17-5,.84L193,341.77l-19.1,8.36c-2.67,1.17-6.19,2.19-6.38,5.66a13.26,13.26,0,0,0,1,4.42q.76,2.44,1.57,4.87,3.06,9.26,6.69,18.31a322.66,322.66,0,0,0,18.92,39.36c1.27,2.23,4.72.22,3.45-2Z"/><path d="M196.32,423.78c7.09.26,13-4.66,19.07-7.69a88.31,88.31,0,0,1,20.2-7.15c2.51-.56,1.45-4.42-1.06-3.86a92.66,92.66,0,0,0-19.94,7c-3.08,1.49-6,3.25-9,4.9s-5.91,3-9.27,2.84c-2.58-.1-2.57,3.9,0,4Z"/><path d="M199.71,320.22a207.29,207.29,0,0,1-24.61-49.73c-.34-1-.72-2.06-1-3.11-.21-.8-.41-1.52.4-1.95a18.52,18.52,0,0,1,2.74-1l3.79-1.26,14.69-4.88,29.13-9.69,32.92-10.94-2.46-1.4,18.07,47.05L276,290.1c.42,1.09.84,2.17,1.25,3.26a8.4,8.4,0,0,1,.38,1.17c.18.81-.22,0,.52-.13h1.06c.7.13.74,1,.45,1.51l-.72.72.1-.07-1,.27-.21-.05c2.51.52,3.59-3.33,1.06-3.86a2.47,2.47,0,0,0-2.68,3.73,2.73,2.73,0,0,0,4.47.79c1.73-1.82.76-4.3,0-6.3l-2.86-7.46-11.9-31-6.7-17.46a2,2,0,0,0-2.46-1.4L195.6,254.16l-15.16,5c-2.38.79-4.84,1.47-7.16,2.42a4.91,4.91,0,0,0-3.33,5.12,29,29,0,0,0,2,6.73q1.18,3.42,2.48,6.78,2.66,6.87,5.77,13.55a210.48,210.48,0,0,0,16.1,28.43c1.43,2.13,4.9.13,3.46-2Z"/><path d="M199.19,318.73c-.23,2.46,2.54,3.18,4.43,2.62a17.19,17.19,0,0,0,3-1.61c1.17-.65,2.38-1.24,3.61-1.78,4.87-2.16,10-3.67,15.08-5.36l32.7-11,18.36-6.16c2.42-.82,1.38-4.68-1.07-3.86-20,6.73-40.16,13.27-60.13,20.2-2.56.89-5.1,1.85-7.57,3-1.22.56-2.42,1.16-3.59,1.83a12.91,12.91,0,0,1-1.34.84c-.09,0-.23,0-.29.11h-.27c.38.17.45.17.19,0l.72.72.15.44a2,2,0,0,0-2-2,2,2,0,0,0-2,2Z"/><path d="M216.65,529.83q-13.26-34.71-28.88-68.46-4.43-9.56-9-19c-1.13-2.32-4.58-.29-3.46,2q16.1,33.06,29.9,67.16,3.9,9.65,7.61,19.37a2,2,0,0,0,2.46,1.39,2,2,0,0,0,1.4-2.46Z"/><path d="M174.75,444.3q18.08-6.8,36-14.1,9.06-3.7,18.08-7.53,4.39-1.86,8.77-3.75l4.26-1.85,2.24-1a11.55,11.55,0,0,0,2.24-1c.34-.26.6.1.17-.31a4.22,4.22,0,0,1,.57,1l1.14,2.19,2.49,4.8,5.22,10.06c1.19,2.29,4.64.27,3.45-2l-4.76-9.18-2.27-4.37a46.67,46.67,0,0,0-2.39-4.54c-2.11-3.17-5.42-1.21-8.1,0q-4.59,2-9.2,4-18.63,8-37.5,15.45-10.68,4.23-21.44,8.28a2.06,2.06,0,0,0-1.4,2.46,2,2,0,0,0,2.46,1.39Z"/><path d="M215.91,458.88a114.57,114.57,0,0,0,22.25-8c3.51-1.64,7-3.4,10.4-5.22q2.63-1.39,5.22-2.82a56,56,0,0,0,4.91-2.74c1.61-1.11,2.92-2.85,2.41-4.91a3.55,3.55,0,0,0-4.32-2.73c-2.48.68-1.43,4.54,1.06,3.86-.61-.34-.82-.4-.61-.16,0,.15,0,.12,0-.07-.14.06-.4.45-.51.54a19.37,19.37,0,0,1-2.34,1.34c-1.74.95-3.47,1.9-5.21,2.83-3.69,2-7.4,3.93-11.17,5.75A113.05,113.05,0,0,1,214.85,455c-2.51.59-1.44,4.45,1.06,3.86Z"/><path d="M218.1,455.8c-2.07,4.23,2,8.21,6.18,8.1,2.52-.07,4.92-1.11,7.26-1.93l7.46-2.62c9.05-3.17,18.12-6.35,26.78-10.51q3.62-1.74,7.1-3.73c1.16-.67,2.31-1.36,3.43-2.08.57-.35,1.13-.72,1.69-1.09.37-.25.91-.8,1.34-.75l-1-.27c.36.17.57.83.78,1.2l1.2,2.16,2.29,4.11,4.7,8.43,1.19-2.94-1.57.62a2.06,2.06,0,0,0-1.39,2.46,2,2,0,0,0,2.46,1.39l1.56-.61a2,2,0,0,0,1.2-2.94l-4.58-8.21a87.59,87.59,0,0,0-4.41-7.87,3.27,3.27,0,0,0-3.29-1.5c-1.35.26-2.48,1.27-3.61,2-2.37,1.53-4.82,2.95-7.32,4.26-9.94,5.24-20.61,8.86-31.18,12.57-3.15,1.1-6.28,2.31-9.46,3.3-1.28.4-3,.94-4.29.24-.51-.28-1.38-1.1-1.05-1.77,1.13-2.3-2.32-4.33-3.46-2Z"/><path d="M231.82,486.83q21.93-11.46,44.59-21.47,6.49-2.87,13.06-5.61a2.06,2.06,0,0,0,1.39-2.46,2,2,0,0,0-2.46-1.39q-23.29,9.74-45.91,21-6.37,3.18-12.69,6.48c-2.28,1.19-.26,4.65,2,3.45Z"/><path d="M280.44,509.61a47.53,47.53,0,0,1,4.22-23.33,14.55,14.55,0,0,0,1.78-5.42,8,8,0,0,0-2.07-5.35c-2.65-3.36-5.54-6.56-8.31-9.82-1.66-2-4.48.87-2.83,2.83,2.65,3.11,5.37,6.18,7.95,9.36a4,4,0,0,1,1,4.09c-.56,1.8-1.55,3.48-2.25,5.23a50.76,50.76,0,0,0-3.5,22.41c.18,2.55,4.18,2.57,4,0Z"/><path d="M225.86,485.12c.12,4.17,4.22,6.83,8.14,6.54a17.79,17.79,0,0,0,6.3-2c2.13-1,4.25-2.06,6.42-3a119,119,0,0,1,13.43-4.88c3.81-1.14,8.49-1.79,11-5.27,2.13-3,1.15-8.47-2.91-9.21-2.51-.46-3.59,3.4-1.06,3.86,1,.19,1.23,1.31,1,2.28-.3,1.47-2,2.29-3.27,2.77-2.1.79-4.32,1.26-6.47,1.91s-4.4,1.41-6.58,2.21A143.06,143.06,0,0,0,238.68,486c-1.77.85-3.85,1.91-5.87,1.64-1.32-.17-2.91-1.08-2.95-2.54-.07-2.57-4.07-2.58-4,0Z"/><path d="M277.62,439.49c-6.92-.28-12.35-8.86-9.41-15.22a2.08,2.08,0,0,0-.72-2.74,15.24,15.24,0,0,1-5.83-9.66,14.79,14.79,0,0,1,2.56-11.2c2.43-3.49,6.1-6,9.77-8,4.08-2.27,8.77-4.68,13.53-4.78,4.12-.08,9.17,2.47,9.06,7.17a2,2,0,0,0,3,1.73,8,8,0,0,1,11.1,8.52,2,2,0,0,0,1.93,2.54,12.15,12.15,0,0,1,11.31,17.55c-.7,1.43.48,3.57,2.26,2.94s3.53.8,4,2.54c.67,2.42-.33,5.1-1.39,7.27a23.69,23.69,0,0,1-9.29,10,6.46,6.46,0,0,0-2.64,2,18.8,18.8,0,0,1-1.64,2.23,18.46,18.46,0,0,1-4.26,3.52,21.2,21.2,0,0,1-10.49,3,18.29,18.29,0,0,1-11.66-3.7,2.05,2.05,0,0,0-2.83,0,2,2,0,0,0,0,2.82c10.52,8.42,27.7,5.51,34.57-6.22l-.72.72a27.44,27.44,0,0,0,13.14-14c1.38-3.29,2.19-7.33.3-10.6-1.59-2.76-5-4.56-8.16-3.46l2.26,2.94a16.16,16.16,0,0,0-14.76-23.57l1.93,2.53a11.92,11.92,0,0,0-17-13.05l3,1.73c.12-5.21-4.13-9.4-8.94-10.7-5.79-1.57-11.8.9-16.93,3.42-9,4.44-18.25,11.93-17.2,23.08a19.53,19.53,0,0,0,8,14.14l-.72-2.73c-4.22,9.13,2.74,20.83,12.87,21.24,2.58.11,2.57-3.89,0-4Z"/><path d="M284.39,480.44c2.14-7.12,11.21-11.46,18.06-8.36a2,2,0,0,0,3-1.72c.08-4.41,5.07-6.26,8.73-6.61a40.62,40.62,0,0,1,7.06-.13c1.62.14,4,.87,4,2.86,0,1.84,2.91,2.91,3.72,1a11,11,0,0,1,10.37-6.78A10.81,10.81,0,0,1,348.8,468a2,2,0,0,0,3.66.48c2.25-3.21,7.46-1.81,9.82.47,3.82,3.69,3.84,10,3.87,14.88,0,2.58,4,2.58,4,0,0-6.47-.52-14.35-6.14-18.63-4.5-3.42-11.52-3.71-15,1.26l3.65.47a15,15,0,0,0-13-10.17,14.79,14.79,0,0,0-14.18,8.74l3.73,1a6.9,6.9,0,0,0-5.14-6.36c-3-1-6.77-.66-9.89-.37a16.23,16.23,0,0,0-8.8,3.09,9.85,9.85,0,0,0-3.93,7.52l3-1.73c-9.22-4.17-21,1-23.94,10.74-.74,2.47,3.12,3.53,3.86,1.07Z"/><path d="M321,370.63c-3.66.86-7.29-2-8.61-5.28-1.77-4.41-.21-9.47,1.86-13.47.86-1.66-1-3.93-2.73-2.74-2.63,1.78-5.36-1.22-5.79-3.7-.59-3.45.82-7.56,2.36-10.63,1.35-2.69,3.5-5.49,6.68-5.93,2.23-.31,5.11.49,5.87,2.85s4.59,1.42,3.85-1.07a4.2,4.2,0,0,1,2.43-4.72c2.29-1.15,5.18-.48,7.41.5,4.14,1.83,9.06,6.48,6.45,11.43a2,2,0,0,0,2.73,2.73c2.37-1.32,5.22-.2,7,1.64a15.33,15.33,0,0,1,3.42,7.74c.79,4.28.12,9.85-4.25,11.91a2,2,0,0,0,.48,3.65c1.23.26.28,1.95-.17,2.5a23.81,23.81,0,0,1-4,3.54,20.79,20.79,0,0,1-9.77,4.54,11.19,11.19,0,0,1-9.32-2.79c-2.5-2.32-4.51-4.91-7.77-6.21a2,2,0,0,0-2.46,1.4,2,2,0,0,0,1.4,2.46c2.74,1.09,4.48,3.94,6.68,5.79a14.83,14.83,0,0,0,9.68,3.46,20.88,20.88,0,0,0,10.14-2.9,31.41,31.41,0,0,0,8.33-6.61,6.43,6.43,0,0,0,1.71-5.33,4.56,4.56,0,0,0-3.43-3.7l.48,3.65c6.27-2.95,7.28-11,6-17.06-.8-3.67-2.47-7.52-5.47-9.91a9.65,9.65,0,0,0-10.66-1.22l2.74,2.74a10.82,10.82,0,0,0-.5-10.7,17.41,17.41,0,0,0-8.65-6.74c-3.45-1.35-7.73-1.7-10.92.49a8.08,8.08,0,0,0-3.52,8.79l3.85-1.07a8.48,8.48,0,0,0-6.87-5.66,11,11,0,0,0-9.42,2.91c-2.83,2.59-4.46,6.32-5.54,9.94-1.14,3.83-1.83,8.59.62,12.09,2.21,3.17,6.81,5,10.26,2.66l-2.74-2.74c-2.79,5.37-4.47,11.93-1.79,17.69,2.26,4.86,7.7,8.19,13.06,6.94,2.5-.59,1.44-4.45-1.07-3.86Z"/><path d="M284,355.79c-1.63,2.16-5.3,1.88-7.24.36-2.77-2.17-3.07-6.26-2.17-9.4.51-1.81-2-3.55-3.34-1.95a3,3,0,0,1-3.51.89,4,4,0,0,1-2.37-3.15c-.71-3.68,2.06-6.77,4.66-9a2,2,0,0,0,.52-1.94c-.59-3.3,3.38-5.76,6.26-5.48,3.68.37,6.46,3.49,8.09,6.56a2,2,0,0,0,3.73-1c-.08-1.46,2.14-1.92,3.34-1.38,2.31,1,3,4.42,3.61,6.6a2.06,2.06,0,0,0,2.47,1.39c.68-.11,1.28,1.24,1.47,1.7a8.88,8.88,0,0,1,.44,3.59,15.53,15.53,0,0,1-2.22,7.25A16.17,16.17,0,0,1,285.31,359l2,2-.17-3.2c-.12-2.56-4.13-2.57-4,0l.17,3.2a2,2,0,0,0,2,2A20.34,20.34,0,0,0,302,351.33a18.73,18.73,0,0,0,1.84-10.17c-.43-3.6-2.78-7.38-6.87-6.69l2.46,1.39c-1-3.73-2.69-8.61-7-9.56-3.51-.78-8.06,1.34-7.83,5.41l3.72-1c-2.4-4.54-7.09-8.9-12.58-8.56s-10.07,5-9.08,10.55l.52-1.95c-4.08,3.43-7.45,8.79-5.27,14.23a7.59,7.59,0,0,0,5.36,4.74,6.85,6.85,0,0,0,6.77-2.09l-3.34-1.95c-1.41,4.95-.33,10.92,4.11,14a9.31,9.31,0,0,0,12.61-1.86,2,2,0,0,0-.72-2.73,2,2,0,0,0-2.73.71Z"/><path d="M263.62,395.84c-3.82,1.39-8.38,1.57-12.07-.34a6.15,6.15,0,0,1-3.3-3.42c-.33-1.11-.24-2.74.77-3.5l-2.43-3.14c-1.73,1.58-4.43,1.31-6.31.12-2.35-1.48-3.07-4.53-2.61-7.13a11.58,11.58,0,0,1,5-7.35,20.57,20.57,0,0,1,4-2.15,6.81,6.81,0,0,1,1.65-.55,4.35,4.35,0,0,0,.71,0q.21,0,.09,0c-.14-.21-.28-.41-.43-.6-.09,2.18,2.65,2.45,3.73,1a7.68,7.68,0,0,1,13.13,1.85,2,2,0,0,0,3.34.88c3.42-2.89,8.59-1.29,11.31,1.72a14.43,14.43,0,0,1,3.06,6.07,12.44,12.44,0,0,1,.53,3.31,4.48,4.48,0,0,1-.26,1.3c-.16.53-.27.11.32.19a2.07,2.07,0,0,0-2.46,1.39,2,2,0,0,0,1.4,2.46c3.69.52,5.29-3.13,4.93-6.32a20.2,20.2,0,0,0-3.65-9.94c-4.19-5.58-12.35-7.8-18-3l3.35.89A11.58,11.58,0,0,0,249,366.84l3.72,1a3.31,3.31,0,0,0-2.72-3.32,7.3,7.3,0,0,0-4.55.62,20.83,20.83,0,0,0-9,6.39c-4.18,5.43-4.22,14.78,2.76,18a9.18,9.18,0,0,0,10.17-1.28c1.65-1.5-.59-4.53-2.42-3.14a7.09,7.09,0,0,0-2.88,6.37A9,9,0,0,0,248,398c4.63,3.44,11.45,3.63,16.72,1.72,2.4-.87,1.36-4.74-1.07-3.86Z"/><path d="M161.49,432.1c4.8,5,13.5,7.59,19.43,2.89,4.74-3.75,6.15-11.73,1.49-16.13L182,422a14.48,14.48,0,0,0-7.63-26.23l1.93,2.53c2.05-5.88,3.22-12.57.67-18.49-2.08-4.85-6.48-8.59-11.86-8.94l1.73,3a15.76,15.76,0,0,0-19.53-22.1l2.26,2.94a8.79,8.79,0,0,0-1.54-9.3,9.58,9.58,0,0,0-9.15-3.08c-8,1.36-11.36,9.7-11.31,17,0,2.57,4,2.58,4,0,0-5,1.63-11,7-12.75a6,6,0,0,1,6,1c1.32,1.22,2.34,3.39,1.59,5.17-.59,1.4.42,3.64,2.26,2.94a12.22,12.22,0,0,1,13.1,2.8,12.1,12.1,0,0,1,1.91,13.43,2,2,0,0,0,1.72,3c3.92.25,7.15,3.52,8.43,7.07,1.82,5,.6,10.45-1.1,15.3a2,2,0,0,0,1.93,2.53A10.5,10.5,0,0,1,180,418.55a2,2,0,0,0-.41,3.14c3,2.82,1.75,8.06-1.33,10.34-4.36,3.23-10.6.74-13.93-2.76-1.78-1.87-4.61,1-2.83,2.83Z"/><path d="M94,280.13c5.22,1.65,12.3,2,15.19-3.72a7.1,7.1,0,0,0-.47-7.2,13.63,13.63,0,0,0-6.34-4.64l.88,3.35a11,11,0,0,0-9.67-19.18l1.94,3.34a11.27,11.27,0,0,0-10.27-19.46l2,3.34a6.49,6.49,0,0,0,1-6.93,7.12,7.12,0,0,0-6.1-4.3c-6.42-.56-10.28,5.51-11.55,11-.58,2.51,3.28,3.58,3.86,1.06.78-3.36,2.48-7.49,6.4-8A3.48,3.48,0,0,1,84.24,230a2.7,2.7,0,0,1,.16,3.12,2,2,0,0,0,1.95,3.34,7.28,7.28,0,0,1,6.37,12.78c-1.62,1.39.15,3.73,2,3.35a7.29,7.29,0,0,1,7.93,3.91,7.39,7.39,0,0,1-2.15,8.58c-1.28,1.08-.36,2.83.88,3.34,2.43,1,6.11,3.58,4.09,6.57-2.31,3.41-7.07,2.3-10.33,1.27-2.46-.77-3.52,3.09-1.07,3.86Z"/><path d="M78.76,216.77c-4.08,3-10.62,2-13.26-2.49-2.49-4.26-.38-10.76,4.23-12.67L68.18,198c-1.43.66-2.9-1.1-3.4-2.22-.83-1.87,0-3.81,1.11-5.37a23.4,23.4,0,0,1,4.85-4.68c1.53-1.18,4-3,6-1.87,1.19.68,3.21-.15,3-1.72a6.69,6.69,0,0,1,4-7.16,6.62,6.62,0,0,1,7.62,2.53c1.1,1.63,2.78,2.57,4.71,1.62,1.57-.78,2.34-2.39,3.68-3.43,2.24-1.73,5.8-2.42,8.22-.62a5.5,5.5,0,0,1,1.17,7.62c-.93,1.22.34,3.06,1.73,3,3.42-.13-1.14,10.41-1.86,11.81a32.59,32.59,0,0,1-3.87,5.92c-.64.75-3.08,3.44-4.1,1.75a2,2,0,0,0-3.66.47c-2.09,5.94-10,8.75-15.46,5.67a2,2,0,0,0-3,1.72c.08-.61.11-.13,0-.11.23,0-.37.16-.33.14-.11.05-.44-.06-.31.11a2.06,2.06,0,0,0-2.74-.72,2,2,0,0,0-.72,2.74A4.54,4.54,0,0,0,82.89,213l-3,1.73c7.76,4.43,18.4.31,21.34-8.05l-3.66.48c1.85,3.05,5.8,3,8.4,1,2.8-2.12,4.9-5.58,6.49-8.66a34,34,0,0,0,3.49-10.12,7.48,7.48,0,0,0-.8-5.37,5,5,0,0,0-4.29-2.33l1.72,3c2.3-3,2-7.43,0-10.47A9.87,9.87,0,0,0,102,170.28a12.18,12.18,0,0,0-5.53,2.91,11.7,11.7,0,0,0-1,1c-.25.3-.87.77-1,1.12l-.09.07c-.22.13-.09.19.4.18h0q.2,0-.15-.27a4.83,4.83,0,0,0-1-1.35,10.31,10.31,0,0,0-17.92,8.13l3-1.73c-3.46-2-7.23-.26-10.12,1.94-2.64,2-5.42,4.32-7,7.31a8.64,8.64,0,0,0,.25,9.13c1.93,2.76,5.13,4.12,8.29,2.66,2-.93.56-4.52-1.54-3.65a13.45,13.45,0,0,0-8.16,13.56c.6,6,5.39,10.33,11.29,11.07a12.63,12.63,0,0,0,9-2.17,2.07,2.07,0,0,0,.72-2.74,2,2,0,0,0-2.74-.71Z"/><path d="M30.11,149.62c5.55,5.24,13.3,10.41,21.1,6.8C57.3,153.61,61,146.16,59,139.67c-.55-1.79-3.42-2-3.86,0-.87,4.05,2.64,7.31,6.57,7.18,3.64-.11,7.12-2.36,9.34-5.14A14.94,14.94,0,0,0,70,121.88l-1.94,3.35a7.83,7.83,0,0,0,8.38-2.48c2.26-2.63,2.83-6.16,2.81-9.52,0-5.08-1.89-11.94-7.71-13l.88,3.34c2.59-2.32,2.6-6.12,1.12-9-1.74-3.47-5.45-5-9.12-5.38a30.25,30.25,0,0,0-10.72.73c-3.29.88-6,2.72-7.31,6l3.86,1.06L51,94.78c.83-2.44-3-3.49-3.86-1.06l-.73,2.15a2,2,0,1,0,3.86,1.06c.75-2,3-2.8,4.84-3.26A28.56,28.56,0,0,1,62.8,93c2.4.09,5.32.59,6.8,2.7,1.06,1.5,1.47,3.69,0,5a2,2,0,0,0,.88,3.34c3.69.66,4.67,5.22,4.77,8.4a12.59,12.59,0,0,1-1.2,6.77,4.12,4.12,0,0,1-4.92,2.1c-1.94-.73-3.27,2-2,3.34A10.82,10.82,0,0,1,64,142.27a4.93,4.93,0,0,1-3.83.35A1.88,1.88,0,0,1,59,140.74H55.16c1.46,4.8-1.41,10.27-6,12.23-6,2.57-12.15-2.31-16.25-6.17-1.87-1.77-4.71,1-2.83,2.82Z"/><path d="M78.54,106.09a12,12,0,0,0,13.22,8.3c5.72-.92,10-6.78,9.54-12.48l-3.73,1c2,4.12,6.57,7.12,11.21,6.16a8.36,8.36,0,0,0,6.33-10.39c-.33-1.14-.79-1.79.1-2.67a9.63,9.63,0,0,0,2.13-2.83,13.08,13.08,0,0,0,.9-6.55c-.35-4.14-1.07-9-3.91-12.27-4.21-4.81-10.54-2.46-15.22.2-2.24,1.27-.23,4.72,2,3.45,2.83-1.6,7.22-4.07,10.06-1.18,2.13,2.16,2.58,5.89,2.95,8.76a13.05,13.05,0,0,1-.1,5.06c-.48,1.76-2,2.54-2.87,4.08a4.81,4.81,0,0,0-.41,3.12c.16,1,.65,1.9.75,2.88a4.18,4.18,0,0,1-1.72,3.55c-3.27,2.55-7.27-.27-8.75-3.39-.84-1.76-3.9-.94-3.73,1A7.63,7.63,0,0,1,82.39,105c-.74-2.46-4.6-1.41-3.85,1.07Z"/><path d="M31.56,134.21a9.29,9.29,0,0,0,7.16,7.32,8.88,8.88,0,0,0,9.47-4.42A9.23,9.23,0,0,0,49.26,131a2,2,0,0,0-2.46-1.4A2.06,2.06,0,0,0,45.4,132c-.07-.41,0,.22,0,.31s0,.44,0,.66c0,0-.1.62,0,.21,0,.18-.07.36-.12.55a6.51,6.51,0,0,1-.23.71c-.13.39.12-.18-.09.21s-.37.66-.58,1-.14.2,0,0c-.08.09-.16.19-.25.28a5,5,0,0,1-.39.41,5.14,5.14,0,0,1-.42.38c.28-.24-.13.09-.19.14s-.42.26-.64.38-.57.24-.21.1a6,6,0,0,1-1.17.33h.06l-.38,0h-.58s-.62-.09-.22,0c-.22,0-.43-.08-.65-.14l-.63-.21c.32.12-.16-.07-.23-.11a6.85,6.85,0,0,1-1.06-.65l0,0a3.47,3.47,0,0,1-.29-.25,5.18,5.18,0,0,1-.41-.4c-.13-.14-.26-.28-.38-.43.22.28-.15-.23-.19-.29a4.35,4.35,0,0,1-.75-2.1,2,2,0,0,0-2.46-1.4,2,2,0,0,0-1.39,2.46Z"/><path d="M79.48,95.53c-.16,3,3,4.89,5.69,4.69a7.85,7.85,0,0,0,4-1.58c.66-.47,1.29-1,1.93-1.48-.38.29.06,0,.11-.08s.25-.19.39-.28c.3-.21.62-.41.94-.59a2,2,0,0,0,.72-2.74,2,2,0,0,0-2.74-.71,11.55,11.55,0,0,0-1.46,1l-.92.7-.37.3-.18.14c.22-.17-.14.1-.18.13l-.39.28c-.22.15-.44.3-.66.43l-.42.24s-.45.22-.19.1-.1,0-.16.06-.23.07-.35.09-.44.08-.09,0,0,0-.1,0h-.37c-.09,0-.42-.08-.1,0s0,0-.09,0l-.36-.09L83.85,96c-.23-.07.4.21.1,0a2.91,2.91,0,0,1-.3-.17c-.07,0-.36-.22-.08,0s0,0,0-.06c-.23-.23,0-.17,0,.08a.88.88,0,0,0-.14-.23c-.13-.18.13.45.06.13s.05-.08,0,.11a2,2,0,0,0,0-.35,2,2,0,0,0-2-2,2,2,0,0,0-2,2Z"/><path d="M113.19,89.56a15.67,15.67,0,0,0,28.32-12.32,2,2,0,0,0-3.66-.48c-1.85,3.41,1.6,6.32,4.76,6.81a16,16,0,0,0,10-2.11A14.29,14.29,0,0,0,159,73.77a12.94,12.94,0,0,0,.71-4.93,13.16,13.16,0,0,0-.42-2.72c-.23-.82-.91-1.74-.84-2.57l-.27,1c.2-.47.77-.65,1.21-1a7.89,7.89,0,0,0,1.38-1.26,9,9,0,0,0,1.68-3,10.08,10.08,0,0,0-.37-7,7.92,7.92,0,0,0-5.56-4.75c-3.39-.66-6.81,2.38-5,5.81,1.2,2.28,4.65.26,3.45-2,.12.22-.11.17.13.1a1.78,1.78,0,0,1,.76,0,3.38,3.38,0,0,1,1.62,1,5.21,5.21,0,0,1,1.36,2.86,6,6,0,0,1-.34,3.17,5.12,5.12,0,0,1-2.19,2.32c-2,1.35-2.15,3.12-1.28,5.24a8.91,8.91,0,0,1,.61,4.73,10.23,10.23,0,0,1-5.75,7.58,12.79,12.79,0,0,1-5.3,1.31,4.88,4.88,0,0,1-2.42-.37c-.26-.13-.53-.46-.78-.55s0-.2-.11,0l-3.66-.48a11.66,11.66,0,0,1-21,9.24c-1.45-2.11-4.92-.11-3.46,2Z"/><path d="M170.88,179.57c-4,2.38-9.39.3-11.93-3.34-3.41-4.89-2.14-11.63.55-16.52a2,2,0,0,0-2.26-2.93c-5.81,1.51-10.62-5.05-10.36-10.32.33-6.59,5.91-11.74,11.2-14.9a2,2,0,0,0-1-3.73c-2.51,0-4.16-2.52-4.3-4.82-.2-3.3,2.25-6.25,4.44-8.42,2.36-2.33,5.2-4.71,8.57-5.27a6.14,6.14,0,0,1,6.74,3.14c.77,1.68,3.16,1,3.65-.48a10.32,10.32,0,0,1,10.33-6.89c4.55.34,8.24,4.17,9,8.54.36,2,3.36,1.79,3.86,0,1-3.79,3.08-7.65,6.73-9.49a7.54,7.54,0,0,1,9.23,1.69,2,2,0,0,0,3.34-.88,11.7,11.7,0,0,1,9.49-9.63c4.83-.82,9.51,2.32,11.55,6.58a10.52,10.52,0,0,1,.91,3c.22,1.61-.07,3.23.18,4.84.45,3,2.77,5.14,3.47,8,1.25,5.12-.74,10.73-3.92,14.76-4.16,5.25-10.09,8.66-15.79,12a2,2,0,0,0,0,3.45c1.18.75.22,2.53-.4,3.52-1.25,2-3.22,3.15-5.21,4.29a49.14,49.14,0,0,1-15.5,5.7,2,2,0,0,0-1.4,2.46c2.13,7.34-.79,15.85-7.37,19.94a18.45,18.45,0,0,1-11.14,2.64,16.66,16.66,0,0,1-5.47-1.36,3.15,3.15,0,0,0-3-.21,7.38,7.38,0,0,1-2.4.52c-3.4.15-7.12-1.75-8.41-5a2.07,2.07,0,0,0-2.46-1.4,2,2,0,0,0-1.39,2.46,12.65,12.65,0,0,0,16.93,6.79h-2a22.39,22.39,0,0,0,19.19.19,21.32,21.32,0,0,0,11.6-14.55,21.93,21.93,0,0,0-.25-11.06l-1.4,2.46a51.55,51.55,0,0,0,19-7.69c3.91-2.61,8.53-9.62,3-13.12V148c5.81-3.38,11.83-6.91,16.21-12.13,4.16-5,6.66-11.5,5.56-18a15.37,15.37,0,0,0-1.29-4.06c-.71-1.53-2-2.92-2.33-4.61s0-3.42-.23-5.12a14.54,14.54,0,0,0-1.34-4.14c-2.57-5.32-8.5-9.16-14.49-8.63-6.71.6-12.8,5.89-13.86,12.63l3.35-.88c-3.17-4-9-4.55-13.47-2.6-4.88,2.16-7.81,7.21-9.18,12.16h3.86a14.35,14.35,0,0,0-12.88-11.47c-6.3-.44-12.24,3.94-14.19,9.83l3.66-.48a9.51,9.51,0,0,0-7.54-5.1,14.19,14.19,0,0,0-10,3c-5.2,3.72-11.52,10.31-9.22,17.33,1.12,3.42,4.07,6.27,7.83,6.19l-1-3.72c-6.7,4-13.59,10.95-13.18,19.39.37,7.58,7.42,15.22,15.42,13.13L156,157.69c-3.46,6.32-4.77,15-.16,21.1,3.84,5.09,11.26,7.64,17,4.23,2.21-1.31.2-4.77-2-3.45Z"/><path d="M175.57,174.52a9.22,9.22,0,0,1-3.59-2.13,10.76,10.76,0,0,1-2.51-3.65s-.2-.52-.29-.81a11,11,0,0,1-.32-1.12,7.75,7.75,0,0,1-.26-2.08,8.85,8.85,0,0,1,.81-4.08,2,2,0,0,0-.71-2.73,2,2,0,0,0-2.74.72c-3.61,7.49.53,17.28,8.55,19.74,2.46.76,3.52-3.1,1.06-3.86Z"/><path d="M168.7,149a7,7,0,0,1-5.5-5.79,7.07,7.07,0,0,1,.69-3.8,6.9,6.9,0,0,1,3.11-3.14,2,2,0,1,0-2-3.45,10.74,10.74,0,0,0,2.66,20A2,2,0,1,0,168.7,149Z"/><path d="M231.83,125.19a24,24,0,0,0,.49-9.79c-.24-1.62-.54-3.85-2.43-4.33a2.39,2.39,0,0,0-2.85,1.66,2.25,2.25,0,0,0,1.53,2.81,2,2,0,0,0,2.46-1.39,2,2,0,0,0-1.39-2.46l-.09,0,.88.51-.05-.06.51.88q-2.25,2.87-2.9,1.22a2.33,2.33,0,0,1,.07.25c.06.24.12.49.17.73.09.42.17.85.23,1.27s0-.08,0,.32c0,.25.05.5.07.75,0,.47.06.93.06,1.4a21.49,21.49,0,0,1-.15,2.78c0-.32,0,.3,0,.32l-.12.64c-.09.49-.21,1-.34,1.46a2,2,0,1,0,3.86,1.06Z"/><path d="M228.91,143.76c-1,7.06,3.42,14.48,10.53,16.24a14.76,14.76,0,0,0,16.89-8.93l-3.66.47a15.43,15.43,0,0,0,16.18,5.85C275,155.85,279,150.22,279.39,144a14.51,14.51,0,0,0-2.75-9.58l-.72,2.74a13.52,13.52,0,0,0-4.1-25.5l.89,3.34c3.82-4.38,6.2-10.75,4.15-16.48-1.83-5.11-7.05-9.25-12.67-8.5l1.93,2.53a10.5,10.5,0,0,0-2.22-9.73,12.06,12.06,0,0,0-9.57-4.31c-8.51.11-14.48,7-18.13,13.92-1,1.84-2.76,4.43-1.59,6.53a2.81,2.81,0,0,0,5.11-.48c.81-2.45-3.05-3.5-3.86-1.06l-.07.21.52-.88.05-.08,1-.28c0,.08.07.09.11,0l.72.71c0,.3.07.28.14-.06.09-.19.18-.38.28-.56.21-.45.42-.88.65-1.32.38-.75.77-1.5,1.18-2.23a30,30,0,0,1,3-4.43,16.24,16.24,0,0,1,8.16-5.63c2.83-.76,6-.51,8.32,1.5a6.83,6.83,0,0,1,2.37,7.08A2,2,0,0,0,264.19,94a8.44,8.44,0,0,1,8.92,5.9c1.37,4.29-.38,9-3.23,12.25-.87,1-.74,3.12.88,3.35a9.55,9.55,0,0,1,3.14,18.18,2,2,0,0,0-.72,2.74c3.45,4.55,2.89,11.79-1.76,15.37s-12,2.34-15.29-2.31a2,2,0,0,0-3.66.48,10.27,10.27,0,0,1-19.7-5.18,2.07,2.07,0,0,0-1.4-2.46,2,2,0,0,0-2.46,1.4Z"/><path d="M296.85,313.92a5.69,5.69,0,0,1-8-1.88c-1.74-3.09,0-7.18,2.82-8.94l-2-3.45c-1.23.88-2.66-.24-3.24-1.45-.85-1.76.34-3.74,1.53-5,1.83-2,8.37-7.39,10.43-3.08,1,2.07,4.26.6,3.65-1.54-.07-.26.66-.62.88-.71a6.54,6.54,0,0,1,2.85-.34,10.46,10.46,0,0,1,5.49,1.9A10.23,10.23,0,0,1,315.08,300a2,2,0,0,0,1.4,2.46c2,.55,2.72,2.78,2.62,4.68-.14,2.68-2.27,4.8-4.22,6.4a43.2,43.2,0,0,1-3.58,2.57c-1.28.84-2.61,1.68-4.18,1.2a15.2,15.2,0,0,0-2.48-.69,10.39,10.39,0,0,0-2.78.14,4.85,4.85,0,0,1-2.07.13,1.79,1.79,0,0,1-.42-.3c-.53-.39.2-.23-.29.32,1.69-1.92-1.13-4.76-2.83-2.82-2.61,3,.5,6.76,3.89,6.83a24.73,24.73,0,0,0,3-.32,5.49,5.49,0,0,1,2.56.44,7.27,7.27,0,0,0,5.57-.31,25.71,25.71,0,0,0,4.52-2.86,27.07,27.07,0,0,0,3.92-3.33,11.26,11.26,0,0,0,3.39-8.63c-.32-3.3-2.19-6.4-5.53-7.3l1.4,2.46a14.12,14.12,0,0,0-15.82-17.45c-2.84.44-5.9,2.76-5,5.95l3.66-1.54c-1.54-3.24-5.61-4.11-8.79-3.06a19.55,19.55,0,0,0-9,6.59c-2,2.72-2.73,6.38-.69,9.29,1.81,2.59,5.45,4.23,8.29,2.21,2.07-1.46.21-4.83-2-3.45-4.68,2.91-7.09,9.4-4.25,14.41,2.56,4.52,9.17,6.4,13.51,3.31a2.06,2.06,0,0,0,.72-2.74,2,2,0,0,0-2.74-.71Z"/><path d="M311.22,246.37c-1.18,1.52-3.57,1.61-5.23,1a5.37,5.37,0,0,1-3.4-5.1c-.17-5.93,5.65-9.12,10.89-9.37l-1.73-3c.27-.58.9,0,1,0s.26-1.28.31-1.41a9.76,9.76,0,0,1,1.26-2.16,11.87,11.87,0,0,1,4.1-3.34,11.57,11.57,0,0,1,10.12-.36,2,2,0,0,0,2.73-.72,5.81,5.81,0,0,1,11.12,2.22c.11,2.57,4.11,2.58,4,0a9.8,9.8,0,0,0-18.57-4.24l2.73-.72a16,16,0,0,0-17,2.23,12.84,12.84,0,0,0-4.78,7.55,3.9,3.9,0,0,0,2.26,4.43,3.25,3.25,0,0,0,4.15-1.42c.58-1.29-.08-3.09-1.73-3a17.07,17.07,0,0,0-11.18,4.42,12.14,12.14,0,0,0-3.55,10.54,9.2,9.2,0,0,0,6.61,7.51,8.67,8.67,0,0,0,9.31-3,2,2,0,0,0-.72-2.73,2,2,0,0,0-2.73.72Z"/><path d="M312,249.14a15.36,15.36,0,0,0,23.19-10.78l-3.66.47a13.5,13.5,0,0,0,16.8,4.52c5.69-2.77,8.5-10.1,6.43-16-.84-2.41-4.7-1.37-3.85,1.07a9.06,9.06,0,0,1-15.92,8.4c-.86-1.24-3.38-1.38-3.66.48a11.85,11.85,0,0,1-5.95,8.75,11.61,11.61,0,0,1-11.36-.35c-2.22-1.32-4.24,2.14-2,3.45Z"/><path d="M283.23,210.81a18,18,0,0,1-6.42,3.25c-2.13.58-4.82,1.07-6.85,0-4.48-2.45-2.63-8.93-1.33-12.62a2,2,0,0,0-2.93-2.25,9.7,9.7,0,0,1-12.33-1.43c-3.1-3.42-2.78-9.23.31-12.52a2,2,0,0,0-2.83-2.83c-2.32,2.25-6.32,1-7.88-1.55-2-3.24-1.34-7.54.41-10.74a15.58,15.58,0,0,1,8.13-7.12c2.64-1,7.1-1.72,8.58,1.44a2,2,0,0,0,2.74.72c1.85-1.29,4.46-3.3,6.87-2.49,1.94.65,3,2.83,3.7,4.62a29.47,29.47,0,0,1,1,16.53,2,2,0,0,0,2.46,2.46c4.29-1.3,8.43,1.85,10.35,5.52,2.61,5,1.68,11.27,1,16.62a2,2,0,0,0,2,2c.75,0,1.14.81,1.2,1.49.09,1.16-.89,2.09-1.79,2.68a10,10,0,0,1-3.83,1.48c-.79.11-2.21.22-2.77-.52a2.07,2.07,0,0,0-2.74-.72,2,2,0,0,0-.72,2.74c3.25,4.26,9.82,2.55,13.37-.49a6.5,6.5,0,0,0,2.3-6.45,5.25,5.25,0,0,0-5-4.21l2,2c.76-6.45,1.51-13.8-2.14-19.58-3-4.72-8.68-8.12-14.32-6.42l2.46,2.46a32.47,32.47,0,0,0-1.78-20.47c-1.18-2.57-3.23-5-6.11-5.7-3.53-.8-6.78,1-9.58,3l2.74.72c-1.65-3.51-5.92-4.58-9.47-4.15a19,19,0,0,0-10.77,5.37c-5.47,5.39-8.56,16.38-1.44,21.85,3.44,2.64,8.59,2.87,11.81-.25l-2.83-2.83a13.24,13.24,0,0,0,16.86,20.23l-2.93-2.26c-1.16,3.26-2,6.67-1.45,10.15a10,10,0,0,0,4.61,7c2.8,1.6,6.29,1.33,9.31.61a22.73,22.73,0,0,0,8.81-4.44,2,2,0,0,0,0-2.83,2.05,2.05,0,0,0-2.83,0Z"/><path d="M235.55,145.67a8.29,8.29,0,0,0,9.18,5.22,8.15,8.15,0,0,0,4.6-2.68,8.45,8.45,0,0,0,1.35-2.18,4.9,4.9,0,0,1,.24-.52c.18-.34.18-.11,0-.09s-.61.23-1,.07a1.34,1.34,0,0,1-.51-1.8,2,2,0,0,0,.72,2.74,2,2,0,0,0,2.73-.72,2.55,2.55,0,0,0-.5-3.32,3,3,0,0,0-3.47-.43,4.55,4.55,0,0,0-1.78,2.31,5.82,5.82,0,0,1-.62,1.12c-.08.11-.08.11,0,0-.09.1-.17.2-.27.3a5.6,5.6,0,0,1-.43.41c-.39.36.23-.1-.23.17l-.51.31s-.55.26-.24.13a5.67,5.67,0,0,1-.66.22c-.08,0-.73.15-.35.1l-.6,0a5.72,5.72,0,0,1-.59,0c.38,0-.18-.05-.26-.07s-.38-.11-.57-.16-.25-.1-.07,0l-.27-.13c-.21-.11-.4-.24-.6-.36s.07.11-.24-.16a6.75,6.75,0,0,1-.83-.86c.2.27-.1-.19-.14-.25s-.36-.72-.23-.41a2.07,2.07,0,0,0-2.46-1.4,2,2,0,0,0-1.4,2.46Z"/><path d="M267.09,134.67a8.27,8.27,0,0,0,1.47-10.95,2.18,2.18,0,0,0-1.19-.92,2,2,0,0,0-2.26,2.94,8.31,8.31,0,0,1,.58,1c.16.31-.13-.35-.05-.12s.07.18.1.26a5.44,5.44,0,0,1,.15.54c.05.18.06.37.11.54,0-.13-.05-.48,0-.14a2.64,2.64,0,0,1,0,.28,5.23,5.23,0,0,1,0,.56c0,.21-.14.75,0,.14-.09.36-.14.73-.25,1.09l-.08.21c-.07.2-.22.33,0-.06a4.71,4.71,0,0,0-.22.45c-.09.16-.19.32-.29.47s-.12.15-.16.23c.18-.38.2-.25.07-.1a6.44,6.44,0,0,1-.85.8,2,2,0,0,0-.58,1.42,2,2,0,0,0,.58,1.41,2,2,0,0,0,1.42.59,2.34,2.34,0,0,0,1.41-.59Z"/><path d="M329.62,364.09c-.32.15.46-.16-.07,0l-.33.1-.34.08c-.55.12.32,0,0,0l-.75,0-.4,0c-.42,0,.48.1.07,0s-.53-.11-.79-.18l-.33-.11c-.07,0-.53-.22-.2-.06l-.19-.09-.32-.17a7.31,7.31,0,0,1-.7-.43c-.27-.19-.12-.14,0,0-.1-.11-.25-.2-.36-.3s-.35-.32-.51-.49l-.31-.36c-.24-.28.25.37,0,0s-.3-.45-.43-.69-.11-.2-.16-.31c-.16-.33,0-.13,0,.06a4,4,0,0,0-.24-.77c0-.13,0-.27-.08-.39l0,.24a1.79,1.79,0,0,0,0-.23,5.61,5.61,0,0,1,0-.82,2,2,0,0,0-2-2,2,2,0,0,0-2,2,8.92,8.92,0,0,0,12.39,8.24,2,2,0,0,0,.72-2.73,2.06,2.06,0,0,0-2.74-.72Z"/><path d="M356.11,349l43.43-12a2,2,0,0,0,.48-3.66,6.57,6.57,0,0,0-5.21-.95c-2.52.53-1.46,4.39,1.06,3.86a2.54,2.54,0,0,1,2.13.55l.48-3.66-43.43,12c-2.48.68-1.42,4.54,1.06,3.86Z"/><path d="M340.51,333a262.8,262.8,0,0,1-12.94-36.56,79.41,79.41,0,0,1-2.3-9.08,1.64,1.64,0,0,1,1.15-2.07,21.46,21.46,0,0,1,4-.95l20-4.11,22.41-4.62-1.06-3.85-4.24,1.35c-2.44.78-1.4,4.64,1.06,3.86l4.24-1.36a2,2,0,0,0-1.06-3.85l-42.38,8.73c-2.7.55-6,1-7.49,3.64a6.28,6.28,0,0,0-.43,4.29c.33,1.74.83,3.47,1.27,5.19q2.56,10,5.9,19.75,3.76,11,8.48,21.66a2,2,0,0,0,2.73.72,2.05,2.05,0,0,0,.72-2.74Z"/><path d="M305.63,287.83c3.87-1.54,7.75-3,11.59-4.63,1.57-.64,3-1.68,3-3.54s-1.26-3.66-1.95-5.23A144.3,144.3,0,0,1,310.54,252c-.47-1.8-.69-4.42-2.85-5a2.6,2.6,0,0,0-2.93,3.72,2,2,0,0,0,2.73.72,2.05,2.05,0,0,0,.72-2.74l-.09-.2.2,1.54v.08l-.72.71h-1.08c-.45-.52-.59-.54-.4-.08l.11.46c.12.45.23.91.34,1.37.24.91.48,1.82.73,2.73.5,1.81,1,3.62,1.6,5.41q1.71,5.38,3.83,10.63,1.06,2.64,2.23,5.24c.19.43.38.86.58,1.29s.34,1.13.59,1.28.05.35.28,0a3,3,0,0,1-.85.39c-3.64,1.5-7.32,2.92-11,4.39a2.07,2.07,0,0,0-1.4,2.46,2,2,0,0,0,2.46,1.39Z"/><path d="M315.69,405.38A152.16,152.16,0,0,1,304.09,383c-.23-.54-1.14-2-.87-2.61.17-.37,1-.53,1.27-.61,2-.55,4.1-.81,6.12-1.19L324.1,376c2.53-.47,1.46-4.33-1.06-3.86l-15.21,2.87c-2,.37-4.28.54-6.12,1.52a4.53,4.53,0,0,0-2.29,5.34,42.43,42.43,0,0,0,2.76,6.67c.95,2.12,1.94,4.21,3,6.29q3.24,6.42,7.07,12.53c1.36,2.18,4.82.17,3.45-2Z"/><path d="M309.49,401.28Q340.35,389,371.71,378q8.91-3.11,17.86-6.11a2,2,0,0,0,1.19-2.94c-2-3.87-4-7.76-6-11.62-1.59-3-4.44-6-8.07-4.34a2,2,0,0,0-.72,2.73,2.05,2.05,0,0,0,2.74.72,6.86,6.86,0,0,1,.68.32,5.08,5.08,0,0,1,1.05,1.12,33.13,33.13,0,0,1,2.23,4.1l4.67,9,1.19-2.94Q357,378.62,326,390.54q-8.81,3.39-17.58,6.89a2.06,2.06,0,0,0-1.39,2.46,2,2,0,0,0,2.46,1.39Z"/><path d="M347.35,365.33l34.71-10.6c2.45-.75,1.41-4.61-1.07-3.86l-34.7,10.6c-2.46.75-1.41,4.61,1.06,3.86Z"/><path d="M324.43,415.16a559.38,559.38,0,0,1,55.3-19q8.07-2.31,16.2-4.37a2,2,0,0,0,1.2-2.94l-9.95-19.89c-1.15-2.3-4.6-.28-3.45,2l9.94,19.89,1.2-2.94A559.24,559.24,0,0,0,339,405.25q-7.87,2.91-15.65,6.05a2.06,2.06,0,0,0-1.4,2.46,2,2,0,0,0,2.46,1.4Z"/><path d="M365,397.67q3.42,11.35,6.84,22.7a7,7,0,0,0,2.26,3.95c1.59,1.12,3.38.73,5.1.16,3.67-1.21,7.32-2.45,11-3.67l-2.53-1.93a147.67,147.67,0,0,0,3,21.14l2.94-2.26a69,69,0,0,1-16.09-14.45,2,2,0,0,0-2.83,0,2.06,2.06,0,0,0,0,2.83,72.52,72.52,0,0,0,16.9,15.08c1.55,1,3.3-.65,2.94-2.26a140.18,140.18,0,0,1-2.9-20.08,2,2,0,0,0-2.53-1.93l-9.61,3.21c-.75.25-1.49.54-2.25.75s-.78.29-1.09-.22a18.83,18.83,0,0,1-1.32-4.22l-6-19.86c-.74-2.46-4.61-1.41-3.86,1.06Z"/><path d="M324.36,443.69a368.09,368.09,0,0,1,49.53-14.6c2.51-.55,1.45-4.41-1.06-3.86a370.59,370.59,0,0,0-49.53,14.6c-2.39.89-1.36,4.76,1.06,3.86Z"/><path d="M353.32,458.39l57.82-17.6,16.42-5c2.46-.74,1.41-4.6-1.06-3.85l-57.83,17.59-16.42,5c-2.45.75-1.4,4.61,1.07,3.86Z"/><path d="M432.64,433.21a81.17,81.17,0,0,1-11.16-30.3c-.37-2.4-.36-5.07-2.16-6.93-1.5-1.54-3.61-2-5.64-2.34s-3.76-.81-4.94-2.67a36.06,36.06,0,0,1-2.86-6.88q-3.53-9.61-6.54-19.41l-1.4,2.46,7-2.18c2.45-.76,1.4-4.62-1.07-3.86l-7,2.18a2,2,0,0,0-1.4,2.46q2.72,8.75,5.79,17.35c1,2.65,1.86,5.34,3,7.92a10.5,10.5,0,0,0,4.4,5.29c1.9,1,4,1.08,6,1.62a3.46,3.46,0,0,1,1.86,1c.75,1,.71,2.62.86,3.78a82.6,82.6,0,0,0,3.8,15.81,85.69,85.69,0,0,0,8,16.75c1.35,2.18,4.81.18,3.45-2Z"/><path d="M68.25,131.38a111.51,111.51,0,0,1,11,25.34c1,3.47,1.5,9.72,6.44,9.47,2.29-.11,4.68-1.17,6.86-1.82l7.14-2.11,16.66-4.94c2.47-.73,1.42-4.59-1.06-3.86l-27.14,8c-.68.21-2.13.94-2.85.7-.47-.15-.65-.91-.78-1.34-.62-2-1.07-4.06-1.68-6.08a114.18,114.18,0,0,0-4.48-12.24,114.87,114.87,0,0,0-6.7-13.18c-1.31-2.21-4.77-.2-3.45,2Z"/><path d="M113.41,126.05l11.77-3.76c1.65-.53,3.71-.88,5.08-2,1.54-1.29,1.56-3.18,1-5a159.64,159.64,0,0,0-9-21.86,2,2,0,0,0-3.45,0l-1.68,2.76c-1.34,2.21,2.11,4.22,3.45,2l1.68-2.76h-3.45a171.78,171.78,0,0,1,7.86,18.67c.26.74.53,1.48.77,2.23a2.53,2.53,0,0,1,.25,1c.07-.4.15-.16-.28,0-1.56.47-3.1,1-4.66,1.5l-10.35,3.31c-2.44.78-1.4,4.65,1.06,3.86Z"/><path d="M107.89,154.48,96.3,123.13c-.88-2.39-4.75-1.35-3.85,1.07L104,155.54c.89,2.39,4.76,1.36,3.86-1.06Z"/><path d="M71.48,132.23a575.88,575.88,0,0,0,57-19.42,2.07,2.07,0,0,0,1.39-2.46,2,2,0,0,0-2.46-1.4,572.25,572.25,0,0,1-57,19.42c-2.47.7-1.42,4.56,1.06,3.86Z"/><path d="M189.69,105a137.62,137.62,0,0,1,15.85-6.67q4-1.4,8.13-2.55c1.33-.37,2.66-.72,4-1,.74-.18,1.49-.41,2.24-.54a3.5,3.5,0,0,1,.45-.07c.78,0,.1-.1.22.06l-.51-.89a1,1,0,0,1,.49-1.19c.25-.12.25-.15,0-.09h1.06l.21.11.71.72.1.16a2,2,0,0,0-2.46-1.4A2.05,2.05,0,0,0,218.8,94c.28,1.82,2.46,2.29,3.84,1.42a2.76,2.76,0,0,0,.58-4.37c-1.47-1.4-3.5-1-5.27-.56-2.09.49-4.17,1-6.23,1.63a142,142,0,0,0-24.05,9.37c-2.3,1.15-.28,4.6,2,3.45Z"/><path d="M190.71,101.78l-3.79-6.93L185,91.39a10.92,10.92,0,0,1-1.54-3.07v1.06c-.2.12-.22.12-.08,0l.3-.16c.3-.15.63-.27.95-.41a19.19,19.19,0,0,0,5.6-3.67,20.66,20.66,0,0,0,5.09-7.49h-3.86l6.46,18c.86,2.4,4.73,1.37,3.85-1.06l-6.45-18a2,2,0,0,0-3.86,0A16.25,16.25,0,0,1,187,82.71a16,16,0,0,1-3,2c-1.13.6-2.45.91-3.39,1.81-2.52,2.38.43,5.89,1.68,8.17l5,9.09c1.24,2.26,4.69.25,3.46-2Z"/><path d="M191.26,75.9l9.92,1.51,4.83.74c1.06.16,3,0,3.45,1.16a23.77,23.77,0,0,1,.86,3.47,33.37,33.37,0,0,0,1.36,4.1,36.9,36.9,0,0,0,4.39,8,2,2,0,0,0,2.73.72,2,2,0,0,0,.72-2.74,33.68,33.68,0,0,1-4.45-8.27A36,36,0,0,1,213.78,80a8.37,8.37,0,0,0-1.5-3.7,5.93,5.93,0,0,0-4-1.85L203,73.67,192.33,72a2.06,2.06,0,0,0-2.46,1.4,2,2,0,0,0,1.39,2.46Z"/><path d="M226.74,91.24c-.62-.21-.77-1.09-.73-1.66a3.35,3.35,0,0,1,1.32-2.27,15.27,15.27,0,0,1,3.4-2.06q2.29-1.17,4.61-2.32l9.24-4.64c1.3-.65,2.81-1.6,4.32-1.55,1,0,1.79.57,1.66,1.57l2-2-2.32,0c-2.57,0-2.58,4,0,4l2.32,0a2.07,2.07,0,0,0,2-2A5,5,0,0,0,252,73.58a7.19,7.19,0,0,0-6.21-.23,69.36,69.36,0,0,0-6.5,3.14l-6.37,3.21c-3.43,1.72-8.13,3.3-10.08,6.88-1.68,3.09-.63,7.34,2.87,8.52,2.44.82,3.49-3,1.06-3.86Z"/><path d="M227.22,92.71,215.3,68.14l-1.72,3A14.52,14.52,0,0,0,226.29,60l-3.66.48a72.12,72.12,0,0,1,9.06,18.66l3.66-1.54-.82-1.85a2,2,0,0,0-2.73-.72,2.06,2.06,0,0,0-.72,2.74l.81,1.85c.91,2.08,4.33.6,3.66-1.54a75.63,75.63,0,0,0-9.46-19.62c-.9-1.32-3.27-1.31-3.66.48a10.45,10.45,0,0,1-8.85,8.19,2,2,0,0,0-1.73,3l11.92,24.57c1.12,2.32,4.57.29,3.45-2Z"/><path d="M223,58.49a18.16,18.16,0,0,0,11.26,4.41,15.14,15.14,0,0,0,2,0,8.44,8.44,0,0,1,2.05-.2c.94.19,1.57,1.94,2,2.69l2.57,4.24,5.15,8.48c1.33,2.2,4.79.19,3.45-2l-5.14-8.48-2.58-4.24a13.79,13.79,0,0,0-2.61-3.66c-2.23-1.84-5.45-.51-8.09-.85a14.29,14.29,0,0,1-7.29-3.15c-2-1.64-4.81,1.18-2.82,2.83Z"/><path d="M259.86,80.77l-2.88-7-1.39,2.46,15-3.42A2,2,0,1,0,269.53,69l-15,3.41a2,2,0,0,0-1.39,2.46l2.88,7a2.06,2.06,0,0,0,2.46,1.4,2,2,0,0,0,1.39-2.46Z"/><path d="M256.24,71.39a160.05,160.05,0,0,1-7.12-14.53l-1.73,3A13.37,13.37,0,0,0,261.1,51.5a13.75,13.75,0,0,0,.69-2.59c.08-.43.19-.85.3-1.28.07-.26.37-.44.08-.34,2.39-.89,1.36-4.76-1.06-3.85-2,.75-2.79,2.4-3.18,4.41a9.9,9.9,0,0,1-1.72,4.33,9.53,9.53,0,0,1-8.82,3.69c-1.69-.22-2.24,1.82-1.73,3a160.14,160.14,0,0,0,7.13,14.53c1.25,2.25,4.71.24,3.45-2Z"/><path d="M262.87,57.35a105.22,105.22,0,0,1,6.33,13,2.06,2.06,0,0,0,2.46,1.4,2,2,0,0,0,1.4-2.46,115.5,115.5,0,0,0-6.73-14,2,2,0,1,0-3.46,2Z"/><path d="M277.17,152.29c3.69,2.91,5.54,7.33,7.27,11.57,1.87,4.58,3.53,9.23,5.16,13.9,3.27,9.41,6.4,18.89,10.59,27.94a94.78,94.78,0,0,0,8.18,14.41,2,2,0,0,0,2.73.72,132.59,132.59,0,0,1,26.45-11.4c2.45-.76,1.4-4.62-1.07-3.86a137.29,137.29,0,0,0-27.4,11.81l2.74.71c-11.54-16.52-15.9-36.47-23.36-54.89-2-5-4.13-10.32-8.46-13.74a2.06,2.06,0,0,0-2.83,0,2,2,0,0,0,0,2.83Z"/><path d="M326.91,210.78c-7.24-25.77-17.32-50.63-27-75.54-.73-1.85-1.44-3.71-2.17-5.56-.56-1.4-1.27-2.93-3-3a2.41,2.41,0,0,0-2.51,3,2.25,2.25,0,0,0,3.39,1.51c2.09-1.47.09-4.94-2-3.45l-.12.09,1-.28h-.12l1.41.59.36,1.21-.52.89.1-.12-.88.51-.1,0-1-.27c-.27-.14,0-.15.06.11a4.33,4.33,0,0,0,.37,1l.72,1.86,1.72,4.4,3.07,7.87c2.06,5.28,4.13,10.56,6.16,15.86,4.06,10.55,8,21.16,11.57,31.89,2,6.14,4,12.31,5.71,18.53.69,2.47,4.55,1.42,3.85-1.07Z"/><path d="M278.19,136.54a75.38,75.38,0,0,1,21.41-4.4c2.56-.15,2.58-4.15,0-4a79.6,79.6,0,0,0-22.48,4.54,2,2,0,0,0-1.39,2.46,2,2,0,0,0,2.46,1.4Z"/><path d="M283.1,156a144.69,144.69,0,0,0-5.6-17.61A2.06,2.06,0,0,0,275,137a2,2,0,0,0-1.4,2.46,144.89,144.89,0,0,1,5.61,17.62c.62,2.49,4.48,1.43,3.85-1.07Z"/><path d="M227.76,304.7a251.47,251.47,0,0,1-20.59-48.13v1.07c0-.15.58-.11.68-.08.6.13,1,.76,1.3,1.25a48,48,0,0,1,2.66,6.11l5.63,13.49,11.34,27.21.92-2.26a2.18,2.18,0,0,1-2.83-1.18c-1.14-2.31-4.59-.28-3.45,2a6.19,6.19,0,0,0,8.3,2.61,2,2,0,0,0,.92-2.26c-6.34-15.2-12.63-30.42-19-45.61-1.23-2.92-3.29-5.92-6.9-5.31a4.2,4.2,0,0,0-3.12,2.2c-.88,1.74.42,4.08,1,5.79,2.41,7.38,5.17,14.64,8.23,21.77a256,256,0,0,0,11.49,23.33c1.26,2.24,4.71.23,3.46-2Z"/><path d="M226.24,263.61l12.63,26.71c1.1,2.33,4.55.3,3.46-2l-12.64-26.7c-1.1-2.33-4.55-.3-3.45,2Z"/><path d="M185.05,380.45a5.57,5.57,0,0,1,1,3.81,2,2,0,0,0,2.54,1.93l17.6-6.81a2,2,0,0,0,1.39-2.46,11.08,11.08,0,0,0-2.62-5.17c-1.84-1.75-4.21-1.78-6.55-1.16s-4.8,1.36-7.2,2l-3.72,1.06-1.86.52c-.24.07-.48.16-.73.21a.63.63,0,0,1-.38.06c-.63-.1-.48.47.45,1.69,1.93-1.71-.91-4.53-2.83-2.82a2.85,2.85,0,0,0-.52,3.46,3.3,3.3,0,0,0,3.16,1.65,18.22,18.22,0,0,0,4-1l4.13-1.17,4.13-1.17a20,20,0,0,1,3.76-1c2-.14,2.53,2.35,3,3.82l1.39-2.46-17.6,6.8,2.53,1.93a9.66,9.66,0,0,0-2.21-6.64,2,2,0,0,0-2.83,0,2.05,2.05,0,0,0,0,2.83Z"/><path d="M195.34,393.37c-2.49.37-3.15,3.53-2.09,5.46a5.73,5.73,0,0,0,5.51,2.72c2.39-.2,4.65-1.35,6.86-2.21l7.22-2.81A2,2,0,0,0,214,393.6l-3.33-6.24a2,2,0,0,0-2.73-.71q-3.85,1.77-7.86,3.2c-1.32.47-2.65.91-4,1.32-.67.21-1.34.41-2,.6-.37.1-.74.22-1.11.31l-.32.08h.12l.71.72c-.3-.47-.33-.16-.08.95l-.71.71.16-.1c2.19-1.33.19-4.79-2-3.45a2.77,2.77,0,0,0,.56,4.95c1.95.68,4.44-.49,6.32-1.08A102,102,0,0,0,210,390.1l-2.74-.72,3.33,6.24,1.19-2.94-9.61,3.74c-1.27.49-2.83,1.33-4.23,1.16-.48-.06-.69-.34-1.06-.52-.9-.44,1,0-.46.17a2,2,0,0,0,1.39-2.46,2.05,2.05,0,0,0-2.46-1.4Z"/><path d="M357.7,328.82a41.37,41.37,0,0,0-3-12.29c-.76-1.82-1.89-3.62-2.26-5.58-.32-1.7.43-4.13,2.55-3.92l-1-.74,5.9,15.59,1.41,3.72c.23.59.48,1.19.68,1.79.28.82.24,1.23-.7,1.33a4.44,4.44,0,0,0-2.43.51,2,2,0,0,0-.83,2.11c.23,1.26,2.16.73,1.93-.53a25.27,25.27,0,0,0,2.76-.29,2.2,2.2,0,0,0,1.46-1.85,6.8,6.8,0,0,0-.76-3.14l-1.5-3.95-6-15.82a1.05,1.05,0,0,0-1-.73,4.24,4.24,0,0,0-4.12,2.61c-1,2-.42,4.21.42,6.16a67.68,67.68,0,0,1,2.85,7.09,39,39,0,0,1,1.52,7.93c.12,1.27,2.12,1.29,2,0Z"/><path d="M355.3,302.35,372,298.54a1,1,0,0,0,.59-1.47l-2.47-4.9a1,1,0,0,0-1.13-.46A128.1,128.1,0,0,1,353.13,297a1,1,0,0,0-.7.7,6.42,6.42,0,0,0,.23,3.34c.42,1.21,2.36.69,1.93-.53a4.33,4.33,0,0,1-.23-2.28l-.7.7a129.79,129.79,0,0,0,15.85-5.29l-1.13-.46,2.48,4.9.59-1.47-16.69,3.81c-1.25.29-.72,2.22.54,1.93Z"/><path d="M392.69,323.93l-6.44,1.87-3.1.89-1.43.42-1,.28c-.3.12-.36.08-.16-.12-.2-.25-.18-1.08-.24-1.38-.08-.46-.17-.92-.26-1.37-.21-1.07-.44-2.13-.69-3.19q-.69-3-1.56-5.85c-.58-1.93-1.22-3.85-1.92-5.74-.38-1-.78-2-1.19-3a10.57,10.57,0,0,1-1-2.44c-.23-1.95,3-1.87,4.09-1.69a11.26,11.26,0,0,0,5.59-.13c1.23-.38.71-2.32-.53-1.93a6.92,6.92,0,0,1-2.7.42c-.94-.08-1.87-.32-2.8-.43a5.58,5.58,0,0,0-4,.86,3.37,3.37,0,0,0-1.62,3,7.86,7.86,0,0,0,.76,2.13c.41,1,.8,1.93,1.17,2.9a95.87,95.87,0,0,1,3.54,11.33c.47,1.88.87,3.78,1.22,5.69.24,1.32.23,2.92,1.92,3a8.47,8.47,0,0,0,2.61-.6l3.34-1,6.91-2a1,1,0,0,0-.53-1.93Z"/><path d="M325.93,286.87l27.13,17.05c1.09.69,2.09-1,1-1.73l-27.12-17.05c-1.09-.68-2.09,1.05-1,1.73Z"/><path d="M354.11,348.28a103.79,103.79,0,0,1,9.29-18.48c.69-1.09-1-2.1-1.73-1a106.64,106.64,0,0,0-9.49,19c-.46,1.2,1.47,1.72,1.93.53Z"/><path d="M378.64,274.81a158,158,0,0,0-7,21,1,1,0,0,0,1.92.53,159.47,159.47,0,0,1,7-21c.49-1.19-1.44-1.7-1.93-.53Z"/><path d="M392.48,333.41l-12.05-4.82a1,1,0,1,0-.53,1.93L392,335.33a1,1,0,0,0,1.23-.69,1,1,0,0,0-.7-1.23Z"/><path d="M394.76,390.34a59.87,59.87,0,0,0-2.25-22.07c-.3-1-2.07-.9-2,.26l1.37,14.67,1.87-.51a17.75,17.75,0,0,1-3.49-13l-1.83.24a39,39,0,0,1,5.69,16.49l2-.26A92.14,92.14,0,0,1,392.05,373l-1.83.77a43.76,43.76,0,0,1,3,8.28c.33,1.26,2.17.72,1.93-.53a79.68,79.68,0,0,0-9.26-24.77,1,1,0,0,0-1.72,1,78.23,78.23,0,0,1,9,24.29l1.93-.53a47,47,0,0,0-3.25-8.76c-.52-1.06-2.07-.29-1.83.77a92.14,92.14,0,0,0,4.08,13.18c.37.95,2.09.95,2-.27a41.23,41.23,0,0,0-6-17.5c-.41-.65-1.71-.67-1.83.24a19.75,19.75,0,0,0,3.69,14.57c.52.7,2,.6,1.86-.5l-1.37-14.67-2,.27a58.3,58.3,0,0,1,2.18,21.54c-.11,1.28,1.89,1.27,2,0Z"/><path d="M353.12,459.92a8.18,8.18,0,0,1,1.37,2,6.48,6.48,0,0,1,.45,1,11.27,11.27,0,0,1,.34,1.23l1.67-1a5.24,5.24,0,0,1-.43-.56,7.8,7.8,0,0,1-.46-.71,9.2,9.2,0,0,1-.66-1.35,10.64,10.64,0,0,1-.47-1.58c0-.14-.05-.28-.08-.42l0-.21c0,.09,0,.07,0-.05,0-.29-.06-.57-.07-.85l-1.86.5a5.64,5.64,0,0,1,.29.78,7.43,7.43,0,0,1,.21,1c0-.1,0,.05,0,.07a1.79,1.79,0,0,1,0,.23c0,.15,0,.31,0,.46s0,.34,0,.52a2.43,2.43,0,0,1,0,.36l1.83-.24L354,458.83l-1.57,1.22c.06.07.07.07,0,0s0-.06,0,0l0,.07-.05-.1a.35.35,0,0,1,0,.11c0,.07,0,0,0-.08,0,0,0,.25,0,.09s0,.06,0,.09c0,.18,0-.11,0,0s-.11.08,0,0c-.18.1.16-.08,0,0a1,1,0,0,0-.36,1.37,1,1,0,0,0,1.37.35,2.22,2.22,0,0,0,.41-3.4,1,1,0,0,0-1.57,1.21l1.25,2.24a1,1,0,0,0,1,.48,1,1,0,0,0,.83-.72,8.5,8.5,0,0,0-.68-4.92c-.42-.91-1.9-.44-1.87.51a11.73,11.73,0,0,0,2.78,7.14,1,1,0,0,0,1.22.16,1,1,0,0,0,.46-1.13,10.76,10.76,0,0,0-2.67-5.09,1,1,0,0,0-1.42,1.41Z"/><path d="M215.55,532.1a40,40,0,0,0,11.14-12.22,1,1,0,0,0-.36-1.36c-2.79-1.56-4.52-4.24-6-7-1.61-3-3.05-6.09-4.41-9.22-2.76-6.38-5.07-12.95-7.34-19.52s-4.46-13.06-7-19.48c-1.18-3-2.44-6-3.79-8.91q-1-2.23-2.16-4.44a11.14,11.14,0,0,0-2.66-3.77,7.65,7.65,0,0,0-4.32-1.46,35.8,35.8,0,0,1-5.37-.65,22.56,22.56,0,0,1-9.7-5.08c-1-.85-2.38.55-1.41,1.41a24.8,24.8,0,0,0,8,4.82,24.25,24.25,0,0,0,4.6,1.17c1.5.22,3,.19,4.51.41a5,5,0,0,1,3.84,2.72c.88,1.49,1.62,3.09,2.36,4.66q2.25,4.76,4.16,9.65c5,12.78,8.8,26,14.18,38.66,1.51,3.52,3.11,7,4.95,10.39,1.61,2.91,3.57,5.7,6.53,7.35l-.36-1.37a37.34,37.34,0,0,1-10.42,11.5c-1,.75,0,2.48,1,1.73Z"/><path d="M191.29,449.18a187.22,187.22,0,0,1,24.2-11.27c8.45-3.22,17.14-5.71,25.84-8.16a1,1,0,0,0-.53-1.93c-8.85,2.5-17.69,5-26.28,8.33a189.88,189.88,0,0,0-24.24,11.3,1,1,0,0,0,1,1.73Z"/><path d="M240.44,429.08a82.31,82.31,0,0,1,9.35,1.75c1.53.38,3,.8,4.54,1.26l2.07.67,1,.36.68.24c.33.25.46.17.37-.23l.46-.59h.46l.46.6,0-.08-.1.77,0-.1c.6-1.14-1.12-2.15-1.72-1-.9,1.7,2,2.55,2.39.84.23-1-.64-1.66-1.46-2-1.18-.46-2.4-.85-3.61-1.23a85.6,85.6,0,0,0-14.94-3.25c-1.27-.16-1.26,1.84,0,2Z"/><path d="M240.31,429a37,37,0,0,0,7.17-10.74,1,1,0,0,0-.36-1.36,1,1,0,0,0-1.37.35,35.28,35.28,0,0,1-6.86,10.33c-.89.93.53,2.35,1.42,1.42Z"/><path d="M213.43,453.58a72.91,72.91,0,0,0-18.37-7c-1.25-.29-1.78,1.64-.53,1.93a70.37,70.37,0,0,1,17.89,6.81c1.13.62,2.14-1.11,1-1.73Z"/><path d="M198.63,447.81l32.65,1.46c1.29.06,1.29-1.94,0-2l-32.65-1.46c-1.29-.06-1.29,1.94,0,2Z"/><path d="M221.73,461.38l4.44,11.44a1,1,0,0,0,1.23.7,1,1,0,0,0,.7-1.23l-4.44-11.44a1,1,0,0,0-1.23-.7,1,1,0,0,0-.7,1.23Z"/><path d="M229.11,474.81c11.73-12.62,30.12-14.6,45.27-21.05,2-.86,4.43-1.74,4.05-4.4a24.85,24.85,0,0,1-.69-3.72,8,8,0,0,1,1.17-4.06,1,1,0,0,0-1.73-1,9.93,9.93,0,0,0-1.36,6.27,28.12,28.12,0,0,1,.64,2.91c0,1.29-1.75,1.71-2.74,2.13-3.89,1.67-7.9,3-11.92,4.33-7.89,2.56-16,4.9-23.28,8.9a42.65,42.65,0,0,0-10.82,8.28c-.88.95.53,2.36,1.41,1.42Z"/><path d="M276.65,452.48A69.26,69.26,0,0,1,289.47,456a1,1,0,0,0,1.23-.69,1,1,0,0,0-.7-1.23,68.62,68.62,0,0,0-12.81-3.5c-1.26-.22-1.8,1.71-.54,1.93Z"/><path d="M230.3,493.82a69.55,69.55,0,0,1,0,22.12c-.1.65.45,1.56,1.23,1.23L270,501c.36-.15.79-.5.73-1-1.42-11.11-2.26-22.25-2.69-33.43,0-1.29-2-1.29-2,0,.43,11.18,1.27,22.32,2.69,33.43l.73-1L231,515.24l1.23,1.24a72.75,72.75,0,0,0,0-23.19c-.2-1.27-2.13-.73-1.92.53Z"/><path d="M268.5,501.55a44.12,44.12,0,0,0,12.41-1.62,1,1,0,0,0-.53-1.93,42.23,42.23,0,0,1-11.88,1.55,1,1,0,0,0,0,2Z"/><path d="M230.26,517.42a24.46,24.46,0,0,1,8.68,5.82c.89.93,2.31-.49,1.41-1.42a26.54,26.54,0,0,0-9.55-6.32,1,1,0,0,0-1.24.69,1,1,0,0,0,.7,1.23Z"/><path d="M230.93,489.24Q224,474.3,216.14,459.79c-.61-1.13-2.34-.12-1.72,1q7.83,14.51,14.79,29.45c.54,1.16,2.26.15,1.72-1Z"/><path d="M191.08,411.62a335.2,335.2,0,0,1,32.84-13.53l-1.13-.46,5.07,8.07c.68,1.09,2.41.09,1.72-1l-5.06-8.07a1,1,0,0,0-1.13-.46,337.7,337.7,0,0,0-33.32,13.74c-1.16.55-.15,2.27,1,1.72Z"/><path d="M229.07,403.6a277,277,0,0,1-26.21-46.44q-3.12-7.05-5.84-14.28c-.45-1.19-2.38-.67-1.93.53a277.48,277.48,0,0,0,23.75,48.3q4.07,6.57,8.5,12.9c.73,1.05,2.47.05,1.73-1Z"/><path d="M139.31,326.63a9.58,9.58,0,0,0,3.13,6.07,1,1,0,0,0,1.21.16l6-3.25a1,1,0,0,0,.46-1.13,32.9,32.9,0,0,0-3-6.05,1,1,0,0,0-1.37-.36l-6,3.83c-1.08.69-.08,2.42,1,1.73l6-3.83-1.36-.36a30.66,30.66,0,0,1,2.82,5.57l.46-1.12-6,3.24,1.21.16a7.55,7.55,0,0,1-2.54-4.66,1,1,0,0,0-1-1,1,1,0,0,0-1,1Z"/><path d="M133.49,312.07c-1.16,3,1.69,6.32,4.7,6.41a4.07,4.07,0,0,0,3.61-2,5.46,5.46,0,0,0,.57-3.84,4.53,4.53,0,0,0-2.8-3.38,1,1,0,0,0-.53,1.93c.23.09-.18-.11,0,0l.13.06a3.28,3.28,0,0,1,.31.2c-.19-.13,0,0,.1.09a3.71,3.71,0,0,1,.27.29c.15.17-.06-.13,0,0a.71.71,0,0,0,.1.14c.06.09.11.19.16.28s.16.35.07.13c0,.14.1.27.14.41a2,2,0,0,1,.08.33c0,.09.06.38,0,.13a5.22,5.22,0,0,1,0,.79c0,.11,0,.22,0,.33,0-.29,0,.1,0,.17a3.58,3.58,0,0,1-.09.35c0,.09-.16.4-.06.17a4.25,4.25,0,0,1-.35.63c0,.05-.12.13,0,0l-.12.14-.28.27c-.16.16.13-.06,0,0l-.15.1-.29.17s-.2.07,0,0l-.17.05-.24.07c-.06,0-.31,0-.07,0a2.41,2.41,0,0,1-.38,0c-.07,0-.42,0-.19,0a3,3,0,0,1-.41-.09l-.16-.05s-.31-.12-.2-.07-.11-.06-.11,0l-.15-.08c-.13-.07-.25-.15-.37-.23l-.14-.1c.18.13-.05,0-.07-.06l-.31-.3-.18-.19s-.18-.24-.06-.07l-.24-.36c-.08-.15-.16-.3-.23-.46.08.2,0-.16-.07-.23a2.33,2.33,0,0,1-.07-.25c0-.05,0-.3,0-.06,0-.15,0-.31,0-.46s0-.14,0-.21c0,.18,0,0,0-.07a4,4,0,0,1,.15-.49,1,1,0,0,0-.69-1.23,1,1,0,0,0-1.23.7Z"/><path d="M164.76,333.61,158.36,319c-1-2.22-1.85-4.5-3-6.65a7.94,7.94,0,0,0-3.79-4v1.72a3.5,3.5,0,0,1,3.45-.5l-.73-1a1.63,1.63,0,0,1-.55,1.31,1,1,0,0,0-.15,1.21q6.08,12.19,12.16,24.38c.57,1.16,2.3.14,1.73-1q-6.09-12.18-12.17-24.37l-.15,1.21a3.75,3.75,0,0,0,1.13-2.73,1.05,1.05,0,0,0-.73-1,5.33,5.33,0,0,0-5,.71c-.52.38-.76,1.4,0,1.72,1.8.76,2.69,2.42,3.47,4.11,1,2.22,2,4.48,2.95,6.73l6,13.71c.52,1.18,2.24.16,1.73-1Z"/><path d="M136.54,263.19c-.57-2.32-1.76-5.2-4.17-6.12a3.53,3.53,0,0,0-1.61-.2,13.68,13.68,0,0,0-2.16.72,1.69,1.69,0,0,1-2-1.95l-1,.73,6-.28a1,1,0,0,0,1-.73,4.12,4.12,0,0,0-.33-2.8,10.88,10.88,0,0,1-1-2.24c-.06-.34-.16-1.14.35-1.21s1,.88,1.14,1.24a15.1,15.1,0,0,1,.78,2.64l.84,3.19,1.75,6.67.7-1.23a1,1,0,0,1-1-.6c-.47-1.18-2.41-.67-1.93.53a3.08,3.08,0,0,0,3.44,2,1,1,0,0,0,.7-1.23L136,254.2c-.53-2-.81-4.66-2.38-6.22a2.44,2.44,0,0,0-4.2,1,4.32,4.32,0,0,0,.26,2.7c.4,1,1.35,2.06,1,3.17l1-.74-6,.28a1,1,0,0,0-1,.74,3.76,3.76,0,0,0,3.29,4.53,4.69,4.69,0,0,0,2.22-.56c2.63-1.09,3.95,2.73,4.42,4.64a1,1,0,0,0,1.93-.53Z"/><path d="M126.47,245.62a4.93,4.93,0,0,1-6.07-.33l.16,1.21c4.09-6.74.64-14.87-2.51-21.24-.57-1.16-2.29-.14-1.72,1,2.81,5.68,6.17,13.17,2.5,19.22a1,1,0,0,0,.16,1.21,6.94,6.94,0,0,0,8.49.65c1-.72.06-2.46-1-1.73Z"/><path d="M128.47,248c3.54-2.11.49-7.51-.53-10.2l-5.51-14.49c-.45-1.2-2.38-.68-1.92.53l4.68,12.33c.77,2,1.54,4,2.3,6.05.4,1.07,1.26,3.28,0,4a1,1,0,0,0,1,1.73Z"/><path d="M128.83,217.51c-2.62-4.77-5.59-10.15-4.35-15.79a9.14,9.14,0,0,1,4-5.95c2.18-1.35,4.72-1.84,7-2.85a4.17,4.17,0,0,0,2.71-5.08,87.86,87.86,0,0,0-2-8.74,105.68,105.68,0,0,0-6-16.25c-.48-1-.93-2.68-2-3.24-1.25-.63-2.31.44-3.22,1.18l-8.49,6.94c-1,.81.43,2.22,1.41,1.41l7-5.68,1.74-1.41c.82-.66.68-.75,1.12.14.62,1.24,1.19,2.51,1.75,3.77a102.7,102.7,0,0,1,5.47,15.91c.32,1.26.62,2.54.9,3.82s1.08,3.27.43,4.38c-.51.88-1.88,1.21-2.77,1.52-1.2.43-2.41.81-3.59,1.29a11.61,11.61,0,0,0-7.47,9.67c-.74,5.77,2.09,11.09,4.77,16,.62,1.13,2.35.12,1.73-1Z"/><path d="M167.53,210.37l5,13.8c.65,1.79,1.27,2.92,3.37,2.5,2.51-.51,5-1.21,7.48-1.81l29.23-7.06a1,1,0,0,0,.7-1.23c-.59-2.18-2.68-3.47-3.31-5.58-.74-2.51,1.42-4.94,3.34-6.24s4.46-2.06,6.65-3.16c2-1,4.26-2.48,5-4.67.84-2.49-1-4.54-2.31-6.43a77.31,77.31,0,0,1-11-22.64c-.32-1.08-.52-2.43-1.49-3.15a1.63,1.63,0,0,0-2.19,0c-1.22,1.38,1,3.75,2.1,1.94.67-1.1-1.06-2.11-1.73-1l.17-.18.77-.1c.84.25-.14.73-.15,1.13a3.8,3.8,0,0,0,.23.59c.16.49.28,1,.43,1.48.33,1.13.7,2.25,1.09,3.36q1.1,3.13,2.46,6.17A77.59,77.59,0,0,0,220,190.05c.61.9,1.25,1.79,1.89,2.67s1.45,1.89,1.36,3c-.17,2.09-2.91,3.49-4.57,4.29-3.55,1.71-7.38,2.79-9.62,6.3a6.33,6.33,0,0,0-.82,5.53c.71,2,2.64,3.21,3.19,5.23l.7-1.23-26.57,6.42L179,223.86c-1,.26-2.09.53-3.14.76-.85.2-.89.29-1.23-.53-.18-.44-.33-.92-.5-1.37l-4.68-12.88c-.44-1.2-2.37-.68-1.93.53Z"/><path d="M244.28,189.23a7,7,0,0,1-11.41-7.68c.26-.63-.38-1.25-1-1.27a9.22,9.22,0,0,1-3.43-17.74c1.1-.5.26-2-.77-1.83-1.81.31-1.42-2.52-1.17-3.44a14.62,14.62,0,0,1,1.2-3.36,3.18,3.18,0,0,1,2.22-1.85,1.66,1.66,0,0,1,2,1,1,1,0,0,0,1.93-.54,3.5,3.5,0,0,0-3.47-2.49A5,5,0,0,0,226,152.9a12.42,12.42,0,0,0-1.71,6.51,3.41,3.41,0,0,0,3.94,3.23l-.77-1.83a11.21,11.21,0,0,0,4.44,21.47l-1-1.26a9,9,0,0,0,14.76,9.62,1,1,0,0,0-1.42-1.41Z"/><path d="M243.49,191.85c-3.78-.36-6.59,2.93-7.33,6.34a23.91,23.91,0,0,0,.75,11.57c1,3.16,3.06,6,6.36,6.94a6.79,6.79,0,0,0,7.7-2.39l-1.83-.77c-1.53,5.43-1.16,12.52,3.78,16.16,3.94,2.9,10.22,2.73,13.05-1.59l-1.83-.24c1.4,6.91.48,15.47,6.29,20.63,4,3.56,11.29,3.42,13.51-2.1l-2-.26c-.24,5.46,1.72,12.16,7.26,14.4,4.4,1.78,10.35.06,11.83-4.77l-1.67.45c1.76,2,4.37,4.39,7.32,3.62,2.43-.64,4.11-3.15,3-5.54-.52-1.18-2.25-.16-1.72,1,.75,1.7-1.73,2.88-3.06,2.61-1.74-.37-3.06-1.82-4.17-3.11a1,1,0,0,0-1.67.44c-1.19,3.87-6.36,4.9-9.66,3.23-4.39-2.22-5.7-7.83-5.5-12.33,0-1.22-1.57-1.24-2-.27-.86,2.13-3.23,3.11-5.4,3.1a7.93,7.93,0,0,1-6.31-3.59c-3.73-5.19-3-12.07-4.24-18a1,1,0,0,0-1.83-.24c-2.28,3.49-7.68,3.15-10.58.65-3.83-3.3-3.85-9.2-2.59-13.68a1,1,0,0,0-1.83-.77c-1.31,1.95-4,2.07-6,1.28-2.56-1-3.93-3.57-4.6-6.09a24.54,24.54,0,0,1-.69-8.78c.33-2.92,2.21-6.18,5.56-5.86,1.28.13,1.27-1.87,0-2Z"/><path d="M287.86,348.32a4.08,4.08,0,0,1-2.38.78h-.39l-.23,0a5.49,5.49,0,0,1-.7-.17,3,3,0,0,1-.53-.22l-.33-.19-.2-.14a3.85,3.85,0,0,1-1.38-2.14,3.47,3.47,0,0,1-.13-1.22,2.18,2.18,0,0,1,.07-.58,4.56,4.56,0,0,1,.21-.72,1,1,0,0,0-.69-1.23,1,1,0,0,0-1.23.7,5.89,5.89,0,0,0,9.32,6.57,1,1,0,1,0-1.41-1.41Z"/><path d="M253.93,383.32c-.88,3.45,1.66,7.07,5,8a5.86,5.86,0,0,0,3,0,1,1,0,1,0-.53-1.93l-.35.08c-.12,0-.12,0,0,0l-.18,0c-.2,0-.41,0-.61,0l-.35,0c.24,0-.12,0-.17,0a4,4,0,0,1-.59-.17,2.19,2.19,0,0,1-.33-.12l-.09,0c-.21-.11-.42-.22-.62-.35l-.22-.15-.15-.11c.09.07.08.07,0,0s-.34-.29-.5-.45-.3-.33-.45-.5-.07-.09,0,0a.76.76,0,0,0-.08-.11c-.06-.09-.12-.17-.17-.26a5.45,5.45,0,0,1-.35-.62s-.13-.28,0-.09a2.52,2.52,0,0,1-.13-.33,5.69,5.69,0,0,1-.16-.59s-.07-.41,0-.17l0-.34a4.26,4.26,0,0,1,0-.62c0-.06,0-.12,0-.18h0c0-.11.05-.23.08-.35a1,1,0,1,0-1.93-.53Z"/><path d="M298.74,441.62c-3.21.57-6.24-1.65-7.74-4.35-1.75-3.13-1.86-6.87-1.84-10.36a1,1,0,0,0-1.51-.87c-3.64,1.58-8.61,2.57-12-.05-2.55-1.93-3.81-5.77-1.76-8.49.61-.81-.57-1.88-1.37-1.36a1.77,1.77,0,0,1-2.24-.36,3,3,0,0,1-.82-3,10.87,10.87,0,0,1,1.47-3.3c.14-.22,1.6-2.27,1.95-1.79.76,1,2.49,0,1.73-1-2.84-3.89-6.7,3.51-7.13,5.76a5.07,5.07,0,0,0,1.5,4.89,3.74,3.74,0,0,0,4.55.56l-1.37-1.36c-2.58,3.41-1.06,8.36,2.05,10.89,4.11,3.37,10,2.32,14.49.38l-1.5-.86c0,4.16.2,8.78,2.7,12.31,2.15,3,5.65,5,9.41,4.33,1.27-.23.73-2.16-.53-1.93Z"/><path d="M313.06,436.19c2.69.58,4.77-2,4.76-4.55,0-3-2.66-5.07-4.82-6.68a1,1,0,0,0-1.36.36,1,1,0,0,0,.36,1.37,17.32,17.32,0,0,1,2.47,2.14,6.14,6.14,0,0,1,.9,1.24,4.72,4.72,0,0,1,.44,1.21,3,3,0,0,1-.67,2.29,1.67,1.67,0,0,1-1.55.69,1,1,0,0,0-1.23.7,1,1,0,0,0,.7,1.23Z"/><path d="M297.76,494.84c-2.68-1.18-3-4.84-1.51-7.1,2.08-3.1,6.56-3.21,9.8-2.36l-.24-1.83c-.23.13-.51-.32-.55-.48-.09-.36.27-.83.47-1.1a6,6,0,0,1,1.23-1.19,8.75,8.75,0,0,1,2.62-1.37c1.71-.55,3.83-.65,4.92,1,.59.91,2.18.35,1.82-.77a4.7,4.7,0,1,1,9.05-2.4,1,1,0,0,0,1.82.23l2.15-3.83a1,1,0,0,0-1.72-1l-2.15,3.84,1.83.23a6.69,6.69,0,1,0-12.9,3.47l1.82-.77c-2.13-3.3-6.51-2.68-9.47-.91-1.53.91-3.4,2.43-3.48,4.36a2.48,2.48,0,0,0,3.55,2.4,1,1,0,0,0-.24-1.83c-4.19-1.09-9.79-.61-12.21,3.52-1.84,3.14-1.21,8,2.38,9.6,1.17.52,2.18-1.21,1-1.73Z"/><path d="M314.73,395.1c.23,2,2.34,1.66,3.43.5a9.84,9.84,0,0,0,1.5-3.27c.6-1.54,1.19-3.07,1.77-4.61q3.44-9,6.69-18l-2-.26-.18,2c-.12,1.28,1.88,1.27,2,0l.18-2c.11-1.19-1.6-1.26-2-.27q-2.42,6.74-4.93,13.43c-.82,2.15-1.63,4.31-2.46,6.45-.41,1.08-.83,2.15-1.25,3.22a8.11,8.11,0,0,1-.72,1.83,1.56,1.56,0,0,1-.39.38c-.4.13-.3.35.29.64-.15-1.26-2.15-1.28-2,0Z"/><path d="M343.65,388.68a69.85,69.85,0,0,0-9.25-21.13c-.7-1.07-2.43-.07-1.73,1a67.92,67.92,0,0,1,9.05,20.65,1,1,0,0,0,1.93-.53Z"/><path d="M340.72,384.81a144.1,144.1,0,0,0,14.89-25.6c.52-1.16-1.2-2.18-1.73-1A143.75,143.75,0,0,1,339,383.8c-.76,1,1,2,1.73,1Z"/><path d="M359.72,359.6a84.6,84.6,0,0,1,8.92,7q2,1.83,4,3.8c.64.66,1.34,1.3,1.91,2a2.58,2.58,0,0,1,.42.74.86.86,0,0,1,.09.35c0,.12.12-.06,0,0-1.14.6-.13,2.32,1,1.73,1.7-.89.95-3,0-4.18a52.68,52.68,0,0,0-4.7-4.75,88.48,88.48,0,0,0-10.57-8.44c-1.06-.72-2.06,1-1,1.73Z"/><path d="M342.31,405.63a30.81,30.81,0,0,1,3.1-11.71,1,1,0,0,0-.16-1.21,6,6,0,0,1-1.2-4.29l-1.71.71a60.8,60.8,0,0,1,9.43,13.25c.61,1.14,2.33.13,1.73-1a62.59,62.59,0,0,0-9.74-13.65,1,1,0,0,0-1.71.7,8,8,0,0,0,1.79,5.7l-.16-1.21a33.33,33.33,0,0,0-3.37,12.72c-.08,1.28,1.92,1.28,2,0Z"/><path d="M366.91,398.17c.94-4.33,2-8.64,2.8-13,.8-4.12,1.22-8.32.14-12.43l-1.83.77a117.33,117.33,0,0,1,8.85,21.71,1,1,0,0,0,1.93-.54,120.36,120.36,0,0,0-9.05-22.18,1,1,0,0,0-1.83.77c1.07,4.06.51,8.23-.32,12.28s-1.74,8.05-2.62,12.08c-.27,1.25,1.65,1.79,1.93.53Z"/><path d="M330,414.32a35.62,35.62,0,0,1-6.62-14.45,1,1,0,0,0-1.23-.7,9.06,9.06,0,0,0-5.55,5.53c-.44,1.22,1.49,1.74,1.93.54a6.89,6.89,0,0,1,4.15-4.14l-1.23-.7a36.83,36.83,0,0,0,6.83,14.93,1,1,0,0,0,1.37.35,1,1,0,0,0,.35-1.36Z"/><path d="M319.68,396.24a43.61,43.61,0,0,1-12.13-16.78c-.48-1.18-2.41-.66-1.93.53a45.75,45.75,0,0,0,12.65,17.67c1,.83,2.39-.58,1.41-1.42Z"/><path d="M378.17,374.76a69.31,69.31,0,0,0,2.94-23.86l-1.26,1a.65.65,0,0,1,.69.53c.14,1.26,2.14,1.28,2,0a2.59,2.59,0,0,0-2.16-2.46,1,1,0,0,0-1.27,1,67.7,67.7,0,0,1-2.87,23.33,1,1,0,0,0,1.93.53Z"/><path d="M356.16,456a102.42,102.42,0,0,0,4.66-26.9c.05-1.29-1.95-1.28-2,0a100.15,100.15,0,0,1-4.59,26.37c-.39,1.23,1.54,1.76,1.93.53Z"/><path d="M378.05,421c.16-.74,1.6-.94,2.21-1.21,1.09-.47,2.12-1.08,3.19-1.58a31.3,31.3,0,0,1,7.45-2.15c5.1-1,10.32-2.37,14.71-5.24a1,1,0,0,0,.46-1.13c-.68-3.56-3.06-6.39-4.2-9.76s-1.95-6.52-4.23-9.28c-.6-.72-1.66-.08-1.71.7a2.32,2.32,0,0,0,1.16,2.15c1,.76,2-1,1-1.72l-.17-.43-1.71.71c2.23,2.7,2.75,6,4,9.16s3.3,5.73,3.92,9l.46-1.13c-4.85,3.17-10.59,4.33-16.18,5.41a28.38,28.38,0,0,0-7.37,2.66c-1,.51-2,.92-3,1.36a2.84,2.84,0,0,0-1.9,1.95c-.26,1.26,1.67,1.79,1.93.53Z"/><path d="M390.12,423.4a77.87,77.87,0,0,0,18.46-7.09,1,1,0,0,0,.46-1.13,90.76,90.76,0,0,0-11.23-23.06c-.71-1.07-2.45-.07-1.72,1a89.29,89.29,0,0,1,11,22.59l.46-1.13a75.67,75.67,0,0,1-18,6.89c-1.25.3-.72,2.23.53,1.93Z"/><path d="M415.52,436.77c-1.36-2.83-3.39-8.22.68-9.86,1.7-.69,3.66-.52,5.45-.62a8.48,8.48,0,0,0,5.43-1.84c1-.86-.46-2.27-1.42-1.41a6.4,6.4,0,0,1-4.1,1.25,29.81,29.81,0,0,0-4.9.4,6.17,6.17,0,0,0-4,2.62,7.14,7.14,0,0,0-.8,4.84,19.16,19.16,0,0,0,1.88,5.63c.56,1.16,2.28.15,1.73-1Z"/><path d="M230.34,451a4.16,4.16,0,0,1,.42-.42l.1-.09c-.07,0-.08.06,0,0l.22-.15a5.29,5.29,0,0,1,.52-.29c.19-.09-.12,0,.1,0l.25-.09.54-.13c.28-.05-.2,0,.09,0h.27a3.33,3.33,0,0,1,.55,0c-.23,0,.09,0,.14,0l.3.08.54-1.93-.27-.07s-.28-.11-.1,0l-.24-.12s-.26-.18-.1-.06a2.28,2.28,0,0,1-.38-.38c.08.11,0,0,0-.06a1.51,1.51,0,0,1-.15-.28l-.6,1.47.2,0c.06,0,.14,0,0,0a3.55,3.55,0,0,1,.46,0h.52l.17,0a5,5,0,0,1,.78.23c-.1,0,0,0,0,0l.23.11.39.24a1,1,0,0,0,1.37-.36,1,1,0,0,0-.36-1.37,5.68,5.68,0,0,0-4.36-.77,1,1,0,0,0-.6,1.47,3.57,3.57,0,0,0,2.46,1.92,1,1,0,0,0,.54-1.93,5.33,5.33,0,0,0-5.43,1.6,1,1,0,0,0,1.41,1.41Z"/><path d="M207.39,32.09a10.1,10.1,0,0,0,18.9,2.52l-.91-.39c-.7,3,2.13,5.21,4.85,5.53,3.89.45,7-2.94,9.87-5l-.74-.3a9.27,9.27,0,0,0,12.87,6.48,12.24,12.24,0,0,0,3.31-2.5c.81-.76,1.81-1.42,2.76-.45a15.65,15.65,0,0,1,1.27,1.86,3.66,3.66,0,0,0,5.66.36c.43-.47-.27-1.18-.71-.71a2.65,2.65,0,0,1-3.86.11c-.76-.79-1.08-1.94-2-2.62-1.92-1.49-3.55.56-4.88,1.75a8.27,8.27,0,0,1-13.48-4.54.5.5,0,0,0-.74-.3C237.23,35.59,235,38,232,38.66c-2.46.57-6.39-1.14-5.68-4.17.13-.54-.64-.91-.91-.39a9.1,9.1,0,0,1-17.07-2.28c-.14-.63-1.11-.36-1,.27Z"/><path d="M99.44,298.57l12.21-4.33,6.11-2.17c1.36-.48,3.08-.82,4-2,1.69-2.13.21-5.48-1-7.46a3.08,3.08,0,0,0-3-1.78,11.08,11.08,0,0,0-2.8.92l-3,1.17-6.89,2.66-3.24,1.26a14,14,0,0,1-1.57.57,3.84,3.84,0,0,1-.82.16c-.61,0-1.85-.42-1.4-1.39.27-.58-.59-1.09-.86-.51a2,2,0,0,0,.83,2.57c1.35.81,3,0,4.3-.52L114,283.2c.86-.33,1.72-.68,2.59-1,1.25-.47,2.32-.58,3.17.62a10.12,10.12,0,0,1,1.75,4.31c.29,2.29-1.19,3-3.1,3.67l-5.89,2.09-13.31,4.72c-.6.21-.34,1.18.27,1Z"/><path d="M100.64,304.65a113.23,113.23,0,0,1,20.93,6.73c.58.25,1.09-.61.5-.86a113.17,113.17,0,0,0-21.17-6.83c-.62-.14-.89.82-.26,1Z"/><path d="M142.13,303.71a80.75,80.75,0,0,0-4.45-16c-.23-.59-1.19-.33-1,.27a80.63,80.63,0,0,1,4.44,16c.11.64,1.08.37,1-.26Z"/><path d="M155.83,281.88l5.23,16.74c.19.61,1.15.35,1-.27l-5.23-16.73c-.19-.62-1.15-.35-1,.26Z"/><path d="M234.75,376.46,220,342.34l-1.77-4.1a24.63,24.63,0,0,1-1.85-4.56c-.38-1.89,1.35-2.75,2.89-2,1.29.63,1.93,2.15,2.5,3.38,2.58,5.58,5,11.22,7.43,16.89q4.07,9.61,7.79,19.38c.23.59,1.2.33,1-.27q-3.75-9.78-7.82-19.44-1.92-4.54-3.91-9.06c-1.36-3.08-2.6-6.27-4.19-9.23-1-1.8-2.79-3.53-5-2.76s-1.77,3.25-1,5c2.78,6.54,5.63,13.05,8.45,19.57L233.88,377c.26.58,1.12.08.87-.51Z"/><path d="M244.92,344.84a5.57,5.57,0,0,1-6.84-8.41c.32-.45-.27-.87-.68-.68a3,3,0,0,1-3.71-4.53c.77-1,2.08-1.23,3.18-1.74a4.6,4.6,0,0,0,2-1.71,24.13,24.13,0,0,1,1.38-2.3c1.22-1.43,2.54.33,3.28,1.4a13.21,13.21,0,0,1,2.33,7.67.5.5,0,0,0,.93.25c1.06-1.69,3.54-1.61,5-.43,1.63,1.35,2,3.69,2,5.68a.51.51,0,0,0,.37.48,5.8,5.8,0,0,1,4.48,5,6.11,6.11,0,0,1-3.54,6.33c-5.49,2.78-11-1.64-12.32-7-.15-.63-1.11-.36-1,.26,1.5,6.23,8.28,11,14.35,7.28a7,7,0,0,0,3.46-7,6.78,6.78,0,0,0-5.2-5.81l.36.48c0-2.57-.65-5.66-3.12-7a4.28,4.28,0,0,0-5.68,1.22l.93.25a13.69,13.69,0,0,0-3.78-9.8,2.32,2.32,0,0,0-3-.53c-1,.69-1.46,2.06-2.12,3.05-1,1.57-2.94,1.54-4.35,2.61a4.14,4.14,0,0,0-1.57,3.5,4.05,4.05,0,0,0,5.85,3.24l-.69-.68a6.56,6.56,0,0,0,8.21,9.78c.58-.27.08-1.13-.51-.87Z"/><path d="M200.08,500.52a22.38,22.38,0,0,0-17.89-8.08l.13,1a9.76,9.76,0,0,0,7.27-8c.09-.63-.87-.9-1-.26a8.82,8.82,0,0,1-6.58,7.32.5.5,0,0,0,.14,1,21.4,21.4,0,0,1,17.18,7.79c.41.5,1.11-.21.71-.71Z"/><path d="M191.19,468.34a26.88,26.88,0,0,0-15.05-4.76l.25.94a9.82,9.82,0,0,0,5.41-8.82.5.5,0,0,0-1,0,8.84,8.84,0,0,1-4.91,7.95.5.5,0,0,0,.25.93,26,26,0,0,1,14.55,4.62c.53.37,1-.5.5-.86Z"/><path d="M314.76,454.34a75.72,75.72,0,0,1,16.41,5.8c.58.28,1.09-.58.51-.86a76.91,76.91,0,0,0-16.65-5.9c-.63-.14-.9.82-.27,1Z"/><path d="M320,450.92,337.46,457c.61.21.87-.76.26-1L320.25,450c-.61-.22-.87.75-.26,1Z"/><path d="M328.25,324.2a208,208,0,0,0-12.05-36.65c-.25-.59-1.11-.08-.86.51a207,207,0,0,1,11.94,36.4c.15.63,1.11.36,1-.26Z"/><path d="M162.64,203.17c3.1,1.5,5.72-2.17,5.16-5a11.46,11.46,0,0,0-2.86-4.95c-1.6-1.89-3.18-3.78-4.67-5.77a99.57,99.57,0,0,1-13.7-25.26c-.67-1.82-1.23-3.92-3.18-4.76s-4.29-.07-6.17.68c-.6.23-.34,1.2.26,1,1.65-.65,3.72-1.45,5.46-.73s2.33,3.22,3,4.93a98.77,98.77,0,0,0,4.63,10.47,100.23,100.23,0,0,0,12.75,19.09c1.36,1.6,3.05,3.28,3.5,5.42.41,1.93-1.22,5.24-3.64,4.07-.58-.28-1.09.58-.51.86Z"/><path d="M136.15,152.34c1.7.8,3.37,0,5.09-.27a2.89,2.89,0,0,1,3,1c.87,1,1.63,2.08,2.41,3.14a108.59,108.59,0,0,1,8.41,13.39c.3.57,1.16.06.86-.5a108.29,108.29,0,0,0-8.82-14c-1.14-1.53-2.38-3.86-4.47-4.12s-4.12,1.37-6,.47c-.58-.27-1.09.59-.51.87Z"/><path d="M132.42,133.18c-.24-3.77,2.83-6.32,5.7-8.21,3-2,6.22-3.66,9.1-5.9A49.28,49.28,0,0,0,161,102.56a42.84,42.84,0,0,0,3.66-10.18c.56-2.61,1.39-6.15-.37-8.5a3.09,3.09,0,0,0-3.55-1,42.25,42.25,0,0,0-5.58,2.4,114.7,114.7,0,0,0-22.94,14.18c-1.34,1.07-3.31,2.18-3.86,3.92-.3,1-.11,2.19,1.13,2.18a.5.5,0,0,0,0-1c-.74,0,.21-1.66.36-1.84a17.22,17.22,0,0,1,2.22-1.86q2.35-1.9,4.8-3.67,4.56-3.3,9.42-6.14c3.3-1.93,6.7-3.69,10.17-5.28l2.42-1.07c1-.44,2.38-1.23,3.55-1,1.53.35,1.86,2.5,1.89,3.78a27.68,27.68,0,0,1-2,9.3,43.34,43.34,0,0,1-4.37,9,49.31,49.31,0,0,1-13.88,14.28c-4.62,3.14-13.12,6.21-12.69,13.07,0,.64,1,.64,1,0Z"/><path d="M163.38,109.89a54.5,54.5,0,0,0,9.19-23.17c.47-3.25.9-7-.69-10s-5-3.94-8.26-3.47c-4.52.66-8.94,3.11-12.68,5.62-.53.36,0,1.22.51.86,4.42-3,15.8-9.74,19.56-2.51,1.6,3.07,1,7,.42,10.29a53.2,53.2,0,0,1-8.91,21.87c-.37.53.5,1,.86.5Z"/><path d="M185.14,85.81a37.24,37.24,0,0,0-8.74-16.92,37.78,37.78,0,0,0-7.13-6.17A34.15,34.15,0,0,0,165,60.27a16,16,0,0,0-4.27-1.69c-.74-.12-2,.45-1.34,1.36a.76.76,0,0,0,1.4-.52c-.1-.64-1.06-.37-1,.26l0,.15.13-.49a11.42,11.42,0,0,1,2.46.88c.81.33,1.6.69,2.38,1.07a34.83,34.83,0,0,1,3.79,2.19,36.87,36.87,0,0,1,7.08,6.11,36.26,36.26,0,0,1,8.48,16.48c.14.63,1.1.36,1-.26Z"/><path d="M98.8,173.74l-4.61-10.61c-.25-.58-1.12-.08-.86.51l4.61,10.61c.26.58,1.12.08.86-.51Z"/><path d="M101.72,162l3.24,8.28c.23.59,1.2.33,1-.27l-3.24-8.27c-.23-.6-1.2-.34-1,.26Z"/><path d="M225.38,401.31l7.8-4.17c.57-.31.07-1.17-.5-.87l-7.8,4.18c-.57.3-.06,1.17.5.86Z"/><path d="M222.33,397.08a17.9,17.9,0,0,0,6.88-2.54c.54-.34,0-1.2-.51-.86a17.35,17.35,0,0,1-6.64,2.44.5.5,0,0,0-.35.61.52.52,0,0,0,.62.35Z"/><path d="M219.32,394.49a32.19,32.19,0,0,1,9.87-3.3c.64-.11.37-1.07-.26-1a33.24,33.24,0,0,0-10.12,3.41c-.56.3-.06,1.17.51.86Z"/><path d="M217.7,390.73a42.87,42.87,0,0,0,8.63-4.29c.54-.35,0-1.22-.5-.87a42,42,0,0,1-8.4,4.2c-.6.22-.34,1.18.27,1Z"/><path d="M216.28,386.93a31.65,31.65,0,0,1,9.08-4.34.5.5,0,0,0-.26-1,32.24,32.24,0,0,0-9.32,4.44c-.53.36,0,1.23.5.86Z"/><path d="M212.56,381.73,221,378c.59-.26.08-1.12-.5-.86l-8.39,3.71c-.59.26-.08,1.12.5.86Z"/><path d="M210.14,376.87l10.8-4.95c.59-.27.08-1.13-.5-.86L209.64,376c-.58.27-.08,1.13.5.86Z"/><path d="M208.62,371.62a32.27,32.27,0,0,1,9.95-4c.63-.14.36-1.11-.27-1a33.26,33.26,0,0,0-10.19,4.13c-.54.33,0,1.2.51.86Z"/><path d="M205.72,367.29a25.21,25.21,0,0,1,10.52-4.48c.63-.11.36-1.08-.27-1a25.88,25.88,0,0,0-10.75,4.59c-.52.37,0,1.24.5.86Z"/><path d="M202.65,363.41l9.87-4.54c.59-.27.08-1.14-.5-.87l-9.88,4.55c-.58.27-.07,1.13.51.86Z"/><path d="M202.7,358.21a55.11,55.11,0,0,1,10.47-3.88.5.5,0,0,0-.27-1,56.34,56.34,0,0,0-10.71,4c-.57.28-.07,1.14.51.86Z"/><path d="M201,354.32,211.74,350c.59-.24.33-1.21-.27-1l-10.74,4.29c-.59.24-.33,1.21.27,1Z"/><path d="M200.29,350.64l7.59-3c.59-.24.33-1.2-.26-1l-7.6,3c-.59.24-.33,1.21.27,1Z"/><path d="M201.13,347.48l6.06-3.06c.58-.29.07-1.16-.5-.86l-6.06,3.06c-.58.29-.07,1.15.5.86Z"/><path d="M200.16,346.1a.5.5,0,0,0,0-1,.5.5,0,0,0,0,1Z"/><path d="M196.08,443.43a21.75,21.75,0,0,0-3.09-7c-.35-.53-1.22,0-.86.51a21.2,21.2,0,0,1,3,6.71c.15.63,1.12.36,1-.26Z"/><path d="M196.66,445.25a9.91,9.91,0,0,1,6.72-4.74c.63-.11.36-1.08-.27-1a10.87,10.87,0,0,0-7.32,5.2.5.5,0,0,0,.87.5Z"/><path d="M191.87,437l8.34-1.55-.57-.23,2.74,5.3c.25.47.9.21.94-.26a6.47,6.47,0,0,1,4.66-5.7.5.5,0,0,0-.27-1,7.49,7.49,0,0,0-5.39,6.66l.93-.25-2.74-5.29a.52.52,0,0,0-.57-.23L191.6,436c-.63.11-.36,1.08.27,1Z"/><path d="M205.26,440.06a5,5,0,0,1,5.39-2.84c.63.13.9-.83.27-1a6,6,0,0,0-6.53,3.3.51.51,0,0,0,.18.68.5.5,0,0,0,.69-.18Z"/><path d="M200.41,434.13a42.57,42.57,0,0,1,4.73-1.86c.66-.22,1.52-.62,2.2-.31a1.67,1.67,0,0,1,.74.81c.75,1.46.69,3.76,2.59,4.29a.5.5,0,0,0,.26-1c-.87-.24-1.12-1.31-1.35-2.07a5.85,5.85,0,0,0-1.15-2.5c-1-1-2.36-.61-3.55-.22a46.42,46.42,0,0,0-5,2c-.58.27-.07,1.13.51.86Z"/><path d="M211.81,437.74a13.91,13.91,0,0,1,10.36-3.51c.64.06.64-1,0-1A14.84,14.84,0,0,0,211.11,437c-.48.43.23,1.14.7.7Z"/><path d="M208.2,431.84c3-3.93,10-3.57,12.49.75a.5.5,0,0,0,.86-.5c-2.82-4.82-10.62-5.41-14.06-1-.39.5.32,1.21.71.71Z"/><path d="M221.73,432.35a10.69,10.69,0,0,1,8.8-4.91.5.5,0,0,0,0-1,11.73,11.73,0,0,0-9.66,5.4c-.34.55.52,1.05.86.51Z"/><path d="M217.2,428.16a15.23,15.23,0,0,1,10.22-2.55l-.35-.14,3.19,3.95c.41.5,1.11-.21.71-.71-1-1.25-2-2.52-3-3.74-.42-.49-1.05-.42-1.67-.44a14.22,14.22,0,0,0-2.06.06,16.09,16.09,0,0,0-7.51,2.71c-.53.36,0,1.23.5.86Z"/><path d="M230,428.33a20.74,20.74,0,0,1,8.83.43.5.5,0,0,0,.26-1,21.91,21.91,0,0,0-9.36-.42c-.63.11-.37,1.07.27,1Z"/><path d="M227.33,423.62c3.07-3.6,9.92-2.43,11.5,2.08l.74-.56c-3-1.95-2.45-7.36.9-8.65.59-.23.33-1.2-.27-1-4.15,1.6-4.88,8-1.14,10.47a.51.51,0,0,0,.74-.56c-1.81-5.17-9.59-6.74-13.17-2.53-.42.49.28,1.2.7.71Z"/><path d="M199.58,449.45q22.9-8.65,46.57-15c4.38-1.18,8.82-2.13,13.19-3.35a.5.5,0,0,0-.27-1c-3.82,1.07-7.73,1.9-11.57,2.91s-7.87,2.13-11.79,3.27q-11.75,3.42-23.31,7.43-6.57,2.26-13.08,4.73c-.6.23-.34,1.19.26,1Z"/><path d="M231.91,469.79a15.47,15.47,0,0,1-1.71-6.49c0-.64-1-.64-1,0a16.85,16.85,0,0,0,1.84,7c.3.57,1.16.07.87-.5Z"/><path d="M236.39,466.2l-.93-6.81a.5.5,0,0,0-1,.26l.93,6.81a.5.5,0,0,0,.62.35.51.51,0,0,0,.35-.61Z"/><path d="M240,462.43l-.78-3a.5.5,0,0,0-.61-.35.52.52,0,0,0-.35.62l.77,3a.5.5,0,1,0,1-.27Z"/><path d="M246.28,460.11l-.77-3a.49.49,0,0,0-.61-.35.5.5,0,0,0-.35.61l.76,3a.52.52,0,0,0,.62.35.53.53,0,0,0,.35-.62Z"/><path d="M252.29,459.51V458a.5.5,0,0,0-.5-.5.51.51,0,0,0-.5.5v1.52a.51.51,0,0,0,.5.5.51.51,0,0,0,.5-.5Z"/><path d="M257.59,457.85l-.76-2.27a.5.5,0,0,0-1,.26l.76,2.28a.5.5,0,1,0,1-.27Z"/><path d="M263,457.84l-.76-3a.49.49,0,0,0-.62-.35.51.51,0,0,0-.35.61l.76,3a.5.5,0,1,0,1-.27Z"/><path d="M266.77,454.8,266,451a.5.5,0,1,0-1,.26l.76,3.8a.52.52,0,0,0,.62.35.52.52,0,0,0,.35-.62Z"/><path d="M272,452.56l-.77-3a.5.5,0,0,0-.61-.35.52.52,0,0,0-.35.62l.76,3a.5.5,0,0,0,.62.35.51.51,0,0,0,.35-.61Z"/><path d="M275.8,449.5l-.77-5.31a.5.5,0,0,0-.61-.35.51.51,0,0,0-.35.61l.77,5.32a.5.5,0,0,0,.61.35.52.52,0,0,0,.35-.62Z"/><path d="M238.94,512.68a224.86,224.86,0,0,0,.37-25.83c0-.65-1-.65-1,0a224.86,224.86,0,0,1-.37,25.83c-.05.65.95.64,1,0Z"/><path d="M245.82,515a107.56,107.56,0,0,1,1-28.78c.11-.63-.86-.9-1-.27A108.76,108.76,0,0,0,244.82,515c.06.63,1.06.64,1,0Z"/><path d="M253.13,510.38q-.54-14.82.34-29.63c0-.65-1-.64-1,0q-.89,14.79-.34,29.63c0,.64,1,.64,1,0Z"/><path d="M260.65,508.1V480.77a.5.5,0,0,0-1,0V508.1a.5.5,0,0,0,1,0Z"/><path d="M267.6,503.39l-4-25c-.1-.64-1.06-.37-1,.26l4,25c.1.63,1.07.36,1-.27Z"/><path d="M230.67,517.71l43.11-17.87c.59-.24.33-1.21-.26-1L230.4,516.74c-.58.25-.33,1.22.27,1Z"/><path d="M233,518.68a132.08,132.08,0,0,0,45.71-17.62c.55-.34.05-1.21-.5-.87a131,131,0,0,1-45.48,17.52c-.63.12-.36,1.08.27,1Z"/><path d="M392.05,445.81a46,46,0,0,1-6,28c-.28.48.41,1.06.79.61,6.57-7.82,18.06-3,26.36-1.9a.5.5,0,0,0,.44-.75l-1.22-1.85c-.35-.54-1.21,0-.86.5l1.21,1.85.43-.75c-8.61-1.14-20.25-5.92-27.07,2.19l.78.61a46.88,46.88,0,0,0,6.11-28.48c-.07-.64-1.07-.64-1,0Z"/><path d="M391.31,443.74,420,468.22c.49.41,1.2-.29.71-.71L392,443c-.49-.41-1.2.29-.71.71Z"/><path d="M421.29,467.09a15.55,15.55,0,0,1,7-12.48,18.29,18.29,0,0,1,6.9-2.45c2.34-.45,4.68-1,6.48-2.65.48-.43-.23-1.14-.7-.7-2.1,1.94-5.07,2.14-7.74,2.71a16.25,16.25,0,0,0-6.57,3,16.55,16.55,0,0,0-6.4,12.54.5.5,0,0,0,1,0Z"/><path d="M196.7,155a16.86,16.86,0,0,0,21.89-6.68c.31-.57-.55-1.07-.86-.51a15.84,15.84,0,0,1-20.52,6.32c-.57-.29-1.08.57-.51.87Z"/><path d="M400.67,360.77a6.21,6.21,0,1,1-6.33-10.48l-.61-.61a4.77,4.77,0,0,1-5.5,2.7c-2.5-.58-4-3.23-4.05-5.66a7.9,7.9,0,0,1,3.49-6.31c2.19-1.58,5-2,7.32-3.23.56-.3.06-1.17-.51-.86-3.11,1.68-6.67,2-9.11,4.84a8.1,8.1,0,0,0-1.85,7.7A6.34,6.34,0,0,0,389,353.5a5.7,5.7,0,0,0,5.7-3.55.5.5,0,0,0-.61-.62c-3.9,1.61-5.9,6.74-3.66,10.46s7.71,4.39,10.95,1.69c.5-.41-.21-1.12-.7-.71Z"/><path d="M146.18,345.83c.78,1.47,2.56,1.51,4,1.45a29.15,29.15,0,0,0,5.86-.9,58.94,58.94,0,0,0,11.39-4.57c7.59-3.75,15.36-8.27,24.13-7.86,5.92.27,11.7,2.3,17.67,1.52.63-.08.64-1.08,0-1-5,.65-10-.67-14.91-1.28A29.74,29.74,0,0,0,182,334.24c-7.68,2.33-14.39,6.92-21.85,9.78a37.18,37.18,0,0,1-6.27,1.83,25.48,25.48,0,0,1-3.47.42c-1.12.06-2.74.21-3.36-.95-.3-.57-1.16-.06-.86.51Z"/><path d="M193.6,320.54c-.08.68-2.41-.83-2.63-1a22.71,22.71,0,0,1-2.25-1.91,35.51,35.51,0,0,0-3.91-3.44,9.59,9.59,0,0,0-4.39-1.64,4.69,4.69,0,0,1-3.61-1.85,21.66,21.66,0,0,1-1.62-2.8,112,112,0,0,1-10.08-27.17c-.15-.63-1.11-.36-1,.27a113.7,113.7,0,0,0,8.53,24.15,58.51,58.51,0,0,0,2.86,5.43,5.54,5.54,0,0,0,3.45,2.76c.93.21,1.9.2,2.82.47a8.42,8.42,0,0,1,2.37,1.16,29.46,29.46,0,0,1,3.72,3.25c.86.81,6.3,5.72,6.71,2.32.08-.63-.92-.63-1,0Z"/><path d="M148.52,247.59a69.69,69.69,0,0,0,27.75-6.65.51.51,0,0,0,.23-.57,199.49,199.49,0,0,1-5.19-32.23c-.05-.64-1.05-.65-1,0a201.88,201.88,0,0,0,5.22,32.5l.23-.56a68.35,68.35,0,0,1-27.24,6.51.5.5,0,0,0,0,1Z"/><path d="M278.51,284.43c8.31-4.61,17.73-.45,25.5,3.23.58.27,1.09-.59.51-.86-8.13-3.85-17.86-8-26.52-3.23-.56.31-.06,1.18.51.86Z"/><path d="M287.66,386.29a130.8,130.8,0,0,1-6.57-24.93l-.48.63,28.13,1c.64,0,.64-1,0-1l-28.13-1a.51.51,0,0,0-.48.63,131.07,131.07,0,0,0,6.56,24.94c.22.6,1.19.34,1-.27Z"/><path d="M340.72,435.78a183.16,183.16,0,0,0-6.07-20.7l-.35.62q18.24-6.46,36.55-12.75c.6-.21.34-1.18-.27-1q-18.3,6.28-36.55,12.75a.52.52,0,0,0-.35.62A181.54,181.54,0,0,1,339.75,436c.15.63,1.11.36,1-.26Z"/><path d="M191.91,158.47a7.67,7.67,0,0,1,1-14.11c.6-.21.34-1.18-.27-1a8.66,8.66,0,0,0-1.23,15.93c.57.3,1.07-.56.5-.86Z"/><path d="M186.06,131.61a5,5,0,0,1-4.8-4.62,4.52,4.52,0,0,1,4-4.56,4.59,4.59,0,0,1,3.52.81c.51.39,1-.48.5-.86a6,6,0,0,0-7.4.6,5.43,5.43,0,0,0-.15,7.6,5.61,5.61,0,0,0,4.3,2,.5.5,0,0,0,0-1Z"/><path d="M350.29,340.81a121.89,121.89,0,0,1,10.48-12.65c.44-.46-.27-1.17-.71-.7a125.6,125.6,0,0,0-10.64,12.84c-.37.53.49,1,.87.51Z"/><path d="M343.33,337.86a48,48,0,0,1,15-7.28.5.5,0,0,0-.26-1,48.41,48.41,0,0,0-15.2,7.38c-.52.37,0,1.24.5.86Z"/><path d="M340,332.15a134.4,134.4,0,0,0,16.18-2.78c.63-.14.36-1.11-.27-1A133.91,133.91,0,0,1,340,331.15c-.64.07-.64,1.07,0,1Z"/><path d="M335.55,328.45l20.38-1.4c.64-.05.64-1.05,0-1l-20.38,1.4c-.64.05-.64,1.05,0,1Z"/><path d="M329.77,322.37l25.39,3.1c.63.08.63-.92,0-1l-25.39-3.1c-.63-.08-.63.92,0,1Z"/><path d="M330.39,316.45q12.21,3.14,24.64,5.29c.63.11.9-.85.26-1q-12.42-2.16-24.63-5.29a.5.5,0,0,0-.27,1Z"/><path d="M326,308.35a276.35,276.35,0,0,0,26.77,10.09c.61.19.88-.77.26-1a275.87,275.87,0,0,1-26.53-10c-.58-.26-1.09.6-.5.86Z"/><path d="M323.15,303.32a136.44,136.44,0,0,1,30.24,12.6.5.5,0,0,0,.5-.86,137.4,137.4,0,0,0-30.47-12.71.5.5,0,0,0-.27,1Z"/><path d="M326.83,298.89a201.55,201.55,0,0,1,25.68,12.92.5.5,0,0,0,.5-.86,203.09,203.09,0,0,0-25.91-13c-.6-.25-.86.72-.27,1Z"/><path d="M328.84,293.9a127.44,127.44,0,0,0,24.69,11.93c.61.21.87-.75.27-1A125.87,125.87,0,0,1,329.35,293c-.55-.34-1.05.52-.51.86Z"/><path d="M331,291.08l23.23,12.34c.57.3,1.08-.56.51-.87l-23.23-12.34c-.57-.3-1.07.56-.51.87Z"/><path d="M337.44,281.4q5.4,9.32,11.45,18.24c.36.53,1.23,0,.87-.5q-6.06-8.92-11.46-18.25a.5.5,0,0,0-.86.51Z"/><path d="M343.78,283l7.92,15.27c.29.58,1.16.07.86-.5l-7.92-15.28c-.3-.57-1.16-.07-.86.51Z"/><path d="M351.12,283.64l4.36,9.43c.27.59,1.13.08.86-.5L352,283.13c-.27-.58-1.13-.07-.86.51Z"/><path d="M358.33,282.79l2.9,9.44c.19.61,1.16.35,1-.27l-2.91-9.43c-.18-.62-1.15-.35-1,.26Z"/><path d="M364.85,282.66l.7,8.57a.51.51,0,0,0,1,.13l.74-2c.22-.61-.75-.87-1-.27l-.74,2,1,.14-.7-8.57c-.06-.64-1.06-.64-1,0Z"/><path d="M370.43,286.79a.5.5,0,0,0,0-1,.5.5,0,0,0,0,1Z"/><path d="M361.8,327.1a37.59,37.59,0,0,1-.8,15.08.5.5,0,0,0,1,.27,38.81,38.81,0,0,0,.8-15.62c-.1-.63-1.06-.36-1,.27Z"/><path d="M367,332v8a.5.5,0,0,0,1,0v-8a.5.5,0,0,0-1,0Z"/><path d="M370.59,332.89l.73,4.36a.52.52,0,0,0,.62.35.52.52,0,0,0,.35-.62l-.74-4.35a.49.49,0,0,0-.61-.35.51.51,0,0,0-.35.61Z"/><path d="M373.57,332.15l.73,3.63a.5.5,0,1,0,1-.26l-.72-3.63a.5.5,0,0,0-.62-.35.52.52,0,0,0-.35.61Z"/><path d="M377.29,330.07l2.91,4.36a.5.5,0,0,0,.86-.51l-2.91-4.35a.5.5,0,0,0-.86.5Z"/><path d="M384.22,331.07a.5.5,0,0,0,0-1,.5.5,0,0,0,0,1Z"/><path d="M320.12,387.56a43.34,43.34,0,0,0,9.54,3.63.5.5,0,0,0,.38-.91l-6.33-4.61-.39.92a43.67,43.67,0,0,1,10.43,3.54.5.5,0,0,0,.51-.86L325,383l-.39.92a62.82,62.82,0,0,1,11.1,4.07.5.5,0,0,0,.5-.87,48.35,48.35,0,0,1-8.9-7.3l-.49.83a67.35,67.35,0,0,1,13.22,6.3c.55.34,1-.51.5-.87a64.71,64.71,0,0,1-12.64-11.42l-.48.83a38.27,38.27,0,0,1,11.27,7.16c.47.43,1.18-.27.7-.71a39.42,39.42,0,0,0-11.71-7.41c-.51-.21-.77.5-.48.83A64.92,64.92,0,0,0,340,386.94l.5-.87a69,69,0,0,0-13.45-6.39c-.49-.17-.82.49-.49.84a49.49,49.49,0,0,0,9.11,7.46l.5-.87a64.4,64.4,0,0,0-11.33-4.17.51.51,0,0,0-.39.92l9.26,6.27.51-.86a45.31,45.31,0,0,0-10.67-3.65.51.51,0,0,0-.39.92l6.34,4.6.38-.91a43,43,0,0,1-9.3-3.53c-.57-.3-1.07.56-.5.86Z"/><path d="M343.9,377.66a38.4,38.4,0,0,0,9.5,5,.5.5,0,0,0,.38-.91,10.48,10.48,0,0,1-5.43-6.9l-.74.57,8.58,4.85c.48.27,1-.39.6-.78a43.91,43.91,0,0,1-6.64-7.57l-.68.68,11.33,6.09a.5.5,0,0,0,.6-.78l-7.59-8.54-.49.83a31.13,31.13,0,0,1,9.75,4.13c.47.31,1-.41.61-.78l-7.86-6.9-.61.78a86.42,86.42,0,0,0,12.07,7.17c.48.24,1.06-.39.61-.78l-11.43-9.91-.49.83a58.26,58.26,0,0,1,16.35,8.86c.46.36,1-.39.6-.78a49.78,49.78,0,0,0-12.61-9.84l-.39.91a32.21,32.21,0,0,1,13,8.49c.44.48,1.14-.23.71-.7a33.1,33.1,0,0,0-13.45-8.75.5.5,0,0,0-.39.91,49,49,0,0,1,12.41,9.68l.61-.78a59.31,59.31,0,0,0-16.58-9,.51.51,0,0,0-.49.84l11.43,9.91.6-.79a85.74,85.74,0,0,1-12.06-7.17c-.46-.33-1,.41-.61.79l7.86,6.89.6-.78a31.66,31.66,0,0,0-10-4.23.5.5,0,0,0-.49.83l7.6,8.54.6-.78L350,371.7c-.41-.22-1,.25-.68.68a44.54,44.54,0,0,0,6.8,7.77l.6-.78-8.57-4.86a.51.51,0,0,0-.74.57,11.46,11.46,0,0,0,5.9,7.49l.38-.91a38.09,38.09,0,0,1-9.26-4.86c-.52-.38-1,.49-.5.86Z"/><path d="M367.43,391.8a29.82,29.82,0,0,1,7.59,2.46.5.5,0,0,0,.61-.78,15.73,15.73,0,0,0-7-4.66l-.13,1a12.19,12.19,0,0,1,6,1.72.5.5,0,0,0,.6-.79l-4.83-4.45-.22.84a2,2,0,0,1,2.15.84l.68-.68a7.21,7.21,0,0,1-3-3.83l-.48.63a3.75,3.75,0,0,1,2.82,1.07c.4.38,1.11-.12.79-.61l-2.52-3.89c-.35-.54-1.21,0-.86.5l2.51,3.9.79-.61a4.79,4.79,0,0,0-3.53-1.36.51.51,0,0,0-.48.64,8.17,8.17,0,0,0,3.5,4.42.5.5,0,0,0,.68-.68,3,3,0,0,0-3.28-1.31.51.51,0,0,0-.22.84l4.84,4.45.6-.78a13.13,13.13,0,0,0-6.49-1.86.51.51,0,0,0-.14,1,14.63,14.63,0,0,1,6.52,4.39l.61-.78a31,31,0,0,0-7.83-2.57c-.63-.11-.9.85-.27,1Z"/><path d="M342.53,399.85l5.51,5.23a.5.5,0,0,0,.7-.71,58.05,58.05,0,0,1-4.82-6.52l-.56.74a9.57,9.57,0,0,1,5,3.22c.35.44,1.1-.13.78-.6L344.87,395l-.69.68,3.51,1.78a.51.51,0,0,0,.74-.56,10,10,0,0,0-2.34-4.95c-.43-.49-1.13.22-.71.71a9,9,0,0,1,2.08,4.51l.74-.57-3.51-1.78c-.42-.21-1,.24-.69.68l4.27,6.23.78-.6a10.4,10.4,0,0,0-5.43-3.48.5.5,0,0,0-.56.73,59.25,59.25,0,0,0,5,6.72l.7-.71-5.51-5.23c-.46-.44-1.17.26-.7.71Z"/><path d="M313.41,391.05l1.49,2.5.79-.61a34.9,34.9,0,0,1-8.45-11.13l-.78.6a11.74,11.74,0,0,1,4.51,9.7l.93-.25L307,384.49c-.3-.44-1.13-.18-.92.38l3.45,8.85.91-.38a29.33,29.33,0,0,1-1.9-3.25c-.27-.56-.53-1.12-.76-1.69a5.21,5.21,0,0,0-.35-.88c-.17-.27,0-.18-.19.09,0,0,0,0,0,0v-1h-.13a.5.5,0,0,0,0,1h.13c.62-.08.66-1,0-1a.86.86,0,0,0-.86.55,1.32,1.32,0,0,0,.15.82c.15.4.32.79.48,1.19a28.61,28.61,0,0,0,2.56,4.67c.29.44,1.13.18.91-.38L307,384.61l-.92.38,4.95,7.37a.51.51,0,0,0,.94-.25,12.62,12.62,0,0,0-4.81-10.4.5.5,0,0,0-.78.6,35.42,35.42,0,0,0,8.6,11.34c.41.36,1.09-.1.78-.6l-1.48-2.51a.5.5,0,0,0-.87.51Z"/><path d="M316.51,403.39l7.51,9.49c.35.45,1.08-.13.78-.6a20.43,20.43,0,0,1-3.05-9.11l-.86.35a27.67,27.67,0,0,1,4.1,6.87l.84-.48a7.26,7.26,0,0,1-2.34-5.29.5.5,0,0,0-1,0,8.26,8.26,0,0,0,2.63,6c.33.31,1,0,.84-.48a29.25,29.25,0,0,0-4.36-7.31.5.5,0,0,0-.85.35,21.37,21.37,0,0,0,3.19,9.61l.79-.6-7.51-9.5c-.4-.5-1.1.21-.71.71Z"/><path d="M378.67,425.12a43.07,43.07,0,0,1,10.55,9.37l.71-.7-8.18-9.55-.49.84A8.82,8.82,0,0,1,388,430.7l.83-.48a13,13,0,0,1-3.42-7.63l-.76.43a18.15,18.15,0,0,1,4.86,3.61.5.5,0,0,0,.83-.49l-.71-3.48c-.13-.63-1.1-.36-1,.26l.72,3.49.84-.49a19,19,0,0,0-5.06-3.76c-.31-.16-.79,0-.75.43a14.06,14.06,0,0,0,3.72,8.33.5.5,0,0,0,.83-.48,9.79,9.79,0,0,0-7.45-6.32.5.5,0,0,0-.49.83l8.18,9.54c.42.5,1.11-.21.71-.7a43.87,43.87,0,0,0-10.76-9.53c-.54-.35-1.05.52-.5.86Z"/><path d="M397.86,444.66l21.32,19.13.7-.71a70.3,70.3,0,0,1-16.27-18.85l-.79.61L420.9,461l.71-.7a72.72,72.72,0,0,1-16.18-17.7l-.68.69a127.17,127.17,0,0,1,17.47,13.64c.4.37,1.13-.13.79-.61-3.82-5.32-8.7-9.69-13.58-14l-.6.78A56.68,56.68,0,0,1,425.76,455c.39.39,1.14-.14.79-.61A68.74,68.74,0,0,0,414,441.55l-.22.83c2.9-.95,6,2.38,8.1,4l7.74,5.88c.4.3.95-.29.68-.68l-8.39-12.24-.68.68A46.86,46.86,0,0,1,432,449.65c.36.44,1.08-.13.78-.6L427,439.89l-.56.74a10.62,10.62,0,0,1,6.05,3.56c.42.49,1.13-.22.71-.71a11.56,11.56,0,0,0-6.5-3.82.51.51,0,0,0-.56.74l5.78,9.15.78-.6a47.23,47.23,0,0,0-11-9.81c-.41-.27-1,.27-.68.68l8.39,12.24.68-.68-8.93-6.79c-2.14-1.63-4.74-4.13-7.68-3.17-.31.1-.53.59-.22.84a67.42,67.42,0,0,1,12.4,12.63l.79-.61a57.29,57.29,0,0,0-17.14-12.06c-.48-.22-1.06.38-.61.78,4.82,4.26,9.66,8.56,13.42,13.81l.79-.61a128.21,128.21,0,0,0-17.68-13.8.5.5,0,0,0-.68.69A73.41,73.41,0,0,0,420.9,461c.49.39,1.2-.27.71-.7l-18.08-16.15a.5.5,0,0,0-.78.6,70.94,70.94,0,0,0,16.43,19.06c.49.39,1.19-.27.7-.71L398.57,444c-.48-.43-1.19.27-.71.7Z"/><path d="M354.05,461.17l22.41,15.16c.48.33,1-.38.6-.78-5.85-6.31-11.72-12.69-16.11-20.14l-.78.61,21.32,17.31a.5.5,0,0,0,.71-.71,143.41,143.41,0,0,1-12-17.17l-.78.6,15.48,15.17a.5.5,0,0,0,.71-.71,52.92,52.92,0,0,1-11.66-18l-.84.49,13.76,13.59a.51.51,0,0,0,.79-.61l-8.05-13.21-.68.69a56.58,56.58,0,0,1,9.17,7.9c.38.4,1.13-.15.78-.61q-4.2-5.49-8.21-11.12l-.56.73a19.13,19.13,0,0,1,8.82,5.37.5.5,0,0,0,.78-.6,32.38,32.38,0,0,1-3.26-6.79l-.61.62a21.45,21.45,0,0,0,4.68,1.27.51.51,0,0,0,.63-.48,3,3,0,0,1,.64-2.1c.39-.52-.48-1-.86-.51a3.78,3.78,0,0,0-.78,2.61l.63-.49a21.76,21.76,0,0,1-4.68-1.27.5.5,0,0,0-.61.62,33.3,33.3,0,0,0,3.36,7l.78-.6a19.94,19.94,0,0,0-9.26-5.63c-.39-.11-.82.37-.56.73q4,5.64,8.21,11.13l.79-.61a58.12,58.12,0,0,0-9.38-8.06c-.42-.29-.93.28-.68.69l8.05,13.21.78-.61-13.76-13.59c-.33-.33-1,0-.84.49a54.33,54.33,0,0,0,11.92,18.47l.71-.71-15.49-15.16a.5.5,0,0,0-.78.6,143.85,143.85,0,0,0,12.14,17.38l.71-.71-21.33-17.31c-.41-.34-1.09.09-.78.61,4.43,7.52,10.36,14,16.27,20.33l.6-.78-22.4-15.17c-.54-.36-1,.51-.51.87Z"/><path d="M214.2,527.43a45.57,45.57,0,0,0,9.74-9.72c.38-.52-.49-1-.86-.51a43.68,43.68,0,0,1-9.39,9.37c-.51.37,0,1.24.51.86Z"/><path d="M212.84,523.58a57.13,57.13,0,0,1,10.61-8,.5.5,0,0,0-.5-.86,58.24,58.24,0,0,0-10.82,8.11c-.46.45.24,1.16.71.71Z"/><path d="M211.7,518.28a68.62,68.62,0,0,1,10.1-4.89c.59-.23.33-1.2-.27-1a71.23,71.23,0,0,0-10.34,5,.5.5,0,0,0,.51.87Z"/><path d="M211.57,513.92a20.91,20.91,0,0,0,6.79-2.7c.54-.34,0-1.2-.51-.86A19.77,19.77,0,0,1,211.3,513c-.63.13-.36,1.1.27,1Z"/><path d="M208.62,511.54l9.48-2c.62-.14.36-1.1-.27-1l-9.47,2c-.63.13-.36,1.1.26,1Z"/><path d="M207.82,507.47a19.33,19.33,0,0,0,7.39-1.47.52.52,0,0,0,.35-.62A.5.5,0,0,0,215,505a18.39,18.39,0,0,1-7.13,1.44.5.5,0,0,0,0,1Z"/><path d="M207.09,503.81l7.26-.74c.63-.06.64-1.06,0-1l-7.26.74c-.63.06-.64,1.06,0,1Z"/><path d="M206.51,500.22l5.15-1.13c.63-.14.36-1.1-.27-1l-5.15,1.14c-.63.14-.36,1.1.27,1Z"/><path d="M205,496.51l5.08-.75a.51.51,0,0,0,.35-.62.52.52,0,0,0-.62-.35l-5.07.75a.5.5,0,0,0-.35.62.51.51,0,0,0,.61.35Z"/><path d="M204.19,491.5h3.63a.5.5,0,0,0,0-1h-3.63a.5.5,0,0,0,0,1Z"/><path d="M201.29,487.14h2.18a.51.51,0,0,0,.5-.5.51.51,0,0,0-.5-.5h-2.18a.5.5,0,1,0,0,1Z"/><path d="M199.84,482.79l5,.59a.49.49,0,0,0,.48-.37.5.5,0,0,0-.23-.56,4,4,0,0,0-2.37-.64c-.64,0-.64,1,0,1a3.11,3.11,0,0,1,1.87.5l.25-.93-5-.59a.5.5,0,0,0-.5.5.51.51,0,0,0,.5.5Z"/><path d="M196.07,477.69l4.36.72a.5.5,0,0,0,.61-.35.49.49,0,0,0-.35-.61l-4.35-.73a.5.5,0,0,0-.27,1Z"/><path d="M193.3,474.12l7.25.76c.64.06.64-.94,0-1l-7.25-.76c-.64-.06-.64.94,0,1Z"/><path d="M191.72,471.15l11.42,2.06.26-1-3.43-.61c-.63-.11-.9.85-.27,1l3.44.6c.63.11.9-.85.26-1L192,470.18c-.62-.11-.89.85-.26,1Z"/><path d="M186.63,463.91a85,85,0,0,1,14.42,4.62l.38-.92-2.91-1.05c-.61-.22-.87.75-.27,1l2.92,1.06c.52.19.91-.7.38-.92A86.54,86.54,0,0,0,186.9,463c-.63-.14-.9.82-.27,1Z"/><path d="M183.66,454.32l15.42,8.14a.5.5,0,0,0,.73-.56,6.61,6.61,0,0,0-3.37-4c-.57-.28-1.08.58-.5.87a5.6,5.6,0,0,1,2.91,3.38l.73-.56-15.42-8.14c-.57-.3-1.07.56-.5.86Z"/><path d="M177.92,447.23a84.89,84.89,0,0,1,18,6.9.5.5,0,0,0,.51-.86L195,452.15c-.51-.39-1,.48-.5.86l1.47,1.12.51-.86a86,86,0,0,0-18.26-7,.5.5,0,0,0-.26,1Z"/><path d="M185.32,447.94a.5.5,0,0,0,0-1,.5.5,0,0,0,0,1Z"/><path d="M129,192.85A41.58,41.58,0,0,0,126.82,173a40.33,40.33,0,0,0-4.53-8.87c-.48-.71-1.44-2.73-2.56-2.53a.8.8,0,0,0-.34,1.41.51.51,0,0,0,.49.12l.13,0c.61-.21.35-1.17-.26-1l-.14,0,.49.13.25.83c.13.16.25.33.37.49l.59.84c.35.51.69,1,1,1.55.65,1,1.25,2.12,1.8,3.23a40.54,40.54,0,0,1,3.9,23.36c-.09.63.88.9,1,.27Z"/><path d="M131.15,191.42a36,36,0,0,0-7.46-28.66c-.41-.5-1.11.21-.71.71a34.87,34.87,0,0,1,7.21,27.69c-.11.62.85.89,1,.26Z"/><path d="M135,191.92a41.56,41.56,0,0,0-8.55-29.61c-.39-.51-1.09.21-.7.71a40.62,40.62,0,0,1,8.25,28.9c-.06.64.94.63,1,0Z"/><path d="M187.41,203.58l3.49,5.72a.51.51,0,0,0,.92-.39,18.69,18.69,0,0,1-.76-6.69l-1,.13a12.49,12.49,0,0,1,.51,5.88.5.5,0,0,0,.23.56.5.5,0,0,0,.6-.08,19.12,19.12,0,0,0,3.2-5.73c.21-.61-.75-.87-1-.27a17.89,17.89,0,0,1-2.94,5.3l.83.48a13.24,13.24,0,0,0-.51-6.4.5.5,0,0,0-1,.13,19.52,19.52,0,0,0,.79,7l.92-.39-3.5-5.72c-.34-.54-1.2,0-.86.51Z"/><path d="M198.86,187.08a17.77,17.77,0,0,1,3.44,4.84c.23.47.91.21.93-.25l.2-5.56-1,.13a12.21,12.21,0,0,1,.59,5.43c-.05.39.45.61.75.43a7.43,7.43,0,0,0,3.37-4.32.5.5,0,0,0-1-.27,6.38,6.38,0,0,1-2.91,3.73l.76.43a13,13,0,0,0-.62-5.7.5.5,0,0,0-1,.14l-.2,5.56.93-.26a18.09,18.09,0,0,0-3.6-5,.5.5,0,0,0-.7.7Z"/><path d="M67.35,184.76a7.21,7.21,0,1,1-7.41-12.36l-.5-.87c-2.71,1.67-5.91.19-7.5-2.29a11.57,11.57,0,0,1-1.59-7.3,14,14,0,0,1,7.89-11.26l-.68-.68c1.88-4,6.15-6.67,10.63-5.67a9.52,9.52,0,0,1,7.18,9.5.51.51,0,0,0,.94.26c1.14-1.91,3.69-.5,4.39,1a12.89,12.89,0,0,1,.66,5.46c-.06,3-.54,6.93-3.69,8.22-.59.25-.33,1.21.27,1,4.19-1.72,4.53-6.93,4.4-10.85-.07-2.15-.3-4.88-2.35-6.12a3.27,3.27,0,0,0-4.55.8l.93.25c.2-6-5.05-11.31-11.1-10.63a10.8,10.8,0,0,0-7.21,4c-.61.78-1.57,1.92-1.15,3,.26.64,1.11,1.19,1.51.34a.5.5,0,0,0-.68-.68,15,15,0,0,0-8.45,13.5,11.41,11.41,0,0,0,2.94,7.89,6.31,6.31,0,0,0,7.71,1.19c.55-.34.05-1.2-.5-.87a8.21,8.21,0,1,0,8.41,14.09.5.5,0,0,0-.5-.86Z"/><path d="M63.94,176.53a7.92,7.92,0,0,1,2.48-7c.48-.43-.23-1.14-.7-.71A8.91,8.91,0,0,0,63,176.79c.1.64,1.06.37,1-.26Z"/><path d="M83,205.67c-4.18-2.34-4.59-9.26-.61-12,.53-.37,0-1.24-.51-.87-4.57,3.16-4.26,11,.62,13.74.56.32,1.07-.55.5-.86Z"/><path d="M89.9,186.94c1.1-2.78,6-2.75,7.09,0,.23.59,1.19.33,1-.27-1.1-2.86-5-3.62-7.47-2a4.14,4.14,0,0,0-1.55,1.93c-.24.6.73.86,1,.27Z"/><path d="M139,363.48c.75-2.37,4.18-2.45,5.86-1.1a6.23,6.23,0,0,1,2,4,11.32,11.32,0,0,1,.09,2.4,18.56,18.56,0,0,0-.21,2.46,1.61,1.61,0,0,0,1.19,1.58,1.22,1.22,0,0,0,1.52-.82c.14-.63-.82-.9-1-.27,0,.2-.33.15-.47.07-.32-.2-.29-.72-.27-1,.05-.8.21-1.58.23-2.38a10,10,0,0,0-.86-4.59,5.41,5.41,0,0,0-6.39-3.06,3.81,3.81,0,0,0-2.71,2.52c-.2.61.77.88,1,.26Z"/><path d="M158.31,392.58a4.79,4.79,0,0,1,2.69-3.12,3.1,3.1,0,0,1,1.89-.32.45.45,0,0,1,.18.07l.1.08s.1-.18.15-.21h0c.06,0,.07,0,0,0,.09,0,0,0,0,0s0,.05,0,0c.12.15.24.4,0,.57.52-.37,0-1.24-.51-.87a.66.66,0,0,0-.21,1,1.05,1.05,0,0,0,.82.35.78.78,0,0,0,.78-.58,1.07,1.07,0,0,0-.51-1.11,3.05,3.05,0,0,0-2.51,0,5.86,5.86,0,0,0-2.27,1.39,5.7,5.7,0,0,0-1.51,2.57.5.5,0,0,0,1,.27Z"/><path d="M160.36,387.06a9.21,9.21,0,0,0-3.8-6.15.5.5,0,0,0-.68.18.5.5,0,0,0,.18.68,8.28,8.28,0,0,1,3.34,5.56.5.5,0,0,0,.61.35.52.52,0,0,0,.35-.62Z"/><path d="M157.72,406.74c1.43-1.33,3.15-3,5.22-3.05,1.62-.05,3.87,1.6,3,3.41a.5.5,0,0,0,.56.73c1.48-.41,1.82-1.91,2.91-2.77s2.23.47,3,1l3.24,2.19c.54.36,1-.51.51-.87l-3.68-2.48c-.83-.56-1.76-1.35-2.84-1.1-1.65.38-1.89,2.62-3.44,3.05l.56.73c1-2.1-.73-4.26-2.79-4.79-2.72-.69-5.2,1.52-7,3.22-.48.44.23,1.15.7.71Z"/><path d="M295.45,405.46a9.69,9.69,0,0,1,.09,9.16l.86.51a5.24,5.24,0,0,1,7-2.08.5.5,0,0,0,.5-.87,6.26,6.26,0,0,0-8.34,2.44c-.3.57.56,1.08.86.51a10.67,10.67,0,0,0-.09-10.17.5.5,0,0,0-.86.5Z"/><path d="M257.69,353.92l2.72,4.26a.5.5,0,0,0,.91-.39,5.59,5.59,0,0,1,.73-4.27l-.93-.25v4.66a.5.5,0,0,0,.75.44,9.1,9.1,0,0,0,3.31-4.35c.21-.61-.75-.87-1-.27a7.81,7.81,0,0,1-2.85,3.75l.76.43v-4.66a.5.5,0,0,0-.93-.25,6.56,6.56,0,0,0-.83,5l.91-.39-2.71-4.26c-.35-.54-1.22,0-.87.51Z"/><path d="M264.09,314.22a20.48,20.48,0,0,1,5.74,8.27c.18.49,1,.47,1-.13a36.33,36.33,0,0,1,.34-9.14l-.91.12a8.36,8.36,0,0,1,0,7.78l.87.51a16.68,16.68,0,0,1,4.54-5.95c.49-.41-.22-1.11-.71-.7a17.25,17.25,0,0,0-4.7,6.14c-.26.58.56,1.09.87.51a9.4,9.4,0,0,0,0-8.79.5.5,0,0,0-.91.12,37,37,0,0,0-.38,9.4l1-.13a21.31,21.31,0,0,0-6-8.71c-.48-.42-1.19.28-.71.7Z"/><path d="M293.92,323.58a15.56,15.56,0,0,1,4.29,5.56c.25.53,1,.14.91-.39a5.55,5.55,0,0,1,.76-4.29H299l1.24,2.81a.5.5,0,0,0,.68.18l2.88-1.66a.5.5,0,0,0-.51-.86l-2.87,1.65.68.18L299.88,324c-.16-.36-.68-.28-.86,0a6.56,6.56,0,0,0-.86,5.07l.91-.39a16.14,16.14,0,0,0-4.45-5.75c-.49-.41-1.2.3-.7.7Z"/><path d="M278,230.61a25.66,25.66,0,0,1,5,7.08c.26.54,1,.14.92-.39a10.62,10.62,0,0,1,.79-6.64l-.92-.12a22.15,22.15,0,0,1,.59,6.93c0,.48.55.59.85.35a11.12,11.12,0,0,0,3.66-5.12c.22-.61-.75-.87-1-.27a10.3,10.3,0,0,1-3.41,4.69l.86.35a23.28,23.28,0,0,0-.62-7.2.51.51,0,0,0-.92-.12,11.86,11.86,0,0,0-.89,7.42l.92-.39a27,27,0,0,0-5.11-7.28c-.45-.46-1.16.25-.71.71Z"/><path d="M228.41,84.61a30.12,30.12,0,0,1,2.14,9.31c0,.64,1,.64,1,0a31,31,0,0,0-2.18-9.58c-.23-.59-1.2-.33-1,.27Z"/><path d="M233.47,84.62l2.91,9.43a.5.5,0,0,0,1-.26l-2.9-9.44c-.19-.61-1.16-.35-1,.27Z"/><path d="M238.55,82.44,240,88.25c.15.62,1.12.36,1-.27l-1.45-5.81a.5.5,0,0,0-1,.27Z"/><path d="M243.53,81l.71,2.18a.5.5,0,1,0,1-.26l-.71-2.18a.5.5,0,0,0-1,.26Z"/><path d="M261.92,73.08a7.16,7.16,0,0,1,.56,4.73c-.14.63.82.9,1,.27a8.23,8.23,0,0,0-.67-5.5c-.29-.58-1.15-.07-.86.5Z"/><path d="M264,92.34a8.21,8.21,0,0,1,8.75-12.29.51.51,0,0,0,.57-.73,1.84,1.84,0,0,1,.59-2.58,1.81,1.81,0,0,1,2.48,1.32c.14.63,1.1.36,1-.27a2.71,2.71,0,1,0-4.9,2l.57-.73a9.21,9.21,0,0,0-9.89,13.75.5.5,0,0,0,.87-.5Z"/><path d="M200.79,99.73v3.63a.5.5,0,0,0,1,0V99.73a.5.5,0,1,0-1,0Z"/><path d="M206,98.63l.72.73a.52.52,0,0,0,.35.14.52.52,0,0,0,.36-.14.48.48,0,0,0,.14-.36.5.5,0,0,0-.14-.35l-.73-.73a.51.51,0,0,0-.7,0,.49.49,0,0,0-.15.36.49.49,0,0,0,.15.35Z"/><path d="M210,96.6a.5.5,0,0,0,0-1,.5.5,0,0,0,0,1Z"/><path d="M214.12,69.53a10.27,10.27,0,0,1-13-15.45c.39-.49-.25-1.18-.7-.7-2.92,3.07-8.39,2.38-10.86-.93-2.77-3.69-1.41-9.11,1.78-12.05.48-.44-.23-1.14-.7-.71C187,43,185.66,49.25,189,53.3c2.91,3.57,8.92,4.2,12.16.78l-.7-.7a11.26,11.26,0,0,0,14.21,17c.56-.3.06-1.17-.51-.86Z"/></g></g></svg>