<svg xmlns="http://www.w3.org/2000/svg" viewBox="0 0 331.97 337.03"><g id="Layer_2" data-name="Layer 2"><g id="Layer_7_135" data-name="Layer 7,135"><path d="M18.77,179.69c8.93-.25,17.63-4.14,26-6.87L71,164.33c9.23-3,5-17.81-4-14.46l-25.91,9.65c-8.24,3.07-17.83,5.38-24.94,10.67-3.75,2.79-2.95,9.66,2.57,9.5Z"/><path d="M47.54,84.88c1.19,10.66,5.09,20.86,7.45,31.32s4.48,21.26,6,32c.56,4,5.69,6.23,9.23,5.24,4.32-1.21,5.8-5.18,5.24-9.22a256,256,0,0,0-6.34-31.92C66.33,102.14,63.71,91,57.91,82.07c-2.72-4.19-11-3.08-10.37,2.81Z"/><path d="M50,92.64c9.87-1.51,18.95-5.53,28.47-8.35,8.85-2.61,17.55-5.85,26.22-9,18-6.6,36-13.36,54-20q54-20,108-39.9C275.84,12,271.78-3,262.53.52Q208.2,21,153.74,41.11c-18,6.67-36,13.26-53.95,20-8.89,3.36-18,6.6-26.57,10.64C64.26,76,54.81,78.67,46.37,84c-4.81,3-1.49,9.47,3.65,8.68Z"/><path d="M260.64,11.63c-.59,7.9,3.29,16.95,6.16,24.18,3.07,7.74,6.07,15.51,8.9,23.35q8.64,24,15.52,48.48a703.74,703.74,0,0,1,20.36,99.47c2.46,19,3.14,38.16,5.37,57.15,1.1,9.34,14.83,9.91,15,0,.3-17.18-2.05-34.58-4.16-51.64-2.14-17.22-4.83-34.37-8.17-51.41a724.38,724.38,0,0,0-27.28-99.93q-4.9-14-10.39-27.74c-3.29-8.22-7.25-19.1-14.41-24.77-2.79-2.2-6.63-.83-6.9,2.86Z"/><path d="M1.65,175.26c-3,4.32-1.16,11.59,0,16.37,1.5,6.06,3.52,12,5.28,18l10.65,36c7.1,24,14.23,48,20.62,72.23,2.74,10.38,19.41,5.74,16.05-4.43-8-24.1-15.16-48.44-22.4-72.76l-10.72-36c-1.78-6-3.27-12.15-5.41-18-1.88-5.15-4.12-11.2-9.46-13.35-1.76-.71-3.66.51-4.63,1.88Z"/><path d="M45.93,320.92c8.33.56,17.82-1.49,26.09-2.66,8.74-1.23,17.46-3.07,26.13-4.71,9.47-1.79,5.46-16.25-4-14.47-8.65,1.64-17.46,3.06-26,5.18-8.14,2-17.2,3.57-24.79,7.16-4.94,2.33-2,9.19,2.57,9.5Z"/><path d="M92.16,306.77c-.65,3.8-1,7-.17,10.82a20.88,20.88,0,0,1,.33,9.62c-2.94,11.75,16.48,13.56,15.76,2.14-.3-4.81-.36-9.58-1.31-14.32-1-5-3.48-8.23-7.72-11.06-2.35-1.57-6.39-.1-6.89,2.8Z"/><path d="M100,336.92c19.37-1.06,37.81-5.14,56.68-9.4,19.16-4.32,38.16-9.21,57.1-14.44,18.61-5.14,37-11.1,55.58-16.26,9.3-2.59,18.47-5.59,27.63-8.69,9.44-3.2,19.08-5.86,28.45-9.22,10.8-3.88,6.33-21.09-4.8-17.41-9.18,3-18.13,6.65-27.35,9.59s-18.48,5.66-27.55,8.94c-18.07,6.54-37,11.32-55.52,16.51s-37.24,10.2-55.9,15.16S117,321.05,98.8,328.06c-4.39,1.7-4.27,9.16,1.2,8.86Z"/><path d="M140.12,316.82A103.42,103.42,0,0,1,129,296.63c-3.24-7.46-6.22-15-9.29-22.57-.45-1.11-1.06-3.91-2.84-3.43-1.31.36-1,2.09.09,2.48a1,1,0,0,0,1-.26l.09-.1c.84-1-.57-2.38-1.42-1.41l-.08.1,1-.26-.1,0,.6.46,0,.35-.46.59c-.64-.19-.76,0-.37.48l.37.9.55,1.35,1.29,3.16c.86,2.1,1.71,4.21,2.57,6.31,1.56,3.83,3.11,7.66,4.74,11.46,3.23,7.56,6.86,15,11.75,21.62.76,1,2.5,0,1.73-1Z"/><path d="M171,308.23q-4.78-11-9.71-22-2.43-5.43-4.89-10.85l-1.23-2.7a2.78,2.78,0,0,0-1.09-1.52c-1.08-.55-2,.45-1.76,1.51a1,1,0,0,0,.7.7l.14,0a1,1,0,0,0,.53-1.93l-.14,0,.7.7,0,.2-.46.6.15-.08-.77.1c.06,0,.65,1.63.75,1.85l1,2.26,2,4.52c1.4,3.08,2.79,6.18,4.17,9.27q4.08,9.17,8.08,18.38c.52,1.18,2.24.16,1.73-1Z"/><path d="M153.13,271.94c14.64-3.53,27.78-11.13,41.83-16.31,2-.73,4-1.41,6-2,1-.32,2.1-.61,3.15-.89l1.49-.37c.21-.06.42-.11.64-.15l.42-.1c.38,0,.49-.29.34-.81l.71-.29h-.21c-1.28.09-1.29,2.09,0,2a1.48,1.48,0,0,0,.79-2.68,2.5,2.5,0,0,0-1.95-.21c-1.14.22-2.27.54-3.39.84a111.64,111.64,0,0,0-12.2,4.16c-8.09,3.23-15.92,7.09-24,10.3A106.36,106.36,0,0,1,152.6,270c-1.25.3-.72,2.23.53,1.93Z"/><path d="M227.8,296.67a228.63,228.63,0,0,1-22.9-43.43c-.46-1.19-2.4-.67-1.93.53a230,230,0,0,0,23.11,43.91c.71,1.06,2.44.06,1.72-1Z"/><path d="M114.87,269.2c23.36-9.13,46.74-18.18,70.06-27.42,22.71-9,45.32-18.29,67.49-28.56q9.3-4.32,18.49-8.87,4.69-2.34,9.36-4.75l4.65-2.43,2.1-1.12,1.06-.57.63-.34a3.45,3.45,0,0,0,1.15-.71c-1.27.21-.73,2.14.53,1.93,2.14-.35,1.32-3.45-.58-3.57-1.26-.08-2.53.85-3.59,1.42l-4.42,2.34q-8.67,4.53-17.47,8.8c-11.58,5.64-23.31,11-35.13,16.07-23.9,10.33-48.16,19.79-72.41,29.26l-42.45,16.59c-1.19.47-.67,2.4.53,1.93Z"/><path d="M262,283.65l-9.72-21.92-4.8-10.85c-1-2.17-2.33-6.4-5.52-5.47a1,1,0,0,0,.53,1.93c1.34-.39,2.16,2.06,2.56,3l2.2,5,4.31,9.72,8.71,19.66c.52,1.18,2.25.16,1.73-1Z"/><path d="M243,243.12c-1-.16-.83-1.34-.33-1.94a6.3,6.3,0,0,1,2.78-1.48c2.24-.84,4.5-1.66,6.76-2.44q7-2.44,14.15-4.54c9.5-2.81,19.14-5.16,28.86-7.06l-1.27-1q1.26,11.67,2.08,23.37c.26,3.86.5,7.72.69,11.58.1,2,.19,3.95.27,5.92,0,.51.45,5.25-1,4.29-1.09-.7-2.09,1-1,1.73a2.58,2.58,0,0,0,3.43-.74c1.1-1.45.7-3.59.63-5.28q-.27-6.78-.7-13.56-.87-13.68-2.34-27.31a1,1,0,0,0-1.26-1q-13.17,2.58-26.1,6.26-6.45,1.83-12.82,3.95c-4.09,1.36-8.25,2.67-12.21,4.36-1.53.65-3.13,1.73-3.28,3.53a2.87,2.87,0,0,0,2.19,3.21c1.26.2,1.8-1.73.53-1.92Z"/><path d="M290.66,194.86c1.74-.79,3.44,5,3.85,6,1,2.45,2,4.92,3,7.39,1.91,4.87,3.74,9.78,5.42,14.75a166.57,166.57,0,0,1,7.52,30.46,108.72,108.72,0,0,1,1,17.76l1.87-.51-1.22-2a1,1,0,0,0-1.73,1l1.22,2a1,1,0,0,0,1.86-.5c.57-22.94-6.67-45.07-15.07-66.12-1.18-3-2.33-6-3.63-8.9-.89-2-2.71-4.13-5.09-3.05-1.17.54-.15,2.26,1,1.73Z"/><path d="M290.49,195.73a95.18,95.18,0,0,1,22.64-4.68l-.27-2-1.37.21c-1.27.19-.73,2.12.53,1.92l1.38-.2c1.1-.17.85-2.06-.27-2A97,97,0,0,0,290,193.8c-1.21.41-.69,2.34.53,1.93Z"/><path d="M292.52,193a39.62,39.62,0,0,0-5.85-12.71,1,1,0,0,0-1.87.5l-.53,11.58c-.06,1.28,1.94,1.28,2,0l.53-11.58-1.86.51a37.92,37.92,0,0,1,5.65,12.24,1,1,0,0,0,1.93-.54Z"/><path d="M286.49,180.43c1.08.08,2-.43,3.06-.53a20.58,20.58,0,0,1,3,.07,46.67,46.67,0,0,1,6.63,1.15c2,.43,4,.75,6,1.18a20.87,20.87,0,0,0,5.38.72,1,1,0,0,0,0-2c-.31,0-.61,0-.91,0a1,1,0,0,0,0,2c.3,0,.6,0,.91,0v-2a21.9,21.9,0,0,1-5.56-.8c-2.06-.42-4.14-.78-6.2-1.23a44.38,44.38,0,0,0-6.26-1,23.74,23.74,0,0,0-3-.07c-1,.07-2,.61-3.06.53-1.28-.09-1.28,1.91,0,2Z"/><path d="M98.83,226A10.3,10.3,0,0,1,86,211.09c.49-.83-.52-2-1.37-1.37a4.54,4.54,0,0,1-5.2-.28,6,6,0,0,1-2.55-5.62,11.4,11.4,0,0,1,3.35-6.61c1-1.09,4.14-3.51,5.54-1.65v-1c.59,0,.72-.06.38-.31a1.45,1.45,0,0,1-.24-.57,3.89,3.89,0,0,1,.3-1.38A9.12,9.12,0,0,1,87.29,190a8.7,8.7,0,0,1,14.14-.52,1,1,0,0,0,1.57-.2,6.67,6.67,0,0,1,12.23,3.89,1,1,0,0,0,1.7.7,6.31,6.31,0,0,1,8.58-.7c2.85,2.24,3.32,6.34,2.22,9.59-.34,1,1,1.6,1.67,1,1.56-1.43,3.46,2,3.85,3.06a15.5,15.5,0,0,1,.87,6.11,15.2,15.2,0,0,1-5.28,10.76,15.87,15.87,0,0,1-11.26,3.6c-.79-.07-2-.58-2.72-.2A28.2,28.2,0,0,0,112.5,229a16.23,16.23,0,0,1-5.74,2.4c-3.78.77-10.24.32-11.45-4.25a1,1,0,0,0-1.92.53c1.14,4.32,6,5.95,10,6a17.8,17.8,0,0,0,12.66-5.07l-1,.26a17.25,17.25,0,0,0,19.76-23.46c-1-2.49-4.27-5.5-6.88-3.12l1.68,1c1.39-4.11.48-9.21-3.16-11.88-3.26-2.38-8.33-2.13-11,1.05l1.71.71a8.67,8.67,0,0,0-16-4.9l1.57-.21a10.77,10.77,0,0,0-18.92,5.06c-.25,1.78,2.13,4.83,3.54,2.43a1,1,0,0,0,0-1c-1.86-2.46-5.1-1.64-7.27,0a13.68,13.68,0,0,0-5.26,8.58A8,8,0,0,0,78,210.89a6.56,6.56,0,0,0,7.6.55l-1.36-1.36a12.29,12.29,0,0,0,15.12,17.81c1.18-.48.67-2.41-.53-1.93Z"/><path d="M97,306.94l-21.8-52.72-6.19-15a1,1,0,0,0-1.47-.6l-14.66,9.5-7.13,4.62-3.77,2.44a12.93,12.93,0,0,1-1.67,1.09c-.2.09-.42.09-.62.16a.65.65,0,0,1-.24,0c-.3-.09-.28.13.08.64.56-1.15-1.16-2.16-1.72-1-1,2.12,1.79,2.78,3.29,2.06a40.23,40.23,0,0,0,4.41-2.83l4.61-3,18.43-12-1.47-.6L88.85,292.5l6.18,15c.49,1.17,2.43.66,1.93-.53Z"/><path d="M37.21,214.32l6.15,26.4a1,1,0,0,0,1.47.6A308.18,308.18,0,0,1,83.2,225.14c1.21-.42.69-2.35-.54-1.93a314.24,314.24,0,0,0-38.84,16.38l1.47.6-6.15-26.41c-.3-1.25-2.22-.72-1.93.54Z"/><path d="M39.44,213.73c-.43-1.48-2-3.83-1-5.33.85-1.27,2.92-1.37,4.29-1.55A36.77,36.77,0,0,0,52.54,204c6.6-2.85,12.5-7,18.92-10.24a50.33,50.33,0,0,1,5.54-2.4,9.54,9.54,0,0,1,1.54-.5c.86-.14,1.1.23,1.21,1A13.3,13.3,0,0,1,79.6,195c-.12,1.28,1.88,1.27,2,0,.16-1.66.58-3.94-.62-5.34-1.44-1.67-3.76-.56-5.43.08a79.29,79.29,0,0,0-11.36,5.69c-3.64,2.1-7.25,4.3-11.06,6.09a43.2,43.2,0,0,1-12,3.51c-1.78.29-3.75.89-4.63,2.62-1.13,2.22.37,4.46,1,6.58a1,1,0,0,0,1.92-.53Z"/><path d="M64.7,116.77a26.58,26.58,0,0,0,19.79-6.64l-1.68-.44,18.28,48,5.21,13.68.46-1.13L82.39,181.8l-12,5.71a32,32,0,0,0-9.19,5.93h1.41a57.2,57.2,0,0,1-15.52-23.19c-.43-1.21-2.36-.69-1.93.53a59.32,59.32,0,0,0,16,24.08,1,1,0,0,0,1.41,0c2.69-2.71,6.14-4.36,9.54-6l11.74-5.57L107.77,172a1,1,0,0,0,.46-1.13L90,122.84l-5.21-13.68a1,1,0,0,0-1.67-.44,24.63,24.63,0,0,1-18.37,6c-1.29-.11-1.28,1.89,0,2Z"/><path d="M99.13,104.06a171.25,171.25,0,0,1,40-17.15c1.95-.55,5.95-1.67,6.31,1.36a13.5,13.5,0,0,0,.34,3.3,3,3,0,0,0,3.1,1.83,30.17,30.17,0,0,0,4.6-.82q2.67-.57,5.31-1.32a86.42,86.42,0,0,0,10.12-3.62c1.81-.79,3.6-1.63,5.35-2.55,1.34-.69,2.71-1.37,3-3s-.45-3.58-.81-5.17L175,70.38c-.28-1.25-2.21-.72-1.92.53l1.17,5.16.64,2.82a9.71,9.71,0,0,1,.49,2.6c-.11,1.39-2.69,2.19-3.73,2.7-1.63.8-3.29,1.55-5,2.23a79.84,79.84,0,0,1-9.72,3.27c-1.62.43-3.25.82-4.89,1.15-1.15.23-4.15,1.33-4.5-.34-.23-1.07,0-2.19-.27-3.27a3.72,3.72,0,0,0-1.91-2.4c-2.23-1.16-5-.37-7.21.28A170.94,170.94,0,0,0,118.76,92a173.17,173.17,0,0,0-20.64,10.38,1,1,0,0,0,1,1.72Z"/><path d="M175.5,68.93q28.32-8.49,56.13-18.57a1,1,0,0,0,.6-1.47c-1.87-3.43-3.73-6.87-5.62-10.29-1.23-2.22-3.16-4.78-6-4.08-1.25.3-.72,2.23.53,1.92,2.45-.59,4.08,3.75,5,5.36l4.43,8.1.59-1.47Q203.31,58.51,175,67a1,1,0,0,0,.53,1.92Z"/><path d="M97.51,103.67a155.93,155.93,0,0,1-9.77-27.61,1,1,0,0,0-1.93.54,159,159,0,0,0,10,28.08c.54,1.17,2.27.15,1.73-1Z"/><path d="M221,29.27l.4,0c.26,0-.22,0,0,0l.2,0a7.36,7.36,0,0,1,.8.24c.1,0,.05,0,0,0l.21.1a3.9,3.9,0,0,1,.35.19,3.78,3.78,0,0,1,.33.22s.24.18.06,0l.15.13a6,6,0,0,1,.57.56l.13.15c.16.2-.12-.17,0,.05s.15.22.22.33a4,4,0,0,1,.2.35l.08.18c.06.1-.06-.17,0,0a6.18,6.18,0,0,1,.24.84l1.67-1-.24-.22-.1-.12c.07.1.07.1,0,0l-.12-.21c-.05-.11-.05-.1,0,0a.88.88,0,0,1-.05-.15,3,3,0,0,1-.08-.32c0,.18,0,.05,0,0s0-.4,0-.14a1.57,1.57,0,0,1,.08-.31l-.46.59c.19-.1-.22.08,0,0s-.24,0,0,0-.25,0-.06,0,.19.08,0,0,0,0,.06,0,0,0,0,0,.11.1.13.12,0,.06,0,0,.2.35.12.18,0,0,0,.05c.06.24,0-.05,0-.05a.49.49,0,0,1,0,.17s.07-.27,0-.06.1-.21,0,0,.15-.16,0,0a1,1,0,0,0,1.41,1.42A2.29,2.29,0,0,0,226,28.9a1.89,1.89,0,0,0-1.34.21c-.52.29-.62,1.08-.6,1.62a3.32,3.32,0,0,0,1.16,2.42,1,1,0,0,0,1.21.16,1.05,1.05,0,0,0,.46-1.13A6.3,6.3,0,0,0,221,27.27a1,1,0,0,0-1,1,1,1,0,0,0,1,1Z"/><path d="M293.47,109.45q-19.67,6.09-38.89,13.46l1.23.7A289.17,289.17,0,0,0,239.34,67.5l-.7,1.23q8.19-2.7,16.55-4.8c2.71-.68,5.43-1.3,8.16-1.88,1.4-.3,2.81-.58,4.22-.85l2.12-.4c.31-.06.62-.13.94-.17a2.24,2.24,0,0,1,.58-.05.48.48,0,0,0,.56-.35c-1.29-.06-1.28,1.94,0,2a1.68,1.68,0,0,0,1.67-1.92A2.12,2.12,0,0,0,271,58.58a32.65,32.65,0,0,0-5.16.92c-1.87.37-3.75.76-5.62,1.18Q249,63.19,238.11,66.8a1,1,0,0,0-.7,1.23,289.17,289.17,0,0,1,16.47,56.11,1,1,0,0,0,1.23.7q19.22-7.38,38.89-13.46c1.23-.38.71-2.31-.53-1.93Z"/><path d="M132.63,217.78c-.59,3.56.94,7.94,4.75,9,3.32.91,7.11-1.41,7.32-4.92h-2a4.33,4.33,0,0,0,2.75,4.12,4.65,4.65,0,0,0,5.17-1.05c3.31-3.25,1.58-8.11-1.36-10.9l.15,1.21a8.48,8.48,0,0,0-2.5-12.44,8.83,8.83,0,0,0-2.24-.95,16.82,16.82,0,0,1-2.22-.28c-.41-.18-.47-1.41-.67-1.89a5.54,5.54,0,0,0-10.7,1.84c-.11,1.28,1.89,1.27,2,0a3.57,3.57,0,0,1,5.33-2.85,4,4,0,0,1,1.79,3,2,2,0,0,0,1.79,1.91,10.06,10.06,0,0,1,3.43.72,6.53,6.53,0,0,1,2.27,10,1,1,0,0,0,.15,1.21c1.92,1.82,3.49,4.63,2,7.21a3,3,0,0,1-3,1.7,2.49,2.49,0,0,1-2.2-2.49c.06-1.29-1.92-1.28-2,0-.14,2.32-3,3.66-5.07,2.9-2.49-.93-3.47-4-3.07-6.44.21-1.26-1.71-1.8-1.93-.53Z"/><path d="M150.68,223.48a54.92,54.92,0,0,0,33.87,4.39,1,1,0,0,0,.73-1,6.72,6.72,0,0,0-4.11-6.72,11.58,11.58,0,0,0-5.27-.35,43.83,43.83,0,0,1-5.73,0,41.73,41.73,0,0,1-21.08-7.37c-1.06-.73-2.06,1-1,1.73a43.42,43.42,0,0,0,18.79,7.3,47.66,47.66,0,0,0,10.13.2c1.71-.12,3.41-.09,4.75,1.13a4.79,4.79,0,0,1,1.53,4l.74-1a52.59,52.59,0,0,1-32.33-4.19c-1.15-.55-2.17,1.17-1,1.73Z"/><path d="M99,267.66a11.79,11.79,0,0,1-4.94-7.53l-.25,1,6.68-5.57c1.51-1.27,3.94-2.92,3.33-5.25a7.26,7.26,0,0,0-2-2.72c-1-1.09-2-2.17-3-3.27-.7-.76-2-2.06-1.63-3.23s2.22-1.17,3.2-1.27l3.66-.34c.65-.06,1.31-.17,2-.17a1.5,1.5,0,0,1,1.49,1c1.34,2.53,2.47,5.19,3.7,7.77s2.41,4.95,3.55,7.45c.65,1.45.8,2.56-.35,3.78a29.17,29.17,0,0,1-3,2.54l-7.44,6a9.52,9.52,0,0,1-2,1.56c-1,.38-1.76-.69-2.41-1.25l-3.73-3.21c-1-.83-2.4.58-1.42,1.42l3.74,3.2c1,.88,2.12,2.16,3.6,2,1.27-.13,2.3-1.24,3.23-2l4.2-3.4,3.82-3.08a18.81,18.81,0,0,0,3.34-3c2-2.59.29-5.23-.92-7.76L111,243.1c-1-2.19-1.89-5.77-4.84-5.82a39.11,39.11,0,0,0-4.45.39,16.65,16.65,0,0,0-4.16.6c-2.46.88-3,3.34-1.74,5.49a22.77,22.77,0,0,0,3.07,3.58c.68.73,1.36,1.45,2,2.18.88,1,1.34,1.58.38,2.67A41,41,0,0,1,97,255.87l-4.58,3.82a1,1,0,0,0-.25,1A13.75,13.75,0,0,0,98,269.39c1.07.72,2.07-1,1-1.73Z"/><path d="M267.66,265.64c-3.23.47-6-2.76-6.07-5.8-.06-3.41,2.32-6.31,5.1-8l-1-1.73a2.35,2.35,0,0,1-3.54-.46,2.43,2.43,0,0,1,.9-3.28c1.86-1.26,4.29-1.32,6.14-2.67,1.68-1.21,2.74-3.42,4.61-4.33a2.45,2.45,0,0,1,3.16,1c.95,1.36.92,3.16.94,4.75a1,1,0,0,0,1.71.7A3.1,3.1,0,1,1,284,250.1a1,1,0,0,0,1,1.67c1.54-.38,2.7,1.08,3.14,2.39.56,1.66,0,3.47-.4,5.1a25.15,25.15,0,0,0-.6,2.84c-.13.91,0,1,.48,1.71.88,1.37.2,3-.88,4.05-2.46,2.33-6.35,2.79-9.57,2.4-3.85-.47-7.41-2.23-10.78-4.06-1.13-.62-2.15,1.11-1,1.72,5.21,2.84,11,5.34,17.06,4.14a10.61,10.61,0,0,0,6.5-3.7,4.84,4.84,0,0,0-.18-6.26l.29.71c.34-3.14,2.12-6.35.91-9.5-.87-2.27-3-4.1-5.49-3.47l1,1.67a5.09,5.09,0,1,0-7.27-7.11l1.7.71c0-2.09-.12-4.3-1.42-6a4.52,4.52,0,0,0-4-1.95c-3.35.29-4.61,4.16-7.39,5.51s-6.89,1.59-7.25,5.38a4.3,4.3,0,0,0,6.85,3.83c1-.75.12-2.42-1-1.73-3.63,2.22-6.66,6.29-6,10.74.6,4.07,4.36,7.33,8.51,6.72,1.27-.19.73-2.11-.53-1.93Z"/><path d="M279,280.31a9.61,9.61,0,0,1-5.1-3.43,3.17,3.17,0,0,1-.71-2.58,1.5,1.5,0,0,1,1.54-1.18,1,1,0,0,0,0-2,3.37,3.37,0,0,0-3.24,2,4.57,4.57,0,0,0,.29,4.1,11.21,11.21,0,0,0,6.69,5,1,1,0,0,0,.53-1.93Z"/><path d="M290.24,261.45c0-.07,0-.28,0-.1a2.38,2.38,0,0,1,0-.26s.12-.27,0-.08l.12-.23s.19-.24.05-.08a1.8,1.8,0,0,1,.19-.2l.2-.18c-.14.11.05,0,.09-.05l.24-.14.1-.05a3.11,3.11,0,0,1,.49-.16s.3-.05.19,0,.16,0,.2,0h.42c-.1,0-.11,0,0,0a3.41,3.41,0,0,1,1.87,1.09,7.55,7.55,0,0,1,1.35,2.11,1,1,0,0,0,1.37.36,1,1,0,0,0,.36-1.37c-.92-2-2.61-4-5-4.2-2.07-.16-4.3,1.37-4.31,3.57a1,1,0,0,0,2,0Z"/><path d="M201.05,299.36a5,5,0,0,1-5.9-2.89c-.87-2.47,1.48-5.57,4.14-5.15l-.44-1.67a1.75,1.75,0,0,1-2.13-.2,2.23,2.23,0,0,1-.45-2.53c.79-2.08,3.18-2.6,5.16-2.6l-.86-1.5c.14-.33,0-.23-.3-.53a2.24,2.24,0,0,1-.39-.56,3.21,3.21,0,0,1-.35-1.46,3.51,3.51,0,0,1,1.21-2.77c2-1.58,5-.29,6.14,1.64.67,1.1,2.4.09,1.73-1-2.12-3.46-7.82-4.84-10.25-.9a5.69,5.69,0,0,0-.27,5.4c.64,1.25,3.26,3.33,4.2,1.2a1,1,0,0,0-.86-1.51c-3.36,0-7.38,1.72-7.36,5.65a3.85,3.85,0,0,0,6.19,3.09,1,1,0,0,0-.44-1.67,6.08,6.08,0,0,0-6.76,7c.76,3.73,5,5.8,8.52,4.87a1,1,0,0,0-.53-1.93Z"/><path d="M193.72,285.41c-.38,1-3.65-.74-4.12-1.05a8,8,0,0,1-2.9-3.5,7.81,7.81,0,0,1-.34-4.87,8,8,0,0,1,1-2.35,3.52,3.52,0,0,1,.64-.84c.23-.21.68-.23.62-.47l.46-1.13a1,1,0,0,1-1.53-.62,2.32,2.32,0,0,1,.77-2.21,6.84,6.84,0,0,1,1.95-1.23c.36-.17.74-.34,1.12-.48.13-.05,1.77-.49,1.51,0h1.73c-.6-1.38,1.1-2.65,2.2-3a5.36,5.36,0,0,1,3.74.18c2.5,1,3.71,3.77,3.71,6.36a1,1,0,0,0,2,0c0-4-2.42-8-6.56-8.67a6.87,6.87,0,0,0-5.38,1.23,4.13,4.13,0,0,0-1.44,4.93,1,1,0,0,0,1.73,0,2.28,2.28,0,0,0-2.23-3.27,7.6,7.6,0,0,0-2.81.87,8.66,8.66,0,0,0-2.68,1.7c-1.2,1.2-1.93,3.21-1,4.8a3,3,0,0,0,4.22,1.16,1,1,0,0,0,.46-1.13,1.83,1.83,0,0,0-2.27-1.28,4.06,4.06,0,0,0-2.64,2.12,9.8,9.8,0,0,0,3.82,13.95c1.85,1,5.24,2,6.21-.64.45-1.21-1.48-1.73-1.93-.53Z"/><path d="M211.52,277.06a3.11,3.11,0,0,1-.32-.31.46.46,0,0,0-.07-.07c-.09-.1,0,0,0,0s-.1-.16-.13-.2-.23-.3-.21-.39.07.19,0,.08a.61.61,0,0,0-.05-.12c0-.08-.05-.16-.07-.23a2,2,0,0,1-.05-.24s0-.26,0-.1,0-.09,0-.14a2.88,2.88,0,0,1,0-.48s0-.07,0-.1,0,.1,0,.1.08-.41.1-.47.06-.15.08-.22,0,.09,0,.08a.26.26,0,0,1,0-.09c.07-.14.16-.27.24-.41s-.13.13,0,0l.06-.08.14-.15c.06-.06.13-.1.18-.16s-.07.05-.07.05a.44.44,0,0,1,.11-.08,2.88,2.88,0,0,1,.38-.22l.12-.06c.1-.06-.08,0-.08,0s.18-.07.23-.08l.43-.11s.12,0,.13,0-.21,0-.09,0l.24,0c.07,0,.5,0,.54,0s-.21,0-.1,0l.14,0,.26.07.23.07c.14.05,0,0,0,0s.1.05.12.06a3.21,3.21,0,0,1,.46.29,1,1,0,0,0,1.37-.36,1.05,1.05,0,0,0-.36-1.37,4.48,4.48,0,0,0-4.81-.16,4.29,4.29,0,0,0-1.9,4.52,4.21,4.21,0,0,0,1.37,2.39,1,1,0,0,0,1.41-1.42Z"/><path d="M211.76,101.75c-1.71,1.09-3.88-.25-4.56-2-1-2.48.59-5.26,2-7.22.56-.77-.36-1.61-1.13-1.47-1.78.34-2.81-2-2.19-3.42.7-1.56,2.58-2.25,4.18-2.31a1,1,0,0,0,.7-1.7c-1-.91.67-1.72,1.44-1.74a9.28,9.28,0,0,1,3.12.59,15,15,0,0,1,3,1.32c.68.39,2.56,1.29,2.72,2.11l.1-.77.38-.15.7.3-.14-.13-.21,1.57a3.33,3.33,0,1,1,3.8,5.45c-.91.59-.35,2.22.77,1.83,3.65-1.27,3.68,5.35,3.33,7.41a5.4,5.4,0,0,1-2.06,3.68,3.21,3.21,0,0,1-3.85,0l.46,1.13.07-.19-.46.6a.64.64,0,0,0-.95.12c-.18.14-.37.27-.56.4s-.54.32-.82.47a9.09,9.09,0,0,1-2.1.76,10.78,10.78,0,0,1-8.67-1.74,9.14,9.14,0,0,1-1.63-1.54c-.36-.45-2-2.87-.58-3,1.27-.13,1.28-2.13,0-2a2.75,2.75,0,0,0-2.53,3,6.83,6.83,0,0,0,2.22,4,12.38,12.38,0,0,0,7.55,3.49,11.66,11.66,0,0,0,8.08-2.07c1-.73,2.16-2.09,1.13-3.3a1.56,1.56,0,0,0-2.68.47,1,1,0,0,0,.46,1.13,5.07,5.07,0,0,0,5.58.15,7.26,7.26,0,0,0,3.33-5.44,12.79,12.79,0,0,0-.66-6.88,4.31,4.31,0,0,0-5.19-2.61L226.7,94a5.32,5.32,0,1,0-5.81-8.91,1,1,0,0,0-.21,1.57c1.49,1.3,3-.79,1.83-2.17a15.17,15.17,0,0,0-6.25-3.72c-1.94-.67-4.64-1.4-6.47-.07a2.89,2.89,0,0,0-.43,4.43l.71-1.71c-2.78.1-6,1.71-6.35,4.74A4.34,4.34,0,0,0,208.61,93l-1.13-1.47c-2,2.71-3.67,6.64-1.71,9.82,1.43,2.3,4.56,3.64,7,2.09,1.09-.69.09-2.42-1-1.73Z"/><path d="M131.09,114.3a2.49,2.49,0,0,1-2.54,1,3.42,3.42,0,0,1-2.57-2.19,6,6,0,0,1-.29-3.6c.25-1,.88-2.29,2-2.4l-.71-1.7a1.28,1.28,0,0,1-1.84.11,1.6,1.6,0,0,1,0-2.1,5,5,0,0,1,2.63-1.07c1.16-.27,2.33-.53,3.5-.76,1.82-.36,4.25-1,5.93.15.91.6,1.68,2.46.52,3.21l1.22,1.57a1.58,1.58,0,0,1,2.17.06,3.15,3.15,0,0,1,.56,3.1,6.53,6.53,0,0,1-4.45,4.47,17.42,17.42,0,0,0-3,.85,6.05,6.05,0,0,0-2.17,2.32c-.87,1.2-3.19.78-3.29-.83-.07-1.28-2.07-1.29-2,0a3.91,3.91,0,0,0,3.76,3.55,3.45,3.45,0,0,0,2.59-.89c.92-.87,1.18-2.13,2.48-2.56a29.32,29.32,0,0,0,3.44-1,8.3,8.3,0,0,0,2.84-2.14c1.56-1.8,2.58-4.48,1.67-6.81s-4.08-3.51-6-1.56c-.77.8.23,2.21,1.21,1.57a3.7,3.7,0,0,0,1.08-4.84c-1-2.1-3.35-2.78-5.52-2.68a24.59,24.59,0,0,0-3.91.58c-1.46.3-2.94.58-4.37,1-2.12.63-3.86,2.5-3.13,4.85a3.27,3.27,0,0,0,5.47,1.23c.52-.59.22-1.79-.71-1.71-4.21.37-4.91,5.89-3.48,9a5.26,5.26,0,0,0,4.11,3.16,4.49,4.49,0,0,0,4.45-2c.68-1.1-1-2.1-1.73-1Z"/><path d="M100.13,103.86Q94,93,88.7,81.59c-.89-1.91-3.66-.82-3.73,1l0,1.43c-.09,2.57,3.91,2.57,4,0l0-1.43-3.73,1Q90.54,95,96.67,105.88c1.27,2.25,4.72.23,3.46-2Z"/><path d="M99.06,105.94c8.81-4.47,17.6-9,26.45-13.41A83.34,83.34,0,0,1,138,87.28c1.08-.33,2.17-.63,3.28-.89a6.17,6.17,0,0,1,1.51-.32c.22,0,.24,0,0-.09a4.31,4.31,0,0,1,.26.47c1.14,2.2,2.16,4.46,3.24,6.69a2,2,0,0,0,2.26.92L176.84,84A2,2,0,0,0,178,81l-6.25-13.1c-1.11-2.32-4.56-.29-3.46,2L174.58,83l1.19-2.94L147.53,90.2l2.26.92L147,85.46c-.82-1.7-1.77-3.3-3.89-3.39a18.45,18.45,0,0,0-5.56,1.16,57.2,57.2,0,0,0-5.56,2c-7.53,3-14.7,7-21.94,10.68l-13,6.62c-2.29,1.17-.27,4.62,2,3.46Z"/><path d="M169.92,70.78q24.9-6.33,49.11-15.05,6.93-2.49,13.78-5.18c1.29-.5,2.12-2.25.88-3.34a95,95,0,0,1-14.41-16,2,2,0,0,0-3.73,1l-.2,2.34c-.22,2.57,3.78,2.55,4,0l.2-2.34-3.73,1A99.09,99.09,0,0,0,230.87,50l.88-3.34q-23.94,9.36-48.69,16.4-7.06,2-14.21,3.83c-2.49.63-1.43,4.49,1.07,3.85Z"/><path d="M258.58,125.52a48.84,48.84,0,0,1-2.89-11.62c-.64-4.08-1.31-8.15-2.21-12.18a151.06,151.06,0,0,0-7.17-23.26q-2.61-6.54-5.79-12.83l-1.73,3a78,78,0,0,0,39.11-8.86l-3-1.73-.15,1.77a2,2,0,0,0,2,2,2,2,0,0,0,2-2l.15-1.77c.15-1.6-1.77-2.37-3-1.73a73.94,73.94,0,0,1-37.1,8.32,2,2,0,0,0-1.73,3,152.14,152.14,0,0,1,14.53,45.73c.69,4.49,1.37,9,3.13,13.21a2.07,2.07,0,0,0,2.47,1.39,2,2,0,0,0,1.39-2.46Z"/><path d="M257.5,125.23c13-3.34,24.83-12.12,38.62-11.91l-.53-3.93-2.95.45a2,2,0,0,0-1.39,2.46,2,2,0,0,0,2.46,1.39l2.94-.44c2.29-.35,1.65-3.9-.53-3.93-14.27-.21-26.28,8.6-39.69,12.06-2.49.64-1.43,4.5,1.07,3.85Z"/><path d="M258.18,127.71q11.44-3.61,23-6.81c3.78-1.05,7.57-2.05,11.36-3,1.89-.48,3.86-.83,5.71-1.44s3-2.54,1.43-4.06a2.06,2.06,0,0,0-2.42-.32,2.28,2.28,0,0,0-1.14,1.47A2,2,0,0,0,298.6,116h.1a2,2,0,0,0,1.4-2.46,2.06,2.06,0,0,0-2.47-1.4l-.1,0,2.46,2.46-.09.26-.72.72.12-.06-2.42-.31.09.09-.59-1.42v.23l.59-1.42c.32-.12.33-.14,0,0l-.72.17-1.19.3-2.61.66-5,1.29c-3.4.9-6.78,1.82-10.17,2.77q-10.14,2.85-20.19,6c-2.44.77-1.4,4.64,1.07,3.86Z"/><path d="M138.65,317.5Q128,292.14,116.74,267a2,2,0,0,0-2.5-.82,2,2,0,0,0-1.15,2.36l.26,1.64a2,2,0,0,0,2.46,1.4,2,2,0,0,0,1.4-2.46l-.27-1.64L113.29,269q11,24.63,21.5,49.52a2.08,2.08,0,0,0,2.46,1.4,2,2,0,0,0,1.4-2.46Z"/><path d="M172.51,306.74q-7.72-18.45-17-36.21c-1.19-2.28-4.64-.26-3.45,2q9,17.26,16.55,35.25a2.07,2.07,0,0,0,2.46,1.4,2,2,0,0,0,1.4-2.46Z"/><path d="M203.18,252.35c2.54,2,3.06,5.38,4,8.32a52.56,52.56,0,0,0,5.22,10.58q6.84,11.34,13.7,22.67l1.73-3-1.15.14a2.06,2.06,0,0,0-2,2,2,2,0,0,0,2,2l1.15-.14a2,2,0,0,0,1.72-3q-7-11.52-13.92-23a46.3,46.3,0,0,1-5-10.47c-1-3.21-1.94-6.66-4.67-8.86a2.07,2.07,0,0,0-2.83,0,2,2,0,0,0,0,2.83Z"/><path d="M263.36,284.73a397.27,397.27,0,0,0-21.07-46.32l-1.2,2.94,52.84-12.83-2.53-1.93q.56,23.4,1.83,46.76l3.92-.53-1-3.16c-.77-2.44-4.63-1.4-3.85,1.06l1,3.17c.65,2.06,4.05,1.81,3.93-.54Q296,250,295.4,226.59a2,2,0,0,0-2.53-1.93L240,237.49a2,2,0,0,0-1.19,2.94,390.87,390.87,0,0,1,20.67,45.36,2,2,0,0,0,2.46,1.4,2,2,0,0,0,1.39-2.46Z"/><path d="M112.13,268.82c24.33-8.94,48-19.55,71.81-29.78,11.84-5.08,23.72-10.06,35.75-14.68s24.22-8.72,36.51-12.56c6.86-2.14,13.72-4.3,20.46-6.81q5.07-1.89,10-4.06c2.82-1.25,6.27-2.65,5.71-6.35-.23-1.53-2.38-1.87-3.34-.89a4.84,4.84,0,0,0-.55,6.21,2.06,2.06,0,0,0,2.73.72,2,2,0,0,0,.72-2.74c-.35-.46-.52-.9-.08-1.36l-3.34-.88c-.06-.37.15-.21-.21,0a4.18,4.18,0,0,0-.42.31,11,11,0,0,1-1.75.87q-2.1,1-4.24,1.85c-2.88,1.2-5.8,2.31-8.73,3.37-5.89,2.11-11.85,4-17.82,5.85-12,3.75-23.89,7.72-35.63,12.21-23.4,8.93-46.23,19.25-69.27,29.07-13,5.55-26.11,10.93-39.39,15.81-2.4.88-1.36,4.75,1.06,3.86Z"/><path d="M291.72,199.07c1.67-3.82,1.23-7.8-.07-11.67s-3.32-7.47-3.2-11.58l-2.53,1.93A92.06,92.06,0,0,0,313.3,184c2.57.19,2.56-3.81,0-4A88.35,88.35,0,0,1,287,173.89c-1.26-.51-2.5.76-2.53,1.93-.11,3.89,1.37,7.42,2.73,11,1.2,3.14,2.53,7,1.08,10.25a2.07,2.07,0,0,0,.72,2.74,2,2,0,0,0,2.74-.72Z"/><path d="M102.4,230.84a9.78,9.78,0,0,1-4.23-1.34c-.55-.42-1.35-1.57-.76-2.25,1.08-1.22.43-3.5-1.41-3.42-4.59.21-9.8.31-12.66-4-2.74-4.06-2.18-9.16,0-13.34a2,2,0,0,0-2.74-2.73,3.87,3.87,0,0,1-3.71-.68A5,5,0,0,1,75.18,199c.1-3.67,3.06-6.3,6-8l-3-1.73v1.52c0,2.57,4,2.57,4,0v-1.52a2,2,0,0,0-3-1.73c-4.71,2.63-8.69,7.3-7.92,13,.72,5.4,6.24,9,11.35,6.71l-2.74-2.73c-2.81,5.38-3.54,12.12,0,17.37a13.08,13.08,0,0,0,6.67,5.16c3,1,6.31.92,9.45.77l-1.41-3.41a5.43,5.43,0,0,0-.24,6.8c1.62,2.29,4.37,3,7,3.47a2.05,2.05,0,0,0,2.46-1.39,2,2,0,0,0-1.4-2.46Z"/><path d="M86.2,224.49A11.54,11.54,0,0,1,86.14,211a2,2,0,0,0-.72-2.73c-4.45-1.93-11.45-5-11-10.93a5.79,5.79,0,0,1,3.83-4.89,5.85,5.85,0,0,1,6.19,1.85c1.54,1.74,4.2-.49,3.14-2.43s.85-4.09,2.61-4.61c2.85-.82,5.78,1.23,7.68,3.13a2,2,0,0,0,3.14-.41,7.62,7.62,0,0,1,14,3.95c.08,1.61,2.2,2.79,3.41,1.41a6.61,6.61,0,0,1,10.44,8.11,2,2,0,0,0,.4,3.15c4.48,2.57,5.28,9,2.55,13.17-3.26,4.94-10.62,5.62-15.55,3.07a2.08,2.08,0,0,0-2.74.72c-3.54,4.83-10.35,6.35-15.76,4.1A2,2,0,0,0,95.27,229a2,2,0,0,0,1.4,2.46c7.18,3,15.75.24,20.28-5.93l-2.74.72c5.38,2.77,12.4,2.77,17.43-.83a13.77,13.77,0,0,0,5.15-15.08,12.17,12.17,0,0,0-5.54-7.25l.4,3.14c3.35-4.33,3.19-11-1.09-14.75a10.93,10.93,0,0,0-15,1l3.41,1.41a11.61,11.61,0,0,0-21.41-6l3.14-.41c-3.18-3.17-8.08-5.74-12.57-3.78-3.78,1.66-6.09,6.3-4,10.11l3.14-2.42a9.91,9.91,0,0,0-9.39-3.06,9.8,9.8,0,0,0-7.16,7c-1,3.66.48,7.37,2.87,10.15,2.56,3,6.26,4.66,9.8,6.19l-.72-2.74a15.57,15.57,0,0,0,.69,18.39,2,2,0,0,0,2.83,0,2.05,2.05,0,0,0,0-2.83Z"/><path d="M133,222.6c-1.29,1.77-.12,4,1.49,5.09a7.31,7.31,0,0,0,4.59,1,8.56,8.56,0,0,0,7.45-5.83l-3.66.48c1.1,2.11,3.27,4,5.73,4.16a5,5,0,0,0,5-4.35,13.88,13.88,0,0,0-.57-7.92,7.29,7.29,0,0,0-2.44-3,6.12,6.12,0,0,0-1.57-.8c-.58-.19-1.2-.16-1.77-.4l.89.52-.2-.21.51.88-.07-.3V213c.17-.81.9-1.62,1.17-2.46a8.3,8.3,0,0,0,.34-2.93,8.06,8.06,0,0,0-12.82-6.17l2.73,2.73c1.81-4.11.23-9.53-4.32-11-4.27-1.4-9.46,2.37-9,7A2.08,2.08,0,0,0,128,202a2,2,0,0,0,2.26-.92l1.17-2.6a2.07,2.07,0,0,0-.72-2.74,2,2,0,0,0-2.74.72l-1.16,2.61,3.72,1a3,3,0,0,1,3.93-3.09,4.09,4.09,0,0,1,1.93,5.15,2.1,2.1,0,0,0,.31,2.43,2,2,0,0,0,2.43.31c2.1-1.51,5.33-1.17,6.45,1.39a4.51,4.51,0,0,1,0,3.6,9.41,9.41,0,0,0-1,2.06,2.61,2.61,0,0,0,.79,2.46c1.1,1,2.67.47,3.65,1.74s1,3.16.88,4.72c0,.67,0,2.43-.81,2.7-1.11.35-2.34-1.43-2.73-2.19-.83-1.6-3.16-1.07-3.66.48a4.61,4.61,0,0,1-4.9,2.88,3,3,0,0,1-1-.31c-.78-.42,0-.31-.34.21a2,2,0,0,0-.71-2.74,2,2,0,0,0-2.74.72Z"/><path d="M43.78,170.24l9,13.72c1.46,2.22,2.86,4.49,4.39,6.66s3.5,3.33,6.07,2.37a65.26,65.26,0,0,0,6.86-3.52c2.34-1.22,4.68-2.42,7-3.59q7.06-3.54,14.25-6.84,8.25-3.78,16.65-7.27a2,2,0,0,0,1.19-2.93,305.35,305.35,0,0,1-20.1-45.94q-2.34-6.81-4.36-13.74a2,2,0,0,0-2.94-1.2L65.1,118.1c-2.2,1.33-.19,4.79,2,3.45l16.77-10.14L81,110.22A312.24,312.24,0,0,0,99.27,158q3.12,6.5,6.55,12.85l1.19-2.94q-14,5.78-27.55,12.38-6.67,3.25-13.25,6.71L63,188.7c-.88.46-1.54,1-2.24.1-1.48-1.88-2.68-4.05-4-6l-9.58-14.54c-1.41-2.14-4.87-.14-3.45,2Z"/><path d="M99.44,305,75.71,254.73l-6.78-14.37c-1.1-2.33-4.54-.3-3.45,2l23.73,50.29L96,307c1.1,2.33,4.55.3,3.45-2Z"/><path d="M37.08,261.44c3.74-5.05,9.64-8,15.27-10.39,6.21-2.67,12.52-5,17.92-9.2L66.93,241,68,243.9c.86,2.41,4.73,1.37,3.85-1.06l-1.06-2.94a2,2,0,0,0-3.34-.88c-5.4,4.18-12,6.33-18.22,9.06-6,2.64-11.65,6-15.6,11.34a2,2,0,0,0,.72,2.73,2,2,0,0,0,2.74-.71Z"/><path d="M91.19,94.23c1.26-1.87,3.36-2.87,5.38-3.71,2.53-1.06,5.08-2.08,7.61-3.14q7.59-3.18,15.07-6.56t14.87-7c2.46-1.2,4.92-2.42,7.36-3.65a26.48,26.48,0,0,1,3.34-1.64c.65-.22,1.29-.39,1.69.32a8.78,8.78,0,0,1,.52,2l4.6,18.94c.3,1.25,2.23.72,1.93-.53l-4.48-18.46c-.53-2.18-1-4.84-3.83-4.45a9.79,9.79,0,0,0-3.06,1.19q-2.15,1.09-4.31,2.17Q121.67,77.85,105,84.9c-3.08,1.3-6.19,2.54-9.28,3.83-2.43,1-4.72,2.25-6.22,4.49-.72,1.08,1,2.08,1.72,1Z"/><path d="M170.29,83.29,162,66.62a11.59,11.59,0,0,1-.82-1.79c-.32-1.07.19-1.4,1.07-1.69,1.33-.44,2.69-.78,4-1.23,2.59-.87,5.14-1.87,7.66-2.94,5.32-2.24,10.51-4.78,15.83-7a117.29,117.29,0,0,1,16.65-5.63,114.23,114.23,0,0,1,19.71-3.19c1.28-.1,1.29-2.1,0-2a116.89,116.89,0,0,0-36.71,8.82c-5.6,2.35-11.06,5-16.67,7.38a94.91,94.91,0,0,1-8.95,3.29c-2.15.66-5.08,1.15-4.68,4.08A15,15,0,0,0,160.91,69l2.62,5.26,5,10.08c.58,1.16,2.3.14,1.73-1Z"/><path d="M278.5,114.64c-7-16-9.5-33.77-18.24-49.07a1,1,0,0,0-1.73,1c8.73,15.28,11.29,33.05,18.25,49.07.51,1.18,2.23.16,1.72-1Z"/><path d="M282.54,112a242.6,242.6,0,0,1-15.75-50,1,1,0,0,0-1.67-.45,5.18,5.18,0,0,0-1.26,3.91c.14,1.26,2.14,1.28,2,0a3.19,3.19,0,0,1,.67-2.49l-1.67-.44A245.18,245.18,0,0,0,280.81,113c.52,1.18,2.24.16,1.73-1Z"/><path d="M246.63,288.23a196,196,0,0,1-14.17-25.86c-1.81-4-3.33-8.18-5.73-11.87a25.26,25.26,0,0,0-1.87-2.52c-.55-.65-1.21-1.54-2.15-1.61-1.72-.13-1.77,2-.4,2.55a1,1,0,0,0,1-.25l.1-.11a1,1,0,0,0-1.41-1.41l-.11.1,1-.25-.14-.06.59.46,0-.1-.1.77.1-.15-.59.46.33,0-.78-.1a6.93,6.93,0,0,1,2.11,2.26c.48.67.93,1.36,1.34,2.07a48.38,48.38,0,0,1,2.44,4.82c1.6,3.56,3.12,7.15,4.83,10.66a197.17,197.17,0,0,0,12,21.2c.7,1.08,2.43.08,1.73-1Z"/><path d="M204.91,252.84a46.71,46.71,0,0,1,17.75-4.92,15.61,15.61,0,0,0,3-.15,11.6,11.6,0,0,0,2.54-1.53l-1.47-.6a308.74,308.74,0,0,0,20.8,42.29l1.13-1.46c-1.5-.21-2-1.88-2.33-3.15a1,1,0,0,0-1.93.54c.54,1.91,1.5,4.22,3.73,4.53a1,1,0,0,0,1.13-1.46,307.23,307.23,0,0,1-20.6-41.82,1,1,0,0,0-1.47-.6,6.2,6.2,0,0,1-2.7,1.32c-1.06.09-2.12.1-3.17.21a48.44,48.44,0,0,0-5.87.93,49.39,49.39,0,0,0-11.54,4.14c-1.15.58-.13,2.31,1,1.73Z"/><path d="M227.84,246.68c.28,0,.38.27.51.45s0,.19,0,.1,0-.06,0,0,0-.1.05-.15,0,0,0-.06c.17-.34.33-.4.76-.69l3-2.05,5.95-4.11-1.51-.86a.67.67,0,0,1-.19.59,1,1,0,0,0-.36,1.37,1,1,0,0,0,1.37.36,2.72,2.72,0,0,0,1.18-2.32,1,1,0,0,0-1.5-.87l-7.56,5.22c-.61.43-1.24.84-1.85,1.28a3,3,0,0,0-1,1.17c-.53,1.09-.28,2.52,1.16,2.57,1.28.06,1.28-1.94,0-2Z"/><path d="M230.24,247.29a25.38,25.38,0,0,1,11.13-4.56,1,1,0,0,0,.69-1.23,1,1,0,0,0-1.23-.7,26.64,26.64,0,0,0-11.6,4.77,1,1,0,0,0-.36,1.37,1,1,0,0,0,1.37.35Z"/><path d="M154.64,272.53l21.83,5.24-.7-.7q5.39,14.6,10.72,29.2l1.23-1.23-.22-.25c-.05-1.29-2.05-1.29-2,0a2.18,2.18,0,0,0,1.69,2.18,1,1,0,0,0,1.23-1.23q-4.75-13-9.52-26a29.86,29.86,0,0,0-1.2-3.24c-.42-.85-1.28-.84-2.15-1.05l-6.79-1.63-13.59-3.26c-1.25-.3-1.78,1.63-.53,1.93Z"/><path d="M175.14,274.59a1,1,0,0,1-.19.83c-.57.88.53,1.83,1.37,1.37a24.68,24.68,0,0,1,10.13-3,1,1,0,0,0,1-1,1,1,0,0,0-1-1,27.06,27.06,0,0,0-11.14,3.24l1.37,1.36a3,3,0,0,0,.39-2.37c-.28-1.26-2.2-.73-1.93.53Z"/><path d="M240.6,238.58A66.39,66.39,0,0,1,254,246.91a1,1,0,0,0,1.42,0,1,1,0,0,0,0-1.41,68.83,68.83,0,0,0-13.83-8.65c-1.16-.54-2.18,1.19-1,1.73Z"/><path d="M254.75,247.43c3.84,5.3,5.89,11.53,8,17.64l7.14,20.27,1-1.26a.61.61,0,0,1-.68-.19c-.92-.9-2.34.51-1.41,1.41a2.51,2.51,0,0,0,2.09.78,1,1,0,0,0,1-1.27l-7.31-20.74c-2.15-6.11-4.23-12.35-8.07-17.64-.75-1-2.49,0-1.73,1Z"/><path d="M256.07,247.89a11.66,11.66,0,0,1,7-1.08,1,1,0,0,0,1.23-.69,1,1,0,0,0-.7-1.23,13.9,13.9,0,0,0-8.51,1.27,1,1,0,0,0,1,1.73Z"/><path d="M277.42,243.17A7.38,7.38,0,0,1,288,234.35l-.36-1.37.55-.19q0,.39.21.15c.12,0,.46-.27.59-.31a3.27,3.27,0,0,1,1-.17,4.46,4.46,0,0,1,2.14.58,4.3,4.3,0,0,1,2.31,3.63,1,1,0,0,0,2,0,6.53,6.53,0,0,0-6.33-6.21c-1.47,0-3.73.64-3.84,2.42a1.69,1.69,0,0,0,3.06,1.11,1,1,0,0,0-.35-1.37,9.39,9.39,0,0,0-13.5,11.09c.38,1.22,2.31.7,1.93-.54Z"/><path d="M101.27,218.42c-3.53,1.28-7.69,2.31-11.12.22A5.42,5.42,0,0,1,87.52,215a4.21,4.21,0,0,1,1.19-3.92c.94-.88-.48-2.29-1.42-1.42a6.17,6.17,0,0,0-1.8,5.22,7.28,7.28,0,0,0,3,5c3.92,3,9.08,2,13.36.46,1.2-.44.68-2.37-.53-1.93Z"/><path d="M94.93,203.86s-.2,0,0,0h-.5l-.19,0s.16,0,0,0a2.74,2.74,0,0,1-.39-.09l-.14,0-.11,0c.09,0-.06,0-.06,0l-.18-.09a5.2,5.2,0,0,1-.57-.37,3.67,3.67,0,0,1-.85-.95l-.17-.31a1.42,1.42,0,0,1-.08-.18s0,.11,0,0a3.83,3.83,0,0,1-.19-.72c0,.17,0-.18,0-.23s0-.23,0-.35,0-.1,0-.15,0,.15,0,0l.09-.34.06-.17s-.06.14,0,0,.08-.18.13-.27l.16-.26s.12-.17,0-.08.09-.1.09-.1a5.81,5.81,0,0,1,.43-.43l0,0c-.09.08,0,0,.07,0l.3-.2.27-.15.2-.09.22-.08.38-.11.34-.07c.12,0,0,0,0,0l.22,0h.39c.07,0,.38,0,.17,0a3.14,3.14,0,0,1,.67.17l.16.06c-.13-.06,0,0,0,0a3.12,3.12,0,0,1,.35.2,1,1,0,0,0,1-1.73,5.31,5.31,0,0,0-6.52.95,4.53,4.53,0,0,0-1.29,3.4,5.29,5.29,0,0,0,1.75,3.53,5.06,5.06,0,0,0,4.29,1.3,1,1,0,0,0,.7-1.23,1,1,0,0,0-1.23-.7Z"/><path d="M112.3,211c2,2.7,4.58,5.73,8.34,5.18a4.32,4.32,0,0,0,3.45-2.71,3.72,3.72,0,0,0-.69-4L123,211.2a4.27,4.27,0,0,0,2.69-4.62,4.23,4.23,0,0,0-4.19-3.38,1,1,0,0,0,0,2,2.12,2.12,0,0,1,1,4.07,1,1,0,0,0-.44,1.67,1.82,1.82,0,0,1,.12,2.12,2.52,2.52,0,0,1-2.44,1.22c-2.54-.08-4.26-2.39-5.64-4.25a1,1,0,0,0-1.37-.36,1,1,0,0,0-.36,1.37Z"/><path d="M98,105.61a12.84,12.84,0,0,1,5.88,6.39c.34.82,1.69,1.07,1.93,0,.63-2.83,4.26-3.73,6.61-4.62l10.14-3.84,20.3-7.67a1,1,0,0,0,.73-1,52.08,52.08,0,0,0-1.68-8.67,1,1,0,0,0-1.93.53,49.05,49.05,0,0,1,1.61,8.14l.74-1-22.14,8.36c-3.6,1.36-7.23,2.65-10.79,4.09-2.39,1-4.91,2.35-5.52,5.07h1.93a15,15,0,0,0-6.8-7.59c-1.13-.61-2.14,1.12-1,1.73Z"/><path d="M140.64,95.57a45.86,45.86,0,0,1,8.22,6.1,1,1,0,0,0,1.57-1.21,14.65,14.65,0,0,1-1.58-8.81h-1.93a41.77,41.77,0,0,1,2.16,8.61,1,1,0,0,0,.7.7c2.88.44,4.47-1.92,6.62-3.36,2.64-1.76,5.87-2.5,8.87-3.42l20.67-6.33a1,1,0,0,0,.6-1.47A10.84,10.84,0,0,0,175.67,82c-1.26.24-.72,2.17.54,1.93a8.74,8.74,0,0,1,8.6,3.48l.6-1.47-19.73,6a64,64,0,0,0-8.34,2.84,15.19,15.19,0,0,0-3.4,2.19c-1,.82-2.21,2.26-3.63,2l.7.7a42.68,42.68,0,0,0-2.16-8.62c-.3-.8-1.78-1.08-1.93,0a17.06,17.06,0,0,0,1.78,10.36l1.57-1.21a47,47,0,0,0-8.62-6.41,1,1,0,0,0-1,1.72Z"/><path d="M187.51,85.73a22.61,22.61,0,0,1-1.67-5.33c-.31-1.68,0-3.78-1.33-5.07a17.35,17.35,0,0,0-2.1-1.6L180,72l-5-3.65-.5,1.87a9.11,9.11,0,0,1,7.31,4.16c.7,1.08,2.43.08,1.73-1a11.2,11.2,0,0,0-9-5.15c-1.08,0-1.25,1.32-.51,1.86l4.6,3.35,2.3,1.68a16.71,16.71,0,0,1,2.24,1.67c.58.6.46,1.63.55,2.4s.23,1.71.41,2.55a25.29,25.29,0,0,0,1.72,5c.54,1.17,2.26.15,1.73-1Z"/><path d="M184.34,75a150.47,150.47,0,0,1,26.23-9.33c8.53-2.17,17.46-3.12,25.5-6.92a1,1,0,0,0,.2-1.57,14.5,14.5,0,0,1-3.5-8.5l-2,.27,1.38,7.93,1.93-.54-.3-1.45c-.26-1.25-2.18-.72-1.93.54l.3,1.45c.26,1.27,2.15.72,1.93-.54l-1.38-7.92c-.19-1.11-2-.86-2,.26a16.83,16.83,0,0,0,4.08,9.92l.21-1.57c-8.13,3.84-17.31,4.7-25.93,6.95a153.58,153.58,0,0,0-25.8,9.29c-1.17.55-.15,2.27,1,1.73Z"/><path d="M251.36,113.88c-1.77,1.5-4.55.15-5.59-1.6-1.57-2.66-.35-6.11.92-8.62.3-.6-.05-1.61-.87-1.51a7.79,7.79,0,0,1-4.63-14.72,1,1,0,0,0,0-1.73c-1.67-.85-3.28-.47-5.07-.54a3.34,3.34,0,0,1-3.27-3.06c-.32-1.95.55-3.95,1.3-5.71a6.46,6.46,0,0,1,1.3-2.24c.58-.54,1.59-.79,2,.1.52,1.17,2.24.16,1.73-1-.88-2-3.56-1.92-5-.62a8.11,8.11,0,0,0-1.82,3,19,19,0,0,0-1.41,4.19A6.68,6.68,0,0,0,232.75,86a5,5,0,0,0,3.17,1.18c1.4.07,3-.39,4.26.28V85.7a9.78,9.78,0,0,0,5.64,18.45l-.86-1.5c-1.71,3.39-3.07,8-.41,11.35,2,2.46,5.68,3.44,8.23,1.3,1-.83-.44-2.24-1.42-1.42Z"/><path d="M127.7,242.24a13.63,13.63,0,0,0,12.44-12.9l-1.26,1A26.66,26.66,0,0,0,150.31,232l-1-1c.16,1.64-3.15,2.39-4.26,2.8q-2.87,1.1-5.79,2.05-6,2-12.25,3.41l.77,1.83,1.42-1c1-.74.05-2.47-1-1.73l-1.42,1a1,1,0,0,0,.77,1.82,139.46,139.46,0,0,0,14.33-4.11c2.2-.76,4.43-1.53,6.56-2.47,1.47-.65,3-1.81,2.88-3.61a1,1,0,0,0-1-1,25.19,25.19,0,0,1-10.9-1.64,1,1,0,0,0-1.27,1,11.59,11.59,0,0,1-10.44,10.9c-1.28.09-1.29,2.1,0,2Z"/><path d="M154.38,310.31a279.31,279.31,0,0,0-16.87-42.06l-.87,1.51a46.69,46.69,0,0,1,16.6,2.15c1.23.39,1.76-1.54.54-1.93a48.57,48.57,0,0,0-17.14-2.22,1,1,0,0,0-.86,1.5,277.71,277.71,0,0,1,16.68,41.59c.38,1.22,2.31.7,1.92-.54Z"/><path d="M136.44,267q29.79-12.15,59.82-23.73t60.28-22.54q8.54-3.09,17.1-6.15l8.33-2.95a33.11,33.11,0,0,1,4.1-1.42c.33-.07,2.14-.17,2,.35a1,1,0,0,0,1.93.53c.46-1.51-.68-2.55-2.07-2.84-2.16-.45-4.26.67-6.24,1.37q-8,2.82-16,5.68Q249.87,221,234.1,226.82q-31.56,11.7-62.86,24.05-17.7,7-35.33,14.18c-1.17.48-.66,2.42.53,1.93Z"/><path d="M295.51,227.36l-2.39-20c-.07-.59-.59-1.21-1.27-1l-2.91,1a1,1,0,0,0,.26,2c3.19-.06,3.08-4.52,3.35-6.72l.35-2.93a6.31,6.31,0,0,0,.1-2.29c-.29-1.08-1.29-2-2.38-1.28s-.09,2.4,1,1.72c-.47-.11-.66,0-.55.38l-.06.49c0,.49-.12,1-.18,1.47l-.35,2.93c-.09.73-.07,4.2-1.29,4.23l.27,2,2.91-1-1.26-1,2.39,20c.15,1.26,2.15,1.27,2,0Z"/><path d="M113.69,269.8a151,151,0,0,1,23.77-1.15c1.28,0,1.28-2,0-2a151,151,0,0,0-23.77,1.15c-1.26.16-1.28,2.17,0,2Z"/><path d="M81.84,302.07c-2.88-6.4-5.66-12.85-8.66-19.19a19.29,19.29,0,0,0-4.05-6.06A9,9,0,0,0,66.18,275c-.61-.22-2.9-.32-3.05-1l-1,1.27A131.63,131.63,0,0,1,86.25,279a1,1,0,0,0,.53-1.93,134.81,134.81,0,0,0-24.61-3.84,1,1,0,0,0-1,1.27c.49,2.3,3.77,1.91,5.39,2.91,2.24,1.37,3.6,3.89,4.71,6.19,3.11,6.41,5.88,13,8.81,19.51.53,1.17,2.25.15,1.73-1Z"/><path d="M69.38,280.53a97.18,97.18,0,0,1,15.79,2.76,1,1,0,0,0,.53-1.93,100.22,100.22,0,0,0-16.32-2.83c-1.28-.11-1.27,1.89,0,2Z"/><path d="M70.94,287.21a62.6,62.6,0,0,1,15.22.85c1.26.23,1.8-1.7.53-1.93a65,65,0,0,0-15.75-.92c-1.28.09-1.29,2.09,0,2Z"/><path d="M75.58,291.85A52.27,52.27,0,0,1,90.85,293c1.25.29,1.78-1.64.53-1.93a54.16,54.16,0,0,0-15.8-1.26c-1.28.08-1.29,2.08,0,2Z"/><path d="M78.17,296.34,92.6,298a1,1,0,0,0,1-1,1,1,0,0,0-1-1l-14.43-1.62a1,1,0,0,0-1,1,1,1,0,0,0,1,1Z"/><path d="M62.37,273.63c-3.84-7.22-12-10.75-15.9-17.9a1,1,0,0,0-1.57-.2l-1,1.06c-.87,1,.54,2.37,1.41,1.42l1-1.06-1.57-.21c3.9,7.17,12.07,10.71,15.89,17.9.61,1.14,2.34.13,1.73-1Z"/><path d="M43.93,282.74a15.86,15.86,0,0,0,18.32-9.13l-1.67.44a11.51,11.51,0,0,0,4.68,2.35v-1.93L54,277.54c-3.64,1-7.4,1.8-10.93,3.09-1.2.44-.68,2.37.53,1.93,3.54-1.3,7.3-2.1,10.93-3.09l11.24-3.07a1,1,0,0,0,0-1.93A9.29,9.29,0,0,1,62,272.64a1,1,0,0,0-1.67.44,13.84,13.84,0,0,1-15.87,7.73,1,1,0,0,0-.53,1.93Z"/><path d="M81.14,302.66q-8.55-15.59-18.21-30.53l-1.57,1.21q6.77,8.69,13,17.72l1.37-1.37c-4.17-2.07-6.29-6.41-8.21-10.42l-1.72,1,6.08,10.89c.63,1.12,2.35.11,1.73-1l-6.09-10.89c-.63-1.14-2.27-.14-1.72,1,2.06,4.32,4.44,8.91,8.92,11.14.82.41,2-.48,1.37-1.37q-6.4-9.24-13.33-18.12c-.7-.9-2.19.26-1.57,1.21q9.65,14.92,18.2,30.53c.62,1.13,2.35.12,1.73-1Z"/><path d="M71.19,272.8c-4.5-10-9.34-20.34-18.28-27.16a1,1,0,0,0-1.37.35,2.45,2.45,0,0,0,0,2.47c.59,1.14,2.32.13,1.73-1l0-.45-1.37.36c8.62,6.58,13.24,16.83,17.56,26.45.53,1.18,2.25.16,1.73-1Z"/><path d="M176.33,213.91c-18.58-2.86-34.54-17.48-39.43-35.59-2.85-10.58-1.84-22.5,2-32.69a41.2,41.2,0,0,1,8.7-14,47.64,47.64,0,0,1,13-9.27,90.28,90.28,0,0,1,15.6-5.89,61.06,61.06,0,0,1,18.39-2.77c6.35.17,12.16,2.18,17.84,4.89,5.25,2.5,10.62,5,15.38,8.37,9,6.4,14.91,16.76,18.13,27.18a40.52,40.52,0,0,1,1.84,17.1c-.78,5.87-3.55,10.9-7.22,15.46-7,8.69-15.25,16.9-25,22.51a63,63,0,0,1-35.2,8.16,65.5,65.5,0,0,1-9.35-1.29c-.62-.13-.89.83-.26,1a64.66,64.66,0,0,0,37.51-3.18c10.92-4.42,20-12,27.88-20.59,3.92-4.29,8-8.79,10.4-14.14a31.42,31.42,0,0,0,2.16-16.82,56,56,0,0,0-4.9-16.38A54.79,54.79,0,0,0,235,132.07a48.33,48.33,0,0,0-13.94-10.28c-5.44-2.85-11-5.82-16.94-7.57-12-3.55-24.94-.25-36.29,4-10.29,3.83-20,9.67-25.92,19.14-6.2,9.85-8.51,22.4-7.34,33.89,1.94,19.21,16.27,36.21,34.58,42a46.23,46.23,0,0,0,6.89,1.6c.63.1.9-.87.26-1Z"/><path d="M155.37,169.61a14.66,14.66,0,0,1,4.88,2.83c.36.31,1,0,.84-.49L160,168.6l-1,.27,1.11,3.23a.5.5,0,0,0,1-.13,7.49,7.49,0,0,1,1.19-4c.35-.54-.52-1-.86-.5a8.37,8.37,0,0,0-1.33,4.51l1-.14L160,168.6c-.2-.6-1.15-.35-1,.27l1.05,3.35.84-.49a16.09,16.09,0,0,0-5.33-3.09c-.6-.21-.87.76-.26,1Z"/><path d="M199.23,176.37l5.13,4.09c.36.28,1,0,.84-.49L204,176.33l-.92.38a7.65,7.65,0,0,1,1.24,3.39.5.5,0,0,0,1,.13,53.44,53.44,0,0,0,1.89-5.78.5.5,0,0,0-1-.26,56.52,56.52,0,0,1-1.89,5.78l1,.13a8.74,8.74,0,0,0-1.37-3.89c-.3-.46-1.1-.18-.92.38l1.18,3.65.84-.49-5.14-4.08a.5.5,0,0,0-.7,0,.48.48,0,0,0,0,.7Z"/><path d="M203.63,138.53a27.52,27.52,0,0,0,4.12,3.65c.33.24.72-.09.75-.43l.22-2.67-1,.13.78,2.18a.5.5,0,0,0,1,0l1.18-3.08a.5.5,0,0,0-1-.26l-1.18,3.07h1l-.78-2.18a.5.5,0,0,0-1,.14l-.22,2.67.75-.43a26,26,0,0,1-3.91-3.5c-.44-.48-1.14.23-.71.71Z"/><path d="M233.8,168.89a9.66,9.66,0,0,1,4.78,2.62.5.5,0,0,0,.84-.48l-.86-2.94-.84.49,2,2.22a.51.51,0,0,0,.84-.22l1-2.88c.22-.6-.75-.86-1-.26l-1,2.87.83-.22-2-2.22a.51.51,0,0,0-.84.49l.86,2.93.84-.48a10.64,10.64,0,0,0-5.23-2.89c-.63-.14-.89.83-.26,1Z"/><path d="M172.9,207.28a9.63,9.63,0,0,1,4.27,2.44c.47.46,1.11-.22.71-.71a15.28,15.28,0,0,1-1.83-2.86l-.78.61,2,2.3a.51.51,0,0,0,.84-.22l1.35-3.93c.22-.61-.75-.87-1-.26l-1.36,3.92.84-.22-2-2.3c-.39-.45-1,.13-.79.61a16.5,16.5,0,0,0,2,3.06l.71-.71a10.59,10.59,0,0,0-4.72-2.69.5.5,0,0,0-.26,1Z"/><path d="M165.31,130.32a20.61,20.61,0,0,1,4.1,3,.5.5,0,0,0,.79-.6,12.58,12.58,0,0,1-1.32-4.19.5.5,0,0,0-1,0,2.92,2.92,0,0,0,1,2.79.5.5,0,0,0,.78-.1l1-2,.53-1c.09-.17.11-.29.24-.3a.42.42,0,0,1,.3.1c.05.06.05.07,0,.1s-.41.1-.44,0c-.2-.61-1.16-.35-1,.27a1.27,1.27,0,0,0,1.77.69,1.08,1.08,0,0,0,.28-1.8,1.28,1.28,0,0,0-1.92.18c-.31.5-.55,1-.82,1.57l-.87,1.67.78-.1a2,2,0,0,1-.73-1.82h-1a13.22,13.22,0,0,0,1.41,4.42l.79-.6a21.82,21.82,0,0,0-4.31-3.14c-.56-.31-1.07.56-.5.87Z"/><path d="M264.22,160.76a13.68,13.68,0,0,1-.77-6.85l-1-.13a159.6,159.6,0,0,1,.65,19.68.5.5,0,0,0,.75.43l6.55-3.85c1.71-1,4.6-3.44,6.65-2.21.55.34,1.05-.53.5-.86-2.13-1.28-4.47.34-6.31,1.42L263.37,173l.75.43a159.6,159.6,0,0,0-.65-19.68c-.05-.51-.9-.73-1-.13a14.68,14.68,0,0,0,.77,7.37c.23.6,1.2.34,1-.26Z"/><path d="M278.47,166.51a118.28,118.28,0,0,1-4.35-12.4c-.18-.64-1-.35-1,.27l.91,6.71a17,17,0,0,0,.92,5,2.72,2.72,0,0,0,2.93,1.64,44.91,44.91,0,0,0,5.94-1.39q12.72-3.12,25.29-6.8l-.39-.92-1,.23c-.62-.13-.89.84-.26,1a2.16,2.16,0,0,0,1.76-.32.51.51,0,0,0-.39-.92q-11.16,3.27-22.43,6.1-2.73.69-5.47,1.35c-.92.22-1.85.49-2.78.66a2,2,0,0,1-2.52-1.61,34.49,34.49,0,0,1-.78-5.17l-.78-5.76-1,.27a118.22,118.22,0,0,0,4.34,12.4c.25.58,1.22.33,1-.27Z"/><path d="M273,152.94l11.28-2.54c1.73-.39,3.49-.72,5.21-1.18a7,7,0,0,0,3.2-1.62c1.67-1.74.65-3.88-1-5.17a29.61,29.61,0,0,1-3.1-2.34,6.41,6.41,0,0,1-1.72-4.26,6.2,6.2,0,0,1,7-6.08c.63.09.91-.88.27-1a7.17,7.17,0,0,0-7.74,9.72,7.06,7.06,0,0,0,2.21,2.94,22,22,0,0,1,3.24,2.5c3,3.44-3.94,4.6-5.91,5l-13.25,3c-.63.14-.37,1.11.26,1Z"/><path d="M270.82,155.63c-2.3-1.47-4.63-2.89-6.9-4.4a4.62,4.62,0,0,1-2.32-3.36c-.22-1.46-.33-3-.48-4.43l-1.82-17.11c-.07-.63-1.07-.64-1,0l2,19.09c.25,2.42.3,4.61,2.38,6.18,2.39,1.81,5.09,3.28,7.61,4.89.54.35,1-.52.5-.86Z"/><path d="M95.84,178.94a185,185,0,0,1,26.27-6.31c.63-.11.36-1.07-.27-1A183.67,183.67,0,0,0,95.57,178c-.61.19-.35,1.16.27,1Z"/><path d="M125.22,169.47c-1.65-9.58.34-19.3,3.07-28.49a34.24,34.24,0,0,1,6.15-12.41c3-3.66,6.34-7.07,9.53-10.57l11.35-12.44c.44-.47-.27-1.18-.7-.7L144.1,116.38c-3.42,3.75-7,7.41-10.23,11.3a33.53,33.53,0,0,0-6.09,11.56,95.09,95.09,0,0,0-3.47,14.41,49.92,49.92,0,0,0-.06,16.09c.11.63,1.08.36,1-.27Z"/><path d="M153,95.66a24.06,24.06,0,0,1,3.59,7.59.5.5,0,0,0,1-.27,24.73,24.73,0,0,0-3.69-7.82c-.37-.52-1.23,0-.86.5Z"/><path d="M168.59,90.83q1.14,5.27,2.75,10.41c.19.61,1.15.35,1-.27-1.07-3.42-2-6.9-2.75-10.4-.13-.63-1.1-.37-1,.26Z"/><path d="M179.14,98.18l15.54,2.54c4.36.71,9.06,1.35,12.53,4.34.48.42,1.19-.29.7-.71-3.36-2.9-7.74-3.73-12-4.43l-16.52-2.7c-.63-.1-.9.86-.26,1Z"/><path d="M223.78,109.79a160.09,160.09,0,0,0,15.72,10.34c2.22,1.28,4.12,2.23,6.71,1.68s5-2.09,7.61-1.11c.6.23.86-.73.27-1-2.21-.84-4.4,0-6.53.67a8.68,8.68,0,0,1-3.73.56,12.06,12.06,0,0,1-4.22-1.93,164.22,164.22,0,0,1-15.33-10.11c-.51-.39-1,.48-.5.86Z"/><path d="M256.6,128.31c-2.66,1.8-5.32,3.58-8,5.37a.52.52,0,0,0-.18.68,91.17,91.17,0,0,1,7.93,33.2c0,.64,1,.64,1,0a92.59,92.59,0,0,0-8.06-33.7l-.18.68,8-5.36c.53-.36,0-1.23-.51-.87Z"/><path d="M242.58,207.18a54.87,54.87,0,0,0,9.26-17.32c.2-.62-.77-.88-1-.27a53.6,53.6,0,0,1-9,16.88c-.4.5.31,1.22.71.71Z"/><path d="M253.49,182a.5.5,0,0,0,0-1,.5.5,0,0,0,0,1Z"/><path d="M182.54,225.82c4,2,8.52.54,12.69-.22a65.91,65.91,0,0,1,15.93-.86c.65,0,.64-1,0-1a67.39,67.39,0,0,0-14.33.59c-4.38.66-9.54,2.76-13.79.62-.57-.29-1.08.58-.5.87Z"/><path d="M254,187.58a1.41,1.41,0,0,0-2-.73,4.59,4.59,0,0,0-2.22,2.33c-1.12,2-1.42,4.73.4,6.48,2,1.93,4.66.61,6.41-1a12.27,12.27,0,0,0,3.64-6,7.51,7.51,0,0,0,.19-4c-.36-1.07-1.69-1.93-2.73-1.14-.5.39,0,1.26.51.87,1-.76,1.4.91,1.4,1.58a10,10,0,0,1-.36,2.55,11.18,11.18,0,0,1-2.44,4.58c-1.11,1.25-3,3-4.81,2.51s-2.37-2.5-2-4.07a7.55,7.55,0,0,1,1.38-2.9c.18-.25,1.48-1.44,1.72-.77s1.19.35,1-.26Z"/><path d="M275.22,202.27a16.86,16.86,0,0,0-6.31-5.14l.23.57a15.92,15.92,0,0,0,1-4.35c.07-1.12.15-2.56-.59-3.5s-2.49-1-2.22-2.7,2.09-2.39,3.5-2.91a.51.51,0,0,0,.22-.84,2.64,2.64,0,0,1,1.4-4.33c1.66-.35,3.08,1.15,4.78,1.05s3.07-.7,4.68-.06a5.18,5.18,0,0,1,3.12,3.61c.15.63,1.11.36,1-.26a6.12,6.12,0,0,0-3.63-4.24,5.68,5.68,0,0,0-3-.4c-1.58.19-2.68.55-4.22-.12-1.75-.76-3.64-.94-5,.68a3.7,3.7,0,0,0,.17,4.78l.22-.84c-2.14.8-5.16,2.43-4.1,5.24.54,1.44,2.38,1.34,2.64,2.93a12.2,12.2,0,0,1-.9,6,.52.52,0,0,0,.23.57,15.92,15.92,0,0,1,6,4.77c.38.51,1.25,0,.86-.5Z"/><path d="M273.94,198.18a6.72,6.72,0,0,1,.63-8.92.5.5,0,0,0,.08-.6,2.18,2.18,0,0,1,2.39-2.94.5.5,0,0,0,.26-1,3.18,3.18,0,0,0-3.51,4.41l.08-.6a7.73,7.73,0,0,0-.64,10.33c.41.49,1.11-.22.71-.71Z"/><path d="M96.12,89.2a24.35,24.35,0,0,1,4.19,12.36c0,.64,1,.65,1,0A25.46,25.46,0,0,0,97,88.69c-.36-.53-1.23,0-.87.51Z"/><path d="M100.44,87.88a29.54,29.54,0,0,1,3.48,13.17c0,.64,1,.64,1,0a30.59,30.59,0,0,0-3.62-13.68c-.3-.57-1.16-.06-.86.51Z"/><path d="M104,86.33A20.2,20.2,0,0,1,106.51,98c-.05.64.95.64,1,0a21.08,21.08,0,0,0-2.61-12.12c-.31-.56-1.17-.06-.86.5Z"/><path d="M108.62,86.22,110.17,95c.11.63,1.08.36,1-.27L109.59,86c-.11-.64-1.08-.37-1,.26Z"/><path d="M112.21,85.2a45.74,45.74,0,0,1,1.58,9.66c0,.64,1,.64,1,0a47.65,47.65,0,0,0-1.62-9.93.5.5,0,0,0-1,.27Z"/><path d="M115.92,84.14l2.11,7.2a.5.5,0,0,0,1-.26l-2.12-7.21a.5.5,0,0,0-1,.27Z"/><path d="M119.48,81.71a16.74,16.74,0,0,1,1.58,7,.5.5,0,0,0,1,0,17.88,17.88,0,0,0-1.72-7.47c-.27-.58-1.13-.07-.86.51Z"/><path d="M123.13,79.62a15.48,15.48,0,0,1,1.53,8.54c-.06.64.94.64,1,0a16.43,16.43,0,0,0-1.67-9c-.28-.58-1.15-.07-.86.5Z"/><path d="M127.16,78.36l.51,6.18c.06.64,1.06.65,1,0l-.51-6.18c0-.64-1.06-.65-1,0Z"/><path d="M130.78,78.49a14.43,14.43,0,0,1,1,6.06c0,.64,1,.64,1,0a15.15,15.15,0,0,0-1.06-6.32.52.52,0,0,0-.62-.35.5.5,0,0,0-.35.61Z"/><path d="M134.42,76.94l1,7.22a.5.5,0,0,0,1-.27l-1.05-7.22a.5.5,0,0,0-.61-.35.52.52,0,0,0-.35.62Z"/><path d="M138.54,75.77l.54,6.71c0,.63,1,.64,1,0l-.54-6.71c0-.63-1-.64-1,0Z"/><path d="M142.1,77.31a.5.5,0,0,0,0-1,.5.5,0,0,0,0,1Z"/><path d="M143.78,78.52l1.2-6.29c.19-1,.34-2,.57-3a3.62,3.62,0,0,1,.2-.55q.28-.15.09-.24t-.09.24a12.48,12.48,0,0,0-.13,1.61l-1,12.7c0,.65,1,.64,1,0l.61-7.88.29-3.8.14-1.75a3.81,3.81,0,0,0,0-1.71c-.3-.65-1.11-.47-1.52-.07-.72.7-.74,1.83-.91,2.76l-1.47,7.72c-.12.63.84.9,1,.26Z"/><path d="M146.77,76.94a48.18,48.18,0,0,1,1.53,9.15c0,.64,1,.65,1,0a50,50,0,0,0-1.56-9.41.5.5,0,0,0-1,.26Z"/><path d="M162.89,61.57a12.93,12.93,0,0,0,8.48,9c.62.2.88-.77.27-1a11.84,11.84,0,0,1-7.78-8.28.5.5,0,0,0-1,.27Z"/><path d="M162.77,67.29A107.44,107.44,0,0,1,169.67,78c.31.56,1.17.06.86-.51a108.45,108.45,0,0,0-6.9-10.71c-.37-.52-1.24,0-.86.5Z"/><path d="M168,77.06l1.54,2.58a.5.5,0,0,0,.87-.5l-1.55-2.58a.5.5,0,1,0-.86.5Z"/><path d="M166.46,61.05a18.94,18.94,0,0,0,6.29,6,.5.5,0,0,0,.5-.87,17.91,17.91,0,0,1-5.93-5.59c-.35-.53-1.22,0-.86.51Z"/><path d="M173.42,62.34l2.06.51a.5.5,0,1,0,.27-1l-2.06-.52a.5.5,0,1,0-.27,1Z"/><path d="M177.94,58.68l1.55,1a.5.5,0,0,0,.68-.18.51.51,0,0,0-.18-.69l-1.54-1a.51.51,0,0,0-.69.18.53.53,0,0,0,.18.69Z"/><path d="M183.52,56a8.92,8.92,0,0,0,3.82,2.73.49.49,0,0,0,.61-.35.5.5,0,0,0-.35-.61,8,8,0,0,1-3.37-2.47.5.5,0,1,0-.71.7Z"/><path d="M188.26,53l1.54,1a.51.51,0,0,0,.69-.18.52.52,0,0,0-.18-.69l-1.55-1a.5.5,0,0,0-.68.18.49.49,0,0,0,.18.68Z"/><path d="M191.77,52.4a42.76,42.76,0,0,0,3.45,2.85,21.52,21.52,0,0,0,3.68,2.36c1,.48,2.39.72,3.24-.26s.52-2.28.21-3.34a.5.5,0,0,0-1,.26c.23.76.62,2.07-.2,2.61s-2.16-.31-2.89-.76a37.31,37.31,0,0,1-5.81-4.43c-.47-.44-1.18.27-.71.71Z"/><path d="M196.94,48.26A23,23,0,0,0,202.8,53a8.45,8.45,0,0,0,3.44,1.42,1.65,1.65,0,0,0,1.79-2,.5.5,0,0,0-1,.26c.14.51-.46.72-.85.7a4.58,4.58,0,0,1-1.48-.52,24,24,0,0,1-2.61-1.48,22.14,22.14,0,0,1-4.48-3.89c-.43-.49-1.13.22-.71.7Z"/><path d="M202,47.32c2.15,1.93,4.25,4,6.46,5.81a3.43,3.43,0,0,0,3,1A1.92,1.92,0,0,0,213,52.05c-.09-.64-1.06-.37-1,.26.14.91-1.2,1-1.76.81a9.21,9.21,0,0,1-2.46-1.94l-5.08-4.57c-.47-.43-1.18.28-.7.71Z"/><path d="M207.82,46a10.24,10.24,0,0,0,9.61,4.9c.64-.06.65-1.06,0-1a9.26,9.26,0,0,1-8.75-4.41.5.5,0,0,0-.86.51Z"/><path d="M215.05,45.62a12.43,12.43,0,0,0,9.07,3.16c.64,0,.64-1,0-1a11.34,11.34,0,0,1-8.36-2.87c-.48-.43-1.19.27-.71.71Z"/><path d="M222.41,45.32l7.22,2.58c.61.21.87-.75.27-1l-7.22-2.58c-.61-.21-.87.75-.27,1Z"/><path d="M142,265.41l13.35,5.31c.59.23.85-.73.26-1l-13.35-5.31c-.59-.24-.85.73-.26,1Z"/><path d="M144.89,262.24a34.07,34.07,0,0,0,12.54,6.91.5.5,0,0,0,.26-1,32.87,32.87,0,0,1-12.1-6.65c-.48-.42-1.19.29-.7.71Z"/><path d="M148.55,259.62a46.13,46.13,0,0,0,11.85,8.45c.57.28,1.08-.58.5-.87a45.1,45.1,0,0,1-11.65-8.29.5.5,0,0,0-.7.71Z"/><path d="M156.18,260.23l8.25,8.25c.46.46,1.17-.25.71-.7l-8.25-8.26a.5.5,0,0,0-.71.71Z"/><path d="M161.25,257.56l6.6,9.36c.36.52,1.23,0,.86-.51l-6.6-9.36c-.36-.52-1.23,0-.86.51Z"/><path d="M164.85,256.53l4.52,7.81a.5.5,0,0,0,.86-.51l-4.52-7.8a.5.5,0,0,0-.86.5Z"/><path d="M168.47,256l3.58,6.21a.5.5,0,0,0,.86-.51l-3.57-6.21a.5.5,0,0,0-.87.51Z"/><path d="M172.16,255.45a31.85,31.85,0,0,0,4.92,6.57c.45.46,1.16-.25.71-.71a30.24,30.24,0,0,1-4.76-6.37c-.32-.56-1.18-.05-.87.51Z"/><path d="M176.73,254.46l2.58,5.15c.29.58,1.15.07.86-.5L177.6,254c-.29-.57-1.15-.07-.87.51Z"/><path d="M179.34,251.34l4.07,6.74c.34.55,1.2.05.87-.5l-4.07-6.74c-.34-.55-1.2-.05-.87.5Z"/><path d="M184.93,251.24,187,256.4a.51.51,0,0,0,.61.35.5.5,0,0,0,.35-.61L185.9,251a.52.52,0,0,0-.62-.35.5.5,0,0,0-.35.61Z"/><path d="M188.6,249.81l2.61,6.18a.51.51,0,0,0,.69.18.52.52,0,0,0,.18-.69l-2.61-6.17a.51.51,0,0,0-.69-.18.51.51,0,0,0-.18.68Z"/><path d="M190.32,247.13l5,8.36a.5.5,0,0,0,.86-.51l-5-8.35a.5.5,0,0,0-.86.5Z"/><path d="M195.85,246.19l3.05,5.17a.5.5,0,0,0,.87-.5l-3.06-5.18a.5.5,0,0,0-.86.51Z"/><path d="M198.48,243.58l4.68,8.23a.5.5,0,0,0,.86-.51l-4.68-8.22a.5.5,0,0,0-.86.5Z"/><path d="M203,242.09a17.6,17.6,0,0,1,3.12,7.6c.1.63,1.06.36,1-.27a18.35,18.35,0,0,0-3.21-7.83c-.37-.52-1.24,0-.87.5Z"/><path d="M207.15,242.08a19.21,19.21,0,0,1,2.55,6.07c.14.62,1.11.36,1-.27a20.09,20.09,0,0,0-2.64-6.3c-.35-.54-1.21,0-.87.5Z"/><path d="M209.7,238.87a28.74,28.74,0,0,0,4.1,8.93c.36.52,1.23,0,.86-.51a27.92,27.92,0,0,1-4-8.69.5.5,0,0,0-1,.27Z"/><path d="M214.94,239.48l3.69,6.65a.5.5,0,0,0,.87-.5L215.8,239c-.31-.56-1.17-.06-.86.51Z"/><path d="M218,237.44a63.17,63.17,0,0,1,5.15,9.28c.27.59,1.13.08.87-.5a62.72,62.72,0,0,0-5.16-9.28c-.36-.54-1.22,0-.86.5Z"/><path d="M221.05,234.36a57.19,57.19,0,0,1,5.25,11.17c.2.61,1.17.35,1-.26a58.43,58.43,0,0,0-5.34-11.41c-.34-.55-1.2-.05-.87.5Z"/><path d="M226.18,234.75l3.54,9.31c.22.59,1.19.33,1-.27l-3.54-9.31c-.22-.6-1.19-.34-1,.27Z"/><path d="M230.34,235.25,233,243c.21.61,1.17.35,1-.26L231.3,235c-.2-.6-1.17-.34-1,.27Z"/><path d="M233.41,229.07,236,236.8c.2.61,1.16.35,1-.26l-2.58-7.74c-.2-.6-1.17-.34-1,.27Z"/><path d="M236.56,227.63a33.39,33.39,0,0,1,4.07,10.72c.12.63,1.09.37,1-.26a34.39,34.39,0,0,0-4.17-11,.5.5,0,0,0-.87.5Z"/><path d="M241.16,228a42.21,42.21,0,0,1,2.55,10.49.5.5,0,0,0,1,0v-1.85a.5.5,0,0,0-1,0v1.85h1a43.25,43.25,0,0,0-2.58-10.75c-.23-.6-1.2-.34-1,.26Z"/><path d="M243.22,227l2.08,9.8c.14.63,1.1.36,1-.27l-2.09-9.79c-.13-.63-1.1-.36-1,.26Z"/><path d="M248.27,221.73a73,73,0,0,1,.59,12.36c0,.65,1,.65,1,0a73,73,0,0,0-.59-12.36c-.09-.63-1.09-.64-1,0Z"/><path d="M252,222.75v12.89a.5.5,0,0,0,1,0V222.75a.5.5,0,0,0-1,0Z"/><path d="M256.91,219.65l.09,15a.5.5,0,0,0,1,0l-.09-15a.5.5,0,0,0-1,0Z"/><path d="M263.25,217.08a118.69,118.69,0,0,1-.3,16c-.05.64.95.63,1,0a118.69,118.69,0,0,0,.3-16c0-.64-1-.65-1,0Z"/><path d="M266.4,214.12a44.12,44.12,0,0,1-.49,16.75c-.14.63.83.9,1,.27a45.52,45.52,0,0,0,.49-17.29c-.11-.63-1.07-.36-1,.27Z"/><path d="M271.57,214a150,150,0,0,1-.76,15c-.07.64.93.63,1,0a150,150,0,0,0,.76-15,.5.5,0,0,0-1,0Z"/><path d="M276.72,214.5a127.74,127.74,0,0,1-1.58,15.85c-.1.62.86.9,1,.26a129.83,129.83,0,0,0,1.61-16.11c0-.65-1-.64-1,0Z"/><path d="M282.84,213.47a92.37,92.37,0,0,1-1.77,16.41c-.13.63.84.9,1,.27a93.56,93.56,0,0,0,1.81-16.68.5.5,0,0,0-1,0Z"/><path d="M285.6,213l-.08,13.41a.5.5,0,0,0,1,0L286.6,213a.5.5,0,0,0-1,0Z"/><path d="M288.57,210.89a84.09,84.09,0,0,1,.51,12.89c0,.64,1,.64,1,0a84.09,84.09,0,0,0-.51-12.89c-.08-.63-1.08-.64-1,0Z"/><path d="M291.15,216v3.61a.51.51,0,0,0,.5.5.5.5,0,0,0,.5-.5V216a.5.5,0,1,0-1,0Z"/><path d="M15.38,191.09A70.2,70.2,0,0,0,35.9,203.77c.37.14.71-.28.62-.62-.51-1.86-2.27-2.86-3.74-3.92l-6.38-4.6-12.76-9.21v.87c1.34-.7,2.95.66,4,1.32l3,1.8,6.59,4,13,7.83c.56.34,1-.5.51-.86l-12.78-8.72c-3.7-2.52-8.31-4.89-10.64-8.87l-.68.69L45.32,200a.51.51,0,0,0,.61-.79c-3.79-4.36-9-7-14-9.68s-10.24-5.76-13.1-11l-.69.69q15.44,10.32,31.37,19.82c.47.28.88-.26.69-.68A12.86,12.86,0,0,0,44.84,193c-2.62-1.61-5.36-3-8-4.62A53.3,53.3,0,0,1,22.5,176.12l-.6.78q9.26,6,18.59,11.87c5.5,3.46,11.12,7.76,17.57,9.22.45.1.89-.49.48-.84-9.51-8.1-23.13-11.06-30.78-21.38l-.69.68q8.68,5.75,17.64,11c5.23,3.08,10.88,7.09,17.17,7.25a.5.5,0,0,0,.25-.93C51,187.91,39.65,181.91,30.41,173.16l-.61.79,28.36,16.49c.57.33,1-.48.51-.86L36,172.61l-.39.92c6.17,1.58,9.36,8.19,15.52,9.87a.51.51,0,0,0,.49-.84q-5.85-5.77-11.09-12.11l-.22.84c2.51-.41,4.57,1.6,6.39,3,1.66,1.29,3.44,2.52,5.62,2.5a.5.5,0,0,0,0-1c-4.81,0-7.22-6.3-12.28-5.48-.4.07-.43.58-.22.84q5.25,6.32,11.09,12.11l.48-.84c-6.12-1.66-9.31-8.28-15.51-9.87a.51.51,0,0,0-.39.92l22.63,17,.51-.86L30.3,173.08a.5.5,0,0,0-.6.79c9.3,8.81,20.68,14.86,31.92,20.78l.26-.93a20.86,20.86,0,0,1-9.19-2.85c-2.82-1.49-5.56-3.13-8.3-4.75q-8.53-5.06-16.81-10.53c-.4-.27-1,.28-.69.68,7.76,10.46,21.33,13.4,31,21.59l.48-.84a30.84,30.84,0,0,1-9-3.93c-2.94-1.76-5.84-3.61-8.74-5.44Q31.45,181.9,22.4,176c-.52-.34-.93.37-.61.78a52.63,52.63,0,0,0,13.5,11.73c2.52,1.6,5.13,3,7.72,4.52s5.07,3.07,6.32,5.82l.68-.68q-15.94-9.51-31.37-19.83c-.44-.29-.91.27-.69.69,5.83,10.59,19.66,12.06,27.27,20.84l.61-.79L17.12,182.6a.5.5,0,0,0-.68.68c2.28,3.89,6.57,6.2,10.18,8.67l13.59,9.27.51-.86L26.05,191.5l-7.23-4.37c-1.63-1-3.69-2.74-5.68-1.71a.51.51,0,0,0,0,.87l11.56,8.34,5.58,4,2.79,2c1,.74,2.13,1.46,2.49,2.75l.61-.62a68.48,68.48,0,0,1-20.08-12.42c-.48-.43-1.19.28-.71.71Z"/><path d="M102.93,133a11,11,0,0,1,3.08,3.75c.21.42,1,.24.93-.25l-.43-3.82-.94.25a5.83,5.83,0,0,1,.54,3,.51.51,0,0,0,.86.36,9.16,9.16,0,0,0,2.08-3.74.5.5,0,0,0-1-.26,8,8,0,0,1-1.82,3.29l.85.35a6.82,6.82,0,0,0-.67-3.55c-.21-.44-1-.24-.93.25l.43,3.82.93-.26a12,12,0,0,0-3.44-4.1.5.5,0,1,0-.5.86Z"/><path d="M109,119a7,7,0,0,1,4.14,3.9l.78-.61a4.69,4.69,0,0,1-1.09-3.11l-.93.25,1.43,2.27a.51.51,0,0,0,.87,0l2.45-4c.33-.55-.53-1-.87-.5l-2.45,4h.87L112.73,119a.5.5,0,0,0-.93.25,5.75,5.75,0,0,0,1.39,3.82.49.49,0,0,0,.65,0,.51.51,0,0,0,.13-.65,8,8,0,0,0-4.73-4.36c-.61-.21-.87.76-.27,1Z"/><path d="M80.86,206.39c-3.22-.67-4-4.29-3.82-7.08a11.31,11.31,0,0,1,.85-4.46,3.14,3.14,0,0,1,3.56-1.91l-.3-.73-4.85,9.07.92.39a22.9,22.9,0,0,1,4.14-9.44l-.91-.39a12.78,12.78,0,0,1-4,6.77l.84.48a13.09,13.09,0,0,1,5.11-6.46l-.6-.79-6.53,5.71.78.6a8.73,8.73,0,0,1,5.31-4l-.49-.84-6.59,6.9a.51.51,0,0,0,.61.79,26.34,26.34,0,0,0,7.67-6.42c.33-.41-.1-1.13-.61-.79a16.71,16.71,0,0,0-5.66,6.4l.91.38A9.37,9.37,0,0,1,84.3,193c.64-.14.36-1.08-.26-1l-6.35,1.14.26,1a12.21,12.21,0,0,1,7.08-.29l.27-1-2.64-.54v1a1.34,1.34,0,0,1,1.85,1c.06.64,1.06.64,1,0a2.35,2.35,0,0,0-3.12-2c-.41.16-.53.86,0,1l2.64.53c.63.13.89-.8.27-1a13.16,13.16,0,0,0-7.61.29.5.5,0,0,0,.26,1L84.3,193l-.26-1a10.35,10.35,0,0,0-7.85,8.24c-.09.51.64.93.91.38a15.76,15.76,0,0,1,5.31-6l-.61-.79a25.44,25.44,0,0,1-7.47,6.26l.61.79,6.59-6.9a.51.51,0,0,0-.49-.84,9.72,9.72,0,0,0-5.9,4.48.5.5,0,0,0,.78.6l6.53-5.7c.43-.37-.13-1.1-.6-.78a14.16,14.16,0,0,0-5.58,7.06c-.18.5.5.78.84.48a13.57,13.57,0,0,0,4.3-7.2.5.5,0,0,0-.91-.39,23.73,23.73,0,0,0-4.25,9.68c-.1.53.63.92.92.39L82,192.71a.5.5,0,0,0-.3-.73,3.92,3.92,0,0,0-4.19,1.57,9.75,9.75,0,0,0-1.45,5.23c-.24,3.36.62,7.77,4.52,8.57.63.13.9-.83.27-1Z"/><path d="M253.48,195.06a2.7,2.7,0,0,1-.54-5.29l-.26-1c-.83.28-1.33-.78-1.14-1.46a3,3,0,0,1,1.52-1.51c.37-.22,2.72-1.36,2.8-.28l.37-.48a.52.52,0,0,1,.4-.6,3.55,3.55,0,0,1,.43-.23,5.84,5.84,0,0,1,1.07-.43,7.18,7.18,0,0,1,2.26-.31c.86,0,1.15.34,1.13,1.24a3.16,3.16,0,0,1-.91,2.14.5.5,0,0,0,.48.84c1.22-.28,1.68,1.18,1.49,2.11a7.05,7.05,0,0,1-1,2.2c-.71,1.22-1.7,2.67-3.29,2.58-.65,0-.64.94,0,1,2,.17,1.27,2.72.65,3.79a7.53,7.53,0,0,1-2.51,2.83,3.08,3.08,0,0,1-3.53-.06,1.77,1.77,0,0,1,.26-2.88c.57-.3.07-1.14-.51-.87-1.4.68-2.9-.66-3.26-2-.48-1.75.5-3.65,1.26-5.17.28-.58-.58-1.08-.87-.51-1,2-2.2,4.59-1,6.78a3.42,3.42,0,0,0,4.4,1.75l-.51-.87a2.78,2.78,0,0,0-1,3.85c.94,1.6,3.17,1.78,4.73,1.09a8.36,8.36,0,0,0,4-4.64c.63-1.73,0-3.93-2.08-4.11v1c2.46.15,4-2.53,4.9-4.48a3.6,3.6,0,0,0,.14-3.15,2.24,2.24,0,0,0-2.5-1.22l.48.83a4.18,4.18,0,0,0,1.14-3.67c-.1-.55-.24-1.14-.81-1.3a6.58,6.58,0,0,0-2.54,0c-1.19.16-3,.63-3.75,1.68-.57.81.05,2.23,1.15,1.78a.53.53,0,0,0,.36-.49c-.19-2.63-3.93-1-5-.1a2.73,2.73,0,0,0-1.24,2.87,1.91,1.91,0,0,0,2.36,1.45c.61-.21.36-1.15-.26-1a3.68,3.68,0,0,0,.8,7.26c.65,0,.64-1,0-1Z"/><path d="M154.35,306.74,164.63,310c.61.19.87-.77.26-1l-10.27-3.21c-.62-.2-.88.77-.27,1Z"/><path d="M154.72,301.6l14.44,6.19c.58.26,1.09-.61.5-.86l-14.44-6.19c-.58-.25-1.09.61-.5.86Z"/><path d="M153.72,295.34l15,7.2c.58.27,1.08-.59.5-.87l-15-7.19c-.58-.28-1.09.58-.51.86Z"/><path d="M150.11,291.21a159.18,159.18,0,0,0,16.55,6.45c.62.2.88-.77.27-1a155.83,155.83,0,0,1-16.31-6.34c-.58-.26-1.09.6-.51.86Z"/><path d="M147.12,286.14a128.74,128.74,0,0,1,15.46,6.53c.48.24,1.08-.41.61-.78l-1.14-.91c-.5-.4-1.21.31-.71.71l1.14.91.61-.79a129.49,129.49,0,0,0-15.7-6.63c-.61-.21-.87.75-.27,1Z"/><path d="M147,282.45l13.46,6.07c.58.26,1.09-.6.5-.86l-13.46-6.07c-.58-.26-1.09.6-.5.86Z"/><path d="M144.48,277.73l15.31,7.55c.57.28,1.08-.58.5-.87L145,276.87c-.57-.29-1.08.58-.5.86Z"/><path d="M141.86,273.16l16.45,7.24c.41.18,1-.22.68-.68l-1-1.53c-.35-.53-1.21,0-.86.51l1,1.52.68-.68-16.44-7.25c-.58-.25-1.09.61-.51.87Z"/><path d="M146.74,271.72a.5.5,0,0,0,0-1,.5.5,0,0,0,0,1Z"/><path d="M211.22,261.75a45.28,45.28,0,0,1,15.16-13.87c.56-.31.06-1.18-.51-.86a46.37,46.37,0,0,0-15.52,14.22c-.36.53.5,1,.87.51Z"/><path d="M212.45,267.52a48.8,48.8,0,0,1,6.55-9.2,49.48,49.48,0,0,1,3.93-3.87q1-.91,2.13-1.77c.18-.14,2-1.66,2.22-1a.5.5,0,0,0,1-.27c-.52-1.9-2.84-.29-3.68.36a48.11,48.11,0,0,0-5,4.46,49.58,49.58,0,0,0-8,10.74c-.31.56.55,1.07.86.5Z"/><path d="M218.41,271a44.69,44.69,0,0,1,10.38-11c.51-.38,0-1.25-.5-.86a45.83,45.83,0,0,0-10.74,11.31c-.36.54.5,1,.86.51Z"/><path d="M225,276.22l7.22-8.25c.42-.48-.28-1.19-.71-.7l-7.22,8.25c-.42.48.28,1.19.71.7Z"/><path d="M230.71,279.73l4.13-5.67a.51.51,0,0,0-.18-.69.5.5,0,0,0-.68.18l-4.13,5.67a.51.51,0,0,0,.18.69.51.51,0,0,0,.68-.18Z"/><path d="M232.83,288.52a42.14,42.14,0,0,1,5.34-7.83c.42-.49-.28-1.2-.7-.71a41.92,41.92,0,0,0-5.5,8c-.3.57.56,1.07.86.5Z"/><path d="M236.72,290.74l2.06-1.55a.52.52,0,0,0,.23-.3.49.49,0,0,0,0-.39.51.51,0,0,0-.68-.18l-2.06,1.55a.5.5,0,0,0-.23.3.49.49,0,0,0,0,.39.51.51,0,0,0,.68.18Z"/><path d="M240,277.31A96.31,96.31,0,0,1,259,282.55c.6.23.86-.74.27-1a96.88,96.88,0,0,0-19.07-5.23c-.63-.11-.9.85-.26,1Z"/><path d="M243.17,272.24a51.41,51.41,0,0,1,11.23,2.51c.61.21.87-.76.27-1a53.25,53.25,0,0,0-11.5-2.54c-.64-.07-.63.93,0,1Z"/><path d="M235.31,266l16.48,2.68c.63.1.91-.86.27-1L235.58,265c-.63-.1-.91.86-.27,1Z"/><path d="M238.93,261.84l11.37,3a.5.5,0,0,0,.26-1l-11.36-3a.5.5,0,0,0-.27,1Z"/><path d="M237.36,253.67l10.31,2.12c.62.13.89-.84.26-1l-10.3-2.11c-.63-.13-.9.84-.27,1Z"/><path d="M236.35,249l7.75,2a.5.5,0,0,0,.26-1l-7.74-2a.5.5,0,0,0-.27,1Z"/><path d="M242.14,244.91a.5.5,0,0,0,0-1,.5.5,0,0,0,0,1Z"/><path d="M294.81,208.88c1.34-.07.09,5.44,0,6.2-.38,2.37-.82,4.74-1.32,7.09-.25,1.14-.46,2.31-.78,3.43-.18.6-.33,1-1,1.18a1.56,1.56,0,0,1-1.23-.15,1.45,1.45,0,0,1,.12-2.35c1.06-.7,2.2.51,2.09,1.56-.07.64.93.64,1,0,.21-1.9-2-3.53-3.7-2.36a2.42,2.42,0,0,0,.39,4.2,2.62,2.62,0,0,0,2.45-.35c1-.76,1-2.4,1.28-3.52.71-3.14,1.31-6.32,1.78-9.51a17.88,17.88,0,0,0,.51-4.65c-.11-.89-.57-1.83-1.6-1.77-.64,0-.64,1,0,1Z"/><path d="M295.81,223.65l-1.55,5.67a.5.5,0,0,0,1,.27l1.55-5.68a.5.5,0,0,0-1-.26Z"/><path d="M297.87,231.38l-1.55,4.13a.5.5,0,0,0,.35.61.51.51,0,0,0,.62-.35l1.54-4.12a.5.5,0,0,0-.35-.62.51.51,0,0,0-.61.35Z"/><path d="M300.45,236.54l-4.05,11.8c-.16.46.52.88.83.49a8.14,8.14,0,0,0,1.59-3.26c.15-.63-.81-.89-1-.27a7,7,0,0,1-1.34,2.82l.84.49,4.05-11.81c.21-.61-.76-.87-1-.26Z"/><path d="M302.56,243.77a6.5,6.5,0,0,0,.92,4.95.51.51,0,0,0,.86,0l8.09-11.46-.92-.39-11.74,33.7c-.18.53.67.9.92.39l5.24-10.78c1.55-3.18,2.9-6.75,5.59-9.16l-.84-.49L305.1,269c-.18.57.6.83.91.39a44.37,44.37,0,0,0,5.59-10.92l-.92.12a4.14,4.14,0,0,1-.86,5c-.47.44.24,1.15.7.71a5.19,5.19,0,0,0,1-6.19.51.51,0,0,0-.92.12,43,43,0,0,1-5.48,10.68l.91.39q2.79-9.26,5.59-18.51a.51.51,0,0,0-.84-.49c-2.64,2.38-4,5.79-5.52,8.92l-5.47,11.22.92.39,11.74-33.7c.19-.57-.61-.82-.92-.39l-8.08,11.46h.86a5.48,5.48,0,0,1-.81-4.17c.13-.63-.84-.9-1-.27Z"/><path d="M156.55,89.19v5.67a.5.5,0,0,0,1,0V89.19a.5.5,0,0,0-1,0Z"/><path d="M160.24,89.43a4.59,4.59,0,0,1,.44,1.37v.08a1.49,1.49,0,0,1,0,.21c0,.13,0,.25,0,.38s0,.25,0,.38,0,.11,0,.16,0,.07,0,0,0,.07,0,.1a.52.52,0,0,0,.35.62.5.5,0,0,0,.61-.35,5.52,5.52,0,0,0-.54-3.48.5.5,0,1,0-.86.5Z"/><path d="M164.06,89.45c.08,0,0,0,0,0s.05,0,.05,0l.07,0c.06,0-.05,0,0,0l.12.07s-.07-.07,0,0,.05,0,.07.06l0,0c.05,0,0-.07,0,0l.07.11a.67.67,0,0,1,.06.12s.05.09,0,0,0,0,0,0a7.57,7.57,0,0,1,.23,1.17,1.83,1.83,0,0,0,.73,1.19,1.34,1.34,0,0,0,1.17.06,1,1,0,0,0,.61-1.16.5.5,0,1,0-1,.27c0,.07,0,0,0,0s0,0,0,.05,0-.12,0-.07a.08.08,0,0,1,0,0s.06-.1,0-.07a.08.08,0,0,0,0,0s.06-.06,0,0-.09.07,0,0,0,0,0,0,0,0,0,0l-.11,0h0s.06,0,.06,0H166c.09,0,0,0-.06,0h0s.09.05.05,0l0,0c-.06,0,0,0,0,0l-.07-.07,0,0,0,0-.06-.11s0-.1,0,0c0-.1-.06-.18-.08-.28a5,5,0,0,1-.1-.56,3,3,0,0,0-.34-1.09,1.43,1.43,0,0,0-1.16-.76.51.51,0,0,0-.5.5.5.5,0,0,0,.5.5Z"/><path d="M166.9,89.46l1.29,2.21a.49.49,0,0,0,.68.18.5.5,0,0,0,.18-.68L167.76,89a.5.5,0,1,0-.86.5Z"/><path d="M170.21,88.07l3.09,2.06A.51.51,0,0,0,174,90a.51.51,0,0,0-.18-.68l-3.1-2.06a.49.49,0,0,0-.68.18.5.5,0,0,0,.18.68Z"/><path d="M174.45,87.62l4.62,1.59a.51.51,0,0,0,.62-.34.52.52,0,0,0-.35-.62l-4.63-1.59a.5.5,0,0,0-.26,1Z"/><path d="M197,73.5l4.7,4c.33.28,1,0,.83-.49a7.5,7.5,0,0,1-.36-4.63l-.84.22A3.6,3.6,0,0,1,202,75.7c-.13.53.66.91.91.38l1.87-3.91c.28-.58-.58-1.09-.86-.51L202,75.58,203,76a4.67,4.67,0,0,0-.94-4.1.51.51,0,0,0-.84.22,8.4,8.4,0,0,0,.37,5.17l.84-.49-4.7-4c-.49-.41-1.2.29-.71.71Z"/><path d="M246.65,41.2a3.49,3.49,0,0,1,2.76,2.59.5.5,0,0,0,1-.14l.08-3.21-.93.25,1.33,2.72a.5.5,0,0,0,.86,0,20.47,20.47,0,0,1,2.94-4.1c.43-.47-.27-1.18-.71-.71a21.88,21.88,0,0,0-3.09,4.31h.86l-1.33-2.73c-.22-.46-.92-.21-.93.26l-.08,3.21,1-.13a4.46,4.46,0,0,0-3.46-3.29c-.63-.11-.89.85-.26,1Z"/></g></g></svg>