<svg xmlns="http://www.w3.org/2000/svg" viewBox="0 0 242.59 333.81"><g id="Layer_2" data-name="Layer 2"><g id="Layer_7_136" data-name="Layer 7,136"><path d="M4.35,7.92c3.14,9.39,5.94,18.7,9.46,28,3.65,9.59,6.94,19.31,10.2,29Q34.3,95.57,44.82,126.12,65.7,187,86,248c7.62,23,15.53,46,23.35,68.95,3.48,10.24,19.83,5.8,16.27-4.48Q83.14,189.9,40.38,67.45C36.64,56.8,32.94,46.13,28.87,35.6c-2.11-5.47-4.16-11.06-6.78-16.31s-6.25-10-9.6-14.8C9.78.61,2.65,2.81,4.35,7.92Z"/><path d="M3.6,11.29c17,3.74,34.63,3.68,52,4.34s34.88,1.27,52.3,2.21C142.7,19.71,177.41,23,211.47,30.47c9.41,2.06,13.43-12.4,4-14.47C180.75,8.41,145.3,4.91,109.87,3,92.45,2,75,1.37,57.58.82,39.56.26,21.49-1,3.6,1.58c-5,.72-4.62,8.7,0,9.71Z"/><path d="M228.92,328.83c1.32-9.4.13-19.23-.18-28.7s-.61-19.22-.88-28.83Q227,242,226.5,212.63q-1.08-58.18-1.08-116.38,0-32.83.34-65.65c.1-9.88-15.25-9.89-15.35,0Q209.2,147,212.55,263.34q.47,15.92,1,31.82c.38,11-.44,22.91,1.93,33.67,1.4,6.37,12.48,6.91,13.44,0Z"/><path d="M113.78,321.63c2.1.58,3.92,1.77,6.07,2.19s4.46.31,6.64.5c3.88.34,7.73.81,11.62,1.09,8.7.62,17.41.91,26.1,1.6,17,1.34,34,3.62,50.81,6.45,9.66,1.63,13.81-13.16,4.08-14.8-17.56-3-35.21-5-52.95-6.5-8.67-.71-17.4-1.42-26.1-1.52-4.55-.05-9,.25-13.56.52-1.89.11-3.93,0-5.81.27-2.53.35-4.47,1.61-6.9,2.29-3.88,1.09-3.92,6.84,0,7.91Z"/><path d="M242.1,177.66a.5.5,0,0,0,0-1,.5.5,0,0,0,0,1Z"/><path d="M126.61,58.55a62.74,62.74,0,0,1,6.09,17.11,2,2,0,1,0,3.85-1.06,65.76,65.76,0,0,0-6.49-18.07c-1.21-2.27-4.66-.26-3.45,2Z"/><path d="M129.73,55.61c2.7-1.47,4.48-4,6-6.58,1.85-3,3.68-6.1,5.52-9.15,1.33-2.21-2.13-4.22-3.46-2-1.76,2.92-3.51,5.84-5.28,8.75-1.32,2.2-2.65,4.35-4.83,5.54a2,2,0,0,0,2,3.46Z"/><path d="M138.4,41.76q31.69-.54,63.4.28l-1.93-1.47a.62.62,0,0,1-.14.43c-1.21,2.27,2.24,4.29,3.46,2a5.16,5.16,0,0,0,.53-3.51A2,2,0,0,0,201.8,38q-31.7-.82-63.4-.28c-2.57,0-2.58,4,0,4Z"/><path d="M134.29,78.31,186.22,78l7.2,0,3.48,0,2,0a3,3,0,0,0,.52,0,.2.2,0,0,1,.18,0c.46.15.31-.12-.45-.82a2,2,0,0,0,2,2,2,2,0,0,0,2-2c.26-2-1.79-3.06-3.47-3.19-2.3-.18-4.69,0-7,0L178.51,74l-28.07.19-16.15.11c-2.58,0-2.58,4,0,4Z"/><path d="M127.22,137.59l-.32-54c0-1.6-2.27-2.8-3.42-1.41L122,84c-1.62,2,1.19,4.81,2.83,2.82L126.31,85l-3.41-1.42.32,54c0,2.57,4,2.58,4,0Z"/><path d="M125.52,141.14h23.21c2.57,0,2.58-4,0-4H125.52c-2.57,0-2.58,4,0,4Z"/><path d="M150,137.62a248.9,248.9,0,0,1-1.49-28.5q0-7.14.49-14.27c.12-1.85.84-4.57-1.16-5.66s-4.38,1.42-3,3.27a2.12,2.12,0,0,0,2.26.91l.13,0c2.51-.57,1.45-4.43-1.06-3.86l-.13,0,2.26.92-.07-.09.27,1,0,.21-.51.89.1-.12-1.41.59.15,0-1-.27.22.15-.72-.72c-.26-.52-.17.63-.19.81,0,.49-.06,1-.1,1.47-.06,1-.12,2-.17,3-.1,1.89-.18,3.77-.24,5.66-.12,3.86-.14,7.71-.08,11.57q.18,11.58,1.46,23.09a2.05,2.05,0,0,0,2,2,2,2,0,0,0,2-2Z"/><path d="M146.67,92.47q22.65-.07,45.3.84l-1-3.72-1.39,1a2.07,2.07,0,0,0-.72,2.74,2,2,0,0,0,2.74.72L193,93a2,2,0,0,0-1-3.73q-22.64-.91-45.3-.84c-2.57,0-2.58,4,0,4Z"/><path d="M127.42,82.82l5.42-2.57L135.51,79l.34-.17q-.28.12,0,0l.18,0c-.24,0-.25,0,0,0a1.14,1.14,0,0,1-.79-.35c-.18-.27-.22-.31-.11-.13a1.36,1.36,0,0,1,.54-1.81,2,2,0,0,0-.71,2.74,2,2,0,0,0,2.73.72A2.69,2.69,0,0,0,139,77.67a2.89,2.89,0,0,0-1-2.13,3.27,3.27,0,0,0-2.83-.66,9.25,9.25,0,0,0-2.14.87l-7.62,3.62a2,2,0,0,0-.72,2.73,2,2,0,0,0,2.73.72Z"/><path d="M182.74,152.56c-.09-3-.12-6-.08-9,0-1.49.06-3,.11-4.48a17.14,17.14,0,0,1,.24-4c.27-.88,1.15-.7,2-.73a8.65,8.65,0,0,0,3.41-.64A13.33,13.33,0,0,0,191,132c.49-.37,1.13-1,1.74-1-.49,0,.13.14.31.24a5,5,0,0,0,.74.35,3,3,0,0,0,1.95.07c1.38-.44,1.81-1.77,1.92-3.06.23-3,.25-5.93.37-8.88l.74-17.76.21-4.94a20.54,20.54,0,0,0,.06-4.7c-.73-3.61-5.31-2.68-8-2.66s-2.58,4,0,4l2.66,0h1.2c.16,0,1.42,0,.54-.21-.3-.33-.4-.28-.31.15l0,.49L195,95.59l-.1,2.47-.44,10.36-.42,10.11-.22,5.18-.1,2.47-.06,1.48,0,.49c-.09.58,0,.66.12.21l.88-.51-.32.09h1.06c-.64-.11-1.21-.63-1.87-.78a4.23,4.23,0,0,0-2,0,9.4,9.4,0,0,0-3.37,2,4.75,4.75,0,0,1-3,1.21,7.47,7.47,0,0,0-4.13.91,5.24,5.24,0,0,0-2,4.05c-.19,1.9-.2,3.84-.25,5.75-.1,3.82-.08,7.63,0,11.45.08,2.57,4.08,2.58,4,0Z"/><path d="M199.26,91.71c.61-5.24,1-10.51,1.05-15.78l-3,1.73a8.52,8.52,0,0,0,5.31,1.21l-1.73-3-3.71,8.57-1.85,4.28-.86,2-.43,1-.28.66c-.18.3-.12.28.16-.06l1-.27-.2,0,1,.27-.12,0,.72.71-.06-.11.27,1-.17.64-1.2.91.09,0-1.54-.2.1.06c2.18,1.39,4.19-2.07,2-3.45C193.07,90,191,95.09,194.19,96c2.73.75,3.66-3.1,4.44-4.9l5.7-13.18a2.07,2.07,0,0,0,0-2,2,2,0,0,0-1.72-1,4.91,4.91,0,0,1-3.29-.67,2,2,0,0,0-3,1.73c-.09,5.27-.44,10.54-1.05,15.78a2,2,0,0,0,2,2,2.05,2.05,0,0,0,2-2Z"/><path d="M204.77,74.14a21.15,21.15,0,0,0-2.5-11.56A20.54,20.54,0,0,0,199,58.07c-.35-.36-1.82-1.42-1.76-2,0,.28.66-.34.62-.31.45-.34.91-.68,1.35-1a27.08,27.08,0,0,0,7.13-9.11c.8-1.66,2.28-4.25,1.21-6.07-1.25-2.14-4-1.12-5.81-.64-2.49.64-1.44,4.5,1.06,3.86.52-.14,1.77-.69,2.27-.5l-.88-.52.22.22-.51-.88c.12.38-.61,1.63-.76,2a23.95,23.95,0,0,1-7.46,9.38c-1.52,1.13-2.81,2.46-2.34,4.52.38,1.65,1.71,2.77,2.83,3.93a16.74,16.74,0,0,1,2.84,4,17.24,17.24,0,0,1,1.78,9.2c-.19,2.57,3.81,2.56,4,0Z"/><path d="M181.2,153.77a157.1,157.1,0,0,0,22.65-.16,2.05,2.05,0,0,0,2-2q.14-7.26,0-14.52c-.06-2.57-4.06-2.58-4,0q.14,7.26,0,14.52l2-2a157.1,157.1,0,0,1-22.65.16c-2.57-.17-2.56,3.83,0,4Z"/><path d="M155.83,179.88q.12-3.76.6-7.5a2,2,0,0,0-2-2c-1.57.07-3.79.34-5.13-.72-.73-.58-1.32-2-.13-2.29a9.88,9.88,0,0,1,2.77-.08l3.49.07,7,.15,28.42.6a2,2,0,0,0,2-2,8.83,8.83,0,0,0-2.71-6.51c-1.85-1.79-4.68,1-2.83,2.83a4.8,4.8,0,0,1,1.54,3.68l2-2-26.93-.57c-4.38-.09-8.77-.23-13.16-.28-1.81,0-3.77.24-5.07,1.66a4.94,4.94,0,0,0-1,4.63c1.19,4.4,5.87,5,9.74,4.83l-2-2q-.48,3.74-.6,7.5c-.08,2.58,3.92,2.57,4,0Z"/><path d="M117.56,252.59Q118,227.3,119.12,202q.31-7.18.71-14.36l-1,1.73,6.64-2.85L129,185a2.33,2.33,0,0,1,2.41-.1c1.87,1.06,3.57,2.32,5.52,3.24a35.92,35.92,0,0,0,6.35,2.29L141.9,188l-.77,3.73c-.52,2.51,3.33,3.58,3.85,1.06l.77-3.72a2,2,0,0,0-1.39-2.46,30.72,30.72,0,0,1-6.56-2.47c-2.05-1.07-4-3-6.34-3.45s-5,1.09-7.12,2l-7.52,3.22a2,2,0,0,0-1,1.73q-1.36,25.25-2,50.54-.18,7.18-.29,14.38c0,2.57,4,2.57,4,0Z"/><path d="M115.78,255.32a20.77,20.77,0,0,0,8.48-2.54A23.42,23.42,0,0,0,128,250.1c.76-.65,1.81-1.72,2.9-1.34,1.31.46,2.53,1.69,3.73,2.42a35.47,35.47,0,0,0,4,2.09,37.72,37.72,0,0,0,8.92,2.73,2,2,0,0,0,2.46-2.46c-2.4-16.72-2.27-33.78-2.78-50.63l-.43-14.68a2,2,0,0,0-3-1.73,5.81,5.81,0,0,0-3.17,3.68c-.78,2.46,3.08,3.51,3.86,1.06A2,2,0,0,1,145.8,190l-3-1.72.78,26.13c.25,8.56.44,17.13,1,25.67.34,4.88.84,9.74,1.53,14.58l2.46-2.46a34.63,34.63,0,0,1-8.94-2.78,36.2,36.2,0,0,1-3.94-2.22c-1.33-.86-2.56-2-4.13-2.35-3.19-.75-5.3,1.72-7.6,3.42a16.24,16.24,0,0,1-8.21,3.1c-2.55.22-2.57,4.22,0,4Z"/><path d="M133.42,245.89l.6-62.4c0-2.57-4-2.58-4,0l-.6,62.4c0,2.58,4,2.58,4,0Z"/><path d="M151.37,180.4l.09,5.65A2,2,0,0,0,154,188c8.84-1.93,18.1-1.3,27.08-1.23l13.87.11,6.94.06,3.46,0a10.07,10.07,0,0,1,3.11.12l-.88-.52h0l-.28-1v.25l.27-1,0-.05,1.41-.59h-.21c-2.58-.07-2.58,3.93,0,4a2.53,2.53,0,0,0,2.13-3.83c-1-1.76-3.65-1.35-5.35-1.36l-12.88-.11c-8.58-.06-17.18-.29-25.77-.15a71.61,71.61,0,0,0-14,1.43l2.53,1.93-.09-5.65c0-2.57-4-2.58-4,0Z"/><path d="M155.86,292.3q.31-12.37-.6-24.73a2.07,2.07,0,0,0-1.47-1.92c-3.77-1-7.53-.09-11.17,1a38.52,38.52,0,0,1-5.69,1.43,12.28,12.28,0,0,1-2.5.08,8.35,8.35,0,0,0-3-.08c-2.09.61-2.43,2.75-2.38,4.62.06,2.39.14,4.79.21,7.19l.44,14.62.49,16.36c.08,2.57,4.08,2.58,4,0l-.79-26.27-.19-6.45-.1-3.22,0-1.49a5.7,5.7,0,0,0,0-1.7c.07.12,0-.26,0-.23s-.7.21-.4.43a3.94,3.94,0,0,0,1.42.19,12.64,12.64,0,0,0,2.46,0,27.91,27.91,0,0,0,5.28-1.06c3.51-1,7.25-2.54,10.94-1.55l-1.47-1.93q.92,12.35.6,24.73c-.07,2.58,3.93,2.58,4,0Z"/><path d="M151.32,294.75l30.78-1.67a2,2,0,0,0,1.93-2.54,44.69,44.69,0,0,1-1.42-10l-2,2q17.79,0,35.56-.72l-1-3.73-2,1.08c-2.26,1.23-.25,4.69,2,3.46l2-1.09a2,2,0,0,0-1-3.72q-17.78.7-35.56.72a2,2,0,0,0-2,2,49,49,0,0,0,1.57,11.1l1.92-2.53-30.78,1.67c-2.56.14-2.58,4.15,0,4Z"/><path d="M152.84,291.78a201.76,201.76,0,0,1-1.05-27.15,2,2,0,0,0-1-1.72,2.61,2.61,0,0,0-3.72,1c-1.11,2.31,2.33,4.34,3.45,2v0l-.89.52,0,0-1-.28.21.13-1-1.73a201.76,201.76,0,0,0,1.05,27.15,2.06,2.06,0,0,0,2,2,2,2,0,0,0,2-2Z"/><path d="M132.22,311.85a529.21,529.21,0,0,0,64,1.6q9-.33,18-1c2.56-.18,2.58-4.18,0-4a527.16,527.16,0,0,1-64,.59q-9-.46-18-1.23c-2.56-.22-2.55,3.78,0,4Z"/><path d="M42.49,76.94l8.76-6.38-1.54.2a85.72,85.72,0,0,0,19.8,3.34l-2-2L67.88,94l.19,11,.09,5.23a19.85,19.85,0,0,0,.29,5.17c1.1,3.71,5.86,2.52,8.74,2.58a51.48,51.48,0,0,1,10.36,1.09,2.14,2.14,0,0,1,1.12.41c.32.36.32,1.41.37,1.84.24,1.87.42,3.75.56,5.63.27,3.51.39,7,.41,10.56,0,7.23-.33,14.46-.72,21.69-.19,3.49-.67,7.12-.51,10.62a4.16,4.16,0,0,0,2.27,3.76c1.19.6,2.5.73,3.65,1.45,5.21,3.25,5.22,10.43,5.16,15.82-.07,7.09,0,14.17.28,21.25a407.1,407.1,0,0,0,4.81,48l3.34-1.94a53.79,53.79,0,0,1-10.72-18c-.86-2.41-4.72-1.38-3.86,1.06A58.73,58.73,0,0,0,105.47,261c1.47,1.63,3.63-.16,3.34-1.95a399.87,399.87,0,0,1-4.47-42.57q-.54-10.64-.51-21.3c0-6.35.73-13.41-2.73-19.08a12.92,12.92,0,0,0-5.63-5.2,21.75,21.75,0,0,0-2.19-.75c-.61-.21-.49-.06-.5-.74,0-1.76.16-3.55.25-5.31.37-7.22.83-14.45,1-21.69A148.91,148.91,0,0,0,93,121.3c-.2-1.61-.3-3.32-1.45-4.57A6.53,6.53,0,0,0,87.81,115,64.16,64.16,0,0,0,77.19,114c-1,0-1.93,0-2.9,0l-1.45.06-.4,0c-.5-.11-.54,0-.13.27a34.1,34.1,0,0,1-.18-5.35l-.21-12.46L71.51,72.1a2,2,0,0,0-2-2,79.6,79.6,0,0,1-15.28-2.25,29.14,29.14,0,0,0-3.72-1C49.19,66.73,48,68,47,68.7l-6.57,4.79a2.06,2.06,0,0,0-.72,2.73,2,2,0,0,0,2.74.72Z"/><path d="M52.76,21.57l-.28,19.08-.15,9.67c0,3-.35,6.06-.1,9,.19,2.18,1.37,4.65,3.92,4.5a39.46,39.46,0,0,0,4.3-.75c1.56-.25,3.12-.48,4.69-.68a132.31,132.31,0,0,1,39,1A2.05,2.05,0,0,0,106.62,62a2,2,0,0,0-1.39-2.46,138,138,0,0,0-34.85-1.65c-2.89.24-5.76.58-8.62,1q-2.15.31-4.26.69c-.12,0-1.62.28-1.62.31l.56.19s0,0,0,0-.18-.62-.19-.64a22.65,22.65,0,0,1,0-3.59l.07-4.71.14-9.17.3-20.32c0-2.58-4-2.58-4,0Z"/><path d="M63.13,20.9l21.93.37,11,.18,5.23.09,2.74.05,1.5,0h.5q.91.12.15-.15l-.51-.88c.46,1.13.27,2.79.34,4,.09,1.57.17,3.14.23,4.71q.2,4.83.24,9.67t-.06,9.42c0,1.57-.08,3.14-.14,4.71,0,.83-.06,1.66-.1,2.48,0,.33,0,.66,0,1s0,.5,0,.75,0,.33.16-.14l.88-.52-.21,0H108l-.21-.08.88.52-.15-.16.51.88,0-.18-.21,1.54.1-.16c1.27-2.24-2.18-4.26-3.46-2-1.7,3,3.2,5.1,4.43,1.88a14.26,14.26,0,0,0,.39-4.33c.07-1.57.12-3.14.16-4.71q.25-9.54-.09-19.1c-.11-3.14-.25-6.28-.47-9.41-.09-1.24-.24-2.53-1.39-3.26s-3-.51-4.4-.53l-19.19-.32L63.13,16.9c-2.58,0-2.58,4,0,4Z"/><path d="M113.15,24.56a85.2,85.2,0,0,0,16.44,2.29c2.72.11,5.44.07,8.16-.09a2.81,2.81,0,0,0,.77,0c.34-.19-.13-.1-.11-.17a11.17,11.17,0,0,0,0,1.42c-.09,1.47-.19,2.94-.28,4.41-.16,2.57,3.84,2.56,4,0,.1-1.63.24-3.27.31-4.91a4.85,4.85,0,0,0-1.05-3.67,4.39,4.39,0,0,0-3.6-1c-1.6.09-3.2.15-4.8.15a80.47,80.47,0,0,1-18.74-2.2c-2.5-.6-3.57,3.26-1.06,3.85Z"/><path d="M98.93,182.26c2.48,2.94,6.23,5.26,10.21,4.66,3.68-.54,7.07-3.86,6.7-7.76l-3,1.73a8.12,8.12,0,0,0,11.2-4.16c1.64-4.33-1.59-9.64-6.12-10.33l1.19,2.94a11.16,11.16,0,0,0-10.54-17.09l1.72,3a11.49,11.49,0,0,0-6.14-15.52c-6.12-2.27-13.58,2.35-14.53,8.74a2.06,2.06,0,0,0,1.4,2.46,2,2,0,0,0,2.46-1.4c.61-4.16,5.13-7.49,9.31-6a7.45,7.45,0,0,1,4,9.75c-.59,1.23.09,3.18,1.73,3a7.5,7.5,0,0,1,7,3.09,7.41,7.41,0,0,1,0,8,2,2,0,0,0,1.2,2.94c2.26.34,4.3,2.74,3.43,5.11a4.09,4.09,0,0,1-5.44,2.07c-1.22-.64-3.16.12-3,1.72A3.75,3.75,0,0,1,108,183c-2.55,0-4.67-1.76-6.23-3.6s-4.48.87-2.82,2.83Z"/><path d="M145.65,200.41a62,62,0,0,1,30.61,2.32,2,2,0,0,0,2.25-.92,37.47,37.47,0,0,0,3.41-11.22c.23-1.7.75-4-.58-5.4a2.8,2.8,0,0,0-4.38.41,2,2,0,0,0,.71,2.74,2.06,2.06,0,0,0,2.74-.72l.14-.19-.72.72.2-.11-1,.28c-.63-.87-.91-1-.84-.28,0,.31,0,.61-.07.91s-.09.86-.15,1.29a32.39,32.39,0,0,1-.67,3.37,33,33,0,0,1-2.23,6.18l2.26-.92a66.24,66.24,0,0,0-32.73-2.31,2,2,0,0,0-1.4,2.46,2,2,0,0,0,2.46,1.39Z"/><path d="M144.58,188.36c.81-.22,1.63-.39,2.46-.53l.24,0,.67-.08,1.26-.09a23.54,23.54,0,0,1,2.52,0l1.16.09.57.06c-.4,0,.36.06.43.07a2.05,2.05,0,0,0,2.46-1.4A2,2,0,0,0,155,184a27.43,27.43,0,0,0-11.44.5,2,2,0,0,0-1.39,2.46,2,2,0,0,0,2.46,1.4Z"/><path d="M128.62,55.5l53.49.7,15.18.21-.86-1.51-.85,1.36c-.69,1.09,1,2.09,1.72,1l.85-1.36a1,1,0,0,0-.86-1.5L143.8,53.7l-15.18-.2a1,1,0,0,0,0,2Z"/><path d="M108.32,54.75a18.29,18.29,0,0,0,13.58-18.4l-1.27,1A10.38,10.38,0,0,0,134,24.93c-.25-1.06-1.59-.83-1.93,0l-.83,2c-.49,1.19,1.44,1.71,1.92.53l.84-2h-1.93a8.47,8.47,0,0,1-10.92,9.92,1,1,0,0,0-1.26,1,16.29,16.29,0,0,1-12.11,16.47,1,1,0,0,0,.53,1.93Z"/><path d="M67.31,72.57H82.63c1.84,0,4.12.29,5.76-.77A3.68,3.68,0,0,0,89.78,70c.21-.54.31-1.19.84-1.52a3.68,3.68,0,0,1,1.46-.35c5.09-.62,10.42-1.06,15.51-.27,2.22.34,4.35,1,6.61.59a10,10,0,0,0,5.24-2.77c3.09-3,5.17-8.91,10.09-9.25v-2a3.43,3.43,0,0,0-2.78,1.73,1,1,0,0,0,1.73,1,1.32,1.32,0,0,1,1.05-.74c1.26-.12,1.3-2.09,0-2-4.06.28-6.62,3.48-8.82,6.54a15.17,15.17,0,0,1-4.49,4.67c-2.25,1.27-4.53,1-7,.49a53.46,53.46,0,0,0-15-.22c-1.77.17-4.18,0-5.45,1.51-.62.72-.63,1.86-1.28,2.52s-1.85.63-2.73.64c-5.83.05-11.67,0-17.5,0a1,1,0,0,0,0,2Z"/><path d="M106.11,58.68a17.4,17.4,0,0,1,2.44,7.24,1,1,0,0,0,1,1,1,1,0,0,0,1-1,19.77,19.77,0,0,0-2.71-8.25,1,1,0,0,0-1.73,1Z"/><path d="M110,52.63A98.57,98.57,0,0,1,114.24,67l1.93-.53-.51-2.39c-.27-1.25-2.2-.72-1.93.54l.51,2.38c.27,1.26,2.2.72,1.93-.53a99.07,99.07,0,0,0-4.25-14.4c-.46-1.19-2.39-.67-1.93.54Z"/><path d="M115.39,51a48,48,0,0,1,3.53,11.62,1,1,0,0,0,1.23.7,1,1,0,0,0,.7-1.23,49.64,49.64,0,0,0-3.74-12.1,1,1,0,0,0-1.36-.36,1,1,0,0,0-.36,1.37Z"/><path d="M119.05,45.24a37.71,37.71,0,0,1,4.42,13.46,1,1,0,0,0,1,1,1,1,0,0,0,1-1,40.21,40.21,0,0,0-4.69-14.47,1,1,0,0,0-1.73,1Z"/><path d="M122.11,35.46a37.29,37.29,0,0,1,5.38,18.08c0,1.29,2,1.29,2,0a39.31,39.31,0,0,0-5.66-19.09,1,1,0,0,0-1.72,1Z"/><path d="M128.79,36.51a30,30,0,0,1,2.6,11.35c0,1.29,2,1.29,2,0a32.39,32.39,0,0,0-2.88-12.36,1,1,0,0,0-1.37-.36,1,1,0,0,0-.35,1.37Z"/><path d="M132.34,31.91a13.4,13.4,0,0,1,2.6,6.67,1,1,0,0,0,1,1,1,1,0,0,0,1-1,15.34,15.34,0,0,0-2.87-7.68,1,1,0,0,0-1.37-.36,1,1,0,0,0-.36,1.37Z"/><path d="M58.45,60.29a67.74,67.74,0,0,1,8.76,11.92,1,1,0,0,0,1.73-1,69.67,69.67,0,0,0-9.08-12.32c-.87-1-2.28.46-1.41,1.41Z"/><path d="M66.1,61.64l6.29,10.57a1,1,0,0,0,1.72-1L67.83,60.63a1,1,0,0,0-1.73,1Z"/><path d="M72.54,62.32l7.19,9.31a1,1,0,1,0,1.72-1l-7.18-9.31A1,1,0,0,0,72.9,61a1,1,0,0,0-.36,1.36Z"/><path d="M80.8,63.86l4.69,7.71c.66,1.09,2.4.09,1.72-1l-4.68-7.71a1,1,0,0,0-1.73,1Z"/><path d="M86,60.74a21.22,21.22,0,0,1,3.3,7,1,1,0,0,0,1.93-.53,23,23,0,0,0-3.5-7.52,1,1,0,0,0-1.37-.36A1,1,0,0,0,86,60.74Z"/><path d="M92.17,61.78l2.58,3.61a1,1,0,0,0,.6.46,1,1,0,0,0,.77-.1,1,1,0,0,0,.36-1.37L93.9,60.77a1.09,1.09,0,0,0-.6-.46,1.08,1.08,0,0,0-.77.1,1,1,0,0,0-.36,1.37Z"/><path d="M103.35,63.31a1,1,0,0,0,0-2,1,1,0,0,0,0,2Z"/><path d="M58.78,120.59,58,91.75l-.41-14.41-.1-3.48a6.07,6.07,0,0,0-.29-2.61,1.37,1.37,0,0,0-2.6.63c.09,1.27,2.09,1.28,2,0v-.2l-.3.71c-.74-.3-1-.15-.83.47v.5l0,1.49.09,3.23.17,6,.34,12.18.7,24.36c0,1.28,2,1.29,2,0Z"/><path d="M53.85,118.42a148.78,148.78,0,0,0,32.95-.27c1.27-.15,1.28-2.15,0-2a148.78,148.78,0,0,1-32.95.27c-1.28-.13-1.27,1.87,0,2Z"/><path d="M58,121a24,24,0,0,1,8.09.93,23.3,23.3,0,0,1,3.79,1.49A12.46,12.46,0,0,0,73.37,125c2.53.42,5.14-1.27,7.5-1.95a33.17,33.17,0,0,1,8.91-1.26c1.08,0,1.41-1.8.26-2l-1.38-.2c-1.26-.19-1.8,1.74-.53,1.92l1.38.2.27-2a35.36,35.36,0,0,0-8.32,1,32.87,32.87,0,0,0-4,1.27c-1.41.54-2.86,1.3-4.39.78-1.26-.42-2.4-1.25-3.62-1.77A24.38,24.38,0,0,0,66,119.85a26,26,0,0,0-8-.82c-1.28.06-1.29,2.06,0,2Z"/><path d="M79.75,174.91c-1.59-17.18-.1-34.66-4-51.58-.3-1.26-2.22-.73-1.93.53,3.89,16.74,2.4,34.05,4,51.05.12,1.27,2.12,1.28,2,0Z"/><path d="M73.44,175.26a30.46,30.46,0,0,0,13.19-2.76l-1.21-.16a19.7,19.7,0,0,0,11.24,5.27c1.28.16,1.26-1.84,0-2a17.52,17.52,0,0,1-9.83-4.68,1,1,0,0,0-1.21-.16,28.23,28.23,0,0,1-12.18,2.49,1,1,0,0,0,0,2Z"/><path d="M92.1,216q-1.36-22.74-3.95-45.4c-.15-1.27-2.15-1.28-2,0q2.58,22.63,3.95,45.4c.08,1.28,2.08,1.29,2,0Z"/><path d="M116.29,255.3a1.36,1.36,0,0,0-1.22,2.05c.78,1.22,3,.73,4.17.71l12-.22c3.93-.07,7.87-.13,11.8-.21,1.28,0,2.8-.13,3.53-1.36a2.13,2.13,0,0,0-.64-2.93c-1.06-.74-2.06,1-1,1.72.42.3-1.33.56-1.25.55-.62.06-1.25,0-1.86,0l-3.44.06-7.37.13-7.37.14-3.45.06-2,0c-.48,0-1.41.22-1.82-.09l.46.6-.1.41-.7.29.19,0c1.27.14,1.26-1.86,0-2Z"/><path d="M132.16,304.76l7.7-5.82c2-1.48,3.92-3,4.67-5.42s.18-5.11-.22-7.59a21.54,21.54,0,0,1,.35-9.18,1,1,0,0,0-.7-1.23,18.12,18.12,0,0,0-6.37-1.35,17.47,17.47,0,0,0-3.07.19c-.57.08-1.14.28-1.71.33a1.69,1.69,0,0,1-.55,0c-.36-.18-.43,0-.19.5.53-1.16-1.19-2.18-1.72-1a1.55,1.55,0,0,0,.66,2.17,4.11,4.11,0,0,0,3,.13,16.19,16.19,0,0,1,9.45,1l-.7-1.23a22.16,22.16,0,0,0-.68,7.9c.25,2.53,1.08,5.1.8,7.67-.31,2.8-2.49,4.3-4.58,5.87L131.15,303c-1,.77,0,2.5,1,1.73Z"/><path d="M160.24,311.56a11.87,11.87,0,0,0,.64-10.22l-1,1.27,10,.57-1-1,.76,8.54,2-.26-.28-1.41c-.25-1.26-2.18-.72-1.93.54l.28,1.4a1,1,0,0,0,2-.27l-.76-8.54a1,1,0,0,0-1-1l-10-.57a1,1,0,0,0-1,1.26,10,10,0,0,1-.44,8.68,1,1,0,0,0,1.73,1Z"/><path d="M169.87,302.08l8.72,0c.36,0,.94-.12,1.11.23a7.46,7.46,0,0,1,.35,1.94l.73,4.33a1,1,0,0,0,1.23.7,1,1,0,0,0,.7-1.23l-.8-4.79a6.1,6.1,0,0,0-.55-2.1,2.23,2.23,0,0,0-1.75-1,39.43,39.43,0,0,0-4.74,0l-5,0a1,1,0,0,0,0,2Z"/><path d="M181.2,289.21a47.94,47.94,0,0,0,1.27,10.8,1,1,0,0,0,1,.73q16.42-1,32.81-2.57c1.27-.12,1.29-2.12,0-2q-16.38,1.56-32.81,2.57l1,.74a45.54,45.54,0,0,1-1.2-10.27,1,1,0,0,0-2,0Z"/><path d="M210.87,220.7a36.09,36.09,0,0,1-10.05,1.67c-1.43,0-2.89-.37-3.09-2a8,8,0,0,1,.86-3.79c.35-.81-.44-2-1.37-1.37a5.71,5.71,0,0,1-7.89-8.15c.65-.87-.56-1.76-1.37-1.36-1.18.57-2.48-.36-3-1.41a3.25,3.25,0,0,1,.86-3.66c2.18-2.31,5.95-2.43,8.7-1.19a1,1,0,0,0,1.22-.16c3.62-3.49,10.25-3.05,13.28,1,.76,1,2.5,0,1.73-1a11.24,11.24,0,0,0-16.43-1.43l1.21-.16c-4.06-1.83-10.06-1.34-12.27,3.11a4.81,4.81,0,0,0,.57,5.35,4.22,4.22,0,0,0,5.15,1.25L187.6,206a7.69,7.69,0,0,0,10.63,10.89l-1.36-1.37c-1.19,2.78-2.19,7,1.44,8.42,1.88.74,4.2.35,6.15.11a42.19,42.19,0,0,0,6.94-1.46,1,1,0,0,0-.53-1.93Z"/><path d="M148.7,213A130.1,130.1,0,0,1,181,214.61a1,1,0,0,0,.53-1.93c-.74-.29-.9-2.06-1.07-2.71l-.94-3.5-1.81-6.77a1,1,0,0,0-1.93.53l2.31,8.64c.54,2,.73,4.86,2.91,5.74l.53-1.93A132.45,132.45,0,0,0,148.7,211c-1.28.1-1.29,2.1,0,2Z"/><path d="M182.72,214.19a28.08,28.08,0,0,1,3.32-9.66,1,1,0,0,0-1.72-1,29.53,29.53,0,0,0-3.53,10.14,1,1,0,0,0,.7,1.23,1,1,0,0,0,1.23-.7Z"/><path d="M182.94,185.54a57.77,57.77,0,0,1,4,13.18c.22,1.27,2.15.73,1.93-.53a60.45,60.45,0,0,0-4.18-13.66,1,1,0,0,0-1.73,1Z"/><path d="M187.92,159.74l7.21-.55-1-.74a26.33,26.33,0,0,1,1,10.55,5.27,5.27,0,0,0,0,2.2,1.5,1.5,0,0,0,1.72,1c1.39-.35,1.45-2.61-.14-2.64a1,1,0,0,0,0,2h.09l-.5-.14c-.63-.94-.39-1.26.71-.94a.89.89,0,0,1,0-.23c0-.18,0-.38.07-.56.07-.57.13-1.13.17-1.7a27.54,27.54,0,0,0,0-3.4,28.37,28.37,0,0,0-1.18-6.71,1,1,0,0,0-1-.73l-7.21.55c-1.28.09-1.29,2.09,0,2Z"/><path d="M151.31,173l60.17.57a1,1,0,0,0,.27-2l-2.43-.91c-1.21-.45-1.73,1.48-.53,1.93l2.43.91.26-2L151.31,171a1,1,0,0,0,0,2Z"/><path d="M209.5,132.89c-3-.08-6.51-.18-8.7-2.61a4.35,4.35,0,0,1-.92-1.58,11.94,11.94,0,0,1-.27-2.31c-.17-1.52-1.16-3.31-3-3.13a1,1,0,0,0-1,1,1,1,0,0,0,1,1c.69-.07.91.71,1,1.27a18.37,18.37,0,0,0,.26,2.44,6.7,6.7,0,0,0,2.31,3.48c2.63,2.15,6.05,2.36,9.31,2.44,1.29,0,1.29-2,0-2Z"/><path d="M192.3,128.75a22,22,0,0,0,16.24,8.88c1.29.08,1.28-1.92,0-2A19.79,19.79,0,0,1,194,127.74c-.75-1-2.49,0-1.73,1Z"/><path d="M138.62,138.1l1.94-62.38c0-1.29-2-1.29-2,0l-1.94,62.38c0,1.29,2,1.29,2,0Z"/><path d="M178.9,213c-3.39.87-5.92,5-4,8.29,1.63,2.73,5.87,3.41,8.07,1l-1.57-1.21a7,7,0,1,0,12.76,5.65l-2-.27c-.58,4.54,6.59,4.75,9.43,4.18a7.09,7.09,0,0,0,5-3.48,5.23,5.23,0,0,0-.22-5.59c-.77-1-2.51,0-1.73,1a3.28,3.28,0,0,1,.14,3.72,5.2,5.2,0,0,1-3.73,2.41c-1.6.32-7.25.57-6.89-2.25.14-1.17-1.62-1.27-2-.27a5,5,0,1,1-9.1-4.1c.54-1-.78-2.07-1.57-1.21a3.23,3.23,0,0,1-4.93-.62c-1.29-2.16.65-4.81,2.78-5.35a1,1,0,0,0-.53-1.93Z"/><path d="M166.39,291.7c-2.12-1.19-4.45-3-4.85-5.55-.33-2.18,1.71-4.89,4.05-4v-1.93c-1.59.33-2.23-1.88-1.69-3a4.05,4.05,0,0,1,1.57-1.61c.35-.21,1.94-.68,2-1l.29-.71-.14.16,1.57.21c-.61-1.14-.06-2.58.25-3.73a9.31,9.31,0,0,1,1.39-3.25,3.49,3.49,0,0,1,2.89-1.55,1.73,1.73,0,0,1,1.48,2.37l1.93.53a4.5,4.5,0,0,1,8.57,2.77c-.28,1.07,1.3,1.82,1.82.77a3.77,3.77,0,0,1,5.34-1.35c2,1.33,2.28,4.09,1.48,6.16-.46,1.21,1.47,1.73,1.93.53,1.15-3,.29-6.92-2.66-8.57a5.76,5.76,0,0,0-7.81,2.22l1.82.77A6.5,6.5,0,0,0,175.16,268c-.45,1.23,1.44,1.69,1.93.53a3.57,3.57,0,0,0-1.38-4.19,4.37,4.37,0,0,0-5,.16,8.34,8.34,0,0,0-3.12,4.82c-.57,1.89-1.22,4-.22,5.85a1,1,0,0,0,1.57.2c1.16-1.33-.34-2.69-1.79-2.61a7,7,0,0,0-4.54,2.63,4.28,4.28,0,0,0-.54,4.62,3.6,3.6,0,0,0,4,2.06c1-.22.85-1.62,0-1.93-3.19-1.16-6.28,1.83-6.59,4.91-.37,3.75,2.89,6.68,5.85,8.34a1,1,0,0,0,1-1.73Z"/><path d="M33.22,60.86l20.11-.59a1,1,0,0,0,0-2l-20.11.59c-1.29,0-1.29,2,0,2Z"/><path d="M29,36l.61-20.1c0-1.29-2-1.29-2,0L27,36c0,1.29,2,1.29,2,0Z"/><path d="M28.07,18.06l33.52,1.13c1.28,0,1.28-2,0-2L28.07,16.06c-1.29,0-1.29,2,0,2Z"/><path d="M92.71,97.33a6.15,6.15,0,0,0,3,6.34,5.7,5.7,0,0,0,7-1.27,5.58,5.58,0,0,0,.53-7.06A5.83,5.83,0,0,0,96.56,93c-2.52,1-4.2,4-3.06,6.57.26.59,1.12.08.86-.51-.8-1.83.41-3.94,2-4.87a4.59,4.59,0,0,1,5.6,1.15,4.54,4.54,0,0,1,.45,5.78,4.85,4.85,0,0,1-5.56,2,5.14,5.14,0,0,1-3.2-5.53c.12-.62-.85-.89-1-.26Z"/><path d="M78.64,102.15a19.76,19.76,0,0,1,5.43-.13,7.23,7.23,0,0,1,4.58,2.71c2,2.42,3.63,5.82,7.2,5.94l-.5-.5a69.92,69.92,0,0,0-.21,9.38c0,.64,1,.64,1,0a69.92,69.92,0,0,1,.21-9.38.51.51,0,0,0-.5-.5c-3.8-.12-5.17-4.72-7.66-6.86-2.66-2.3-6.29-2-9.55-1.66-.64.07-.64,1.07,0,1Z"/><path d="M103.05,118.86l-.82-5.49c-.07-.47-.15-.94-.21-1.42-.08-.63.22-.88.76-1.11a9,9,0,0,0,1.84-1,8.87,8.87,0,0,0,3.69-6.8c0-.64-1-.64-1,0a8,8,0,0,1-5.11,7c-1.56.65-1.18,1.92-1,3.32l.86,5.79c.09.64,1.06.37,1-.26Z"/><path d="M78.59,95.31l10.3-.06a.5.5,0,0,0,.48-.63c-.32-1.61,1.47-2.8,2.52-3.71s2.33-2.09,2.34-3.64c0-1.35-.28-2.71-.28-4.08a27.56,27.56,0,0,1,.45-5c.11-.6.48-2-.55-2-.65,0-.87.8-.47,1.21a.52.52,0,0,0,.61.08l.08,0a.5.5,0,0,0-.51-.87l-.07,0,.6.08.09.25-.43.25c-.47,0-.62,2.8-.67,3.26A27.59,27.59,0,0,0,93,84.22a24.78,24.78,0,0,1,.25,3.21,3,3,0,0,1-.85,1.65c-1.51,1.69-4.51,3.1-4,5.8l.48-.63-10.3.06a.5.5,0,0,0,0,1Z"/><path d="M102.79,76.23l0,9.55c0,1.17-.22,2.66.56,3.65s1.83,1,2.63,1.7,1.35,2,2.22,2.79a5,5,0,0,0,2.92,1.25c1.25.16,2.52,0,3.77.11a13.58,13.58,0,0,1,4.49,1.06c.6.25.86-.72.27-1a18.8,18.8,0,0,0-7.25-1.12A5.05,5.05,0,0,1,109,93.21c-.79-.74-1.22-1.77-2-2.55a11.37,11.37,0,0,0-2.33-1.45c-1.23-.81-.82-2.9-.82-4.2l0-8.78a.5.5,0,0,0-1,0Z"/><path d="M108.48,102.74a90.57,90.57,0,0,1,11.88-.18c.65,0,.64-1,0-1a90.57,90.57,0,0,0-11.88.18c-.64.05-.64,1.05,0,1Z"/><path d="M78.68,93.76,78.5,85.1,78.41,81l0-2.08c0-.53-.25-1.9.25-2.12a6.63,6.63,0,0,1,2,0h2.23l4.12,0c1.32,0,2.66,0,4,0,.94,0,2.33.15,2.58,1.25.14.63,1.1.37,1-.26-.53-2.43-4-2-5.81-2l-5.14,0c-1.66,0-3.38-.11-5,0-1.38.12-1.22,1.36-1.19,2.44l.11,5.19.22,10.39c0,.64,1,.64,1,0Z"/><path d="M104.38,76.13c2.93.13,5.86.28,8.79.47,1.54.09,3.07.19,4.61.3.69.06,1.4.08,2.09.16,1.13.14.88,1.31.83,2.17l-.55,8.82-.28,4.42c-.09,1.44,0,3-.88,4.23-.36.53.5,1,.87.51a7.43,7.43,0,0,0,1-3.9c.11-1.68.21-3.37.32-5l.32-5.25c.11-1.7.36-3.46.32-5.16a1.67,1.67,0,0,0-1.6-1.76c-1.75-.25-3.57-.27-5.33-.39q-5.23-.35-10.47-.57c-.64,0-.64,1,0,1Z"/><path d="M102.88,120.53c.33,2.55,4,2.1,5.78,2.13l5.15.08,2.4,0a3.47,3.47,0,0,0,1.84-.21c1-.59,1-2.33,1.1-3.35.23-1.61.38-3.22.45-4.85a51.44,51.44,0,0,0-.56-9.92c-.09-.64-1.06-.37-1,.26a49.36,49.36,0,0,1-.18,16.09c-.14.77-.55,1-1.34,1l-2.06,0-4-.06-4-.06c-.8,0-2.58,0-2.72-1.1-.08-.63-1.08-.64-1,0Z"/><path d="M77.05,101.5l0,11.81a.5.5,0,0,0,.63.48,30,30,0,0,1,10.53,0c2.77.51,6.77,2.08,6.2,5.63-.1.63.86.9,1,.26.57-3.57-2.63-5.84-5.71-6.6a30,30,0,0,0-12.26-.26l.64.48,0-11.81a.5.5,0,0,0-1,0Z"/><path d="M108,152.34q27.84,1.69,55.74,2.38,8,.19,15.94.3l-.43-.75a1.66,1.66,0,0,1-1.91.79.5.5,0,0,0-.27,1,2.69,2.69,0,0,0,3-1.26.5.5,0,0,0-.43-.75q-27.9-.37-55.76-1.79-8-.4-15.92-.89c-.64,0-.64,1,0,1Z"/><path d="M109,146.3q26.61,2.64,53.32,3.92,7.67.36,15.34.6c.64,0,.64-1,0-1q-26.73-.85-53.37-3.11-7.65-.66-15.29-1.41c-.64-.07-.63.93,0,1Z"/><path d="M153.87,139.66V100.18a4,4,0,0,1,0-.84,1.34,1.34,0,0,1,1.16-.85,18.52,18.52,0,0,1,3.7.33l15.06,1.35,16.79,1.51-.5-.5-.9,15.14-.2,3.42a8.89,8.89,0,0,1-.2,2.06,2.47,2.47,0,0,1-1.74,1.5,48.31,48.31,0,0,0-5.7,2.27c-3.38,1.74-6.34,4.49-7.32,8.28a8.73,8.73,0,0,0,.2,5.16c.26.72.73,1.72-.21,2.24a3.25,3.25,0,0,1-1.38.25c-1.32.09-2.66.09-4,.14l-8.47.28c-2.67.09-5.54.47-8.08-.58l.12.92c1.51-1.09.23-3.8-1.57-3.13-.6.23-.34,1.19.27,1s1.46.82.8,1.29a.51.51,0,0,0,.12.92c2.18.9,4.53.74,6.85.66l8.22-.27,4-.14a11.17,11.17,0,0,0,3.31-.3c2-.68,1.34-2.36.86-3.87-1.54-4.83,2.09-9.32,6.05-11.57a50.61,50.61,0,0,1,6.53-2.68c2.07-.82,2.21-2.37,2.34-4.4l1.1-18.56a.5.5,0,0,0-.5-.5L158.49,97.8c-1.21-.11-2.45-.3-3.66-.32a1.7,1.7,0,0,0-1.78.94,6.37,6.37,0,0,0-.19,2.5v38.74a.5.5,0,0,0,1,0Z"/><path d="M147.83,21.06l.4,8.4c.08,1.66-.24,4,1.84,4.42a21.36,21.36,0,0,0,3.58.13l4.24.11,8.49.21,34.19.86,19.22.49-.13-1-3,.8a.5.5,0,0,0,.26,1l3-.79a.5.5,0,0,0-.14-1L155.9,33.07,151.41,33c-.62,0-1.5.09-1.88-.49a5.08,5.08,0,0,1-.26-2.27l-.44-9.14c0-.65-1-.65-1,0Z"/><path d="M185.86,267.3,185.37,252l-.5.5a163.1,163.1,0,0,0,28.3-.21v-1a5.05,5.05,0,0,0-2.3.84c-.53.36,0,1.22.51.86a4.1,4.1,0,0,1,1.79-.7c.63-.08.65-1.06,0-1a163.1,163.1,0,0,1-28.3.21.5.5,0,0,0-.5.5l.49,15.27a.5.5,0,0,0,1,0Z"/><path d="M191.53,268.58a41.7,41.7,0,0,1,.58-9.53l-.48.37,21-1.38c.64,0,.64-1,0-1l-21,1.38a.5.5,0,0,0-.48.37,42.26,42.26,0,0,0-.62,9.79c0,.64,1,.65,1,0Z"/><path d="M156.88,252.6c-.49-11.28-.5-22.57-.51-33.86l-.5.5,18.16.5a.5.5,0,0,0,0-1l-18.16-.5a.5.5,0,0,0-.5.5c0,11.29,0,22.58.51,33.86,0,.64,1,.64,1,0Z"/><path d="M180.1,229.75a6.62,6.62,0,0,0,11.66,5.49l-.84-.22a8.28,8.28,0,0,0,7,6.58c3.91.59,7.7-1.51,10.16-4.43l-.78-.1c1.17,2.53,4.36,2.27,6.25.78.86-.67,2.32-2,2.19-3.19a1.23,1.23,0,0,0-1.78-1c-.59.26-.08,1.12.5.86l0,.89-.39.5a9.07,9.07,0,0,1-.67.72,5.13,5.13,0,0,1-1.89,1.22,2.71,2.71,0,0,1-3.39-1.29.51.51,0,0,0-.79-.1c-2.17,2.58-5.39,4.52-8.87,4.21a7.31,7.31,0,0,1-6.62-5.92.51.51,0,0,0-.84-.22,5.63,5.63,0,0,1-10-4.52c.11-.63-.85-.9-1-.26Z"/><path d="M126.09,313.87a6.19,6.19,0,0,1,0-2c0-.59,0-1.17,0-1.75l0-4c0-2.49,0-5,0-7.48q.06-7.35.27-14.69t.6-14.94c.06-1.16.12-2.32.19-3.48.05-.89.23-1,1.06-1.12a16.52,16.52,0,0,1,2,0l7.45,0c1.41,0,2.82,0,4.23,0,.72,0,1.52,0,1.89-.77s.07-1.89,0-2.71l-.49-4.32c-.07-.63-1.07-.64-1,0l.44,3.84a9,9,0,0,1,.22,2.1c-.18,1.12-1.48.86-2.29.85l-8.44,0-4,0c-.77,0-1.58,0-1.91.79a10.49,10.49,0,0,0-.25,3.07c-.08,1.49-.16,3-.23,4.48q-.8,16.8-.74,33.62l0,4.73c0,1.13-.26,2.7.15,3.77.5,1.29,2.37.74,1.78-.5-.28-.58-1.14-.08-.87.5Z"/><path d="M119.12,299.54q.91-20.62,0-41.26c0-.64-1-.65-1,0q.91,20.61,0,41.26c0,.64,1,.64,1,0Z"/><path d="M149.7,264.18a3.63,3.63,0,0,1,.78-4.75c1.74-1.48,4.33-1.15,6.24-.23a.52.52,0,0,0,.68-.18,5.48,5.48,0,0,1,9.36.48.51.51,0,0,0,.79.1,4.46,4.46,0,0,1,7.93,2.14.49.49,0,0,0,.48.37,2,2,0,0,1,2.26,1.53.5.5,0,0,0,1-.26,3,3,0,0,0-3.23-2.27l.48.36a5.44,5.44,0,0,0-9.6-2.57l.79.1a6.49,6.49,0,0,0-11.09-.49l.68-.18c-2.32-1.11-5.38-1.44-7.45.4a4.62,4.62,0,0,0-.93,5.95c.36.53,1.23,0,.86-.5Z"/><path d="M105.16,175.47a4.08,4.08,0,0,0,4.14.67,3.9,3.9,0,0,0,2.37-3.48,3.83,3.83,0,0,0-.64-2.33c-.36-.53-1.22,0-.86.5a3.09,3.09,0,0,1,.16,3.11,2.89,2.89,0,0,1-2.75,1.49,3,3,0,0,1-1.71-.66.5.5,0,0,0-.71.7Z"/><path d="M98.89,159.33a3.13,3.13,0,0,1,6.14.8.51.51,0,0,0,.86.36c.83-.84,2.24-.39,2.93.41a7.11,7.11,0,0,1,1.2,3.64c.09.64,1.06.37,1-.26-.24-1.6-.55-3.44-1.91-4.5a3,3,0,0,0-3.9,0l.85.35a4.13,4.13,0,0,0-8.1-1.06c-.19.61.77.88,1,.26Z"/><path d="M205.46,216.09a2.86,2.86,0,0,1-2.65-2.24,5.6,5.6,0,0,1,1.18-4.37c.34-.5-.38-.93-.79-.6a5.29,5.29,0,0,1-8.62-3.73c-.05-.64-1.05-.65-1,0a6.29,6.29,0,0,0,10.33,4.43l-.79-.6c-1,1.54-1.83,3.58-1.18,5.44a3.81,3.81,0,0,0,3.52,2.67.5.5,0,0,0,0-1Z"/><path d="M116.86,247.77a27.07,27.07,0,0,0,8.49-3.3,26.4,26.4,0,0,0,3.57-2.56c.6-.51,1.18-1,1.74-1.61.27-.27.52-.55.78-.82s1.33-1.56.79-1.6l.48.36,0-.08c-.11-.64-1.08-.37-1,.26l0,.09a.5.5,0,0,0,.48.37.73.73,0,0,0,.7-1c-.28-.58-1-.37-1.39,0-.73.66-1.32,1.5-2,2.18a25.37,25.37,0,0,1-2.23,1.92,26.14,26.14,0,0,1-10.68,4.85c-.63.13-.37,1.1.26,1Z"/><path d="M117.27,240.69a14.89,14.89,0,0,0,14.58-7.84c.3-.57-.56-1.08-.86-.5a14,14,0,0,1-13.72,7.34c-.64-.07-.63.93,0,1Z"/><path d="M116.74,234.14a14.88,14.88,0,0,0,15.19-8.49c.26-.58-.6-1.09-.86-.51a13.93,13.93,0,0,1-14.33,8c-.64-.09-.63.91,0,1Z"/><path d="M116.6,221.43A12.31,12.31,0,0,0,132,219.35c.43-.48-.27-1.19-.71-.71a11.29,11.29,0,0,1-14.16,1.92c-.54-.34-1,.52-.5.87Z"/><path d="M116,211.58a11,11,0,0,0,13.69.56c.51-.38,0-1.25-.5-.86a10.06,10.06,0,0,1-12.48-.4c-.48-.43-1.19.28-.71.7Z"/><path d="M118,204.06a11.43,11.43,0,0,0,14.35-1.35.5.5,0,0,0-.71-.7,10.44,10.44,0,0,1-13.13,1.19c-.53-.37-1,.5-.51.86Z"/><path d="M118,196.4a11.71,11.71,0,0,0,12-.94c.52-.37,0-1.24-.5-.86a10.68,10.68,0,0,1-11,.93c-.58-.29-1.08.57-.51.87Z"/><path d="M120.73,190.22a14.09,14.09,0,0,0,6,.43A.5.5,0,0,0,127,190a.51.51,0,0,0-.61-.35,12.89,12.89,0,0,1-5.42-.43.5.5,0,0,0-.27,1Z"/><path d="M131.35,239.91a17.14,17.14,0,0,0,14.8,8c.64,0,.64-1,0-1a16.07,16.07,0,0,1-13.93-7.47c-.34-.54-1.21,0-.87.51Z"/><path d="M129.83,234.73a17.21,17.21,0,0,0,15.85,6.83c.63-.08.64-1.08,0-1a16.23,16.23,0,0,1-15-6.34c-.38-.51-1.25,0-.86.51Z"/><path d="M131.87,229.6a11.43,11.43,0,0,0,13.37,4.89c.6-.22.34-1.19-.26-1a10.4,10.4,0,0,1-12.24-4.43.5.5,0,0,0-.87.51Z"/><path d="M130.47,219.22a9.89,9.89,0,0,0,13.82,3.83c.54-.35,0-1.22-.5-.86a8.88,8.88,0,0,1-12.45-3.47c-.28-.58-1.15-.08-.87.5Z"/><path d="M132,213.78a13.69,13.69,0,0,0,13,.79c.58-.27.07-1.13-.51-.86a12.69,12.69,0,0,1-11.94-.79c-.54-.35-1,.52-.5.86Z"/><path d="M134.15,205.14a9.5,9.5,0,0,0,8.63-1.12c.52-.37,0-1.23-.5-.86a8.62,8.62,0,0,1-7.87,1c-.6-.23-.86.74-.26,1Z"/><path d="M133.63,197.39a8.23,8.23,0,0,0,8.75-1.68c.46-.45-.25-1.16-.71-.71a7.25,7.25,0,0,1-7.77,1.43.5.5,0,0,0-.27,1Z"/><path d="M133.65,190.63a6.12,6.12,0,0,0,5.06-1,.5.5,0,1,0-.51-.86,5.15,5.15,0,0,1-4.28.88c-.63-.15-.89.81-.27,1Z"/><path d="M37.29,55.85a62.74,62.74,0,0,1-8.07-22.06l-.91.38A120.18,120.18,0,0,0,40.64,56.38l.79-.61A43,43,0,0,1,30.21,29.25l-.94.25c4.36,10.26,8.88,20.71,16.56,29a.5.5,0,0,0,.79-.6C40.47,47.62,34.26,37.22,31.11,25.59L30.2,26,47.62,56.37a.5.5,0,0,0,.87-.51c-6.91-12.38-13.91-25-16.5-39.15L31,17C36,30.5,41.19,44.25,50,55.84a.5.5,0,0,0,.86-.51C45,42.57,39.16,29.74,35.34,16.18l-.92.39c8.11,10.86,9.83,25,17.67,36a.5.5,0,0,0,.86-.51Q48.14,42.29,44,32.2c-1.31-3.23-2.58-6.49-3.78-9.77s-3-6.94-2.67-10.55l-.93.25L54,49.22c.27.58,1.13.07.86-.51-5-11-10-22.26-11.75-34.37l-.91.38,10.27,21c.24.5,1.11.15.91-.39-1.87-5-3.74-10.18-3.65-15.64l-.93.26,5.44,9c.28.47,1.11.17.91-.38a21,21,0,0,1-1.13-8.65l-.5.5a3.37,3.37,0,0,1,2.5,1c.47.44,1.18-.27.71-.71a4.43,4.43,0,0,0-3.21-1.27.5.5,0,0,0-.5.5,21.76,21.76,0,0,0,1.17,8.91l.91-.38-5.43-9a.51.51,0,0,0-.94.25c-.09,5.55,1.78,10.78,3.69,15.91l.91-.39-10.27-21c-.27-.56-1-.13-.91.38C43.9,26.8,49,38.1,54,49.22l.86-.51L37.5,11.63c-.24-.49-.9-.19-.94.25C36.25,15.39,37.84,18.81,39,22q1.92,5.25,4,10.44,4.16,10.2,9,20.1l.86-.51c-7.84-11-9.55-25.14-17.66-36-.32-.42-1.08-.2-.92.39C38.21,30.08,44.11,43,50,55.84l.86-.51C42.1,43.81,37,30.16,32,16.71A.5.5,0,0,0,31,17c2.61,14.18,9.66,26.93,16.6,39.39l.87-.51L31.06,25.47a.5.5,0,0,0-.91.39c3.17,11.71,9.41,22.2,15.61,32.51l.78-.6c-7.62-8.2-12.08-18.6-16.4-28.77-.2-.46-1-.22-.93.25A44,44,0,0,0,40.72,56.48c.38.41,1.12-.13.79-.6A120.22,120.22,0,0,1,29.17,33.67c-.24-.56-1-.13-.91.38a63.56,63.56,0,0,0,8.16,22.3c.33.55,1.2,0,.87-.5Z"/><path d="M63.46,59.18A122.81,122.81,0,0,0,64.39,38c-.07-1.71-.18-3.41-.32-5.11a7.48,7.48,0,0,0-1.12-4,38.66,38.66,0,0,0-3.14-3.39l-3.57-3.78c-.44-.47-1.15.24-.7.71,2.11,2.24,4.39,4.4,6.37,6.76,1.2,1.44,1.14,3.37,1.27,5.14s.21,3.41.27,5.11a123.64,123.64,0,0,1-1,19.71c-.08.64.92.63,1,0Z"/><path d="M63,31.1l.72-1.56c.19-.41.38-1.28.72-1.55.66-.55,2.63-.24,3.48-.24q3.58,0,7.16,0,7,.11,14.08.5c2.39.14,4.77.29,7.16.48.93.07,2.76-.09,3.56.44,1,.67.6,2.74.57,3.75L100,47l-.58,16.29,1-.13a5.11,5.11,0,0,1,.39-4.68c.33-.55-.53-1-.87-.5a6.05,6.05,0,0,0-.48,5.44.5.5,0,0,0,1-.13q.53-14.69,1-29.38c.06-1.5.62-3.95-.53-5.2A2.68,2.68,0,0,0,99.24,28c-1.2-.17-2.42-.21-3.62-.3q-7.28-.54-14.56-.78-8.4-.27-16.81-.13a.48.48,0,0,0-.43.25L62.18,30.6c-.27.58.59,1.09.86.5Z"/><path d="M100.25,39.6l6-.67a.5.5,0,0,0,.35-.85l-.87-.88c-.45-.46-1.16.25-.71.71l.87.87.36-.85-6,.67a.51.51,0,0,0-.5.5.5.5,0,0,0,.5.5Z"/><path d="M99.26,27.14c-.68-.93-1.68.63-.68,1,.53.18.89-.29,1.17-.65l1.06-1.36L105,20.72a.53.53,0,0,0,0-.71.51.51,0,0,0-.71,0l-2.84,3.63-1.42,1.81-.71.9-.35.46-.18.22c-.13.1-.09.14.1.13l.23.3-.13.31-.39.05h0l-.3-.23,0,0a.52.52,0,0,0,.69.18.49.49,0,0,0,.17-.68Z"/><path d="M148.13,92.27a15.59,15.59,0,0,1,4.45,7.38.5.5,0,0,0,1-.27,16.66,16.66,0,0,0-4.71-7.82c-.47-.43-1.18.27-.71.71Z"/><path d="M191.16,101.13a33.5,33.5,0,0,0,6.35-9.56l-.93-.25.17,1.41c.08.63,1.08.63,1,0l-.17-1.41c-.05-.43-.7-.77-.93-.26a32.82,32.82,0,0,1-6.2,9.36c-.44.47.27,1.18.71.71Z"/><path d="M126.8,185,126,170.11l-.18-3.49-.09-1.74c0-.43-.27-1.62,0-2,.46-.81,2.72-.36,3.49-.34l3.73.09,29.6.71c5.27.13,11-.24,15.93,1.88.58.25,1.09-.61.5-.86-4.41-1.89-9.23-1.84-13.95-1.95l-16.16-.4-16.17-.39-4-.1a7.88,7.88,0,0,0-3.1.11c-1.64.71-.85,3.73-.78,5l1,18.4c0,.64,1,.65,1,0Z"/><path d="M123,251.56v5.16a.5.5,0,0,0,1,0v-5.16a.5.5,0,0,0-1,0Z"/><path d="M128.63,251.05l.52,4.64a.51.51,0,0,0,.5.5.5.5,0,0,0,.5-.5l-.52-4.64a.5.5,0,0,0-1,0Z"/><path d="M133.24,247.58l2,8.78c.15.63,1.11.36,1-.26l-2-8.78c-.14-.63-1.11-.36-1,.26Z"/><path d="M144.09,253.09a.5.5,0,0,0,0-1,.5.5,0,0,0,0,1Z"/><path d="M81,82.15A2.77,2.77,0,0,1,82.61,84c.12.44.89.52,1,0l.26-1.75-.92.11.85,1.74a.5.5,0,0,0,.78.11l2.11-2.45a.52.52,0,0,0,0-.71.51.51,0,0,0-.71,0l-2.1,2.45.78.1-.84-1.74a.51.51,0,0,0-.92.12l-.25,1.76h1a3.73,3.73,0,0,0-2.08-2.41.52.52,0,0,0-.68.18.51.51,0,0,0,.18.69Z"/><path d="M80.49,105.24l2.3,5.11a.5.5,0,0,0,.93-.25,7.53,7.53,0,0,1,.9-3.95l-.93-.25.07,4.21a.5.5,0,0,0,1,.13,2.79,2.79,0,0,1,1.71-1.6c.61-.2.35-1.17-.27-1a3.85,3.85,0,0,0-2.4,2.31l1,.13-.07-4.21a.51.51,0,0,0-.94-.25,8.51,8.51,0,0,0-1,4.45l.94-.26-2.31-5.11a.5.5,0,0,0-.68-.17.51.51,0,0,0-.18.68Z"/><path d="M105.18,115.29a5,5,0,0,1,1.85,1.37.49.49,0,0,0,.55.1.5.5,0,0,0,.31-.45l.21-2.18-1,.13a6.9,6.9,0,0,1,.47,2.58.5.5,0,0,0,.93.25l2-3a.51.51,0,0,0-.18-.69.51.51,0,0,0-.68.18l-2,3,.94.25a7.25,7.25,0,0,0-.51-2.84.5.5,0,0,0-1,.13l-.21,2.18.85-.36a5.62,5.62,0,0,0-2.06-1.52.5.5,0,1,0-.5.86Z"/><path d="M161.81,112.66a18.32,18.32,0,0,1,3.05,4.4.5.5,0,0,0,.68.17.51.51,0,0,0,.18-.68,5.42,5.42,0,0,1-.44-2.55l-.94.26,1,2.25a.5.5,0,0,0,.78.11l2.4-3a.5.5,0,0,0,0-.7.5.5,0,0,0-.71,0l-2.39,3,.78.1-1-2.26c-.22-.49-.91-.19-.93.25a6.58,6.58,0,0,0,.58,3.06l.86-.51a19.26,19.26,0,0,0-3.2-4.6c-.44-.47-1.15.24-.71.71Z"/><path d="M175.84,105.75a40,40,0,0,1,2.2,5,.51.51,0,0,0,1,0l1.16-4.6-1-.13,0,5.08a.5.5,0,0,0,.93.25,8.76,8.76,0,0,1,2.6-2.72c.53-.36,0-1.22-.51-.86a9.75,9.75,0,0,0-3,3.08l.93.25,0-5.08a.5.5,0,0,0-1-.13l-1.16,4.6h1a41.06,41.06,0,0,0-2.31-5.21c-.3-.57-1.16-.07-.86.5Z"/><path d="M161.91,135.89a3.5,3.5,0,0,1,2.07,2.43l.91-.39a3,3,0,0,1,.42-3l-.91-.12a7.67,7.67,0,0,1,.43,2.6.5.5,0,0,0,.93.25,2.29,2.29,0,0,1,1.67-1.17.51.51,0,0,0,.35-.61.52.52,0,0,0-.62-.35,3.22,3.22,0,0,0-2.26,1.63l.93.25a8.47,8.47,0,0,0-.47-2.87.51.51,0,0,0-.91-.12,4,4,0,0,0-.42,4,.5.5,0,0,0,.62.2.5.5,0,0,0,.29-.59,4.41,4.41,0,0,0-2.52-3,.51.51,0,0,0-.69.18.5.5,0,0,0,.18.68Z"/><path d="M164.42,244.63a7.87,7.87,0,0,1,2.42,3.3.52.52,0,0,0,.62.35.5.5,0,0,0,.35-.61,8.83,8.83,0,0,1-.58-3l-1,.13.74,3.72a.5.5,0,0,0,.91.12l2.07-3.18c.36-.55-.51-1-.86-.51L167,248.09l.91.12-.74-3.72c-.11-.56-1-.42-1,.13a9.56,9.56,0,0,0,.61,3.31l1-.26a8.91,8.91,0,0,0-2.69-3.75.5.5,0,1,0-.7.71Z"/><path d="M193.16,243.05l1.57,3.45c.22.48.92.21.93-.25l.11-2.7-1,.14a10.88,10.88,0,0,1,.46,3.63.48.48,0,0,0,.36.48.52.52,0,0,0,.57-.23,8.39,8.39,0,0,1,3.25-2.5.49.49,0,0,0,.18-.68.5.5,0,0,0-.68-.18,9.29,9.29,0,0,0-3.62,2.86l.94.25a11.47,11.47,0,0,0-.5-3.9.5.5,0,0,0-1,.13l-.11,2.7.94-.25L194,242.54a.5.5,0,0,0-.68-.17.51.51,0,0,0-.18.68Z"/><path d="M202.05,266.83l3,3.41.71-.71a1.82,1.82,0,0,1,.26-2.63l-.75-.43.36,3.14c0,.37.55.73.85.35l2.19-2.71a.51.51,0,0,0,0-.71.49.49,0,0,0-.7,0l-2.2,2.72.86.35-.36-3.14c0-.34-.41-.67-.76-.43a2.84,2.84,0,0,0-.46,4.2c.45.47,1.13-.23.71-.71l-3-3.41c-.43-.48-1.13.23-.71.71Z"/><path d="M111.39,82.13l2.53,3,.7-.71a4,4,0,0,1-.91-3l-1,.14L114,84.69a.51.51,0,0,0,.41.36.5.5,0,0,0,.5-.24l1.61-3.25a.5.5,0,0,0-.18-.68.49.49,0,0,0-.68.18L114,84.3l.91.12-1.25-3.06a.51.51,0,0,0-1,.13,5,5,0,0,0,1.21,3.68.5.5,0,1,0,.7-.71l-2.52-3a.5.5,0,0,0-.71,0,.51.51,0,0,0,0,.7Z"/><path d="M59.23,59.7l1.35-14.77-.75.43a11.31,11.31,0,0,1,2,1.42c.28.25.55.51.8.78l.33.38a3.92,3.92,0,0,1,.25.32c.1.21.29.26.56.13l.05.39,0-.11a.5.5,0,0,0-1-.26c-.32,1.2,2,1.15,1.38-.34a6.23,6.23,0,0,0-1.63-1.92,11.9,11.9,0,0,0-2.32-1.65.5.5,0,0,0-.75.43L58.23,59.7c-.06.64.94.64,1,0Z"/><path d="M64.42,42.27a7.85,7.85,0,0,1-2.88-10.94l-.78.1,3,2.43c.49.4,1.2-.31.7-.71l-3-2.42a.5.5,0,0,0-.78.1,8.85,8.85,0,0,0,3.23,12.3c.57.29,1.08-.57.51-.86Z"/><path d="M102.5,31.58l4-4.82a.5.5,0,0,0,0-.71.49.49,0,0,0-.7,0l-4,4.82a.52.52,0,0,0,0,.71.5.5,0,0,0,.71,0Z"/></g></g></svg>