<svg xmlns="http://www.w3.org/2000/svg" viewBox="0 0 257.54 201.54"><g id="Layer_2" data-name="Layer 2"><g id="Layer_7_134" data-name="Layer 7,134"><path d="M2.54,77.69c15.7-1.86,30.84-7.84,45.88-12.49,15.26-4.72,30.25-10.1,45.26-15.59C123.94,38.52,154.18,27,184,14.86c3.73-1.52,6.42-5,5.23-9.23-1-3.54-5.44-6.78-9.22-5.24C150.1,12.58,120.17,24.63,90,36.23,75,42,60,47.51,45.25,53.71s-30.42,10.76-44,19.07C-.84,74-.2,78,2.54,77.69Z"/><path d="M2.86,78.8c1.72,10,7,19.41,11.32,28.52,4.63,9.8,9.19,19.64,13.57,29.55,8.63,19.55,17,39.13,24.49,59.16,1.41,3.78,5.08,6.4,9.23,5.24,3.54-1,6.78-5.44,5.24-9.23-8.28-20.31-16.84-40.56-26.39-60.31q-7.05-14.58-14.69-28.9c-5-9.31-9.93-19.65-17.78-26.94-2.3-2.14-5.49,0-5,2.91Z"/><path d="M62.27,197.8c3.5,1.13,7.3-.17,10.85-.78,4.4-.75,8.74-1.52,13.06-2.65,8-2.07,16-3.75,23.9-6.17,16.33-5,32.6-10.27,48.69-16,32.13-11.44,64.45-23.1,95.26-37.79,7.33-3.5,2.07-16.4-5.6-13.28-31.4,12.78-62.33,26.5-94.24,38-15.79,5.7-31.61,11.31-47.55,16.56-7.84,2.57-15.47,5.75-23.29,8.39C79.1,185.54,75,187.23,70.9,189c-3.34,1.39-7.24,2.23-9.64,5a2.32,2.32,0,0,0,1,3.82Z"/><path d="M182.75,9.89a144.35,144.35,0,0,1,35.08,51.77C222,72.17,226,82.85,229.69,93.53q3.12,9,5.91,18c1.8,5.86,2.91,12.4,5.81,17.81s12.28,3.11,11.9-3.22-3.14-12.93-5.14-19q-3.1-9.47-6.56-18.81C237.4,76.9,232.68,65.92,227.39,55c-9.58-19.76-21-39.21-39.71-51.5-3.86-2.53-8.3,3.23-4.93,6.38Z"/><path d="M114.85,46.91l3.43,7a47.24,47.24,0,0,0,3.17,6.17,7,7,0,0,0,5.1,3.36c2.45.21,5.1-.92,7.42-1.56l15.39-4.2,3.61-1a3.77,3.77,0,0,0,.89-.24c-.05,0,.67-.27.14-.18s0-.23-.1.1a6.51,6.51,0,0,0,.47,1.39c.83,2.47,1.64,5,2.42,7.45q2.66,8.4,5,16.91c.68,2.48,4.54,1.43,3.86-1.06q-2.1-7.68-4.46-15.28-1.16-3.73-2.39-7.46c-.7-2.12-1.16-5.29-3.74-5.86a6.64,6.64,0,0,0-3.12.37L147.82,54l-7.7,2.1-7.69,2.11c-1.26.34-2.53.71-3.8,1a3.16,3.16,0,0,1-2.83-.15,6.65,6.65,0,0,1-1.73-2.39c-.63-1.2-1.2-2.44-1.8-3.66l-4-8.14c-1.13-2.31-4.58-.29-3.46,2Z"/><path d="M150.49,110l-3.75-10.5c-.63-1.79-1.28-3.58-1.91-5.37,0-.11-.33-1.11-.39-.78s.12,0,.33-.15c.63-.32,1.24-.69,1.89-1,4.9-2.19,10.55-2.79,14.35-7,1.73-1.9-1.09-4.74-2.83-2.83-4,4.33-10.59,4.4-15.43,7.32-1.55.93-2.54,2.24-2.18,4.13a37.89,37.89,0,0,0,1.9,5.52l4.17,11.67c.86,2.4,4.72,1.37,3.85-1.07Z"/><path d="M145.24,110.65c.8,3.56,5.11,2.25,7.47,1.57q5.14-1.5,10.22-3.23,10.29-3.51,20.22-7.94l-2.74-.72a23.33,23.33,0,0,1,2.11,5.21,2,2,0,0,0,2.46,1.4c4.23-1.12,9.26-2.88,11.52-7a9.58,9.58,0,0,0,.32-8.06c-1.12-3.06-2.63-6-4-9l-16.33-36.3-9.19-20.41a2,2,0,0,0-2.73-.72l-2.85,2.06a2.06,2.06,0,0,0-.72,2.73,2,2,0,0,0,2.74.72L166.63,29l-2.74-.72L179,61.83l7.76,17.24,3.88,8.62c1.11,2.47,3,5.34,3,8.12,0,4.6-6.15,6.34-9.68,7.27l2.46,1.4a27.53,27.53,0,0,0-2.5-6.17,2.06,2.06,0,0,0-2.74-.72q-8.37,3.72-17,6.76c-2.84,1-5.71,2-8.59,2.85-1.45.44-2.89.87-4.34,1.29-.69.2-1.44.34-2.11.59s-.18-.38,0,.51c-.57-2.51-4.42-1.45-3.86,1.06Z"/><path d="M118.69,44.53c.09-.26.09-.34,0-.25-.27.23-.26.25,0,0,.16,0,.42-.16.6-.21.73-.2,1.48-.27,2.22-.43a25,25,0,0,0,5.47-2.3,114.86,114.86,0,0,1,11-4.82,123.33,123.33,0,0,1,23.58-6.27,2,2,0,0,0,1.4-2.46,2.06,2.06,0,0,0-2.46-1.4,123,123,0,0,0-25.29,6.93c-4.07,1.6-8,3.47-11.91,5.38a27.74,27.74,0,0,1-5.11,1.51c-1.59.44-3.22,1.43-3.46,3.21a2.06,2.06,0,0,0,1.39,2.46,2,2,0,0,0,2.46-1.4Z"/><path d="M102,149.33a149.09,149.09,0,0,1,29.32-11.48c1.18-.32,2.36-.63,3.55-.92l1.78-.43a4.28,4.28,0,0,1,.89-.21c.37,0,0-.48.29.14,1.11,2.36,2.87,4.5,4.18,6.76.32.55.78,1.37.55,1.81s-1.16.94-1.65,1.24c-1.39.85-2.87,1.81-3.37,3.46-.83,2.67,1.43,4.73,2.63,6.85a21.17,21.17,0,0,1,2.59,7.93,2.06,2.06,0,0,0,2,2,2,2,0,0,0,2-2,26.72,26.72,0,0,0-2.17-8,22.7,22.7,0,0,0-1.87-3.38c-.3-.46-.65-.9-.95-1.36s-.46-.72-.38-.91c-.07.16.32-.32.44-.41s.52-.34.75-.49a16,16,0,0,0,2.27-1.55c2-1.71,2.14-4.14,1-6.42a69,69,0,0,0-4.59-7.52,4.1,4.1,0,0,0-2.85-2.13,11.58,11.58,0,0,0-4.19.68,150.71,150.71,0,0,0-16.64,5.1A157.45,157.45,0,0,0,100,145.87c-2.29,1.19-.27,4.64,2,3.46Z"/><path d="M103.26,177.65l-3.41-6.6L98.26,168c-.33-.64-1.52-2.19-1.24-2.86l-.52.89A7,7,0,0,1,99,164.74l2.64-1.18c1.65-.74,3.12-2,2.64-4a11.7,11.7,0,0,0-1.1-2.45l-1.49-3-2.76-5.59c-1.15-2.3-4.6-.28-3.46,2l4.26,8.6c.13.28.29.91.53,1.07.1.34.18.29.24-.16.24-.42.19-.5-.15-.23a8.5,8.5,0,0,0-2,.92,21.21,21.21,0,0,0-4,1.9c-2.91,2.13-.35,5.71.85,8l4.66,9c1.18,2.29,4.64.27,3.46-2Z"/><path d="M66.72,168.73,64,162.49l-1.17-2.68c0-.08-.67-1.57-.66-1.58l-.22.45a2.21,2.21,0,0,1,.51-.18c4.17-1.38,8.46-2.49,12.67-3.74a2,2,0,0,0,1.2-2.93,30.94,30.94,0,0,1-4.23-12.44c-.12-1.16-1.19-2.42-2.53-1.92L62,140.27l2.26.91a34.25,34.25,0,0,1-2.07-3.87,15,15,0,0,1-1.44-4c-.06-.45-.22,0,0-.28a3.07,3.07,0,0,1,.69-.43c.64-.4,1.29-.78,1.94-1.15,1.37-.78,2.77-1.53,4.18-2.23a80.6,80.6,0,0,1,17.1-6.14l-2.46-1.39q5.58,15.53,12.64,30.47c1.09,2.32,4.54.29,3.45-2q-6.83-14.46-12.23-29.52a2.05,2.05,0,0,0-2.46-1.39,84.7,84.7,0,0,0-20.06,7.57c-1.53.81-3,1.65-4.5,2.58s-2.53,2.21-2.36,4.08a18,18,0,0,0,1.66,5.08,35.65,35.65,0,0,0,2.41,4.68,2,2,0,0,0,2.26.92l7.53-2.8-2.54-1.93a35.58,35.58,0,0,0,4.77,14.45l1.2-2.93-8,2.35-4,1.18A6.23,6.23,0,0,0,59,156c-1.91,2.07-.06,4.9.85,7l3.42,7.79a2,2,0,0,0,2.74.72,2,2,0,0,0,.72-2.73Z"/><path d="M67.08,167.63l-1.49.65c-2.1.9-.6,4.29,1.54,3.65q14.7-4.38,28.94-10.13a2.06,2.06,0,0,0,1.4-2.46,2,2,0,0,0-2.46-1.4q-14.24,5.75-28.95,10.13l1.54,3.66,1.5-.65a2,2,0,0,0,.71-2.73,2,2,0,0,0-2.73-.72Z"/><path d="M23,74.09c5.39.73,9.18,4.87,12.83,8.53,2.25,2.26,4.59,4.43,7,6.47,1.2,1,2.43,2,3.66,2.92a17.66,17.66,0,0,0,4.11,2.69c3,1.17,6.52-.33,9.42-1.11q4.86-1.32,9.65-2.85c3.13-1,6.3-2,9.36-3.24a3.88,3.88,0,0,0,2.67-2.79c.33-1.66-.71-3.52-1.25-5l-7.87-22c-.86-2.41-4.72-1.37-3.85,1.06L75.24,77l1.51,4.22a10.18,10.18,0,0,0,.84,2.34l.13.38.35-.38c0,.09-.8.36-.87.38-3,1.12-6,2.14-9.06,3.11s-5.81,1.78-8.73,2.58c-1.39.37-2.78.74-4.17,1.09s-2.65.71-4-.16c-4.84-3.07-9.14-7.26-13.16-11.3s-8.28-8.22-14-9a2.06,2.06,0,0,0-2.46,1.4A2,2,0,0,0,23,74.09Z"/><path d="M78,87.33,79.67,93a53.62,53.62,0,0,0,1.57,5.25c1.49,3.68,6.31,3.2,9.48,2.45,3.6-.85,7.14-2.12,10.68-3.2l11.24-3.44-2.53-1.92a22.62,22.62,0,0,0,2.25,8.1,2,2,0,0,0,2.74.72c2.34-1,4.74-2,7-3.06a4.55,4.55,0,0,0,2.45-5.74c-.7-2.46-1.81-4.87-2.71-7.27l-2.8-7.42c-.81-2.14-1.41-4.77-2.74-6.67A4.21,4.21,0,0,0,114,69.08a5.77,5.77,0,0,0-3.84.73L95.48,76,79,83a2,2,0,0,0-.72,2.73,2.06,2.06,0,0,0,2.74.72l25-10.58c2.06-.87,4.11-1.79,6.19-2.62.83-.33.76-.5,1.17.36s.8,2.08,1.19,3.1l4.72,12.51c.43,1.15.89,2.29,1.3,3.44s.58,1.33-.42,1.81c-2.3,1.11-4.7,2-7,3.07l2.73.72a17.53,17.53,0,0,1-1.7-6.09,2,2,0,0,0-2.53-1.93l-19.2,5.87a25,25,0,0,1-4.5,1.09,8,8,0,0,1-2.24,0c-.7-.14-.68-.26-.88-.91-1-3.32-1.91-6.67-2.87-10-.71-2.47-4.57-1.42-3.86,1.07Z"/><path d="M75.41,65.77c6.75-3.6,14.65-4.58,21.84-7,7.61-2.58,15-5.86,22.29-9.13l-3-1.73.13,3.49c.1,2.57,4.1,2.58,4,0l-.13-3.49a2,2,0,0,0-3-1.72,237.47,237.47,0,0,1-22.22,9C88,57.59,80.21,58.68,73.39,62.31c-2.28,1.21-.26,4.67,2,3.46Z"/><path d="M113,73.36a40.26,40.26,0,0,1,13.55-6.55,2.05,2.05,0,0,0,1.4-2.46c-.44-2.09-2.31-3.28-3.72-4.69a31.15,31.15,0,0,1-3.58-4.27,32.36,32.36,0,0,1-4.77-10.55,2,2,0,0,0-1.93-1.47,2.7,2.7,0,0,0-2.83,2.77c.18,2.56,4.18,2.58,4,0l0-.25-.27,1h0l-.88.51v0L112,45.9a35.9,35.9,0,0,0,4.73,10.84,36.37,36.37,0,0,0,3.53,4.57c.64.7,1.3,1.38,2,2s1.62,1.17,1.81,2.08l1.4-2.46a43.34,43.34,0,0,0-14.51,7,2.07,2.07,0,0,0-.71,2.74,2,2,0,0,0,2.73.72Z"/><path d="M206.5,42.2a6.56,6.56,0,0,1-4.4,5.38,6.68,6.68,0,0,1-3.86,0,5,5,0,0,1-1.69-.81,2,2,0,0,1-.52-.56c-.1-.19,0-.23-.1-.13.94-1.61-1.06-4-2.73-2.74a5.32,5.32,0,0,1-7.28-.71,5.23,5.23,0,0,1,1.22-7.18,2,2,0,0,0-1-3.73A5.71,5.71,0,0,1,181.28,29c-1.29-2.12-.86-4.84.31-6.91a9.72,9.72,0,0,1,4.69-4.17c1.19-.49,5.19-1.51,5.16.78,0,2.58,4,2.58,4,0a5.22,5.22,0,0,0-2.81-4.65,8.48,8.48,0,0,0-5.83-.47,13.62,13.62,0,0,0-8.28,5.88,11.24,11.24,0,0,0-1,11.1,9.76,9.76,0,0,0,8.56,5.13l-1-3.73c-4,2.7-5.48,8.56-2.65,12.66a9.24,9.24,0,0,0,12.74,2.14l-2.73-2.73c-1.27,2.17-.11,4.59,1.77,6a10.2,10.2,0,0,0,6.82,1.81,10.44,10.44,0,0,0,9.29-8.55A2.05,2.05,0,0,0,209,40.81a2,2,0,0,0-2.47,1.39Z"/><path d="M219.11,62.11a13,13,0,0,0-17.43,1l3.14.4c-2-2.68-5.61-2.45-7.79-.05s-3.23,6-3.47,9.15c-.23,2.88.17,6.46,2.68,8.31a4.46,4.46,0,0,0,6.87-2A2,2,0,0,0,202,76.52a2,2,0,0,0-2.5.82c-3.05,4-4.92,9.68-1.79,14.16,2.83,4,9,4.64,11.9.35l-3.45-2c-3,5.24-.92,12.25,4.87,14.41,5.48,2,11.58-2.68,10.23-8.57-.5-2.15-4.15-1.74-3.93.53a7.27,7.27,0,0,0,9,6.23c4.28-1.18,6.35-6,5.4-10.13-.58-2.5-4.43-1.44-3.85,1.07.43,1.89-.39,4.33-2.31,5.1-1.59.64-4.08-.42-4.26-2.27l-3.93.54a3.36,3.36,0,0,1-1.3,3.27,4,4,0,0,1-4.19.28c-3.18-1.51-4-5.53-2.3-8.44,1.31-2.25-2-4.13-3.45-2a2.88,2.88,0,0,1-2.79,1,3.86,3.86,0,0,1-2.85-2.49c-1.32-3.19.51-6.51,2.43-9l-3.65-1.55c.08-.24.26,0,0-.06s-.21.1-.48,0a1.63,1.63,0,0,1-.79-.9,9.38,9.38,0,0,1-.38-4.7,12.88,12.88,0,0,1,1.54-4.8,4.44,4.44,0,0,1,1.23-1.61c.22-.15.91-.37,1-.25a2,2,0,0,0,3.14.41,8.92,8.92,0,0,1,11.78-1,2,2,0,0,0,2.82,0,2,2,0,0,0,0-2.83Z"/><path d="M221.89,133.29c-3.17.86-6.25-1.74-7.37-4.55s-.35-6.24,2.68-7.2l-1.06-3.86a2.3,2.3,0,0,1-2.78-.74c-.78-1.11-.06-2.75.53-3.79a9,9,0,0,1,7-4.5l-.54-3.93c.51-.18.08.32.25.07l.09-.13a3.21,3.21,0,0,1,1.25-.93,7.89,7.89,0,0,1,4.57-.64A2.06,2.06,0,0,0,229,101.7a2,2,0,0,0-1.4-2.46c-3.38-.54-7.74,0-10,2.92a4.13,4.13,0,0,0-.44,4.65,3.63,3.63,0,0,0,4.27,1.76c2-.71,1.86-4.1-.53-3.92a13,13,0,0,0-11.3,8.25,6.57,6.57,0,0,0,1.12,7.1,6.25,6.25,0,0,0,6.46,1.54c2.36-.89,1.43-4.65-1.06-3.86-5.09,1.61-7.28,7.35-5.45,12.18s6.92,8.74,12.26,7.29c2.48-.68,1.43-4.54-1.06-3.86Z"/><path d="M120.11,55.26c7-4.39,15-6.95,22.91-9.14,8.71-2.41,17.45-4.69,26.17-7a1,1,0,0,0-.54-1.93c-8.86,2.38-17.74,4.69-26.59,7.15-8,2.21-15.9,4.82-23,9.23-1.09.68-.08,2.41,1,1.72Z"/><path d="M151.05,52.93a1.29,1.29,0,0,0,1.42,1.35c1.19,0,1.79-1.05,2.44-1.88L161,44.51l-1.83-.24c2.28,8.47,6,16.54,9.27,24.65L178.65,94l1.23-1.23a70.56,70.56,0,0,1-19.87-10v1.72l4.31-2.67-1.21-1.57a8,8,0,0,1-2.89,2l1.26,1a1.19,1.19,0,0,1,1.08-1.08l-1-.25a3.76,3.76,0,0,1,1,2.46l2-.27a4.16,4.16,0,0,1-.31-1.82l-1.86.51A4.87,4.87,0,0,1,163,85a1,1,0,0,0,2,0,3,3,0,0,0-1.32-2.51c-1-.78-2,1-1,1.73A.8.8,0,0,1,163,85h2a7.2,7.2,0,0,0-.87-3.28,1,1,0,0,0-1.87.5,5.39,5.39,0,0,0,.38,2.35c.39,1,2,1,2-.26s-.68-4.08-2.29-4.17-2.69,1.67-2.81,3a1,1,0,0,0,1.27,1,10.15,10.15,0,0,0,3.78-2.48c.76-.81-.22-2.19-1.22-1.57L159,82.79a1,1,0,0,0,0,1.72,72,72,0,0,0,20.35,10.21c.67.21,1.52-.52,1.23-1.23l-10.22-25.1c-3.3-8.11-7-16.18-9.27-24.65a1,1,0,0,0-1.83-.24l-3.56,4.62c-.32.42-2.94,4.28-3.31,4.14l.6.46.06.21c.09-1.28-1.91-1.28-2,0Z"/><path d="M147,106.37a134.73,134.73,0,0,1,22.83-9.84q2.83-.91,5.7-1.71l2.87-.76a7.26,7.26,0,0,0,2.59-.81c2.24-1.65.9-5.45-1.94-5.07-3.72.49-2.9,6,.72,5.56,1.26-.15,1.28-2.15,0-2-.8.1-1.8-.82-.89-1.44a.77.77,0,0,1,1.24.71c-.08.87-1.35.9-2,1.07s-1.62.42-2.43.63q-5.19,1.41-10.25,3.22a139.06,139.06,0,0,0-19.42,8.71c-1.13.62-.12,2.34,1,1.73Z"/><path d="M80.15,90.79a234.09,234.09,0,0,0,36.24-9.1c1.22-.41.7-2.35-.53-1.93a234.38,234.38,0,0,1-36.24,9.1c-1.27.21-.73,2.14.53,1.93Z"/><path d="M112.2,92.74l3-7.19,1.51-3.6c.25-.57.47-1.16.73-1.72.14-.31.27-.69.62-.76,1.26-.25.73-2.18-.53-1.92s-1.68,1.33-2.1,2.33c-.57,1.37-1.15,2.74-1.73,4.11l-3.46,8.22a1,1,0,0,0,.7,1.23,1,1,0,0,0,1.23-.7Z"/><path d="M116.17,45.45l9,5.64c1.09.69,2.1-1,1-1.72l-9-5.65c-1.09-.69-2.09,1-1,1.73Z"/><path d="M120.15,43.76a19.6,19.6,0,0,1,6.64,4.94,1,1,0,1,0,1.41-1.42,21.4,21.4,0,0,0-7-5.25,1,1,0,0,0-1,1.73Z"/><path d="M125.82,41.41a44.11,44.11,0,0,1,4.82,6.6,1,1,0,1,0,1.73-1,46.31,46.31,0,0,0-5.14-7,1,1,0,0,0-1.41,1.41Z"/><path d="M129.49,40.51a35.68,35.68,0,0,1,5.08,7.11,1,1,0,1,0,1.73-1,38.42,38.42,0,0,0-5.4-7.52,1,1,0,0,0-1.41,0,1,1,0,0,0,0,1.42Z"/><path d="M134.43,38c1.47,2.48,2.83,5,4,7.65a1,1,0,0,0,1.37.36,1,1,0,0,0,.36-1.37q-1.85-3.93-4.06-7.65a1,1,0,0,0-1.72,1Z"/><path d="M138.8,35.38A58.14,58.14,0,0,1,141.25,43a1,1,0,1,0,1.92-.53,56.63,56.63,0,0,0-2.44-7.61,1,1,0,0,0-1.23-.7,1,1,0,0,0-.7,1.23Z"/><path d="M143.29,34.69a52.29,52.29,0,0,1,1.88,7.91,1,1,0,1,0,1.93-.53,52,52,0,0,0-1.88-7.91,1,1,0,0,0-1.24-.7,1,1,0,0,0-.69,1.23Z"/><path d="M147.47,32.65a33.75,33.75,0,0,1,1.24,8.88,1,1,0,0,0,2,0,35.69,35.69,0,0,0-1.32-9.41,1,1,0,0,0-1.92.53Z"/><path d="M152,32.32a24.72,24.72,0,0,1,.67,8.82,1,1,0,1,0,2,0,26.36,26.36,0,0,0-.74-9.36,1,1,0,0,0-1.93.54Z"/><path d="M156,30.08a31.72,31.72,0,0,1,.29,4.46c0,.73,0,1.46-.08,2.19,0,.35-.06.69-.1,1a4.78,4.78,0,0,1-.06.53s-.08.54,0,.4l.86-.49h0l.5.14,0,0,.35.36,0-.05.14.5v0l-.49.86,0,0c1.08-.69.08-2.42-1-1.73l0,0a1,1,0,0,0-.5.86,1.18,1.18,0,0,0,1.13,1.13,1,1,0,0,0,.86-.5,3.06,3.06,0,0,0,.26-1.24c.05-.41.1-.81.14-1.22.07-.79.11-1.57.12-2.36a33.58,33.58,0,0,0-.29-4.81,1,1,0,0,0-1-1c-.48,0-1.07.46-1,1Z"/><path d="M160,29.55a24.52,24.52,0,0,1-.62,9.72,1,1,0,0,0,1.93.53A27,27,0,0,0,161.89,29a1,1,0,0,0-1.23-.7,1,1,0,0,0-.7,1.23Z"/><path d="M164.57,30.36a20.12,20.12,0,0,1,.12,7.77,1,1,0,0,0,.7,1.23,1,1,0,0,0,1.23-.69,22.87,22.87,0,0,0-.13-8.84,1,1,0,1,0-1.92.53Z"/><path d="M164.08,83.94l13,5.09a1,1,0,0,0,1.23-.7,1,1,0,0,0-.7-1.23l-13-5.09a1,1,0,0,0-1.23.7,1,1,0,0,0,.7,1.23Z"/><path d="M163.17,80.39a100.29,100.29,0,0,1,10.67.62,1,1,0,0,0,1-1,1,1,0,0,0-1-1,100.29,100.29,0,0,0-10.67-.62,1,1,0,0,0,0,2Z"/><path d="M163.41,78.28l8.7-1.49a1,1,0,0,0-.54-1.93l-8.69,1.49a1,1,0,0,0,.53,1.93Z"/><path d="M163.42,76l6.71-1.57a1,1,0,1,0-.53-1.93l-6.71,1.57a1,1,0,0,0,.53,1.93Z"/><path d="M162.58,74.13l6.53-3.48a1,1,0,1,0-1-1.73l-6.53,3.48a1,1,0,0,0-.36,1.37,1,1,0,0,0,1.37.36Z"/><path d="M163,72.47a27,27,0,0,1,5.58-7,1,1,0,0,0,0-1.41,1,1,0,0,0-1.41,0,28.46,28.46,0,0,0-5.89,7.44,1,1,0,0,0,.35,1.37,1,1,0,0,0,1.37-.36Z"/><path d="M162.1,69.67l3.52-7.9a1,1,0,0,0-.35-1.37,1,1,0,0,0-1.37.36l-3.53,7.9a1,1,0,0,0,.36,1.37,1,1,0,0,0,1.37-.36Z"/><path d="M161.61,67l3.26-10.62c.38-1.23-1.55-1.76-1.93-.53l-3.26,10.62c-.38,1.23,1.55,1.76,1.93.53Z"/><path d="M160.42,63.86q1.44-6.63,2.44-13.34a1,1,0,0,0-.7-1.23,1,1,0,0,0-1.23.7q-1,6.7-2.44,13.34c-.27,1.25,1.66,1.79,1.93.53Z"/><path d="M159.15,59.91l2-13.36a1,1,0,0,0-.7-1.23,1,1,0,0,0-1.23.7l-2,13.36a1,1,0,0,0,.7,1.23,1,1,0,0,0,1.23-.7Z"/><path d="M157.83,56.53a15.24,15.24,0,0,1,1.19-6,1,1,0,0,0-.7-1.23,1,1,0,0,0-1.23.69,17.23,17.23,0,0,0-1.26,6.58,1,1,0,0,0,2,0Z"/><path d="M82.16,85.07l2.3,4a1,1,0,0,0,1.73-1l-2.3-4a1,1,0,1,0-1.73,1Z"/><path d="M85.89,83.41l1.89,4.37a.93.93,0,0,0,.6.46,1,1,0,0,0,.77-.1,1,1,0,0,0,.36-1.36L87.62,82.4a1.06,1.06,0,0,0-.6-.46,1,1,0,0,0-.77.1,1,1,0,0,0-.36,1.37Z"/><path d="M90,81.77a24.51,24.51,0,0,0,1.5,5.83,1,1,0,1,0,1.92-.53,22.89,22.89,0,0,1-.89-2.69c-.11-.43-.21-.88-.3-1.32,0-.24-.1-.48-.14-.73,0-.1,0-.2,0-.31s-.06-.41,0-.25a1,1,0,0,0-1-1c-.48,0-1.07.45-1,1Z"/><path d="M93.55,82.17l.61,4.75a1.16,1.16,0,0,0,.29.71,1.05,1.05,0,0,0,.71.29c.49,0,1.07-.44,1-1l-.61-4.75a1.13,1.13,0,0,0-.29-.71,1,1,0,0,0-.71-.29c-.49,0-1.07.44-1,1Z"/><path d="M96.68,79v5.53a1,1,0,1,0,2,0V79a1,1,0,1,0-2,0Z"/><path d="M99.93,78.09a28,28,0,0,1,.33,3.43c0,.57,0,1.14,0,1.71l0,.86c0,.1,0,.19,0,.29s0,.19,0,.09,0-.06,0,0a.66.66,0,0,1,.61-.39l.5.13a.77.77,0,0,1,.16,1.22l-.44.26h-.47l-.44-.25,0,0a1,1,0,0,0,1.41,0,1,1,0,0,0,0-1.42,1.1,1.1,0,0,0-1.71.22,1.29,1.29,0,0,0,.2,1.51,1.21,1.21,0,0,0,1.7-.1,2.3,2.3,0,0,0,.46-1.55,31.15,31.15,0,0,0-.38-6.61,1,1,0,0,0-1.23-.69,1,1,0,0,0-.7,1.23Z"/><path d="M104.17,77l-.81,6.48h2l0-1.35a1,1,0,0,0-1-1,1,1,0,0,0-1,1l0,1.35a1,1,0,0,0,1,1,1,1,0,0,0,1-1l.81-6.48a1,1,0,0,0-1-1,1,1,0,0,0-1,1Z"/><path d="M108.12,76.25a48.49,48.49,0,0,1-.79,7.88,1,1,0,0,0,.7,1.23,1,1,0,0,0,1.23-.7l.43-2.23a1,1,0,0,0-.7-1.23,1,1,0,0,0-1.23.7l-.43,2.23,1.93.53a52.82,52.82,0,0,0,.86-8.41,1,1,0,0,0-2,0Z"/><path d="M111.67,75.07l0,5.68a1,1,0,0,0,2,.27l.43-1.35a1,1,0,0,0-1.93-.53l-.43,1.35,2,.26,0-5.68a1,1,0,0,0-2,0Z"/><path d="M79.32,77.31a75,75,0,0,0,3.71-12l-1.47.59c2.25,1.43,5,1.54,7.53,1.76q4.68.39,9.36.62,9.38.48,18.76.29a1,1,0,0,0,0-2q-8.89.17-17.77-.24-4.32-.19-8.63-.53c-2.72-.22-5.86-.12-8.24-1.62a1,1,0,0,0-1.47.59,74.83,74.83,0,0,1-3.71,12c-.48,1.2,1.46,1.71,1.93.53Z"/><path d="M79.53,76.63c.18.2.35.4.51.61,0,0,.09.11,0,0l.15.2.23.32a15.19,15.19,0,0,1,.85,1.39c.12.23.24.47.35.71l.16.36c0-.1,0,0,0,0s.05.12.08.19a14.71,14.71,0,0,1,.51,1.59,1,1,0,0,0,1.23.7,1,1,0,0,0,.7-1.23,15.34,15.34,0,0,0-3.4-6.31,1,1,0,0,0-1.41,0,1,1,0,0,0,0,1.41Z"/><path d="M80.54,71.28l4.74,9.08c.59,1.14,2.32.13,1.72-1l-4.73-9.08c-.6-1.14-2.32-.13-1.73,1Z"/><path d="M82,66l5.54,12.79a1,1,0,0,0,1.37.36,1,1,0,0,0,.36-1.37L83.71,65a1,1,0,0,0-1.37-.36A1,1,0,0,0,82,66Z"/><path d="M86.57,66.61l4.55,11.12a1,1,0,0,0,1.23.7,1,1,0,0,0,.7-1.23L88.49,66.08a1,1,0,0,0-1.23-.7,1,1,0,0,0-.69,1.23Z"/><path d="M91.56,67.85l2.7,8.69c.39,1.23,2.32.7,1.93-.53l-2.7-8.7c-.39-1.22-2.32-.7-1.93.54Z"/><path d="M95.92,68.63l2.38,7.88a1,1,0,0,0,1.93-.53L97.84,68.1a1,1,0,0,0-1.92.53Z"/><path d="M99.44,68.63,101,74.16a1,1,0,0,0,1.93-.54l-1.59-5.52a1,1,0,1,0-1.93.53Z"/><path d="M104.31,69.55a4.85,4.85,0,0,0,1.54,3.68,1,1,0,1,0,1.41-1.42,4,4,0,0,1-.44-.48l.16.2a4,4,0,0,1-.5-.84l.1.24a4.3,4.3,0,0,1-.28-1l0,.26a3.5,3.5,0,0,1,0-.65,1,1,0,0,0-1-1,1,1,0,0,0-1,1Z"/><path d="M111.48,70.94a1,1,0,0,0,0-2,1,1,0,0,0,0,2Z"/><path d="M69.94,87.09A229.35,229.35,0,0,1,59.8,61.29l-.69,1.23c.85-.25,3.25-1.37,3.94-.57a4.64,4.64,0,0,1,.53,1.69c.18.68.37,1.35.55,2q1.14,4.06,2.48,8.07c1.77,5.27,3.82,10.44,6.1,15.5L74.28,88l0-.33c.14-1.28-1.86-1.27-2,0a2.13,2.13,0,0,0,.62,1.75c.8.91,2-.25,1.57-1.22a158.9,158.9,0,0,1-6.91-18.14c-.47-1.5-.92-3-1.34-4.5A37.12,37.12,0,0,0,65,61.47c-1.19-2.87-4.21-1.52-6.45-.88a1,1,0,0,0-.69,1.23A231.44,231.44,0,0,0,68.21,88.1c.55,1.17,2.27.15,1.73-1Z"/><path d="M80.09,151.72c3.58.72,3.9-4.95,4.14-7.23a54.49,54.49,0,0,1,.41-5.57c.3-1.35,1.37-3.1,3-2.63l-.6-.46a48.2,48.2,0,0,1,2.56,5.62c.35.93.68,1.87,1,2.82.16.5.31,1,.45,1.51a6.58,6.58,0,0,1,.39,1.51c0,.71-1.39,1.29-1.94,1.62a23.49,23.49,0,0,1-2.55,1.3,22.28,22.28,0,0,1-2.88,1c-.43.12-.87.23-1.31.32a2.51,2.51,0,0,1-.72.11,1.76,1.76,0,0,0-.34,0c.71-1.07-1-2.07-1.73-1-.91,1.37.34,2.92,1.8,3a13.11,13.11,0,0,0,5.26-1.3,24.66,24.66,0,0,0,4.74-2.5,4,4,0,0,0,1.48-1.42,3.9,3.9,0,0,0-.15-2.71,45.2,45.2,0,0,0-4.16-10.6c-.8-1.39-2.81-1-4-.21a5.67,5.67,0,0,0-2.35,3.94c-.33,2-.2,4.1-.45,6.14-.07.6-.46,5-1.56,4.82-1.26-.25-1.8,1.68-.53,1.93Z"/><path d="M69.13,141.19a7,7,0,0,1,3.73-1.3c1.51.09,1.92,1.72,2.4,2.89l4.08,9.93,1-1.27a8.41,8.41,0,0,0-3.89,1.38c-1,.72,0,2.45,1,1.72a6.28,6.28,0,0,1,2.88-1.1c.57-.06,1.24-.6,1-1.27-1.59-3.86-3.09-7.76-4.77-11.58a4.06,4.06,0,0,0-3.74-2.7,9.15,9.15,0,0,0-4.63,1.58,1,1,0,0,0,1,1.72Z"/><path d="M102.33,160.38A96.72,96.72,0,0,1,121,152.59c1.61-.48,3.23-.9,4.85-1.3,1.09-.27,2.26-.72,2.11-2.08s-1.24-2.93-1.83-4.17l-2.36-5a1,1,0,0,0-1.57-.2,2.27,2.27,0,0,0-.58,2.5c.46,1.19,2.39.67,1.93-.54l.07-.54-1.57-.21,2,4.33.92,1.95c.17.35.32.74.52,1.08l.2.43c.39.21.45.32.18.35-.24.3-1.51.37-1.92.48l-2.2.59c-1.47.42-2.92.86-4.37,1.34a100.72,100.72,0,0,0-16.12,7c-1.13.62-.12,2.35,1,1.73Z"/><path d="M102.37,162.5c2.88-.36,5.38-2.26,8-3.48a69.42,69.42,0,0,1,8.94-3.52,49,49,0,0,1,9-2.18c1.78-.21,2.52,1.47,3.38,2.74l1.29,1.92c.17.25,1.39,1.72,1.32,1.92l.7-.7-.16,0,1,.26.06.18-.46,1.12.11-.06a1,1,0,0,0-1-1.73l-.1.07a1,1,0,0,0-.46,1.13,1.21,1.21,0,0,0,2.37,0c.15-.79-.42-1.46-.83-2.07l-1.82-2.68c-.86-1.27-1.7-2.92-3.08-3.71-1.59-.93-3.64-.22-5.3.13a69.71,69.71,0,0,0-11.58,3.53c-1.89.75-3.75,1.58-5.56,2.49s-3.71,2.37-5.74,2.62c-1.26.16-1.27,2.17,0,2Z"/><path d="M97.48,173.89c6.13-3.18,12.25-6.4,18.39-9.55,5.67-2.91,11.57-5.69,18-6.43l-1-1.27a.88.88,0,0,1-.6.77c-1.17.53-.16,2.25,1,1.73a2.59,2.59,0,0,0,1.52-2c.1-.57-.26-1.35-1-1.27-6.48.74-12.42,3.36-18.18,6.29-6.43,3.27-12.81,6.64-19.2,10-1.15.59-.14,2.32,1,1.72Z"/><path d="M101.3,173.71c3.34-1.88,7-2.77,10.75-3.66a114,114,0,0,0,11.72-3.46c2-.7,3.92-1.44,5.87-2.2,1.55-.61,3.38-1.09,4.67-2.2a2.64,2.64,0,0,0,.85-3.37,1.76,1.76,0,0,0-2.77-.36c-.84,1,.57,2.4,1.41,1.42a8.76,8.76,0,0,1-3.8,2.23q-2.24.88-4.5,1.73c-2.93,1.09-5.9,2.1-8.91,3-5.47,1.57-11.27,2.34-16.29,5.17a1,1,0,0,0,1,1.73Z"/><path d="M106.94,170.06A185.79,185.79,0,0,0,130.41,161l-1-1.73a46.16,46.16,0,0,1-15.58,6.37l.77,1.82,13.77-7.88c1.12-.64.12-2.33-1-1.73l-9.8,5.2c-1.14.61-.14,2.32,1,1.73a78,78,0,0,1,13-5.32L130.41,158a9.11,9.11,0,0,1-3.94,3.83,1,1,0,0,0,.5,1.86,5.47,5.47,0,0,0,5.33-5.38l-1.5.87.67.46c1.06.74,2.06-1,1-1.72l-.67-.47a1,1,0,0,0-1.51.86,3.43,3.43,0,0,1-3.33,3.38l.51,1.86a11,11,0,0,0,4.66-4.54,1,1,0,0,0-1.13-1.47,80.47,80.47,0,0,0-13.46,5.52l1,1.73,9.8-5.2-1-1.73-13.77,7.89a1,1,0,0,0,.77,1.83A47.81,47.81,0,0,0,130.41,161a1,1,0,0,0-1-1.73,181.89,181.89,0,0,1-23,8.85c-1.22.38-.7,2.31.54,1.93Z"/><path d="M131.44,160.94a.09.09,0,0,0,0,.05l0-.27a.67.67,0,0,1,0,.2l0-.27a.73.73,0,0,1-.05.2l.1-.24a.72.72,0,0,1-.11.19l.16-.2-.13.12.2-.16a.6.6,0,0,1-.13.09h1l-1.17-.84a.7.7,0,0,0-.37-.11.78.78,0,0,0-.4,0,1.1,1.1,0,0,0-.6.46,1,1,0,0,0-.1.77l.1.24a1,1,0,0,0,.36.36l1.17.83a1,1,0,0,0,.51.14,1,1,0,0,0,.5-.14,1.49,1.49,0,0,0,.41-.3,2.17,2.17,0,0,0,.23-.3.41.41,0,0,0,.07-.11,2,2,0,0,0,.17-.48,2,2,0,0,0,0-.77.75.75,0,0,0-.18-.34.87.87,0,0,0-.28-.26,1,1,0,0,0-.77-.1,1,1,0,0,0-.6.46l-.1.24a1,1,0,0,0,0,.53Z"/><path d="M140.69,150.84a32,32,0,0,1-6.85-6.8l-.16,1.21a19.89,19.89,0,0,1,8.69-5,1,1,0,0,0-.53-1.93,22,22,0,0,0-9.57,5.54,1,1,0,0,0-.16,1.21,35,35,0,0,0,7.57,7.51,1,1,0,0,0,1.37-.36,1,1,0,0,0-.36-1.36Z"/><path d="M44,138.22a5.23,5.23,0,0,0,6.39-8.14l.15,1.21c.85-1.84,1.91-3.74.51-5.62s-3.68-2-5.76-1.85l.7,1.71a5.7,5.7,0,0,0,.62-7.52c-1.91-2.61-5.57-3.1-8.45-2.07l1.23,1.23c1.16-3.68-.59-8.32-4.38-9.67-5.25-1.89-7.13,5.19-6.85,9,.09,1.28,2.09,1.29,2,0-.19-2.62.83-9.09,4.83-6.83a6,6,0,0,1,2.47,6.94,1,1,0,0,0,1.23,1.23c2-.72,4.62-.65,6.13,1.1a3.71,3.71,0,0,1-.24,5.15,1,1,0,0,0,.71,1.71c1.3-.07,2.91-.2,3.93.79s.12,2.52-.4,3.67a1,1,0,0,0,.15,1.21,3.25,3.25,0,0,1-4,5c-1.15-.58-2.16,1.15-1,1.73Z"/><path d="M39.81,135.61A12.45,12.45,0,0,1,41,136l.6.22c.11.05.1,0,0,0l.14.06.26.12c.37.18.74.38,1.09.59l.54.36.26.18.13.1c-.1-.07-.1-.08,0,0L45.25,136l-1.12-.67a1,1,0,1,0-1,1.73l1.12.67a1,1,0,0,0,1.21-1.57,12.9,12.9,0,0,0-5.11-2.49,1,1,0,1,0-.53,1.92Z"/><path d="M19.12,99.16c2.83,2.63,7.5,3.47,10.75,1.07A4.78,4.78,0,0,0,32,95.88a3.88,3.88,0,0,0-3-3.43l-.26,2a5,5,0,1,0-1.4-9.89l.53,1.92c3.68-1.12,3.41-6,.77-8-2.21-1.72-8.46-3.33-9.5.54A1,1,0,0,0,21,79.7a3.62,3.62,0,0,0-.75-4.45,4.89,4.89,0,0,0-5.35-.49A8.28,8.28,0,0,0,10.5,84c.27,1.26,2.2.73,1.93-.53a6.34,6.34,0,0,1,1.85-6A4.49,4.49,0,0,1,17.6,76.2c1.19.1,2.35,1.3,1.65,2.49l1.83.77c.52-2,5-.42,6,.25a3.23,3.23,0,0,1,1.61,2.48,2.19,2.19,0,0,1-1.34,2.33,1,1,0,0,0,.53,1.92,3,3,0,1,1,.87,6c-1,.11-1.47,1.73-.27,2A2,2,0,0,1,30,96.64a3.64,3.64,0,0,1-2.46,2.6,6.85,6.85,0,0,1-7-1.5c-.94-.87-2.36.54-1.42,1.42Z"/><path d="M18.17,89.25a9.51,9.51,0,0,1,.16-2.32,2.83,2.83,0,0,1,.83-1.48,1.26,1.26,0,0,1,.72-.33c-.05,0,.29,0,.16,0a1.09,1.09,0,0,1,.24.07c.16,0-.09-.06,0,0a.86.86,0,0,1,.43.41c.08.17-.11-.19,0,.08,0,.06,0,.14,0,0a1.21,1.21,0,0,1,0,.19c0-.18,0,.1-.05.12l1.82-.23c-.08-.13,0,0,0,0s0,.21,0,.1-.09.08,0-.06.07-.1,0,0c0-.06.08-.11,0,0,.1,0,.11-.06.05,0s0,0,0,0-.11,0,.05,0a.38.38,0,0,1,.14,0,2,2,0,0,1,.63.51,3.51,3.51,0,0,1,.48.77A4.07,4.07,0,0,1,24,90.59,1,1,0,0,0,24.39,92a1,1,0,0,0,1.37-.36,6.15,6.15,0,0,0-.54-6.27c-.72-1-1.94-1.86-3.2-1.41a2,2,0,0,0-1.15,2.87,1,1,0,0,0,1.82-.24,2.56,2.56,0,0,0-1-2.81,2.9,2.9,0,0,0-3.11-.3c-2.22,1-2.47,3.67-2.46,5.81a1,1,0,0,0,2,0Z"/><path d="M36,127.32a1.62,1.62,0,0,0-.14,1.16,1.8,1.8,0,0,0,.63.88,2.06,2.06,0,0,0,1.87.35,2.36,2.36,0,0,0,1.43-1.65,7.88,7.88,0,0,0,.17-1.81c0-.16,0-.31,0-.46s0,.12,0,.11,0-.08,0-.12,0-.14,0-.21l.07-.22,0,.1a.31.31,0,0,0,.05-.1l0-.07c.09-.15,0,0,0,0s.11-.12.17-.17a1,1,0,0,0,0-1.41,1,1,0,0,0-1.42,0,3.07,3.07,0,0,0-.89,2.08c0,.28,0,.57,0,.85s0,.29,0,.43a.58.58,0,0,0,0,.19c0-.17,0-.2,0-.09s0,.08,0,.12a2.25,2.25,0,0,0-.12.4c.07-.15.08-.17,0-.08a.2.2,0,0,1,0,.08.43.43,0,0,1,0,.07c-.06.09,0,.07.05-.06a.87.87,0,0,0-.16.17l.12-.1-.08,0c.17-.07.21-.08.11,0l-.09,0c.19-.08.22,0,.09,0s.19.06,0,0l-.13,0c-.16,0,.24.13,0,0s.06,0,.06.06l-.07-.06c-.06-.07,0,0,.08.11,0,0,0-.09-.06-.1q.11.27.06.12c0,.21,0,.26,0,.15s0-.05,0,.15c0-.09,0-.06,0,.12a1,1,0,0,0-.36-1.37,1,1,0,0,0-1.37.36Z"/><path d="M72.35,107.07c-1.12,1.84-3.24,3.27-5.44,2.45a2.63,2.63,0,0,1-1-4.5L64.5,103.6c-1.58,1.46-3.7-.07-4.18-1.77-.61-2.18.54-4.32,1.74-6.07a1,1,0,0,0-.6-1.47,3.41,3.41,0,0,0-1.65-.11c-.19,0-.57.17-.76.08s-.24,0,0-.41a7.34,7.34,0,0,1,2.72-2.32c1.15-.59.14-2.32-1-1.73-1.53.78-3.78,2.47-4,4.34A1.83,1.83,0,0,0,57.93,96c1,.47,2-.13,3,.21l-.6-1.47c-1.77,2.58-3.06,6-1.4,8.93a4.57,4.57,0,0,0,7,1.34c1-.89-.44-2.23-1.42-1.42-2.52,2.1-1.66,6.15,1.13,7.54,3.23,1.61,6.69-.19,8.45-3.06.68-1.1-1-2.1-1.73-1Z"/><path d="M75.17,107.79a7,7,0,0,0,9.34-4.18l-1.83.24c1.38,2,4.17,1.85,5.91.39,2.19-1.84,1.85-5.14,1.28-7.63-.25-1.07-2.07-.87-2,.27L88,98c.11,1.27,2.11,1.28,2,0l-.1-1.07-2,.27c.38,1.64.81,3.93-.41,5.35-.67.77-2.41,1.38-3.12.34a1,1,0,0,0-1.83.24,4.93,4.93,0,0,1-6.4,3,1,1,0,0,0-1.37.36,1,1,0,0,0,.36,1.36Z"/><path d="M160.7,43.2c.09.12,0,0,0,0a.61.61,0,0,1-.07-.1,1.06,1.06,0,0,1-.12-.2,1.19,1.19,0,0,1-.12-.22,1.34,1.34,0,0,0-.06-.12c0,.07,0,.08,0,0l0-.05a3.5,3.5,0,0,1-.14-.46,2,2,0,0,1,0-.24c0-.06,0,0,0,0v-.07s0-.08,0-.13a.51.51,0,0,0-.5-.5.51.51,0,0,0-.5.5l.06,1.07.75-.43,0,0c.06,0,.1.09,0,0s.08.11,0,.05,0-.08,0,0,0,0,0,0,0,.07,0,.06v0c0-.06,0-.07,0,.06,0,0,0-.15,0,0s0,0,0,0,0,0,0,.05l0,0s-.13.08-.05,0-.12,0-.06,0h-.06c.08,0-.07,0-.07,0h.05c-.1,0-.11-.06-.06,0l-.05,0c.06.06-.06-.09,0,0l0,0c.05.09,0,0,0,0s0,0,0,.06,0,.08,0-.06v0s0,.1,0,0,0,0,0,0,.06-.13,0-.06-.06.07,0,0c-.05.05,0,0,.05,0l-.05,0a.51.51,0,0,0-.18.69.51.51,0,0,0,.68.18.91.91,0,0,0,.12-1.46.77.77,0,0,0-.94-.09.91.91,0,0,0-.42.76.8.8,0,0,0,.44.79.5.5,0,0,0,.5,0,.47.47,0,0,0,.25-.43l-.06-1.07h-1a3.82,3.82,0,0,0,.25,1.16,4.3,4.3,0,0,0,.63,1.1.51.51,0,0,0,.86-.35.58.58,0,0,0-.15-.36Z"/><path d="M193.74,102.44c3.42-.89,6.71,1.2,8.59,4s2.76,6.18,3.76,9.38l6.77,21.74.91-.39-.88-1.95c-.26-.58-1.12-.08-.86.51l.88,1.95c.23.52,1.08.15.92-.39-2.54-8.14-5-16.29-7.62-24.42-1-3.17-2.17-6.52-4.62-8.87a8.67,8.67,0,0,0-8.12-2.48.5.5,0,0,0,.27,1Z"/><path d="M191.52,81.77a28.73,28.73,0,0,0,.23-12.21c-.84-4.21-2.64-8.15-4.35-12.06-3.67-8.42-7.18-17-11-25.29-.68-1.46-1.69-2.74-3.43-2.71-1.9,0-3.5,1.39-5.42,1.27-.65,0-.64,1,0,1a11.19,11.19,0,0,0,4.07-1,2.9,2.9,0,0,1,2.6.07,5.19,5.19,0,0,1,1.56,2.41l4.95,11.35,5,11.57a90,90,0,0,1,4.5,11.36,27.86,27.86,0,0,1,.31,14c-.14.63.82.89,1,.26Z"/><path d="M197.3,63.85l-6.06-18.62c-.2-.61-1.17-.35-1,.26l6.06,18.63c.2.61,1.17.34,1-.27Z"/><path d="M166.85,28.52l4.31-.93c1.08-.24,2.62-.3,3.07-1.51s-.08-2.38-.37-3.41a27.82,27.82,0,0,0-1.46-3.94c-.27-.58-1.13-.07-.87.51a25.33,25.33,0,0,1,1.27,3.37c.18.6.34,1.2.47,1.81a2.42,2.42,0,0,1,0,1.28c-.18.5-.75.56-1.21.66l-1.81.39-3.71.8c-.63.14-.36,1.1.27,1Z"/><path d="M176.39,16.84l1.25,5.5c.14.63,1.11.36,1-.26l-1.26-5.51c-.14-.63-1.11-.36-1,.27Z"/><path d="M152.11,159.06a10.84,10.84,0,0,1-2.85-3.07c-.95-1.64-.8-3,.72-4.18A6.35,6.35,0,0,0,152.5,147a16.49,16.49,0,0,0-1.37-6.88c-1.15-3-2.46-5.86-3.67-8.8Q139.85,112.92,133,94.21q-3.9-10.6-7.55-21.3l-.23.56a5,5,0,0,0,0-8.25.52.52,0,0,0-.74.3l-1,2.68c-.22.61.74.87,1,.26l1-2.67-.74.3a4,4,0,0,1,0,6.52.52.52,0,0,0-.23.56q6.69,19.55,14.16,38.81,3.7,9.52,7.59,19c1.26,3.05,2.59,6.08,3.82,9.15a15.43,15.43,0,0,1,1.43,7.26,5.46,5.46,0,0,1-2.3,3.82,3.58,3.58,0,0,0-1.56,2.59c-.14,2.53,2.16,4.77,4,6.17.51.39,1-.48.5-.87Z"/><path d="M137,136.22c-.45-3.8-2.35-7.4-3.66-11q-2.13-5.73-4-11.56T126,102.2c-.54-2-1-4-1.53-6a4.33,4.33,0,0,0-2-3.11c-.57-.3-1.08.57-.51.86,1.55.79,1.69,3.34,2.06,4.84.45,1.79.92,3.56,1.4,5.34q1.49,5.43,3.21,10.79t3.6,10.42c1.3,3.52,3.27,7.16,3.71,10.92.07.63,1.07.64,1,0Z"/><path d="M162.88,136.91a1.2,1.2,0,0,1,1.59-.17,4.3,4.3,0,0,1,1.39,2l.86-.51a15.5,15.5,0,0,1-1.31-3l-.92.39,1.79,2.88a.5.5,0,0,0,.93-.25,3.48,3.48,0,0,1,2.06-3.35.5.5,0,0,0,.18-.68.51.51,0,0,0-.69-.18,4.45,4.45,0,0,0-2.55,4.21l.94-.26-1.79-2.88c-.29-.46-1.1-.17-.92.39a17.13,17.13,0,0,0,1.42,3.22c.32.57,1.13.07.86-.51a4.51,4.51,0,0,0-2.09-2.52,2.11,2.11,0,0,0-2.61.7c-.34.55.52,1.05.86.5Z"/><path d="M176,121l3.08,3.1.6-.79a3,3,0,0,1-1-3.55h-1l.8,3.1a.51.51,0,0,0,.92.12,5.5,5.5,0,0,1,2.51-2.11.5.5,0,0,0,.18-.69.52.52,0,0,0-.68-.18,6.43,6.43,0,0,0-2.88,2.48l.92.12-.8-3.11a.52.52,0,0,0-.49-.36.54.54,0,0,0-.48.36,4,4,0,0,0,1.46,4.68c.47.33,1-.39.6-.78l-3.07-3.1a.5.5,0,0,0-.71.71Z"/><path d="M195.24,129.58a18.28,18.28,0,0,1,4,4.15l.79-.61a2.83,2.83,0,0,1-.6-3l-.68.18a2.07,2.07,0,0,1,.95,1.91c0,.47.74.71.93.25a19.51,19.51,0,0,0,1.31-4.29.52.52,0,0,0-.35-.62.51.51,0,0,0-.62.35,18.49,18.49,0,0,1-1.2,4l.93.26a3.11,3.11,0,0,0-1.44-2.78.51.51,0,0,0-.69.18,3.86,3.86,0,0,0,.75,4.26c.39.39,1.12-.13.79-.61a19.81,19.81,0,0,0-4.36-4.5.5.5,0,0,0-.68.18.5.5,0,0,0,.18.68Z"/><path d="M146,92.17l4.71,10.06c.27.58,1.13.07.86-.51l-4.71-10.06c-.27-.58-1.13-.07-.86.51Z"/><path d="M148.92,90.09l3.75,6.46c.58,1,1.11,2.12,1.79,3.07.4.55,1.48.93,1.72,0a.5.5,0,0,0-1-.26c.27-.09.33-.17.18-.23a.74.74,0,0,1-.13-.12,4.84,4.84,0,0,1-.38-.67l-.68-1.15-1.49-2.57-2.93-5a.5.5,0,0,0-.86.5Z"/><path d="M153.41,89.57a73.33,73.33,0,0,1,5.74,8.26.5.5,0,0,0,.87-.51,74.81,74.81,0,0,0-5.91-8.45c-.4-.51-1.1.21-.7.7Z"/><path d="M156.16,88,161,93.71l2.34,2.78c.51.6,1.48,1.45,2.2.64.44-.47-.27-1.18-.7-.7-.2.21-1.61-1.63-1.78-1.83l-2-2.44-4.09-4.87c-.42-.49-1.12.22-.71.71Z"/><path d="M158.48,86.85a106.75,106.75,0,0,0,14,10.25c.55.34,1.05-.52.5-.86a107.65,107.65,0,0,1-13.75-10.09c-.49-.42-1.2.28-.71.7Z"/><path d="M192.8,108.55a6.84,6.84,0,0,1,2.15,3.23l1-.27a6.35,6.35,0,0,1-.24-3.06l-.73.3a1.22,1.22,0,0,1,.43,1.43.5.5,0,0,0,.86.51l2.17-3a.49.49,0,0,0-.18-.68.5.5,0,0,0-.68.18l-2.17,2.94.86.51a2.24,2.24,0,0,0-.79-2.8.5.5,0,0,0-.73.3,7.41,7.41,0,0,0,.23,3.59c.2.6,1.16.35,1-.27a7.88,7.88,0,0,0-2.41-3.67.52.52,0,0,0-.71,0,.51.51,0,0,0,0,.71Z"/><path d="M132.13,80.68a2.67,2.67,0,0,1,3.19,1.5l.91-.39a4.25,4.25,0,0,1-.67-2.6l-.86.36,1.43,1.73c.31.37.81,0,.85-.36a6.38,6.38,0,0,1,1.45-3.34c.41-.49-.29-1.2-.71-.7a7.58,7.58,0,0,0-1.74,4l.86-.35-1.43-1.73c-.3-.36-.83,0-.85.35a5.25,5.25,0,0,0,.81,3.11c.29.45,1.13.16.91-.39a3.68,3.68,0,0,0-4.41-2.2.5.5,0,0,0,.26,1Z"/><path d="M151,86.41a4,4,0,0,1-1.66-7.11c.42-.34,0-.93-.49-.84a2.31,2.31,0,0,1-2.74-1.75,2.34,2.34,0,0,1,2.08-2.6c.5-.08.46-.86,0-1a3,3,0,0,1,.4-6,.51.51,0,0,0,.43-.76c-1-2,1.76-3,3.24-2.92,1.05,0,5,.27,4.1,2.27-.24.58.62,1.09.87.5,1.27-3-2.94-3.71-5-3.77a4.46,4.46,0,0,0-3.67,1.3,2.79,2.79,0,0,0-.43,3.13l.43-.75a4,4,0,0,0-.66,8v-1a3.31,3.31,0,0,0-2.77,3.93,3.35,3.35,0,0,0,4,2.36l-.49-.84a5,5,0,0,0,2.11,8.79c.62.14.89-.83.26-1Z"/><path d="M144.11,69.44a3.7,3.7,0,0,1-6.36-3.2.5.5,0,0,0-.83-.49,4.39,4.39,0,0,1-7.1-2.92c-.07-.63-1.07-.64-1,0a5.33,5.33,0,0,0,8.8,3.63l-.83-.49a4.69,4.69,0,0,0,8,4.18c.45-.46-.26-1.17-.71-.71Z"/><path d="M200.11,54.78a10,10,0,0,1,3.31,3c.36.52,1.2,0,.87-.51a4.27,4.27,0,0,1-.46-3.38h-1l.85,3a.5.5,0,0,0,.91.12l1.48-2.3c.35-.55-.51-1-.86-.51l-1.48,2.31.91.12-.85-3a.5.5,0,0,0-1,0,5.25,5.25,0,0,0,.55,4.15l.87-.51a11.27,11.27,0,0,0-3.68-3.39.5.5,0,0,0-.5.87Z"/><path d="M64.92,187.63a23.18,23.18,0,0,1,1.53-5.74.49.49,0,0,0-.13-.49A21.3,21.3,0,0,0,58,175.23c-.6-.25-.86.72-.27,1a20.44,20.44,0,0,1,7.94,5.92l-.13-.49A23.44,23.44,0,0,0,64,187.36c-.08.63.88.9,1,.27Z"/><path d="M63.91,171.34a18.14,18.14,0,0,1,4.44,4.43.51.51,0,0,0,.91-.12l.88-4.19c.13-.63-.84-.9-1-.27l-.87,4.19.91-.12a19.68,19.68,0,0,0-4.8-4.79.5.5,0,0,0-.68.18.52.52,0,0,0,.18.69Z"/><path d="M72.19,170.3a13.14,13.14,0,0,1,1.23,5.3.5.5,0,0,0,1,.13c.9-2.22,3.22-3.42,5.11-4.68a14.1,14.1,0,0,0,2.68-2.19,7.74,7.74,0,0,0,1-1.4,4.83,4.83,0,0,1,.45-.8c.09-.12.22-.31.39-.3a.17.17,0,0,1,.15.08c.07.1.09.12,0,.05-.5.4.21,1.1.71.7a1,1,0,0,0-.23-1.62,1.32,1.32,0,0,0-1.8.42c-.48.6-.73,1.35-1.22,1.95A9.15,9.15,0,0,1,80,169.49c-2.38,1.78-5.37,3-6.55,6l1,.14a14.37,14.37,0,0,0-1.36-5.8c-.28-.58-1.14-.08-.87.5Z"/><path d="M81.89,169.36a27.41,27.41,0,0,1,14.73,2.83c.57.29,1.08-.57.5-.86a28.29,28.29,0,0,0-15.23-3c-.64,0-.65,1,0,1Z"/><path d="M81.17,185.22a2.78,2.78,0,0,1-1.9-2.4l-.37.48A54.81,54.81,0,0,0,89,180.61q2.3-.86,4.52-1.92c.52-.25,5.22-2.78,5.14-2.88l.13.49,0-.13c.11-.63-.86-.9-1-.27-.25,1.45,2.13,1,1.33-.29-.44-.67-1.23-.43-1.8-.12-1.2.65-2.36,1.34-3.57,1.95a54.28,54.28,0,0,1-15.15,4.9.5.5,0,0,0-.36.48,3.86,3.86,0,0,0,2.63,3.37c.61.21.87-.76.27-1Z"/><path d="M58.93,155.32c-1.62.26-3.52.35-4.79-.88-1.07-1-1.12-3.4.79-3.5l-.14-1c-2,.52-3.4-1.93-2.81-3.62a4.09,4.09,0,0,1,1.78-2.09,5.86,5.86,0,0,1,1.37-.63c.21-.07.41-.12.62-.17s1.57-.45,1-.67l.22.84a3.3,3.3,0,0,1,4.36-.21c1.53,1.08,2.25,3,2.84,4.68.17.51,1,.47,1-.13,0-.82.83-1.19,1.54-1.1.91.11,1.45,1,1.74,1.83.44,1.23,1.14,3.7-.24,4.57-.54.34,0,1.21.5.87,2.14-1.35,1.29-5.19.1-6.93a2.75,2.75,0,0,0-2.76-1.32A2.08,2.08,0,0,0,64.19,148l1-.13c-.71-2.07-1.65-4.42-3.69-5.53a4.22,4.22,0,0,0-5.18.61.51.51,0,0,0,.22.84.69.69,0,0,0,.9-.77c-.1-.71-.91-.68-1.44-.59a6.64,6.64,0,0,0-4.32,2.44,3.91,3.91,0,0,0-.3,4.32,3.32,3.32,0,0,0,3.7,1.77.5.5,0,0,0-.13-1,2.87,2.87,0,0,0-2.19,4.32c1.27,2.32,4.16,2.39,6.45,2,.64-.1.37-1.07-.26-1Z"/><path d="M59.89,152.94a19.74,19.74,0,0,0-2.3-.55,3.68,3.68,0,0,1-1.7-.78,1.28,1.28,0,0,1-.48-1.31,1.12,1.12,0,0,1,.32-.53.61.61,0,0,1,.52-.16.51.51,0,0,0,.5-.5.5.5,0,0,0-.5-.5c-1.25-.12-2,1.28-1.85,2.38.22,1.3,1.6,2,2.75,2.32a23,23,0,0,1,2.48.6.5.5,0,0,0,.61-.35.51.51,0,0,0-.35-.62Z"/><path d="M46.76,132.76c.06,0-.08,0-.09,0l-.17,0-.33-.1a2.79,2.79,0,0,1-.55-.27,3.36,3.36,0,0,1-1-.85,3.28,3.28,0,0,1-.68-2.35.51.51,0,0,0-.5-.5.52.52,0,0,0-.5.5,4.37,4.37,0,0,0,3.78,4.62.5.5,0,0,0,0-1Z"/><path d="M23.86,96.63a1.42,1.42,0,0,0,.41.4,1.33,1.33,0,0,0,.43.17,1.58,1.58,0,0,0,1-.13,1.39,1.39,0,0,0,.63-1.69,1.4,1.4,0,0,0-.71-.82.53.53,0,0,0-.39,0,.48.48,0,0,0-.29.23.46.46,0,0,0-.06.38.5.5,0,0,0,.23.3.72.72,0,0,1,.19.11l-.1-.08a.67.67,0,0,1,.14.15l-.07-.1a1.26,1.26,0,0,1,.13.23l-.05-.12a1.17,1.17,0,0,1,.07.25l0-.13a1.22,1.22,0,0,1,0,.27l0-.14a.94.94,0,0,1-.06.24l.05-.12a1,1,0,0,1-.1.17l.08-.1a.93.93,0,0,1-.14.14l.1-.08a.82.82,0,0,1-.2.12l.12,0a1,1,0,0,1-.25.06h0a.94.94,0,0,1-.24-.06l.11,0a1.06,1.06,0,0,1-.2-.12l.1.08a.93.93,0,0,1-.14-.14l.08.1,0,0a.55.55,0,0,0-.3-.22A.49.49,0,0,0,24,96a.46.46,0,0,0-.22.29.48.48,0,0,0,.05.39Z"/><path d="M29.26,96.29A62.26,62.26,0,0,1,49.7,121.07a.49.49,0,0,0,.78.1L58,113.3c1.14-1.2,2.37-3,3.89-3.68.59-.26,2.2-.33,1.69.8s-1.78-.44-.77-1a.5.5,0,0,0-.51-.86c-1.36.77-1,3.24.7,3.35s2.1-2.24,1-3.17c-2.1-1.8-5.06,2.12-6.22,3.33l-8,8.41.78.1A63.12,63.12,0,0,0,29.77,95.43c-.53-.38-1,.49-.51.86Z"/><path d="M43.33,109.11A98.52,98.52,0,0,0,59,99.13l-.85-.36a2.41,2.41,0,0,1-.65,1.57c-.43.47.27,1.18.71.7a3.49,3.49,0,0,0,.94-2.27c0-.48-.54-.59-.86-.35a95.84,95.84,0,0,1-15.42,9.82c-.57.3-.07,1.16.51.87Z"/><path d="M44.89,108.14a23.94,23.94,0,0,1,4.7,8c.26.74.44,1.49.65,2.24.14.49.43,1.07,1,1,1.31,0,.35-2.15-.43-1.24-.42.48.29,1.19.71.7l-.13.07L51,119c-.33-.19.23-.35.26-.51a3,3,0,0,0-.11-.37c-.07-.25-.13-.49-.19-.73-.15-.54-.32-1.07-.51-1.6a24.75,24.75,0,0,0-1.25-3,25.39,25.39,0,0,0-3.64-5.35c-.43-.48-1.14.23-.71.71Z"/><path d="M47.61,105.4c1.4,1.46,1.73,3.59,2.56,5.36a27.92,27.92,0,0,1,1.56,3.15A3.65,3.65,0,0,0,52.79,116c.34.24.73-.09.75-.43a1.17,1.17,0,0,0-.59-1.11c-.52-.37-1,.5-.5.87a.16.16,0,0,1,.09.24l.76-.43a1.81,1.81,0,0,1-.46-1,7.9,7.9,0,0,0-.43-1.18c-.48-1.07-1.12-2.06-1.57-3.15-.73-1.76-1.16-3.7-2.52-5.11-.45-.47-1.15.24-.71.7Z"/><path d="M50.73,105.68q2.28,4.5,5,8.78c.34.54,1.2,0,.86-.5q-2.67-4.29-5-8.78c-.29-.58-1.16-.07-.86.5Z"/><path d="M53.8,104.55l4.71,6.72c.37.52,1.23,0,.86-.5L54.66,104c-.37-.52-1.23,0-.86.51Z"/><path d="M56.68,102.65a22.14,22.14,0,0,1,3.07,5.28.51.51,0,0,0,.61.35.5.5,0,0,0,.35-.61,23.63,23.63,0,0,0-3.33-5.73.5.5,0,0,0-.7,0,.51.51,0,0,0,0,.71Z"/><path d="M29.87,92.76A143,143,0,0,0,47.19,106c.55.35,1.05-.51.51-.86A58.81,58.81,0,0,1,32.19,90.43l-.68.68L50,103c.55.35,1-.49.5-.87-5.91-4.44-11.82-9-16.7-14.55l-.61.78,20.91,13.38c.51.32.94-.37.6-.79-3.1-3.85-7.51-6.15-11.49-8.94A37.06,37.06,0,0,1,32.29,80.11l-.79.61A62.76,62.76,0,0,0,56.3,97.16c.53.19.9-.67.39-.91A125.55,125.55,0,0,1,37.2,84.9c-3.12-2.21-6.14-4.58-9-7.08-1.42-1.23-2.74-2.66-4.23-3.82-.57-.44-1.56-.56-1.49.45a.51.51,0,0,0,.24.43l.14.06c.58.27,1.09-.59.51-.86l.07.39-.49.13c.75.12,1.7,1.4,2.25,1.9s1.19,1.07,1.8,1.6q1.91,1.65,3.87,3.23,3.81,3.06,7.85,5.82a124.87,124.87,0,0,0,17.5,10l.39-.91A61.72,61.72,0,0,1,32.21,80a.5.5,0,0,0-.78.6A37.88,37.88,0,0,0,41.71,92.19c4.15,3.08,8.95,5.38,12.26,9.48l.6-.79L33.67,87.51c-.5-.32-1,.37-.61.78C38,94,44,98.51,50,103l.5-.87L32,90.25c-.4-.26-1,.27-.68.68a59.83,59.83,0,0,0,15.86,15l.51-.86a141.5,141.5,0,0,1-17.12-13c-.48-.43-1.19.28-.71.7Z"/></g></g></svg>