<svg xmlns="http://www.w3.org/2000/svg" viewBox="0 0 293.16 217.49"><g id="Layer_2" data-name="Layer 2"><g id="Layer_7_153" data-name="Layer 7,153"><path d="M7.54,92.79C24,89.08,39.67,81.35,55.47,75.33s32-11.92,48.16-17.34C136,47.17,168.71,37.4,201.75,28.9q28.45-7.33,57.18-13.55c9.87-2.14,5.69-17.28-4.18-15.14A1408.14,1408.14,0,0,0,56.8,58.85c-18,6.78-37.6,12.79-53.73,23.33A5.83,5.83,0,0,0,7.54,92.79Z"/><path d="M42.94,217.44c7.81-.14,15.77-3.7,22.92-6.59,8-3.21,15.89-6.48,23.83-9.73,15.6-6.39,31.26-12.67,47.08-18.47,31.6-11.6,63.62-22.4,95.66-32.73q27.25-8.79,54.76-16.77c10.48-3.05,6-19.46-4.52-16.39-32.67,9.54-65.15,19.83-97.26,31.14-31.81,11.2-63.15,23.95-94.36,36.75-8.83,3.62-17.66,7.24-26.37,11.14-8.34,3.72-18.45,7.41-24.85,14.15-2.56,2.69-.8,7.57,3.11,7.5Z"/><path d="M1.08,89c1.81,9.66,5.93,19,9.2,28.26q4.67,13.22,8.65,26.63A552.5,552.5,0,0,1,32.32,200.2c1.77,9.46,16.33,5.48,14.47-4a480.73,480.73,0,0,0-15-56.88c-3-9.18-6.29-18.29-9.9-27.25S14.62,93.5,8.79,85.71C5.94,81.91.15,84.08,1.08,89Z"/><path d="M289.77,122c2-8.41-1.46-18-3.09-26.26s-3.77-16.66-5.73-25L268.74,19c-2.22-9.39-16.68-5.42-14.46,4l12.21,51.75c2,8.3,3.75,16.66,6,24.87s3.5,17.86,9,24.53c2.36,2.85,7.43,1.23,8.22-2.17Z"/><path d="M7.21,92.83c16.48-3.7,32.14-11.43,47.94-17.45S87.14,63.5,103.3,58q48.49-16.39,98.09-29.2,28.46-7.32,57.18-13.55c9.73-2.1,5.61-17-4.11-14.91a1408.1,1408.1,0,0,0-198,58.53c-18,6.78-37.6,12.79-53.74,23.33a5.83,5.83,0,0,0,4.47,10.6Z"/><path d="M42.61,217.49c7.82-.14,15.78-3.7,22.93-6.59,7.95-3.22,15.89-6.49,23.83-9.74,15.6-6.38,31.27-12.61,47.07-18.5,31.54-11.75,63.6-22.48,95.64-32.81q27.25-8.79,54.76-16.77c10.33-3,5.93-19.19-4.46-16.16-65.21,19-128.82,42-191.65,67.77-8.83,3.62-17.66,7.25-26.38,11.14C56,199.56,45.91,203.24,39.51,210c-2.56,2.69-.8,7.57,3.1,7.5Z"/><path d="M.75,89c1.82,9.66,5.94,19,9.21,28.26q4.66,13.2,8.65,26.63A552.5,552.5,0,0,1,32,200.25c1.76,9.45,16.33,5.48,14.46-4a479.27,479.27,0,0,0-15-56.88c-3-9.17-6.29-18.29-9.9-27.25S14.3,93.54,8.46,85.76C5.62,82-.17,84.13.75,89Z"/><path d="M289.45,122.06c2-8.41-1.47-18-3.09-26.27s-3.77-16.65-5.73-25L268.42,19.09c-2.22-9.4-16.68-5.42-14.47,4l12.22,51.75c1.95,8.3,3.75,16.66,6,24.88s3.51,17.86,9,24.53c2.36,2.85,7.42,1.23,8.22-2.17Z"/><path d="M218.94,49.79q1.49,4.22,2.66,8.54a.5.5,0,0,0,1-.26q-1.16-4.32-2.66-8.54c-.21-.61-1.18-.35-1,.26Z"/><path d="M199.94,49.74q6.31-3,12.81-5.65a1.54,1.54,0,0,0,1-1.85,1.5,1.5,0,0,0-1.84-1Q205.1,44,198.43,47.15a1.51,1.51,0,0,0-.54,2.05,1.54,1.54,0,0,0,2.05.54Z"/><path d="M197.43,49a12.64,12.64,0,0,0,2.42,3.81l.29.36.15.18.08.11-.09-.12a1.69,1.69,0,0,0,.28.38c.09.13.19.27.28.42s.29.55.44.83c-.06-.11-.11-.29,0-.06,0,.07.05.14.07.21s.09.35.13.53a1.52,1.52,0,0,0,1.84,1.05,1.54,1.54,0,0,0,1.05-1.85A8.92,8.92,0,0,0,202.2,51c-.2-.26-.41-.51-.62-.77l-.3-.37c-.2-.26.21.28,0,0l-.14-.19a8.67,8.67,0,0,1-.53-.81l-.21-.41-.06-.12c0-.11,0-.06.06.14,0-.07-.07-.19-.09-.26a1.54,1.54,0,0,0-1.85-1,1.51,1.51,0,0,0-1,1.84Z"/><path d="M204.39,57.15c.44-.22.88-.42,1.33-.61l-.36.15a25.78,25.78,0,0,1,3.54-1.18,1.5,1.5,0,1,0-.79-2.89,26.29,26.29,0,0,0-5.23,1.94,1.5,1.5,0,0,0-.54,2,1.54,1.54,0,0,0,2,.54Z"/><path d="M211,43.78l4.42,5.4a1.5,1.5,0,0,0,1.06.44,1.54,1.54,0,0,0,1.06-.44,1.52,1.52,0,0,0,.44-1.06,1.74,1.74,0,0,0-.44-1.06l-4.42-5.4a1.5,1.5,0,0,0-2.12,0,1.52,1.52,0,0,0-.44,1.06,1.74,1.74,0,0,0,.44,1.06Z"/><path d="M167.59,72.17,182.86,121l4.4,14.06c.57,1.83,3.47,1.05,2.89-.8L174.88,85.43l-4.4-14.05c-.57-1.84-3.47-1.06-2.89.79Z"/><path d="M147.48,85.53q8.42,26.28,17.53,52.32c.64,1.81,3.53,1,2.89-.8q-9.12-26-17.53-52.32c-.58-1.83-3.48-1-2.89.8Z"/><path d="M154,102.72a.5.5,0,0,0,0-1,.5.5,0,0,0,0,1Z"/><path d="M159.84,76q4.89,12.5,9.33,25.16t8.38,25.36q2.25,7.26,4.35,14.55a.5.5,0,0,0,1-.27q-3.72-12.89-7.9-25.65T166.2,89.88q-2.62-7.12-5.39-14.19c-.24-.59-1.2-.33-1,.27Z"/><path d="M183.82,144.52l5.56-8.11c.37-.53-.5-1-.86-.5L183,144c-.37.53.5,1,.86.5Z"/><path d="M167.78,139.6a84.56,84.56,0,0,1,11.95,4.57c.58.27,1.09-.59.51-.86a86,86,0,0,0-12.19-4.67.5.5,0,0,0-.27,1Z"/><path d="M162.55,138.45,151.08,97.38l-3.22-11.53a.5.5,0,0,0-1,.27l11.47,41.07,3.22,11.53a.5.5,0,0,0,1-.27Z"/><path d="M213.9,47.38a9,9,0,0,0-2.91.54,4.44,4.44,0,0,0-2.06,1.33,2.44,2.44,0,0,0,.81,3.83,6.69,6.69,0,0,0,2.09.3,7.18,7.18,0,0,0,2.73-.21A3.56,3.56,0,0,0,217,49.75c-.09-1.44-1.71-3.08-3.08-1.88-.49.42.22,1.13.71.7.27-.24.62-.07.86.14A1.64,1.64,0,0,1,216,50a2.61,2.61,0,0,1-2,2.26,7,7,0,0,1-2,.1,9.37,9.37,0,0,1-1.58-.14,1.31,1.31,0,0,1-1-.77,1.74,1.74,0,0,1,.29-1.57,3.43,3.43,0,0,1,1.77-1.1,8.13,8.13,0,0,1,2.44-.43c.64,0,.64-1,0-1Z"/><path d="M200,49.32q6.32-3,12.81-5.64a1.56,1.56,0,0,0,1.05-1.85,1.52,1.52,0,0,0-1.85-1q-6.85,2.76-13.52,5.95A1.5,1.5,0,0,0,200,49.32Z"/><path d="M197.46,48.6a12.67,12.67,0,0,0,2.42,3.8l.29.37.15.18.09.11-.09-.12a1.35,1.35,0,0,0,.27.37l.28.42c.17.27.29.56.44.84-.06-.11-.11-.29,0-.07a1.42,1.42,0,0,1,.07.22,3.16,3.16,0,0,1,.13.53,1.51,1.51,0,0,0,1.85,1,1.53,1.53,0,0,0,1-1.84,9,9,0,0,0-2.13-3.88l-.63-.76-.29-.37c-.21-.26.2.28,0,0,0-.07-.09-.13-.13-.19a7.67,7.67,0,0,1-.53-.82c-.08-.13-.15-.26-.22-.4a.5.5,0,0,1-.05-.13q-.07-.15.06.15a1.39,1.39,0,0,0-.1-.26,1.5,1.5,0,1,0-2.89.8Z"/><path d="M204.43,56.73q.65-.31,1.32-.6l-.36.15a24.62,24.62,0,0,1,3.55-1.18,1.5,1.5,0,0,0-.8-2.89,26.26,26.26,0,0,0-5.23,1.93,1.5,1.5,0,1,0,1.52,2.59Z"/><path d="M211,43.37l4.42,5.39a1.52,1.52,0,0,0,1.06.44,1.5,1.5,0,0,0,1.5-1.5,1.7,1.7,0,0,0-.44-1.06l-4.42-5.39a1.48,1.48,0,0,0-1.06-.44,1.5,1.5,0,0,0-1.5,1.5,1.76,1.76,0,0,0,.44,1.06Z"/><path d="M165.85,69.34Q182.43,61.13,199.51,54a1.57,1.57,0,0,0,1.05-1.85,1.52,1.52,0,0,0-1.85-1q-17.43,7.32-34.38,15.69c-1.73.85-.21,3.44,1.52,2.59Z"/><path d="M217,47.24q9.87-4,19.49-8.68c1.73-.85.22-3.43-1.52-2.59q-9.24,4.48-18.77,8.37a1.56,1.56,0,0,0-1.05,1.85A1.52,1.52,0,0,0,217,47.24Z"/><path d="M190.78,137q25.36-10.27,50.47-21.17,7.09-3.09,14.18-6.22c1.76-.78.24-3.36-1.51-2.59q-24.78,11-49.83,21.31-7,2.91-14.11,5.77c-1.76.72-1,3.62.8,2.9Z"/><path d="M178.94,102.3c1.76-7.22,3.83-14.76,8.91-20.43a21.62,21.62,0,0,1,4.41-3.8c.54-.35,0-1.21-.5-.86-6.32,4.06-9.81,11-11.95,18-.69,2.25-1.27,4.54-1.83,6.84-.15.62.81.89,1,.26Z"/><path d="M193.87,76.87c7.13-3.37,15.33-2.08,22.75-.5a49.79,49.79,0,0,1,5.36,1.3,11.09,11.09,0,0,1,2.5,1.15,13,13,0,0,1,2,1.75,16.61,16.61,0,0,1,4.71,8c1.46,5.84-.25,12.17-3.75,17-4.16,5.73-10.79,9.29-17.55,11a27.76,27.76,0,0,1-12.49.57,43.09,43.09,0,0,1-11.18-4.42c-.86-.45-1.71-.92-2.57-1.38-.57-.31-1.07.56-.51.86a64,64,0,0,0,11.32,5.2,26.86,26.86,0,0,0,12.75.76c7.37-1.27,14.74-4.64,19.72-10.35a22.54,22.54,0,0,0,5.61-17.46,17.62,17.62,0,0,0-5.42-10.56A14.69,14.69,0,0,0,225.07,78a15.94,15.94,0,0,0-5.17-1.94c-7.65-1.79-16.12-3.62-23.83-1.14a22.35,22.35,0,0,0-2.7,1.08c-.58.27-.08,1.14.5.86Z"/><path d="M186,124.55c4.49,1.58,9,3.38,13.75,3.75A28.74,28.74,0,0,0,213,126.16c.59-.24.33-1.21-.26-1a28.06,28.06,0,0,1-13,2.1c-4.69-.37-9.09-2.17-13.48-3.72-.61-.21-.87.75-.27,1Z"/><path d="M229.7,118.58a12.07,12.07,0,0,0,4.24-2.58,21.43,21.43,0,0,0,3.23-4.39,44,44,0,0,0,5-9.88,18.6,18.6,0,0,0,.9-6.06c0-.64-1-.65-1,0,.12,4.51-1.77,8.69-4,12.51a56.12,56.12,0,0,1-3.52,5.61,10.84,10.84,0,0,1-5.11,3.82c-.6.22-.34,1.18.26,1Z"/><path d="M242.28,21.88q11.39,35,24.68,69.41,3.8,9.79,7.73,19.51c.71,1.77,3.62,1,2.89-.8q-13.83-34.14-25.77-69-3.39-9.93-6.64-19.9c-.59-1.83-3.49-1.05-2.89.79Z"/><path d="M186.52,143.6l30.56-12.44,30.55-12.43,17.13-7c.59-.24.33-1.21-.27-1l-30.55,12.44-30.56,12.43-17.12,7c-.59.24-.34,1.2.26,1Z"/><path d="M241,35.15a60.84,60.84,0,0,1,3.12,6.39.51.51,0,0,0,.61.34.49.49,0,0,0,.35-.61,60.34,60.34,0,0,0-3.22-6.62.5.5,0,0,0-.86.5Z"/><path d="M244.52,42.05v.34a.41.41,0,0,0,0,.19.53.53,0,0,0,.27.27.41.41,0,0,0,.19,0l.13,0a.38.38,0,0,0,.22-.13l.08-.1a.45.45,0,0,0,.07-.25v-.34a.41.41,0,0,0,0-.19.42.42,0,0,0-.11-.16.29.29,0,0,0-.16-.1.41.41,0,0,0-.19-.05l-.13,0a.45.45,0,0,0-.22.13l-.08.1a.45.45,0,0,0-.07.25Z"/><path d="M244.67,42.93l14.67,41.19,4.14,11.61c.21.61,1.18.35,1-.26L249.77,54.28l-4.14-11.61c-.21-.6-1.18-.34-1,.26Z"/><path d="M221.91,55.17l12.84-5.46c.59-.25.08-1.11-.5-.87l-12.84,5.47c-.59.25-.08,1.11.5.86Z"/><path d="M201.63,55.37l.26,9.13a1.5,1.5,0,0,0,3,0l-.26-9.13a1.5,1.5,0,0,0-3,0Z"/><path d="M215.9,48.85l.17,10.62a1.5,1.5,0,0,0,3,0l-.17-10.62a1.5,1.5,0,1,0-3,0Z"/><path d="M197.38,48.47c-.16,1.86-.24,3.73-.24,5.6a.5.5,0,0,0,1,0c0-1.87.08-3.74.24-5.6a.5.5,0,0,0-.5-.5.51.51,0,0,0-.5.5Z"/><path d="M208.68,52.58l.71,9.87c.05.64,1.05.65,1,0l-.71-9.87c0-.63-1-.64-1,0Z"/><path d="M209.92,63.32a7.11,7.11,0,0,0,7.37-2.39.53.53,0,0,0,0-.71.51.51,0,0,0-.71,0,6.12,6.12,0,0,1-6.39,2.13.5.5,0,0,0-.27,1Z"/><path d="M172.26,77.58,200.49,64c.58-.28.08-1.14-.5-.86L171.76,76.72c-.58.28-.07,1.14.5.86Z"/><path d="M205.46,66.24q4.74-2.44,9.56-4.73c.58-.27.08-1.14-.5-.86q-4.83,2.28-9.56,4.73c-.58.3-.07,1.16.5.86Z"/><path d="M199,61.43l2.29,3.32a.51.51,0,0,0,.69.17.5.5,0,0,0,.18-.68l-2.3-3.31a.5.5,0,1,0-.86.5Z"/><path d="M174.8,85.74a29.43,29.43,0,0,1,14.71-16.5c.58-.28.07-1.14-.5-.86a30.42,30.42,0,0,0-15.18,17.09c-.21.61.76.87,1,.27Z"/><path d="M216.85,62.44A29.47,29.47,0,0,1,233.73,73a28.59,28.59,0,0,1,3.09,4.89c.28.57,1.15.07.86-.51A30.36,30.36,0,0,0,222.77,63.3a29.42,29.42,0,0,0-5.66-1.82c-.63-.14-.89.83-.26,1Z"/><path d="M230.05,51.78,244.64,87.1l4.1,9.92c.24.59,1.21.33,1-.26L235.11,61.44,231,51.52c-.24-.59-1.21-.33-1,.26Z"/><path d="M249,98.84c1.21,2.81,2.29,5.68,3.24,8.59.2.61,1.17.35,1-.26q-1.47-4.5-3.35-8.84c-.25-.58-1.11-.08-.86.51Z"/><path d="M231.17,45.27a25.43,25.43,0,0,0-.93,6.78.5.5,0,0,0,1,0,24.35,24.35,0,0,1,.89-6.52.5.5,0,0,0-1-.26Z"/><path d="M149.78,85.72l10.28-9.34a1.52,1.52,0,0,0,0-2.12,1.55,1.55,0,0,0-2.13,0l-10.27,9.33a1.52,1.52,0,0,0,0,2.13,1.54,1.54,0,0,0,2.12,0Z"/><path d="M159.39,76.17q4.85,1.93,9.82,3.48a1.52,1.52,0,0,0,1.85-1.05A1.54,1.54,0,0,0,170,76.76q-5-1.55-9.82-3.48a1.51,1.51,0,0,0-1.85,1,1.55,1.55,0,0,0,1,1.84Z"/><path d="M141.4,73.83Q152.89,71,164.23,67.6a.5.5,0,0,0-.27-1Q152.64,70,141.14,72.86a.5.5,0,0,0,.26,1Z"/><path d="M163.84,66.86a4,4,0,0,0,.63,2.47.51.51,0,0,0,.69.18.5.5,0,0,0,.18-.68,2,2,0,0,1-.28-.51c0,.13,0,0,0,0s0-.08,0-.11a2.29,2.29,0,0,1-.08-.28l-.06-.28s0-.15,0,0a.77.77,0,0,1,0-.15,2.72,2.72,0,0,1,0-.57.5.5,0,0,0-.5-.5.51.51,0,0,0-.5.5Z"/><path d="M140.53,73.77q1.35,5.6,3.25,11.06c.21.6,1.18.34,1-.27q-1.91-5.44-3.26-11.06c-.15-.63-1.11-.36-1,.27Z"/><path d="M144.67,85.08l3-.9a.5.5,0,1,0-.27-1l-3,.89a.5.5,0,1,0,.27,1Z"/><path d="M142.5,75.32,164,69.56a.5.5,0,0,0-.26-1l-21.52,5.77a.5.5,0,0,0,.26,1Z"/><path d="M142.14,74.59l2.56,8.7a.5.5,0,0,0,1-.27l-2.56-8.7a.5.5,0,0,0-1,.27Z"/><path d="M145.17,83.16,151,81.58a.5.5,0,0,0-.27-1l-5.86,1.57a.5.5,0,0,0,.26,1Z"/><path d="M165.34,71.08a42.85,42.85,0,0,0,1.55,4.6.52.52,0,0,0,.62.35.5.5,0,0,0,.35-.61,42.2,42.2,0,0,1-1.56-4.6.5.5,0,0,0-1,.26Z"/><path d="M140.21,74.13c-.16,3-.18,5.91-.08,8.87,0,.64,1,.64,1,0-.1-3-.08-5.92.08-8.87,0-.65-1-.64-1,0Z"/><path d="M144.11,84.71v3.43a.5.5,0,0,0,1,0V84.71a.5.5,0,1,0-1,0Z"/><path d="M131.79,63.87c13.42-5.07,26.9-10,40.4-14.81s26.88-9.62,40.32-14.42l22.76-8.14c.6-.21.34-1.18-.27-1L194.54,40c-13.45,4.81-26.92,9.61-40.34,14.5q-11.35,4.14-22.68,8.4c-.59.23-.34,1.2.27,1Z"/><path d="M210,50.57a4.67,4.67,0,0,1,3.89-1.33c.34,0,.8.07,1,.41a1.38,1.38,0,0,1-.18,1.23,2.29,2.29,0,0,1-2.05.93c-.81,0-2.15.08-2.5-.85-.06-.15-.3-.08-.24.07.35.93,1.43,1,2.28,1a3.1,3.1,0,0,0,2.46-.72c.49-.51.9-1.64.15-2.12a2.25,2.25,0,0,0-1.17-.25,6.37,6.37,0,0,0-1.31.1,4.32,4.32,0,0,0-2.49,1.32c-.1.12.07.3.18.18Z"/><path d="M211.31,48.36a.86.86,0,0,0,0,.16,1.23,1.23,0,0,0,0,.2s0,.06,0,.09a1.39,1.39,0,0,0,.1.26.64.64,0,0,0,.08.14.35.35,0,0,0,.13.14.32.32,0,0,0,.17.09.34.34,0,0,0,.2,0,.33.33,0,0,0,.19-.06.53.53,0,0,0,.23-.3.56.56,0,0,0,0-.38.51.51,0,0,1-.09-.16l.05.12a.9.9,0,0,1-.06-.22v.13a.81.81,0,0,1,0-.22.31.31,0,0,0,0-.19.29.29,0,0,0-.1-.16.42.42,0,0,0-.16-.11.45.45,0,0,0-.2,0,.47.47,0,0,0-.35.15l-.08.1a.52.52,0,0,0-.07.25Z"/><path d="M213.14,48l-.18.71a.51.51,0,0,0,0,.38.35.35,0,0,0,.13.14.32.32,0,0,0,.17.09.53.53,0,0,0,.39-.05.58.58,0,0,0,.23-.3l.18-.71a.55.55,0,0,0-.05-.38.44.44,0,0,0-.13-.14.32.32,0,0,0-.17-.09.48.48,0,0,0-.39,0,.5.5,0,0,0-.23.3Z"/><path d="M215.12,48.23l-.55.6a.53.53,0,0,0-.15.35.45.45,0,0,0,0,.2.42.42,0,0,0,.11.16.51.51,0,0,0,.7,0l.56-.6a.52.52,0,0,0,.14-.36.33.33,0,0,0,0-.19.39.39,0,0,0-.1-.16.53.53,0,0,0-.36-.15.51.51,0,0,0-.35.15Z"/><path d="M215.14,50.63a2.66,2.66,0,0,1,.69,0l-.13,0h.08a.35.35,0,0,0,.2,0,.33.33,0,0,0,.19-.06.53.53,0,0,0,.23-.3.51.51,0,0,0-.05-.38.5.5,0,0,0-.3-.23,3.46,3.46,0,0,0-.91,0,.31.31,0,0,0-.19,0,.39.39,0,0,0-.16.1.53.53,0,0,0-.15.36.51.51,0,0,0,.15.35.47.47,0,0,0,.35.15Z"/><path d="M214.14,51.78l.43.51a.54.54,0,0,0,.16.1.45.45,0,0,0,.2,0,.41.41,0,0,0,.19,0,.44.44,0,0,0,.16-.1.53.53,0,0,0,.15-.36l0-.13a.45.45,0,0,0-.13-.22l-.43-.5a.42.42,0,0,0-.16-.11.41.41,0,0,0-.19,0,.45.45,0,0,0-.2,0,.42.42,0,0,0-.16.11.5.5,0,0,0-.14.35v.13a.54.54,0,0,0,.13.22Z"/><path d="M211.91,51.79l-.26.61a.33.33,0,0,0-.06.19.34.34,0,0,0,0,.2.32.32,0,0,0,.09.17.35.35,0,0,0,.14.13.5.5,0,0,0,.38,0l.12,0a.52.52,0,0,0,.18-.18l.26-.61a.33.33,0,0,0,.06-.19.28.28,0,0,0,0-.2.38.38,0,0,0-.08-.17.44.44,0,0,0-.15-.12.46.46,0,0,0-.38-.06l-.12.06a.49.49,0,0,0-.18.17Z"/><path d="M210.39,51.47l-.49.5a.36.36,0,0,0-.11.16.47.47,0,0,0,0,.38.31.31,0,0,0,.11.16.47.47,0,0,0,.35.15l.13,0a.38.38,0,0,0,.22-.13l.5-.49a.39.39,0,0,0,.1-.16.45.45,0,0,0,.05-.19.46.46,0,0,0-.05-.2.39.39,0,0,0-.1-.16.47.47,0,0,0-.35-.14h-.14a.61.61,0,0,0-.22.13Z"/><path d="M209.22,51.73l.67-.12a.46.46,0,0,0,.17-.09.43.43,0,0,0,.13-.14.33.33,0,0,0,.06-.19.45.45,0,0,0,0-.2.5.5,0,0,0-.23-.3l-.12,0a.57.57,0,0,0-.26,0l-.67.13a.28.28,0,0,0-.17.09.29.29,0,0,0-.13.14.3.3,0,0,0-.06.18.44.44,0,0,0,0,.2.5.5,0,0,0,.23.3l.12,0a.39.39,0,0,0,.26,0Z"/><path d="M209.81,49.8a.5.5,0,0,0,0-1,.5.5,0,0,0,0,1Z"/><path d="M209.94,49.83h0l-.14,0h0l-.13,0h0l-.12-.05,0,0-.1-.08,0,0-.08-.1,0,0,0-.12v0a.56.56,0,0,0,.09.17.41.41,0,0,0,.14.12.33.33,0,0,0,.19.06.28.28,0,0,0,.2,0l.12,0a.52.52,0,0,0,.18-.18l.05-.11a.62.62,0,0,0,0-.27,1.16,1.16,0,0,0-.06-.15l0,0a.21.21,0,0,0,0-.06l0-.05h0l-.12-.1h0a.64.64,0,0,0-.14-.06h0l-.14,0h-.17a.46.46,0,0,0-.17.09.35.35,0,0,0-.13.14.33.33,0,0,0-.06.19.46.46,0,0,0,0,.2l0,.11a.39.39,0,0,0,.18.18l.12,0a.39.39,0,0,0,.26,0Z"/><path d="M209.68,49.87l.27.22a.42.42,0,0,0,.16.11.43.43,0,0,0,.19,0,.45.45,0,0,0,.2,0,.42.42,0,0,0,.16-.11l.08-.1a.54.54,0,0,0,.06-.25v-.13a.54.54,0,0,0-.13-.22l-.28-.22a.36.36,0,0,0-.16-.11.47.47,0,0,0-.38,0,.36.36,0,0,0-.16.11l-.08.1a.43.43,0,0,0-.07.25l0,.13a.38.38,0,0,0,.13.22Z"/><path d="M160.69,40.6a.5.5,0,0,0,0-1,.5.5,0,0,0,0,1Z"/><path d="M240.12,70,244,75.17a1.66,1.66,0,0,0,.9.69,1.49,1.49,0,0,0,1.69-2.2l-3.83-5.17a1.68,1.68,0,0,0-.9-.69,1.56,1.56,0,0,0-1.16.15,1.53,1.53,0,0,0-.53,2.06Z"/><path d="M244,74.84l.73,5.76a1.63,1.63,0,0,0,.44,1.06,1.52,1.52,0,0,0,1.06.44,1.54,1.54,0,0,0,1.06-.44,1.44,1.44,0,0,0,.44-1.06L247,74.84a1.74,1.74,0,0,0-.44-1.06,1.56,1.56,0,0,0-1.06-.44,1.54,1.54,0,0,0-1.06.44,1.44,1.44,0,0,0-.44,1.06Z"/><path d="M230.24,44.63l9.14,23.87c.69,1.78,3.59,1,2.89-.8l-9.14-23.87c-.68-1.78-3.59-1-2.89.8Z"/><path d="M244.69,81.38a239,239,0,0,0,9.8,25.58c.79,1.76,3.38.23,2.59-1.52a229.67,229.67,0,0,1-9.5-24.86c-.58-1.83-3.48-1-2.89.8Z"/><path d="M249.79,83a10.15,10.15,0,0,0-1.87,2.5.5.5,0,0,0,.43.75l3.29,0a.5.5,0,0,0,0-1l-3.29,0,.44.76a8.83,8.83,0,0,1,1.71-2.31.5.5,0,0,0-.71-.7Z"/><path d="M253.15,91.83a10,10,0,0,0-1.87,2.51.51.51,0,0,0,.43.75l3.28,0a.5.5,0,0,0,.5-.5.51.51,0,0,0-.5-.5l-3.28,0,.44.75a8.78,8.78,0,0,1,1.71-2.3.5.5,0,0,0-.71-.71Z"/><path d="M256.35,100.16a9.78,9.78,0,0,0-1.87,2.51.5.5,0,0,0,.43.75l3.28,0a.5.5,0,0,0,.5-.5.51.51,0,0,0-.5-.5l-3.28,0,.43.75a9,9,0,0,1,1.71-2.3.5.5,0,0,0,0-.71.51.51,0,0,0-.7,0Z"/><path d="M235.32,44.4a10,10,0,0,0-1.86,2.51.5.5,0,0,0,.43.75l3.28,0a.5.5,0,0,0,0-1l-3.28,0,.43.75a9,9,0,0,1,1.71-2.3.5.5,0,1,0-.71-.71Z"/><path d="M238.68,53.23a10.11,10.11,0,0,0-1.86,2.5.5.5,0,0,0,.43.75l3.28,0a.51.51,0,0,0,.5-.5.5.5,0,0,0-.5-.5l-3.28,0,.43.76a8.83,8.83,0,0,1,1.71-2.31.5.5,0,0,0-.71-.7Z"/><path d="M241.88,61.56a10.15,10.15,0,0,0-1.87,2.5.5.5,0,0,0,.43.75l3.28,0a.5.5,0,0,0,.5-.5.5.5,0,0,0-.5-.5l-3.28,0,.44.76a8.83,8.83,0,0,1,1.71-2.31.5.5,0,1,0-.71-.7Z"/><path d="M139.44,84.8q2.26,5.17,4.28,10.45c.23.59,1.2.33,1-.27q-2.07-5.39-4.38-10.69c-.26-.58-1.12-.08-.87.51Z"/><path d="M144.76,95a18.27,18.27,0,0,0,4.32-1,.52.52,0,0,0,.35-.62.52.52,0,0,0-.62-.35,16.46,16.46,0,0,1-4.05.94.52.52,0,0,0-.5.5.5.5,0,0,0,.5.5Z"/><path d="M126.69,64.46c1.21,4,3.6,7.57,4.81,11.6.55,1.84,3.45,1.06,2.89-.8-1.21-4-3.59-7.58-4.81-11.6-.55-1.85-3.45-1.06-2.89.8Z"/><path d="M134.71,79.55a7,7,0,0,1,1.28-.71l-.36.15a8.51,8.51,0,0,1,.85-.29,1.49,1.49,0,0,0,.9-.69,1.09,1.09,0,0,0,.18-.55,1.22,1.22,0,0,0,0-.6,1.52,1.52,0,0,0-.69-.9,1.54,1.54,0,0,0-1.15-.15,9.51,9.51,0,0,0-1.46.55,6.59,6.59,0,0,0-1,.6,1.06,1.06,0,0,0-.42.39,1,1,0,0,0-.27.51,1.12,1.12,0,0,0,0,.6,1.09,1.09,0,0,0,.18.55,1.5,1.5,0,0,0,2.05.54Z"/><path d="M136.76,78.49l3.15-1.08a1.57,1.57,0,0,0,.89-.69,1.49,1.49,0,0,0,.15-1.15,1.46,1.46,0,0,0-.69-.9,1.49,1.49,0,0,0-1.15-.15L136,75.6a1.59,1.59,0,0,0-.9.69,1.5,1.5,0,0,0,1.69,2.2Z"/><path d="M122.63,59.63a17.29,17.29,0,0,0,2.17,3c.78.82,1.56,1.62,2.28,2.5a1.5,1.5,0,0,0,1.06.44,1.54,1.54,0,0,0,1.06-.44,1.52,1.52,0,0,0,.44-1.06A1.74,1.74,0,0,0,129.2,63c-.71-.87-1.48-1.66-2.25-2.47a5.22,5.22,0,0,1-.39-.43l-.2-.24c-.08-.1-.2-.28.11.14l-.13-.16c-.4-.56-.77-1.14-1.12-1.72a1.5,1.5,0,1,0-2.59,1.51Z"/><path d="M131.78,78.93a35.37,35.37,0,0,1,.4,5.14.5.5,0,0,0,1,0,37.57,37.57,0,0,0-.44-5.4.5.5,0,0,0-.61-.35.51.51,0,0,0-.35.61Z"/><path d="M121.68,61.43a58.66,58.66,0,0,1,4.15,10.73,38.66,38.66,0,0,0,4.68,10.25c.36.53,1.22,0,.86-.5a38.53,38.53,0,0,1-4.69-10.4,57.89,57.89,0,0,0-4.13-10.58c-.31-.57-1.18-.07-.87.5Z"/><path d="M130.83,82.73a.5.5,0,0,0,0-1,.5.5,0,0,0,0,1Z"/><path d="M133.68,84.2A25,25,0,0,1,139.39,82c.63-.15.36-1.12-.26-1a26.26,26.26,0,0,0-5.95,2.26c-.57.3-.07,1.17.5.87Z"/><path d="M124.32,60.32l40.34-15.74c13-5.08,26-10.42,39.15-15a178.82,178.82,0,0,1,22.45-6.38c1.89-.39,1.09-3.28-.79-2.89C211.89,23.11,198.9,28,186,33L146.24,48.56l-22.71,8.87c-1.78.69-1,3.59.79,2.89Z"/><path d="M90.5,135l29.67-12.09,8.42-3.44c.59-.24.33-1.2-.26-1L98.66,130.6,90.23,134c-.59.24-.33,1.21.27,1Z"/><path d="M93.36,142.46,130,127.39l10.36-4.27c.59-.24.33-1.21-.26-1l-36.62,15.07L93.1,141.5c-.59.24-.33,1.21.26,1Z"/><path d="M140.1,123.77q3.57,8.8,6.73,17.77c.22.6,1.18.34,1-.27q-3.18-9-6.73-17.77c-.24-.59-1.21-.33-1,.27Z"/><path d="M128.27,117.91q-4.34-12.19-9.13-24.23-1.36-3.41-2.76-6.8c-.24-.58-1.21-.33-1,.27q4.92,12,9.39,24.13,1.27,3.45,2.5,6.9c.21.6,1.18.34,1-.27Z"/><path d="M123.68,87.15l8.13,23c.22.6,1.18.34,1-.27l-8.14-23c-.21-.6-1.18-.34-1,.27Z"/><path d="M132.67,111.61c3.93-1.23,7.82-2.61,11.64-4.14.59-.24.34-1.21-.26-1q-5.75,2.3-11.65,4.14c-.61.19-.35,1.16.27,1Z"/><path d="M149.13,119.68l8.09,20.67c.23.59,1.2.33,1-.27l-8.08-20.66c-.23-.6-1.2-.34-1,.26Z"/><path d="M90.68,133.6q-5.19-13.2-9.62-26.67c-.2-.61-1.17-.35-1,.27q4.43,13.47,9.63,26.66c.23.6,1.2.34,1-.26Z"/><path d="M82.6,146.58q1.44,4.95,3.27,9.76c.23.6,1.2.34,1-.26q-1.84-4.82-3.27-9.77a.5.5,0,0,0-1,.27Z"/><path d="M74.86,162.26q5.46-2.46,11.1-4.43c.61-.21.35-1.18-.26-1-3.84,1.35-7.63,2.86-11.34,4.54-.59.26-.08,1.12.5.86Z"/><path d="M89.45,143.91q3.14,7.58,5.6,15.38c.19.61,1.16.35,1-.26q-2.46-7.82-5.6-15.38c-.24-.59-1.21-.33-1,.26Z"/><path d="M70.31,150.2q6.22-2.13,12.26-4.75c.59-.26.09-1.12-.5-.86q-5.92,2.55-12,4.65c-.61.2-.35,1.17.26,1Z"/><path d="M147.08,139.86a75,75,0,0,1,3.44,8,1.5,1.5,0,1,0,2.89-.79,83.13,83.13,0,0,0-3.74-8.68,1.51,1.51,0,0,0-2-.54,1.53,1.53,0,0,0-.54,2.05Z"/><path d="M133.62,144.16,138,154.1a1.51,1.51,0,0,0,2.05.54,1.54,1.54,0,0,0,.54-2l-4.33-9.94a1.5,1.5,0,1,0-2.59,1.51Z"/><path d="M134.83,143.85a42.24,42.24,0,0,0,6.26-.25,1.68,1.68,0,0,0,1.06-.44,1.56,1.56,0,0,0,.44-1.06c0-.74-.67-1.6-1.5-1.5a42.24,42.24,0,0,1-6.26.25,1.5,1.5,0,0,0-1.5,1.5,1.52,1.52,0,0,0,1.5,1.5Z"/><path d="M142.52,143.53q3.12-2,6.17-4.22a1.64,1.64,0,0,0,.69-.9,1.54,1.54,0,0,0-.16-1.15,1.51,1.51,0,0,0-2.05-.54c-2,1.45-4.08,2.86-6.17,4.22a1.5,1.5,0,1,0,1.52,2.59Z"/><path d="M130.21,145.65a73,73,0,0,1,3.44,8,1.53,1.53,0,0,0,1.84,1,1.51,1.51,0,0,0,1-1.84,83.13,83.13,0,0,0-3.74-8.68,1.51,1.51,0,0,0-2.05-.54,1.54,1.54,0,0,0-.54,2.05Z"/><path d="M116.75,150l4.33,9.94a1.51,1.51,0,0,0,2,.54,1.53,1.53,0,0,0,.54-2.05l-4.33-9.94a1.5,1.5,0,0,0-2.59,1.51Z"/><path d="M118,149.64a42.24,42.24,0,0,0,6.26-.25,1.66,1.66,0,0,0,1.06-.44,1.56,1.56,0,0,0,.44-1.06c0-.74-.67-1.6-1.5-1.5a42.24,42.24,0,0,1-6.26.25,1.5,1.5,0,0,0-1.5,1.5,1.53,1.53,0,0,0,1.5,1.5Z"/><path d="M125.65,149.32q3.12-2,6.17-4.22a1.64,1.64,0,0,0,.69-.9,1.54,1.54,0,0,0-.15-1.15,1.53,1.53,0,0,0-2.06-.54q-3,2.18-6.17,4.22a1.5,1.5,0,1,0,1.52,2.59Z"/><path d="M114.28,151.53a74,74,0,0,1,3.43,8,1.54,1.54,0,0,0,1.85,1,1.52,1.52,0,0,0,1-1.85,82,82,0,0,0-3.73-8.67,1.51,1.51,0,0,0-2.06-.54,1.54,1.54,0,0,0-.53,2.05Z"/><path d="M100.81,155.83l4.33,9.94a1.52,1.52,0,0,0,2.06.53,1.53,1.53,0,0,0,.53-2.05l-4.33-9.94a1.5,1.5,0,0,0-2.05-.53,1.54,1.54,0,0,0-.54,2.05Z"/><path d="M102,155.51a42.24,42.24,0,0,0,6.26-.24,1.66,1.66,0,0,0,1.06-.44,1.52,1.52,0,0,0,.44-1.06c0-.74-.66-1.6-1.5-1.5a42.24,42.24,0,0,1-6.26.24,1.5,1.5,0,1,0,0,3Z"/><path d="M109.71,155.2c2.09-1.37,4.14-2.78,6.17-4.22a1.63,1.63,0,0,0,.69-.9,1.56,1.56,0,0,0-.15-1.16,1.51,1.51,0,0,0-2-.53q-3,2.16-6.17,4.22a1.5,1.5,0,0,0,1.51,2.59Z"/><path d="M151.33,144l14.32-6a1.56,1.56,0,0,0,1-1.85,1.51,1.51,0,0,0-1.85-1.05l-14.31,6a1.56,1.56,0,0,0-1,1.85,1.51,1.51,0,0,0,1.84,1.05Z"/><path d="M79.28,171.3q11.61-5,23.31-9.71c1.76-.72,1-3.62-.8-2.89q-12.06,4.89-24,10a1.5,1.5,0,0,0-.53,2,1.54,1.54,0,0,0,2,.54Z"/><path d="M80.18,182.8q18.57-8.15,37.46-15.58,18.71-7.38,37.68-14,10.74-3.77,21.57-7.32c.61-.2.35-1.16-.27-1q-19.34,6.33-38.43,13.4t-37.67,14.76q-10.47,4.32-20.85,8.88c-.59.26-.08,1.12.51.86Z"/><path d="M108.86,155.08a77.59,77.59,0,0,1,3.37,9c.19.62,1.16.36,1-.26a79.48,79.48,0,0,0-3.48-9.23c-.26-.58-1.12-.08-.86.51Z"/><path d="M124.93,147.65q1.95,4.78,3.45,9.71c.19.62,1.16.36,1-.26q-1.5-4.93-3.45-9.71c-.24-.59-1.21-.33-1,.26Z"/><path d="M141.87,142.22q1.83,4.46,3.33,9c.2.61,1.16.35,1-.27q-1.49-4.57-3.33-9c-.24-.58-1.21-.32-1,.27Z"/><path d="M98.39,161.39a10.75,10.75,0,0,1,4.69-6.56c.55-.34,0-1.21-.5-.86a11.73,11.73,0,0,0-5.16,7.15c-.15.63.82.9,1,.27Z"/><path d="M114.71,150.05a18.66,18.66,0,0,1,3.27-1.67.52.52,0,0,0,.35-.62.51.51,0,0,0-.62-.35,20.3,20.3,0,0,0-3.51,1.78.5.5,0,1,0,.51.86Z"/><path d="M131.33,144.6l3.67-1.47a.53.53,0,0,0,.35-.62.51.51,0,0,0-.62-.35l-3.67,1.48a.5.5,0,1,0,.27,1Z"/><path d="M102.5,153.9q10.45-4.54,21.15-8.53,5.25-2,10.57-3.78a79.87,79.87,0,0,1,10.56-3.23,19,19,0,0,1,11.87,1.47c.58.27,1.09-.59.51-.86a19.89,19.89,0,0,0-10.43-1.9c-3.73.35-7.31,1.7-10.83,2.89q-11,3.71-21.75,8Q108,150.42,102,153c-.59.25-.08,1.11.51.86Z"/><path d="M156.17,143.9a4.37,4.37,0,0,1,.32.55c0,.05,0,.1.07.16s.06.14,0,0c0,.1.08.2.11.3a4,4,0,0,1,.16.59c0,.1,0,.2.05.3,0-.13,0,0,0,.07s0,.12,0,.17a.51.51,0,0,0,.5.5.5.5,0,0,0,.5-.5,5.5,5.5,0,0,0-.88-2.67.52.52,0,0,0-.69-.18.5.5,0,0,0-.18.68Z"/><path d="M158.07,143c.11.18.22.37.31.55l.15.31c0-.08,0,0,0,0l.06.15a6.55,6.55,0,0,1,.32,1.23.5.5,0,0,0,.61.35.52.52,0,0,0,.35-.62,6.82,6.82,0,0,0-.94-2.51.52.52,0,0,0-.69-.18.5.5,0,0,0-.18.68Z"/><path d="M157.14,146.26a3.41,3.41,0,0,0,1.14,1,.5.5,0,0,0,.68-.18,4.44,4.44,0,0,0,.78-2,.51.51,0,0,0-.05-.38.53.53,0,0,0-.3-.23.51.51,0,0,0-.38,0,.5.5,0,0,0-.23.3,4.35,4.35,0,0,1-.25.94l0,.06c0-.07,0-.08,0,0a1.17,1.17,0,0,1-.05.11c0,.07-.07.14-.1.2a3.87,3.87,0,0,1-.27.43l.68-.18-.25-.16-.08-.05,0,0-.12-.11a1.45,1.45,0,0,1-.22-.21l-.1-.11,0-.06,0,.06,0-.05a.5.5,0,0,0-.3-.23.46.46,0,0,0-.38.05.5.5,0,0,0-.18.68Z"/><path d="M156.39,143.88a7.27,7.27,0,0,0,2.37-1.08.51.51,0,0,0,.18-.68.5.5,0,0,0-.68-.18,7,7,0,0,1-1.07.61l-.14.06c-.05,0-.05,0,0,0l-.07,0-.26.1a6.13,6.13,0,0,1-.61.18.5.5,0,0,0-.35.61.51.51,0,0,0,.62.35Z"/><path d="M160.42,142.17a6,6,0,0,1,.31.55c0,.05.05.11.08.16s.06.14,0,0c0,.1.08.2.11.3a4.08,4.08,0,0,1,.16.6,2.5,2.5,0,0,1,0,.29c0-.13,0,.05,0,.08s0,.11,0,.16a.5.5,0,0,0,.5.5.51.51,0,0,0,.5-.5,5.55,5.55,0,0,0-.89-2.67.5.5,0,0,0-.68-.18.5.5,0,0,0-.18.68Z"/><path d="M162.32,141.31c.11.17.21.36.31.55l.14.3c0-.08,0,0,0,0a.76.76,0,0,1,.06.16,5.62,5.62,0,0,1,.32,1.22.5.5,0,1,0,1-.27,6.48,6.48,0,0,0-.94-2.51.5.5,0,1,0-.86.51Z"/><path d="M161.38,144.53a3.51,3.51,0,0,0,1.14,1,.52.52,0,0,0,.69-.18,4.57,4.57,0,0,0,.78-1.94.59.59,0,0,0-.05-.39.51.51,0,0,0-.69-.18.52.52,0,0,0-.23.3,3.44,3.44,0,0,1-.25.94l0,.06c0-.07,0-.08,0,0a.37.37,0,0,1,0,.11,1.24,1.24,0,0,1-.1.2,3.87,3.87,0,0,1-.27.43l.69-.18a2.26,2.26,0,0,1-.26-.16l-.07,0,0,0-.13-.1a2.18,2.18,0,0,1-.21-.22.52.52,0,0,1-.1-.11l0-.06,0,.06,0-.05a.57.57,0,0,0-.3-.23.53.53,0,0,0-.39,0,.5.5,0,0,0-.18.68Z"/><path d="M160.63,142.16a7.5,7.5,0,0,0,2.37-1.08.51.51,0,0,0,.18-.69.5.5,0,0,0-.68-.18,6.61,6.61,0,0,1-1.06.61l-.15.07s0,0,0,0l-.07,0-.26.1q-.3.11-.6.18a.5.5,0,0,0-.35.62.51.51,0,0,0,.61.35Z"/><path d="M90.43,170.52a9.92,9.92,0,0,1,1.64,4.79.5.5,0,0,0,1,0A11,11,0,0,0,91.3,170c-.36-.53-1.22,0-.87.51Z"/><path d="M94.39,168.71a12.84,12.84,0,0,1,1.81,4.86.5.5,0,0,0,.62.35.52.52,0,0,0,.35-.61,13.44,13.44,0,0,0-1.92-5.11c-.34-.54-1.21,0-.86.51Z"/><path d="M92.44,175.43a6.89,6.89,0,0,0,2.18,1.95.53.53,0,0,0,.69-.18,9.06,9.06,0,0,0,1.57-3.93.52.52,0,0,0-.35-.61.49.49,0,0,0-.61.35,8.24,8.24,0,0,1-1.48,3.68l.69-.18a5.46,5.46,0,0,1-1.82-1.59.53.53,0,0,0-.69-.18.52.52,0,0,0-.18.69Z"/><path d="M90.27,170.23A14.88,14.88,0,0,0,95.08,168a.52.52,0,0,0,.18-.69.5.5,0,0,0-.68-.18,14.07,14.07,0,0,1-4.57,2.1c-.63.15-.36,1.12.26,1Z"/><path d="M168.37,71.52q12.07-5.67,24.26-11.07l7-3.07c.59-.26.08-1.12-.51-.86q-12.23,5.31-24.33,10.9l-6.93,3.23c-.59.28-.08,1.14.5.87Z"/><path d="M218.76,50.13l12.45-5.19c.58-.25.33-1.22-.27-1l-12.45,5.2c-.59.24-.33,1.21.27,1Z"/><path d="M171.87,67.72l.2.14-.1-.08a3.2,3.2,0,0,1,.52.52l-.08-.1a3.66,3.66,0,0,1,.31.49.48.48,0,0,0,.29.23.53.53,0,0,0,.39,0,.5.5,0,0,0,.23-.3.59.59,0,0,0,0-.39,3.46,3.46,0,0,0-1.2-1.32.53.53,0,0,0-.39,0,.52.52,0,0,0-.3.23.51.51,0,0,0,.18.68Z"/><path d="M172.37,67.38,174.76,66l.57-.32a.64.64,0,0,0,.14-.08c.07,0,0,0-.11,0s-.16,0-.11,0a1.4,1.4,0,0,0,.16.2,2.63,2.63,0,0,1,.39,1,.5.5,0,0,0,.62.35.51.51,0,0,0,.35-.61,3.31,3.31,0,0,0-.54-1.35,1.4,1.4,0,0,0-.61-.57,1.07,1.07,0,0,0-.86.2c-1,.55-1.93,1.09-2.89,1.65a.5.5,0,0,0,.5.86Z"/><path d="M182.14,63.39l.19.14-.1-.08a2.84,2.84,0,0,1,.52.52l-.07-.1a4,4,0,0,1,.3.49.5.5,0,0,0,.3.23.5.5,0,0,0,.38,0,.5.5,0,0,0,.23-.3.53.53,0,0,0,0-.39,3.39,3.39,0,0,0-1.2-1.32.46.46,0,0,0-.38-.05.47.47,0,0,0-.3.23.5.5,0,0,0,.18.68Z"/><path d="M182.64,63.05,185,61.69c.19-.11.38-.22.58-.32,0,0,.11,0,.13-.08s0,0-.1,0-.17,0-.11,0,.12.15.15.2a2.58,2.58,0,0,1,.39,1,.51.51,0,0,0,.62.35.51.51,0,0,0,.35-.61,3.31,3.31,0,0,0-.54-1.35,1.3,1.3,0,0,0-.61-.57,1.07,1.07,0,0,0-.86.2c-1,.54-1.93,1.09-2.89,1.65a.5.5,0,0,0,.51.86Z"/><path d="M191.76,59.14l.2.14-.1-.08a2.84,2.84,0,0,1,.52.52l-.08-.1a2.41,2.41,0,0,1,.3.48.52.52,0,0,0,.3.23.49.49,0,0,0,.39,0,.51.51,0,0,0,.23-.29.59.59,0,0,0-.05-.39,3.44,3.44,0,0,0-1.21-1.33.55.55,0,0,0-.38-.05.58.58,0,0,0-.3.23.52.52,0,0,0,.18.69Z"/><path d="M192.26,58.8l2.39-1.37.57-.32s.11,0,.13-.07,0,0-.1,0-.16,0-.11,0,.12.15.15.2a2.64,2.64,0,0,1,.4,1.05.5.5,0,0,0,.61.35.52.52,0,0,0,.35-.62,3.31,3.31,0,0,0-.53-1.34,1.34,1.34,0,0,0-.61-.57,1.05,1.05,0,0,0-.87.2c-1,.54-1.93,1.09-2.88,1.65a.5.5,0,0,0,.5.86Z"/><path d="M144.27,107.07a5.8,5.8,0,0,0,3.62-4.72,21,21,0,0,0-.42-7.86c-.15-.63-1.11-.36-1,.26a20.81,20.81,0,0,1,.48,6.81c-.2,2-1,3.77-3,4.54-.6.24-.34,1.21.26,1Z"/><path d="M149.94,119.58c-.14-.92.65-1.71,1.32-2.25a14.88,14.88,0,0,1,1.33-.91l1.8-1.14c.54-.34,0-1.21-.5-.86l-2,1.24a13.13,13.13,0,0,0-1.55,1.1,3.44,3.44,0,0,0-1.41,3.09.51.51,0,0,0,.62.35.52.52,0,0,0,.35-.62Z"/><path d="M76.78,173.09l-3.69-10A1.55,1.55,0,0,0,71.24,162a1.52,1.52,0,0,0-1,1.85l3.7,10a1.53,1.53,0,0,0,1.84,1.05,1.51,1.51,0,0,0,1-1.84Z"/><path d="M52.6,174.21q9.32-5.11,19-9.53a1.52,1.52,0,0,0,.54-2.05,1.54,1.54,0,0,0-2.06-.54q-9.66,4.41-19,9.53c-1.69.93-.18,3.53,1.51,2.59Z"/><path d="M49.16,181.58a81.83,81.83,0,0,1,7.44-3.85,1.51,1.51,0,0,0,.54-2.06,1.54,1.54,0,0,0-2-.53A79.28,79.28,0,0,0,47.65,179a1.5,1.5,0,0,0,1.51,2.59Z"/><path d="M46.11,180.25l5.62,14.21a1.56,1.56,0,0,0,1.85,1,1.51,1.51,0,0,0,1.05-1.85L49,179.45a1.55,1.55,0,0,0-1.84-1,1.51,1.51,0,0,0-1,1.85Z"/><path d="M54.22,195.64l6.87-3.4a1.5,1.5,0,0,0,.54-2.05,1.54,1.54,0,0,0-2.05-.54l-6.88,3.4a1.5,1.5,0,0,0,1.52,2.59Z"/><path d="M59.06,195.32,62,200.6a1.51,1.51,0,0,0,2.05.54,1.54,1.54,0,0,0,.54-2.06l-2.9-5.27a1.5,1.5,0,1,0-2.59,1.51Z"/><path d="M61.59,170.1q4.06,8.53,8,17.12c.27.59,1.13.08.86-.5q-3.92-8.59-8-17.12c-.28-.58-1.14-.08-.87.5Z"/><path d="M71.33,187l5.88-3c.58-.3.07-1.16-.5-.87l-5.88,3c-.57.3-.07,1.16.5.87Z"/><path d="M76.09,170.94c-1.72,4.22-3.55,8.41-5.47,12.54-.27.58.59,1.09.86.51q2.94-6.33,5.58-12.79c.24-.59-.73-.85-1-.26Z"/><path d="M67.46,188.12,65.07,196a.5.5,0,0,0,1,.27l2.83-8.79-1-.26L66.09,193a.5.5,0,0,0,.91.38,26.2,26.2,0,0,0,2.64-6c.19-.63-.73-.85-1-.26A62,62,0,0,0,66,195.48c-.15.63.82.89,1,.27a64.09,64.09,0,0,1,2.64-8.34l-1-.26a26,26,0,0,1-2.54,5.71l.91.38,1.82-5.81c.19-.61-.77-.87-1-.26L65.07,196l1,.27,2.38-7.84a.5.5,0,0,0-1-.26Z"/><path d="M51.34,186.06a68.47,68.47,0,0,1,12.28-6.53c.59-.24.33-1.21-.27-1a70.78,70.78,0,0,0-12.52,6.64c-.53.35,0,1.22.51.86Z"/><path d="M64.16,180.39a15.74,15.74,0,0,0-2.55,8.66.5.5,0,0,0,1,0A14.81,14.81,0,0,1,65,180.9c.36-.54-.51-1-.86-.51Z"/><path d="M57.52,177.51l5,.75a.51.51,0,0,0,.61-.35.49.49,0,0,0-.34-.61l-5-.76a.52.52,0,0,0-.62.35.51.51,0,0,0,.35.62Z"/><path d="M104.42,90.79c-.14.74.36,1.19,1.06,1.3a5.94,5.94,0,0,0,2.67-.59c2.28-.77,4.54-1.58,6.79-2.45q6.75-2.6,13.25-5.77c.58-.28.07-1.14-.51-.86q-5.64,2.74-11.46,5.06-2.86,1.14-5.76,2.17l-2.91,1a13.63,13.63,0,0,1-1.37.44c-.1,0-.81,0-.8,0,.12-.62-.84-.89-1-.26Z"/><path d="M211.4,133l1.75,4.44a.52.52,0,0,0,.61.35.51.51,0,0,0,.35-.62l-1.74-4.43a.52.52,0,0,0-.62-.35.5.5,0,0,0-.35.61Z"/><path d="M238.34,123.33a41.2,41.2,0,0,0,2.8,6.73c.29.57,1.16.06.86-.51a40,40,0,0,1-2.7-6.49c-.19-.61-1.16-.35-1,.27Z"/><path d="M188.37,155.16a.5.5,0,0,0,0-1,.5.5,0,0,0,0,1Z"/><path d="M210.7,133.92l-4.27,5.48a.5.5,0,0,0,.71.71l4.27-5.48a.5.5,0,1,0-.71-.71Z"/><path d="M213.18,134.1l8.52.81c.64.06.63-.94,0-1l-8.52-.81c-.64-.06-.64.94,0,1Z"/><path d="M237.17,123.86l-4.92,6.28a.53.53,0,0,0,0,.71.51.51,0,0,0,.71,0l4.92-6.28a.53.53,0,0,0,0-.71.51.51,0,0,0-.71,0Z"/><path d="M240.33,123.41l10.25,1.32c.63.08.63-.92,0-1l-10.25-1.32c-.64-.08-.63.92,0,1Z"/><path d="M262.94,98.76q2.73,11,6,21.82a.5.5,0,0,0,1-.26q-3.31-10.83-6.05-21.83c-.15-.62-1.12-.36-1,.27Z"/><path d="M194.55,134.53l.74,2a.57.57,0,0,0,.23.3.53.53,0,0,0,.39.05.51.51,0,0,0,.35-.62l-.75-1.95a.5.5,0,0,0-.23-.3.5.5,0,0,0-.73.56Z"/><path d="M196.21,136.89l3.26-1.46a.49.49,0,0,0,.18-.68.5.5,0,0,0-.68-.18L195.7,136a.5.5,0,1,0,.51.86Z"/><path d="M199.66,134.59l-.7-2.17a.5.5,0,0,0-1,.27l.71,2.16a.5.5,0,1,0,1-.26Z"/><path d="M197.68,135.55l-.53-2.33a.52.52,0,0,0-.62-.35.52.52,0,0,0-.35.62l.54,2.33a.5.5,0,0,0,.61.35.51.51,0,0,0,.35-.62Z"/><path d="M210.18,127.91l.74,2a.57.57,0,0,0,.23.3.53.53,0,0,0,.39.05.51.51,0,0,0,.35-.62l-.74-2a.5.5,0,0,0-.62-.35.51.51,0,0,0-.35.62Z"/><path d="M211.84,130.26l3.27-1.46a.5.5,0,0,0-.51-.86l-3.27,1.46a.5.5,0,1,0,.51.86Z"/><path d="M215.29,128l-.7-2.16a.51.51,0,0,0-.62-.35.5.5,0,0,0-.34.61l.7,2.16a.5.5,0,1,0,1-.26Z"/><path d="M213.31,128.92l-.53-2.33a.5.5,0,1,0-1,.27l.53,2.33a.52.52,0,0,0,.62.35.51.51,0,0,0,.34-.62Z"/><path d="M217,125l.74,2a.53.53,0,0,0,.23.3.51.51,0,0,0,.38,0,.5.5,0,0,0,.35-.61l-.74-2a.5.5,0,1,0-1,.27Z"/><path d="M218.61,127.39l3.27-1.46a.5.5,0,0,0-.5-.87l-3.27,1.46a.5.5,0,0,0-.18.69.51.51,0,0,0,.68.18Z"/><path d="M222.07,125.08l-.71-2.16a.5.5,0,0,0-.61-.35.51.51,0,0,0-.35.62l.7,2.16a.52.52,0,0,0,.62.35.51.51,0,0,0,.35-.62Z"/><path d="M220.09,126.05l-.54-2.33a.49.49,0,0,0-.61-.35.5.5,0,0,0-.35.61l.54,2.33a.49.49,0,0,0,.61.35.5.5,0,0,0,.35-.61Z"/><path d="M228.49,120.48l.74,2a.57.57,0,0,0,.23.3.5.5,0,0,0,.73-.57l-.74-2a.57.57,0,0,0-.23-.3.5.5,0,0,0-.73.57Z"/><path d="M230.14,122.83l3.27-1.46a.49.49,0,0,0,.18-.68.5.5,0,0,0-.68-.18L229.64,122a.49.49,0,0,0-.18.68.5.5,0,0,0,.68.18Z"/><path d="M233.6,120.53l-.7-2.16a.51.51,0,0,0-.62-.35.5.5,0,0,0-.35.61l.71,2.16a.5.5,0,0,0,1-.26Z"/><path d="M231.62,121.49l-.54-2.33a.5.5,0,0,0-.61-.35.52.52,0,0,0-.35.62l.54,2.33a.5.5,0,0,0,.61.35.52.52,0,0,0,.35-.62Z"/><path d="M234.15,118.16l.74,2a.57.57,0,0,0,.23.3.56.56,0,0,0,.38,0,.51.51,0,0,0,.35-.62l-.74-1.95a.53.53,0,0,0-.23-.3.51.51,0,0,0-.38,0,.5.5,0,0,0-.35.61Z"/><path d="M235.8,120.52l3.27-1.46a.5.5,0,0,0,.18-.69.51.51,0,0,0-.68-.18l-3.27,1.47a.49.49,0,0,0-.18.68.5.5,0,0,0,.68.18Z"/><path d="M239.26,118.22l-.7-2.17a.52.52,0,0,0-.62-.35.51.51,0,0,0-.35.62l.71,2.16a.5.5,0,0,0,1-.26Z"/><path d="M237.28,119.18l-.54-2.33a.5.5,0,0,0-.61-.35.52.52,0,0,0-.35.62l.54,2.33a.49.49,0,0,0,.61.34.5.5,0,0,0,.35-.61Z"/><path d="M245.78,113.25l.74,2a.57.57,0,0,0,.23.3.59.59,0,0,0,.39,0,.51.51,0,0,0,.34-.62l-.74-2a.5.5,0,0,0-.23-.3.5.5,0,0,0-.73.56Z"/><path d="M247.44,115.61l3.26-1.46a.5.5,0,0,0,.18-.69.51.51,0,0,0-.68-.18l-3.27,1.47a.5.5,0,0,0-.18.68.51.51,0,0,0,.69.18Z"/><path d="M250.89,113.31l-.7-2.17a.5.5,0,0,0-1,.27l.71,2.16a.5.5,0,1,0,1-.26Z"/><path d="M248.91,114.27l-.53-2.33a.5.5,0,0,0-1,.27l.54,2.33a.49.49,0,0,0,.61.34.5.5,0,0,0,.35-.61Z"/><path d="M48.22,174.28a7.07,7.07,0,0,0,1.69,3,.51.51,0,0,0,.71,0,.52.52,0,0,0,0-.71q-.13-.14-.27-.3l-.12-.14h0a.35.35,0,0,0,0-.08,5.1,5.1,0,0,1-.43-.67l-.18-.33-.08-.17s0-.07,0-.11,0,0,0,0c-.09-.24-.18-.49-.25-.75a.5.5,0,1,0-1,.26Z"/><path d="M56.32,193.13a10.28,10.28,0,0,0,2.89,5.41c.46.46,1.17-.25.71-.7a9.46,9.46,0,0,1-2.64-5,.5.5,0,1,0-1,.27Z"/><path d="M49.69,173.56a.53.53,0,0,0,.8-.05.59.59,0,0,0,.06-.66.58.58,0,0,0-.67-.27.82.82,0,0,0-.45.39,7.75,7.75,0,0,0-.37.83q-.16.4-.3.81a.51.51,0,0,0,.35.62.51.51,0,0,0,.61-.35,8.79,8.79,0,0,1,.34-.9l-.05.12c.06-.14.12-.28.19-.42l.09-.2a.43.43,0,0,0,0-.07c0,.07-.07.09,0,.05s-.09.07,0,0l-.12.05h0l-.14,0h0l-.14,0h0l-.12-.06c-.14-.17-.19-.22-.15-.14l0-.12h0l0-.13a0,0,0,0,1,0,0l0-.13v0l0-.12c0,.09-.07,0,.14-.13l.12,0h0l.14,0h0l.13,0h0l.12,0,.08.06a.49.49,0,0,0-.7,0,.5.5,0,0,0,0,.71Z"/><path d="M50.73,173.68l1.35,3.41a.53.53,0,0,0,.62.35.51.51,0,0,0,.35-.62l-1.35-3.4a.52.52,0,0,0-.62-.35.5.5,0,0,0-.35.61Z"/><path d="M90.1,96.86l.18-2.74a1.56,1.56,0,0,0-.44-1.06,1.52,1.52,0,0,0-1.06-.44,1.54,1.54,0,0,0-1.06.44,1.61,1.61,0,0,0-.44,1.06l-.18,2.74a1.52,1.52,0,0,0,.44,1.06,1.56,1.56,0,0,0,1.06.44,1.54,1.54,0,0,0,1.06-.44,1.68,1.68,0,0,0,.44-1.06Z"/><path d="M89.26,95.12q4.2-1.74,8.46-3.31a1.53,1.53,0,0,0,1-1.85,1.5,1.5,0,0,0-1.84-1c-2.84,1-5.67,2.15-8.47,3.31a1.54,1.54,0,0,0-1,1.84,1.51,1.51,0,0,0,1.84,1.05Z"/><path d="M95.78,90.43l-.16,2.9a1.47,1.47,0,0,0,.44,1.06,1.54,1.54,0,0,0,1.06.44,1.56,1.56,0,0,0,1.06-.44,1.71,1.71,0,0,0,.44-1.06l.16-2.9a1.5,1.5,0,0,0-1.5-1.5,1.54,1.54,0,0,0-1.06.44,1.61,1.61,0,0,0-.44,1.06Z"/><path d="M84.31,100.07l4.47-2a1.55,1.55,0,0,0,.69-.9,1.5,1.5,0,0,0-1-1.85,1.71,1.71,0,0,0-1.15.16l-4.47,2a1.49,1.49,0,0,0-.69.9,1.53,1.53,0,0,0,.15,1.15,1.49,1.49,0,0,0,.9.69,1.7,1.7,0,0,0,1.15-.15Z"/><path d="M81.76,99.26l-.68,5.45a1.46,1.46,0,0,0,.44,1.06,1.5,1.5,0,0,0,2.12,0,1.71,1.71,0,0,0,.44-1.06l.68-5.45a1.52,1.52,0,0,0-.44-1.06,1.56,1.56,0,0,0-1.06-.44,1.54,1.54,0,0,0-1.06.44,1.71,1.71,0,0,0-.44,1.06Z"/><path d="M98,94.82q2.17-1.25,4.44-2.33a1.5,1.5,0,0,0-.36-2.74,1.65,1.65,0,0,0-1.15.15Q98.63,91,96.46,92.23A1.5,1.5,0,1,0,98,94.82Z"/><path d="M100.35,91.4l-.46,6.26a1.51,1.51,0,0,0,1.5,1.5,1.54,1.54,0,0,0,1.5-1.5l.46-6.26a1.5,1.5,0,0,0-1.5-1.5,1.54,1.54,0,0,0-1.5,1.5Z"/><path d="M66.26,107.1l.18-2.74a1.5,1.5,0,0,0-1.5-1.5,1.54,1.54,0,0,0-1.06.44,1.66,1.66,0,0,0-.44,1.06l-.18,2.74a1.5,1.5,0,0,0,1.5,1.5,1.54,1.54,0,0,0,1.06-.44,1.63,1.63,0,0,0,.44-1.06Z"/><path d="M65.42,105.36c2.8-1.16,5.63-2.26,8.47-3.31a1.54,1.54,0,0,0,1-1.85,1.52,1.52,0,0,0-1.85-1q-4.26,1.57-8.46,3.31a1.54,1.54,0,0,0-1,1.84,1.51,1.51,0,0,0,1.84,1Z"/><path d="M71.94,100.67l-.16,2.9a1.5,1.5,0,0,0,1.5,1.5,1.54,1.54,0,0,0,1.06-.44,1.61,1.61,0,0,0,.44-1.06l.16-2.9a1.47,1.47,0,0,0-.44-1.06,1.54,1.54,0,0,0-1.06-.44,1.56,1.56,0,0,0-1.06.44,1.71,1.71,0,0,0-.44,1.06Z"/><path d="M60.48,110.31l4.47-2a1.49,1.49,0,0,0,.53-2,1.43,1.43,0,0,0-.89-.69,1.67,1.67,0,0,0-1.16.15l-4.47,2a1.5,1.5,0,0,0,.36,2.74,1.73,1.73,0,0,0,1.16-.15Z"/><path d="M57.92,109.5,57.24,115a1.5,1.5,0,0,0,.44,1.06,1.52,1.52,0,0,0,1.06.44A1.5,1.5,0,0,0,59.8,116a1.71,1.71,0,0,0,.44-1.06l.68-5.45a1.47,1.47,0,0,0-.44-1.06,1.5,1.5,0,0,0-2.12,0,1.71,1.71,0,0,0-.44,1.06Z"/><path d="M74.14,105.06q2.17-1.25,4.44-2.33a1.46,1.46,0,0,0,.69-.9,1.49,1.49,0,0,0-.15-1.15,1.47,1.47,0,0,0-.89-.69,1.67,1.67,0,0,0-1.16.15c-1.51.72-3,1.5-4.45,2.33a1.5,1.5,0,0,0,1.52,2.59Z"/><path d="M76.51,101.64l-.46,6.26a1.51,1.51,0,0,0,1.5,1.5,1.54,1.54,0,0,0,1.5-1.5l.46-6.26a1.5,1.5,0,0,0-1.5-1.5,1.54,1.54,0,0,0-1.5,1.5Z"/><path d="M72,156.62l-6.32-16.39a1.55,1.55,0,0,0-1.85-1,1.52,1.52,0,0,0-1,1.85l6.33,16.39a1.54,1.54,0,0,0,1.85,1.05,1.51,1.51,0,0,0,1-1.85Z"/><path d="M61.65,130.89q-2.57-7.12-5.42-14.15a1.54,1.54,0,0,0-1.85-1,1.5,1.5,0,0,0-1,1.84q2.85,7,5.42,14.14a1.5,1.5,0,1,0,2.89-.79Z"/><path d="M57.31,134.67a19.63,19.63,0,0,1,3.34-2,1.5,1.5,0,0,0,.69-.89,1.5,1.5,0,0,0-1.05-1.85l-.4,0a1.5,1.5,0,0,0-.75.2,19.72,19.72,0,0,0-3.35,2,1.31,1.31,0,0,0-.42.39,1.14,1.14,0,0,0-.27.51,1.53,1.53,0,0,0,.15,1.15,1.51,1.51,0,0,0,.9.69,1.43,1.43,0,0,0,1.16-.15Z"/><path d="M51.88,119.49a6.4,6.4,0,0,1,.49-.42l-.3.24a5.93,5.93,0,0,1,1.31-.77l-.36.15a6,6,0,0,1,1.18-.36,1.5,1.5,0,0,0,1-1.85,1.47,1.47,0,0,0-.69-.89,1.64,1.64,0,0,0-1.15-.16,7.6,7.6,0,0,0-3.64,1.94,1.5,1.5,0,0,0,0,2.12,1.52,1.52,0,0,0,1.06.44,1.59,1.59,0,0,0,1.06-.44Z"/><path d="M61.54,143.1a7.78,7.78,0,0,1,1.81-1l-.36.15c.2-.08.4-.16.6-.22a1.67,1.67,0,0,0,.9-.69,1.62,1.62,0,0,0,.15-1.16,1.59,1.59,0,0,0-.69-.9,1.52,1.52,0,0,0-1.16-.15A9.59,9.59,0,0,0,60,140.51a1.18,1.18,0,0,0-.42.38,1.26,1.26,0,0,0-.27.51,1.5,1.5,0,0,0,1.05,1.85l.4.05a1.57,1.57,0,0,0,.76-.2Z"/><path d="M156.21,168a1.5,1.5,0,0,0,0-3,1.5,1.5,0,0,0,0,3Z"/><path d="M158.56,164.53a1.5,1.5,0,0,0,0-3,1.5,1.5,0,0,0,0,3Z"/><path d="M56.34,117.38l16.09-7.85c.58-.28.08-1.14-.5-.86l-16.09,7.85c-.58.28-.08,1.14.5.86Z"/><path d="M72.6,109.34q8.75-3.93,17.64-7.52c.59-.24.34-1.21-.26-1q-9,3.63-17.88,7.62c-.59.26-.08,1.12.5.86Z"/><path d="M90.88,101.67l1.93-.74a.5.5,0,0,0,.35-.62.52.52,0,0,0-.61-.35l-1.94.74a.5.5,0,0,0-.35.62.51.51,0,0,0,.62.35Z"/><path d="M93.19,100.77l.64-.12a.56.56,0,0,0,.17-.09.57.57,0,0,0,.13-.14.6.6,0,0,0,.06-.19.45.45,0,0,0,0-.2.53.53,0,0,0-.23-.3l-.12,0a.62.62,0,0,0-.27,0l-.64.13a.56.56,0,0,0-.17.09.35.35,0,0,0-.13.14.6.6,0,0,0-.06.19.46.46,0,0,0,0,.2.51.51,0,0,0,.23.29l.12,0a.42.42,0,0,0,.27,0Z"/><path d="M80.69,93.91l5.68-2.8c.58-.28.07-1.14-.5-.86L80.18,93c-.57.29-.07,1.15.51.87Z"/><path d="M88.38,94l-1.49-3.79a.52.52,0,0,0-.62-.35.5.5,0,0,0-.35.61l1.5,3.8a.5.5,0,1,0,1-.27Z"/><path d="M96.49,87.29l.81,1.59a.5.5,0,1,0,.86-.5l-.81-1.6a.5.5,0,0,0-.68-.18.52.52,0,0,0-.18.69Z"/><path d="M96.42,87.74l3.24-1.17a.5.5,0,0,0-.26-1l-3.24,1.16a.5.5,0,0,0,.26,1Z"/><path d="M78.28,90.45l1.89,3.41a.5.5,0,0,0,.86-.5L79.14,90a.49.49,0,0,0-.68-.18.5.5,0,0,0-.18.68Z"/><path d="M57,104.85a63.63,63.63,0,0,0,6.83-2.95c.58-.29.07-1.16-.5-.87a60.92,60.92,0,0,1-6.59,2.85c-.6.22-.34,1.19.26,1Z"/><path d="M63.89,102.29h0v.1l-.05.12s0,0,0,0l-.08.1h0l-.1.08h0l-.12,0h-.16l.1,0-.12,0,.1.06-.1-.08a1.73,1.73,0,0,1,.31.35l-.07-.1a3.77,3.77,0,0,1,.45.78l0-.12a3.71,3.71,0,0,1,.16.47.5.5,0,1,0,1-.26,4,4,0,0,0-.74-1.47,1.49,1.49,0,0,0-.63-.54.73.73,0,0,0-.46,0A.56.56,0,0,0,63,102a.71.71,0,0,0-.1.31.53.53,0,0,0,.15.36.52.52,0,0,0,.35.14.48.48,0,0,0,.36-.14.6.6,0,0,0,.14-.36Z"/><path d="M72.05,99.24l.72,1.45a.51.51,0,0,0,.69.18.52.52,0,0,0,.18-.69l-.73-1.45a.5.5,0,0,0-.68-.18.52.52,0,0,0-.18.69Z"/><path d="M72.68,99.15l4.24-2.43a.5.5,0,0,0-.5-.86l-4.24,2.42a.5.5,0,0,0,.5.87Z"/><path d="M74.28,92.32a26.32,26.32,0,0,1,1.79,4.07.52.52,0,0,0,.62.35.5.5,0,0,0,.35-.61,28.56,28.56,0,0,0-1.89-4.32c-.31-.56-1.17-.06-.87.51Z"/><path d="M74.84,92.35l3.62-1.5a.52.52,0,0,0,.35-.62.49.49,0,0,0-.61-.34l-3.63,1.5a.52.52,0,0,0-.35.61.5.5,0,0,0,.62.35Z"/><path d="M48.31,108.25A63.55,63.55,0,0,1,51.08,117c.15.62,1.12.36,1-.27A65,65,0,0,0,49.28,108c-.24-.59-1.21-.33-1,.27Z"/><path d="M50.29,108.2l6.76-3.3c.58-.28.07-1.14-.51-.86l-6.76,3.3c-.58.28-.07,1.14.51.86Z"/><path d="M103.78,89.42,92.45,61.26c-.71-1.77-3.62-1-2.89.8l11.32,28.16c.72,1.77,3.62,1,2.9-.8Z"/><path d="M79.94,93.78A15.85,15.85,0,0,1,80,96.7a.49.49,0,0,0,.5.5.51.51,0,0,0,.5-.5,15.85,15.85,0,0,0-.09-2.92c0-.26-.21-.52-.5-.5s-.54.22-.5.5Z"/><path d="M80.78,97.12a46.31,46.31,0,0,0,5.47-2.82c.55-.33,0-1.2-.5-.86a47.1,47.1,0,0,1-5.47,2.82.49.49,0,0,0-.18.68.5.5,0,0,0,.68.18Z"/><path d="M85.72,94.24l.85,1.93a.49.49,0,0,0,.69.17.51.51,0,0,0,.23-.29.65.65,0,0,0,0-.39l-.85-1.92a.5.5,0,0,0-.3-.23.49.49,0,0,0-.39,0,.53.53,0,0,0-.23.3.62.62,0,0,0,0,.38Z"/><path d="M80.33,97l1.11,2.27a.51.51,0,0,0,.69.18.51.51,0,0,0,.18-.68l-1.12-2.27a.51.51,0,0,0-.69-.18.5.5,0,0,0-.17.68Z"/><path d="M74.14,101a14.53,14.53,0,0,1,2.56-1.42.49.49,0,0,0,.18-.68.51.51,0,0,0-.68-.18,13.91,13.91,0,0,0-2.56,1.42.5.5,0,0,0-.18.68.5.5,0,0,0,.68.18Z"/><path d="M76.05,96.57l-.27,1.76a.59.59,0,0,0,0,.39.51.51,0,0,0,.69.18.52.52,0,0,0,.23-.3L77,96.84a.5.5,0,0,0-.35-.62.51.51,0,0,0-.38,0,.52.52,0,0,0-.23.3Z"/><path d="M76.24,99.53A8.91,8.91,0,0,0,78,101.1a.53.53,0,0,0,.39.05.56.56,0,0,0,.29-.23.51.51,0,0,0-.17-.69l-.23-.16-.1-.07c.13.09,0,0,0,0a5,5,0,0,1-.42-.36,9.33,9.33,0,0,1-.76-.78.48.48,0,0,0-.7,0,.5.5,0,0,0,0,.7Z"/><path d="M58.53,106.9l4.31-2.32c.57-.3.06-1.16-.51-.86L58,106c-.57.31-.07,1.17.5.86Z"/><path d="M62.13,102.22a5.8,5.8,0,0,0-.25,1.71.51.51,0,0,0,.5.5.5.5,0,0,0,.5-.5,6.3,6.3,0,0,1,0-.75l0,.13a5.84,5.84,0,0,1,.18-.83.5.5,0,0,0-.34-.61.52.52,0,0,0-.62.35Z"/><path d="M57.66,107a9.25,9.25,0,0,1,1.13,1.21l-.08-.11.13.18a.52.52,0,0,0,.3.23.49.49,0,0,0,.39,0,.48.48,0,0,0,.23-.29.48.48,0,0,0,0-.39,9.43,9.43,0,0,0-1.34-1.48.53.53,0,0,0-.36-.15.47.47,0,0,0-.35.15.5.5,0,0,0,0,.7Z"/><path d="M55.81,133.89l.61,1.64a.5.5,0,0,0,.23.3.46.46,0,0,0,.38,0,.5.5,0,0,0,.35-.61l-.6-1.64a.58.58,0,0,0-.23-.3.53.53,0,0,0-.39-.05.5.5,0,0,0-.35.61Z"/><path d="M51.72,139.61q2.76-1.79,5.62-3.42c.56-.31,0-1.18-.51-.86-1.9,1.09-3.78,2.22-5.62,3.41-.54.35,0,1.22.51.87Z"/><path d="M50.78,140.16c.2.1.27.34.35.53a2.52,2.52,0,0,0,.4.74c.61.66,1.43.18,2.09-.12l5.44-2.5c.59-.27.08-1.13-.5-.86l-4.89,2.24c-.39.17-.77.38-1.17.53-.24.09-.26,0-.36-.19-.23-.47-.35-1-.85-1.24s-1.08.57-.51.87Z"/><path d="M58.3,138.81c.23.4.46.81.66,1.23.1.21.2.42.29.63,0,.05,0,.11.08.17s.06.14,0,.06l.15.35a.5.5,0,1,0,1-.27,20.69,20.69,0,0,0-1.3-2.68.51.51,0,0,0-.68-.18.51.51,0,0,0-.18.69Z"/><path d="M45.46,170.35q13.11-5.65,25.91-12c1.73-.86.21-3.45-1.51-2.59q-12.8,6.36-25.92,12c-1.76.76-.24,3.34,1.52,2.59Z"/><path d="M42.43,169.48a9.06,9.06,0,0,0,.38,2,9.6,9.6,0,0,0,.83,1.85,1.52,1.52,0,0,0,.9.69,1.5,1.5,0,0,0,1.15-.15,1.52,1.52,0,0,0,.69-.9,1.54,1.54,0,0,0-.15-1.15,8,8,0,0,1-.44-.88l.15.36a8.18,8.18,0,0,1-.54-2l.06.4,0-.27a1.61,1.61,0,0,0-.44-1.06,1.52,1.52,0,0,0-1.06-.44,1.5,1.5,0,0,0-1.06.44,1.44,1.44,0,0,0-.44,1.06Z"/><path d="M40.08,177a30.86,30.86,0,0,0,5.81-2.67,1.5,1.5,0,1,0-1.52-2.59,25,25,0,0,1-2.61,1.38l-.68.31c-.33.14.31-.13,0,0l-.37.16-1.41.51a1.5,1.5,0,0,0,.79,2.9Z"/><path d="M36.25,116.24a16.76,16.76,0,0,0,1.63,3.42,1.62,1.62,0,0,0,.89.69,1.5,1.5,0,0,0,1.85-1,1.52,1.52,0,0,0-.15-1.16A15,15,0,0,1,39.33,116l.15.36c-.12-.3-.24-.59-.34-.89a1.63,1.63,0,0,0-.69-.9,1.61,1.61,0,0,0-1.16-.15,1.54,1.54,0,0,0-.89.69,1.48,1.48,0,0,0-.15,1.16Z"/><path d="M23,122.2a129.75,129.75,0,0,0,15-5.55,1.5,1.5,0,0,0,.53-2.05,1.53,1.53,0,0,0-2-.54,122.66,122.66,0,0,1-14.28,5.25c-1.84.55-1.05,3.45.8,2.89Z"/><path d="M41.23,123.4c3.53-1.52,7.14-2.86,10.8-4.05a1.5,1.5,0,1,0-.8-2.89c-3.91,1.27-7.74,2.73-11.51,4.35a1.5,1.5,0,0,0-.54,2,1.54,1.54,0,0,0,2,.54Z"/><path d="M21.53,113.45a34.84,34.84,0,0,0,6.79-2.52,1.5,1.5,0,0,0,.54-2.05,1.53,1.53,0,0,0-2.05-.54c-.51.25-1,.48-1.53.71-.16.06-.15.06,0,0l-.22.09-.34.13q-.39.17-.78.3a33.28,33.28,0,0,1-3.22,1,1.5,1.5,0,0,0,.79,2.89Z"/><path d="M26.44,110.77l.06.15-.15-.36a18.13,18.13,0,0,1,1.19,4.2,1.47,1.47,0,0,0,.69.89,1.54,1.54,0,0,0,1.15.16,1.56,1.56,0,0,0,.9-.69,1.78,1.78,0,0,0,.15-1.16,19.27,19.27,0,0,0-1.4-4.7,1.52,1.52,0,0,0-.9-.69,1.5,1.5,0,0,0-1.84,1.05l-.05.4a1.41,1.41,0,0,0,.2.75Z"/><path d="M57.34,103.8l-3-6.82a1.5,1.5,0,0,0-2-.53,1.54,1.54,0,0,0-.54,2l3,6.82a1.52,1.52,0,0,0,2.06.54,1.56,1.56,0,0,0,.54-2.06Z"/><path d="M29.55,115.49l16.63-6.21a1.54,1.54,0,0,0,1-1.84,1.52,1.52,0,0,0-1.85-1L28.75,112.6a1.54,1.54,0,0,0-1.05,1.85,1.51,1.51,0,0,0,1.85,1Z"/><path d="M41.73,102.58a15.43,15.43,0,0,1,1.49,2.58l.07.18q.1.22,0-.09c0,.06.11.28.14.35s.16.42.23.64a14.7,14.7,0,0,1,.41,1.48,1.51,1.51,0,0,0,1.85,1,1.53,1.53,0,0,0,1-1.84,16.61,16.61,0,0,0-2.62-5.85,1.61,1.61,0,0,0-.89-.69,1.5,1.5,0,0,0-1.7,2.2Z"/><path d="M44.19,102.15A88.58,88.58,0,0,1,53,98.54a1.5,1.5,0,1,0-.8-2.89,99.72,99.72,0,0,0-9.53,3.9,1.52,1.52,0,0,0-.54,2.06,1.55,1.55,0,0,0,2,.54Z"/><path d="M76.92,95.24l-.36-.8c-.06-.16-.06-.15,0,0,0-.07-.07-.15-.1-.23s-.09-.23-.14-.35c-.21-.54-.41-1.09-.6-1.64-.37-1.11-.68-2.23-.94-3.37a1.5,1.5,0,1,0-2.89.79,35.43,35.43,0,0,0,2.43,7.1,1.5,1.5,0,0,0,2,.54,1.54,1.54,0,0,0,.54-2.05Z"/><path d="M73.28,90a26,26,0,0,0,4.94-2.12,1.5,1.5,0,1,0-1.51-2.59,23.91,23.91,0,0,1-2.44,1.19l.36-.15c-.7.29-1.42.55-2.15.78a1.5,1.5,0,1,0,.8,2.89Z"/><path d="M76.54,87.64c.32.54.63,1.09.91,1.66.13.26.26.53.38.8s.14.31.2.46c-.13-.32,0,.11.07.17a23.26,23.26,0,0,1,1.1,3.56,1.53,1.53,0,0,0,1.85,1,1.55,1.55,0,0,0,1-1.85,25.8,25.8,0,0,0-3-7.37,1.5,1.5,0,1,0-2.59,1.52Z"/><path d="M15.37,93.48a206.31,206.31,0,0,0,28.87-10c9.44-3.93,18.77-8.15,28.3-11.85,5.34-2.07,10.75-4,16.25-5.56a.5.5,0,0,0-.27-1A254,254,0,0,0,59.9,75.69c-9.43,4-18.8,8.2-28.43,11.72A166.77,166.77,0,0,1,15.1,92.52c-.62.15-.36,1.12.27,1Z"/><path d="M15.45,93.89c-.28,0-.32.09-.12.2a1.49,1.49,0,0,1,.17.36c.14.29.26.6.39.91l.77,1.82,1.54,3.64,3.09,7.28c.25.59,1.12.08.87-.51l-3.77-8.87L16.56,94.4c-.23-.53-.41-1.09-1-1.33a.71.71,0,0,0-1,.32c-.26.58.6,1.09.86.5Z"/><path d="M21.87,108.42A42.31,42.31,0,0,1,29.59,106c.63-.13.36-1.1-.27-1a43.35,43.35,0,0,0-7.72,2.38.53.53,0,0,0-.35.62.52.52,0,0,0,.62.35Z"/><path d="M30.28,105.39,31.56,109a.5.5,0,0,0,1-.26l-1.28-3.62a.5.5,0,0,0-1,.26Z"/><path d="M32.17,108.87l8-2.67c.61-.2.35-1.17-.27-1l-8,2.67c-.61.2-.35,1.17.26,1Z"/><path d="M38,100.11,40.15,105a.5.5,0,0,0,.87-.5L38.89,99.6a.5.5,0,0,0-.68-.18.51.51,0,0,0-.18.69Z"/><path d="M38.5,99.8a146.63,146.63,0,0,1,16.16-6.39c.6-.2.34-1.17-.27-1A150.08,150.08,0,0,0,38,98.93c-.59.28-.08,1.14.5.87Z"/><path d="M53.62,93.32,57,101.56a.53.53,0,0,0,.62.35.52.52,0,0,0,.35-.62l-3.42-8.24A.53.53,0,0,0,54,92.7a.51.51,0,0,0-.35.62Z"/><path d="M58.5,101.33,72.21,96c.6-.23.34-1.2-.26-1l-13.71,5.37c-.6.23-.34,1.2.26,1Z"/><path d="M67.77,87.3,71,95.86c.23.6,1.2.34,1-.26L68.73,87c-.23-.59-1.19-.34-1,.27Z"/><path d="M68.56,87.06q5.22-1.62,10.35-3.54c.6-.22.34-1.19-.26-1q-5.13,1.91-10.36,3.54c-.61.19-.35,1.15.27,1Z"/><path d="M79.74,83.22l1.88,6.18c.19.61,1.16.35,1-.27L80.7,83a.5.5,0,0,0-1,.27Z"/><path d="M82.29,89.78l6.18-2.38a.52.52,0,0,0,.35-.62.51.51,0,0,0-.61-.35L82,88.81a.51.51,0,0,0-.35.62.5.5,0,0,0,.61.35Z"/><path d="M87.69,87.32a2,2,0,0,1,.18.21s0,0,0,0l.05.06.08.11q.17.24.3.48c.09.16.16.33.24.49,0,0,0-.08,0,0l0,.06.06.15.09.27a.5.5,0,1,0,1-.26,6,6,0,0,0-1.24-2.24.5.5,0,0,0-.71,0,.52.52,0,0,0,0,.71Z"/><path d="M89.92,89.23a16.32,16.32,0,0,1,4.76-1.51.5.5,0,1,0-.26-1,17.35,17.35,0,0,0-5,1.6.51.51,0,0,0-.18.69.52.52,0,0,0,.69.18Z"/><path d="M92.49,85,93,86.56a.5.5,0,0,0,.61.35.49.49,0,0,0,.35-.61l-.47-1.57a.5.5,0,0,0-1,.27Z"/><path d="M93.13,84.84a8.09,8.09,0,0,0,2.79-1.7.5.5,0,1,0-.71-.71l-.28.25-.13.11-.07.06,0,0,0,0-.09.07-.15.1a3.28,3.28,0,0,1-.31.2,5.71,5.71,0,0,1-.64.35l-.15.08-.09,0h0l-.37.15a.51.51,0,0,0-.35.61.52.52,0,0,0,.62.35Z"/><path d="M88.27,66.6c1.71,2.18,2.25,5.14,3.17,7.7a85.14,85.14,0,0,0,3.39,8.14c.28.58,1.14.08.86-.5a82.9,82.9,0,0,1-3.52-8.57c-.89-2.55-1.49-5.31-3.2-7.48-.39-.5-1.1.21-.7.71Z"/><path d="M26.79,121.9q6.3,16.92,11.33,34.28c.94,3.25,1.86,6.52,2.73,9.8a.5.5,0,0,0,1-.27q-4.68-17.43-10.61-34.5-1.68-4.8-3.45-9.58c-.22-.59-1.19-.34-1,.27Z"/><path d="M27.85,122.41l8.22-2.73c.61-.2.35-1.17-.26-1l-8.23,2.74c-.61.2-.34,1.17.27,1Z"/><path d="M35.77,120.14l2.43,5.17a.5.5,0,0,0,.68.18.51.51,0,0,0,.18-.69l-2.43-5.17a.51.51,0,0,0-.68-.18.51.51,0,0,0-.18.69Z"/><path d="M39.39,125.73l14.23-5.54c.59-.23.34-1.2-.26-1l-14.23,5.55c-.59.23-.34,1.19.26,1Z"/><path d="M52.69,119.58l3.52,9.55c.22.6,1.19.34,1-.27l-3.53-9.54c-.22-.6-1.18-.34-1,.26Z"/><path d="M53.74,131.87a16.93,16.93,0,0,1,3.06-1.7.5.5,0,0,0,.18-.69.51.51,0,0,0-.68-.18A16.47,16.47,0,0,0,53.23,131a.5.5,0,1,0,.51.86Z"/><path d="M52.73,132.21a11.05,11.05,0,0,0,1,2.53.49.49,0,0,0,.68.18.5.5,0,0,0,.18-.68c-.1-.2-.21-.39-.3-.59s-.09-.19-.13-.28l0-.05-.06-.16a10.86,10.86,0,0,1-.4-1.22.5.5,0,1,0-1,.27Z"/><path d="M49.83,138.69A42.16,42.16,0,0,0,55,135.41a.53.53,0,0,0,.18-.69.52.52,0,0,0-.69-.18,39.22,39.22,0,0,1-5.17,3.28c-.56.31-.06,1.17.51.87Z"/><path d="M48.43,139.06A10.3,10.3,0,0,0,50,143.42a.52.52,0,0,0,.69.18.52.52,0,0,0,.18-.69,9.12,9.12,0,0,1-1.42-3.85.52.52,0,0,0-.5-.5.51.51,0,0,0-.5.5Z"/><path d="M51.11,144.36a50.2,50.2,0,0,0,6.68-3.54c.54-.34,0-1.2-.51-.86a47.86,47.86,0,0,1-6.68,3.53.51.51,0,0,0-.17.69.52.52,0,0,0,.68.18Z"/><path d="M57,140.61l1.35,3.95a.5.5,0,1,0,1-.26l-1.34-4a.5.5,0,0,0-1,.26Z"/><path d="M59.2,145.36l3.3-1.22a.53.53,0,0,0,.35-.62.52.52,0,0,0-.62-.35l-3.3,1.23a.5.5,0,1,0,.27,1Z"/><path d="M61.47,143.93l3.65,10.53c.21.6,1.18.34,1-.27l-3.65-10.53c-.21-.6-1.17-.34-1,.27Z"/><path d="M42,166.81l23.84-11.27c.58-.27.07-1.14-.5-.86L41.54,166c-.58.27-.08,1.13.5.86Z"/><path d="M95.14,63.81l2.27-2.5-.83-.49-1.85,5.05c-.2.55.63.85.92.38a25.61,25.61,0,0,1,6.67-7.17l-.68-.68L96.73,68.71c-.22.47.41,1.09.78.61l8.64-11.16-.78-.61-8,16.29a.5.5,0,0,0,.87.51A197.87,197.87,0,0,1,112.92,54.7l-.78-.6c-5.2,8-10.41,16.14-13.77,25.15-.2.53.65.88.92.39C103.15,72.48,107,65.28,112,58.81a69,69,0,0,1,4.49-5.3l-.78-.61a216.5,216.5,0,0,0-13.35,22.3c-1.12,2.17-2.21,4.37-3.26,6.58l.86.5A57.24,57.24,0,0,1,106.74,71c2.83-3.78,5.84-7.43,8.79-11.11l5.22-6.53-.78-.61c-4.11,8.8-10.77,16-15.57,24.4a49.21,49.21,0,0,0-3.46,7.3c-.2.53.66.89.91.38a130.55,130.55,0,0,1,14.7-22.77c1.6-2,3.27-3.94,5-5.84l-.79-.61a107.57,107.57,0,0,1-6.14,11.45c-2.33,3.9-4.68,7.78-7,11.67l-4,6.63c-.33.55.53,1,.87.5A170.77,170.77,0,0,1,122,62.06l-.79-.61L108.85,83.86l-3.57,6.45.87.51a85.42,85.42,0,0,1,16.34-22.06l-.78-.6L110.38,88a.5.5,0,0,0,.86.5q5.17-7.64,10.9-14.87l-.78-.61a57.8,57.8,0,0,0-4.61,11.16.51.51,0,0,0,.92.39,41.11,41.11,0,0,1,5.83-6.93l-.84-.49a48.72,48.72,0,0,1-2.7,6.81.51.51,0,0,0,.79.61l4-4-.84-.49-.3,1.18a.5.5,0,0,0,1,.27l.31-1.18a.51.51,0,0,0-.84-.49l-4,4,.78.6a49.14,49.14,0,0,0,2.8-7,.5.5,0,0,0-.83-.49,42.56,42.56,0,0,0-6,7.13l.92.39a55.92,55.92,0,0,1,4.5-10.92c.26-.48-.42-1.07-.78-.61Q115.62,80.21,110.38,88l.86.5,11.33-19.79a.5.5,0,0,0-.79-.6,86.39,86.39,0,0,0-16.5,22.25c-.29.57.55,1.07.87.51l12.39-22.41L122.1,62c.27-.48-.39-1.05-.78-.61a171.84,171.84,0,0,0-14.11,18.37q-1.86,2.79-3.6,5.64l.87.5,7.07-11.76c2.28-3.8,4.62-7.57,6.77-11.44,1.19-2.13,2.3-4.31,3.29-6.54.22-.48-.37-1.06-.78-.61a131.88,131.88,0,0,0-16.11,22c-1.31,2.24-2.56,4.52-3.73,6.84l.91.39c3.35-9,9.87-16.36,15-24.39a61.83,61.83,0,0,0,3.94-7.07c.22-.47-.4-1.08-.78-.61L110.7,64.34a126.58,126.58,0,0,0-8,10.75,46.34,46.34,0,0,0-3.6,6.69c-.26.57.58,1.09.86.5a215.12,215.12,0,0,1,12.57-22.74c1.31-2.07,2.66-4.11,4-6.14.32-.47-.4-1-.78-.6-5.64,6-10,13-14,20.18-1.14,2-2.25,4.1-3.36,6.15l.92.39c3.32-8.92,8.52-17,13.66-24.92.3-.47-.42-1-.79-.6A200.31,200.31,0,0,0,97.38,73.84l.87.51,8-16.3c.23-.47-.42-1.08-.79-.6L96.81,68.61l.78.61L102.5,58.9c.2-.4-.24-1-.68-.68a26.88,26.88,0,0,0-7,7.53l.92.39,1.84-5a.5.5,0,0,0-.83-.49l-2.28,2.5c-.43.47.28,1.18.71.71Z"/><path d="M86.48,109.53l.92,1.7a.53.53,0,0,0,.5.24.51.51,0,0,0,.42-.36l.26-1.81a.55.55,0,0,0,0-.38.46.46,0,0,0-.3-.23.49.49,0,0,0-.39,0,.47.47,0,0,0-.23.3l-.26,1.8.92-.12L87.34,109a.49.49,0,0,0-.68-.18.51.51,0,0,0-.18.68Z"/><path d="M88.44,111.44l1.5-1.71a.52.52,0,0,0,0-.71.51.51,0,0,0-.71,0l-1.5,1.71a.5.5,0,0,0,.71.71Z"/><path d="M104.82,99.08l.83,1.5a.5.5,0,0,0,.93-.25l.09-2a.5.5,0,0,0-.5-.5.51.51,0,0,0-.5.5l-.09,2,.93-.26-.82-1.49a.51.51,0,0,0-.69-.18.51.51,0,0,0-.18.68Z"/><path d="M106.75,100.76a5.27,5.27,0,0,1,.43-.62l-.08.1a4.92,4.92,0,0,1,.57-.64.5.5,0,0,0-.71-.71,7.37,7.37,0,0,0-1.07,1.36.51.51,0,0,0,.18.69.51.51,0,0,0,.68-.18Z"/><path d="M99.8,118.16a8.6,8.6,0,0,0,.76,1.8.49.49,0,0,0,.5.23.48.48,0,0,0,.41-.35l.35-1.78a.52.52,0,0,0-.35-.62.51.51,0,0,0-.61.35l-.35,1.78.91-.12c-.07-.13-.15-.27-.21-.4a2,2,0,0,1-.1-.21l0-.09,0-.06h0l0-.06,0-.09a1.8,1.8,0,0,0-.08-.21c-.05-.15-.09-.29-.13-.44a.52.52,0,0,0-.62-.35.53.53,0,0,0-.35.62Z"/><path d="M101.73,120.08c.1-.16.2-.31.31-.46l-.07.1a4.54,4.54,0,0,1,.79-.79.49.49,0,0,0,.15-.36.51.51,0,0,0-.5-.5l-.14,0a.71.71,0,0,0-.22.13,5,5,0,0,0-1.18,1.36.5.5,0,0,0,.86.5Z"/><path d="M118.12,115.5l.16,1.14a.42.42,0,0,0,.13.22.5.5,0,0,0,.28.14.52.52,0,0,0,.5-.24l1-1.7a.49.49,0,0,0-.18-.68.5.5,0,0,0-.68.18l-1,1.69.91.12-.16-1.14a.52.52,0,0,0-.23-.3.56.56,0,0,0-.38-.05.5.5,0,0,0-.3.23.59.59,0,0,0,0,.39Z"/><path d="M119.4,117.09l.21-.18-.1.08a3.57,3.57,0,0,1,.68-.4l-.12,0a2.91,2.91,0,0,1,.5-.16.51.51,0,0,0,.35-.62.51.51,0,0,0-.61-.35,3.61,3.61,0,0,0-1.62.87.5.5,0,0,0,.71.71Z"/><path d="M55.47,100.44a.5.5,0,0,0,0-1,.5.5,0,0,0,0,1Z"/><path d="M132.78,94.79l.77,1.54a.49.49,0,0,0,.49.24.52.52,0,0,0,.42-.36l.48-2a.51.51,0,0,0-.35-.62.5.5,0,0,0-.61.35l-.49,2,.92-.12-.77-1.55a.5.5,0,0,0-.68-.18.52.52,0,0,0-.18.69Z"/><path d="M134.41,96.59l1.43-1.68a.55.55,0,0,0,.14-.35.5.5,0,0,0-.85-.35l-1.43,1.67a.6.6,0,0,0-.14.36.5.5,0,0,0,.85.35Z"/><path d="M96.65,148.74l1.3,1a.5.5,0,0,0,.85-.36l-.23-1.88a.48.48,0,0,0-.5-.5c-.24,0-.53.22-.5.5l.23,1.88.85-.35-1.29-1a.53.53,0,0,0-.36-.15.47.47,0,0,0-.35.15.49.49,0,0,0,0,.7Z"/><path d="M99.22,149.25a1.5,1.5,0,0,1,0-.2l0,.13c0-.13,0-.27.08-.4l.06-.2,0-.08s.06-.13,0-.05,0,0,0,0a.25.25,0,0,0,0-.07c0-.07.07-.13.1-.19l.11-.17,0-.07s.11-.14,0,0a.53.53,0,0,0,.15-.35.55.55,0,0,0-.15-.36.52.52,0,0,0-.35-.14.47.47,0,0,0-.36.14,3.84,3.84,0,0,0-.58,1,3.25,3.25,0,0,0-.23,1.06.49.49,0,0,0,.5.5.51.51,0,0,0,.5-.5Z"/><path d="M112,136.82a2.58,2.58,0,0,0,.76,1.35.51.51,0,0,0,.42.14.48.48,0,0,0,.37-.24l.89-2a.53.53,0,0,0,0-.39.52.52,0,0,0-.23-.3.51.51,0,0,0-.68.18l-.9,2,.79-.1c-.08-.07-.14-.16-.22-.23s.06.07,0,0l-.05-.07-.08-.13-.07-.13s0-.11,0,0,0,0,0,0a1.58,1.58,0,0,1-.09-.31.5.5,0,0,0-.61-.35.52.52,0,0,0-.35.62Z"/><path d="M114.07,138.11l0-.07,0,.12a2.3,2.3,0,0,1,.23-.4l-.08.1a3.06,3.06,0,0,1,.36-.36l-.1.08a2.43,2.43,0,0,1,.44-.26l-.12.05a2.52,2.52,0,0,1,.47-.13l-.13,0h.06a.48.48,0,0,0,.5-.5.46.46,0,0,0-.14-.35.53.53,0,0,0-.36-.15,2.44,2.44,0,0,0-1.22.47,2.76,2.76,0,0,0-.54.54,2.16,2.16,0,0,0-.31.58.48.48,0,0,0,0,.39.53.53,0,0,0,.3.23.5.5,0,0,0,.38-.05.57.57,0,0,0,.23-.3Z"/><path d="M132.18,137.09l1.29,1.71a.54.54,0,0,0,.57.23.52.52,0,0,0,.37-.48,8.58,8.58,0,0,1,.06-1.24c0-.15,0,.1,0-.05l0-.14a1.91,1.91,0,0,1,.06-.33q.06-.3.15-.6a.5.5,0,1,0-1-.27,8.63,8.63,0,0,0-.33,2.63l.93-.25-1.3-1.71a.5.5,0,0,0-.3-.23.46.46,0,0,0-.38,0,.5.5,0,0,0-.18.68Z"/><path d="M134.49,138.44c0-.06,0-.12,0-.18l0,.14a1.4,1.4,0,0,1,.1-.35l-.05.12a1.37,1.37,0,0,1,.2-.35l-.08.11a1.24,1.24,0,0,1,.25-.26l-.1.08a1.44,1.44,0,0,1,.31-.19.48.48,0,0,0,.23-.29.49.49,0,0,0,0-.39.5.5,0,0,0-.3-.23l-.13,0a.55.55,0,0,0-.25.07,1.9,1.9,0,0,0-.81.7,2,2,0,0,0-.32,1,.51.51,0,0,0,.5.5.51.51,0,0,0,.5-.5Z"/><path d="M153.35,125.37l.67.7a.5.5,0,0,0,.83-.22l.47-1.61a.5.5,0,0,0-.35-.61.5.5,0,0,0-.61.35l-.47,1.6.83-.22-.66-.69a.5.5,0,0,0-.71,0,.49.49,0,0,0,0,.7Z"/><path d="M155.27,125.59l0-.09-.05.12a1.13,1.13,0,0,1,.12-.21l-.08.1a1,1,0,0,1,.18-.17l-.1.08a.72.72,0,0,1,.21-.12l-.12,0a.62.62,0,0,1,.23-.07l-.13,0h.09a.5.5,0,0,0,.35-.14.53.53,0,0,0,.15-.36.51.51,0,0,0-.15-.35.53.53,0,0,0-.35-.15,1.42,1.42,0,0,0-.84.31l-.16.13-.16.21a1.35,1.35,0,0,0-.19.38.59.59,0,0,0,0,.39.57.57,0,0,0,.3.23.53.53,0,0,0,.39-.06.55.55,0,0,0,.23-.29Z"/><path d="M74.26,154.07l.81,1.06a.51.51,0,0,0,.5.24A.49.49,0,0,0,76,155l.3-1.94a.5.5,0,0,0-.05-.38.46.46,0,0,0-.3-.23.49.49,0,0,0-.61.35L75,154.75l.92-.12-.81-1.07a.61.61,0,0,0-.3-.23.53.53,0,0,0-.39,0,.51.51,0,0,0-.18.69Z"/><path d="M76.23,155.14l.65-1.3a.58.58,0,0,0,.05-.39.62.62,0,0,0-.23-.3.51.51,0,0,0-.69.18l-.65,1.3a.58.58,0,0,0,0,.39.48.48,0,0,0,.23.29.51.51,0,0,0,.69-.17Z"/><path d="M173.61,148l-27.69-11.7c-.59-.25-1.1.61-.51.86l27.7,11.7c.58.25,1.09-.61.5-.86Z"/></g></g></svg>