<svg xmlns="http://www.w3.org/2000/svg" viewBox="0 0 439.74 326.26"><g id="Layer_2" data-name="Layer 2"><g id="Layer_7_132" data-name="Layer 7,132"><path d="M30.44,325.22c4,1.47,8,.69,12.21.65s8.49.15,12.82,0c7.89-.33,15.79-.51,23.69-.71,16.47-.42,33-.48,49.42-.33,33,.3,66,.95,99,1.45,9.66.15,9.66-14.85,0-15-33.34-.5-66.68-1.15-100-1.33-16.47-.09-32.95,0-49.42.46-8.23.24-16.46.7-24.68,1.23-4,.26-7.87.89-11.83,1.47-4.43.65-8.43.45-12.45,2.71s-2.76,8,1.23,9.42Z"/><path d="M230.89,326.16c18.16.19,36.64-6,53.86-11.24s34.14-10.93,51-17.09a891.89,891.89,0,0,0,100.16-44.14c8.79-4.52,1-17.77-7.75-13.26a922.24,922.24,0,0,1-98.21,43.32Q304.73,293.19,279,301c-16.76,5.07-34.74,8.9-50.29,17.09-3.9,2.06-2,8,2.19,8.08Z"/><path d="M316,18.53c1,7.56,5.45,15.36,8.3,22.43,3,7.43,6.23,14.77,9.46,22.1q9.68,22,19.72,43.86,20.29,44.13,42.06,87.55,12.28,24.5,25,48.77c4.49,8.55,17.44,1,13-7.57q-44.93-85.59-84.09-174c-3.63-8.2-7.11-16.48-10.86-24.63s-6.7-17.49-12.19-24.54c-1.66-2.13-5.36-2.23-7.53-1-2.58,1.51-3.23,4.25-2.85,7Z"/><path d="M191.8,77.94c2.58-.76,5.09-.61,7.71-1a36.39,36.39,0,0,0,8.28-2.54c4.81-1.89,9.63-3.74,14.4-5.72,10.16-4.24,20.29-8.54,30.48-12.71q30.12-12.33,60.57-23.81c9.05-3.38,5.06-18.06-4-14.57-20.56,7.9-41.06,15.93-61.44,24.28Q233,48,218.2,54.25c-5,2.16-10,4.49-15,6.83a45.07,45.07,0,0,0-7.61,4.19c-2.39,1.76-4.21,4.06-6.78,5.6-3.69,2.23-1.31,8.34,3,7.07Z"/><path d="M187.59,72.46c-.75-3.09-.7-6.07-1.84-9.1A63.39,63.39,0,0,0,181.1,54c-3.36-5.79-6.92-11.47-10.47-17.14Q160,19.86,148.55,3.35c-5.45-7.89-18.45-.4-13,7.57Q147,27.45,157.68,44.46c3.39,5.4,6.67,10.86,10,16.31a79.62,79.62,0,0,0,5.83,8.71c2.23,2.78,5,4.41,7.45,6.85a4,4,0,0,0,6.66-3.87Z"/><path d="M23.62,102.16c10.49-3.5,18.23-11.08,26.71-17.91C59.21,77.1,68.13,70,77.16,63q26.67-20.66,54.42-39.88c7.94-5.52.35-18.65-7.63-13q-28,19.65-55.14,40.58C60,57.42,51.3,64.27,42.74,71.31c-8.83,7.26-18.74,14-24.15,24.31-1.69,3.23,1.14,7.84,5,6.54Z"/><path d="M22.59,99.46c.32,6.42,3.29,11.77,6.09,17.44,3.07,6.21,6.08,12.44,9.32,18.56,6.32,11.94,12.74,23.81,19.12,35.71,4.56,8.51,17.51,1,12.95-7.57-6.37-11.9-12.69-23.83-19.13-35.7-3.13-5.79-6.47-11.46-9.77-17.16S35,99.48,29.55,95.46c-2.81-2.09-7.13.72-7,4Z"/><path d="M32,312.23c-.86-7.75-4.09-15.08-6.29-22.53a212,212,0,0,1-5.41-23.06c-2.76-15.64-2.47-31-2.86-46.82-.28-11.07-15.77-10.62-16.88,0-1.71,16.43.88,34.08,4.14,50.18A211.92,211.92,0,0,0,11,293.76c2.57,7.86,5.29,16.36,10.62,22.78,3.23,3.89,11,.85,10.4-4.31Z"/><path d="M10.06,222.81c6.57-.77,10.87-5.43,15.64-9.67s9.39-8.42,14.09-12.63c9.65-8.63,19.38-17.18,28.71-26.14,7.06-6.76-3.35-16.8-10.61-10.6-9.58,8.19-18.82,16.79-28.12,25.31q-6.61,6-13.22,12.1C12.1,205.26,6,209.51,4.63,215.69c-.68,3.19,1.56,7.57,5.43,7.12Z"/><path d="M266.86,169.91q-16.11-37.14-31.57-74.56-4.35-10.48-8.63-21a2.07,2.07,0,0,0-2.46-1.4,2,2,0,0,0-1.4,2.46q15.39,37.74,31.43,75.21,4.56,10.66,9.18,21.32a2,2,0,0,0,2.74.72,2.06,2.06,0,0,0,.71-2.74Z"/><path d="M268,173.3,304.35,155c2.29-1.16.27-4.61-2-3.46l-36.4,18.34c-2.3,1.16-.27,4.61,2,3.45Z"/><path d="M306.65,151.7,276.91,79.83l-4.19-10.14a75.25,75.25,0,0,0-4.31-9.4c-1.31-2.21-4.77-.2-3.46,2a65.08,65.08,0,0,1,3.82,8.21l3.71,9L279.73,97l14.67,35.48,8.39,20.27a2.06,2.06,0,0,0,2.46,1.4,2,2,0,0,0,1.4-2.46Z"/><path d="M226.42,75.64q19.43-5.73,39.2-10.23c2.51-.57,1.45-4.43-1.06-3.86q-19.77,4.5-39.2,10.24c-2.47.72-1.42,4.59,1.06,3.85Z"/><path d="M312.67,140.32q-12.75-34-25.84-67.84-3.68-9.51-7.38-19a2,2,0,0,0-3.93.53l-.13,1.76c-.2,2.56,3.8,2.55,4,0l.13-1.76-3.92.53q13.17,33.83,26,67.77,3.6,9.52,7.19,19.07a2.06,2.06,0,0,0,2.46,1.4,2,2,0,0,0,1.39-2.46Z"/><path d="M310,140.07a215.62,215.62,0,0,1,41.62-11.78,2,2,0,0,0,1.4-2.46,2.05,2.05,0,0,0-2.46-1.4,215.62,215.62,0,0,0-41.62,11.78,2.06,2.06,0,0,0-1.4,2.46,2,2,0,0,0,2.46,1.4Z"/><path d="M356.71,124.15A541.86,541.86,0,0,1,326.42,58q-3.66-9.69-6.95-19.49c-.51-1.51-2.84-2.11-3.66-.48l-1.52,3c-1.15,2.29,2.3,4.32,3.46,2l1.52-3-3.66-.48a549.58,549.58,0,0,0,28.14,68.25q4.58,9.27,9.5,18.37c1.23,2.27,4.68.25,3.46-2Z"/><path d="M276.28,54.39a164.6,164.6,0,0,0,19.41-8,66.51,66.51,0,0,1,19.61-6,2.06,2.06,0,0,0,2-2,2,2,0,0,0-2-2A70.25,70.25,0,0,0,295,42.35c-6.52,3-12.9,6-19.75,8.18-2.44.78-1.4,4.65,1.07,3.86Z"/><path d="M394.77,236.85c-3.23-5-4.75-10.81-6.6-16.43a125.87,125.87,0,0,0-6.75-16.14c-5.06-10.28-11.05-20.09-15.75-30.55a88.06,88.06,0,0,1-6.08-18.38c-.52-2.52-4.37-1.45-3.86,1.07,4.7,23.1,20.51,41.63,28.1,63.63,2.2,6.39,3.79,13.08,7.49,18.82,1.38,2.16,4.85.16,3.45-2Z"/><path d="M285.83,191q13-8.53,26.64-16.08c9-5,18.21-9.79,27.65-13.9a50.71,50.71,0,0,1,16-4.48l-1-3.73L353,154.21c-2.15,1.4-.15,4.86,2,3.46l2.1-1.37c1.54-1,1.1-3.9-1-3.73-10.43.82-20,5.73-29.18,10.29q-14.26,7.06-28,15.21-7.69,4.59-15.19,9.51c-2.14,1.41-.14,4.87,2,3.45Z"/><path d="M286.66,187.69l-8.52-15.1c-1.26-2.24-4.72-.22-3.45,2l8.52,15.1c1.26,2.24,4.72.22,3.45-2Z"/><path d="M276.17,174.59c10.19-6.78,21.57-11.34,32.92-15.78,5.6-2.19,11.21-4.38,16.72-6.8,5.67-2.48,11.11-5.37,16.56-8.29,3-1.6,6-3.17,9.11-4.58,1.58-.72,3.19-1.39,4.82-2,.83-.31,1.67-.59,2.51-.86l.84-.26.85-.24c.56-.07.57-.15.06-.22l-.72-.72.1.21-.27-1,0,.24.27-1-.12.2.72-.72-.17.1,1.54-.2-.19-.06c-2.46-.79-3.51,3.07-1.07,3.85a2.42,2.42,0,0,0,3-2.93c-.54-1.94-2.55-2-4.16-1.59a65.07,65.07,0,0,0-9.57,3.56c-6.22,2.79-12.08,6.27-18.16,9.34-12.13,6.13-25.09,10.36-37.55,15.74a125.63,125.63,0,0,0-20,10.56c-2.14,1.41-.14,4.88,2,3.45Z"/><path d="M395.09,244.59c4.36-.05,8.8-1.49,12.86-3,3-1.14,7.06-1.15,9.16-4,1-1.32-.39-2.9-1.73-3a3.32,3.32,0,0,0-3,1.65,2,2,0,0,0,.71,2.74,2,2,0,0,0,2.74-.72q-1.17.33-.42.33l-1.73-3c.18-.24-.11,0-.2.07a6.24,6.24,0,0,1-.68.35,14.06,14.06,0,0,1-2,.63,42.25,42.25,0,0,0-4.55,1.32c-3.51,1.28-7.37,2.58-11.13,2.62-2.57,0-2.58,4,0,4Z"/><path d="M416.81,236.51l-41-81.51-11.64-23.16c-1.16-2.3-4.61-.28-3.46,2l41,81.51,11.65,23.16c1.16,2.3,4.61.28,3.45-2Z"/><path d="M326,229.12l-11.53-19.65-1.2,2.94C326.3,209.05,336.81,200.2,349,195a45.75,45.75,0,0,1,10.55-3.14l-2.46-2.46-.58,2.57c-.56,2.5,3.3,3.57,3.86,1.06l.58-2.57a2,2,0,0,0-2.46-2.46c-13.31,2.22-24.09,10.91-35.94,16.69a55.15,55.15,0,0,1-10.39,3.91,2,2,0,0,0-1.19,2.94l11.53,19.65c1.3,2.21,4.76.2,3.45-2Z"/><path d="M328.1,231.1c6.7-6.21,15.69-8.72,24.29-11,4.45-1.2,8.92-2.36,13.25-3.93,2-.72,5.05-1.36,5.78-3.66s-1.23-5-2.33-7q-4.8-8.76-9.62-17.52c-1.24-2.25-4.7-.24-3.45,2l8.08,14.7,1.9,3.46c.31.58.63,1.15.95,1.73a11.87,11.87,0,0,0,.62,1.38c-.11-.06.81-.32.05-.14a4.79,4.79,0,0,0-.52.22c-.47.2-1,.38-1.43.57-1,.38-2.06.75-3.1,1.09-8.27,2.74-16.92,4.28-25,7.65a41.1,41.1,0,0,0-12.32,7.66c-1.89,1.75.94,4.57,2.83,2.83Z"/><path d="M241,190.17l21.81,2.92c1.12.15,1.94-1,2-2a92.62,92.62,0,0,0-.08-13,2.05,2.05,0,0,0-2-2l-2.05,0c-2.57-.06-2.57,3.94,0,4l2.05,0-2-2a92.62,92.62,0,0,1,.08,13l2-2L241,186.17a2,2,0,0,0-2,2,2.05,2.05,0,0,0,2,2Z"/><path d="M242,188l.3-9c0-1.29.05-2.59.15-3.87.07-.82,1.55-.42,2.33-.37L263,175.87c2.57.16,2.56-3.84,0-4l-10.48-.62-5.24-.31a31.47,31.47,0,0,0-4.85-.18A4.17,4.17,0,0,0,239,173c-.69,1.42-.57,3.13-.63,4.66L238,188c-.09,2.57,3.91,2.57,4,0Z"/><path d="M211.35,178a126.57,126.57,0,0,1,22-.69c2.57.14,2.56-3.86,0-4a126.57,126.57,0,0,0-22,.69,2.06,2.06,0,0,0-2,2,2,2,0,0,0,2,2Z"/><path d="M214.13,172q-.19-9.65-.06-19.3.08-4.95.25-9.9c.05-1.43,0-2.87.17-4.29s.19-1.54,1.53-1.43c3.18.28,6.36.68,9.53,1l4.66.5c1,.11,2.88,0,3.75.6s.54,2.15.56,3l.12,5,.24,9.9.25,10.65.13,5.44a23.55,23.55,0,0,1,.05,2.52c0,.1-.06.25-.05.35.07.7-.22,0,.42,0-2.56-.19-2.55,3.81,0,4,3.74.27,3.64-4.42,3.58-6.88L239,161.73l-.28-11.64-.13-5.45a33,33,0,0,0-.27-5.53c-.73-3.77-4.18-4.15-7.36-4.48l-11.29-1.2c-3.23-.34-7.27-1.31-8.72,2.53a14,14,0,0,0-.53,4.32c-.08,2-.14,4-.2,5.94q-.36,12.87-.08,25.74c.06,2.57,4.06,2.58,4,0Z"/><path d="M186.52,158.64a4.6,4.6,0,0,1-8.66-2.54,2,2,0,0,0-2.53-1.93c-3.1.83-6.83,2-9.85.28a4.5,4.5,0,0,1-2.35-2.71c-.38-1.58.47-3.11,1.3-4.39,1-1.56-.65-3.27-2.25-2.94-3.74.78-6.87-3.67-6.31-7.06.71-4.3,5-7,8.93-7.71a2,2,0,0,0,1.2-2.94c-1.48-2.17,2-4.56,3.61-5.39,2.09-1.06,6.2-2,6.74,1.33.3,1.81,2.81,1.79,3.65.48a6,6,0,0,1,5.82-2.36A6.45,6.45,0,0,1,189,122c1.11.89,1.39,2.27,2.36,3.26,1.35,1.36,3,1.14,4.64,1.7a5.43,5.43,0,0,1,2.64,2.06,6,6,0,0,1,.37,6.8,2,2,0,0,0,2.26,2.94c2.71-.74,4,3.64,4.1,5.58a17.26,17.26,0,0,1-3.05,10.71,2,2,0,0,0,.32,2.42c1.26,1.09.69,3-.2,4.15a6.31,6.31,0,0,1-4.41,2.24c-3.27.32-7.11-1.33-8.33-4.57a2.06,2.06,0,0,0-2.46-1.4,2,2,0,0,0-1.39,2.46c2,5.43,8,8.34,13.58,7.33a9.8,9.8,0,0,0,6.79-4.57c1.51-2.65,1.73-6.33-.75-8.47l.31,2.42a20.47,20.47,0,0,0,3.37-14.73c-.75-4.14-4.28-8.71-9-7.43l2.26,2.94c3.12-4.76.86-11.9-4.24-14.27a8.05,8.05,0,0,0-2-.67c-.57-.11-1.51,0-2-.41s-.67-1.23-1-1.69a8.24,8.24,0,0,0-1.43-1.63,10.64,10.64,0,0,0-7.42-2.45,9.78,9.78,0,0,0-7.83,4.36l3.66.48a6.57,6.57,0,0,0-4.39-4.86c-2.6-1-5.43-.21-7.83.94-3.8,1.8-8.44,6.67-5.44,11.06l1.19-2.94c-5.85,1.11-11.62,5.76-11.93,12.06-.29,6,5.35,11.7,11.43,10.43L161,145.33a9.76,9.76,0,0,0-1.81,7,8.05,8.05,0,0,0,3.39,5c4.09,3,9.31,1.91,13.84.71l-2.54-1.93A8.6,8.6,0,0,0,190,160.66c1.29-2.23-2.16-4.25-3.46-2Z"/><path d="M206.86,112c-3.26,2.33-8.26,3-11.45.1-2.5-2.26-3.43-6.72-1.2-9.5a2,2,0,0,0-2.83-2.83,4.24,4.24,0,0,1-4.27.34,4.67,4.67,0,0,1-2.65-4.16c-.18-4.29,3.74-7,7.7-7.14,1.87-.06,2.87-2.79,1-3.73-2.26-1.13-2.08-4.41-.66-6.19,2.13-2.66,6.44-2.68,9.48-2.21a2,2,0,0,0,2.46-2.46c0,.12.13-.25.29-.43a2.8,2.8,0,0,1,.94-.62,6.47,6.47,0,0,1,2.72-.41,8.88,8.88,0,0,1,5.1,1.81,8.69,8.69,0,0,1,2.43,10.19c-.71,1.75,1.55,3,2.94,2.26,1.62-.83,3.54.7,4.26,2.09,1.18,2.32.64,5.28.25,7.72a2,2,0,0,0,1.92,2.53c2.38,0,2.11,4.24,1.7,5.76a18.1,18.1,0,0,1-9.5,11.46,5.18,5.18,0,0,1-2.34.79,5.73,5.73,0,0,1-2.26-1.19c-2.51-1.63-5.76-3.88-5.83-7.2-.06-2.57-4.06-2.57-4,0,.08,3.88,2.56,6.77,5.49,9a20.23,20.23,0,0,0,4.79,3c2.13.81,4.23,0,6.17-1a22,22,0,0,0,8.17-7.1c2-2.79,3.65-6.45,3.61-9.94s-1.91-7.69-6-7.63l1.93,2.53c.62-3.82,1.26-8.29-1.19-11.64-2.12-2.89-5.86-4.39-9.19-2.68l2.94,2.26a12.55,12.55,0,0,0-5.4-15.44A12.82,12.82,0,0,0,205.66,69c-3,.61-5.64,3-5.07,6.26l2.46-2.46c-5-.76-11.1-.35-14.16,4.29-2.36,3.58-1.86,9.35,2.26,11.43l1-3.73c-6.61.23-12.63,5.39-11.57,12.39a8.47,8.47,0,0,0,13.62,5.4l-2.83-2.83a11.3,11.3,0,0,0,1,14.93c4.37,4.3,11.7,4.2,16.53.75a2,2,0,0,0,.72-2.73,2,2,0,0,0-2.74-.72Z"/><path d="M37.52,117.14c15.87-9.73,31.6-19.66,47-30.15q22.74-15.49,44.58-32.26,12.38-9.51,24.46-19.4c2-1.63-.86-4.45-2.83-2.83Q129.53,49.86,107.39,66t-45,30.88c-8.88,5.74-17.89,11.3-26.91,16.83-2.19,1.34-.18,4.8,2,3.45Z"/><path d="M43.42,108.92a51.37,51.37,0,0,1,1.11-7,23.44,23.44,0,0,1,.9-3.31c.3-.72.76-.88,1.5-1,4.61-1,9.63-.14,14.22.57a2.06,2.06,0,0,0,2.46-1.39,2,2,0,0,0-1.39-2.46,85.32,85.32,0,0,0-8.86-1.07C50.68,93.09,47.57,93,45,94c-2.8,1-3.51,3.54-4.17,6.17a57.93,57.93,0,0,0-1.43,8.79,2,2,0,0,0,4,0Z"/><path d="M65.5,95.68l1.91-7.9,1-4c.15-.58.31-1.17.43-1.76,0-.06.19-.45.07-.36s-.14,0,.06.08C74.15,83,79.41,84,84.66,85.17c2.51.54,3.58-3.32,1.06-3.86l-9.16-2-4.58-1c-1.4-.3-3-.85-4.42-.42A4.12,4.12,0,0,0,64.94,81c-.43,1.47-.73,3-1.09,4.46l-2.21,9.15c-.61,2.5,3.25,3.56,3.86,1.06Z"/><path d="M86.94,83.08l.89-9,.43-4.29A13.57,13.57,0,0,0,88.44,68c0-.55.27-.29-.2-.22a2.36,2.36,0,0,1,.53,0c2.81.2,5.66.84,8.45,1.26L106,70.34A2.07,2.07,0,0,0,108.47,69a2,2,0,0,0-1.39-2.46L97,65l-5-.75c-1.59-.24-3.39-.77-5-.25a3.91,3.91,0,0,0-2.53,3.53c-.22,1.68-.35,3.38-.52,5.07l-1,10.5a2,2,0,0,0,2,2,2,2,0,0,0,2-2Z"/><path d="M109.29,68.69a35.9,35.9,0,0,1,5.14-19.25l-2.26.92,14.34,3.49c2.5.61,3.57-3.25,1.07-3.86L113.23,46.5a2.06,2.06,0,0,0-2.26.92,40,40,0,0,0-5.68,21.27c0,2.57,4,2.58,4,0Z"/><path d="M130,52l.41-8.27.21-4.31c0-.64.06-1.28.1-1.92a3.84,3.84,0,0,0,.07-.47c-.13-.42.34.43-.19.13.06,0,.7,0,.94,0,.68,0,1.35.1,2,.15l4.08.31,8.34.63a2,2,0,0,0,0-4l-9.23-.7-4.61-.35a5.43,5.43,0,0,0-3.94.82,4.83,4.83,0,0,0-1.51,3.82c-.08,1.55-.15,3.11-.23,4.67L126,52a2,2,0,0,0,4,0Z"/><path d="M148.85,36.59,150,28.94a2.22,2.22,0,0,0-.2-1.54,2.06,2.06,0,0,0-1.2-.92,2,2,0,0,0-2.46,1.4L145,35.53a2.22,2.22,0,0,0,.2,1.54,2.09,2.09,0,0,0,1.2.92,2,2,0,0,0,2.46-1.4Z"/><path d="M49.26,123,96,91.81l46.54-31.09a66.67,66.67,0,0,0,10.9-8.53c2.65-2.7,5.23-5.95,9.09-6.84,2.51-.58,1.45-4.44-1.06-3.86-3.59.83-6.38,3.26-8.89,5.83A61.24,61.24,0,0,1,143.85,55c-7.57,5.31-15.37,10.31-23.06,15.44l-47,31.37L47.24,119.57c-2.13,1.42-.13,4.89,2,3.45Z"/><path d="M49.28,313.21l0-26.95,0-13.23c0-1.92.12-4-1-5.69A6.07,6.07,0,0,0,45,264.88c-3-.91-6.29.06-9.28-.95l1.46,1.92-.31-27.54-.16-13.65c0-2,.35-4.57-1.54-5.88-1.47-1-3.66-1.05-5.39-1.2a36.91,36.91,0,0,0-14.31,1.63c-2.45.77-1.4,4.64,1.06,3.86a33.57,33.57,0,0,1,14.39-1.37,12.5,12.5,0,0,0,1.59.25,2.62,2.62,0,0,1,.4.11c-.25-.39-.33-.35-.23.11a7,7,0,0,0,0,2l0,2,.1,7.94.36,31.76a2.08,2.08,0,0,0,1.47,1.93,16.43,16.43,0,0,0,5.17.65c1.42,0,3.17-.19,4.49.44,1.49.7,1,3.07,1,4.41v8l0,31.94c0,2.57,4,2.57,4,0Z"/><path d="M32.85,222.1a64.86,64.86,0,0,1,13.21.57c.76.09.54.51.57,1.3,0,1.17.07,2.33.1,3.5l.21,7,.83,28a2,2,0,0,0,3,1.73c2.8-1.55,5.23,2.5,5.75,4.67a39.71,39.71,0,0,1,.66,6.53l.47,7.21,1.82,28.13c.16,2.55,4.16,2.57,4,0l-1.61-24.89q-.4-6.33-.82-12.67c-.24-3.63-.62-7.26-3-10.14-2.27-2.68-6-4.08-9.25-2.29l3,1.72-.92-31q-.1-3.74-.22-7.49c-.08-2.35-.67-4.39-3.18-5.09a34.83,34.83,0,0,0-6.91-.85,56.39,56.39,0,0,0-7.69.07c-2.55.19-2.57,4.19,0,4Z"/><path d="M116.5,311.64c-2-1.9-2.21-4.75-1.35-7.27,1-2.95,3.69-4.88,6.56-5.81,5.78-1.88,14.57-1.4,18.69,3.67,2.07,2.55,2.63,6.28.67,9a2,2,0,1,0,3.45,2c2.47-3.45,2.16-8.12.21-11.72-2.12-3.9-6.27-6.24-10.48-7.23-7.74-1.8-18.84-.5-22.46,7.72-1.81,4.1-1.54,9.22,1.88,12.41,1.88,1.76,4.72-1.06,2.83-2.82Z"/><path d="M107.44,312.28c-3.77-5.2-.35-12.16,2.18-17.15,1.42-2.81,2.93-5.69,5.28-7.84s5.85-3.33,9-4.11c11.81-2.91,25.49.68,31.59,11.85a21.28,21.28,0,0,1,1.39,18.12l3.34-.88-1.52-1.9a2,2,0,0,0-2.83,0,2.05,2.05,0,0,0,0,2.83l1.52,1.9c1.05,1.3,2.85.34,3.34-.89,5.16-12.8-2.6-27.71-14.74-33.1a35.78,35.78,0,0,0-21.6-2.13,28.46,28.46,0,0,0-10.32,3.92c-3.15,2.13-5.3,5.28-7.07,8.6-3.49,6.56-8.06,15.84-3,22.8a2,2,0,0,0,2.73.71,2,2,0,0,0,.72-2.73Z"/><path d="M135.86,281.61a10.24,10.24,0,0,0,6.68.84,36.71,36.71,0,0,1,6.28-.52,27.49,27.49,0,0,1,11.63,3,26.76,26.76,0,0,1,14.12,18.8,27.25,27.25,0,0,1-.84,13.62c-.8,2.46,3.06,3.51,3.85,1.07a31.56,31.56,0,0,0-3.22-26.06,31,31,0,0,0-21.4-14,30.32,30.32,0,0,0-7.37-.3c-2.37.21-5.5,1.38-7.71.12s-4.27,2.19-2,3.46Z"/><path d="M211.11,313.7a26.23,26.23,0,0,0-.82-15.38,44.34,44.34,0,0,0-3.22-7.13c-.66-1.19-1.37-2.35-2.12-3.49-.45-.7-1.8-2.05-1.72-2.86l-.27,1h-.15a4.18,4.18,0,0,1,.56-.28c.45-.21.91-.39,1.36-.59l2.71-1.18,5.88-2.57,11.09-4.82,11.09-4.83a14.81,14.81,0,0,1,2.53-1.08c.7-.17.76.17,1.17.76a42.11,42.11,0,0,1,7.47,24.14,41.21,41.21,0,0,1-.25,4.58,5.55,5.55,0,0,1-.33,1.95c-.35.62-1.43.71-2.05.9l-11.84,3.59-12.79,3.88-6.63,2-3.32,1c-.47.15-.94.3-1.42.43a5.33,5.33,0,0,1-.66.17c-.34,0-.22.06.37.3l.27,1a1.41,1.41,0,0,1-.63.91h-1.06l.16,0-.89-.51.13.1-.52-.88.08.19a2.06,2.06,0,0,0,2.46,1.4,2,2,0,0,0,1.39-2.46,2.63,2.63,0,0,0-5.06.48,2.73,2.73,0,0,0,1.52,3,5.27,5.27,0,0,0,4-.05c6-1.79,12-3.64,18-5.46l18-5.47a7.17,7.17,0,0,0,3.25-1.61,6.18,6.18,0,0,0,1.44-3.71,44.47,44.47,0,0,0,.36-7.91,46.83,46.83,0,0,0-3.41-15.53,46.11,46.11,0,0,0-3.64-7.14c-1.44-2.29-3.12-4.88-6.23-4.11a25,25,0,0,0-3.87,1.59l-4.53,2-8.59,3.75-17,7.39c-1.31.57-3,1-3.75,2.3s-.29,3,.54,4.26a67.88,67.88,0,0,1,4.64,7.73c2.58,5.3,4,11.32,2.43,17.13-.68,2.49,3.18,3.55,3.86,1.06Z"/><path d="M245.5,302.84l37.21.66c2.57.05,2.57-3.95,0-4l-37.21-.66c-2.58,0-2.58,4,0,4Z"/><path d="M241.26,272.5c2-3.59,6.11-5.18,9.59-7,4-2.07,7.48-4.69,9.46-8.82,2.14-4.47,2.6-9.49,2.77-14.38.22-6.07.33-12.14.49-18.21l.57-21.16-2,2a248.78,248.78,0,0,1,46.87.17l-2-2,.58,13.94.27,6.48a53.27,53.27,0,0,1,.22,6.56c-.28,3.4-5.47,2.69-7.82,2.76l-13.79.45a2,2,0,0,0-2,2q1.27,25.29.81,50.62-.13,7.2-.4,14.39c-.1,2.58,3.9,2.57,4,0q.94-25.31.18-50.63-.22-7.19-.59-14.38l-2,2,15.26-.49c3.67-.12,8.31-.26,9.88-4.29.79-2,.44-4.39.35-6.5l-.31-7.47L311,203.11a2.05,2.05,0,0,0-2-2,248.78,248.78,0,0,0-46.87-.17,2.05,2.05,0,0,0-2,2q-.5,18.42-1,36.85c-.13,4.65-.21,9.42-1.86,13.83-1.54,4.12-4.71,6.47-8.47,8.44-4.15,2.16-8.62,4.16-11,8.42-1.27,2.25,2.19,4.26,3.45,2Z"/><path d="M175.65,217.56c-3.9.26-7.62-.87-8.59-5a10.33,10.33,0,0,1,2.71-9.09,2,2,0,0,0-1.41-3.41c-3,0-6.72,0-9.12-2.09-2.12-1.88-2.39-5.2-1.28-7.7,1.27-2.87,4.21-4.56,7.15-5.21a32.76,32.76,0,0,1,5.6-.3c1.88-.1,3.6-1,5.44-1.07,2.91-.19,5.54,3.05,4.9,5.84a2,2,0,0,0,2.46,2.46,7.69,7.69,0,0,1,6,13.53,2,2,0,0,0,.41,3.14,2.37,2.37,0,0,1,.74,3c-.7,1.71-2.59,2.79-4.11,3.66-1.71,1-3.82,2.15-5.87,1.86-1.34-.19-2.75-1.15-2.73-2.6,0-2.58-4-2.58-4,0a6.75,6.75,0,0,0,5.16,6.34c3.28.93,6.65-.55,9.46-2.15,2.56-1.46,5.29-3.44,6.08-6.46a6.26,6.26,0,0,0-2.71-7.13l.4,3.14a12,12,0,0,0,2.73-13.88c-2.24-4.72-7.63-7.09-12.64-6.34l2.46,2.46a9.11,9.11,0,0,0-5-10.08,8.84,8.84,0,0,0-6.4-.34,13.47,13.47,0,0,1-3.72.61,32.24,32.24,0,0,0-3.68.09c-4.36.52-8.64,2.59-11,6.41a11.23,11.23,0,0,0-.05,11.83c3,4.42,8.49,4.91,13.38,4.95l-1.42-3.42a14.42,14.42,0,0,0-3.67,13.27c1.47,5.68,6.88,8,12.38,7.67,2.55-.17,2.57-4.17,0-4Z"/><path d="M221.51,215.46a6.44,6.44,0,1,1-5.24-11.7,2,2,0,0,0,1.44-2.2,2,2,0,0,0-2-1.73c-2.53.3-4-2.66-3.17-4.83,1.06-2.77,4.37-4.18,7.12-4.49a13.53,13.53,0,0,1,5,.37,13,13,0,0,1,2.42.88c1,.48,1.66,1,2.78.74a5.91,5.91,0,0,1,6.58,3.22c1.94,3.54.37,8-1.44,11.27a2,2,0,0,0,1.72,3c1.56,0,1.69,2.08,1.28,3.16-.77,2-2.74,3.74-4.39,5s-3.62,2.42-5.68,2a4.21,4.21,0,0,1-3.2-3.49,2.05,2.05,0,0,0-2-2,2,2,0,0,0-2,2,8.34,8.34,0,0,0,5.8,7.26c3.6,1.06,7.12-.67,9.88-2.88s5.51-5.08,5.82-8.65c.28-3.18-2.18-6.47-5.51-6.4l1.73,3c2.54-4.52,4.06-10.29,1.52-15.15-2.07-4-6.92-6.66-11.33-5.16l1.54.2c-5.78-3.39-14.36-3.63-19.29,1.49a8.26,8.26,0,0,0-2.15,8.49c1,2.87,3.77,5.33,7,5l-.53-3.93c-5.59,1.94-8.82,8.6-6.42,14.13s9.56,7.68,14.74,4.88c2.26-1.23.24-4.68-2-3.45Z"/><path d="M218.08,270.85a5.56,5.56,0,0,1-8.73-2.82c-1.13-3.85-.15-9.43,3.47-11.68a2,2,0,0,0-1.55-3.65c-1.54.41-3-1.12-3.17-2.59-.2-2,1.44-3.82,3.06-4.75,2.18-1.24,4.81-1.42,7.26-1.49a6.42,6.42,0,0,1,3.17.36,1.13,1.13,0,0,1,.58.65.66.66,0,0,1,0,.37s.21-.25-.19.09l3.34,1.94c.52-1.8,3-2.36,4.54-1.67,2.46,1.08,3.1,4.24,2.94,6.63-.14,1.91,2.19,2.39,3.41,1.41s3,.18,3.75,1.15a10.23,10.23,0,0,1,1.83,4.86,13.78,13.78,0,0,1-2.67,10.12,2.07,2.07,0,0,0,0,2.83,2,2,0,0,0,2.83,0,17.9,17.9,0,0,0,3.38-15.53c-.68-2.6-2-5.27-4.39-6.71a6.48,6.48,0,0,0-7.56.45l3.42,1.42c.29-4.25-1.68-9-6-10.51-3.71-1.3-8.27.63-9.39,4.49-.6,2.06,1.89,3.14,3.34,1.95a4.3,4.3,0,0,0,.89-5.13,5.54,5.54,0,0,0-4.21-3,21.53,21.53,0,0,0-6.41.06,15.8,15.8,0,0,0-6,1.8c-3.21,1.84-5.72,5.58-4.88,9.39.78,3.58,4.46,6.21,8.08,5.25l-1.54-3.65c-5.3,3.29-7.21,11.25-5.05,16.94s9.37,8.17,14.35,4.46a2.06,2.06,0,0,0,.72-2.74,2,2,0,0,0-2.74-.71Z"/><path d="M51.69,251.92c3.11,5.28,9.89,9.42,16.09,7.15,5.59-2,9-8.38,6.56-14l-3.46,2a7.15,7.15,0,0,0,9.31,1.71,10.28,10.28,0,0,0,4.94-7.95c.84-7.39-6.2-12.68-13-12.68l1,3.73c4.89-3.35,6.77-10.43,3.57-15.59a11.85,11.85,0,0,0-15.51-3.92l2.73,2.74c2.48-3.81,2-9.42-1.57-12.38-3.4-2.8-9-2.58-11.86.86l1.95-.51-.12,0A2,2,0,0,0,50,204a2.18,2.18,0,0,0,2.54,3.23c1.79-.61,1.88-2.78,1.64-4.36a9.34,9.34,0,0,0-6.2-7.05,12.58,12.58,0,0,0-5.38-.61,13.38,13.38,0,0,0-5.26,1.23c-1.58.92-2,3.31-.2,4.27a2.28,2.28,0,0,0,3.34-2.54c-.73-2.46-4.59-1.41-3.86,1.06l0,.15.52-1.95-.09.1L38,197l.18,0,1,.27-.15-.08.92,1.19-.07-.16v1.07L40,199l-.51.89c-.15.15.34-.1.51-.15l1.05-.26a14.11,14.11,0,0,1,2-.29,8.9,8.9,0,0,1,4.09.57,5.83,5.83,0,0,1,2.32,1.88,4.56,4.56,0,0,1,.71,1.45,3.72,3.72,0,0,1,.13.68v.35c0,.41,0,.47,0,.18l1.19-.92-.22.09,1.54.2-.12-.09,1,1.73v-.17l-.27,1,.07-.13-2.26.92.11,0a2,2,0,0,0,2-.51,4.7,4.7,0,0,1,6.44-.66c2.21,1.76,2.14,5.14.71,7.33-1.13,1.74,1.06,3.67,2.73,2.74a7.44,7.44,0,0,1,7.91,12.6,2,2,0,0,0,1,3.72c4.2,0,9,2.74,9.12,7.39a6.75,6.75,0,0,1-2,5.08c-1.09,1-3.7,2-4.82.43a2,2,0,0,0-3.46,2c1.47,3.38-1.56,7.42-4.77,8.31-4.38,1.22-8.83-1.88-11-5.51-1.3-2.21-4.76-.2-3.45,2Z"/><path d="M86.08,163.48a14.38,14.38,0,0,0-1.18,10.39,10.92,10.92,0,0,0,6.6,7.06,8.62,8.62,0,0,0,8.73-1.54,8.18,8.18,0,0,0,2.61-8.35c-.72-2.47-4.53-1.44-3.85,1.06,1.71,6.38,9.51,10,15.46,7,5.68-2.83,7.58-11.18,3.74-16.22l-.72,2.74c3.61-1.73,4.79-6.38,3.54-10-1.52-4.41-6-6.51-10.35-6.94a18.64,18.64,0,0,0-3.17,0,5.48,5.48,0,0,1-1.56.09c-.52-.14-.7-.59-1-1a9.1,9.1,0,0,0-4.85-3.64A11.6,11.6,0,0,0,88.87,147c-3.78,3.72-4.85,9.34-4.57,14.46.1,1.89,2.72,2.83,3.73,1l.48-.89c1.24-2.26-2.21-4.28-3.45-2l-.49.89,3.73,1c-.19-3.56.21-7.33,2.29-10.33a7.75,7.75,0,0,1,7.54-3.33,5,5,0,0,1,3.25,1.86,10.69,10.69,0,0,0,1.75,2.15,5,5,0,0,0,3.1,1c1.89,0,3.68-.3,5.56.11a8.32,8.32,0,0,1,4.37,2.24c1.86,1.94,1.94,5.77-.7,7a2,2,0,0,0-.72,2.73c2.47,3.25,1.72,8.6-2,10.6s-8.79-.55-9.86-4.49L99,172.1a4.23,4.23,0,0,1-1.59,4.46,4.72,4.72,0,0,1-5,.42c-4.41-2.06-4.77-7.54-2.85-11.48,1.13-2.3-2.32-4.33-3.45-2Z"/><path d="M105.87,88.3c-.52,2.17-1.05,4.53-.19,6.69a4.93,4.93,0,0,0,3.75,3.19L108.74,97c-.39,2-.79,4.27.19,6.2a4.38,4.38,0,0,0,4.13,2.54l-1-1.27c-1.45,4.06,1,8.67,3.25,12a28.53,28.53,0,0,0,8.77,8.35,27,27,0,0,0,2.71,1.44c1.24.57,2.05.9,2.44,2.3a4.48,4.48,0,0,0,2.55,3.19,5.73,5.73,0,0,0,7.15-2.61c1.8-3.92-1.56-8.19-5.3-9.19l.6,1.47a7,7,0,0,0-2.56-8.81,16,16,0,0,0-2.21-1,3.22,3.22,0,0,1-1.2-.7,2.48,2.48,0,0,1-.27-2,5,5,0,0,0-1.29-4,17.91,17.91,0,0,0-3.2-2.48c-1-.65-2.21-1.46-2.51-2.64-.24-.94.26-1.89.14-2.84a4.16,4.16,0,0,0-1.29-2.29,30.49,30.49,0,0,1-3.65-5.54,8.28,8.28,0,0,0-4.42-3.84,4.63,4.63,0,0,0-5,1.08c-.86,1,.55,2.37,1.42,1.41,1.12-1.24,2.88-.83,4.15,0,1.55,1,2.36,2.73,3.2,4.29a25.34,25.34,0,0,0,3.16,4.32c.8.94.21,2,.23,3a4.16,4.16,0,0,0,.38,1.58c1,2.14,3.36,3.13,5.09,4.53a3.57,3.57,0,0,1,1.66,2.8c0,1.72-.35,3.21,1.22,4.38s3.34,1.14,4.51,2.6a5,5,0,0,1,.73,5.09,1,1,0,0,0,.59,1.47c2.57.69,5.7,4.06,3.79,6.81-1.11,1.6-4.43,2.23-5.45.21-.69-1.39-.62-2.67-2.06-3.6s-3-1.43-4.45-2.31a26.37,26.37,0,0,1-7.34-6.74c-2.19-3-5-7.43-3.6-11.22a1,1,0,0,0-1-1.26c-3.29.24-2.78-4.21-2.4-6.21a1,1,0,0,0-.69-1.23c-3.57-.51-2.76-5-2.17-7.41.31-1.25-1.62-1.79-1.93-.54Z"/><path d="M118.76,77.43a12.37,12.37,0,0,0-.82,8.42,1,1,0,0,0,1,.74l2.54-.2-.71-1.71a6.49,6.49,0,0,0,1.9,9.69l.24-1.82c-1.74.47-1.87,2.38-1.08,3.76a3.76,3.76,0,0,0,2,1.66c.87.33,2.18.44,2.82,1.17s.2,2.54.55,3.63a5.28,5.28,0,0,0,1.56,2.3,5.36,5.36,0,0,0,5.43,1.08L133,104.92c-1.9,4.52,2.73,9.56,5.73,12.43a14.87,14.87,0,0,0,6,3.81c2.76.73,3.07-2.46,3.15-4.42a30.26,30.26,0,0,0-1.22-8.55,39.87,39.87,0,0,0-2.65-8c-2.43-4.92-6.53-8.91-10.14-13-2.22-2.49-4.43-5-6.59-7.54-1.6-1.88-3.77-4.68-6.6-3.61-1.19.45-.67,2.38.54,1.93,2-.77,3.84,2.15,5,3.46,1.6,1.88,3.23,3.73,4.86,5.57a132.81,132.81,0,0,1,9,10.53c2.72,3.8,4,8.08,5,12.57a23,23,0,0,1,.77,7.34c0,.35,0,1.45-.28,1.67s-.93-.1-1.29-.27a13.53,13.53,0,0,1-2.71-1.69,26.09,26.09,0,0,1-4.75-5c-1.42-1.89-2.87-4.26-1.86-6.65a1,1,0,0,0-1.23-1.23,3.47,3.47,0,0,1-3.83-.88c-1.32-1.39-.42-3.11-1.15-4.7a4.44,4.44,0,0,0-2.94-2.16,5,5,0,0,1-1.88-.74c-.17-.16-.85-1.16-.46-1.27a1,1,0,0,0,.24-1.82,4.5,4.5,0,0,1-1.5-6.56c.49-.6.25-1.78-.7-1.7l-2.54.2,1,.73a10.26,10.26,0,0,1,.62-6.88c.54-1.16-1.18-2.18-1.72-1Z"/><path d="M136.58,68.31A11.4,11.4,0,0,0,134,72.14c-.42,1-1.12,2.73-.65,3.83.81,1.86,3.74,1.5,4.26-.38a1,1,0,0,0-1.83-.77,5.41,5.41,0,0,0,5.8,8.36l-1.13-1.47c-2.21,3.25.41,8,4.27,8.13l-.86-1.51a6.35,6.35,0,0,0,.14,5.59A6,6,0,0,0,145.69,96c.92.7,2.59.88,3,2a8.18,8.18,0,0,1,.14,2.88,5.26,5.26,0,0,0,.67,2.86,5.07,5.07,0,0,0,2.28,1.66c1.44.69,1.63,1.58,1.53,3.1-.15,2.26.05,4.24,1.63,6a6.27,6.27,0,0,0,5.4,2.12c3.58-.47,6.19-4.23,6-7.73a6.19,6.19,0,0,0-.6-2.47c-.55-1.17-1.7-2.17-1.7-3.53,0-1.89,1.19-4-.78-5.42a7.61,7.61,0,0,0-2.45-.86c-.51-.14-.83-.13-.81-.73s.38-1.14.45-1.7a5.81,5.81,0,0,0-2.36-5.4c-.37-.26-1.26-.56-1.5-1s.09-1.14.24-1.63a3.13,3.13,0,0,0-.32-2.82c-1.17-1.67-4-2-3.13-4.61.83-2.41,3.25-3.84,4.28-6.17a4.69,4.69,0,0,0,.4-2.9c-.28-1.26-1.31-1.9-1.81-3s.11-2.45-.9-3.49a4.88,4.88,0,0,0-3-1,16.29,16.29,0,0,0-6.9.71,15,15,0,0,0-9.76,9.26c-.41,1.22,1.52,1.74,1.93.53a12.82,12.82,0,0,1,7.73-7.64,14.89,14.89,0,0,1,5.49-1,7,7,0,0,1,2.74.36c.81.42.43,2.13.8,3s1.34,1.56,1.67,2.5c.41,1.17-.38,2.41-1.05,3.31-1.25,1.68-2.86,3-3.54,5a4.07,4.07,0,0,0,1.29,4.65,17.8,17.8,0,0,1,1.92,1.4c.78.84,0,1.81-.17,2.77-.33,2.28,1.83,2.52,3,3.86a4,4,0,0,1,1,2.58c0,1.08-.75,2.06-.49,3.16.38,1.61,2,1.74,3.36,2.15,1,.31,1.15.87,1,1.88a9.1,9.1,0,0,0-.28,3c.33,1.9,2.08,3.13,2.25,5.07a6,6,0,0,1-1.78,4.6,4.11,4.11,0,0,1-4.43,1.06,4.91,4.91,0,0,1-2.91-5.16c.14-2.07.16-4.09-1.85-5.27-1-.56-2.16-.75-2.47-2a14.23,14.23,0,0,1-.08-2.92,4.72,4.72,0,0,0-.73-2.64,6.32,6.32,0,0,0-2.66-1.69,4.3,4.3,0,0,1-2-5.42,1,1,0,0,0-.86-1.5,3.38,3.38,0,0,1-2.54-5.12c.51-.75-.33-1.67-1.13-1.47a3.41,3.41,0,0,1-3.55-5.42l-1.82-.77c-.11.39-.41,0-.44-.06-.13-.41.4-1.59.55-2A9.39,9.39,0,0,1,138,69.72c.92-.9-.49-2.31-1.42-1.41Z"/><path d="M95.9,98.32a6,6,0,0,0-4.74,1.93,3.88,3.88,0,0,0-.55,4c1.21,2.54,5.36,2,5.43-1a1,1,0,0,0-1.7-.71c-4.35,3.94-2.55,11.88,2.91,13.76l-.6-1.46a7.2,7.2,0,0,0,8.61,10.29L104,123.87a10,10,0,0,0,6.61,11.5l-.73-1a24.21,24.21,0,0,0,.75,5.35c.31,1.21.68,3.08,1.8,3.85s2-.05,3.09-.21c.94-.13,1.12,1.82,1.69,2.46a2.07,2.07,0,0,0,2.45.55,3.47,3.47,0,0,0,1.6-2.77,35.85,35.85,0,0,0-.31-10.39,41,41,0,0,0-3-10.11,10.26,10.26,0,0,0-2.37-3.79c-.55-.46-1.21-.73-1.79-1.13a2.73,2.73,0,0,1-1.17-2c-.28-1.3-.39-2.62-1.33-3.66s-2.39-1.34-3.25-2.37-.57-2.59-.5-3.83a6.16,6.16,0,0,0-.91-4.13c-1.06-1.41-2.9-2.35-4.34-3.32a16.8,16.8,0,0,0-4.74-2.49,7.23,7.23,0,0,0-4.55.07,1.92,1.92,0,0,0-.92,2.87c.78,1,2.52,0,1.73-1a3.58,3.58,0,0,0,.38-.06,5.73,5.73,0,0,1,1.11-.2,5.55,5.55,0,0,1,1.72.24,14.7,14.7,0,0,1,3.92,2.06,35.2,35.2,0,0,1,3.55,2.48,3.65,3.65,0,0,1,1,3.3c-.09,2-.29,4.15,1.33,5.66a25.64,25.64,0,0,0,2.46,1.64c1,.77,1.1,1.93,1.33,3.1a4.89,4.89,0,0,0,1.2,2.59c.89.9,2.2,1.22,3,2.26,1.64,2.19,2.51,5.31,3.23,7.92a38.65,38.65,0,0,1,1.33,8.13c.07,1.34.08,2.69,0,4,0,.49-.07,3.25-.78,2.9-.24-.12-.39-.91-.49-1.16a4,4,0,0,0-.59-1.09,2.32,2.32,0,0,0-2.58-.74c-.48.14-1.1.7-1.57.31s-.6-1.59-.74-2.1a21.9,21.9,0,0,1-.8-5.27,1,1,0,0,0-.74-1,8,8,0,0,1-5.21-9,1,1,0,0,0-1.23-1.23,5.26,5.26,0,0,1-6.35-7.35,1,1,0,0,0-.6-1.47c-4.12-1.43-5.2-7.55-2-10.42L94,103.22c0,.45-.55.7-1,.63-.68-.11-.85-.84-.76-1.44.25-1.65,2.2-2.06,3.58-2.09a1,1,0,0,0,0-2Z"/><path d="M77.08,105.84a17.4,17.4,0,0,0-2.54,11.47,1,1,0,0,0,1.27,1,17,17,0,0,0,4.18-1.9l-1.22-1.58A9.7,9.7,0,0,0,77,123.53a11,11,0,0,0,2.51,4.15c1.45,1.67,1.2,3.53,1.55,5.57a5.26,5.26,0,0,0,2.28,3.66,3.09,3.09,0,0,0,2,.41,11.51,11.51,0,0,1,1.12-.33c.65,0,.58.14.69.73.29,1.52.25,2.87,1.11,4.25a7.14,7.14,0,0,0,3.55,2.86c1.09.43,1.7-1.25.77-1.83a1.86,1.86,0,0,1-1-1.41c-.16-1.26-2.16-1.28-2,0a4,4,0,0,0,2,3.14l.77-1.83a5,5,0,0,1-3-3.31c-.29-1.11-.09-2.32-.6-3.37a2.23,2.23,0,0,0-2.86-1.15c-.83.24-1.33.43-2-.26a3.77,3.77,0,0,1-.93-2.17c-.22-1.53-.11-3.11-.77-4.55s-1.88-2.25-2.62-3.53a7.6,7.6,0,0,1,.59-8.34c.65-.82-.17-2.23-1.21-1.57a14.94,14.94,0,0,1-3.7,1.7l1.26,1a15.69,15.69,0,0,1,2.27-10.46c.69-1.09-1-2.1-1.73-1Z"/><path d="M77.21,106.91a1.65,1.65,0,0,0,.55,2.68c1.45.67,2.32-.91,3.62-1.1a3.62,3.62,0,0,1,3.51,2.44c.71,1.85.37,4,.08,5.89a1,1,0,0,0,1,1.26l3.77.3-1-.73a22.52,22.52,0,0,1,.92,7.16,1,1,0,0,0,1.27,1c4.48-1.17,5.86,4.78,6.41,7.9a1,1,0,0,0,1.83.24c.78-1.42,2.87-.65,3.75.28,1.27,1.36,1.63,3.46,2.38,5.11.85,1.85,2.32,3.19,3.44,4.85,1,1.4,1.67,3.52.19,4.83l1.21-.16-3.87-2c-1.14-.59-2.15,1.13-1,1.73l3.88,2a1,1,0,0,0,1.21-.16c1.7-1.5,1.71-4,.84-5.95a15.9,15.9,0,0,0-2.42-3.47,13.18,13.18,0,0,1-2.22-3.89c-.82-2.2-1.68-4.53-4-5.51-1.82-.77-4.08-.54-5.11,1.33l1.83.24c-.45-2.53-1-5.22-2.73-7.2a6.18,6.18,0,0,0-6.14-2.1l1.26,1a24.38,24.38,0,0,0-1-7.69,1.06,1.06,0,0,0-1-.74l-3.77-.3,1,1.27c.48-3.06,1-6.74-1.43-9.17a5.61,5.61,0,0,0-3.28-1.67,4.27,4.27,0,0,0-1.81.16,4.35,4.35,0,0,0-1,.49l-.45.32c-.37.13-.48.41-.33.85,1-.87-.46-2.28-1.42-1.42Z"/><path d="M83.65,150.25c-1.17-1.86-.26-4.34-.52-6.4-.28-2.26-1.77-3.09-3.78-3.68-.67-.2-1.16-.22-1-1a15.9,15.9,0,0,0,.33-1.67,6.46,6.46,0,0,0-.81-3.3,6.53,6.53,0,0,0-5.58-3.45l.71,1.71c2.4-2.43.36-6.19-2.24-7.52-1.69-.87-3.63-1-5.43-1.53A9.17,9.17,0,0,1,62.44,122,4.47,4.47,0,0,0,60,121c-3.31-.1-5.64,2.94-5.91,6a6.49,6.49,0,0,0,1,4.12c.44.66.85,1.19,1.69,1.14,1.19-.08,2.42-.41,3.59-.6l-1.23-1.23c-1.28,6.07-2.14,13.7,4.2,17.28.72.4,1.55.76,1.84,1.6s.16,1.55.39,2.29a6.07,6.07,0,0,0,2,2.91,6.43,6.43,0,0,0,6.75.88l-1.21-.16c.92.94.46,2.55.45,3.74a6,6,0,0,0,.93,3.45c.72,1.1,1.72,2,2.43,3.08a13.64,13.64,0,0,1,1.5,4.44c.57,2.49,1.33,4.82,3.59,6.25,1.8,1.13,4.19,1.35,5.7-.35.85-1-.56-2.38-1.42-1.42-1.43,1.63-3.87,0-4.77-1.46-1.34-2.15-1.26-5-2.27-7.3-.89-2-3.33-3.55-3.65-5.79s.64-4.3-1.07-6a1,1,0,0,0-1.22-.16,4.49,4.49,0,0,1-5.5-1.85c-.62-1.07-.41-2.31-.86-3.43a4.86,4.86,0,0,0-2.3-2.22C58.93,143,59.84,136.46,61,131a1,1,0,0,0-1.23-1.23l-3.59.6,1,.25a4.75,4.75,0,0,1-.65-5.19,4.22,4.22,0,0,1,1.89-2c1.61-.8,2.52,0,3.83.85,2,1.28,4.49,1.33,6.72,2.09,1.56.54,4.34,2.93,2.61,4.69a1,1,0,0,0,.7,1.7,4.63,4.63,0,0,1,4.39,4.43c0,1.11-.67,2.14-.23,3.25a2.85,2.85,0,0,0,1.86,1.54c.79.28,1.91.33,2.48,1a4,4,0,0,1,.43,2.62c-.07,1.93-.35,4,.74,5.69.68,1.09,2.42.08,1.73-1Z"/><path d="M93.94,167c0-.13,0-.13,0,0q0-.19,0,0c.06-.12.06-.13,0,0s0,.08,0,0l-.12.11c.1-.07.1-.08,0,0l-.15.08c.11-.05.11-.05,0,0l-.17,0h0c-.06,0-.4,0-.18,0l-.17-.05h0c-.09-.06-.1-.06,0,0l-.09-.07a2.17,2.17,0,0,1-.54-1.28,8,8,0,0,1,0-1.7,8.83,8.83,0,0,1,.41-1.56,4.55,4.55,0,0,1,.31-.64c.1-.19.3-.5.37-.6a2.06,2.06,0,0,1,.92-.75c-.21.09.12,0,.16,0s.12,0,0,0h.35c-.11,0-.11,0,0,0l.37.11a1,1,0,0,0,1.23-.69,1,1,0,0,0-.7-1.23c-2.61-1-4.5,1.72-5.13,3.88s-.66,6.42,2.46,6.59a2.32,2.32,0,0,0,2.57-2.64,1,1,0,0,0-1.93.53Z"/><path d="M103.26,157.39a2.59,2.59,0,0,1,.4.09l.2.06.12.05-.11-.05c.07,0,.3.15.36.18s.29.15.33.23l0,0,0,0,.15.14a3.83,3.83,0,0,1,.28.29,1,1,0,0,1,.13.16c-.11-.22,0,0,0,0s.16.25.23.38l.1.18s.12.25,0,.1,0,.07,0,.1a1.59,1.59,0,0,1,.07.2c0,.13.07.26.1.39l0,.2c0,.09,0-.23,0,0a2.81,2.81,0,0,1,0,.41,1.41,1.41,0,0,1,0,.2c0,.23,0-.09,0,0a4.69,4.69,0,0,1-.24.81,1,1,0,0,0,.46,1.13,1.06,1.06,0,0,0,1.22-.16l1.55-1.22a1,1,0,0,0,0-1.41,1,1,0,0,0-1.41,0l-1.56,1.22,1.67,1a5,5,0,0,0-3.65-6.6,1,1,0,0,0-1.23.7,1,1,0,0,0,.69,1.23Z"/><path d="M175.65,149.08c-2.11,0-2.79-2.91-2.13-4.53,1-2.47,4-3.65,6.25-4.62a1,1,0,0,0,0-1.73c-1.91-1-1.46-3.84-.22-5.24,1.92-2.17,5.47-2.1,8.11-2.12a1,1,0,0,0,0-2c-3.52,0-7.94.22-10.11,3.47-1.59,2.37-1.52,6.13,1.21,7.62V138.2c-3,1.29-6.81,3.12-7.4,6.72-.46,2.78,1.16,6.13,4.29,6.16a1,1,0,0,0,0-2Z"/><path d="M202.54,103.4a3.61,3.61,0,0,1-.32-6.8,1,1,0,0,0,.24-1.83,3.14,3.14,0,0,1,3.1-5.41,1,1,0,0,0,1.37-.35,1,1,0,0,0-.36-1.37,5.13,5.13,0,0,0-5.12,8.86l.24-1.83a5.61,5.61,0,0,0,.31,10.66c1.23.4,1.76-1.53.54-1.93Z"/><path d="M161.75,192.74a12.07,12.07,0,0,0,15.79,6.43l-1.51-.86a24.42,24.42,0,0,0,1.91,12.37c.51,1.18,2.24.16,1.73-1A22.55,22.55,0,0,1,178,198.31c.1-.84-.89-1.14-1.5-.87a10.06,10.06,0,0,1-12.85-5.23c-.47-1.18-2.41-.67-1.93.53Z"/><path d="M220.52,199.24a8.23,8.23,0,0,0,6.92,2.88l-.51-1.86c-4.52,3.42-4.06,11.41,1.15,14,1.14.57,2.16-1.15,1-1.73-3.72-1.85-4.57-8-1.15-10.55.7-.52.6-1.95-.5-1.86a6.37,6.37,0,0,1-5.51-2.3c-.83-1-2.24.44-1.41,1.42Z"/><path d="M219.5,262.56c1.12-.8,2.5-.16,3.52.51a15.19,15.19,0,0,0,3.59,2.13,3.92,3.92,0,0,0,3.54-.56,2.84,2.84,0,0,0,1.17-3.25l-.7,1.23a4.31,4.31,0,0,1,2.93.64,1,1,0,0,0,1-1.73,6.53,6.53,0,0,0-4.47-.84,1,1,0,0,0-.7,1.23c.31.84-.68,1.45-1.43,1.49-1.1.07-2.2-.84-3-1.44-1.81-1.29-4.32-2.63-6.43-1.14-1,.74,0,2.47,1,1.73Z"/><path d="M34.6,314.35Q31.72,293.74,30.19,273,29.46,262.89,29,252.8q-.21-5.18-.34-10.35A74.58,74.58,0,0,0,28.1,233c-.88-5.71-3.84-11.49-9.62-13.46-1.22-.41-1.74,1.52-.53,1.93,5.32,1.81,7.65,7.55,8.31,12.7a91.47,91.47,0,0,1,.46,9.51q.13,4.94.34,9.85.86,19.83,2.93,39.56,1.16,10.92,2.69,21.79c.17,1.27,2.1.73,1.92-.53Z"/><path d="M27.86,229.68a9.28,9.28,0,0,1,6-7.42,1,1,0,0,0,.7-1.23,1,1,0,0,0-1.23-.7,11.29,11.29,0,0,0-7.49,9.35,1,1,0,0,0,1,1,1,1,0,0,0,1-1Z"/><path d="M241.85,121c9.06-3,17.93-6.49,26.67-10.32l13.47-5.9,3.2-1.4c.82-.36,2-.65,2.36-1.59a1.25,1.25,0,0,0-2.11-1.26,1,1,0,0,0-.15,1.22l.06.11c.61,1.13,2.34.12,1.72-1l-.06-.11-.15,1.21-.57.13-.6-.46.1.13-.11-.77c-.07.3-2.12.94-2.42,1.07l-3,1.3-5.48,2.41c-3.72,1.63-7.43,3.28-11.16,4.87q-11,4.7-22.33,8.44c-1.22.4-.7,2.33.53,1.93Z"/><path d="M296.64,97l19.62-6.38c1.61-.53,18.32-6.37,18.56-5.74.45,1.19,2.38.67,1.92-.54-1.1-2.9-5.13-.83-7.08-.19l-11.1,3.62L296.11,95.1c-1.22.39-.7,2.33.53,1.92Z"/><path d="M279.63,181.21c11.75-.77,21.29-8.39,31-14.27a205.82,205.82,0,0,1,33.08-16.26q9.74-3.75,19.8-6.5a1,1,0,0,0-.53-1.93,210.57,210.57,0,0,0-34.21,12.66q-8.19,3.87-16,8.44c-5,2.94-9.85,6.23-14.86,9.21-5.6,3.33-11.63,6.22-18.23,6.65-1.28.09-1.29,2.09,0,2Z"/><path d="M360.78,143.57c7.92,10.27,13.56,22,18.64,33.88,5.47,12.81,10.7,25.73,16,38.6l9.3,22.45,1-1.27a15.53,15.53,0,0,0-9.49,3.43l1.41,1.41a24.73,24.73,0,0,1,17.16-5.55c1.29.07,1.28-1.93,0-2a26.69,26.69,0,0,0-18.57,6.14c-1,.82.42,2.19,1.41,1.41a13.37,13.37,0,0,1,8.08-2.84c.58,0,1.22-.64,1-1.26l-16.6-40.09C385,185.52,380.12,173,374,161a119.78,119.78,0,0,0-11.51-18.47c-.77-1-2.51,0-1.73,1Z"/><path d="M286.46,188.54a2.91,2.91,0,0,0,.67,4.53c1,.53,2.25-.22,3.24-.56l4.41-1.54q8.58-3.08,17-6.58a349.14,349.14,0,0,0,32.64-15.67,44,44,0,0,0,4.18-2.36,5.8,5.8,0,0,0,2.07-3c1.14-3.27,2-6.65,3-10,.38-1.23-1.55-1.76-1.93-.53l-2.38,7.86a11.78,11.78,0,0,1-1.17,3.23c-.71,1-2.11,1.55-3.17,2.13q-6.85,3.79-13.86,7.26Q317,180.4,302.13,186.11q-4,1.56-8.1,3l-4.19,1.46c-.36.12-1.58.77-1.92.61s-.28-1-.05-1.24c.89-.93-.52-2.35-1.41-1.41Z"/><path d="M347.49,165.41a573.24,573.24,0,0,1,33.31,62.16q4.18,9.15,8.07,18.45a1,1,0,0,0,1.46.59l5.24-2.47c1.17-.55.15-2.27-1-1.72l-5.24,2.47,1.47.59a575.21,575.21,0,0,0-31.28-63.75q-5-8.74-10.3-17.33c-.67-1.09-2.4-.09-1.72,1Z"/><path d="M307.14,295.23c-.71,1.1-3.62-2-4-2.47a7.6,7.6,0,0,1,4.64-12c1.28-.29.71-2.1-.53-1.93s-1.55-1.48-1.28-2.27c.41-1.18,1.77-1.79,2.89-2.09a11.07,11.07,0,0,1,8.06,1.15,1,1,0,0,0,1.37-.36,6.71,6.71,0,0,1,9.2-1.48,7,7,0,0,1,2.59,4.19c.24,1.21.09,4.94-2,4.43-1.25-.31-1.79,1.62-.53,1.93,2.69.66,4.4-2.06,4.61-4.41a8.87,8.87,0,0,0-2.46-6.84c-3.7-3.89-10.06-3-13.13,1.17l1.36-.36c-3.53-1.93-8.94-2.75-12.33,0a4.09,4.09,0,0,0-1.52,4.51,3.31,3.31,0,0,0,3.7,2.39l-.53-1.93a9.81,9.81,0,0,0-7.48,10.94,10,10,0,0,0,3.61,6.11c1.49,1.18,4.14,2.45,5.47.37.7-1.08-1-2.09-1.72-1Z"/><path d="M294.59,251.19c.67,3.43,1.59,7.07,4.06,9.69,2.09,2.21,5.39,3.68,8.42,2.7,4.73-1.52,6.17-8.56,2.44-11.83-.81-.71-2.21.21-1.57,1.22,2.41,3.79,8.53,4.45,11.41.81s.85-9.49-3.48-10.83l.7,1.23a6.26,6.26,0,0,0-5.18-7.16,7.2,7.2,0,0,0-4.75,1.32,10,10,0,0,1-2.36,1.17,3.16,3.16,0,0,1-2.71-.71c-1.35-.89-2.7-1.81-4.39-1.29s-2.72,2.22-3.41,3.73a18.7,18.7,0,0,0-1.11,12.31c.31,1.25,2.23.72,1.93-.53a16.61,16.61,0,0,1,.6-10c.47-1.22,1.37-3.54,2.94-3.64,1.28-.08,2.48,1.35,3.58,1.85,2.77,1.26,4.87-.8,7.26-1.85,2.74-1.21,6.24,1.21,5.67,4.3a1,1,0,0,0,.7,1.23c3,.93,4.44,5.18,2.44,7.68s-6.44,2-8.11-.6l-1.57,1.21c2.77,2.42,1.6,8-2.19,8.64-2.64.47-5.21-1.27-6.65-3.34-1.59-2.3-2.21-5.11-2.74-7.81-.25-1.26-2.18-.73-1.93.53Z"/><path d="M335.89,222.33c-4.95.65-6.48,6.62-4.82,10.73,1,2.38,3.16,4.76,5.9,4.87s5.2-2.43,4.48-5.16l-1.93.53c1.62,4.75,4.09,10.19,9.88,10.26,4.29.05,8.69-2.91,9.46-7.28l-1.83.24c1.9,4.41,8.05,5.52,11.9,3,4.66-3,5.14-9.54,2.89-14.16l-.87,1.5a6.53,6.53,0,1,0-.17-13.05,1,1,0,0,0,0,2,4.53,4.53,0,1,1,.17,9.05,1,1,0,0,0-.86,1.51c1.76,3.62,1.5,9-2.17,11.43-3,2-7.68,1.1-9.16-2.33a1,1,0,0,0-1.83.24c-.62,3.51-4.05,5.85-7.53,5.81-4.77-.06-6.65-5-7.95-8.79a1,1,0,0,0-1.93.53,2.12,2.12,0,0,1-1.39,2.41,2.88,2.88,0,0,1-2.68-.3,6.52,6.52,0,0,1-2.88-4.27c-.52-2.49.28-6.41,3.32-6.81,1.26-.16,1.27-2.16,0-2Z"/><path d="M347.28,226.61c-2.41,2.74.09,6.94,3.55,6.75,4.19-.22,6-4.46,5.76-8.15l-.49.86c.57-.32,1.65,1.62,1.93,2a4.08,4.08,0,0,0,2.94,1.87,4.26,4.26,0,0,0,4.68-4,1,1,0,0,0-2,0,2.18,2.18,0,0,1-3.66,1.41c-1.27-1.41-2.54-4.33-4.9-3a1,1,0,0,0-.5.86c.16,2.37-.48,5.3-3.1,6a2.45,2.45,0,0,1-2.71-.75,2,2,0,0,1-.08-2.48c.84-1-.57-2.38-1.42-1.41Z"/><path d="M326.54,228.13a24.08,24.08,0,0,1,4-12.25,1,1,0,0,0-.6-1.47l-12.89-4.88A1,1,0,0,0,316,210a1.67,1.67,0,0,0,1.94,2.42c1.17-.48.66-2.41-.54-1.92l.33.51-1.13.46,12.89,4.88-.59-1.47a26,26,0,0,0-4.32,13.26c-.06,1.29,1.94,1.29,2,0Z"/><path d="M328.3,216.47q9.92-4,20.17-7.15a72.38,72.38,0,0,1,9.28-2.44c2.86-.46,6.07-.43,8.44,1.48l.2-1.57a1,1,0,0,1-1.12,0c-1.09-.7-2.09,1-1,1.72a2.9,2.9,0,0,0,3.14,0,1,1,0,0,0,.21-1.57c-5.14-4.14-12.19-1.75-17.83-.1a231.22,231.22,0,0,0-22,7.7c-1.18.48-.67,2.41.53,1.93Z"/><path d="M360.05,204.42a22.36,22.36,0,0,1,1.06-13.21,1,1,0,0,0-.7-1.23,1,1,0,0,0-1.23.7A24.2,24.2,0,0,0,358.12,205c.29,1.25,2.22.72,1.93-.54Z"/><path d="M269.79,212.46l25.63,0c1.77,0,4.08-.41,5.45,1a30.08,30.08,0,0,1,3.48,5.11q3.38,5.25,6.45,10.7l1.57-1.22a7.94,7.94,0,0,1-2.21-2.61c-.6-1.14-2.33-.13-1.73,1a9.21,9.21,0,0,0,2.53,3c.84.65,2.17-.15,1.57-1.21q-3.31-5.87-7-11.51c-1.07-1.65-2.08-3.65-3.56-5-1.29-1.17-2.92-1.26-4.58-1.26q-13.82,0-27.62,0a1,1,0,0,0,0,2Z"/><path d="M301.1,211.24a13.84,13.84,0,0,1,1.25-1.74,16.58,16.58,0,0,1,1.54-1.6,15.62,15.62,0,0,1,3.6-2.44,1,1,0,0,0-1-1.73,17.84,17.84,0,0,0-7.12,6.5,1,1,0,1,0,1.73,1Z"/><path d="M269.15,212.27a85.93,85.93,0,0,0,20.65,23.92c1,.79,2.43-.62,1.42-1.42a84.24,84.24,0,0,1-20.34-23.51,1,1,0,0,0-1.73,1Z"/><path d="M53,116.61l-4.85-7.48L48,110.34c1-1.17,2.86-1,4,0,1.7,1.35,2.18,3.77,2.64,5.76a1,1,0,1,0,1.92-.53c-.58-2.56-1.33-5.4-3.6-7-1.87-1.31-4.86-1.49-6.42.39a1,1,0,0,0-.16,1.21l4.85,7.48a1,1,0,0,0,1.37.36,1,1,0,0,0,.36-1.37Z"/><path d="M77.14,99.27a22.93,22.93,0,0,0-4.41-5.4l.16,1.21a1.89,1.89,0,0,1,1.39-1.14,3.22,3.22,0,0,1,2.15.15c1.64.67,2.76,2.65,3.65,4.21a1,1,0,0,0,1.73-1c-1.2-2.09-2.63-4.41-5.06-5.2-2-.65-4.66-.07-5.59,2a1.06,1.06,0,0,0,.16,1.22,21.13,21.13,0,0,1,4.09,5,1,1,0,0,0,1.73-1Z"/><path d="M96.91,86.72a37.39,37.39,0,0,1-5.22-8.37l.1.77A2.18,2.18,0,0,1,93.52,78a3.64,3.64,0,0,1,2.65.77,9.66,9.66,0,0,1,2.17,2.5c.78,1.18,1.53,2.39,2.29,3.59s2.42.08,1.73-1a56.81,56.81,0,0,0-3.29-5,7,7,0,0,0-4.13-2.82,4.79,4.79,0,0,0-4.31,1.23,3.43,3.43,0,0,0-.61.89c-.31.66-.07,1.11.22,1.73.42.87.86,1.74,1.35,2.58a38.64,38.64,0,0,0,3.91,5.59,1,1,0,0,0,1.41,0,1,1,0,0,0,0-1.41Z"/><path d="M117.27,70.06c-.82-1.27-1.75-2.52-2.48-3.85a2.4,2.4,0,0,1-.28-.73.86.86,0,0,1,0-.28.5.5,0,0,1,0-.13c.05-.15,0,.14,0,0s0,0,.06-.1-.09,0,0,0l.21-.11c-.19.08.11,0,.17,0s-.1,0,.09,0h.53a1.38,1.38,0,0,0,.26,0l.56.17a6,6,0,0,1,.56.31,1.29,1.29,0,0,1,.37.3,7.08,7.08,0,0,1,.52.59c.37.44.72.9,1.08,1.34a5.44,5.44,0,0,0,3.17,2.1,1,1,0,0,0,1.23-.7,1,1,0,0,0-.7-1.23,2.58,2.58,0,0,1-1.34-.6,10.32,10.32,0,0,1-1.26-1.38,7.69,7.69,0,0,0-2.56-2.42,4.49,4.49,0,0,0-3.29-.37,2.6,2.6,0,0,0-1.7,3.12,8,8,0,0,0,1.33,2.52l1.63,2.51c.7,1.07,2.43.07,1.72-1Z"/><path d="M142.86,57.41a52.67,52.67,0,0,1-6.31-8.82l-.16,1.21A13.59,13.59,0,0,1,141,46l-1.37-.36a71.24,71.24,0,0,1,6.24,9.86c.59,1.14,2.32.13,1.72-1a70.25,70.25,0,0,0-6.23-9.86,1,1,0,0,0-1.37-.35,14.79,14.79,0,0,0-5,4.07,1,1,0,0,0-.16,1.21,56.11,56.11,0,0,0,6.62,9.23c.86,1,2.27-.46,1.42-1.42Z"/><path d="M88.23,258.7a75.36,75.36,0,0,0-7.17-45.95,73.78,73.78,0,0,0-7.31-11.58c-.39-.5-1.26,0-.87.51a74.25,74.25,0,0,1,15.31,43.43,72.44,72.44,0,0,1-.93,13.32c-.1.63.86.9,1,.27Z"/><path d="M71.8,201.84a193.18,193.18,0,0,1,27.1-18.63c9.43-5.51,19-10.88,28.83-15.71a77.11,77.11,0,0,1,15.71-6,55.62,55.62,0,0,1,16.27-1.41c11,.6,21.75,4.08,31.63,8.94,11.11,5.46,21.27,12.6,31.37,19.7.53.37,1-.5.51-.87-18-12.66-37-25.81-59.5-28.43a59.76,59.76,0,0,0-16.14.23,63.59,63.59,0,0,0-15.77,4.85c-5.19,2.29-10.17,5-15.16,7.72s-9.85,5.33-14.71,8.1c-10.8,6.15-21.32,12.83-30.85,20.83-.49.41.22,1.12.71.71Z"/><path d="M85.59,260.4c4.06,1.54,8.29.21,12-1.61,4.2-2.05,8.18-4.56,12.34-6.71,8.42-4.33,17.26-8.05,26.59-9.91A61.07,61.07,0,0,1,150.76,241c4.79.16,9.6.77,14.39.28a24.66,24.66,0,0,0,11.76-4.41c3.42-2.38,6.4-5.32,9.59-8a67.16,67.16,0,0,1,27.24-13.72.5.5,0,0,0-.26-1A68.24,68.24,0,0,0,189.91,225c-6.89,4.94-12.62,12.5-21.13,14.68-4.68,1.19-9.58.82-14.35.53a71.59,71.59,0,0,0-13.73.31c-9.06,1.2-17.75,4.3-26,8.16-4.68,2.2-9.23,4.65-13.72,7.21s-9.86,5.59-15.14,3.59c-.6-.23-.86.74-.26,1Z"/><path d="M64,301.06a39.53,39.53,0,0,1,7.35-9.29c2.62-2.61,5.29-5.15,8-7.69C84.66,279,90.16,274,96,269.47A101.7,101.7,0,0,1,114.7,257.7a70,70,0,0,1,10.29-4c3.56-1.05,7.72-2.28,11.36-1,4.23,1.53,5.83,6.3,6.76,10.29a38.36,38.36,0,0,1,.46,14.83c-.1.63.86.9,1,.27a39.52,39.52,0,0,0,0-12.84c-.59-3.64-1.57-7.65-3.92-10.59s-5.87-3.79-9.49-3.39a47.44,47.44,0,0,0-11.26,3.06c-14.69,5.55-27.06,15.7-38.44,26.27q-4.86,4.53-9.61,9.18c-3.32,3.23-6.55,6.59-8.74,10.71-.3.57.56,1.07.86.5Z"/><path d="M152,279a144.18,144.18,0,0,1-1.11-17.61c0-2.39.42-5.17,2.59-6.59s5.62-1.35,8.22-1.13c5.73.47,11.17,2.72,16.42,4.93l16.75,7.07L214,273.77l.26-.93-3-.38c-.64-.08-.63.92,0,1l3,.38a.51.51,0,0,0,.25-.94q-18-7.61-36.05-15.22c-5.49-2.32-11.17-4.63-17.19-5-2.51-.16-5.47-.17-7.77,1a6.77,6.77,0,0,0-3.36,5.11,40.15,40.15,0,0,0,0,9c.19,3.77.5,7.53.9,11.28.07.63,1.07.64,1,0Z"/><path d="M205.52,259.9,171.1,248.64l.12.91c13.45-6.6,22.31-19.46,35.26-26.8a36.39,36.39,0,0,1,11.75-4.31c.63-.1.36-1.07-.27-1-15,2.54-25.13,15-36.36,24.08a57.71,57.71,0,0,1-10.89,7.13.5.5,0,0,0,.12.91l34.42,11.26c.61.21.88-.76.27-1Z"/><path d="M238.83,206.29A29.54,29.54,0,0,1,268.06,201l.26-1-3-1c-.61-.21-.87.75-.27,1l3,1c.61.22.86-.74.26-1a30.51,30.51,0,0,0-30.2,5.57c-.49.43.22,1.13.71.71Z"/><path d="M239.53,194.92c13.39-7.43,31.34-4.68,41.91,6.39.45.47,1.15-.24.71-.7-8.44-8.85-21.49-12.55-33.4-10.14a33.53,33.53,0,0,0-9.73,3.59c-.56.31-.06,1.17.51.86Z"/><path d="M117.08,158.16a66.58,66.58,0,0,1,19-7.58,67.44,67.44,0,0,1,10.2-1.5c1.2-.08,10.11-.82,10,.93-.05.64.95.64,1,0,.1-1.18-1-1.73-2.05-1.9a30.23,30.23,0,0,0-5.21-.17,66.6,66.6,0,0,0-11.61,1.15,67.44,67.44,0,0,0-21.82,8.2.5.5,0,0,0,.5.87Z"/><path d="M54.2,202.47c1.47-3.26,4.36-5.4,7.28-7.32q4.91-3.22,10-6.12A182.85,182.85,0,0,1,93,178.64c.59-.24.34-1.21-.26-1A185.38,185.38,0,0,0,70.6,188.39c-3.55,2-7.06,4.15-10.45,6.44-2.75,1.87-5.41,4-6.81,7.14-.26.58.6,1.09.86.5Z"/><path d="M75.51,247.17a29.57,29.57,0,0,1-1.78,25.14c-4,7-11.34,11.77-14,19.6-.21.61.75.87,1,.27,2.21-6.38,7.68-10.73,11.66-15.94a30.47,30.47,0,0,0,6.21-18.33,30.07,30.07,0,0,0-2-11c-.23-.59-1.2-.33-1,.27Z"/><path d="M97.39,221.36l3.22,3.39a.51.51,0,0,0,.84-.22,3.52,3.52,0,0,0-.29-3.2.5.5,0,0,0-.86.5l1.09,1.84a.51.51,0,0,0,.91-.12,6.07,6.07,0,0,1,2.94-3.36c.57-.3.06-1.16-.51-.86a7.09,7.09,0,0,0-3.39,3.95l.91-.12-1.09-1.83-.86.5a2.59,2.59,0,0,1,.18,2.43l.84-.22-3.22-3.39c-.45-.46-1.16.24-.71.71Z"/><path d="M109.45,195.85a4.08,4.08,0,0,1,2.75,1.92.5.5,0,0,0,.93-.25l0-4.11h-1l.11,1.91a.5.5,0,0,0,.93.25l2.16-2.85a.49.49,0,0,0-.18-.68.51.51,0,0,0-.68.17l-2.16,2.86.93.25-.11-1.91a.5.5,0,0,0-1,0l0,4.11.93-.25a5,5,0,0,0-3.34-2.38.5.5,0,0,0-.61.35.5.5,0,0,0,.34.61Z"/><path d="M129.26,217.67l5.62,4c.4.27,1-.29.68-.69a5.94,5.94,0,0,1-1.16-4.37l-.91.12,1.53,2.68a.51.51,0,0,0,.86,0,4.54,4.54,0,0,1,2.57-1.87.5.5,0,0,0-.27-1,5.6,5.6,0,0,0-3.16,2.32h.86l-1.53-2.67a.5.5,0,0,0-.91.12,6.85,6.85,0,0,0,1.26,5.14l.69-.69-5.63-3.94c-.53-.37-1,.5-.5.86Z"/><path d="M154.17,228.48a8.42,8.42,0,0,1,4.33,4.87.5.5,0,0,0,1-.27,8,8,0,0,1,.6-4.83l-.68.18a3.27,3.27,0,0,1,1.41,3.18c-.07.54.68.61.93.25l2.94-4.21c.37-.53-.5-1-.86-.5l-2.94,4.21.93.25a4.29,4.29,0,0,0-1.9-4.05.51.51,0,0,0-.69.18,9.18,9.18,0,0,0-.71,5.61l1-.27a9.46,9.46,0,0,0-4.8-5.47c-.57-.28-1.08.59-.5.87Z"/><path d="M138.36,182.82a8.32,8.32,0,0,1,4,2.86.5.5,0,0,0,.93-.25l0-3.3-.93.25a2.06,2.06,0,0,0,3.54-.57c.2-.61-.77-.88-1-.26a1.07,1.07,0,0,1-1.72.32.51.51,0,0,0-.93.26l0,3.3.93-.25a9.3,9.3,0,0,0-4.64-3.32c-.61-.2-.87.77-.26,1Z"/><path d="M208.15,231.14l3.94,4a.51.51,0,0,0,.84-.49,11.09,11.09,0,0,1-.15-5.09h-1l.76,2.33c.1.32.58.54.83.22a35.39,35.39,0,0,1,3.92-4.2c.48-.43-.23-1.14-.7-.7a33.94,33.94,0,0,0-3.93,4.2l.84.22-.76-2.33c-.14-.44-.86-.51-1,0A12.27,12.27,0,0,0,212,235l.84-.49-3.94-4c-.45-.47-1.16.24-.71.7Z"/><path d="M238.7,223.46a24.94,24.94,0,0,1,4.07,4.75.51.51,0,0,0,.92-.39,9,9,0,0,1,.71-5.35l-.91-.12,1.39,5.05a.5.5,0,0,0,.91.12,10.63,10.63,0,0,1,3.64-3.66c.55-.33,0-1.2-.5-.86a11.49,11.49,0,0,0-4,4l.91.12-1.39-5.06a.5.5,0,0,0-.91-.12,10.19,10.19,0,0,0-.82,6.13l.92-.39a25.64,25.64,0,0,0-4.24-4.94c-.47-.43-1.18.27-.7.7Z"/><path d="M368.25,243.8a9.41,9.41,0,0,1,4.27,4.12c.23.42,1,.25.94-.25a11.6,11.6,0,0,1,.8-5.56l-.92.12a5.71,5.71,0,0,1,.66,4.49.51.51,0,0,0,.74.57,21.53,21.53,0,0,0,3.68-3.26c.42-.48-.28-1.19-.71-.71a19.71,19.71,0,0,1-3.48,3.1l.73.57a6.65,6.65,0,0,0-.76-5.26.5.5,0,0,0-.91.12,12.3,12.3,0,0,0-.83,5.82l.93-.26a10.34,10.34,0,0,0-4.64-4.47c-.57-.28-1.08.58-.5.86Z"/><path d="M330.7,257.34a33.29,33.29,0,0,1,4.06,5c.3.45,1.14.18.92-.38a8.89,8.89,0,0,1-.41-5.39l-.91.11A11.47,11.47,0,0,1,336,261.4a.5.5,0,0,0,1,.14,12.16,12.16,0,0,1,3.27-4.61c.48-.42-.22-1.13-.71-.71a13,13,0,0,0-3.52,5l1,.13a12.39,12.39,0,0,0-1.82-5.26.5.5,0,0,0-.91.12,9.75,9.75,0,0,0,.4,5.92l.92-.38a33.85,33.85,0,0,0-4.23-5.17c-.45-.45-1.16.26-.7.71Z"/><path d="M168,273.08a10.23,10.23,0,0,1,3.46,3.67.5.5,0,0,0,.93-.25l0-3.32-1,.13.93,2.58a.51.51,0,0,0,.84.22l2.11-2c.47-.44-.24-1.15-.7-.7l-2.12,2,.84.22-.94-2.57a.5.5,0,0,0-1,.13l0,3.32.93-.25a11.32,11.32,0,0,0-3.81-4c-.55-.35-1.05.52-.51.86Z"/><path d="M176.34,298.68,206,296.36c.64-.05.65-1.05,0-1l-29.67,2.32c-.63.05-.64,1.06,0,1Z"/><path d="M59.42,301.92l44.06-2.73c.64,0,.65-1,0-1l-44.06,2.73c-.64,0-.64,1,0,1Z"/><path d="M125.41,296.49l-.9-15.18c0-.64-1-.64-1,0l.9,15.18c0,.64,1,.65,1,0Z"/><path d="M132.9,296.5a56.21,56.21,0,0,1,0-8.41,34.62,34.62,0,0,1,.5-4.32c.08-.38,1.07-2.14,1.4-1.41.26.58,1.12.07.86-.51-.44-1-1.48-.74-2.15-.15-1.08.94-1.16,2.27-1.33,3.6a57.44,57.44,0,0,0-.3,11.2c0,.64,1,.64,1,0Z"/><path d="M139.81,298.18a21.76,21.76,0,0,1,5.43-10.78c.44-.47-.26-1.18-.7-.71a22.76,22.76,0,0,0-5.7,11.22c-.12.63.85.9,1,.27Z"/><path d="M144.27,303.12A26.28,26.28,0,0,1,154.49,297c.61-.2.35-1.16-.26-1a27.4,27.4,0,0,0-10.66,6.41c-.47.45.24,1.15.7.71Z"/><path d="M145.38,307.52l13-1.95c.64-.1.37-1.06-.26-1l-13,2c-.63.1-.37,1.06.27,1Z"/><path d="M122,310.67a2.53,2.53,0,0,1-.06-3.07,5.28,5.28,0,0,1,3.26-1.94c1.94-.5,5.62-1.05,6.36,1.54.24.87.09,2.08-.89,2.39-.61.2-.35,1.17.26,1a2.66,2.66,0,0,0,1.72-2.82,3.48,3.48,0,0,0-2.23-3.07,8.22,8.22,0,0,0-4.91-.11,7,7,0,0,0-4.25,2.27,3.55,3.55,0,0,0,0,4.54c.44.47,1.15-.24.7-.7Z"/><path d="M112.27,290a13.31,13.31,0,0,1,4.39,8.17c.09.63,1,.36,1-.27a14.14,14.14,0,0,0-4.64-8.61c-.48-.42-1.19.28-.71.71Z"/><path d="M108.61,302.16l6,3.9c.54.35,1-.51.5-.86l-6-3.91c-.54-.35-1.05.52-.51.87Z"/><path d="M158.16,305.26l16.47-1.73c.63-.07.65-1,0-1l-15.07,1.07.14,1L174,302.25c.55-.1.43-1-.13-1l-14.76,1,.13,1,13.44-1.81c.63-.09.36-1.05-.27-1L159,302.27c-.56.07-.43,1,.13,1l14.76-1-.14-1-14.33,2.33c-.55.09-.43,1,.13,1l15.07-1.07v-1l-16.47,1.73c-.64.07-.64,1.07,0,1Z"/><path d="M160,294.75l7.27-4.66-.6-.78a21.45,21.45,0,0,1-10,4.3l.27,1,10.31-4.28c.58-.24.37-1.15-.26-1a34.3,34.3,0,0,1-9.33,1.42l.25.93a15.92,15.92,0,0,1,7.71-1.53c.66,0,.62-.92,0-1a5.3,5.3,0,0,0-4.62,1.78c-.42.48.28,1.19.71.7a4.38,4.38,0,0,1,3.91-1.48v-1a16.88,16.88,0,0,0-8.21,1.67.5.5,0,0,0,.25.93,35,35,0,0,0,9.59-1.46l-.26-1-10.32,4.28a.5.5,0,0,0,.27,1A22.51,22.51,0,0,0,167.37,290c.44-.35-.14-1.09-.61-.79l-7.27,4.65c-.54.35,0,1.21.5.87Z"/><path d="M151.75,285.22a6.46,6.46,0,0,1,2.88-3.16l-.61-.78a31.8,31.8,0,0,1-4.2,3.48l.61.79,3.85-3.05-.7-.71a13,13,0,0,1-3.85,2.53l.49.83a2.93,2.93,0,0,1,2.63-1,.5.5,0,1,0,0-1,3.83,3.83,0,0,0-3.34,1.33.51.51,0,0,0-.07.6.48.48,0,0,0,.56.23,13.91,13.91,0,0,0,4.28-2.78.5.5,0,0,0,0-.71.52.52,0,0,0-.7,0l-3.86,3c-.44.35.14,1.11.61.78a32.59,32.59,0,0,0,4.4-3.64.5.5,0,0,0-.61-.78,7.57,7.57,0,0,0-3.33,3.75.51.51,0,0,0,.35.62.5.5,0,0,0,.61-.35Z"/><path d="M44.46,92.62l-5.77-4.38c-.41-.31-.95.28-.69.68l4.13,6.4.79-.61a19.35,19.35,0,0,1-4.66-6.65l-.79.6,4.62,5.87a.5.5,0,0,0,.65,0,.51.51,0,0,0,.13-.65l-1.79-4.14-.43.75a3.86,3.86,0,0,1,2.49,1.29c.43.48,1.14-.23.71-.71a4.91,4.91,0,0,0-3.2-1.58c-.42,0-.56.45-.43.75L42,94.43l.78-.61L38.18,88a.49.49,0,0,0-.66,0,.51.51,0,0,0-.13.64,20.14,20.14,0,0,0,4.82,6.86c.4.37,1.11-.11.79-.61l-4.14-6.39-.68.68L44,93.48a.49.49,0,0,0,.68-.18.51.51,0,0,0-.18-.68Z"/><path d="M66.2,80a4.5,4.5,0,0,1-.53.06s.06,0,0,0,.11-.33.13-.27-.23-.15-.28-.2-.23-.26-.34-.4l-1.45-1.79-2.89-3.58-.71.71A17.55,17.55,0,0,1,64,80.36l.83-.49a7.13,7.13,0,0,1-2.53-4.32l-.73.56a4.76,4.76,0,0,1,2.7,3.34c.14.63,1.1.36,1-.27a5.68,5.68,0,0,0-3.17-3.93.5.5,0,0,0-.73.56,8,8,0,0,0,2.79,4.77.52.52,0,0,0,.6.08.51.51,0,0,0,.23-.57,18.83,18.83,0,0,0-4.12-6.26c-.47-.47-1.11.22-.71.71l4.35,5.37a2.17,2.17,0,0,0,1.08.86.87.87,0,0,0,1.07-.51c.24-.76-.79-1.62-1.31-.79-.34.54.52,1,.86.5Z"/><path d="M59.65,97.42,52.87,84.68l-.79.6L60.5,96l.71-.7A45,45,0,0,1,52.83,84l-.87.51a91.37,91.37,0,0,0,8.53,10.21L61.2,94A89,89,0,0,1,50.81,82.62c-.39-.5-1.26,0-.87.51A91.89,91.89,0,0,0,60.49,94.72c.47.43,1.16-.25.71-.71a89,89,0,0,1-8.37-10,.5.5,0,0,0-.87.51A45.9,45.9,0,0,0,60.5,96c.47.47,1.09-.21.71-.7L52.79,84.57c-.36-.46-1,.13-.79.61l6.78,12.74c.31.57,1.17.07.87-.5Z"/><path d="M82.54,80.52,69,63.17l-.7.71A104.48,104.48,0,0,1,81.51,79.59a.5.5,0,0,0,.86-.5,50.44,50.44,0,0,0-7.91-12c-.37-.42-1.09.13-.78.61,2.4,3.71,4.78,7.44,7.2,11.14.37.55.81,1.26,1.55,1.3a.83.83,0,0,0,.95-.71c.06-.82-1.27-1.51-1.49-.48-.14.63.83.9,1,.27-.35.29-.54.27-.58-.06a1,1,0,0,0-.34-.54c-.17-.23-.31-.48-.46-.71l-1-1.58-1.94-3-4-6.15-.79.61a49.55,49.55,0,0,1,7.76,11.83l.86-.5A104.9,104.9,0,0,0,69,63.17c-.47-.46-1.09.22-.7.71L81.83,81.23c.39.51,1.1-.21.71-.71Z"/><path d="M85.59,63.81,80.52,58.5l-.61.78a8.6,8.6,0,0,1,4.45,6.53l.85-.35a10.44,10.44,0,0,1-3-4.28l-.83.48a2.47,2.47,0,0,0,1.15.69,2.29,2.29,0,0,1,1,.5.93.93,0,0,1,.19.37s0,.09,0,.08.25,0,.29,0,0,0,0,0-.08-.13,0,0-.06-.09,0-.05,0,0,0,0c-.13.23-.29.31-.48.23a.52.52,0,0,0,.69-.18.5.5,0,0,0-.18-.68.69.69,0,0,0-1,.88c.16.56.76,1,1.32.62s.41-1.49-.13-2a2.64,2.64,0,0,0-1.07-.57A2.16,2.16,0,0,1,82.1,61a.5.5,0,0,0-.84.48,11.24,11.24,0,0,0,3.25,4.72c.29.26.9.12.85-.35a9.63,9.63,0,0,0-4.94-7.39.51.51,0,0,0-.61.79l5.07,5.3c.45.47,1.15-.24.71-.7Z"/><path d="M106.47,68.36A40,40,0,0,1,93,51.94l-.69.68a76.05,76.05,0,0,1,12.92,12.5l.7-.71A98.43,98.43,0,0,1,92.79,51.34l-.71.71,11.09,10.89c.46.45,1.17-.26.71-.71L92.79,51.34c-.47-.46-1.12.22-.71.71a98.5,98.5,0,0,0,13.16,13.07.5.5,0,0,0,.7-.71A76.58,76.58,0,0,0,92.83,51.76c-.45-.34-.86.29-.69.68A41.09,41.09,0,0,0,106,69.23c.53.37,1-.5.5-.87Z"/><path d="M111.12,48.37l-.53.2,0-.39a1.53,1.53,0,0,0-.23-.17,6,6,0,0,1-.43-.44c-.31-.34-.62-.68-.92-1a23.08,23.08,0,0,1-1.62-2.17,24.43,24.43,0,0,1-2.49-4.75l-.74.56a21.66,21.66,0,0,1,6.18,7.43l.86-.51-4.52-8.22-.79.61,6.16,6.18a.5.5,0,0,0,.71-.71l-6.16-6.18a.51.51,0,0,0-.79.61l4.53,8.22c.31.56,1.15.06.86-.51a22.82,22.82,0,0,0-6.53-7.78.51.51,0,0,0-.74.56,26.53,26.53,0,0,0,4.43,7.43c.53.62,2,2.7,3,1.65.76-.82-.9-2-1.23-.86a.5.5,0,0,0,1,.27Z"/><path d="M127.29,46.23A31.75,31.75,0,0,1,116,32.85l-.79.61a81.62,81.62,0,0,1,9.69,14.12c.27.48,1.12.15.92-.39a28.36,28.36,0,0,0-7.16-10.67.5.5,0,0,0-.71.7,120.68,120.68,0,0,1,7.53,10.58.5.5,0,0,0,.86-.51l-2-3.88c-.3-.57-1.16-.06-.87.51l2,3.88.86-.51a121.57,121.57,0,0,0-7.68-10.77l-.71.7a27.26,27.26,0,0,1,6.9,10.24l.92-.39a84.06,84.06,0,0,0-9.85-14.32c-.4-.46-1,.13-.79.61a32.75,32.75,0,0,0,11.64,13.73c.54.36,1-.51.51-.86Z"/><path d="M127.36,31.73l1.24,1.64.68-.68a35,35,0,0,1-6.55-6.55l-.78.61a108.81,108.81,0,0,1,9,8.68l.71-.71-7.4-7.13-.61.79a36.85,36.85,0,0,1,6.95,6.37c.41.49,1.12-.22.7-.71a37.51,37.51,0,0,0-7.14-6.53c-.47-.33-1,.4-.61.79l7.4,7.13a.5.5,0,0,0,.71-.71,109,109,0,0,0-9-8.68c-.4-.34-1.15.13-.78.61a36.71,36.71,0,0,0,6.91,6.9c.39.3,1-.29.68-.68l-1.24-1.64c-.38-.51-1.25,0-.86.5Z"/><path d="M322.67,209.45a34.69,34.69,0,0,0,5.86,4.36.5.5,0,0,0,.5-.86,34.14,34.14,0,0,1-5.65-4.21c-.48-.43-1.19.27-.71.71Z"/><path d="M328.57,207.78a6.73,6.73,0,0,0,2.35,4.06.52.52,0,0,0,.71,0,.5.5,0,0,0,0-.71,5.86,5.86,0,0,1-2.1-3.61.5.5,0,1,0-1,.26Z"/><path d="M332.44,206.25a7.78,7.78,0,0,0,2.78,4.4.51.51,0,0,0,.71,0,.5.5,0,0,0,0-.71,6.87,6.87,0,0,1-2.52-4,.5.5,0,0,0-1,.27Z"/><path d="M339.22,205.63l.76,1.52a.51.51,0,0,0,.69.18.53.53,0,0,0,.18-.69l-.76-1.52a.51.51,0,0,0-.69-.18.53.53,0,0,0-.18.69Z"/><path d="M344.54,202.46l.77,3.8a.51.51,0,0,0,.61.35.51.51,0,0,0,.35-.62l-.77-3.79a.49.49,0,0,0-.61-.35.5.5,0,0,0-.35.61Z"/><path d="M346.72,200.21l1.12,3.18a.52.52,0,0,0,.61.35.5.5,0,0,0,.35-.62l-1.11-3.18a.53.53,0,0,0-.62-.35.52.52,0,0,0-.35.62Z"/><path d="M350.45,199.46l.74,3a.5.5,0,0,0,1-.26l-.73-3.05a.5.5,0,0,0-.62-.34.51.51,0,0,0-.35.61Z"/><path d="M353.32,197.52a.5.5,0,0,0,0-1,.5.5,0,0,0,0,1Z"/><path d="M321.17,180.32V171.2a.5.5,0,0,0-1,0v9.12a.5.5,0,0,0,1,0Z"/><path d="M323.45,178.8V167.41a.5.5,0,0,0-1,0V178.8a.5.5,0,0,0,1,0Z"/><path d="M330.93,172.84l1.58-10.62c.09-.63-.87-.9-1-.27L330,172.58c-.09.63.87.9,1,.26Z"/><path d="M334.75,172.08l1.52-9.11c.1-.63-.86-.9-1-.26l-1.52,9.11c-.1.63.86.9,1,.26Z"/><path d="M342.55,167.42a27.67,27.67,0,0,1,2.61-9c.28-.58-.58-1.08-.86-.5a29.17,29.17,0,0,0-2.75,9.49c-.07.64.93.63,1,0Z"/><path d="M345.47,165.13v-4.56a.5.5,0,0,0-1,0v4.56a.5.5,0,0,0,1,0Z"/><path d="M354.71,175.16a40.23,40.23,0,0,1,3.84-11.56c.29-.58-.57-1.08-.86-.51a41,41,0,0,0-3.94,11.8c-.11.63.85.9,1,.27Z"/><path d="M357.6,174.38l1.52-6.84c.14-.63-.82-.89-1-.27l-1.52,6.84c-.14.63.82.89,1,.27Z"/><path d="M361.81,188.74q1.24-2,2.68-4c.46-.64.95-1.26,1.45-1.87a3.28,3.28,0,0,1,.66-.73c.18-.12.15,0,0-.19,0,0,0,.07,0,0s.09-.24.33-.18a.5.5,0,0,0-.27,1c.89.23,1.23-1,.64-1.5a1.08,1.08,0,0,0-1.33.05,6.26,6.26,0,0,0-1.06,1.18,56.54,56.54,0,0,0-4,5.69c-.34.55.53,1,.87.5Z"/><path d="M365.85,191.17l3-4.6c.36-.54-.51-1-.86-.5l-3,4.59c-.35.54.52,1.05.86.51Z"/><path d="M377.3,212.47a15,15,0,0,1,4.18-5.58.49.49,0,0,0,0-.7.5.5,0,0,0-.71,0,15.7,15.7,0,0,0-4.33,5.77.52.52,0,0,0,.18.69.5.5,0,0,0,.68-.18Z"/><path d="M381.42,214.23h.76a.51.51,0,0,0,.35-.15.47.47,0,0,0,.15-.35.51.51,0,0,0-.15-.35.49.49,0,0,0-.35-.15h-.76a.51.51,0,0,0-.35.15.45.45,0,0,0-.15.35.51.51,0,0,0,.15.35.49.49,0,0,0,.35.15Z"/><path d="M211.32,167.91a152.73,152.73,0,0,0,22.82-1.25c.63-.08.64-1.08,0-1a152.73,152.73,0,0,1-22.82,1.25.5.5,0,0,0,0,1Z"/><path d="M210.56,163.28l26.57-.85a.5.5,0,0,0,0-1l-26.57.85c-.64,0-.65,1,0,1Z"/><path d="M211.32,155h22a.5.5,0,0,0,0-1h-22a.5.5,0,0,0,0,1Z"/><path d="M210.57,151.31l25.81-.92c.64,0,.64-1,0-1l-25.81.92a.5.5,0,0,0,0,1Z"/><path d="M212.08,141.29l25.84,1.18c.64,0,.64-1,0-1l-25.84-1.18c-.64,0-.64,1,0,1Z"/><path d="M214.89,133.85a27.76,27.76,0,0,1-1.07-14.2c.12-.63-.84-.9-1-.27a28.8,28.8,0,0,0,1.06,14.73c.21.61,1.18.35,1-.26Z"/><path d="M222.08,118a6.33,6.33,0,0,0,3.8,5.64c2.88,1.41,6.22.91,9.26.44l-.61-.62a5.82,5.82,0,0,0,4.39,7.07c1.13.2,2.44,0,3.15,1.12.49.78.6,1.76,1.15,2.51.74,1,2.18,1.62,3.19.66.46-.45-.24-1.16-.71-.71-1.38,1.31-2.36-2.28-2.77-3a3.34,3.34,0,0,0-2.77-1.49,5,5,0,0,1-3.89-2,4.72,4.72,0,0,1-.78-4,.52.52,0,0,0-.62-.62c-2.63.41-5.54.87-8.09-.16a5.47,5.47,0,0,1-3.7-4.95.5.5,0,0,0-1,0Z"/><path d="M249.93,171.58a8.13,8.13,0,0,1,.15-15.56l-.49-.84a2.23,2.23,0,0,1-3.15-.51c-.88-1.43.33-3.31,1-4.6l3.88-7.9a.51.51,0,0,0-.18-.69,9.25,9.25,0,0,1-3.8-11.23c.23-.6-.74-.86-1-.27a10.27,10.27,0,0,0,4.27,12.37l-.18-.69-3.24,6.59c-.8,1.62-2.05,3.45-2.05,5.33a3.16,3.16,0,0,0,5.16,2.31c.4-.32,0-1-.48-.83a9.12,9.12,0,0,0-.15,17.48c.61.21.87-.76.26-1Z"/><path d="M51.87,241c1.89,2.89,6.73,3.09,8.68.11,2.1-3.21-.68-7.73-4.33-7.86l.36.85a8.15,8.15,0,0,0-6.82-13.45l.14,1a3.12,3.12,0,0,0,2-3,4.33,4.33,0,0,0-2.23-3.79,14,14,0,0,0-5.79-1.59,16.78,16.78,0,0,0-7.42.63l.56.23a7.77,7.77,0,0,0-6.18-4.3,8.25,8.25,0,0,0-3.69.32,6.77,6.77,0,0,0-1.65.79,7.47,7.47,0,0,0-.79.6c-.16.15-1.54,1.54-1.65,1,.13.63,1.1.36,1-.26-.24-1.13-1.73-.3-1.55.6.41,2,3-.77,3.53-1.12a7.19,7.19,0,0,1,10.16,2.84.52.52,0,0,0,.56.23,18,18,0,0,1,10.13-.07c1.42.37,3.11,1,3.78,2.44.55,1.18.32,3-1,3.44-.5.19-.47,1,.13,1a7.15,7.15,0,0,1,6.11,11.74.51.51,0,0,0,.35.86c2.89.1,5.19,3.82,3.47,6.35a4.39,4.39,0,0,1-7-.1c-.35-.54-1.22,0-.86.5Z"/><path d="M160,91.26q7.86-4.74,15.36-10.07A12.37,12.37,0,0,0,178.2,79a3.1,3.1,0,0,0,.16-3,25.47,25.47,0,0,0-4-7.2.52.52,0,0,0-.57-.23l-2.1.52a.5.5,0,0,0,.26,1l2.11-.52-.56-.23a25.46,25.46,0,0,1,3.73,6.6,3.38,3.38,0,0,1,.35,2c-.2.78-.93,1.19-1.55,1.64-1.08.78-2.15,1.54-3.24,2.3q-6.51,4.53-13.32,8.63a.5.5,0,0,0,.51.86Z"/><path d="M154.44,83.28,160,79.37c1.68-1.17,3.49-2.27,5.06-3.58,2.84-2.38-.28-5.27-2.16-7.08-4.6-4.43-10.89-8-13-14.37a.51.51,0,0,0-1,0l-.49,1.26c-.24.6.73.86,1,.26l.5-1.26h-1c1.8,5.55,6.61,9,10.85,12.67,1.08.93,2.14,1.88,3.14,2.89A19.08,19.08,0,0,1,164.57,72c1.08,1.48.62,2.43-.72,3.43-3.24,2.41-6.62,4.65-9.92,7-.52.36,0,1.23.51.86Z"/></g></g></svg>